<?xml version="1.0" encoding="UTF-8" standalone="no"?>
<svg
   xmlns:dc="http://purl.org/dc/elements/1.1/"
   xmlns:cc="http://creativecommons.org/ns#"
   xmlns:rdf="http://www.w3.org/1999/02/22-rdf-syntax-ns#"
   xmlns:svg="http://www.w3.org/2000/svg"
   xmlns="http://www.w3.org/2000/svg"
   xmlns:xlink="http://www.w3.org/1999/xlink"
   xmlns:sodipodi="http://sodipodi.sourceforge.net/DTD/sodipodi-0.dtd"
   xmlns:inkscape="http://www.inkscape.org/namespaces/inkscape"
   id="svg4951"
   height="64"
   width="64"
   version="1.1"
   inkscape:version="1.0.1 (1.0.1+r75)"
   sodipodi:docname="gitkraken_64.svg">
  <sodipodi:namedview
     pagecolor="#ffffff"
     bordercolor="#666666"
     borderopacity="1"
     objecttolerance="10"
     gridtolerance="10"
     guidetolerance="10"
     inkscape:pageopacity="0"
     inkscape:pageshadow="2"
     inkscape:window-width="1366"
     inkscape:window-height="705"
     id="namedview24"
     showgrid="true"
     inkscape:zoom="10.960155"
     inkscape:cx="33.930501"
     inkscape:cy="26.767996"
     inkscape:window-x="0"
     inkscape:window-y="30"
     inkscape:window-maximized="1"
     inkscape:current-layer="svg4951"
     inkscape:document-rotation="0"
     inkscape:snap-bbox="true"
     showguides="true"
     inkscape:guide-bbox="true"
     inkscape:object-paths="true"
     inkscape:object-nodes="true"
     inkscape:snap-intersection-paths="true"
     inkscape:snap-smooth-nodes="true"
     inkscape:snap-midpoints="true"
     inkscape:bbox-nodes="true">
    <inkscape:grid
       type="xygrid"
       id="grid895" />
    <sodipodi:guide
       position="32,32"
       orientation="1,0"
       id="guide911" />
    <sodipodi:guide
       position="32,32"
       orientation="0,-1"
       id="guide913" />
  </sodipodi:namedview>
  <defs
     id="defs4953">
    <radialGradient
       id="radialGradient4448"
       gradientUnits="userSpaceOnUse"
       cy="-17.681"
       cx="14.892"
       gradientTransform="matrix(-2.0695087,5.4789404e-8,-4.0748621e-8,-1.5391494,62.450705,-23.518702)"
       r="25.571">
      <stop
         id="stop3750-1-0-7-6-6-1-3-9-3"
         stop-color="#5f5f5f"
         offset="0" />
      <stop
         id="stop3752-3-7-4-0-32-8-923-0-7"
         stop-color="#515151"
         offset=".26238" />
      <stop
         id="stop3754-1-8-5-2-7-6-7-1-9"
         stop-color="#404040"
         offset=".70495" />
      <stop
         id="stop3756-1-6-2-6-6-1-96-6-0"
         stop-color="#343434"
         offset="1" />
    </radialGradient>
    <linearGradient
       id="linearGradient4450"
       y2="32.568"
       gradientUnits="userSpaceOnUse"
       x2="15.124"
       gradientTransform="matrix(1.0992404,0,0,1.0992404,-45.078699,21.271724)"
       y1="-18.801"
       x1="15.124">
      <stop
         id="stop4413"
         stop-color="#fff"
         offset="0" />
      <stop
         id="stop4415"
         stop-color="#fff"
         stop-opacity="0"
         offset="1" />
    </linearGradient>
    <radialGradient
       xlink:href="#linearGradient3820-7-2"
       id="radialGradient3300-8"
       gradientUnits="userSpaceOnUse"
       gradientTransform="matrix(0.3823536,7.5555777e-8,-1.8372241e-8,0.1115198,-5.9254271,36.335849)"
       cx="99.189415"
       cy="185.29727"
       fx="99.189415"
       fy="185.29727"
       r="62.769119" />
    <linearGradient
       id="linearGradient3820-7-2">
      <stop
         id="stop3822-2-6"
         style="stop-color:#000000;stop-opacity:1"
         offset="0" />
      <stop
         id="stop3824-1-2"
         style="stop-color:#000000;stop-opacity:0"
         offset="1" />
    </linearGradient>
    <radialGradient
       xlink:href="#linearGradient3820-7-2"
       id="radialGradient4192-6"
       gradientUnits="userSpaceOnUse"
       gradientTransform="matrix(0.2549024,5.3967361e-8,-1.2248161e-8,0.07965545,6.7163816,44.240666)"
       cx="99.189415"
       cy="185.29727"
       fx="99.189415"
       fy="185.29727"
       r="62.769119" />
    <radialGradient
       r="62.769119"
       fy="185.29727"
       fx="99.189415"
       cy="185.29727"
       cx="99.189415"
       gradientTransform="matrix(0.3823536,7.5555777e-8,-1.8372241e-8,0.1115198,-5.9254271,36.335849)"
       gradientUnits="userSpaceOnUse"
       id="radialGradient3300"
       xlink:href="#linearGradient3820-7-2" />
    <radialGradient
       r="62.769119"
       fy="185.29727"
       fx="99.189415"
       cy="185.29727"
       cx="99.189415"
       gradientTransform="matrix(0.2549024,5.3967361e-8,-1.2248161e-8,0.07965545,6.7163816,44.240666)"
       gradientUnits="userSpaceOnUse"
       id="radialGradient4192"
       xlink:href="#linearGradient3820-7-2" />
    <linearGradient
       y2="40.495617"
       x2="71.204407"
       y1="15.369057"
       x1="71.204407"
       gradientTransform="matrix(2.3268746,0,0,2.3268746,-135.94475,-32.842781)"
       gradientUnits="userSpaceOnUse"
       id="linearGradient3293"
       xlink:href="#linearGradient4806" />
    <linearGradient
       id="linearGradient4806">
      <stop
         offset="0"
         style="stop-color:#ffffff;stop-opacity:1"
         id="stop4808" />
      <stop
         offset="0.42447853"
         style="stop-color:#ffffff;stop-opacity:0.23529412"
         id="stop4810" />
      <stop
         offset="0.82089913"
         style="stop-color:#ffffff;stop-opacity:0.15686275"
         id="stop4812" />
      <stop
         offset="1"
         style="stop-color:#ffffff;stop-opacity:0.39215687"
         id="stop4814" />
    </linearGradient>
    <linearGradient
       inkscape:collect="always"
       xlink:href="#radialGradient4448-1"
       id="linearGradient856"
       x1="3.4740009"
       y1="24"
       x2="44.525997"
       y2="24"
       gradientUnits="userSpaceOnUse"
       gradientTransform="matrix(1.4372016,0,0,1.4372016,-2.4928372,-66.492838)" />
    <radialGradient
       id="radialGradient4448-1"
       gradientUnits="userSpaceOnUse"
       cy="-17.681"
       cx="14.892"
       gradientTransform="matrix(-1.4387,3.8089e-8,-2.8328e-8,-1.07,45.169,-14.596)"
       r="25.570999">
      <stop
         id="stop3750-1-0-7-6-6-1-3-9-3-2"
         stop-color="#5f5f5f"
         offset="0"
         style="stop-color:#4d4d4d;stop-opacity:1" />
      <stop
         id="stop3756-1-6-2-6-6-1-96-6-0-7"
         stop-color="#343434"
         offset="1"
         style="stop-color:#333333;stop-opacity:1" />
    </radialGradient>
  </defs>
  <metadata
     id="metadata4956">
    <rdf:RDF>
      <cc:Work
         rdf:about="">
        <dc:format>image/svg+xml</dc:format>
        <dc:type
           rdf:resource="http://purl.org/dc/dcmitype/StillImage" />
        <dc:title />
      </cc:Work>
    </rdf:RDF>
  </metadata>
  <g
     transform="translate(1.55e-6,-0.00183192)"
     id="g4198">
    <path
       inkscape:connector-curvature="0"
       style="opacity:0.2;fill:url(#radialGradient3300);fill-opacity:1;stroke:none"
       id="path3818-0"
       d="m 55.999998,57.0017 a 24,6.9985714 0 1 1 -47.9999991,0 24,6.9985714 0 1 1 47.9999991,0 z" />
    <path
       inkscape:connector-curvature="0"
       d="m 47.999998,59.0017 a 16,4.9988822 0 1 1 -31.999999,0 16,4.9988822 0 1 1 31.999999,0 z"
       id="path4190"
       style="opacity:0.4;fill:url(#radialGradient4192);fill-opacity:1;stroke:none" />
  </g>
  <circle
     id="path2985-6-0"
     cy="-32"
     cx="32"
     r="29.5"
     fill="url(#radialGradient4448)"
     style="fill:url(#linearGradient856);fill-opacity:1;stroke-width:0.999995"
     transform="rotate(90)" />
  <circle
     style="opacity:0.6;fill:none;stroke:#000000;stroke-width:0.94845003;stroke-opacity:1"
     id="path3755-9"
     cy="32"
     cx="32"
     r="29.525776" />
  <path
     inkscape:connector-curvature="0"
     d="M 60.500011,32.000001 C 60.500011,47.740116 47.740111,60.5 31.999991,60.5 16.259892,60.5 3.5,47.740116 3.5,32.000001 3.5,16.259885 16.259892,3.5000001 31.999991,3.5000001 c 15.74012,0 28.50002,12.7598849 28.50002,28.5000009 z"
     id="path3019"
     style="color:#000000;display:inline;overflow:visible;visibility:visible;opacity:0.5;fill:none;stroke:url(#linearGradient3293);stroke-width:1;stroke-linecap:round;stroke-linejoin:round;stroke-miterlimit:4;stroke-dasharray:none;stroke-dashoffset:0;stroke-opacity:1;marker:none;enable-background:accumulate" />
  <path
     id="path910"
     style="color:#000000;font-style:normal;font-variant:normal;font-weight:normal;font-stretch:normal;font-size:medium;line-height:normal;font-family:sans-serif;font-variant-ligatures:normal;font-variant-position:normal;font-variant-caps:normal;font-variant-numeric:normal;font-variant-alternates:normal;font-variant-east-asian:normal;font-feature-settings:normal;font-variation-settings:normal;text-indent:0;text-align:start;text-decoration:none;text-decoration-line:none;text-decoration-style:solid;text-decoration-color:#000000;letter-spacing:normal;word-spacing:normal;text-transform:none;writing-mode:lr-tb;direction:ltr;text-orientation:mixed;dominant-baseline:auto;baseline-shift:baseline;text-anchor:start;white-space:normal;shape-padding:0;shape-margin:0;inline-size:0;clip-rule:nonzero;display:inline;overflow:visible;visibility:visible;opacity:1;isolation:auto;mix-blend-mode:normal;color-interpolation:sRGB;color-interpolation-filters:linearRGB;solid-color:#000000;solid-opacity:1;vector-effect:none;fill:#43d6b5;fill-opacity:1;fill-rule:evenodd;stroke:none;stroke-width:2;stroke-linecap:square;stroke-linejoin:miter;stroke-miterlimit:4;stroke-dasharray:none;stroke-dashoffset:0;stroke-opacity:1;color-rendering:auto;image-rendering:auto;shape-rendering:auto;text-rendering:auto;enable-background:accumulate;stop-color:#000000;stop-opacity:1"
     d="m 31.977596,6.9118786 c -6.117647,0 -10.705882,13.7647054 -12.235294,19.8823534 1.529412,1.529411 3.058823,3.058823 3.058823,6.117647 v 1.167969 a 4.5882354,4.5882354 0 0 0 -1.529411,3.420266 4.5882354,4.5882354 0 0 0 1.529411,3.41728 v 2.323988 3.754826 c -4.603063,-2.994792 -7.647059,-8.16817 -7.647059,-14.084329 0,-4.703806 1.934353,-8.929011 5.033319,-11.978401 L 18.039637,18.78573 c -3.6569,3.607634 -5.944394,8.596016 -5.944394,14.126149 0,8.827509 5.788008,16.320838 13.764706,18.908548 v -3.244025 -4.307446 c 0.510114,0.141195 1.018857,0.291119 1.529412,0.397289 V 55.342257 C 16.913583,53.219563 9.0364189,44.022592 9.0364189,32.911879 c 0,-2.058878 0.356746,-4.017288 0.863281,-5.914523 l -2.936351,-0.788602 c -0.578306,2.152166 -0.985753,4.370377 -0.985753,6.703125 0,13.825063 10.8429101,25.12443 24.4705881,25.922335 v -3.058823 -10.70887 c 1.019349,0.07141 2.0377,0.07291 3.058824,0.0031 v 11.159927 2.604779 c 13.627678,-0.798088 24.470589,-12.097384 24.470589,-25.922448 0,-2.332747 -0.407448,-4.550959 -0.985754,-6.703125 l -2.936351,0.788603 c 0.506535,1.897236 0.863281,3.855644 0.863281,5.914522 0,11.110714 -7.877164,20.307684 -18.352941,22.430379 V 44.67222 c 0.509811,-0.10582 1.019152,-0.255794 1.529411,-0.397289 v 5.460479 2.085017 c 7.976698,-2.58771 13.764706,-10.081039 13.764706,-18.908548 0,-5.452715 -2.21883,-10.390072 -5.786075,-13.985754 l -2.147748,2.14775 c 3.009128,3.037667 4.875,7.211976 4.875,11.838005 0,5.916159 -3.043996,11.089537 -7.647059,14.084329 v -3.754827 -2.321 a 4.5882354,4.5882354 0 0 0 1.529412,-3.420267 4.5882354,4.5882354 0 0 0 -1.529412,-3.417279 v -1.20979 c 0,-3.019061 1.529412,-4.549402 3.058823,-6.078814 C 41.154067,14.558938 38.095243,6.9118786 31.977596,6.9118786 Z M 25.785271,34.441291 a 3.0588236,3.0588236 0 0 1 0.07468,0 3.0588236,3.0588236 0 0 1 3.058824,3.058824 3.0588236,3.0588236 0 0 1 -3.058824,3.058824 3.0588236,3.0588236 0 0 1 -3.058824,-3.058824 3.0588236,3.0588236 0 0 1 2.984146,-3.058824 z m 12.235294,0 a 3.0588236,3.0588236 0 0 1 0.07468,0 3.0588236,3.0588236 0 0 1 3.058824,3.058824 3.0588236,3.0588236 0 0 1 -3.058824,3.058824 3.0588236,3.0588236 0 0 1 -3.058823,-3.058824 3.0588236,3.0588236 0 0 1 2.984145,-3.058824 z" />
  <path
     id="path1157"
     style="color:#000000;font-style:normal;font-variant:normal;font-weight:normal;font-stretch:normal;font-size:medium;line-height:normal;font-family:sans-serif;font-variant-ligatures:normal;font-variant-position:normal;font-variant-caps:normal;font-variant-numeric:normal;font-variant-alternates:normal;font-variant-east-asian:normal;font-feature-settings:normal;font-variation-settings:normal;text-indent:0;text-align:start;text-decoration:none;text-decoration-line:none;text-decoration-style:solid;text-decoration-color:#000000;letter-spacing:normal;word-spacing:normal;text-transform:none;writing-mode:lr-tb;direction:ltr;text-orientation:mixed;dominant-baseline:auto;baseline-shift:baseline;text-anchor:start;white-space:normal;shape-padding:0;shape-margin:0;inline-size:0;clip-rule:nonzero;display:inline;overflow:visible;visibility:visible;opacity:1;isolation:auto;mix-blend-mode:normal;color-interpolation:sRGB;color-interpolation-filters:linearRGB;solid-color:#000000;solid-opacity:1;vector-effect:none;fill:#00ffff;fill-opacity:1;fill-rule:evenodd;stroke:none;stroke-width:2.99999;stroke-linecap:square;stroke-linejoin:miter;stroke-miterlimit:4;stroke-dasharray:none;stroke-dashoffset:0;stroke-opacity:1;color-rendering:auto;image-rendering:auto;shape-rendering:auto;text-rendering:auto;enable-background:accumulate;stop-color:#000000;stop-opacity:1"
     d="m 22,41.818359 c 0.101542,0.0642 0.203057,0.119317 0.304688,0.181641 H 22 v 3.738281 C 17.757653,42.653786 15,37.661178 15,32 15,27.296693 16.898483,23.04683 19.972656,19.972656 L 17.865234,17.865234 C 14.243726,21.486743 12,26.486035 12,32 c 0,8.562759 5.419254,15.864731 13,18.710938 v -3.22461 -4.0625 c 0.664826,0.295657 1.331293,0.556349 2,0.769531 V 54.447266 C 16.691982,52.169747 9,43.001938 9,32 9,29.935411 9.3591023,27.972795 9.8671875,26.070312 L 6.984375,25.296875 C 6.4063454,27.448612 6,29.667742 6,32 6,45.668055 16.591026,56.891203 30,57.916016 V 54.908203 44.857422 c 1.325807,0.170905 2.658189,0.176974 4,0.0078 V 54.908203 57 57.916016 C 47.408974,56.891203 58,45.668055 58,32 58,29.668396 57.593341,27.450023 57.015625,25.298828 l -2.880859,0.771484 C 54.642754,27.972627 55,29.935614 55,32 55,43.001938 47.308018,52.169747 37,54.447266 V 44.205078 c 0.664055,-0.211221 1.331856,-0.473382 2,-0.771484 V 49 50.710938 C 46.580746,47.864731 52,40.562759 52,32 52,26.486035 49.756275,21.486743 46.134766,17.865234 l -2.107422,2.107422 C 47.101517,23.04683 49,27.296693 49,32 49,37.661178 46.242347,42.653786 42,45.738281 V 42 H 41.695312 C 41.7969,41.937108 41.898316,41.8833 42,41.818359 41.310396,36.950499 44.953619,31.768093 44,27 42,17 38.341871,7 32.074676,7 26.029529,7 22,17 20,27 c -1.017545,5.087725 2,10.431597 2,14.818359 z"
     sodipodi:nodetypes="ccccsccscccccsccscccccccsccscccccsccsccccsssc" />
  <circle
     style="opacity:1;fill:#00ffff;fill-opacity:1;fill-rule:evenodd;stroke:none;stroke-width:3;stroke-linecap:square;stroke-miterlimit:4;stroke-dasharray:none;stroke-opacity:1"
     id="circle1222"
     cx="24"
     cy="37"
     r="3.9999998" />
  <circle
     style="opacity:1;fill:#ffffff;fill-opacity:1;fill-rule:evenodd;stroke:none;stroke-width:3;stroke-linecap:square;stroke-miterlimit:4;stroke-dasharray:none;stroke-opacity:1"
     id="path1205"
     cx="25"
     cy="37"
     r="3" />
  <circle
     style="opacity:1;fill:#00ffff;fill-opacity:1;fill-rule:evenodd;stroke:none;stroke-width:3;stroke-linecap:square;stroke-miterlimit:4;stroke-dasharray:none;stroke-opacity:1"
     id="circle1222-4"
     cx="40"
     cy="37"
     r="3.9999998" />
  <circle
     style="opacity:1;fill:#ffffff;fill-opacity:1;fill-rule:evenodd;stroke:none;stroke-width:3;stroke-linecap:square;stroke-miterlimit:4;stroke-dasharray:none;stroke-opacity:1"
     id="path1205-1"
     cx="39"
     cy="37"
     r="3" />
</svg>
