<?xml version="1.0" encoding="UTF-8" standalone="no"?>
<svg
   xmlns:dc="http://purl.org/dc/elements/1.1/"
   xmlns:cc="http://creativecommons.org/ns#"
   xmlns:rdf="http://www.w3.org/1999/02/22-rdf-syntax-ns#"
   xmlns:svg="http://www.w3.org/2000/svg"
   xmlns="http://www.w3.org/2000/svg"
   xmlns:xlink="http://www.w3.org/1999/xlink"
   xmlns:sodipodi="http://sodipodi.sourceforge.net/DTD/sodipodi-0.dtd"
   xmlns:inkscape="http://www.inkscape.org/namespaces/inkscape"
   id="svg4951"
   height="16"
   width="16"
   version="1.1"
   inkscape:version="1.0.1 (1.0.1+r75)"
   sodipodi:docname="gitkraken_16.svg">
  <sodipodi:namedview
     pagecolor="#ffffff"
     bordercolor="#666666"
     borderopacity="1"
     objecttolerance="10"
     gridtolerance="10"
     guidetolerance="10"
     inkscape:pageopacity="0"
     inkscape:pageshadow="2"
     inkscape:window-width="1366"
     inkscape:window-height="705"
     id="namedview24"
     showgrid="true"
     inkscape:zoom="15.5"
     inkscape:cx="6.4884688"
     inkscape:cy="8.1744001"
     inkscape:window-x="0"
     inkscape:window-y="30"
     inkscape:window-maximized="1"
     inkscape:current-layer="svg4951"
     inkscape:document-rotation="0"
     inkscape:snap-global="true"
     showguides="true"
     inkscape:guide-bbox="true"
     inkscape:snap-bbox="true"
     inkscape:object-paths="true"
     inkscape:snap-intersection-paths="true"
     inkscape:snap-smooth-nodes="true"
     inkscape:snap-midpoints="true"
     inkscape:bbox-nodes="true">
    <inkscape:grid
       type="xygrid"
       id="grid864" />
  </sodipodi:namedview>
  <defs
     id="defs4953">
    <linearGradient
       inkscape:collect="always"
       id="linearGradient1018">
      <stop
         style="stop-color:#43d6b5;stop-opacity:1"
         offset="0"
         id="stop1014" />
      <stop
         style="stop-color:#28bca3;stop-opacity:1"
         offset="1"
         id="stop1016" />
    </linearGradient>
    <linearGradient
       inkscape:collect="always"
       id="linearGradient4156">
      <stop
         style="stop-color:#3fb2ab;stop-opacity:1;"
         offset="0"
         id="stop4158" />
      <stop
         style="stop-color:#308983;stop-opacity:1"
         offset="1"
         id="stop4160" />
    </linearGradient>
    <radialGradient
       id="radialGradient4448"
       gradientUnits="userSpaceOnUse"
       cy="-17.681"
       cx="14.892"
       gradientTransform="matrix(-0.52749357,1.3965179e-8,-1.0386347e-8,-0.3923112,15.761529,-6.1510682)"
       r="25.570999"
       xlink:href="#linearGradient4156">
      <stop
         id="stop3750-1-0-7-6-6-1-3-9-3"
         stop-color="#5f5f5f"
         offset="0" />
      <stop
         id="stop3752-3-7-4-0-32-8-923-0-7"
         stop-color="#515151"
         offset=".26238" />
      <stop
         id="stop3754-1-8-5-2-7-6-7-1-9"
         stop-color="#404040"
         offset=".70495" />
      <stop
         id="stop3756-1-6-2-6-6-1-96-6-0"
         stop-color="#343434"
         offset="1" />
    </radialGradient>
    <linearGradient
       id="linearGradient4450"
       y2="32.568"
       gradientUnits="userSpaceOnUse"
       x2="15.124"
       gradientTransform="matrix(0.28018352,0,0,0.28018352,-12.260646,-0.43698444)"
       y1="-18.801"
       x1="15.124">
      <stop
         id="stop4413"
         stop-color="#fff"
         offset="0" />
      <stop
         id="stop4415"
         stop-color="#fff"
         stop-opacity="0"
         offset="1" />
    </linearGradient>
    <radialGradient
       xlink:href="#linearGradient3820-7-2"
       id="radialGradient3300-8"
       gradientUnits="userSpaceOnUse"
       gradientTransform="matrix(0.3823536,7.5555777e-8,-1.8372241e-8,0.1115198,-5.9254271,36.335849)"
       cx="99.189415"
       cy="185.29727"
       fx="99.189415"
       fy="185.29727"
       r="62.769119" />
    <linearGradient
       id="linearGradient3820-7-2">
      <stop
         id="stop3822-2-6"
         style="stop-color:#000000;stop-opacity:1"
         offset="0" />
      <stop
         id="stop3824-1-2"
         style="stop-color:#000000;stop-opacity:0"
         offset="1" />
    </linearGradient>
    <radialGradient
       xlink:href="#linearGradient3820-7-2"
       id="radialGradient4192-6"
       gradientUnits="userSpaceOnUse"
       gradientTransform="matrix(0.2549024,5.3967361e-8,-1.2248161e-8,0.07965545,6.7163816,44.240666)"
       cx="99.189415"
       cy="185.29727"
       fx="99.189415"
       fy="185.29727"
       r="62.769119" />
    <linearGradient
       inkscape:collect="always"
       xlink:href="#linearGradient4156"
       id="linearGradient850"
       x1="-43.230652"
       y1="14.611153"
       x2="-43.183392"
       y2="42.52816"
       gradientUnits="userSpaceOnUse"
       gradientTransform="matrix(0.37499997,0,0,0.37499997,8.9192725,11.84688)" />
    <linearGradient
       x1="71.204407"
       y1="6.2375584"
       x2="71.204407"
       y2="44.340794"
       id="linearGradient3071"
       xlink:href="#linearGradient4011"
       gradientUnits="userSpaceOnUse"
       gradientTransform="matrix(0.35135136,0,0,0.35135136,-17.203671,-0.90930035)" />
    <linearGradient
       id="linearGradient4011">
      <stop
         id="stop4013"
         style="stop-color:#ffffff;stop-opacity:1"
         offset="0" />
      <stop
         id="stop4015"
         style="stop-color:#ffffff;stop-opacity:0.23529412"
         offset="0.507761" />
      <stop
         id="stop4017"
         style="stop-color:#ffffff;stop-opacity:0.15686275"
         offset="0.83456558" />
      <stop
         id="stop4019"
         style="stop-color:#ffffff;stop-opacity:0.39215687"
         offset="1" />
    </linearGradient>
    <linearGradient
       inkscape:collect="always"
       xlink:href="#linearGradient4156"
       id="linearGradient4162-6"
       x1="23.894039"
       y1="14.030275"
       x2="23.916746"
       y2="39.006622"
       gradientUnits="userSpaceOnUse"
       gradientTransform="matrix(0.375,0,0,0.375,1.6906338,17.030038)" />
    <linearGradient
       inkscape:collect="always"
       xlink:href="#linearGradient4156"
       id="linearGradient906-0"
       gradientUnits="userSpaceOnUse"
       gradientTransform="matrix(0.37499997,0,0,0.37499997,-19.998936,19.279915)"
       x1="-43.230652"
       y1="14.611153"
       x2="-43.183392"
       y2="42.52816" />
    <linearGradient
       inkscape:collect="always"
       xlink:href="#linearGradient4156"
       id="linearGradient906-0-0"
       gradientUnits="userSpaceOnUse"
       gradientTransform="matrix(0.37499997,0,0,0.37499997,-19.998936,19.279915)"
       x1="-43.230652"
       y1="14.611153"
       x2="-43.183392"
       y2="42.52816" />
    <linearGradient
       inkscape:collect="always"
       xlink:href="#linearGradient4156"
       id="linearGradient1163-1"
       gradientUnits="userSpaceOnUse"
       gradientTransform="matrix(0.37499997,0,0,0.37499997,16.201997,17.714545)"
       x1="-43.230652"
       y1="14.611153"
       x2="-43.183392"
       y2="42.52816" />
    <linearGradient
       inkscape:collect="always"
       xlink:href="#radialGradient4448-6"
       id="linearGradient856"
       x1="3.4740009"
       y1="24"
       x2="44.525997"
       y2="24"
       gradientUnits="userSpaceOnUse"
       gradientTransform="matrix(0.36539026,0,0,0.36539026,-0.7693661,-16.769367)" />
    <radialGradient
       id="radialGradient4448-6"
       gradientUnits="userSpaceOnUse"
       cy="-17.681"
       cx="14.892"
       gradientTransform="matrix(-1.4387,3.8089e-8,-2.8328e-8,-1.07,45.169,-14.596)"
       r="25.570999">
      <stop
         id="stop3750-1-0-7-6-6-1-3-9-3-2"
         stop-color="#5f5f5f"
         offset="0"
         style="stop-color:#4d4d4d;stop-opacity:1" />
      <stop
         id="stop3756-1-6-2-6-6-1-96-6-0-6"
         stop-color="#343434"
         offset="1"
         style="stop-color:#333333;stop-opacity:1" />
    </radialGradient>
    <linearGradient
       inkscape:collect="always"
       xlink:href="#linearGradient1018"
       id="linearGradient1012"
       x1="8"
       y1="2"
       x2="8"
       y2="14"
       gradientUnits="userSpaceOnUse" />
  </defs>
  <metadata
     id="metadata4956">
    <rdf:RDF>
      <cc:Work
         rdf:about="">
        <dc:format>image/svg+xml</dc:format>
        <dc:type
           rdf:resource="http://purl.org/dc/dcmitype/StillImage" />
        <dc:title />
      </cc:Work>
    </rdf:RDF>
  </metadata>
  <circle
     id="path2985-6-1"
     cy="-8"
     cx="8"
     r="7.5"
     fill="url(#radialGradient4448)"
     style="fill:url(#linearGradient856);fill-opacity:1;stroke-width:0.999999"
     transform="rotate(90)" />
  <path
     id="rect935-7"
     style="opacity:0.2;fill:#000000;fill-opacity:1;fill-rule:evenodd;stroke:none;stroke-width:2;stroke-linecap:square"
     d="M 8,2 C 7.291788,2 6.713189,2.3364739 6.261719,2.730469 5.810248,3.124464 5.449206,3.605557 5.144531,4.1054688 4.785982,4.6937783 4.720418,5.2468463 4.541016,5.8085938 L 4.255859,5.6249999 3.730469,6.5292969 c -0.04298,0.073821 -0.037,0.1903354 -0.07813,0.267578 L 1.505854,6.220703 1.246089,7.1835937 C 1.090676,7.7584128 1,8.3653876 1,9 c 0,3.453476 2.528265,6.336021 5.833984,6.894532 L 8,16.091797 9.166016,15.894532 C 12.471733,15.33602 15,12.453476 15,9 15,8.3702033 14.91399,7.7670646 14.757813,7.189453 l -0.259766,-0.9628906 -2.148438,0.576172 c -0.04198,-0.07903 -0.03614,-0.197982 -0.08008,-0.2734375 l -0.507812,-0.8710938 -0.0625,0.037109 C 11.685594,5.6594002 11.688097,5.6264545 11.673828,5.5898437 11.483456,5.1013536 11.222853,4.5820576 10.902345,4.0839844 10.581836,3.585911 10.204478,3.109665 9.744141,2.7207029 9.283803,2.331741 8.708212,2 8,2 Z m 1.214844,7.2851562 0.050781,0.052734 c 0.114803,0.1220795 0.155394,0.1733532 0.185547,0.2070313 l 0.046875,-0.025391 c 3.82e-4,0.06731 -0.00652,0.070465 -0.046875,0.025391 L 9.191406,9.6914063 C 9.133943,9.6102293 9,9.6011763 9,9.5000001 9,9.3864347 9.144238,9.3717321 9.214844,9.2851562 Z m -2.423828,0.00586 C 6.858246,9.3763702 7,9.3895322 7,9.5000006 7.000026,9.5957996 6.872176,9.6051093 6.820312,9.6835944 l -0.283203,-0.16211 c 0.02591,-0.027647 0.02447,-0.030643 0.123047,-0.1171875 z" />
  <path
     id="path1046"
     style="opacity:0.4;fill:#000000;fill-opacity:1;fill-rule:evenodd;stroke:none;stroke-width:2;stroke-linecap:square"
     d="m 7.999999,3.091797 c -1.495522,0 -2.880859,2.9999999 -2.880859,3.9999999 0.880684,0 0.880859,1.0003437 0.880859,1.6523438 -0.356932,0.3133745 -0.499718,0.4906732 -0.5,0.8476562 2.82e-4,0.356983 0.190843,0.6867431 0.5,0.8652341 v 0.859375 c -0.610016,-0.548277 -1,-1.3354911 -1,-2.2246091 0,-0.5476967 0.120988,-1.0219902 0.375,-1.4628906 L 4.593749,7.1249999 c -0.343483,0.5899046 -0.59375,1.2373154 -0.59375,1.966797 0,1.4721381 0.810378,2.7488951 2,3.4433591 v 1.128907 C 4.23517,12.893198 3,11.145241 3,9.0917969 3,8.6405238 3.04682,8.2064883 3.158203,7.7910156 L 2.210937,7.5371094 C 2.076053,8.035983 2,8.5509275 2,9.0917969 2,12.058156 4.167442,14.521431 6.999999,15 v -0.908203 -0.09961 -1.042969 c 0.321508,0.08376 0.652876,0.142578 1,0.142578 0.347123,0 0.678492,-0.05881 1,-0.142578 v 1.142578 0.908203 C 11.832556,14.52143 14,12.058155 14,9.0917959 14,8.5509264 13.92785,8.0418415 13.792969,7.5429677 L 12.845703,7.7968739 C 12.95708,8.2123468 13,8.6405229 13,9.0917959 13,11.14524 11.764828,12.893197 10,13.664062 v -1.128907 c 1.189622,-0.694464 2,-1.971221 2,-3.4433591 0,-0.7294817 -0.250267,-1.3768925 -0.59375,-1.966797 L 10.537109,7.642577 C 10.791121,8.0834775 11,8.5440991 11,9.0917959 c 0,0.896178 -0.397131,1.6876731 -1.015625,2.2363281 0.0014,-0.291823 0.0026,-0.525882 0.0039,-0.84375 C 10.303772,10.307853 10.499425,9.9747959 10.5,9.6132799 10.499914,9.2536878 10.240486,9.0060977 9.994141,8.7441407 10.000041,8.0917969 10.000041,7.0917969 11,7.0917969 11,6.0917969 9.495521,3.091797 7.999999,3.091797 Z M 6.48828,9.0917969 a 0.5,0.5 0 0 1 0.01172,0 0.5,0.5 0 0 1 0.5,0.5 A 0.5,0.5 0 0 1 6.5,10.091797 0.5,0.5 0 0 1 6,9.5917969 a 0.5,0.5 0 0 1 0.48828,-0.5 z m 3,0 a 0.5,0.5 0 0 1 0.01172,0 0.5,0.5 0 0 1 0.500001,0.5 A 0.5,0.5 0 0 1 9.5,10.091797 0.5,0.5 0 0 1 9,9.5917969 a 0.5,0.5 0 0 1 0.48828,-0.5 z" />
  <path
     id="rect935"
     style="opacity:1;fill:url(#linearGradient1012);fill-opacity:1.0;fill-rule:evenodd;stroke:none;stroke-width:2;stroke-linecap:square"
     d="M 8 2 C 6.5044778 2 5.1191406 5 5.1191406 6 C 5.9998246 6 6 7.0003437 6 7.6523438 C 5.6430676 7.9657183 5.5002824 8.143017 5.5 8.5 C 5.5002824 8.856983 5.6908435 9.186743 6 9.3652344 L 6 10.224609 C 5.3899838 9.6763322 5 8.8891183 5 8 C 5 7.4523033 5.1209882 6.9780098 5.375 6.5371094 L 4.59375 6.0332031 C 4.2502667 6.6231076 4 7.2705184 4 8 C 4 9.4721376 4.810378 10.748895 6 11.443359 L 6 12.572266 C 4.2351715 11.801401 3 10.053444 3 8 C 3 7.548727 3.0468244 7.1146915 3.1582031 6.6992188 L 2.2109375 6.4453125 C 2.0760537 6.9441862 2 7.4591306 2 8 C 2 10.966359 4.1674434 13.429634 7 13.908203 L 7 13 L 7 12.900391 L 7 11.857422 C 7.3215082 11.941187 7.6528765 12 8 12 C 8.3471235 12 8.6784918 11.941187 9 11.857422 L 9 13 L 9 13.908203 C 11.832556 13.429634 14 10.966359 14 8 C 14 7.4591306 13.927853 6.9500456 13.792969 6.4511719 L 12.845703 6.7050781 C 12.957081 7.120551 13 7.548727 13 8 C 13 10.053444 11.764828 11.801401 10 12.572266 L 10 11.443359 C 11.189622 10.748895 12 9.4721376 12 8 C 12 7.2705184 11.749733 6.6231076 11.40625 6.0332031 L 10.537109 6.5507812 C 10.791121 6.9916816 11 7.4523033 11 8 C 11 8.896178 10.602869 9.6876728 9.984375 10.236328 C 9.9857987 9.944505 9.986959 9.7104456 9.9882812 9.3925781 C 10.303772 9.2160571 10.499424 8.883 10.5 8.5214844 C 10.499913 8.1618915 10.240485 7.9143009 9.9941406 7.6523438 C 10 7 10 6 11 6 C 11 5 9.4955222 2 8 2 z M 6.4882812 8 A 0.5 0.5 0 0 1 6.5 8 A 0.5 0.5 0 0 1 7 8.5 A 0.5 0.5 0 0 1 6.5 9 A 0.5 0.5 0 0 1 6 8.5 A 0.5 0.5 0 0 1 6.4882812 8 z M 9.4882812 8 A 0.5 0.5 0 0 1 9.5 8 A 0.5 0.5 0 0 1 10 8.5 A 0.5 0.5 0 0 1 9.5 9 A 0.5 0.5 0 0 1 9 8.5 A 0.5 0.5 0 0 1 9.4882812 8 z " />
  <circle
     style="opacity:0.6;fill:none;stroke:#242424;stroke-width:0.94844997"
     id="path3755-9"
     cy="8"
     cx="8"
     r="7.525775" />
  <path
     inkscape:connector-curvature="0"
     style="color:#000000;display:inline;overflow:visible;visibility:visible;opacity:0.5;fill:none;stroke:url(#linearGradient3071);stroke-width:1;stroke-linecap:round;stroke-linejoin:round;stroke-miterlimit:4;stroke-dasharray:none;stroke-dashoffset:0;stroke-opacity:1;marker:none;enable-background:accumulate"
     id="path8655-6"
     d="m 14.5,7.9997687 c 0,3.5899673 -2.910364,6.5002303 -6.4999176,6.5002303 -3.5898831,0 -6.5000826,-2.910297 -6.5000826,-6.5002303 C 1.4999998,4.4099697 4.4101993,1.5 8.0000824,1.5 11.589636,1.5 14.5,4.4099697 14.5,7.9997687 Z" />
</svg>
