<?xml version="1.0" encoding="UTF-8" standalone="no"?>
<!-- Created with Inkscape (http://www.inkscape.org/) -->

<svg
   xmlns:dc="http://purl.org/dc/elements/1.1/"
   xmlns:cc="http://creativecommons.org/ns#"
   xmlns:rdf="http://www.w3.org/1999/02/22-rdf-syntax-ns#"
   xmlns:svg="http://www.w3.org/2000/svg"
   xmlns="http://www.w3.org/2000/svg"
   xmlns:xlink="http://www.w3.org/1999/xlink"
   xmlns:sodipodi="http://sodipodi.sourceforge.net/DTD/sodipodi-0.dtd"
   xmlns:inkscape="http://www.inkscape.org/namespaces/inkscape"
   width="48"
   height="48"
   id="svg7980"
   version="1.1"
   inkscape:version="0.91 r13725"
   sodipodi:docname="amule_48.svg">
  <defs
     id="defs7982">
    <radialGradient
       r="7.4246206"
       fy="50.677525"
       fx="170.58949"
       cy="50.677525"
       cx="170.58949"
       gradientTransform="matrix(1,0,0,0.33333333,0,33.785016)"
       gradientUnits="userSpaceOnUse"
       id="radialGradient7042"
       xlink:href="#linearGradient6945-7"
       inkscape:collect="always" />
    <linearGradient
       inkscape:collect="always"
       id="linearGradient6945-7">
      <stop
         style="stop-color:#000000;stop-opacity:1;"
         offset="0"
         id="stop6947-5" />
      <stop
         style="stop-color:#000000;stop-opacity:0;"
         offset="1"
         id="stop6949-9" />
    </linearGradient>
    <linearGradient
       inkscape:collect="always"
       id="linearGradient6977">
      <stop
         style="stop-color:#ffffff;stop-opacity:1;"
         offset="0"
         id="stop6979" />
      <stop
         style="stop-color:#ffffff;stop-opacity:0;"
         offset="1"
         id="stop6981" />
    </linearGradient>
    <linearGradient
       inkscape:collect="always"
       xlink:href="#linearGradient7343"
       id="linearGradient6991"
       x1="157.5466"
       y1="42.738346"
       x2="157.5466"
       y2="8.2586107"
       gradientUnits="userSpaceOnUse"
       gradientTransform="matrix(1.0343082,0,0,1.0342129,79.140383,294.08321)" />
    <linearGradient
       id="linearGradient7343">
      <stop
         id="stop7345"
         offset="0"
         style="stop-color:#388ccc;stop-opacity:1;" />
      <stop
         id="stop7347"
         offset="1"
         style="stop-color:#78b1dc;stop-opacity:1;" />
    </linearGradient>
    <radialGradient
       inkscape:collect="always"
       xlink:href="#linearGradient6945"
       id="radialGradient6951"
       cx="170.58949"
       cy="50.677525"
       fx="170.58949"
       fy="50.677525"
       r="7.4246206"
       gradientTransform="matrix(1,0,0,0.33333333,0,33.785016)"
       gradientUnits="userSpaceOnUse" />
    <linearGradient
       inkscape:collect="always"
       id="linearGradient6945">
      <stop
         style="stop-color:#000000;stop-opacity:1;"
         offset="0"
         id="stop6947" />
      <stop
         style="stop-color:#000000;stop-opacity:0;"
         offset="1"
         id="stop6949" />
    </linearGradient>
    <linearGradient
       inkscape:collect="always"
       xlink:href="#linearGradient6977"
       id="linearGradient4240"
       x1="26.77235"
       y1="57.884377"
       x2="26.841782"
       y2="101.734"
       gradientUnits="userSpaceOnUse"
       gradientTransform="translate(215.75862,243.38416)" />
  </defs>
  <sodipodi:namedview
     id="base"
     pagecolor="#ffffff"
     bordercolor="#666666"
     borderopacity="1.0"
     inkscape:pageopacity="0.0"
     inkscape:pageshadow="2"
     inkscape:zoom="8"
     inkscape:cx="-27.300231"
     inkscape:cy="22.158991"
     inkscape:document-units="px"
     inkscape:current-layer="layer1"
     showgrid="false"
     fit-margin-top="0"
     fit-margin-left="0"
     fit-margin-right="0"
     fit-margin-bottom="0"
     inkscape:window-width="1366"
     inkscape:window-height="705"
     inkscape:window-x="0"
     inkscape:window-y="30"
     inkscape:window-maximized="1" />
  <metadata
     id="metadata7985">
    <rdf:RDF>
      <cc:Work
         rdf:about="">
        <dc:format>image/svg+xml</dc:format>
        <dc:type
           rdf:resource="http://purl.org/dc/dcmitype/StillImage" />
        <dc:title />
      </cc:Work>
    </rdf:RDF>
  </metadata>
  <g
     inkscape:label="Capa 1"
     inkscape:groupmode="layer"
     id="layer1"
     transform="translate(-218.85715,-299.79074)">
    <path
       sodipodi:type="arc"
       style="opacity:0.3;color:#000000;fill:url(#radialGradient6951);fill-opacity:1;fill-rule:nonzero;stroke:none;stroke-width:1;marker:none;visibility:visible;display:inline;overflow:visible;enable-background:accumulate"
       id="path6943"
       sodipodi:cx="170.58949"
       sodipodi:cy="50.677525"
       sodipodi:rx="7.4246206"
       sodipodi:ry="2.4748735"
       d="m 178.01411,50.677525 a 7.4246206,2.4748735 0 0 1 -7.42462,2.474873 7.4246206,2.4748735 0 0 1 -7.42462,-2.474873 7.4246206,2.4748735 0 0 1 7.42462,-2.474874 7.4246206,2.4748735 0 0 1 7.42462,2.474874 z"
       transform="matrix(1.0694919,0,0,1.2135605,73.472493,282.29393)" />
    <path
       style="color:#000000;display:inline;overflow:visible;visibility:visible;opacity:1;fill:url(#linearGradient6991);fill-opacity:1;fill-rule:nonzero;stroke:none;stroke-width:1;stroke-linecap:round;stroke-linejoin:round;stroke-miterlimit:4;stroke-dasharray:none;stroke-dashoffset:0;stroke-opacity:1;marker:none;enable-background:accumulate"
       d="m 251.57895,301.29038 c -3.35598,0 -6.07656,2.72031 -6.07656,6.076 0,1.08412 0.27812,2.09217 0.77573,2.97336 l -6.65836,6.65775 c -1.20149,-0.48833 -2.50178,-0.77566 -3.87865,-0.77566 -1.7851,0 -3.47975,0.46438 -4.94529,1.26044 l -1.74539,-6.49615 c 0.53513,-0.60259 0.87269,-1.39307 0.87269,-2.26234 0,-1.88489 -1.54108,-3.39351 -3.42614,-3.39351 -1.88507,0 -3.39383,1.50862 -3.39383,3.39351 0,1.68264 1.20964,3.0805 2.81203,3.36119 l 2.06861,7.65964 c -1.60692,1.82259 -2.58564,4.19862 -2.58564,6.81934 0,5.7118 4.63063,10.34213 10.34296,10.34213 3.1646,0 5.98935,-1.41327 7.88659,-3.65206 l 5.23619,3.038 c -0.13791,0.5581 -0.19393,1.14453 -0.19393,1.74523 0,3.99826 3.24153,7.23949 7.24015,7.23949 3.99863,0 7.24016,-3.24123 7.24016,-7.23949 0,-3.99826 -3.24153,-7.23949 -7.24016,-7.23949 -2.2072,0 -4.19909,0.99586 -5.52708,2.55322 l -5.04225,-2.90873 c 0.48115,-1.19373 0.74337,-2.51232 0.74337,-3.8783 0,-3.12143 -1.40104,-5.89264 -3.58772,-7.78891 l 6.10888,-6.10832 c 0.87582,0.48935 1.89908,0.77566 2.97364,0.77566 3.35599,0 6.07656,-2.72032 6.07656,-6.076 0,-3.35569 -2.72057,-6.076 -6.07656,-6.076 z"
       id="path6667"
       inkscape:connector-curvature="0"
       sodipodi:nodetypes="ssccsccsssccssccssssccsccsss" />
    <path
       sodipodi:type="arc"
       style="opacity:0.15;color:#000000;fill:url(#radialGradient7042);fill-opacity:1;fill-rule:nonzero;stroke:none;stroke-width:1;marker:none;visibility:visible;display:inline;overflow:visible;enable-background:accumulate"
       id="path6943-0"
       sodipodi:cx="170.58949"
       sodipodi:cy="50.677525"
       sodipodi:rx="7.4246206"
       sodipodi:ry="2.4748735"
       d="m 178.01411,50.677525 a 7.4246206,2.4748735 0 0 1 -7.42462,2.474873 7.4246206,2.4748735 0 0 1 -7.42462,-2.474873 7.4246206,2.4748735 0 0 1 7.42462,-2.474874 7.4246206,2.4748735 0 0 1 7.42462,2.474874 z"
       transform="matrix(2.0123007,0,0,1.2135605,-107.36079,282.29393)" />
    <text
       xml:space="preserve"
       style="font-style:normal;font-variant:normal;font-weight:bold;font-stretch:normal;font-size:18.44223595px;line-height:125%;font-family:'Droid Sans';-inkscape-font-specification:'Droid Sans Bold';letter-spacing:0px;word-spacing:0px;display:inline;fill:#ffffff;fill-opacity:1;stroke:none;enable-background:new"
       x="229.83652"
       y="331.61148"
       id="text6939"
       sodipodi:linespacing="125%"
       transform="scale(1.0000461,0.9999539)"><tspan
         sodipodi:role="line"
         id="tspan6941"
         x="229.83652"
         y="331.61148">a</tspan></text>
    <path
       style="color:#000000;display:inline;overflow:visible;visibility:visible;opacity:0.6;fill:none;fill-opacity:1;fill-rule:nonzero;stroke:url(#linearGradient4240);stroke-width:1;stroke-linecap:round;stroke-linejoin:round;stroke-miterlimit:4;stroke-dasharray:none;stroke-dashoffset:0;stroke-opacity:1;marker:none;enable-background:accumulate"
       d="m 251.37972,302.29041 c -2.81559,0 -5.07618,2.26097 -5.07618,5.07617 0,0.91309 0.231,1.74469 0.64649,2.48047 a 1.0001,1.0001 0 0 1 -0.16406,1.19922 l -6.65821,6.6582 a 1.0001,1.0001 0 0 1 -1.08398,0.21875 c -1.0951,-0.44509 -2.26421,-0.70117 -3.50195,-0.70117 -1.61168,0 -3.144,0.41908 -4.46875,1.13867 a 1.0001,1.0001 0 0 1 -1.44336,-0.61914 l -1.74414,-6.4961 a 1.0001,1.0001 0 0 1 0.21679,-0.92382 c 0.38546,-0.43405 0.6211,-0.98727 0.6211,-1.59766 0,-1.33983 -1.07427,-2.39453 -2.42579,-2.39453 -1.35153,0 -2.39453,1.04327 -2.39453,2.39453 0,1.20338 0.85354,2.17691 1.98438,2.375 a 1.0001,1.0001 0 0 1 0.79297,0.72461 l 2.06836,7.66016 a 1.0001,1.0001 0 0 1 -0.21485,0.92187 c -1.45502,1.65031 -2.33593,3.78648 -2.33593,6.1582 0,5.17131 4.17181,9.3418 9.34375,9.3418 2.86687,0 5.40812,-1.27517 7.12304,-3.29883 a 1.0001,1.0001 0 0 1 1.26563,-0.21875 l 5.23633,3.03907 a 1.0001,1.0001 0 0 1 0.46875,1.10546 c -0.11392,0.46095 -0.16602,0.96538 -0.16602,1.50391 0,3.45777 2.78201,6.24024 6.24023,6.24024 3.45824,0 6.24024,-2.78247 6.24024,-6.24024 0,-3.45777 -2.782,-6.23828 -6.24024,-6.23828 -1.9064,0 -3.6214,0.85932 -4.76562,2.20117 a 1.0001,1.0001 0 0 1 -1.25977,0.2168 l -5.04297,-2.90821 a 1.0001,1.0001 0 0 1 -0.42773,-1.24023 c 0.4328,-1.07377 0.66992,-2.26592 0.66992,-3.50391 0,-2.82219 -1.26008,-5.31435 -3.24219,-7.0332 a 1.0001,1.0001 0 0 1 -0.0527,-1.46289 l 6.10938,-6.10742 a 1.0001,1.0001 0 0 1 1.19531,-0.16602 c 0.73128,0.40859 1.5894,0.64844 2.48633,0.64844 2.8156,0 5.07617,-2.26098 5.07617,-5.07617 0,-2.8152 -2.26057,-5.07617 -5.07617,-5.07617 z"
       id="path6667-5"
       inkscape:connector-curvature="0" />
    <path
       style="color:#000000;display:inline;overflow:visible;visibility:visible;opacity:0.6;fill:none;fill-opacity:1;fill-rule:nonzero;stroke:#255f8f;stroke-width:1;stroke-linecap:round;stroke-linejoin:round;stroke-miterlimit:4;stroke-dasharray:none;stroke-dashoffset:0;stroke-opacity:1;marker:none;enable-background:accumulate"
       d="m 251.57895,301.29038 c -3.35598,0 -6.07656,2.72031 -6.07656,6.076 0,1.08412 0.27812,2.09217 0.77573,2.97336 l -6.65836,6.65775 c -1.20149,-0.48833 -2.50178,-0.77566 -3.87865,-0.77566 -1.7851,0 -3.47975,0.46438 -4.94529,1.26044 l -1.74539,-6.49615 c 0.53513,-0.60259 0.87269,-1.39307 0.87269,-2.26234 0,-1.88489 -1.54108,-3.39351 -3.42614,-3.39351 -1.88507,0 -3.39383,1.50862 -3.39383,3.39351 0,1.68264 1.20964,3.0805 2.81203,3.36119 l 2.06861,7.65964 c -1.60692,1.82259 -2.58576,4.19862 -2.58576,6.81934 0,5.7118 4.63075,10.34213 10.34308,10.34213 3.1646,0 5.98935,-1.41327 7.88659,-3.65206 l 5.23619,3.038 c -0.13791,0.5581 -0.19393,1.14453 -0.19393,1.74523 0,3.99826 3.24153,7.23949 7.24015,7.23949 3.99863,0 7.24016,-3.24123 7.24016,-7.23949 0,-3.99826 -3.24153,-7.23949 -7.24016,-7.23949 -2.2072,0 -4.19909,0.99586 -5.52708,2.55322 l -5.04225,-2.90873 c 0.48115,-1.19373 0.74341,-2.51232 0.74341,-3.8783 0,-3.12143 -1.40108,-5.89264 -3.58776,-7.78891 l 6.10888,-6.10832 c 0.87582,0.48935 1.89908,0.77566 2.97364,0.77566 3.35599,0 6.07656,-2.72032 6.07656,-6.076 0,-3.35569 -2.72057,-6.076 -6.07656,-6.076 z"
       id="path6667-7"
       inkscape:connector-curvature="0" />
  </g>
</svg>
