<?xml version="1.0" encoding="UTF-8" standalone="no"?>
<svg
   xmlns:dc="http://purl.org/dc/elements/1.1/"
   xmlns:cc="http://creativecommons.org/ns#"
   xmlns:rdf="http://www.w3.org/1999/02/22-rdf-syntax-ns#"
   xmlns:svg="http://www.w3.org/2000/svg"
   xmlns="http://www.w3.org/2000/svg"
   xmlns:xlink="http://www.w3.org/1999/xlink"
   xmlns:sodipodi="http://sodipodi.sourceforge.net/DTD/sodipodi-0.dtd"
   xmlns:inkscape="http://www.inkscape.org/namespaces/inkscape"
   height="48"
   width="48"
   version="1.1"
   id="svg2"
   inkscape:version="0.91 r13725"
   sodipodi:docname="intellij_48.svg">
  <metadata
     id="metadata75">
    <rdf:RDF>
      <cc:Work
         rdf:about="">
        <dc:format>image/svg+xml</dc:format>
        <dc:type
           rdf:resource="http://purl.org/dc/dcmitype/StillImage" />
      </cc:Work>
    </rdf:RDF>
  </metadata>
  <sodipodi:namedview
     pagecolor="#ffffff"
     bordercolor="#666666"
     borderopacity="1"
     objecttolerance="10"
     gridtolerance="10"
     guidetolerance="10"
     inkscape:pageopacity="0"
     inkscape:pageshadow="2"
     inkscape:window-width="1366"
     inkscape:window-height="705"
     id="namedview73"
     showgrid="false"
     inkscape:zoom="6.9532167"
     inkscape:cx="3.6774335"
     inkscape:cy="16.349631"
     inkscape:window-x="0"
     inkscape:window-y="30"
     inkscape:window-maximized="1"
     inkscape:current-layer="svg2" />
  <defs
     id="defs4">
    <linearGradient
       id="linearGradient4630">
      <stop
         offset="0"
         style="stop-color:#ffffff;stop-opacity:1"
         id="stop4632" />
      <stop
         offset="0.39178118"
         style="stop-color:#ffffff;stop-opacity:0.23529412"
         id="stop4634" />
      <stop
         offset="0.83518285"
         style="stop-color:#ffffff;stop-opacity:0.15686275"
         id="stop4636" />
      <stop
         offset="1"
         style="stop-color:#ffffff;stop-opacity:0.39215687"
         id="stop4638" />
    </linearGradient>
    <linearGradient
       id="f"
       y2="43"
       gradientUnits="userSpaceOnUse"
       x2="24"
       gradientTransform="translate(1.17e-5,1)"
       y1="5"
       x1="24">
      <stop
         stop-color="#fff"
         offset="0"
         id="stop7" />
      <stop
         stop-color="#fff"
         stop-opacity=".23529"
         offset=".063165"
         id="stop9" />
      <stop
         stop-color="#fff"
         stop-opacity=".15686"
         offset=".95056"
         id="stop11" />
      <stop
         stop-color="#fff"
         stop-opacity=".39216"
         offset="1"
         id="stop13" />
    </linearGradient>
    <radialGradient
       id="a"
       gradientUnits="userSpaceOnUse"
       cy="8.4498"
       cx="7.4957"
       gradientTransform="matrix(1.893e-8 2.2771 -2.4089 -4.1952e-8 44.354 -10.501)"
       r="20">
      <stop
         stop-color="#73baff"
         offset="0"
         id="stop16" />
      <stop
         stop-color="#5aa7f3"
         offset=".26238"
         id="stop18" />
      <stop
         stop-color="#1977d4"
         offset=".70495"
         id="stop20" />
      <stop
         stop-color="#0065c8"
         offset="1"
         id="stop22" />
    </radialGradient>
    <radialGradient
       id="c"
       gradientUnits="userSpaceOnUse"
       cy="43.5"
       cx="4.993"
       gradientTransform="matrix(2.0038,0,0,1.4,27.988,-17.4)"
       r="2.5">
      <stop
         stop-color="#181818"
         offset="0"
         id="stop25" />
      <stop
         stop-color="#181818"
         stop-opacity="0"
         offset="1"
         id="stop27" />
    </radialGradient>
    <radialGradient
       id="b"
       gradientUnits="userSpaceOnUse"
       cy="43.5"
       cx="4.993"
       gradientTransform="matrix(2.0038,0,0,1.4,-20.012,-104.4)"
       r="2.5">
      <stop
         stop-color="#181818"
         offset="0"
         id="stop30" />
      <stop
         stop-color="#181818"
         stop-opacity="0"
         offset="1"
         id="stop32" />
    </radialGradient>
    <linearGradient
       id="d"
       y2="39.999"
       gradientUnits="userSpaceOnUse"
       x2="25.058"
       y1="47.028"
       x1="25.058">
      <stop
         stop-color="#181818"
         stop-opacity="0"
         offset="0"
         id="stop35" />
      <stop
         stop-color="#181818"
         offset=".5"
         id="stop37" />
      <stop
         stop-color="#181818"
         stop-opacity="0"
         offset="1"
         id="stop39" />
    </linearGradient>
    <linearGradient
       id="e"
       y2="44.858"
       gradientUnits="userSpaceOnUse"
       x2=".85715"
       gradientTransform="translate(41.286)"
       y1="5.7143"
       x1=".85715">
      <stop
         stop-color="#0065c8"
         offset="0"
         id="stop42" />
      <stop
         stop-color="#00478b"
         offset="1"
         id="stop44" />
    </linearGradient>
    <linearGradient
       id="g"
       y2="37"
       gradientUnits="userSpaceOnUse"
       x2="25"
       gradientTransform="translate(49.016949,1.8135593)"
       y1="12"
       x1="25">
      <stop
         stop-color="#fff"
         offset="0"
         id="stop47" />
      <stop
         stop-color="#c4e0fa"
         offset="1"
         id="stop49" />
    </linearGradient>
    <radialGradient
       r="27.5"
       fy="4.3419166"
       fx="31.999998"
       cy="4.3419166"
       cx="31.999998"
       gradientTransform="matrix(0,1.668546,-1.6684721,0,31.244121,-48.005125)"
       gradientUnits="userSpaceOnUse"
       id="radialGradient3857"
       xlink:href="#linearGradient947" />
    <linearGradient
       id="linearGradient4632-92-3-0-8-1-6">
      <stop
         offset="0"
         style="stop-color:#fafafa;stop-opacity:1"
         id="stop4634-68-8-0-2-9-1" />
      <stop
         offset="1"
         style="stop-color:#e1e1e1;stop-opacity:1"
         id="stop4636-8-21-7-1-4-9" />
    </linearGradient>
    <radialGradient
       r="27.5"
       fy="4.3419166"
       fx="31.999998"
       cy="4.3419166"
       cx="31.999998"
       gradientTransform="matrix(0,1.5830081,-1.5829378,0,-17.867556,-45.786883)"
       gradientUnits="userSpaceOnUse"
       id="radialGradient3857-3"
       xlink:href="#linearGradient4632-92-3-0-8-1-6" />
    <radialGradient
       r="27.5"
       fy="4.3419166"
       fx="31.999998"
       cy="4.3419166"
       cx="31.999998"
       gradientTransform="matrix(0,1.6685761,-1.668502,0,-17.496036,-35.573696)"
       gradientUnits="userSpaceOnUse"
       id="radialGradient3857-3-3"
       xlink:href="#linearGradient4632-92-3-0-8-1-6" />
    <linearGradient
       y2="5.1757793"
       x2="-95.837799"
       y1="54.199703"
       x1="-95.837799"
       gradientTransform="matrix(0.80749834,0,0,0.83374395,160.10715,8.8359582)"
       gradientUnits="userSpaceOnUse"
       id="linearGradient3847"
       xlink:href="#linearGradient3104-8-8-97-4-6-2-0-1-4-0-5-8" />
    <linearGradient
       id="linearGradient3104-8-8-97-4-6-2-0-1-4-0-5-8">
      <stop
         offset="0"
         style="stop-color:#000000;stop-opacity:0.32173914"
         id="stop3106-5-4-3-5-0-1-61-9-2-7-3-3" />
      <stop
         offset="1"
         style="stop-color:#000000;stop-opacity:0.27826086"
         id="stop3108-4-3-7-8-2-4-01-9-9-0-6-4" />
    </linearGradient>
    <radialGradient
       cx="6.7304144"
       cy="9.9571075"
       r="12.671875"
       fx="6.2001843"
       fy="9.9571075"
       id="radialGradient3031"
       xlink:href="#linearGradient2867-449-88-871-390-598-476-591-434-148-57-177-8-3-3-6-4-8-8-8"
       gradientUnits="userSpaceOnUse"
       gradientTransform="matrix(0,9.4975523,-11.65996,0,210.24124,-67.93683)" />
    <linearGradient
       id="linearGradient2867-449-88-871-390-598-476-591-434-148-57-177-8-3-3-6-4-8-8-8">
      <stop
         id="stop3750-1-0-7-6-6-1-3-9"
         style="stop-color:#ffcd7d;stop-opacity:1"
         offset="0" />
      <stop
         id="stop3752-3-7-4-0-32-8-923-0"
         style="stop-color:#fc8f36;stop-opacity:1"
         offset="0.26238" />
      <stop
         id="stop3754-1-8-5-2-7-6-7-1"
         style="stop-color:#e23a0e;stop-opacity:1"
         offset="0.704952" />
      <stop
         id="stop3756-1-6-2-6-6-1-96-6"
         style="stop-color:#ac441f;stop-opacity:1"
         offset="1" />
    </linearGradient>
    <linearGradient
       inkscape:collect="always"
       xlink:href="#linearGradient2867-449-88-871-390-598-476-591-434-148-57-177-8-3-3-6-4-8-8-8"
       id="linearGradient4325"
       x1="1.2620682"
       y1="24.999819"
       x2="19.248034"
       y2="24.999819"
       gradientUnits="userSpaceOnUse"
       gradientTransform="matrix(0,1.0540415,-1.0540412,0,36.615879,13.811817)" />
    <linearGradient
       x1="2035.1652"
       y1="3208.0737"
       x2="2035.1652"
       y2="3241.9966"
       id="linearGradient11527-6-5"
       xlink:href="#linearGradient947"
       gradientUnits="userSpaceOnUse"
       gradientTransform="matrix(1.5712555,0,0,1.1746645,-3114.7696,-3761.6363)" />
    <linearGradient
       id="linearGradient947">
      <stop
         offset="0"
         style="stop-color:#64baff;stop-opacity:1"
         id="stop943" />
      <stop
         offset="1"
         style="stop-color:#3689e6;stop-opacity:1"
         id="stop945" />
    </linearGradient>
    <radialGradient
       r="27.5"
       fy="4.3419166"
       fx="31.999998"
       cy="4.3419166"
       cx="31.999998"
       gradientTransform="matrix(0,1.5829984,-1.5829287,0,98.485323,-50.456866)"
       gradientUnits="userSpaceOnUse"
       id="radialGradient3857-1"
       xlink:href="#linearGradient947" />
    <radialGradient
       r="27.5"
       fy="4.3419166"
       fx="31.999998"
       cy="4.3419166"
       cx="31.999998"
       gradientTransform="matrix(0,1.4974408,-1.4973749,0,80.430943,-30.469126)"
       gradientUnits="userSpaceOnUse"
       id="radialGradient3857-37"
       xlink:href="#linearGradient947" />
    <radialGradient
       r="27.5"
       fy="4.3419166"
       fx="31.999998"
       cy="4.3419166"
       cx="31.999998"
       gradientTransform="matrix(0,1.5829984,-1.5829287,0,87.69884,-33.918102)"
       gradientUnits="userSpaceOnUse"
       id="radialGradient3857-8"
       xlink:href="#linearGradient947" />
    <linearGradient
       gradientTransform="matrix(1.054054,0,0,1.054054,-35.136425,68.66193)"
       gradientUnits="userSpaceOnUse"
       xlink:href="#linearGradient4011"
       id="linearGradient3019"
       y2="44.340794"
       x2="71.204407"
       y1="6.2375584"
       x1="71.204407" />
    <linearGradient
       id="linearGradient4011">
      <stop
         offset="0"
         style="stop-color:#ffffff;stop-opacity:1"
         id="stop4013" />
      <stop
         offset="0.507761"
         style="stop-color:#ffffff;stop-opacity:0.23529412"
         id="stop4015" />
      <stop
         offset="0.83456558"
         style="stop-color:#ffffff;stop-opacity:0.15686275"
         id="stop4017" />
      <stop
         offset="1"
         style="stop-color:#ffffff;stop-opacity:0.39215687"
         id="stop4019" />
    </linearGradient>
    <linearGradient
       inkscape:collect="always"
       xlink:href="#linearGradient4011"
       id="linearGradient4538"
       x1="82.554512"
       y1="17.243914"
       x2="82.147606"
       y2="53.447304"
       gradientUnits="userSpaceOnUse"
       gradientTransform="matrix(1.0540412,0,0,1.0540415,-61.193788,-12.255746)" />
    <linearGradient
       xlink:href="#linearGradient3924-1"
       id="linearGradient3901"
       gradientUnits="userSpaceOnUse"
       gradientTransform="translate(0.16147073,19.038279)"
       x1="23.99999"
       y1="4.999989"
       x2="23.99999"
       y2="43" />
    <linearGradient
       id="linearGradient3924-1">
      <stop
         id="stop3926-3"
         style="stop-color:#ffffff;stop-opacity:1"
         offset="0" />
      <stop
         id="stop3928-91"
         style="stop-color:#ffffff;stop-opacity:0.23529412"
         offset="0.06316455" />
      <stop
         id="stop3930-6"
         style="stop-color:#ffffff;stop-opacity:0.15686275"
         offset="0.95056331" />
      <stop
         id="stop3932-6"
         style="stop-color:#ffffff;stop-opacity:0.39215687"
         offset="1" />
    </linearGradient>
    <linearGradient
       inkscape:collect="always"
       xlink:href="#linearGradient4630"
       id="linearGradient4620"
       x1="35.878304"
       y1="46.774006"
       x2="35.822205"
       y2="56.122196"
       gradientUnits="userSpaceOnUse"
       gradientTransform="matrix(0.94155897,0,0,0.94153858,-23.387995,-23.896688)" />
    <radialGradient
       gradientTransform="matrix(0.27083381,0,0,0.08762273,-43.736428,37.585534)"
       gradientUnits="userSpaceOnUse"
       xlink:href="#linearGradient3820-7-2-1"
       id="radialGradient3018"
       fy="186.17059"
       fx="99.157013"
       r="62.769119"
       cy="186.17059"
       cx="99.157013" />
    <linearGradient
       id="linearGradient3820-7-2-1">
      <stop
         offset="0"
         style="stop-color:#3d3d3d;stop-opacity:1"
         id="stop3822-2-6-3" />
      <stop
         offset="0.5"
         style="stop-color:#686868;stop-opacity:0.49803922"
         id="stop3864-8-7-7" />
      <stop
         offset="1"
         style="stop-color:#686868;stop-opacity:0"
         id="stop3824-1-2-5" />
    </linearGradient>
    <radialGradient
       cx="4.9929786"
       cy="43.5"
       r="2.5"
       fx="4.9929786"
       fy="43.5"
       id="radialGradient3013"
       xlink:href="#linearGradient3688-166-749"
       gradientUnits="userSpaceOnUse"
       gradientTransform="matrix(2.003784,0,0,1.4,27.98813,-17.4)" />
    <linearGradient
       id="linearGradient3688-166-749">
      <stop
         id="stop2883"
         style="stop-color:#181818;stop-opacity:1"
         offset="0" />
      <stop
         id="stop2885"
         style="stop-color:#181818;stop-opacity:0"
         offset="1" />
    </linearGradient>
    <radialGradient
       cx="4.9929786"
       cy="43.5"
       r="2.5"
       fx="4.9929786"
       fy="43.5"
       id="radialGradient3015"
       xlink:href="#linearGradient3688-166-749"
       gradientUnits="userSpaceOnUse"
       gradientTransform="matrix(2.003784,0,0,1.4,-20.01187,-104.4)" />
    <linearGradient
       x1="25.058096"
       y1="47.027729"
       x2="25.058096"
       y2="39.999443"
       id="linearGradient6647"
       xlink:href="#linearGradient3702-501-757"
       gradientUnits="userSpaceOnUse" />
    <linearGradient
       id="linearGradient3702-501-757">
      <stop
         id="stop2895"
         style="stop-color:#181818;stop-opacity:0"
         offset="0" />
      <stop
         id="stop2897"
         style="stop-color:#181818;stop-opacity:1"
         offset="0.5" />
      <stop
         id="stop2899"
         style="stop-color:#181818;stop-opacity:0"
         offset="1" />
    </linearGradient>
    <radialGradient
       cx="32"
       cy="41.5"
       r="21"
       fx="32"
       fy="41.5"
       id="radialGradient3831"
       xlink:href="#linearGradient3104-8-8-97-4-6-2-0-1-4-0-5-8"
       gradientUnits="userSpaceOnUse"
       gradientTransform="matrix(0.85714286,0,0,0.28571429,-2.0048422,50.278449)" />
    <radialGradient
       gradientTransform="matrix(2.003784,0,0,1.4,27.98813,-17.4)"
       gradientUnits="userSpaceOnUse"
       xlink:href="#linearGradient3688-166-749"
       id="radialGradient2873-966-168-714"
       fy="43.5"
       fx="4.9929786"
       r="2.5"
       cy="43.5"
       cx="4.9929786" />
    <radialGradient
       gradientTransform="matrix(2.003784,0,0,1.4,-20.01187,-104.4)"
       gradientUnits="userSpaceOnUse"
       xlink:href="#linearGradient3688-166-749"
       id="radialGradient2875-742-326-419"
       fy="43.5"
       fx="4.9929786"
       r="2.5"
       cy="43.5"
       cx="4.9929786" />
    <linearGradient
       inkscape:collect="always"
       xlink:href="#linearGradient3702-501-757"
       id="linearGradient4257"
       gradientUnits="userSpaceOnUse"
       x1="25.058096"
       y1="47.027729"
       x2="25.058096"
       y2="39.999443" />
  </defs>
  <g
     style="display:inline;opacity:0.5"
     id="g2036"
     transform="matrix(1.0999996,0,0,0.50000047,-2.4000006,22.749992)">
    <g
       style="opacity:0.4"
       id="g3712"
       transform="matrix(1.052632,0,0,1.285713,-1.263158,-13.42854)">
      <rect
         style="fill:url(#radialGradient2873-966-168-714);fill-opacity:1;stroke:none"
         id="rect2801"
         y="40"
         x="38"
         height="7"
         width="5" />
      <rect
         style="fill:url(#radialGradient2875-742-326-419);fill-opacity:1;stroke:none"
         id="rect3696"
         transform="scale(-1,-1)"
         y="-47"
         x="-10"
         height="7"
         width="5" />
      <rect
         style="fill:url(#linearGradient4257);fill-opacity:1;stroke:none"
         id="rect3700"
         y="40"
         x="10"
         height="7.0000005"
         width="28" />
    </g>
  </g>
  <path
     inkscape:connector-curvature="0"
     style="color:#000000;display:inline;overflow:visible;visibility:visible;fill:url(#radialGradient3857);fill-opacity:1;fill-rule:nonzero;stroke:none;stroke-width:1;stroke-miterlimit:4;stroke-dasharray:none;stroke-opacity:1;marker:none;enable-background:accumulate"
     d="M 9.0950843,5.5003429 C 5.9855628,5.5010849 4.4249498,7.130687 4.5711579,9.9362726 4.4311741,13.629499 5.9862586,15.254177 9.0970885,15.254177 c 0.273763,0.03739 1.3189405,0 4.6662385,0 l 6.221652,0 c 0,3.256257 0.07311,10.694339 0,11.373457 0,3.2497 -3.195612,5.71227 -6.045266,7.160026 -0.533521,0.272977 -1.225035,0.5328 -1.795939,0.685535 -0.735724,0.190121 -1.163005,0.243243 -2.4213132,0.280629 -1.0639225,0.03898 -1.3196233,0.05497 -1.6416017,0.144323 -1.7203224,0.46308 -3.0142566,1.7763 -3.4575871,3.527897 -0.090228,0.380225 -0.116065,0.570598 -0.1222687,1.142557 -0.00616,0.412719 0.02033,0.815657 0.056126,1.012266 0.3717526,1.915748 1.804241,3.42591 3.6520136,3.838592 l 0.00801,-0.006 c 0.4013025,0.08931 0.55316,0.09568 1.8721088,0.07618 1.457461,-0.01294 2.034876,-0.07048 3.098799,-0.260583 7.668327,-1.415246 16.12939,-6.232675 16.12939,-15.981774 l 0,-22.7469166 -10.108178,0.014031 -10.1121889,-0.014031 -0.00206,0 z m 29.0317017,0 c -3.446316,0 -5.207427,1.6249824 -5.207427,4.8749121 -0.07573,0.736111 -0.07573,28.551031 0,29.249471 0,3.249878 1.762101,4.874912 5.359761,4.874912 3.446309,0 5.207429,-1.631469 5.207429,-4.874912 0.02648,-0.438741 0.0072,-5.291767 -0.01406,-15.057705 -0.02124,-15.1072373 0.01406,-12.940423 0.01406,-14.191766 0,-3.2498765 -1.762105,-4.8749121 -5.359763,-4.8749121 z"
     id="rect5505-21" />
  <path
     inkscape:connector-curvature="0"
     style="fill:url(#linearGradient4325);fill-opacity:1"
     id="path55"
     d="m 4.8610596,23.695182 c 0.1155366,-0.755317 0.4512572,-1.591781 0.8962702,-2.237898 0.493423,-0.731905 1.4271792,-1.512202 2.2453628,-1.889798 2.0064984,-0.908249 4.3862204,-0.51811 6.0318724,1.000319 0.610525,0.566484 1.183581,1.493468 1.458402,2.347136 0.201433,0.627346 0.256088,1.084594 0.226413,1.864854 -0.02498,0.774052 -0.146779,1.310879 -0.432524,1.963168 -0.493423,1.115818 -1.469326,2.145776 -2.549951,2.688865 C 11.083314,30.260499 9.0769272,30.187146 7.4982728,29.255483 5.5715182,28.116271 4.5221168,25.897179 4.8687615,23.66547 m -0.00632,0.03121" />
  <path
     inkscape:connector-curvature="0"
     style="color:#000000;display:inline;overflow:visible;visibility:visible;opacity:0.5;fill:none;fill-opacity:1;fill-rule:nonzero;stroke:#002e99;stroke-width:1;stroke-miterlimit:4;stroke-dasharray:none;stroke-opacity:1;marker:none;enable-background:accumulate"
     d="m 9.0951742,5.5007039 c -3.1095221,7.42e-4 -4.6701355,1.6303438 -4.5239273,4.4359292 -0.139983,3.6932269 1.4151009,5.3179039 4.525931,5.3179039 0.2737626,0.03739 1.3189411,0 4.6662391,0 l 6.221652,0 c 0,3.256258 0.07311,10.69434 0,11.373458 0,3.249699 -3.195612,5.712269 -6.045266,7.160026 -0.533521,0.272976 -1.225035,0.5328 -1.79594,0.685535 -0.735724,0.19012 -1.163005,0.243243 -2.4213137,0.280629 -1.063921,0.03898 -1.3196219,0.05497 -1.641601,0.144322 -1.7203221,0.463081 -3.0142568,1.7763 -3.4575865,3.527898 -0.090226,0.380226 -0.1160657,0.570598 -0.1222688,1.142558 -0.00611,0.412718 0.020333,0.815656 0.056128,1.012266 0.3717519,1.915747 1.8042403,3.42591 3.6520139,3.838591 l 0.00801,-0.006 c 0.4013019,0.08931 0.5531597,0.09567 1.8721091,0.07618 1.45746,-0.01294 2.034876,-0.07048 3.098798,-0.260584 7.668325,-1.415245 16.129389,-6.232675 16.129389,-15.981774 l 0,-22.7469166 -10.108178,0.014029 -10.1121898,-0.014029 -0.00211,0 z m 29.0317008,0 c -3.446325,0 -5.207428,1.6249818 -5.207428,4.8749111 -0.07568,0.736111 -0.07568,28.551033 0,29.249473 0,3.249877 1.762094,4.874912 5.359758,4.874912 3.446303,0 5.207427,-1.63147 5.207427,-4.874912 0.02646,-0.438741 0.0074,-5.291768 -0.01402,-15.057706 -0.02129,-15.1072378 0.01402,-12.940424 0.01402,-14.191767 0,-3.2498755 -1.762104,-4.8749111 -5.359757,-4.8749111 z"
     id="rect5505-21-2" />
  <path
     style="color:#000000;display:inline;overflow:visible;visibility:visible;opacity:0.5;fill:none;fill-opacity:1;fill-rule:nonzero;stroke:url(#linearGradient4538);stroke-width:1;stroke-miterlimit:4;stroke-dasharray:none;stroke-opacity:1;marker:none;enable-background:accumulate"
     d="M 9.0955254,6.5523072 C 7.7248513,6.5526339 6.8698499,6.9000144 6.357489,7.4107745 5.845128,7.9215345 5.5621906,8.6815691 5.6246004,9.8791257 l 0.00211,0.047348 -0.00211,0.047348 c -0.06417,1.6931463 0.2689818,2.7219573 0.7843553,3.3103493 0.5153734,0.588392 1.3167093,0.914051 2.6886282,0.914051 0.4593819,0.01753 0.8127639,0.01078 1.1734441,0.01441 0.711804,-0.0046 1.815997,-0.01441 3.49357,-0.01441 l 7.275355,0 0,1.054041 c 0,1.62024 0.01759,4.295721 0.02676,6.64952 0.0045,1.1769 0.0076,2.273702 0.0041,3.12301 -0.0033,0.801388 -4.25e-4,1.23877 -0.03499,1.618119 -0.0059,1.962689 -0.972179,3.64533 -2.243955,4.969641 -1.275631,1.328323 -2.876548,2.351594 -4.374683,3.112716 -0.620499,0.317299 -1.347691,0.591038 -2.001031,0.765827 l -0.0041,0 -0.0041,0.0021 c -0.785388,0.202954 -1.372775,0.274867 -2.6536313,0.312918 -1.0467399,0.03838 -1.1779628,0.04775 -1.3916644,0.107052 l -0.00411,0 -0.00411,0.0021 c -1.3632884,0.366973 -2.3513319,1.366067 -2.7071572,2.762742 -0.079749,0.336098 -0.086843,0.36513 -0.09264,0.901699 l 0,0.0021 0,0.0021 c -0.00527,0.353907 0.031843,0.754664 0.039115,0.798765 0.294653,1.50881 1.4092321,2.668681 2.8224431,2.995372 l 0.030883,0.0062 c 0.3566327,0.07936 0.3119919,0.06884 1.6263528,0.0494 l 0.0041,0 0.0021,0 c 1.429188,-0.01269 1.886562,-0.05893 2.917141,-0.242923 3.692294,-0.681441 7.566573,-2.193607 10.451888,-4.634078 2.885317,-2.440469 4.81524,-5.740221 4.81524,-10.309843 l 0,-21.6922565 -9.05405,0.012353 -10.1122071,-0.014409 z m 29.0314246,0 c -1.557501,0 -2.56038,0.3619789 -3.176535,0.9366972 -0.616155,0.5747182 -0.975812,1.4496296 -0.975812,2.8842036 l 0,0.05558 -0.0062,0.05352 c -0.0084,0.335432 -0.01502,0.975151 -0.01855,1.340197 -0.0071,0.829096 -0.01379,1.977063 -0.01853,3.337113 -0.0095,2.720097 -0.01441,6.287224 -0.01441,9.852817 0,3.565593 0.005,7.131259 0.01441,9.846642 0.0047,1.357691 0.01147,2.503341 0.01853,3.328877 0.0036,0.412768 0.0063,0.745168 0.01033,0.981987 0.0032,0.132493 0.0096,0.264885 0.01444,0.397327 l 0,0.05558 c 0,1.434438 0.355635,2.302613 0.986105,2.878027 0.63047,0.575415 1.67845,0.942873 3.318583,0.942873 1.556825,0 2.559892,-0.360951 3.176535,-0.936697 0.616642,-0.575745 0.97787,-1.453256 0.97787,-2.884203 l 0,-0.03088 c 0.0089,-0.467586 0.0075,-0.760991 0.01033,-1.136388 0.0016,-0.666272 0.0021,-1.617708 0,-2.861558 -0.0041,-2.4877 -0.01401,-6.142989 -0.02471,-11.026262 -0.02129,-15.1087374 0.01441,-12.963048 0.01441,-14.194563 0,-1.4344356 -0.357692,-2.300553 -0.988163,-2.8759691 C 40.815092,6.921812 39.767106,6.5522956 38.126981,6.5522956 Z"
     id="rect5505-21-3"
     inkscape:connector-curvature="0"
     sodipodi:nodetypes="cscccsccscscccscccccccccccccccccccsscccccssccccsscccsssssccccsssc" />
  <path
     inkscape:connector-curvature="0"
     style="opacity:0.4;fill:none;fill-opacity:1;stroke:#640000;stroke-width:1;stroke-opacity:1"
     id="path55-9"
     d="m 4.8610345,23.694066 c 0.1155366,-0.755318 0.4512572,-1.591781 0.8962702,-2.237899 0.4934231,-0.731904 1.4271792,-1.512201 2.2453629,-1.889797 2.0064974,-0.90825 4.3862204,-0.51811 6.0318724,1.000319 0.610525,0.566484 1.183581,1.493467 1.458402,2.347135 0.201433,0.627347 0.256088,1.084594 0.226412,1.864855 -0.02498,0.774052 -0.146778,1.310879 -0.432523,1.963168 -0.493423,1.115818 -1.469326,2.145776 -2.549952,2.688865 C 11.083289,30.259383 9.0769021,30.18603 7.4982477,29.254367 5.5714931,28.115155 4.5220918,25.896063 4.8687364,23.664354 m -0.00632,0.03121" />
  <path
     inkscape:connector-curvature="0"
     style="opacity:0.5;fill:none;fill-opacity:1;stroke:url(#linearGradient4620);stroke-width:0.99999994"
     id="path55-0"
     d="m 5.903911,23.857576 c 0.093251,-0.609617 0.3642187,-1.284729 0.723398,-1.806213 0.3982515,-0.59072 1.1519057,-1.220501 1.8122783,-1.52526 1.6194847,-0.73305 3.5402067,-0.418167 4.8684467,0.807361 0.492766,0.457211 0.955292,1.20538 1.177106,1.894378 0.162579,0.506333 0.206693,0.875379 0.182741,1.50513 -0.02015,0.624739 -0.118468,1.058013 -0.349099,1.584477 -0.398251,0.900579 -1.185921,1.731861 -2.058116,2.17019 C 10.92602,29.156461 9.3066227,29.097258 8.0324597,28.34531 6.4773368,27.425849 5.6303441,25.634815 5.9101277,23.833596 m -0.00506,0.02518" />
</svg>
