<?xml version="1.0" encoding="UTF-8" standalone="no"?>
<svg
   xmlns:dc="http://purl.org/dc/elements/1.1/"
   xmlns:cc="http://creativecommons.org/ns#"
   xmlns:rdf="http://www.w3.org/1999/02/22-rdf-syntax-ns#"
   xmlns:svg="http://www.w3.org/2000/svg"
   xmlns="http://www.w3.org/2000/svg"
   xmlns:xlink="http://www.w3.org/1999/xlink"
   xmlns:sodipodi="http://sodipodi.sourceforge.net/DTD/sodipodi-0.dtd"
   xmlns:inkscape="http://www.inkscape.org/namespaces/inkscape"
   viewBox="0 0 48 48"
   id="svg3816"
   height="48"
   width="48"
   version="1.1"
   sodipodi:docname="libreoffice-writer_48.svg"
   inkscape:version="1.0.1 (1.0.1+r73)">
  <sodipodi:namedview
     pagecolor="#ffffff"
     bordercolor="#666666"
     borderopacity="1"
     objecttolerance="10"
     gridtolerance="10"
     guidetolerance="10"
     inkscape:pageopacity="0"
     inkscape:pageshadow="2"
     inkscape:window-width="1366"
     inkscape:window-height="705"
     id="namedview33"
     showgrid="true"
     inkscape:zoom="4.9792103"
     inkscape:cx="12.152452"
     inkscape:cy="40.227209"
     inkscape:window-x="0"
     inkscape:window-y="30"
     inkscape:window-maximized="1"
     inkscape:current-layer="svg3816"
     inkscape:snap-global="false"
     inkscape:document-rotation="0">
    <inkscape:grid
       type="xygrid"
       id="grid858" />
  </sodipodi:namedview>
  <defs
     id="defs3818">
    <linearGradient
       gradientTransform="matrix(1.0540541,0,0,0.83783781,2.70271,7.8915317)"
       gradientUnits="userSpaceOnUse"
       xlink:href="#linearGradient3977-7-61"
       id="linearGradient3174-3"
       y2="41.903656"
       x2="23.99999"
       y1="-3.4511831"
       x1="23.99999" />
    <linearGradient
       id="linearGradient3977-7-61">
      <stop
         offset="0"
         style="stop-color:#ffffff;stop-opacity:1"
         id="stop3979-6-49" />
      <stop
         offset="0"
         style="stop-color:#ffffff;stop-opacity:0.23529412"
         id="stop3981-3-78" />
      <stop
         offset="1"
         style="stop-color:#ffffff;stop-opacity:0.15686275"
         id="stop3983-8-86" />
      <stop
         offset="1"
         style="stop-color:#ffffff;stop-opacity:0.39215687"
         id="stop3985-2-07" />
    </linearGradient>
    <linearGradient
       gradientTransform="matrix(0.94285499,0,0,0.89086188,1.371479,1.2526255)"
       gradientUnits="userSpaceOnUse"
       xlink:href="#linearGradient4337"
       id="linearGradient3182-6"
       y2="47.984291"
       x2="24.000002"
       y1="3.0839527"
       x1="24.000002" />
    <linearGradient
       id="linearGradient5071-7-3-2">
      <stop
         offset="0"
         style="stop-color:#000000;stop-opacity:1"
         id="stop5073-2-9-5" />
      <stop
         offset="1"
         style="stop-color:#000000;stop-opacity:0"
         id="stop5075-2-1-5" />
    </linearGradient>
    <radialGradient
       gradientTransform="matrix(0.75220279,0,0,0.06268357,9.306121,42.465311)"
       gradientUnits="userSpaceOnUse"
       xlink:href="#linearGradient5071-7-3-2"
       id="radialGradient3814"
       fy="40.430397"
       fx="19.53446"
       r="23.929714"
       cy="40.430397"
       cx="19.53446" />
    <linearGradient
       id="linearGradient5736">
      <stop
         offset="0"
         style="stop-color:#586e75;stop-opacity:1"
         id="stop5738" />
      <stop
         offset="1"
         style="stop-color:#073642;stop-opacity:1"
         id="stop5740" />
    </linearGradient>
    <linearGradient
       id="linearGradient4337">
      <stop
         offset="0"
         style="stop-color:#fafafa;stop-opacity:1"
         id="stop4339" />
      <stop
         offset="1"
         style="stop-color:#d4d4d4;stop-opacity:1"
         id="stop4341" />
    </linearGradient>
    <linearGradient
       y2="55.173134"
       x2="26.444973"
       y1="-2.1010971"
       x1="17.231043"
       gradientTransform="matrix(1.1062984,0.29511675,-0.17921718,0.66592164,2.025427,-3.0802734)"
       gradientUnits="userSpaceOnUse"
       id="linearGradient4514"
       xlink:href="#linearGradient5736" />
    <linearGradient
       y2="47.013336"
       x2="25.132275"
       y1="0.98520643"
       x1="25.132275"
       gradientTransform="matrix(0.93926714,-0.08217523,0.07764373,0.88747188,-0.3744572,2.9513293)"
       gradientUnits="userSpaceOnUse"
       id="linearGradient4522"
       xlink:href="#linearGradient5736" />
    <linearGradient
       y2="41.903656"
       x2="23.99999"
       y1="-3.4511831"
       x1="23.99999"
       gradientTransform="matrix(1.0500431,-0.09186687,0.07302238,0.83464958,1.5673403,9.465259)"
       gradientUnits="userSpaceOnUse"
       id="linearGradient4528"
       xlink:href="#linearGradient3977-7-61" />
    <linearGradient
       gradientTransform="matrix(0.94285499,0,0,0.89086188,-43.628521,23.44469)"
       gradientUnits="userSpaceOnUse"
       xlink:href="#linearGradient4337"
       id="linearGradient3182-6-3"
       y2="47.984291"
       x2="24.000002"
       y1="3.0839527"
       x1="24.000002" />
    <linearGradient
       id="a"
       gradientTransform="matrix(1.5556365,0,0,1.66668,-272.5195,1318.5752)"
       gradientUnits="userSpaceOnUse"
       x1="230.14426"
       x2="204.42923"
       xlink:href="#b"
       y1="-762.63782"
       y2="-791.43756" />
    <linearGradient
       id="b">
      <stop
         offset="0"
         stop-color="#0369a3"
         id="stop3" />
      <stop
         offset="1"
         stop-color="#1c99e0"
         id="stop5" />
    </linearGradient>
    <linearGradient
       gradientTransform="translate(-0.075847,6.952926)"
       gradientUnits="userSpaceOnUse"
       xlink:href="#linearGradient3104-4"
       id="linearGradient3039"
       y2="3.3638515"
       x2="22.004084"
       y1="47.813133"
       x1="22.004084" />
    <linearGradient
       id="linearGradient3104-4">
      <stop
         offset="0"
         style="stop-color:#aaaaaa;stop-opacity:1"
         id="stop3106-7" />
      <stop
         offset="1"
         style="stop-color:#c8c8c8;stop-opacity:1"
         id="stop3108-6" />
    </linearGradient>
    <linearGradient
       id="a-3"
       gradientTransform="matrix(1.5556365,0,0,1.66668,-277.51949,1298.5752)"
       gradientUnits="userSpaceOnUse"
       x1="230.14426"
       x2="204.42923"
       xlink:href="#b"
       y1="-762.63782"
       y2="-791.43756" />
    <linearGradient
       id="a-3-5"
       gradientTransform="matrix(1.5556365,0,0,1.66668,-277.51949,1325.6137)"
       gradientUnits="userSpaceOnUse"
       x1="230.14426"
       x2="204.42923"
       xlink:href="#b"
       y1="-762.63782"
       y2="-791.43756" />
    <linearGradient
       gradientTransform="translate(-0.0758466,2.4529255)"
       gradientUnits="userSpaceOnUse"
       xlink:href="#linearGradient3104-4"
       id="linearGradient3039-3"
       y2="3.3638515"
       x2="22.004084"
       y1="47.813133"
       x1="22.004084" />
  </defs>
  <metadata
     id="metadata3821">
    <rdf:RDF>
      <cc:Work
         rdf:about="">
        <dc:format>image/svg+xml</dc:format>
        <dc:type
           rdf:resource="http://purl.org/dc/dcmitype/StillImage" />
        <dc:title />
      </cc:Work>
    </rdf:RDF>
  </metadata>
  <path
     d="m 41.999998,44.999631 a 18,1.5 0 0 1 -35.999996,0 18,1.5 0 1 1 35.999996,0 z"
     id="path5050-1"
     style="color:#000000;display:inline;overflow:visible;visibility:visible;opacity:0.2;fill:url(#radialGradient3814);fill-opacity:1;fill-rule:nonzero;stroke:none;stroke-width:0.999922;marker:none;enable-background:accumulate" />
  <path
     d="m 7.5,3.5000007 c 7.561975,0 32.999959,0.00261 32.999959,0.00261 L 40.5,44.499999 c 0,0 -22.000003,0 -33,0 0,-13.666658 0,-27.333315 0,-40.9999598 z"
     id="path4160-9-1"
     style="display:inline;opacity:1;fill:url(#linearGradient3182-6);fill-opacity:1;stroke:none;stroke-width:1;stroke-linejoin:round;stroke-opacity:1" />
  <path
     d="m 39.5,43.499631 h -31 v -39 h 31 z"
     id="rect6741-1-2-1"
     style="fill:none;stroke:url(#linearGradient3174-3);stroke-width:1;stroke-linecap:round;stroke-linejoin:miter;stroke-miterlimit:4;stroke-dasharray:none;stroke-dashoffset:0;stroke-opacity:1" />
  <path
     style="fill:#8cd5ff;fill-opacity:1;stroke:none;stroke-width:1px;stroke-linecap:butt;stroke-linejoin:round;stroke-opacity:1"
     d="M 40.499959,3.5026093 40.495944,12 32,3.5212419 Z"
     id="path886-3"
     sodipodi:nodetypes="cccc" />
  <path
     d="m 7.5,3.5000093 c 7.561975,0 32.999959,0.0026 32.999959,0.0026 L 40.5,44.500008 c 0,0 -22.000003,0 -33,0 0,-13.666658 0,-27.333315 0,-40.9999607 z"
     id="path4160-9-1-5"
     style="display:inline;opacity:0.4;fill:none;fill-opacity:1;stroke:#002e99;stroke-width:1;stroke-linejoin:round;stroke-opacity:1" />
  <path
     style="fill:none;fill-opacity:1;stroke:#002e99;stroke-width:1px;stroke-linecap:butt;stroke-linejoin:round;stroke-opacity:1;opacity:0.8"
     d="M 40.499959,3.5026093 40.495944,12 32,3.5212419 Z"
     id="path886-3-3"
     sodipodi:nodetypes="cccc" />
  <path
     style="opacity:0.21;fill:none;stroke:#002e99;stroke-width:1px;stroke-linecap:butt;stroke-linejoin:miter;stroke-opacity:1"
     id="path3475"
     d="M 12.90625,9.5 H 15.25 Z m 2.6875,0 h 2.1875 z m 2.53125,0 h 1.9375 z m 2.25,0 h 0.84375 z m 1.1875,0 h 1.875 z m 2.25,0 H 28.75 Z m 5.25,0 h 3.78125 z m -16.15625,1.999999 h 3.65625 z m 4.0625,0 h 1.75 z m 2.0625,0 h 0.875 z m 1.21875,0 h 1.59375 z m 1.9375,0 h 1.625 z m 1.9375,0 h 2.59375 z m 2.9375,0 h 3.375 z m 3.6875,0 H 33 Z m 2.5625,0 H 33.875 Z M 12.90625,13.468748 H 16 Z m 3.40625,0 h 5.0625 z m 5.375,0 h 2.46875 z m 2.78125,0 h 2.3125 z m 2.625,0 h 1.96875 z m 2.28125,0 3.09375,0.03125 z m 3.375,0.03125 z m -19.84375,2 h 4.28125 z m 4.625,0 h 4.625 z m 4.9375,0 h 1.84375 z m 2.15625,0 h 4.34375 z m 4.625,0 h 2.96875 z m 3.3125,0 H 33.75 Z m -19.65625,2 H 14.5 Z m 2.09375,0 h 5.90625 z m -2.09375,3.968751 H 16 Z m 3.40625,0 h 5.0625 z m 5.375,0 h 2.46875 z m 2.78125,0 h 2.3125 z m 2.625,0 h 1.96875 z m 2.28125,0 3.09375,0.03125 z m 3.375,0.03125 z m -19.84375,2 H 15.25 Z m 2.6875,0 H 17.75 Z m 2.53125,0 h 1.9375 z m 2.25,0 h 0.84375 z m 1.1875,0 h 1.875 z m 2.25,0 h 4.90625 z m 5.25,0 h 3.75 z m 4.0625,0 h 1.1875 z m -20.21875,2 h 3.9375 z m 4.25,0 H 21.375 Z m 4.53125,0 h 1.625 z m 1.9375,0 h 3.96875 z m 4.28125,0 h 5 z m 5.34375,0 h 1.84375 z m -20.34375,2 h 4.28125 z m 4.625,0 h 4.625 z m 4.9375,0 h 1.84375 z m 2.15625,0 h 4.34375 z m 4.625,0 h 2.96875 z m 3.3125,0 H 33.75 Z m -19.65625,2 h 3.65625 z m 4.0625,0 h 1.75 z m 2.0625,0 h 0.875 z m 1.21875,0 h 1.59375 z m 1.9375,0 h 1.625 z m 1.9375,0 h 2.59375 z m 2.9375,0 h 3.375 z m 3.6875,0 H 33 Z m 2.5625,0 h 0.5625 z m -20.40625,3.96875 H 16 Z m 3.40625,0 h 5.0625 z m 5.375,0 h 2.46875 z m 2.78125,0 h 2.3125 z m 2.625,0 h 1.96875 z m 2.28125,0 3.09375,0.03125 z m 3.375,0.03125 z m -19.84375,2 h 3.65625 z m 4.0625,0 h 1.75 z m 2.0625,0 h 0.875 z m 1.21875,0 h 1.59375 z m 1.9375,0 h 1.625 z m 1.9375,0 h 2.59375 z m 2.9375,0 h 3.375 z m 3.6875,0 H 33 Z m 2.5625,0 h 0.5625 z m -20.40625,2 h 3.875 z m 4.21875,0 h 1.21875 z m 1.53125,0 h 2.78125 z m 3.09375,0 h 4.09375 z m 4.4375,0 h 2.78125 z m 3.0625,0 h 0.59375 z m 0.90625,0 h 3.53125 z m -17.25,2 h 3.875 z m 4.21875,0 h 1.75 z m 2.0625,0 h 2.75 z m 3.0625,0 h 2.96875 z m 3.3125,0 H 26.75 Z m 1.5,0 h 0.65625 z m 1,0 h 1.84375 z" />
</svg>
