<?xml version="1.0" encoding="UTF-8" standalone="no"?>
<!-- Generator: Adobe Illustrator 16.0.3, SVG Export Plug-In . SVG Version: 6.00 Build 0)  -->

<svg
   xmlns:dc="http://purl.org/dc/elements/1.1/"
   xmlns:cc="http://creativecommons.org/ns#"
   xmlns:rdf="http://www.w3.org/1999/02/22-rdf-syntax-ns#"
   xmlns:svg="http://www.w3.org/2000/svg"
   xmlns="http://www.w3.org/2000/svg"
   xmlns:xlink="http://www.w3.org/1999/xlink"
   xmlns:sodipodi="http://sodipodi.sourceforge.net/DTD/sodipodi-0.dtd"
   xmlns:inkscape="http://www.inkscape.org/namespaces/inkscape"
   version="1.1"
   id="svg4031"
   sodipodi:docname="firefox_64.svg"
   inkscape:version="0.91 r13725"
   x="0px"
   y="0px"
   width="64px"
   height="64px"
   viewBox="0 0 64 64"
   enable-background="new 0 0 64 64"
   xml:space="preserve"><metadata
     id="metadata57"><rdf:RDF><cc:Work
         rdf:about=""><dc:format>image/svg+xml</dc:format><dc:type
           rdf:resource="http://purl.org/dc/dcmitype/StillImage" /></cc:Work></rdf:RDF></metadata><defs
     id="defs55"><linearGradient
       id="linearGradient4214"><stop
         offset="0"
         style="stop-color:#ffffff;stop-opacity:1"
         id="stop4216" /><stop
         offset="0.44890663"
         style="stop-color:#ffffff;stop-opacity:0.23529412"
         id="stop4218" /><stop
         offset="0.84736282"
         style="stop-color:#ffffff;stop-opacity:0.15686275"
         id="stop4220" /><stop
         offset="1"
         style="stop-color:#ffffff;stop-opacity:0.39215687"
         id="stop4222" /></linearGradient><linearGradient
       inkscape:collect="always"
       xlink:href="#linearGradient4214"
       id="linearGradient4209"
       x1="67.687584"
       y1="18.235712"
       x2="67.689583"
       y2="76.73571"
       gradientUnits="userSpaceOnUse"
       gradientTransform="translate(-34.943585,-15.751502)" /><linearGradient
       id="path10-3-6_2_-5"
       gradientUnits="userSpaceOnUse"
       x1="63.659199"
       y1="-111.752"
       x2="96.337898"
       y2="-91.310799"
       gradientTransform="matrix(1.4251,0,0,-1.43,-114.97939,-1.0318843)"><stop
         offset="0"
         style="stop-color:#FF780A"
         id="stop42-6" /><stop
         offset="1"
         style="stop-color:#FFBE3C"
         id="stop44-2" /></linearGradient><linearGradient
       id="linearGradient4305"
       gradientUnits="userSpaceOnUse"
       x1="-403.99161"
       y1="-20.0308"
       x2="-365.19131"
       y2="-20.0308"
       gradientTransform="matrix(0,-1.4133,-1.385,0,3.9613,-509.4661)"><stop
         offset="0"
         style="stop-color:#0D52BF"
         id="stop25-9" /><stop
         offset="1"
         style="stop-color:#64BAFF"
         id="stop27-1" /></linearGradient><linearGradient
       id="linearGradient4309"
       gradientUnits="userSpaceOnUse"
       x1="226.4664"
       y1="-233.37691"
       x2="226.4664"
       y2="-290.3848"
       gradientTransform="matrix(0.9398,0,0,-0.928,-180.8262,-209.3992)"><stop
         offset="0"
         style="stop-color:#FFFFFF"
         id="stop32-2" /><stop
         offset="0.0899"
         style="stop-color:#FFFFFF;stop-opacity:0.2353"
         id="stop34-7" /><stop
         offset="0.8739"
         style="stop-color:#FFFFFF;stop-opacity:0.1569"
         id="stop36-0" /><stop
         offset="1"
         style="stop-color:#FFFFFF;stop-opacity:0.3922"
         id="stop38-9" /></linearGradient><radialGradient
       id="rect4321_1_-3"
       cx="201.6602"
       cy="-2054.0547"
       r="17"
       gradientTransform="matrix(1,0,0,-0.3235,-208.95309,-484.51708)"
       gradientUnits="userSpaceOnUse"><stop
         offset="0"
         style="stop-color:#000000"
         id="stop18-6" /><stop
         offset="1"
         style="stop-color:#000000;stop-opacity:0"
         id="stop20-0" /></radialGradient><radialGradient
       id="path3818-0_1_-6"
       cx="705.18359"
       cy="-3476.1409"
       r="62.7593"
       gradientTransform="matrix(0.3824,0,0,-0.1115,-237.6295,-330.6569)"
       gradientUnits="userSpaceOnUse"><stop
         offset="0"
         style="stop-color:#000000"
         id="stop6-2" /><stop
         offset="1"
         style="stop-color:#000000;stop-opacity:0"
         id="stop8-6" /></radialGradient><radialGradient
       id="path4190_1_-1"
       cx="1051.9307"
       cy="-4869.5586"
       r="62.769001"
       gradientTransform="matrix(0.2549,0,0,-0.0797,-236.1396,-328.8854)"
       gradientUnits="userSpaceOnUse"><stop
         offset="0"
         style="stop-color:#000000"
         id="stop12-8" /><stop
         offset="1"
         style="stop-color:#000000;stop-opacity:0"
         id="stop14-7" /></radialGradient><linearGradient
       gradientTransform="matrix(0,-1.4133,-1.385,0,3.9613,-509.4661)"
       y2="-20.0308"
       x2="-365.19131"
       y1="-20.0308"
       x1="-403.99161"
       gradientUnits="userSpaceOnUse"
       id="linearGradient4224"><stop
         id="stop4226"
         style="stop-color:#0D52BF"
         offset="0" /><stop
         id="stop4228"
         style="stop-color:#64BAFF"
         offset="1" /></linearGradient><linearGradient
       gradientTransform="matrix(0.9398,0,0,-0.928,-180.8262,-209.3992)"
       y2="-290.3848"
       x2="226.4664"
       y1="-233.37691"
       x1="226.4664"
       gradientUnits="userSpaceOnUse"
       id="linearGradient4232"><stop
         id="stop4234"
         style="stop-color:#FFFFFF"
         offset="0" /><stop
         id="stop4236"
         style="stop-color:#FFFFFF;stop-opacity:0.2353"
         offset="0.0899" /><stop
         id="stop4238"
         style="stop-color:#FFFFFF;stop-opacity:0.1569"
         offset="0.8739" /><stop
         id="stop4240"
         style="stop-color:#FFFFFF;stop-opacity:0.3922"
         offset="1" /></linearGradient><linearGradient
       id="path10-3-6_2_-5-9"
       gradientUnits="userSpaceOnUse"
       x1="63.659199"
       y1="-111.752"
       x2="96.337898"
       y2="-91.310799"
       gradientTransform="matrix(1.4251,0,0,-1.43,-114.97902,-2.0323402)"><stop
         offset="0"
         style="stop-color:#FF780A"
         id="stop42-6-7" /><stop
         offset="1"
         style="stop-color:#FFBE3C"
         id="stop44-2-3" /></linearGradient></defs><sodipodi:namedview
     inkscape:cy="43.085387"
     inkscape:cx="41.4495"
     inkscape:zoom="8.0000004"
     showgrid="false"
     id="namedview37"
     guidetolerance="10"
     gridtolerance="10"
     objecttolerance="10"
     borderopacity="1"
     bordercolor="#666666"
     pagecolor="#ffffff"
     inkscape:current-layer="svg4031"
     inkscape:window-maximized="1"
     inkscape:window-y="30"
     inkscape:window-height="705"
     inkscape:window-x="0"
     inkscape:window-width="1366"
     inkscape:pageshadow="2"
     inkscape:pageopacity="0" /><g
     id="g4198"
     transform="translate(1.55e-6,1.6807946e-4)"><radialGradient
       id="path3818-0_1_"
       cx="705.1836"
       cy="-3476.1409"
       r="62.7593"
       gradientTransform="matrix(0.3824 0 0 -0.1115 -237.6295 -330.6569)"
       gradientUnits="userSpaceOnUse"><stop
         offset="0"
         style="stop-color:#000000"
         id="stop6" /><stop
         offset="1"
         style="stop-color:#000000;stop-opacity:0"
         id="stop8" /></radialGradient><path
       id="path3818-0"
       inkscape:connector-curvature="0"
       opacity="0.2"
       fill="url(#path3818-0_1_)"
       enable-background="new    "
       d="   M56,57.002C56,60.867,45.255,64,32,64S8,60.867,8,57.002s10.745-6.998,24-6.998S56,53.137,56,57.002z" /><radialGradient
       id="path4190_1_"
       cx="1051.9307"
       cy="-4869.5586"
       r="62.769"
       gradientTransform="matrix(0.2549 0 0 -0.0797 -236.1396 -328.8854)"
       gradientUnits="userSpaceOnUse"><stop
         offset="0"
         style="stop-color:#000000"
         id="stop12" /><stop
         offset="1"
         style="stop-color:#000000;stop-opacity:0"
         id="stop14" /></radialGradient><path
       id="path4190"
       inkscape:connector-curvature="0"
       opacity="0.4"
       fill="url(#path4190_1_)"
       enable-background="new    "
       d="   M48,59.002c0.003,2.761-7.158,5-15.995,5C23.169,64.004,16.003,61.765,16,59.006c0-0.002,0-0.003,0-0.004   c-0.003-2.761,7.158-5,15.995-5C40.831,54,47.997,56.238,48,58.998C48,59,48,59.001,48,59.002z" /></g><radialGradient
     id="rect4321_1_"
     cx="201.6602"
     cy="-2054.0547"
     r="17"
     gradientTransform="matrix(1 0 0 -0.3235 -177.6602 -623.0472)"
     gradientUnits="userSpaceOnUse"><stop
       offset="0"
       style="stop-color:#000000"
       id="stop18" /><stop
       offset="1"
       style="stop-color:#000000;stop-opacity:0"
       id="stop20" /></radialGradient><rect
     id="rect4321"
     x="7"
     y="36"
     opacity="0.5"
     fill="url(#rect4321_1_)"
     enable-background="new    "
     width="34"
     height="11" /><g
     id="g4213"
     transform="matrix(1,0,0,0.98375547,0.29534197,0.49852639)"><linearGradient
       id="rect4_1_"
       gradientUnits="userSpaceOnUse"
       x1="-403.99161"
       y1="-20.0308"
       x2="-365.19131"
       y2="-20.0308"
       gradientTransform="matrix(0,-1.4133,-1.385,0,3.9613,-509.4661)"><stop
         offset="0"
         style="stop-color:#0D52BF"
         id="stop25" /><stop
         offset="1"
         style="stop-color:#64BAFF"
         id="stop27" /></linearGradient><path
       id="rect4"
       d="m 4.391,34.063 0,0 C 4.391,18.921 16.62,6.646 31.704,6.646 l 0,0 c 15.085,0 27.313,12.275 27.313,27.417 l 0,0 c 0,15.142 -12.229,27.418 -27.313,27.418 l 0,0 C 16.62,61.481 4.391,49.205 4.391,34.063 Z"
       style="fill:url(#rect4_1_)"
       inkscape:connector-curvature="0" /><path
       id="rect4-5"
       enable-background="new    "
       d="m 4.409,34.063 0,0 C 4.409,18.931 16.63,6.664 31.704,6.664 l 0,0 C 46.779,6.664 59,18.931 59,34.063 l 0,0 c 0,15.133 -12.221,27.4 -27.295,27.4 l 0,0 C 16.63,61.463 4.409,49.195 4.409,34.063 Z"
       inkscape:connector-curvature="0"
       style="opacity:0.7;fill:none;stroke:#0d52bf;stroke-width:1.00820005" /><linearGradient
       id="path3804_1_"
       gradientUnits="userSpaceOnUse"
       x1="226.4664"
       y1="-233.37691"
       x2="226.4664"
       y2="-290.3848"
       gradientTransform="matrix(0.9398,0,0,-0.928,-180.8262,-209.3992)"><stop
         offset="0"
         style="stop-color:#FFFFFF"
         id="stop32" /><stop
         offset="0.0899"
         style="stop-color:#FFFFFF;stop-opacity:0.2353"
         id="stop34" /><stop
         offset="0.8739"
         style="stop-color:#FFFFFF;stop-opacity:0.1569"
         id="stop36" /><stop
         offset="1"
         style="stop-color:#FFFFFF;stop-opacity:0.3922"
         id="stop38" /></linearGradient><ellipse
       id="path3804"
       enable-background="new    "
       cx="32"
       cy="34.068001"
       rx="26.313999"
       ry="26.414"
       style="opacity:0.4;fill:none;stroke:url(#path3804_1_);stroke-width:1.00820005" /></g><linearGradient
     id="path10-3-6_2_"
     gradientUnits="userSpaceOnUse"
     x1="63.6592"
     y1="-111.752"
     x2="96.3379"
     y2="-91.3108"
     gradientTransform="matrix(1.4251 0 0 -1.43 -83.6865 -113.562)"><stop
       offset="0"
       style="stop-color:#FF780A"
       id="stop42" /><stop
       offset="1"
       style="stop-color:#FFBE3C"
       id="stop44" /></linearGradient><path
     id="path10-3-6"
     sodipodi:nodetypes="ccccccccscccccsccccccccccccccccccccccccccccccccccccccccccssscccscccc"
     inkscape:connector-curvature="0"
     fill="url(#path10-3-6_2_)"
     d="  M41.936,1.5l-0.261,0.362c-0.059,0.073-0.116,0.146-0.175,0.223c-1.319,1.755-2.068,3.738-2.857,5.868  c-0.3,0.817-0.619,2.05-0.796,3.075c-0.177,1.028-0.192,3.313-0.027,4.212c0.437,2.381,1.437,4.625,2.903,6.524  c1.699,1.857,3.548,3.905,4.236,5.399c0.947,2.055,1.348,3.885,1.348,6.158c0,0.686-0.039,1.391-0.098,1.811  c-1.436,6.734-6.188,12.029-12.859,12.065c-4.222,0.016-9.9-1.431-10.666-5.808c2.034,0.312,3.559,0.2,5.012,0.189  c1.342-0.009,2.623-0.299,4.187-1.131c2.33-1.249,3.484-1.479,4.122-1.405c0.94,0.109,1.058,0.106,1.264-0.022  c0.437-0.274,0.562-0.385,0.31-0.906c-0.318-0.659-1.434-1.58-2.369-1.955c-0.783-0.314-1.21-0.394-2.148-0.395  c-0.956,0-1.767,0.046-3.49,0.57c-1.721,0.523-2.674,0.602-3.735,0.305c-4.413-1.061-6.654-4.993-4.506-7.867  c1.292-0.06,3.916,0.813,4.734,1.373c0.783-0.771-0.916-1.959-1.188-3.044c0-1.354,2.75-2.143,3.88-2.654  c0.745-0.335,1.47-0.679,1.612-0.762c0.308-0.181,0.902-0.76,1.144-1.114c0.369-0.542,0.611-1.544,0.462-1.905  c-0.188-0.454-1.447-0.736-4.495-1.008c-1.15-0.103-1.938-0.631-2.544-1.704c-1.063-2.465,2.7-4.811,4.047-6.052  c-2.142-1.173-6.123,0.885-7.398,2.086c-0.409,0.406-0.284,0.399-1.522,0.072c-0.083-0.021-0.168-0.041-0.256-0.061  c-0.032-0.007-0.063-0.016-0.095-0.022c-0.057-0.013-0.117-0.024-0.175-0.037c-0.042-0.008-0.083-0.017-0.125-0.025  c-0.048-0.008-0.096-0.019-0.145-0.028c-0.051-0.009-0.102-0.017-0.153-0.025c-0.037-0.005-0.074-0.01-0.111-0.017  c-0.328-0.052-0.671-0.097-1.016-0.128c-0.378-0.035-0.756-0.058-1.122-0.067c-0.109-0.003-0.219-0.003-0.326-0.003  c-0.115,0-0.226,0-0.336,0.003c-0.021,0-0.043,0.001-0.064,0.002c-0.093,0.003-0.184,0.007-0.273,0.011  c-0.014,0.001-0.025,0.001-0.036,0.003c-0.099,0.006-0.192,0.014-0.284,0.022c-0.014,0-0.015,0.001-0.022,0.003  c-0.094,0.008-0.182,0.021-0.267,0.033H15.25c-0.039,0.006-0.08,0.01-0.117,0.017c-0.408-0.001-0.783,0.115-1.102,0.263  c-1.072-1.817-1.332-5.029-2.166-6.849c-1.949,1.025-3.284,6.062-3.615,7.779c-0.127,0.683-0.272,2.008-0.273,2.478  c0,0.067-0.017,0.094-0.02,0.142C5.142,21.99,3.499,27.25,3.499,32.897c0,15.796,12.76,28.601,28.501,28.601  c15.74,0,28.501-12.805,28.501-28.601c0-10.01-4.467-15.153-8.89-22.179c0-0.004,0-0.006-0.014-0.011  c-0.652-0.979-1.217-2.052-1.674-3.117c-0.07-0.235-0.155-0.427-0.186-0.427c-0.015,0-0.027,0.009-0.045,0.025  c-0.574,0.697-0.853,3.412-1.16,4.259c-2.225-3.092-4.982-6.166-6.436-9.591L41.936,1.5z" /><linearGradient
     id="SVGID_1_"
     gradientUnits="userSpaceOnUse"
     x1="-83.485802"
     y1="8.7187996"
     x2="-27.4839"
     y2="8.7187996"
     gradientTransform="translate(122.42558,38.766502)"
     xlink:href="#path10-3-6_2_"><stop
       offset="0"
       style="stop-color:#FF780A"
       id="stop49" /><stop
       offset="1"
       style="stop-color:#FFBE3C"
       id="stop51" /></linearGradient><path
     id="path10-3-6_1_"
     sodipodi:nodetypes="ccccccccscccccsccccccccccccccccccccccccccccccccccccccccccssscccscccc"
     inkscape:connector-curvature="0"
     stroke-miterlimit="10"
     d="m 41.932,1.4990007 -0.261,0.362 c -0.059,0.073 -0.116,0.146 -0.175,0.224 -1.319,1.755 -2.068,3.737999 -2.857,5.867999 C 38.339,8.77 38.02,10.003 37.843,11.028 c -0.177,1.028 -0.192,3.313 -0.027,4.212 0.437,2.381 1.437,4.625 2.903,6.524 1.699,1.857 3.548,3.904 4.236,5.398 0.947,2.056 1.348,3.885 1.348,6.158 0,0.686 -0.039,1.391 -0.098,1.811 -1.436,6.734 -6.188,12.029 -12.859,12.065 -4.222,0.016 -9.9,-1.431 -10.666,-5.808 2.034,0.312 3.559,0.2 5.012,0.189 1.342,-0.009 2.623,-0.299 4.187,-1.131 2.33,-1.249 3.484,-1.479 4.122,-1.405 0.94,0.109 1.058,0.106 1.264,-0.022 0.437,-0.274 0.562,-0.385 0.31,-0.906 -0.318,-0.659 -1.434,-1.58 -2.369,-1.955 -0.783,-0.314 -1.21,-0.394 -2.148,-0.395 -0.956,0 -1.767,0.046 -3.49,0.57 -1.721,0.523 -2.674,0.602 -3.735,0.305 -4.413,-1.061 -6.654,-4.993 -4.506,-7.867 1.292,-0.06 3.916,0.813 4.734,1.373 0.783,-0.771 -0.916,-1.959 -1.188,-3.044 0,-1.354 2.75,-2.143 3.88,-2.653 0.745,-0.335 1.47,-0.68 1.612,-0.763 0.308,-0.181 0.902,-0.76 1.144,-1.114 0.369,-0.541 0.611,-1.544 0.462,-1.905 -0.188,-0.453 -1.447,-0.736 -4.495,-1.008 -1.15,-0.103 -1.938,-0.631 -2.544,-1.704 -1.063,-2.465 2.7,-4.811 4.047,-6.052 -2.142,-1.173 -6.123,0.885 -7.398,2.086 -0.409,0.406 -0.284,0.399 -1.522,0.072 C 19.976,14.038 19.891,14.018 19.803,13.998 19.771,13.99 19.74,13.982 19.708,13.976 19.651,13.963 19.591,13.952 19.533,13.939 19.491,13.931 19.45,13.922 19.408,13.915 19.36,13.906 19.312,13.895 19.263,13.887 19.212,13.878 19.161,13.87 19.11,13.862 c -0.037,-0.005 -0.074,-0.01 -0.111,-0.017 -0.328,-0.052 -0.671,-0.097 -1.016,-0.128 -0.378,-0.035 -0.756,-0.059 -1.122,-0.067 -0.109,-0.003 -0.219,-0.003 -0.326,-0.003 -0.115,0 -0.226,0 -0.336,0.003 -0.021,10e-4 -0.043,10e-4 -0.064,0.003 -0.093,0.003 -0.184,0.007 -0.273,0.011 -0.014,10e-4 -0.025,0.002 -0.036,0.003 -0.099,0.006 -0.192,0.014 -0.284,0.022 -0.014,10e-4 -0.015,0.002 -0.022,0.003 -0.094,0.009 -0.182,0.021 -0.267,0.033 l -0.003,0 c -0.039,0.006 -0.08,0.011 -0.117,0.017 -0.408,-0.001 -0.783,0.115 -1.102,0.263 C 12.959,12.189 12.699,8.977 11.865,7.1559997 9.9159998,8.1809997 8.5809998,13.219 8.2499998,14.935 c -0.127,0.683 -0.272,2.008 -0.273,2.478 0,0.067 -0.017,0.094 -0.02,0.142 -2.815,4.435 -4.458,9.694 -4.458,15.342 0,15.796 12.7600002,28.601 28.5010002,28.601 15.74,0 28.501,-12.805 28.501,-28.601 0,-10.01 -4.467,-15.152 -8.89,-22.179 0,-0.004 0,-0.007 -0.014,-0.011 -0.652,-0.979 -1.217,-2.0530003 -1.674,-3.1170003 -0.07,-0.235 -0.155,-0.428 -0.186,-0.428 -0.015,0 -0.027,0.01 -0.045,0.025 C 49.118,7.8839997 48.839,10.599 48.532,11.446 46.307,8.3539997 43.55,5.2810007 42.096,1.8550007 l -0.164,-0.356 z"
     style="opacity:0.7;fill:none;stroke:#f37329;stroke-miterlimit:10;stroke-opacity:1" /><path
     stroke-miterlimit="10"
     d="m 52.66,14.186 c -0.584,-0.892 -1.18,-1.8 -1.775,-2.741 l -0.122,-0.183 c -0.298,-0.447 -0.583,-0.917 -0.852,-1.407 -0.021,0.11 -0.042,0.214 -0.06,0.307 -0.13,0.668 -0.242,1.245 -0.381,1.627 l -0.646,1.778 -1.105,-1.536 C 47.15,11.241 46.547,10.452 45.939,9.658 44.43,7.6859997 42.878,5.6589997 41.752,3.4760007 c -0.941,1.493 -1.567,3.182999 -2.175,4.824999 C 39.297,9.065 38.996,10.231 38.829,11.198 c -0.157,0.911 -0.173,3.077 -0.029,3.861 0.406,2.217 1.344,4.324 2.711,6.094 1.932,2.106 3.634,4.03 4.353,5.591 1.009,2.19 1.439,4.157 1.439,6.577 0,0.728 -0.041,1.475 -0.107,1.949 -1.669,7.843 -7.099,12.891 -13.844,12.928 -4.881,0 -10.799,-1.738 -11.656,-6.637 l -0.24,-1.372 1.377,0.212 c 1.192,0.183 2.176,0.206 2.899,0.206 0.389,0 0.762,-0.007 1.126,-0.015 0.279,-0.006 0.554,-0.012 0.826,-0.014 1.291,-0.008 2.404,-0.311 3.726,-1.014 1.953,-1.046 3.341,-1.534 4.366,-1.534 0.124,0 0.237,0.007 0.341,0.02 0.06,0.007 0.115,0.014 0.167,0.02 -0.367,-0.358 -0.923,-0.771 -1.451,-0.983 -0.665,-0.267 -0.963,-0.32 -1.778,-0.322 -0.882,0 -1.583,0.037 -3.198,0.527 -1.973,0.6 -3.016,0.668 -4.295,0.311 -2.731,-0.655 -4.945,-2.44 -5.743,-4.648 -0.603,-1.667 -0.352,-3.365 0.705,-4.78 l 0.283,-0.379 0.647,-0.025 c 0.779,0 1.88,0.236 2.896,0.559 -0.192,-0.305 -0.361,-0.631 -0.449,-0.981 l -0.03,-0.244 c 0,-1.792 2.18,-2.652 3.772,-3.28 0.265,-0.104 0.505,-0.199 0.696,-0.285 0.802,-0.361 1.429,-0.663 1.526,-0.718 0.146,-0.088 0.639,-0.553 0.815,-0.812 0.153,-0.224 0.264,-0.582 0.31,-0.832 -0.39,-0.129 -1.335,-0.318 -3.605,-0.521 -1.474,-0.133 -2.562,-0.855 -3.326,-2.21 l -0.048,-0.096 c -0.98,-2.274 0.866,-4.283 2.51,-5.7 -1.614,0.313 -3.474,1.33 -4.256,2.067 l -0.053,0.054 c -0.195,0.198 -0.522,0.529 -1.107,0.529 -0.28,0 -0.54,-0.068 -1.057,-0.206 l -1.208,-0.26 c -0.309,-0.049 -0.628,-0.091 -0.95,-0.12 -0.356,-0.033 -0.71,-0.056 -1.053,-0.063 -0.111,-0.005 -0.208,-0.002 -0.304,-0.004 -0.104,0.003 -0.203,0 -0.301,0.003 l -0.373,0.015 c -0.06,0.005 -0.138,0.012 -0.214,0.02 l -0.52,0.059 c -0.211,0 -0.431,0.056 -0.678,0.17 l -0.821,0.379 -0.46,-0.778 c -0.675,-1.145 -1.038,-2.667 -1.389,-4.14 -0.114,-0.48 -0.226,-0.949 -0.344,-1.385 -0.953,1.472 -1.8300002,4.192 -2.2050002,6.136 -0.122,0.653 -0.254,1.906 -0.255,2.29 l -0.024,0.242 -0.013,0.217 -0.139,0.218 c -2.815,4.433 -4.303,9.553 -4.303,14.806 0,15.219 12.3370002,27.599 27.5010002,27.599 15.164,0 27.501,-12.38 27.501,-27.599 0.002,-8.281 -3.167,-13.116 -6.836,-18.714 z"
     id="path53"
     style="fill:none;stroke:url(#linearGradient4209);stroke-miterlimit:10;stroke-opacity:1;opacity:0.5;stroke-linejoin:miter"
     inkscape:connector-curvature="0" /><path
     id="path4398"
     style="opacity:0.5;fill:#000000;fill-opacity:1"
     d="m 38.03125,38.99409 c -0.142614,0.22347 -0.337946,0.33242 -0.527344,0.45118 l -0.002,0 0,0.002 c -0.137864,0.0856 -0.378242,0.16983 -0.611328,0.17383 -0.233087,0.004 -0.50171,-0.0253 -0.974609,-0.0801 -0.451674,-0.0524 -1.536187,0.11906 -3.828125,1.34766 l 0,0.002 -0.002,0 c -1.62141,0.86254 -3.006076,1.18045 -4.417969,1.18945 -1.183134,0.009 -2.77908,0.0545 -4.36914,-0.09961 0.121276,0.36527 0.265585,0.659745 0.453125,0.982425 1.396172,0.11368 2.855587,0.125215 3.916015,0.117185 1.411893,-0.009 2.796559,-0.32691 4.417969,-1.18945 l 0.002,0 0,-0.002 c 2.291939,-1.2286 3.376451,-1.40005 3.828125,-1.34766 0.472899,0.0548 0.741523,0.0843 0.974609,0.0801 0.233087,-0.004 0.473464,-0.0882 0.611328,-0.17383 l 0,-0.002 0.002,0 c 0.226068,-0.14175 0.466461,-0.25834 0.607422,-0.58789 0.126586,-0.29595 0.04224,-0.58753 -0.08008,-0.86329 z M 21.580806,29.263361 c -0.504285,0.78556 -0.685156,1.61984 -0.5625,2.44921 0.0759,-0.49318 0.261174,-0.97981 0.5625,-1.44921 0.544298,0.0217 1.307876,0.14021 2.089844,0.3789 0.889441,0.2715 1.749438,0.64588 2.052734,0.85352 l 0.339844,0.23437 0.292969,-0.28906 c 0.305906,-0.30122 0.400274,-0.76087 0.320312,-1.11523 -0.01928,-0.0855 -0.0598,-0.15753 -0.08984,-0.23633 -0.05645,0.12726 -0.127481,0.25015 -0.230468,0.35156 l -0.292969,0.28906 -0.339844,-0.23437 c -0.303297,-0.20764 -1.163293,-0.58202 -2.052734,-0.85352 -0.781968,-0.23869 -1.545546,-0.3572 -2.089844,-0.3789 z m 10.854741,-7.75855 c -0.01145,0.04946 -0.01503,0.09563 -0.02734,0.14649 -0.100087,0.41342 -0.261167,0.83825 -0.498047,1.18554 -0.313774,0.45899 -0.835268,0.98701 -1.302734,1.26172 l -0.002,0 0,0.0019 c -0.130491,0.07628 -0.321496,0.16647 -0.617188,0.30664 -0.29569,0.14022 -0.665291,0.31152 -1.041015,0.48047 -0.615498,0.2778 -1.561379,0.59391 -2.339844,0.99805 -0.389233,0.20207 -0.729788,0.42561 -0.947266,0.64063 -0.197083,0.194854 -0.257214,0.351354 -0.271484,0.505854 0.04489,0.13747 0.156724,0.31659 0.269531,0.49805 0.0012,-0.001 7e-4,-0.003 0.0019,-0.004 0.217479,-0.21502 0.558033,-0.43856 0.947266,-0.64063 0.778465,-0.404144 1.724345,-0.720254 2.339844,-0.998054 0.375723,-0.16895 0.745324,-0.34026 1.041015,-0.48047 0.295692,-0.14018 0.486697,-0.23036 0.617188,-0.30664 l 0,-0.0019 0.002,0 c 0.467466,-0.27471 0.98896,-0.80273 1.302734,-1.26172 0.23688,-0.34729 0.39796,-0.77212 0.498047,-1.18554 0.09623,-0.39749 0.174964,-0.74723 0.02734,-1.14649 z m 4.757813,-7.754865 c -0.02509,0.95222 0.0069,1.94106 0.11914,2.55274 0.45138,2.45934 1.484781,4.77552 3,6.73828 l 0.01172,0.01562 0.01367,0.01563 c 1.697428,1.85528 3.532176,3.927074 4.15039,5.269534 0.867645,1.88371 1.242207,3.54245 1.285157,5.57422 0.0076,-0.20767 0.01758,-0.41175 0.01758,-0.625 0,-2.21419 -0.380436,-3.94685 -1.302735,-5.94922 -0.618214,-1.342464 -2.452962,-3.414254 -4.15039,-5.269534 l -0.01367,-0.01563 -0.01172,-0.01562 c -1.51522,-1.96276 -2.548621,-4.27894 -3,-6.73828 -0.07195,-0.39201 -0.10472,-0.95758 -0.11914,-1.55274 z m -8.072266,-1.320698 c -0.74114,0.65118 -1.85226,1.45724 -2.714844,2.38477 -0.46241,0.49722 -0.836031,1.01908 -1.02539,1.51367 -0.160466,0.41925 -0.186345,0.8058 -0.06445,1.21289 0.02011,-0.07087 0.03666,-0.1403 0.06445,-0.21289 0.189359,-0.49459 0.562981,-1.01645 1.02539,-1.51367 0.924819,-0.99445 2.171721,-1.86773 2.900391,-2.53906 l 0.511719,-0.47266 -0.611329,-0.33398 c -0.02792,-0.01529 -0.05768,-0.02468 -0.08594,-0.03907 z" /></svg>