<?xml version="1.0" encoding="UTF-8" standalone="no"?>
<svg
   xmlns:osb="http://www.openswatchbook.org/uri/2009/osb"
   xmlns:dc="http://purl.org/dc/elements/1.1/"
   xmlns:cc="http://creativecommons.org/ns#"
   xmlns:rdf="http://www.w3.org/1999/02/22-rdf-syntax-ns#"
   xmlns:svg="http://www.w3.org/2000/svg"
   xmlns="http://www.w3.org/2000/svg"
   xmlns:xlink="http://www.w3.org/1999/xlink"
   xmlns:sodipodi="http://sodipodi.sourceforge.net/DTD/sodipodi-0.dtd"
   xmlns:inkscape="http://www.inkscape.org/namespaces/inkscape"
   id="svg4031"
   height="24"
   width="24"
   version="1.1"
   inkscape:version="0.91 r13725"
   sodipodi:docname="firefox_24.svg">
  <sodipodi:namedview
     pagecolor="#ffffff"
     bordercolor="#666666"
     borderopacity="1"
     objecttolerance="10"
     gridtolerance="10"
     guidetolerance="10"
     inkscape:pageopacity="0"
     inkscape:pageshadow="2"
     inkscape:window-width="1366"
     inkscape:window-height="705"
     id="namedview37"
     showgrid="false"
     inkscape:zoom="32"
     inkscape:cx="15.148997"
     inkscape:cy="12.108549"
     inkscape:window-x="0"
     inkscape:window-y="30"
     inkscape:window-maximized="1"
     inkscape:current-layer="svg4031" />
  <defs
     id="defs4033">
    <linearGradient
       id="linearGradient4222">
      <stop
         offset="0"
         style="stop-color:#ffffff;stop-opacity:1"
         id="stop4224" />
      <stop
         offset="0.45102367"
         style="stop-color:#ffffff;stop-opacity:0.23529412"
         id="stop4226" />
      <stop
         offset="0.8169468"
         style="stop-color:#ffffff;stop-opacity:0.15686275"
         id="stop4233" />
      <stop
         offset="1"
         style="stop-color:#ffffff;stop-opacity:0.39215687"
         id="stop4235" />
    </linearGradient>
    <linearGradient
       id="linearGradient4326">
      <stop
         offset="0"
         style="stop-color:#ffffff;stop-opacity:1"
         id="stop4328" />
      <stop
         offset="0.45722568"
         style="stop-color:#ffffff;stop-opacity:0.23529412"
         id="stop4330" />
      <stop
         offset="0.83318615"
         style="stop-color:#ffffff;stop-opacity:0.15686275"
         id="stop4332" />
      <stop
         offset="1"
         style="stop-color:#ffffff;stop-opacity:0.39215687"
         id="stop4334" />
    </linearGradient>
    <linearGradient
       id="linearGradient4226">
      <stop
         offset="0"
         style="stop-color:#ffffff;stop-opacity:1"
         id="stop4228" />
      <stop
         offset="0.43782076"
         style="stop-color:#ffffff;stop-opacity:0.23529412"
         id="stop4230" />
      <stop
         offset="0.84462607"
         style="stop-color:#ffffff;stop-opacity:0.15686275"
         id="stop4232" />
      <stop
         offset="1"
         style="stop-color:#ffffff;stop-opacity:0.39215687"
         id="stop4234" />
    </linearGradient>
    <linearGradient
       inkscape:collect="always"
       id="linearGradient4268">
      <stop
         style="stop-color:#ff780a;stop-opacity:1"
         offset="0"
         id="stop4270" />
      <stop
         style="stop-color:#ffbe3c;stop-opacity:1"
         offset="1"
         id="stop4272" />
    </linearGradient>
    <linearGradient
       id="linearGradient4250">
      <stop
         id="stop4252"
         offset="0"
         style="stop-color:#0d52bf;stop-opacity:1" />
      <stop
         id="stop4258"
         offset="1"
         style="stop-color:#64baff;stop-opacity:1" />
    </linearGradient>
    <linearGradient
       id="linearGradient2867-449-88-871-390-598-476-591-434-148-57-177-3-8">
      <stop
         offset="0"
         style="stop-color:#90dbec;stop-opacity:1"
         id="stop3750-8-9" />
      <stop
         offset="0.26238"
         style="stop-color:#42baea;stop-opacity:1"
         id="stop3752-3-2" />
      <stop
         offset="0.704952"
         style="stop-color:#3689e6;stop-opacity:1"
         id="stop3754-7-2" />
      <stop
         offset="1"
         style="stop-color:#2b63a0;stop-opacity:1"
         id="stop3756-9-3" />
    </linearGradient>
    <linearGradient
       id="linearGradient3820-7-2-1">
      <stop
         offset="0"
         style="stop-color:#3d3d3d;stop-opacity:1"
         id="stop3822-2-6-3" />
      <stop
         offset="0.5"
         style="stop-color:#686868;stop-opacity:0.49803922"
         id="stop3864-8-7-7" />
      <stop
         offset="1"
         style="stop-color:#686868;stop-opacity:0"
         id="stop3824-1-2-5" />
    </linearGradient>
    <radialGradient
       gradientTransform="matrix(0,2.4988347,-2.6434689,-6.8014435e-8,46.336814,-12.180468)"
       gradientUnits="userSpaceOnUse"
       xlink:href="#linearGradient2867-449-88-871-390-598-476-591-434-148-57-177-3-8"
       id="radialGradient3015"
       fy="8.4497671"
       fx="3.9722471"
       r="19.99999"
       cy="8.4497671"
       cx="3.9722471" />
    <radialGradient
       gradientTransform="matrix(0.27083381,0,0,0.08762273,-2.855072,25.187228)"
       gradientUnits="userSpaceOnUse"
       xlink:href="#linearGradient3820-7-2-1"
       id="radialGradient3018"
       fy="186.17059"
       fx="99.157013"
       r="62.769119"
       cy="186.17059"
       cx="99.157013" />
    <linearGradient
       gradientTransform="matrix(1.6169806,0,0,1.6169806,-92.70737,-21.060237)"
       gradientUnits="userSpaceOnUse"
       xlink:href="#linearGradient4806-2"
       id="linearGradient4338-5-6"
       y2="40.495617"
       x2="71.204407"
       y1="15.369057"
       x1="71.204407" />
    <linearGradient
       id="linearGradient4806-2">
      <stop
         offset="0"
         style="stop-color:#ffffff;stop-opacity:1"
         id="stop4808-4" />
      <stop
         offset="0.42447853"
         style="stop-color:#ffffff;stop-opacity:0.23529412"
         id="stop4810-0" />
      <stop
         offset="0.82089913"
         style="stop-color:#ffffff;stop-opacity:0.15686275"
         id="stop4812-8" />
      <stop
         offset="1"
         style="stop-color:#ffffff;stop-opacity:0.39215687"
         id="stop4814-0" />
    </linearGradient>
    <radialGradient
       gradientTransform="matrix(0,3.9153034,-3.0928272,-4.4454166e-8,49.977542,-1.450216)"
       gradientUnits="userSpaceOnUse"
       xlink:href="#linearGradient4223"
       id="radialGradient3126-7-25-24"
       fy="8.449769"
       fx="0.66680855"
       r="19.99999"
       cy="8.449769"
       cx="-1.2645766" />
    <linearGradient
       id="linearGradient4526"
       osb:paint="solid">
      <stop
         style="stop-color:#ffffff;stop-opacity:1;"
         offset="0"
         id="stop4528" />
    </linearGradient>
    <linearGradient
       id="linearGradient4223">
      <stop
         offset="0"
         style="stop-color:#cdf87e;stop-opacity:1"
         id="stop4225" />
      <stop
         offset="0.26238"
         style="stop-color:#a2e34f;stop-opacity:1"
         id="stop4227" />
      <stop
         offset="0.66093999"
         style="stop-color:#68b723;stop-opacity:1"
         id="stop4229" />
      <stop
         offset="1"
         style="stop-color:#1d7e0d;stop-opacity:1"
         id="stop4231" />
    </linearGradient>
    <linearGradient
       id="linearGradient4029-0">
      <stop
         style="stop-color:#87accd;stop-opacity:1;"
         offset="0"
         id="stop4031-7" />
      <stop
         id="stop4062-3-8"
         offset="0.28728491"
         style="stop-color:#6b96c1;stop-opacity:1;" />
      <stop
         id="stop4060-0-2"
         offset="0.59072286"
         style="stop-color:#477ba9;stop-opacity:1;" />
      <stop
         style="stop-color:#325978;stop-opacity:1;"
         offset="1"
         id="stop4033-0" />
    </linearGradient>
    <linearGradient
       id="linearGradient4037-1">
      <stop
         style="stop-color:#e67263;stop-opacity:1;"
         offset="0"
         id="stop4039-4" />
      <stop
         style="stop-color:#dc252a;stop-opacity:1;"
         offset="1"
         id="stop4041-6" />
    </linearGradient>
    <linearGradient
       id="linearGradient4064-1">
      <stop
         style="stop-color:#f0d550;stop-opacity:1;"
         offset="0"
         id="stop4066-2" />
      <stop
         style="stop-color:#dca023;stop-opacity:1;"
         offset="1"
         id="stop4068-8" />
    </linearGradient>
    <linearGradient
       id="linearGradient4072-7">
      <stop
         style="stop-color:#50b54c;stop-opacity:1;"
         offset="0"
         id="stop4074-1" />
      <stop
         style="stop-color:#32783b;stop-opacity:1;"
         offset="1"
         id="stop4076-0" />
    </linearGradient>
    <linearGradient
       inkscape:collect="always"
       xlink:href="#linearGradient4250"
       id="linearGradient4248"
       x1="-36.789829"
       y1="23.871187"
       x2="2.01017"
       y2="23.871187"
       gradientUnits="userSpaceOnUse"
       gradientTransform="matrix(0.46968911,0,0,0.47643862,-4.6147097,0.62883767)" />
    <linearGradient
       id="c"
       y2="40.495998"
       gradientUnits="userSpaceOnUse"
       x2="71.204002"
       gradientTransform="matrix(1.4614589,0,0,1.4614589,-129.26231,-15.45283)"
       y1="15.369"
       x1="71.204002">
      <stop
         stop-color="#fff"
         offset="0"
         id="stop7" />
      <stop
         stop-color="#fff"
         stop-opacity=".23529"
         offset=".42448"
         id="stop9" />
      <stop
         stop-color="#fff"
         stop-opacity=".15686"
         offset=".82090"
         id="stop11" />
      <stop
         stop-color="#fff"
         stop-opacity=".39216"
         offset="1"
         id="stop13" />
    </linearGradient>
    <linearGradient
       inkscape:collect="always"
       xlink:href="#linearGradient3767"
       id="linearGradient3814"
       x1="26.386984"
       y1="3.548188"
       x2="26.386984"
       y2="60.501682"
       gradientUnits="userSpaceOnUse"
       gradientTransform="matrix(0.29439288,0,0,0.29021204,2.5478842,3.4812628)" />
    <linearGradient
       id="linearGradient3767">
      <stop
         style="stop-color:#ffffff;stop-opacity:1;"
         offset="0"
         id="stop3769" />
      <stop
         id="stop3777"
         offset="0.08994294"
         style="stop-color:#ffffff;stop-opacity:0.23529412;" />
      <stop
         id="stop3775"
         offset="0.87385589"
         style="stop-color:#ffffff;stop-opacity:0.15686275;" />
      <stop
         style="stop-color:#ffffff;stop-opacity:0.39215687;"
         offset="1"
         id="stop3771" />
    </linearGradient>
    <radialGradient
       gradientUnits="userSpaceOnUse"
       gradientTransform="matrix(1,0,0,0.32352941,-1.9644775e-7,-296.86717)"
       r="17"
       fy="1045.8622"
       fx="24"
       cy="1045.8622"
       cx="24"
       id="radialGradient4329"
       xlink:href="#linearGradient4323" />
    <linearGradient
       id="linearGradient4323">
      <stop
         id="stop4325"
         offset="0"
         style="stop-color:#000000;stop-opacity:1;" />
      <stop
         id="stop4327"
         offset="1"
         style="stop-color:#000000;stop-opacity:0;" />
    </linearGradient>
    <linearGradient
       inkscape:collect="always"
       xlink:href="#linearGradient4268"
       id="linearGradient4274-2-0"
       x1="-32.915249"
       y1="35.796612"
       x2="-0.23728631"
       y2="15.355933"
       gradientUnits="userSpaceOnUse"
       gradientTransform="matrix(0.50000021,0,0,0.49276209,20.694888,1.1773325)" />
    <linearGradient
       x1="23.99999"
       y1="4.999989"
       x2="23.99999"
       y2="43"
       id="linearGradient3058"
       xlink:href="#linearGradient3924-1"
       gradientUnits="userSpaceOnUse"
       gradientTransform="translate(-1.2203471,7.5254347)" />
    <linearGradient
       id="linearGradient3924-1">
      <stop
         id="stop3926-3"
         style="stop-color:#ffffff;stop-opacity:1"
         offset="0" />
      <stop
         id="stop3928-91"
         style="stop-color:#ffffff;stop-opacity:0.23529412"
         offset="0.06316455" />
      <stop
         id="stop3930-6"
         style="stop-color:#ffffff;stop-opacity:0.15686275"
         offset="0.95056331" />
      <stop
         id="stop3932-6"
         style="stop-color:#ffffff;stop-opacity:0.39215687"
         offset="1" />
    </linearGradient>
    <radialGradient
       cx="99.157013"
       cy="186.17059"
       r="62.769119"
       fx="99.157013"
       fy="186.17059"
       id="radialGradient3043"
       xlink:href="#linearGradient3820-7-2-1"
       gradientUnits="userSpaceOnUse"
       gradientTransform="matrix(0.17524541,0,0,0.05575992,-48.156474,1.9496541)" />
    <radialGradient
       r="10.625"
       fy="4.625"
       fx="62.625"
       cy="4.625"
       cx="62.625"
       gradientTransform="matrix(1.1294118,0,0,0.2823525,-58.729414,19.694118)"
       gradientUnits="userSpaceOnUse"
       id="radialGradient3090"
       xlink:href="#linearGradient4323" />
    <linearGradient
       inkscape:collect="always"
       xlink:href="#linearGradient4222"
       id="linearGradient4296-5"
       gradientUnits="userSpaceOnUse"
       gradientTransform="matrix(0.50000021,0,0,0.49276209,20.694816,1.1762928)"
       x1="-17.415255"
       y1="3.1997454"
       x2="-17.23728"
       y2="42.11834" />
    <radialGradient
       r="10.625"
       fy="4.625"
       fx="62.625"
       cy="4.625"
       cx="62.625"
       gradientTransform="matrix(1.1294118,0,0,0.2823525,-60.916914,56.566605)"
       gradientUnits="userSpaceOnUse"
       id="radialGradient3090-3"
       xlink:href="#linearGradient4323" />
  </defs>
  <metadata
     id="metadata4036">
    <rdf:RDF>
      <cc:Work
         rdf:about="">
        <dc:format>image/svg+xml</dc:format>
        <dc:type
           rdf:resource="http://purl.org/dc/dcmitype/StillImage" />
        <dc:title />
      </cc:Work>
    </rdf:RDF>
  </metadata>
  <path
     inkscape:connector-curvature="0"
     d="m 24,21 c 0,1.656854 -5.372583,3 -12,3 -6.6274171,0 -12,-1.343146 -12,-3 0,-1.656854 5.3725829,-3 12,-3 6.627417,0 12,1.343146 12,3 l 0,0 z"
     id="path8836"
     style="display:inline;overflow:visible;visibility:visible;opacity:0.3;fill:url(#radialGradient3090);fill-opacity:1;fill-rule:evenodd;stroke:none;stroke-width:0.99999988;marker:none" />
  <g
     id="g4262"
     transform="matrix(0.99602103,0,0,0.99601809,0.04576405,0.1987099)">
    <rect
       transform="matrix(0,-1,1,0,0,0)"
       style="fill:url(#linearGradient4248);fill-opacity:1;stroke-width:2.79999995;stroke-opacity:0.55"
       id="rect4"
       rx="9.111968"
       y="2.7590811"
       x="-21.894495"
       height="18.485821"
       width="18.223936" />
    <rect
       transform="matrix(0,-1,1,0,0,0)"
       style="opacity:0.7;fill:none;fill-opacity:1;stroke:#0d52bf;stroke-width:1.00399625;stroke-miterlimit:4;stroke-dasharray:none;stroke-opacity:1"
       id="rect4-5"
       rx="9.1059237"
       y="2.7652142"
       x="-21.888449"
       height="18.473555"
       width="18.211847" />
    <ellipse
       ry="8.1259365"
       rx="8.243"
       cy="12.768064"
       cx="12"
       style="opacity:0.5;fill:none;fill-opacity:1;stroke:url(#linearGradient3814);stroke-width:1.00399625;stroke-miterlimit:4;stroke-dasharray:none;stroke-opacity:1"
       id="path3804" />
  </g>
  <path
     inkscape:connector-curvature="0"
     style="fill:url(#linearGradient4274-2-0);fill-opacity:1"
     d="m 15.480497,1.8037248 -0.086,0.1462882 c -0.0205,0.025085 -0.04058,0.050561 -0.06152,0.076995 -0.4627,0.604845 -0.725723,1.288073 -1.002222,2.0220566 -0.1054,0.281604 -0.217148,0.706291 -0.279298,1.0596312 -0.0623,0.3543119 -0.06776,1.1415535 -0.0098,1.4513383 0.1533,0.8206268 0.503954,1.5939039 1.018554,2.2482282 0.5965,0.6400915 1.244949,1.3456287 1.486598,1.8603687 0.332251,0.708212 0.472657,1.338657 0.472657,2.122149 0,0.236165 -0.01368,0.478928 -0.03418,0.623652 -0.503646,2.320895 -2.171209,4.14524 -4.511584,4.157679 -1.481516,0.0055 -3.4737718,-0.492761 -3.7423248,-2.00092 0.713613,0.107101 1.248606,0.06878 1.7583068,0.06521 0.47101,-0.0033 0.920425,-0.102993 1.469233,-0.389971 0.817701,-0.430289 1.222487,-0.509649 1.446238,-0.4841 0.3297,0.03765 0.371259,0.03689 0.443359,-0.0077 0.152901,-0.09455 0.196749,-0.132499 0.108399,-0.312372 -0.11155,-0.22709 -0.502906,-0.544215 -0.831056,-0.673699 -0.27485,-0.108461 -0.424555,-0.135505 -0.753906,-0.135702 -0.3354,-1.87e-4 -0.619856,0.01569 -1.224557,0.196336 -0.603651,0.180355 -0.938249,0.207448 -1.3105488,0.104904 -1.548402,-0.365235 -2.334616,-1.720399 -1.580915,-2.710736 0.4533,-0.02059 1.373998,0.279883 1.661,0.473095 0.2745998,-0.265949 -0.321402,-0.675121 -0.417,-1.049044 0,-0.466736 0.9649788,-0.7384359 1.3613298,-0.9143045 0.261101,-0.1154833 0.515681,-0.2340188 0.565432,-0.2627417 0.108101,-0.062452 0.316517,-0.2618282 0.401367,-0.3840082 0.12945,-0.1865206 0.214459,-0.5319225 0.16211,-0.6563744 C 11.92451,8.2735786 11.48256,8.1762391 10.413059,8.0825496 10.009409,8.0471676 9.7332822,7.8653026 9.5204822,7.49547 9.1476792,6.6459421 10.467952,5.8378569 10.940404,5.4098926 10.188953,5.0056891 8.7922002,5.7147524 8.3447002,6.1288243 c -0.14335,0.1398021 -0.09953,0.1376588 -0.53418,0.025025 -0.029,-0.00754 -0.05904,-0.014176 -0.08984,-0.021173 -0.011,-0.00247 -0.02221,-0.00533 -0.03321,-0.0077 -0.02,-0.00439 -0.04102,-0.00842 -0.06152,-0.01251 -0.0145,-0.00296 -0.02894,-0.00585 -0.04394,-0.00866 -0.017,-0.00296 -0.03368,-0.00662 -0.05078,-0.00963 -0.018,-0.00296 -0.03561,-0.0057 -0.05371,-0.00866 -0.013,-0.00197 -0.02606,-0.00365 -0.03906,-0.00578 -0.115108,-0.017892 -0.235354,-0.033231 -0.356454,-0.044272 -0.13245,-0.012021 -0.265254,-0.020044 -0.393554,-0.023096 -0.0385,-0.00103 -0.07686,-0.00103 -0.114259,-0.00103 -0.04049,-8.34e-5 -0.07947,-5.23e-5 -0.118165,0.00103 -0.0075,1.922e-4 -0.01496,4.694e-4 -0.02246,9.354e-4 -0.03251,9.353e-4 -0.06455,0.00237 -0.0957,0.00385 -0.005,2.417e-4 -0.0087,4.69e-4 -0.0127,9.354e-4 -0.03449,0.00197 -0.06746,0.00463 -0.09961,0.0077 -0.005,2.515e-4 -0.0053,4.695e-4 -0.0078,9.85e-4 -0.033,0.00296 -0.06365,0.00741 -0.09375,0.011548 l -9.28e-4,0 c -0.01351,0.00197 -0.02801,0.00355 -0.04101,0.00578 -0.14325,-4.704e-4 -0.274619,0.03953 -0.386719,0.090467 -0.376222,-0.6260858 -0.467437,-1.7328531 -0.759787,-2.3598634 -0.683801,0.3531672 -1.152206,2.0888466 -1.268556,2.6803828 -0.04449,0.2352297 -0.09545,0.6920116 -0.0957,0.8536721 -4.6e-5,0.023269 -0.0059,0.032337 -0.0069,0.049082 -0.9879756,1.5280658 -1.5644256,3.3403434 -1.5644256,5.2865784 0,5.4429 4.4771526,9.855242 10.0000034,9.855242 5.522849,0 10.000003,-4.412342 10.000003,-9.855242 0,-3.4493338 -1.567363,-5.2215598 -3.119141,-7.6426248 0,-0.00142 1.17e-4,-0.00234 -0.0049,-0.00383 C 18.647212,4.66089 18.44929,4.2908475 18.288998,3.9239038 c -0.025,-0.080892 -0.05468,-0.147252 -0.06543,-0.147252 -0.0049,0 -0.0096,0.00319 -0.01562,0.00866 -0.201607,0.240219 -0.299099,1.1756861 -0.407199,1.4677055 C 17.020253,4.1875698 16.052648,3.1284588 15.542952,1.9480465 Z"
     id="path10-3-6"
     sodipodi:nodetypes="ccccccccscccscsccccccccccccccccccccccccccccccccccccccccccssscccscccc" />
  <path
     sodipodi:nodetypes="ccccccccscccccsccccccccccccccccccccccccccccccccccccccccccsssccscccc"
     inkscape:connector-curvature="0"
     style="opacity:0.7;fill:none;fill-opacity:1;stroke:#f37329;stroke-width:1;stroke-miterlimit:4;stroke-dasharray:none;stroke-opacity:1"
     d="m 15.482393,1.8117563 -0.08789,0.1384764 c -0.02051,0.025079 -0.04058,0.050561 -0.06152,0.076994 -0.4627,0.6048456 -0.725724,1.2880737 -1.002224,2.0220573 -0.1054,0.2816032 -0.217148,0.7062904 -0.279297,1.0596304 -0.0623,0.354312 -0.06776,1.1415535 -0.0098,1.4513373 0.1533,0.8206278 0.503954,1.5939049 1.018554,2.2482286 0.596501,0.6400929 1.244948,1.3456297 1.486598,1.8603687 0.332251,0.708213 0.472657,1.338659 0.472657,2.12215 0,0.236166 -0.01368,0.478928 -0.03418,0.623651 -0.503645,2.320896 -2.171209,4.145243 -4.511583,4.157681 -1.481515,0.0055 -3.4737718,-0.492762 -3.7423248,-2.000922 0.713613,0.107102 1.248606,0.06878 1.7583068,0.06522 0.47101,-0.0033 0.920426,-0.102992 1.469234,-0.38997 0.8177,-0.430289 1.222487,-0.509649 1.446237,-0.4841 0.3297,0.03765 0.37126,0.03689 0.44336,-0.0077 0.1529,-0.09455 0.196748,-0.132499 0.108398,-0.312373 -0.11155,-0.22709 -0.502905,-0.544215 -0.831055,-0.673698 -0.274851,-0.108462 -0.424556,-0.135505 -0.753907,-0.135702 -0.3354,-1.87e-4 -0.619856,0.01569 -1.224556,0.196336 -0.603652,0.180354 -0.93825,0.207447 -1.3105488,0.104904 -1.548403,-0.365236 -2.334617,-1.720399 -1.580916,-2.710737 0.4533,-0.02059 1.373999,0.279884 1.661001,0.473096 0.2745988,-0.265949 -0.321402,-0.675121 -0.417001,-1.049044 0,-0.466736 0.9649788,-0.7384369 1.3613298,-0.9143055 0.261101,-0.1154841 0.515681,-0.2340188 0.565432,-0.2627424 0.1081,-0.062452 0.316516,-0.2618275 0.401367,-0.3840074 0.12945,-0.18652 0.214459,-0.5319227 0.162109,-0.6563745 C 11.924508,8.2737983 11.482557,8.1764587 10.413055,8.08277 10.009406,8.047388 9.7332772,7.8655219 9.5204772,7.4956898 9.1476752,6.6461621 10.467949,5.8380767 10.940399,5.4101139 10.188949,5.0059101 8.7921962,5.7149732 8.3446952,6.1290457 c -0.14335,0.1398012 -0.09953,0.1376578 -0.534179,0.025025 -0.029,-0.00753 -0.05904,-0.014176 -0.08985,-0.021173 -0.011,-0.00247 -0.02221,-0.00534 -0.03321,-0.0077 -0.02,-0.00439 -0.04102,-0.00842 -0.06152,-0.012509 -0.0145,-0.00296 -0.02894,-0.00585 -0.04394,-0.00867 -0.017,-0.00296 -0.03368,-0.00662 -0.05078,-0.00963 -0.018,-0.00296 -0.03561,-0.0057 -0.05371,-0.00866 -0.013,-0.00197 -0.02606,-0.00365 -0.03906,-0.00578 -0.115104,-0.017884 -0.23535,-0.033224 -0.35645,-0.044269 -0.13245,-0.012021 -0.265254,-0.020044 -0.393554,-0.023096 -0.03849,-9.354e-4 -0.07686,-9.354e-4 -0.114258,-9.354e-4 -0.04049,-8.44e-5 -0.07947,-5.23e-5 -0.118165,9.354e-4 -0.0075,1.928e-4 -0.01496,4.694e-4 -0.02246,0.00103 -0.03251,9.354e-4 -0.06455,0.00237 -0.0957,0.00385 -0.0049,2.416e-4 -0.0087,4.689e-4 -0.01269,9.354e-4 -0.03449,0.00197 -0.06746,0.00463 -0.09961,0.0077 -0.005,2.515e-4 -0.0053,4.694e-4 -0.0078,0.00103 -0.033,0.00296 -0.06365,0.00741 -0.09375,0.011548 l -9.28e-4,0 c -0.01351,0.00197 -0.02801,0.00355 -0.04101,0.00578 -0.143255,-4.602e-4 -0.274624,0.039541 -0.386724,0.090478 -0.376204,-0.6261143 -0.467419,-1.7328811 -0.759769,-2.3598913 -0.6838,0.3531671 -1.152205,2.0888465 -1.268555,2.6803823 -0.04451,0.2352298 -0.09545,0.6920116 -0.0957,0.8536716 -4.6e-5,0.023269 -0.0059,0.032337 -0.0069,0.049082 -0.9879766,1.5280654 -1.5644266,3.3403444 -1.5644266,5.2865794 0,5.4429 4.4771536,9.855241 10.0000054,9.855241 5.522849,0 10.000001,-4.412341 10.000001,-9.855241 0,-3.4493351 -1.567363,-5.2215613 -3.11914,-7.6426257 -0.246723,-0.344123 -0.423242,-0.7518739 -0.591789,-1.0778983 -0.025,-0.080891 -0.05468,-0.1472518 -0.06543,-0.1472518 -0.005,0 -0.0096,0.00319 -0.01562,0.00867 -0.201664,0.2401937 -0.299155,1.1756607 -0.407256,1.467681 -0.780521,-1.0654478 -1.748125,-2.1245595 -2.25782,-3.3049717 z"
     id="path10-3-5" />
  <path
     style="opacity:0.5;fill:url(#linearGradient4296-5);fill-opacity:1;stroke:none"
     d="m 15.417964,2.8066465 c -0.262425,0.442754 -0.408225,0.8580803 -0.61914,1.4179687 -0.08822,0.235702 -0.197627,0.6507542 -0.253907,0.9707032 -0.04129,0.2348059 -0.04048,1.1197494 -0.01172,1.2734374 0.138104,0.739283 0.453349,1.4356837 0.916016,2.0253907 l 0.0039,0.00391 c 0.590768,0.6330515 1.238579,1.3003275 1.546875,1.9570315 l 0,0.002 c 0.357713,0.762471 0.519532,1.490757 0.519532,2.333984 0,0.255474 -0.01228,0.502359 -0.03906,0.69336 l -0.002,0.01758 -0.0039,0.01758 c -0.540599,2.491353 -2.399109,4.538924 -4.998047,4.552734 -0.797641,0.003 -1.719067,-0.122354 -2.5273438,-0.474609 -0.808279,-0.352255 -1.538963,-0.984636 -1.708984,-1.939453 l -0.123047,-0.685547 0.689453,0.103516 c 0.660028,0.09906 1.147369,0.06425 1.6796878,0.06055 0.401965,-0.0028 0.75002,-0.07608 1.240234,-0.332032 0.700821,-0.368447 1.064146,-0.424843 1.425781,-0.443359 -0.07424,-0.04695 -0.153214,-0.104947 -0.208984,-0.126953 -0.243582,-0.09612 -0.268242,-0.101383 -0.570313,-0.101563 -0.319464,-1.78e-4 -0.510837,0.0052 -1.082031,0.175782 -0.634348,0.189522 -1.109508,0.232819 -1.5742188,0.107421 -0.886562,-0.211062 -1.587934,-0.704163 -1.964844,-1.351562 -0.378022,-0.64931 -0.386733,-1.495228 0.107422,-2.144531 l 0.140625,-0.185547 0.234375,-0.0098 c 0.277414,-0.0126 0.555738,0.0646 0.833985,0.138672 -0.01585,-0.04288 -0.040295,-0.04314 -0.052735,-0.0918 l -0.015625,-0.06055 0,-0.06445 c 0,-0.288976 0.153441,-0.523176 0.308594,-0.673828 C 9.4637002,9.82203 9.6342722,9.721649 9.8046382,9.634792 10.145371,9.461078 10.51023,9.341054 10.658153,9.275417 l 0.002,0 c 0.127652,-0.05646 0.254505,-0.114118 0.353515,-0.160156 0.09901,-0.04604 0.201083,-0.0995 0.164063,-0.07813 -0.04998,0.02888 0.228824,-0.2199011 0.240234,-0.2363281 0.0051,-0.0073 0.02026,-0.052521 0.0332,-0.082031 C 11.240638,8.6735058 10.885566,8.625326 10.369136,8.580084 9.8367762,8.533424 9.3585972,8.2146235 9.0878862,7.7441465 L 9.0742142,7.720709 9.0624952,7.6953183 C 8.9139002,7.3567834 8.9380112,6.983743 9.0527302,6.689459 c 0.09898,-0.253829 0.263276,-0.4499168 0.429687,-0.6367188 -0.33329,0.15414 -0.68829,0.3428854 -0.796875,0.4433594 l 0.00781,-0.00977 c -0.02718,0.02651 -0.049,0.058299 -0.125,0.1171875 -0.076,0.05889 -0.23665,0.1252193 -0.357422,0.1308593 -0.241544,0.01127 -0.312762,-0.042556 -0.525391,-0.097656 -0.01697,-0.0044 -0.041638,-0.010178 -0.074218,-0.017578 l 0,0.00195 c -0.02094,-0.0047 -0.029544,-0.00831 -0.027344,-0.00781 l -0.00195,0 -0.00195,0 c -0.01093,-0.0024 -0.027782,-0.00517 -0.050782,-0.00977 l -0.00195,-0.00195 c -0.01325,-0.0027 -0.025809,-0.00366 -0.037109,-0.00586 -0.02157,-0.0039 -0.033863,-0.00681 -0.039063,-0.00781 -0.01355,-0.0022 -0.031118,-0.00491 -0.048828,-0.00781 -0.0056,-8.4e-4 -0.020592,-0.00381 -0.044922,-0.00781 l 0.00391,0.00195 C 7.2555592,6.5577946 7.1463172,6.543169 7.0371052,6.533209 6.9146742,6.522099 6.7934042,6.5144746 6.6777302,6.5117246 l -0.00195,0 c -0.03042,-7.39e-4 -0.064161,0 -0.101563,0 -0.03883,-8.1e-5 -0.073529,-7.36e-4 -0.103516,0 l -0.011718,0 -0.00977,0.00195 c -0.02424,6.9e-4 -0.051535,6.662e-4 -0.078125,0.00195 l -0.00195,0 c -0.0027,1.25e-4 -0.00511,-1.27e-4 -0.00781,0 l -0.00781,0.00195 c -0.01976,0.0011 -0.038954,0.00221 -0.058594,0.00391 -0.0072,6.2e-4 -0.014184,0.00135 -0.021484,0.00195 l -0.011719,0.00195 c -0.01589,0.0015 -0.036609,0.00351 -0.068359,0.00781 l -0.011719,0.00195 c -0.0051,6.7e-4 -0.018272,0.00265 -0.013672,0.00195 l -0.011719,0.00195 -0.03125,0.00586 -0.044921,0 c -0.0492,-1.58e-4 -0.109824,0.014062 -0.177735,0.044922 L 5.4960892,6.7734434 5.2675742,6.392584 C 5.0216722,5.983332 4.9070141,5.5149616 4.7988242,5.0742246 4.7811732,5.0023146 4.7653622,4.9664672 4.7480422,4.8964902 c -0.07661,0.136165 -0.129789,0.150889 -0.193359,0.3125 -0.201029,0.5111 -0.344784,1.0774108 -0.396485,1.3398438 l 0,0.00195 c -0.035479,0.188702 -0.085847,0.6998785 -0.085937,0.7578125 l 0,0.00195 c -2e-4,0.106872 -0.013122,0.1646179 -0.00781,0.076172 L 4.0566412,7.519531 3.9843752,7.628906 C 3.0461192,9.08007 2.5000002,10.797025 2.5000002,12.644531 2.5000002,17.813243 6.7434572,22 12,22 c 5.25654,0 9.5,-4.186757 9.5,-9.355469 0,-3.267308 -1.442208,-4.8919729 -3,-7.3105469 l -0.03711,-0.054687 c -0.0063,-0.0092 -0.0094,-0.020007 -0.01563,-0.029297 l -0.06641,-0.1015624 0,-0.019531 c -0.0112,-0.01784 -0.02,-0.036707 -0.03125,-0.054687 -0.02486,0.116316 -0.03855,0.2393775 -0.08008,0.3515625 l -0.322266,0.8730469 -0.548828,-0.75 C 16.780992,4.705985 15.98643,3.7996405 15.417964,2.8066465 Z m 0.259766,2.046875 c 0.31334,0.4461042 0.626468,0.9531238 0.914062,1.3457031 l 1.648438,2.2519531 0.371094,-1.0078125 c 1.05571,1.5961788 1.888671,2.9877578 1.888671,5.2597658 0,4.621384 -3.77445,8.355469 -8.5,8.355469 -4.7255528,0 -8.4999998,-3.734084 -8.4999998,-8.355469 0,-1.650441 0.485169,-3.17493 1.324219,-4.4726564 0.250256,-0.2523294 0.813729,-0.542514 1.390625,-0.6269531 l 0.00195,0 0.087891,-0.017578 0.00586,0 c 0.01509,-0.00198 0.00896,-0.00237 0.00586,-0.00195 l 0.00195,0 0.00977,-0.00195 0.00391,0 c 0.008,-0.00109 0.0094,-8.307e-4 0.021484,-0.00195 l 0.013672,-0.00195 c 0.0055,-5.217e-4 0.010042,-0.00164 0.013672,-0.00195 3.6e-5,-3.1e-6 0.00651,8.98e-5 0.00781,0 l 0.00586,-0.00195 0.00195,0 c 0.0048,-3.042e-4 0.0042,5.405e-4 0.013672,0 l 0.03125,-0.00195 c 0.0093,-1.478e-4 0.0091,7.429e-4 0.035156,0 l 0.080078,-0.00195 c 0.0082,2.09e-5 0.00589,-2.03e-5 0.015625,0 l 0.00195,0 c 0.05058,0 0.079892,9.05e-5 0.076172,0 l 0.011719,0 c 0.08619,0.00229 0.182428,0.00843 0.283203,0.017578 0.08112,0.0074 0.17025,0.018991 0.261719,0.033203 l 0,-0.00195 c -0.0018,-2.39e-5 0.0085,0.00166 0.035156,0.00586 0.0089,0.0014 -0.0062,-7.414e-4 0.011719,0.00195 l 0.00586,0.00195 c 0.01138,0.00181 0.026207,0.0034 0.029297,0.00391 l 0.023437,0.00586 c 0.01507,0.00267 0.051312,0.00965 0.013672,0.00195 l 0.00586,0.00195 c 0.03671,0.00733 0.06231,0.012724 0.03125,0.00586 l 0.00195,0 0.00977,0.00195 c 0.0057,0.00136 0.011679,0.00454 0.017579,0.00586 l 0.046874,0.00977 c 0.6255441,0.1121729 0.548683,0.3601488 0.7070321,0.4902343 l 0.00391,0.00781 0.035156,0.078125 0.035156,0.058594 c 0.181005,0.3145716 0.4468721,0.5606283 0.730469,0.7773442 -0.11732,0.07935 -0.220646,0.120589 -0.339843,0.236328 -0.104811,0.101769 -0.124346,0.352491 -0.220704,0.501953 -0.08051,-0.0041 -0.115036,-0.03525 -0.203125,-0.03125 l 0.00391,-0.002 -0.7050781,0.03125 -0.423829,0.560547 c -0.597129,1.205118 -0.407151,2.908167 0.021485,3.892578 l 0.171875,1.625 c 0.24335,1.366628 1.285201,2.240494 2.292969,2.679688 0.9838138,0.428756 2.0264058,0.561953 2.9316398,0.558594 3.121615,-0.01659 5.353427,-2.495314 5.970703,-5.339845 l 0.01367,-0.06445 0.0059,-0.04492 c 0.0011,-0.0082 8.13e-4,-0.01722 0.002,-0.02539 0.03472,-0.259234 0.04687,-0.527905 0.04687,-0.806641 0,-0.821829 -0.225161,-1.581741 -0.519532,-2.333984 l 0,-0.22461 -0.0957,-0.203125 C 17.490286,9.206017 16.807576,8.543352 16.236324,7.9355527 15.873491,7.473094 15.624098,6.9244471 15.51562,6.3437558 c 0.02457,0.1312934 0.0029,0.011303 0,-0.080078 -0.0029,-0.091381 -0.0045,-0.2137463 -0.0039,-0.3378906 0.0013,-0.2482885 0.03424,-0.5927905 0.01758,-0.4980469 0.03145,-0.1788052 0.09485,-0.3910172 0.14843,-0.5742188 z"
     id="path10-3-6-5-9"
     inkscape:connector-curvature="0"
     sodipodi:nodetypes="ccccccccsccccsccccccccccsccccccsssccccccccccccccscccccccccccccccccccccccccccccccccccccccccccccccsssccccccccccccccsssccccccccccccccccccccsccccccccccccccccccccccscccccccscccccscccccsccc" />
  <path
     id="path10-3-6-7"
     style="opacity:0.5;fill:#000000;fill-opacity:1"
     d="m 14.291016,15.050782 c -0.06827,0.06171 -0.133236,0.100182 -0.179688,0.128906 -0.07152,0.04424 -0.258697,0.107275 -0.378906,0.109375 -0.120209,0.0021 -0.217186,-0.01211 -0.384766,-0.03125 -0.04027,-0.0046 -0.376307,0.02122 -1.15625,0.431641 -0.605999,0.316884 -1.157937,0.443466 -1.697265,0.447266 -0.180657,0.0013 -0.7281245,0.0022 -0.9394535,0.0039 0.187381,0.183731 0.4950265,0.409216 0.7929685,0.539062 0.332404,0.144865 0.717787,0.242786 1.109375,0.306641 0.237957,-0.07092 0.480488,-0.164115 0.734375,-0.296875 0.779943,-0.41042 1.115985,-0.436238 1.15625,-0.431641 0.16758,0.01914 0.264557,0.03335 0.384766,0.03125 0.120209,-0.0021 0.307385,-0.06514 0.378906,-0.109375 0.08372,-0.05177 0.232026,-0.101517 0.339844,-0.349609 0.107818,-0.248092 0.01982,-0.47757 -0.04492,-0.609375 -0.0328,-0.06677 -0.07562,-0.115003 -0.115236,-0.169926 z M 8.5273434,11.740233 c -0.09414,0.250886 -0.078832,0.570799 0.087887,0.820314 0.05148,0.08843 0.119484,0.176495 0.199219,0.261718 0.05879,0.0084 0.114298,0.01205 0.191406,0.03516 0.292793,0.08773 0.595173,0.228567 0.632813,0.253907 l 0.335937,0.226563 0.2910166,-0.283204 c 0.179604,-0.173947 0.249317,-0.492364 0.203125,-0.69336 -0.03688,-0.160493 -0.100994,-0.265397 -0.164062,-0.359375 -0.01388,0.01702 -0.02354,0.0377 -0.03906,0.05273 L 9.974609,12.33789 9.638672,12.111327 C 9.601032,12.085987 9.298652,11.945151 9.005859,11.857421 8.860294,11.813801 8.6592784,11.763799 8.5273434,11.740233 Z M 12.373047,9.1269535 c -0.03518,0.08224 -0.07845,0.162995 -0.134766,0.244141 -0.177823,0.2201185 -0.309923,0.3696525 -0.560547,0.53125 l -0.002,0 c -0.08678,0.0501 -0.136197,0.06986 -0.242187,0.1191395 -0.10599,0.04928 -0.235693,0.108949 -0.369141,0.167969 -0.248427,0.110232 -0.563843,0.21315 -0.804687,0.335938 -0.09009,0.04593 -0.160425,0.08405 -0.208986,0.121094 0.04599,0.06889 0.102373,0.130586 0.207032,0.281249 0.0763,0.109828 0.164748,0.232598 0.210938,0.433594 0.005,0.02197 -0.0062,0.05369 -0.0039,0.07813 0.200905,-0.08525 0.41453,-0.167877 0.599609,-0.25 0.133448,-0.05902 0.263151,-0.118687 0.369141,-0.167969 0.10599,-0.04928 0.15541,-0.06904 0.242187,-0.11914 l 0.002,0 c 0.266199,-0.153785 0.402255,-0.303319 0.560547,-0.53125 0.117923,-0.169911 0.181213,-0.341656 0.22461,-0.5175785 0.0434,-0.175921 0.116065,-0.313409 -0.01172,-0.617187 -0.02003,-0.0477 -0.05203,-0.07254 -0.07813,-0.10938 z m 1.15625,-2.7688605 c -0.04068,0.43016 -0.04718,0.916286 0.02148,1.283203 0.168162,0.900183 0.552485,1.746814 1.117188,2.464842 l 0.01172,0.01563 0.01562,0.01563 c 0.594785,0.63825 1.228321,1.370056 1.398438,1.732422 0.228489,0.487037 0.351815,0.907205 0.400391,1.388673 0.01215,-0.113351 0.02539,-0.290775 0.02539,-0.478517 0,-0.723755 -0.118985,-1.256203 -0.425781,-1.910156 C 15.923626,10.507454 15.29009,9.775649 14.695305,9.137399 l -0.01562,-0.01563 -0.01172,-0.01563 C 14.103262,8.38811 13.718939,7.541479 13.550777,6.641296 c -0.0152,-0.0812 -0.01215,-0.190658 -0.02148,-0.283203 z M 11.085938,5.9355475 c -0.267424,0.221539 -0.572994,0.454328 -0.808594,0.703125 -0.145279,0.153415 -0.250259,0.304527 -0.292969,0.414062 -0.03725,0.09541 -0.037812,0.159033 -0.013712,0.226563 0.117762,0.197399 0.216267,0.2583238 0.392578,0.2910158 0.28304,-0.276089 0.646475,-0.5503948 0.912109,-0.7910158 l 0.52539,-0.47461 -0.623047,-0.335937 c -0.03008,-0.01618 -0.06143,-0.01933 -0.0918,-0.0332 z" />
</svg>
