<?xml version="1.0" encoding="UTF-8" standalone="no"?>
<svg
   xmlns:osb="http://www.openswatchbook.org/uri/2009/osb"
   xmlns:dc="http://purl.org/dc/elements/1.1/"
   xmlns:cc="http://creativecommons.org/ns#"
   xmlns:rdf="http://www.w3.org/1999/02/22-rdf-syntax-ns#"
   xmlns:svg="http://www.w3.org/2000/svg"
   xmlns="http://www.w3.org/2000/svg"
   xmlns:xlink="http://www.w3.org/1999/xlink"
   xmlns:sodipodi="http://sodipodi.sourceforge.net/DTD/sodipodi-0.dtd"
   xmlns:inkscape="http://www.inkscape.org/namespaces/inkscape"
   id="svg4031"
   height="32"
   width="32"
   version="1.1"
   inkscape:version="0.91 r13725"
   sodipodi:docname="firefox_32.svg">
  <sodipodi:namedview
     pagecolor="#ffffff"
     bordercolor="#666666"
     borderopacity="1"
     objecttolerance="10"
     gridtolerance="10"
     guidetolerance="10"
     inkscape:pageopacity="0"
     inkscape:pageshadow="2"
     inkscape:window-width="1366"
     inkscape:window-height="705"
     id="namedview37"
     showgrid="false"
     inkscape:zoom="4"
     inkscape:cx="21.802128"
     inkscape:cy="18.19644"
     inkscape:window-x="0"
     inkscape:window-y="30"
     inkscape:window-maximized="1"
     inkscape:current-layer="svg4031" />
  <defs
     id="defs4033">
    <linearGradient
       id="linearGradient4326">
      <stop
         offset="0"
         style="stop-color:#ffffff;stop-opacity:1"
         id="stop4328" />
      <stop
         offset="0.45722568"
         style="stop-color:#ffffff;stop-opacity:0.23529412"
         id="stop4330" />
      <stop
         offset="0.83318615"
         style="stop-color:#ffffff;stop-opacity:0.15686275"
         id="stop4332" />
      <stop
         offset="1"
         style="stop-color:#ffffff;stop-opacity:0.39215687"
         id="stop4334" />
    </linearGradient>
    <linearGradient
       id="linearGradient4226">
      <stop
         offset="0"
         style="stop-color:#ffffff;stop-opacity:1"
         id="stop4228" />
      <stop
         offset="0.43782076"
         style="stop-color:#ffffff;stop-opacity:0.23529412"
         id="stop4230" />
      <stop
         offset="0.84462607"
         style="stop-color:#ffffff;stop-opacity:0.15686275"
         id="stop4232" />
      <stop
         offset="1"
         style="stop-color:#ffffff;stop-opacity:0.39215687"
         id="stop4234" />
    </linearGradient>
    <linearGradient
       inkscape:collect="always"
       id="linearGradient4268">
      <stop
         style="stop-color:#ff780a;stop-opacity:1"
         offset="0"
         id="stop4270" />
      <stop
         style="stop-color:#ffbe3c;stop-opacity:1"
         offset="1"
         id="stop4272" />
    </linearGradient>
    <linearGradient
       id="linearGradient4250">
      <stop
         id="stop4252"
         offset="0"
         style="stop-color:#0d52bf;stop-opacity:1" />
      <stop
         id="stop4258"
         offset="1"
         style="stop-color:#64baff;stop-opacity:1" />
    </linearGradient>
    <linearGradient
       id="linearGradient2867-449-88-871-390-598-476-591-434-148-57-177-3-8">
      <stop
         offset="0"
         style="stop-color:#90dbec;stop-opacity:1"
         id="stop3750-8-9" />
      <stop
         offset="0.26238"
         style="stop-color:#42baea;stop-opacity:1"
         id="stop3752-3-2" />
      <stop
         offset="0.704952"
         style="stop-color:#3689e6;stop-opacity:1"
         id="stop3754-7-2" />
      <stop
         offset="1"
         style="stop-color:#2b63a0;stop-opacity:1"
         id="stop3756-9-3" />
    </linearGradient>
    <linearGradient
       id="linearGradient3820-7-2-1">
      <stop
         offset="0"
         style="stop-color:#3d3d3d;stop-opacity:1"
         id="stop3822-2-6-3" />
      <stop
         offset="0.5"
         style="stop-color:#686868;stop-opacity:0.49803922"
         id="stop3864-8-7-7" />
      <stop
         offset="1"
         style="stop-color:#686868;stop-opacity:0"
         id="stop3824-1-2-5" />
    </linearGradient>
    <radialGradient
       gradientTransform="matrix(0,2.4988347,-2.6434689,-6.8014435e-8,46.336814,-12.180468)"
       gradientUnits="userSpaceOnUse"
       xlink:href="#linearGradient2867-449-88-871-390-598-476-591-434-148-57-177-3-8"
       id="radialGradient3015"
       fy="8.4497671"
       fx="3.9722471"
       r="19.99999"
       cy="8.4497671"
       cx="3.9722471" />
    <radialGradient
       gradientTransform="matrix(0.27083381,0,0,0.08762273,-2.855072,25.187228)"
       gradientUnits="userSpaceOnUse"
       xlink:href="#linearGradient3820-7-2-1"
       id="radialGradient3018"
       fy="186.17059"
       fx="99.157013"
       r="62.769119"
       cy="186.17059"
       cx="99.157013" />
    <linearGradient
       gradientTransform="matrix(1.6169806,0,0,1.6169806,-92.70737,-21.060237)"
       gradientUnits="userSpaceOnUse"
       xlink:href="#linearGradient4806-2"
       id="linearGradient4338-5-6"
       y2="40.495617"
       x2="71.204407"
       y1="15.369057"
       x1="71.204407" />
    <linearGradient
       id="linearGradient4806-2">
      <stop
         offset="0"
         style="stop-color:#ffffff;stop-opacity:1"
         id="stop4808-4" />
      <stop
         offset="0.42447853"
         style="stop-color:#ffffff;stop-opacity:0.23529412"
         id="stop4810-0" />
      <stop
         offset="0.82089913"
         style="stop-color:#ffffff;stop-opacity:0.15686275"
         id="stop4812-8" />
      <stop
         offset="1"
         style="stop-color:#ffffff;stop-opacity:0.39215687"
         id="stop4814-0" />
    </linearGradient>
    <radialGradient
       gradientTransform="matrix(0,3.9153034,-3.0928272,-4.4454166e-8,49.977542,-1.450216)"
       gradientUnits="userSpaceOnUse"
       xlink:href="#linearGradient4223"
       id="radialGradient3126-7-25-24"
       fy="8.449769"
       fx="0.66680855"
       r="19.99999"
       cy="8.449769"
       cx="-1.2645766" />
    <linearGradient
       id="linearGradient4526"
       osb:paint="solid">
      <stop
         style="stop-color:#ffffff;stop-opacity:1;"
         offset="0"
         id="stop4528" />
    </linearGradient>
    <linearGradient
       id="linearGradient4223">
      <stop
         offset="0"
         style="stop-color:#cdf87e;stop-opacity:1"
         id="stop4225" />
      <stop
         offset="0.26238"
         style="stop-color:#a2e34f;stop-opacity:1"
         id="stop4227" />
      <stop
         offset="0.66093999"
         style="stop-color:#68b723;stop-opacity:1"
         id="stop4229" />
      <stop
         offset="1"
         style="stop-color:#1d7e0d;stop-opacity:1"
         id="stop4231" />
    </linearGradient>
    <linearGradient
       id="linearGradient4029-0">
      <stop
         style="stop-color:#87accd;stop-opacity:1;"
         offset="0"
         id="stop4031-7" />
      <stop
         id="stop4062-3-8"
         offset="0.28728491"
         style="stop-color:#6b96c1;stop-opacity:1;" />
      <stop
         id="stop4060-0-2"
         offset="0.59072286"
         style="stop-color:#477ba9;stop-opacity:1;" />
      <stop
         style="stop-color:#325978;stop-opacity:1;"
         offset="1"
         id="stop4033-0" />
    </linearGradient>
    <linearGradient
       id="linearGradient4037-1">
      <stop
         style="stop-color:#e67263;stop-opacity:1;"
         offset="0"
         id="stop4039-4" />
      <stop
         style="stop-color:#dc252a;stop-opacity:1;"
         offset="1"
         id="stop4041-6" />
    </linearGradient>
    <linearGradient
       id="linearGradient4064-1">
      <stop
         style="stop-color:#f0d550;stop-opacity:1;"
         offset="0"
         id="stop4066-2" />
      <stop
         style="stop-color:#dca023;stop-opacity:1;"
         offset="1"
         id="stop4068-8" />
    </linearGradient>
    <linearGradient
       id="linearGradient4072-7">
      <stop
         style="stop-color:#50b54c;stop-opacity:1;"
         offset="0"
         id="stop4074-1" />
      <stop
         style="stop-color:#32783b;stop-opacity:1;"
         offset="1"
         id="stop4076-0" />
    </linearGradient>
    <linearGradient
       inkscape:collect="always"
       xlink:href="#linearGradient4250"
       id="linearGradient4248"
       x1="-36.789829"
       y1="23.871187"
       x2="2.01017"
       y2="23.871187"
       gradientUnits="userSpaceOnUse"
       gradientTransform="matrix(0.68722811,0,0,0.69157848,-4.4779801,-0.37976894)" />
    <linearGradient
       id="c"
       y2="40.495998"
       gradientUnits="userSpaceOnUse"
       x2="71.204002"
       gradientTransform="matrix(1.4614589,0,0,1.4614589,-129.26231,-15.45283)"
       y1="15.369"
       x1="71.204002">
      <stop
         stop-color="#fff"
         offset="0"
         id="stop7" />
      <stop
         stop-color="#fff"
         stop-opacity=".23529"
         offset=".42448"
         id="stop9" />
      <stop
         stop-color="#fff"
         stop-opacity=".15686"
         offset=".82090"
         id="stop11" />
      <stop
         stop-color="#fff"
         stop-opacity=".39216"
         offset="1"
         id="stop13" />
    </linearGradient>
    <linearGradient
       inkscape:collect="always"
       xlink:href="#linearGradient3767"
       id="linearGradient3814"
       x1="26.386984"
       y1="3.548188"
       x2="26.386984"
       y2="60.501682"
       gradientUnits="userSpaceOnUse"
       gradientTransform="matrix(0.44344646,0,0,0.44065455,1.7621975,2.3217018)" />
    <linearGradient
       id="linearGradient3767">
      <stop
         style="stop-color:#ffffff;stop-opacity:1;"
         offset="0"
         id="stop3769" />
      <stop
         id="stop3777"
         offset="0.08994294"
         style="stop-color:#ffffff;stop-opacity:0.23529412;" />
      <stop
         id="stop3775"
         offset="0.87385589"
         style="stop-color:#ffffff;stop-opacity:0.15686275;" />
      <stop
         style="stop-color:#ffffff;stop-opacity:0.39215687;"
         offset="1"
         id="stop3771" />
    </linearGradient>
    <radialGradient
       gradientUnits="userSpaceOnUse"
       gradientTransform="matrix(1,0,0,0.32352941,-1.9644775e-7,-296.86717)"
       r="17"
       fy="1045.8622"
       fx="24"
       cy="1045.8622"
       cx="24"
       id="radialGradient4329"
       xlink:href="#linearGradient4323" />
    <linearGradient
       id="linearGradient4323">
      <stop
         id="stop4325"
         offset="0"
         style="stop-color:#000000;stop-opacity:1;" />
      <stop
         id="stop4327"
         offset="1"
         style="stop-color:#000000;stop-opacity:0;" />
    </linearGradient>
    <linearGradient
       inkscape:collect="always"
       xlink:href="#linearGradient4268"
       id="linearGradient4274-2-0"
       x1="-32.915249"
       y1="35.796612"
       x2="-0.23728631"
       y2="15.355933"
       gradientUnits="userSpaceOnUse"
       gradientTransform="matrix(0.70000031,0,0,0.69537264,28.17282,0.41002489)" />
    <linearGradient
       x1="23.99999"
       y1="4.999989"
       x2="23.99999"
       y2="43"
       id="linearGradient3058"
       xlink:href="#linearGradient3924-1"
       gradientUnits="userSpaceOnUse"
       gradientTransform="translate(-1.2203471,7.5254347)" />
    <linearGradient
       id="linearGradient3924-1">
      <stop
         id="stop3926-3"
         style="stop-color:#ffffff;stop-opacity:1"
         offset="0" />
      <stop
         id="stop3928-91"
         style="stop-color:#ffffff;stop-opacity:0.23529412"
         offset="0.06316455" />
      <stop
         id="stop3930-6"
         style="stop-color:#ffffff;stop-opacity:0.15686275"
         offset="0.95056331" />
      <stop
         id="stop3932-6"
         style="stop-color:#ffffff;stop-opacity:0.39215687"
         offset="1" />
    </linearGradient>
    <radialGradient
       cx="99.157013"
       cy="186.17059"
       r="62.769119"
       fx="99.157013"
       fy="186.17059"
       id="radialGradient3043"
       xlink:href="#linearGradient3820-7-2-1"
       gradientUnits="userSpaceOnUse"
       gradientTransform="matrix(0.17524541,0,0,0.05575992,-1.3768114,18.119146)" />
    <linearGradient
       inkscape:collect="always"
       xlink:href="#linearGradient4326"
       id="linearGradient4274-2-0-3-5"
       x1="-17.197968"
       y1="2.7050979"
       x2="-16.776388"
       y2="42.346199"
       gradientUnits="userSpaceOnUse"
       gradientTransform="matrix(0.70000031,0,0,0.69537264,28.173298,0.411356)" />
    <radialGradient
       cx="99.157013"
       cy="186.17059"
       r="62.769119"
       fx="99.157013"
       fy="186.17059"
       id="radialGradient3043-3"
       xlink:href="#linearGradient3820-7-2-1"
       gradientUnits="userSpaceOnUse"
       gradientTransform="matrix(0.17524541,0,0,0.05575992,-30.626811,71.247899)" />
  </defs>
  <metadata
     id="metadata4036">
    <rdf:RDF>
      <cc:Work
         rdf:about="">
        <dc:format>image/svg+xml</dc:format>
        <dc:type
           rdf:resource="http://purl.org/dc/dcmitype/StillImage" />
        <dc:title />
      </cc:Work>
    </rdf:RDF>
  </metadata>
  <path
     inkscape:connector-curvature="0"
     d="m 27,28.5 a 11,3.4999999 0 0 1 -22,0 11,3.4999999 0 1 1 22,0 z"
     id="path3818-0-2"
     style="fill:url(#radialGradient3043);fill-opacity:1;stroke:none" />
  <g
     id="g4240"
     transform="matrix(0.96448067,0,0,0.96447258,0.44386419,0.93907035)">
    <rect
       transform="matrix(0,-1,1,0,0,0)"
       style="fill:url(#linearGradient4248);fill-opacity:1;stroke-width:2.79999995;stroke-opacity:0.55"
       id="rect4"
       rx="13.332225"
       y="2.7124038"
       x="-29.76099"
       height="26.833248"
       width="26.66445" />
    <rect
       transform="matrix(0,-1,1,0,0,0)"
       style="opacity:0.7;fill:none;fill-opacity:1;stroke:#0d52bf;stroke-width:1.03683162;stroke-miterlimit:4;stroke-dasharray:none;stroke-opacity:1"
       id="rect4-5"
       rx="13.32338"
       y="2.7213066"
       x="-29.752142"
       height="26.815443"
       width="26.646761" />
    <ellipse
       ry="12.338327"
       rx="12.4165"
       cy="16.422672"
       cx="16"
       style="opacity:0.5;fill:none;fill-opacity:1;stroke:url(#linearGradient3814);stroke-width:1.03683162;stroke-miterlimit:4;stroke-dasharray:none;stroke-opacity:1"
       id="path3804" />
  </g>
  <path
     inkscape:connector-curvature="0"
     style="fill:url(#linearGradient4274-2-0);fill-opacity:1"
     d="m 20.874882,1.2829245 -0.122604,0.2174869 c -0.0287,0.035397 -0.05681,0.071353 -0.08613,0.1086523 -0.64778,0.8535416 -1.016013,1.8176943 -1.403112,2.8534725 -0.14756,0.3973917 -0.304007,0.9966989 -0.391016,1.4953225 -0.08722,0.4999957 -0.09487,1.61093 -0.01367,2.0480899 0.21462,1.1580466 0.705536,2.2492744 1.425976,3.1726394 0.8351,0.90328 1.742928,1.898915 2.081237,2.625302 0.465151,0.99941 0.66172,1.889077 0.66172,2.99472 0,0.33327 -0.01915,0.67585 -0.04785,0.880081 -0.705104,3.275184 -3.039693,5.849652 -6.316217,5.867205 -2.074121,0.0077 -4.86328,-0.695371 -5.239255,-2.823645 0.999058,0.151139 1.748048,0.09706 2.461631,0.09203 0.659414,-0.0047 1.288594,-0.145341 2.056925,-0.550316 1.144781,-0.607213 1.711482,-0.719204 2.024733,-0.683149 0.46158,0.05313 0.519763,0.05206 0.620703,-0.01087 0.214061,-0.133429 0.275448,-0.186979 0.151758,-0.440811 -0.15617,-0.320463 -0.704068,-0.767981 -1.163478,-0.950705 -0.384791,-0.153058 -0.594378,-0.191222 -1.055469,-0.191499 -0.46956,-2.64e-4 -0.867798,0.02214 -1.714379,0.277063 -0.845111,0.254513 -1.313548,0.292745 -1.834768,0.148038 -2.167764,-0.51541 -3.2684632,-2.42778 -2.213282,-3.825318 0.63462,-0.02906 1.923598,0.394964 2.325401,0.667619 0.38444,-0.375299 -0.449963,-0.952712 -0.583801,-1.480382 0,-0.658646 1.350972,-1.042061 1.905863,-1.290242 0.36554,-0.162967 0.721952,-0.330241 0.791603,-0.370774 0.151342,-0.08813 0.443125,-0.369485 0.561914,-0.541902 0.18123,-0.263213 0.300243,-0.750635 0.226954,-0.926258 -0.09198,-0.220718 -0.710709,-0.358081 -2.208009,-0.490293 -0.56511,-0.04993 -0.951689,-0.3065732 -1.249609,-0.828471 -0.521924,-1.1988308 1.326459,-2.3391792 1.987891,-2.9431109 -1.052031,-0.5704009 -3.007486,0.43021 -3.633986,1.0145372 -0.20069,0.1972851 -0.139341,0.1942604 -0.747852,0.035314 -0.0406,-0.010639 -0.08266,-0.020005 -0.125782,-0.029879 -0.0154,-0.00348 -0.03109,-0.00752 -0.04649,-0.010869 -0.028,-0.00619 -0.05743,-0.011878 -0.08613,-0.017653 -0.0203,-0.00418 -0.04052,-0.00826 -0.06152,-0.012226 -0.0238,-0.00418 -0.04715,-0.00934 -0.07109,-0.013583 -0.0252,-0.00418 -0.049854,-0.00805 -0.075196,-0.012226 -0.0182,-0.00278 -0.036491,-0.00515 -0.054691,-0.00816 C 9.4526557,7.3029174 9.2843113,7.28127 9.1147712,7.2656903 8.9293411,7.2487259 8.7434154,7.2374047 8.5637953,7.2330975 c -0.0539,-0.00146 -0.1076019,-0.00146 -0.1599619,-0.00146 -0.056693,-1.176e-4 -0.1112511,-7.37e-5 -0.1654311,0.00146 -0.010493,2.713e-4 -0.020944,6.624e-4 -0.031444,0.00132 -0.045507,0.00132 -0.090374,0.00334 -0.1339836,0.00543 -0.00704,3.41e-4 -0.01218,6.618e-4 -0.01778,0.00132 -0.048293,0.00278 -0.094443,0.00654 -0.1394533,0.010869 -0.00704,3.549e-4 -0.00743,6.625e-4 -0.010941,0.00139 -0.0462,0.00418 -0.089109,0.010458 -0.1312508,0.016296 l -0.00133,0 c -0.018907,0.00278 -0.039221,0.00501 -0.057421,0.00816 C 7.5142485,7.2772188 7.3303318,7.3336662 7.1733917,7.4055479 6.6466877,6.5220284 6.5189866,4.9601877 6.1096965,4.0753677 5.1523753,4.5737484 4.4966087,7.0230922 4.3337187,7.8578524 4.2714256,8.1898023 4.2000844,8.8344006 4.1997344,9.0625316 c -6.37e-5,0.032836 -0.00831,0.045633 -0.00957,0.069263 C 2.8069981,11.28816 1.999967,13.845597 1.999967,16.592072 c 0,7.680875 6.2680156,13.907453 14.000007,13.907453 7.731989,0 14.000004,-6.226578 14.000004,-13.907453 0,-4.867607 -2.194308,-7.3685248 -4.366797,-10.7850674 0,-0.00202 1.63e-4,-0.00334 -0.0068,-0.00543 -0.32023,-0.4756729 -0.597321,-0.9978664 -0.82173,-1.5156881 -0.035,-0.1141521 -0.07655,-0.2077973 -0.0916,-0.2077973 -0.0069,0 -0.01347,0.00445 -0.02187,0.012219 C 24.408865,4.4292949 24.272377,5.749401 24.121037,6.1614908 23.028342,4.6579596 21.673695,3.1633712 20.960121,1.4976051 Z"
     id="path10-3-6"
     sodipodi:nodetypes="ccccccccscccccsccccccccccccccccccccccccccccccccccccccccccssscccscccc" />
  <path
     inkscape:connector-curvature="0"
     style="opacity:0.7;fill:none;fill-opacity:1;stroke:#f37329;stroke-width:1;stroke-miterlimit:4;stroke-dasharray:none;stroke-opacity:1"
     d="m 20.874881,1.3053305 -0.122604,0.1953906 c -0.02871,0.03539 -0.05681,0.071352 -0.08613,0.1086515 -0.64778,0.8535424 -1.016013,1.817695 -1.403113,2.8534733 -0.14756,0.397391 -0.304007,0.9966981 -0.391016,1.4953224 -0.08722,0.4999951 -0.09487,1.6109293 -0.01367,2.0480879 0.21462,1.1580479 0.705536,2.2492758 1.425976,3.1726398 0.835101,0.903282 1.742928,1.898916 2.081238,2.625302 0.465151,0.999411 0.661719,1.889079 0.661719,2.994721 0,0.333271 -0.01915,0.67585 -0.04785,0.88008 -0.705104,3.275185 -3.039693,5.849655 -6.316217,5.867207 -2.07412,0.0077 -4.86328,-0.695372 -5.239254,-2.823647 0.999058,0.151139 1.748048,0.09706 2.461631,0.09203 0.659414,-0.0047 1.288594,-0.14534 2.056925,-0.550315 1.144781,-0.607213 1.711482,-0.719204 2.024733,-0.683149 0.46158,0.05313 0.519763,0.05206 0.620703,-0.01087 0.214061,-0.133429 0.275448,-0.186979 0.151758,-0.440812 -0.15617,-0.320463 -0.704068,-0.767982 -1.163478,-0.950705 -0.384791,-0.153058 -0.594378,-0.19122 -1.055469,-0.191498 -0.46956,-2.65e-4 -0.867798,0.02214 -1.714379,0.277063 -0.845111,0.254512 -1.313548,0.292745 -1.834768,0.148038 -2.167764,-0.515411 -3.2684632,-2.42778 -2.213282,-3.825319 0.63462,-0.02906 1.923598,0.394965 2.325401,0.66762 0.38444,-0.375299 -0.449963,-0.952712 -0.583801,-1.480383 0,-0.658645 1.350972,-1.042061 1.905863,-1.290242 0.36554,-0.162968 0.721952,-0.330241 0.791603,-0.370775 0.15134,-0.08813 0.443123,-0.369484 0.561914,-0.541901 0.18123,-0.263212 0.300242,-0.750635 0.226952,-0.926258 -0.09198,-0.220716 -0.710711,-0.358079 -2.208012,-0.49029 -0.565109,-0.04993 -0.95169,-0.3065747 -1.24961,-0.8284718 -0.521923,-1.1988307 1.326461,-2.3391792 1.987891,-2.9431088 -1.05203,-0.5704015 -3.007485,0.4302093 -3.633986,1.0145373 -0.20069,0.1972837 -0.139341,0.1942589 -0.747851,0.035314 -0.0406,-0.010632 -0.08266,-0.020005 -0.125783,-0.029879 -0.0154,-0.00348 -0.03109,-0.00753 -0.04649,-0.010869 -0.028,-0.00619 -0.05743,-0.011878 -0.08613,-0.017653 -0.0203,-0.00418 -0.04052,-0.00826 -0.06152,-0.012233 -0.0238,-0.00418 -0.04715,-0.00934 -0.07109,-0.013583 -0.0252,-0.00418 -0.049854,-0.00805 -0.075195,-0.012219 -0.0182,-0.00278 -0.036491,-0.00515 -0.054691,-0.00816 C 9.4526543,7.3032277 9.2843106,7.2815803 9.1147705,7.2659937 8.9293404,7.2490293 8.743414,7.237708 8.5637939,7.2334008 c -0.053893,-0.00132 -0.1076005,-0.00132 -0.1599598,-0.00132 -0.056693,-1.19e-4 -0.1112511,-7.38e-5 -0.1654311,0.00132 -0.010493,2.721e-4 -0.020944,6.625e-4 -0.031444,0.00146 -0.045507,0.00132 -0.090374,0.00334 -0.1339843,0.00543 -0.00693,3.409e-4 -0.01218,6.617e-4 -0.017773,0.00132 -0.048293,0.00278 -0.094443,0.00654 -0.1394533,0.010869 -0.00704,3.549e-4 -0.00743,6.624e-4 -0.010941,0.00146 -0.0462,0.00418 -0.08911,0.010458 -0.1312501,0.016296 l -0.00133,0 c -0.018907,0.00278 -0.039221,0.00501 -0.057421,0.00816 C 7.5142569,7.2777303 7.3303402,7.3341784 7.1734001,7.4060593 6.6467157,6.5225036 6.5190139,4.9606637 6.1097238,4.0758437 5.1524033,4.5742244 4.496636,7.0235682 4.3337467,7.8583276 c -0.062307,0.33195 -0.133635,0.9765482 -0.1339843,1.2046785 -6.44e-5,0.032836 -0.00831,0.045633 -0.00957,0.069263 -1.383167,2.1563649 -2.1901981,4.7138039 -2.1901981,7.4602789 0,7.680874 6.2680156,13.907452 14.0000077,13.907452 7.731989,0 14.000004,-6.226578 14.000004,-13.907452 0,-4.867609 -2.194308,-7.3685271 -4.366798,-10.7850682 -0.339929,-0.4895381 -0.598996,-1.0573049 -0.828545,-1.5211244 -0.035,-0.1141528 -0.07655,-0.207798 -0.0916,-0.207798 -0.007,0 -0.01347,0.00445 -0.02187,0.012233 -0.28233,0.3389547 -0.418817,1.6590608 -0.570158,2.0711513 C 23.028342,4.6584105 21.673696,3.1638214 20.960123,1.4980553 Z"
     id="path10-3-5"
     sodipodi:nodetypes="ccccccccscccccsccccccccccccccccccccccccccccccccccccccccccsssccscccc" />
  <path
     style="opacity:0.5;fill:url(#linearGradient4274-2-0-3-5);fill-opacity:1"
     d="m 20.793159,2.3080068 c -0.450866,0.6987679 -0.732904,1.447452 -1.062269,2.328713 l 0,0.00195 c -0.130496,0.351881 -0.286068,0.94138 -0.367188,1.40625 -0.06652,0.381355 -0.06607,1.5890158 -0.01367,1.8710938 0.199714,1.0776262 0.656949,2.0923104 1.326171,2.9511714 l 0.002,0.0039 c 0.829293,0.896467 1.736165,1.854242 2.140626,2.722657 0.490311,1.053471 0.708984,2.040174 0.708984,3.205078 0,0.352424 -0.01759,0.70099 -0.05273,0.951172 l -0.0039,0.01758 -0.0039,0.01758 c -0.74155,3.444475 -3.26363,6.242769 -6.800781,6.261719 l -0.0019,0 c -1.094387,0.0041 -2.363602,-0.171165 -3.458985,-0.652344 -1.095383,-0.48118 -2.050244,-1.320553 -2.273437,-2.583984 l -0.121094,-0.685547 0.6875,0.103515 c 0.945073,0.14297 1.646435,0.09114 2.382813,0.08594 0.590002,-0.0042 1.116281,-0.118341 1.826171,-0.492188 1.182643,-0.627295 1.818263,-0.793668 2.316407,-0.736328 0.01288,0.0015 0.0093,5.06e-4 0.02148,0.002 -0.0409,-0.04065 -0.04141,-0.05809 -0.08984,-0.09766 -0.179052,-0.146289 -0.401575,-0.280923 -0.564453,-0.345703 -0.353375,-0.14056 -0.437499,-0.155989 -0.871094,-0.15625 -0.453495,-2.56e-4 -0.757439,0.01109 -1.570312,0.255859 -0.8791,0.264748 -1.491069,0.320672 -2.107422,0.150391 -1.193299,-0.287596 -2.125706,-0.958187 -2.619141,-1.8125 C 9.7276245,16.224063 9.7158595,15.14017 10.359914,14.28715 l 0.140625,-0.1875 0.234375,-0.01172 c 0.443773,-0.02032 0.936072,0.09664 1.417969,0.242188 0.06063,0.01831 0.09369,0.04567 0.152344,0.06445 -0.110349,-0.157685 -0.228383,-0.256854 -0.289063,-0.496094 l -0.01563,-0.06055 0,-0.0625 c 0,-0.33559 0.175536,-0.613248 0.369141,-0.802734 0.193604,-0.189486 0.417885,-0.323931 0.646484,-0.441406 0.457199,-0.23495 0.958554,-0.402381 1.185547,-0.503907 0.179861,-0.08019 0.358046,-0.160946 0.498047,-0.226562 0.140001,-0.06561 0.273284,-0.134967 0.246094,-0.119141 -0.0071,0.0041 0.356393,-0.32589 0.402343,-0.392578 0.03786,-0.05497 0.103846,-0.205688 0.134766,-0.332031 0.01123,-0.04584 0.01682,-0.0073 0.01563,-0.04297 -0.05243,-0.01867 -0.09319,-0.03548 -0.197266,-0.05859 -0.309399,-0.0687 -0.826857,-0.13587 -1.566406,-0.201172 -0.694823,-0.06139 -1.285371,-0.457743 -1.640625,-1.080078 l -0.01367,-0.02344 -0.0098,-0.02344 C 11.885554,9.102033 11.913225,8.6425158 12.059013,8.265656 12.204802,7.888797 12.44768,7.5718384 12.71331,7.2890934 c 0.162707,-0.173191 0.277303,-0.2403709 0.449219,-0.390625 -0.17478,0.03433 -0.270045,-0.036713 -0.453126,0.029297 -0.63211,0.227894 -1.253376,0.6213164 -1.482421,0.8339844 l -0.0039,0.00195 c -0.03833,0.03862 -0.06825,0.07799 -0.148437,0.140625 -0.08508,0.06645 -0.25688,0.1382413 -0.390625,0.1445313 -0.267491,0.01258 -0.376252,-0.052619 -0.675781,-0.1308594 -0.0284,-0.0074 -0.066359,-0.017054 -0.1113291,-0.027344 -0.02351,-0.0053 -0.038815,-0.00927 -0.041015,-0.00977 l -0.00195,0 c -0.01893,-0.0042 -0.044912,-0.00929 -0.076172,-0.015625 l -0.002,0 c -0.01627,-0.0034 -0.03209,-0.00687 -0.04687,-0.00977 -0.03798,-0.0067 -0.06191,-0.011832 -0.07227,-0.013672 -0.01922,-0.0032 -0.04147,-0.00597 -0.06445,-0.00977 -0.01071,-0.0016 -0.03083,-0.00487 -0.06055,-0.00977 -0.150583,-0.02351 -0.306628,-0.044234 -0.46289,-0.058594 -0.175336,-0.01604 -0.350685,-0.025297 -0.517579,-0.029297 -0.04576,-0.0011 -0.09608,-0.00195 -0.148437,-0.00195 -0.05575,-1.2e-4 -0.106514,7.262e-4 -0.152344,0.00195 -0.0067,1.739e-4 -0.0081,1.669e-4 -0.0059,0 l -0.01172,0 -0.01172,0 c -0.03899,0.0011 -0.07985,0.00386 -0.121093,0.00586 l -0.002,0 -0.002,0 -0.01172,0.00195 c -0.03217,0.0018 -0.06416,0.00296 -0.0957,0.00586 l -0.0059,0.00195 -0.0293,0.00195 -0.002,0 -0.002,0 c -0.0023,3.22e-4 -0.0071,-3.5e-5 -0.0078,0 -0.0277,0.0027 -0.05811,0.0079 -0.09961,0.013672 l -0.002,0 -0.0059,0.00195 c -0.01962,0.0028 -0.03856,0.00451 -0.03516,0.00391 l -0.04297,0.00781 -0.04297,0 c -0.105713,-3.51e-4 -0.219447,0.030471 -0.332031,0.082031 l -0.408204,0.1875 -0.228515,-0.3867188 C 6.4235709,7.1242959 6.2620609,6.4801907 6.1113469,5.8613277 6.0468269,5.5963757 5.9539112,5.2493704 5.8906112,5.0095335 5.7001022,5.2884054 5.5488489,5.6129991 5.3886909,6.023437 c -0.28781,0.73757 -0.489223,1.5430584 -0.564453,1.9277344 l 0,0.00391 c -0.05336,0.286489 -0.124809,0.9844554 -0.125,1.1093746 -3e-4,0.11619 -0.01424,0.177844 -0.0098,0.0957 l -0.0078,0.13086 -0.07031,0.111328 C 3.2774409,11.481882 2.4999999,13.945222 2.4999999,16.59375 2.4999999,24.002605 8.5364419,30 16,30 23.463555,30 29.5,24.002605 29.5,16.59375 29.5,11.915013 27.435033,9.5603 25.259766,6.1542971 l -0.04883,-0.072266 c -0.0087,-0.01289 -0.01288,-0.028066 -0.02149,-0.041016 l -0.05664,-0.087891 0,-0.015625 c -0.121489,-0.189567 -0.2205,-0.3428242 -0.328874,-0.5404042 -0.06841,0.354186 -0.110499,0.6579246 -0.213667,0.9388436 L 24.267999,7.2148448 23.717218,6.4570323 C 22.779774,5.1671213 21.582824,3.8106077 20.793159,2.3080068 Z m 0.220934,1.9732443 c 0.648201,0.9533784 1.30492,1.9523741 1.894531,2.7636718 l 1.654297,2.2753911 0.552734,-1.5078129 c 1.85343,2.7945759 3.384766,4.9291169 3.384766,8.7812499 0,6.865681 -5.57215,12.40625 -12.5,12.40625 -6.9278535,0 -12.5000005,-5.540569 -12.5000005,-12.40625 0,-2.452837 0.717666,-4.724302 1.953125,-6.650391 l 0.002,-0.0039 0.208985,-0.332031 0.01563,-0.263672 c 3.23e-4,-0.0021 0.0016,-0.0058 0.002,-0.0078 0.0175,-0.265996 0.03205,-0.3846232 0.05469,-0.6562502 0.02291,-0.2107442 0.05545,-0.4539122 0.07031,-0.5351565 0.0036,-0.018393 0.02477,-0.081958 0.0293,-0.1035156 0.02474,0.045097 0.02018,0.085943 0.04687,0.1308594 l 0.002,0.00195 0,0.00195 0.685547,1.1582039 c 0.649467,-0.4594062 1.303893,-0.5210292 1.957031,-0.5996102 0.146088,0.0035 0.299972,0.01179 0.449219,0.02539 0.126945,0.01167 0.260151,0.03023 0.392578,0.05078 0.03232,0.0053 0.05379,0.0089 0.07226,0.01172 0.0255,0.004 0.03835,0.0056 0.04102,0.0059 -0.0023,-4.13e-4 0.0057,3.08e-4 0.0039,0 1.7e-5,-2e-5 0.0089,0.0021 0.0078,0.0019 -0.01149,-0.0018 0.01694,0.0037 0.0625,0.01172 0.0059,0.0013 0.0038,0.0011 0.01758,0.0039 l 0.0059,0 0.05664,0.01172 0.0019,0 0.0039,0.002 0.0039,0 0.0098,0.0019 c 0.0068,0.0016 0.01141,0.004 0.01953,0.0059 l -0.002,-0.0019 c 0.03238,0.0074 0.06078,0.01592 0.08203,0.02148 0.2253562,0.05886 0.5324465,0.1829062 0.9746095,0.1621092 0.19263,-0.0091 0.283043,-0.1126202 0.410156,-0.1523432 -0.0054,0.3502382 -0.141896,0.6739162 0.01367,1.0312492 l 0.0293,0.07031 0.04297,0.07226 c 0.392828,0.688159 1.063642,1.128942 1.8125,1.367188 -0.193878,0.08068 -0.266513,0.09513 -0.480469,0.205078 -0.267974,0.137709 -0.588148,0.323056 -0.888672,0.617187 -0.198747,0.194519 -0.278285,0.58909 -0.408203,0.921875 -0.19807,-0.02354 -0.359111,-0.101554 -0.572266,-0.0918 l -0.002,0 -0.7050783,0.03516 -0.4218752,0.5625 c -0.891419,1.182523 -0.877289,2.727312 -0.203125,3.894531 0.370416,0.641323 0.9373355,1.144141 1.5937505,1.552734 l -1.3671885,-0.205078 0.3632822,2.054688 c 0.2949913,1.669861 1.5639453,2.758831 2.8554683,3.326172 1.272698,0.559069 2.658099,0.740471 3.861329,0.736328 l 0.0059,0 0.0019,0 c 4.059811,-0.02175 6.953409,-3.255948 7.771485,-7.044922 l 0,-0.002 0.0039,-0.01563 0.01367,-0.05469 0.0039,-0.03906 c 0.04656,-0.331418 0.0625,-0.706118 0.0625,-1.091797 0,-1.290049 -0.257671,-2.460038 -0.800781,-3.626953 l -0.0019,0 c -0.498785,-1.071006 -1.395702,-1.968945 -2.1875,-2.818427 l -0.01367,-0.02539 -0.05859,-0.07422 C 20.895182,9.522017 20.504946,8.6536478 20.33457,7.7343262 20.35508,7.8447329 20.31154,7.3825754 20.31309,7.0233886 20.31459,6.6642019 20.34771,6.2310169 20.3502,6.216748 20.41845,5.8247688 20.574361,5.2423161 20.668394,4.9882823 l 0,-0.00195 c 0.102774,-0.2748881 0.237345,-0.4609455 0.345699,-0.7050812 z m -8.4375,15.5781249 c 0.0037,10e-4 0.0081,-9.99e-4 0.01172,0 0.0071,0.0017 0.01239,0.0061 0.01953,0.0078 z"
     id="path10-3-6-5-9"
     inkscape:connector-curvature="0"
     sodipodi:nodetypes="ccccccccscccccsccccccccccccscccccccsssccccccsccccsscccccsccccccccccccccccccccccccccccccccccccccsccccccsssccccccccccccccsssccccccccccccccccccccccccccccccccccccsscccccscccsccccccccsccccccccccccccc" />
  <path
     id="path10-3-6-9"
     style="opacity:0.5;fill:#000000;fill-opacity:1"
     d="m 19.085974,19.763942 c -0.08984,0.0951 -0.182405,0.159292 -0.25586,0.205078 -0.08599,0.05361 -0.284754,0.1225 -0.429687,0.125 -0.144933,0.0025 -0.278179,-0.01414 -0.511719,-0.04102 -0.128358,-0.01477 -0.625502,0.03982 -1.732422,0.626953 l -0.002,0.002 c -0.825695,0.435209 -1.558874,0.602221 -2.287109,0.607421 -0.451146,0.0032 -1.130224,0.05113 -1.713446,0.02394 0.234264,0.412711 0.577713,0.687872 1.038392,0.961724 0.209895,0.0083 0.503407,0.01555 0.675054,0.01434 0.728235,-0.0052 1.461414,-0.172211 2.287109,-0.607421 l 0.002,-0.002 c 1.10692,-0.58713 1.604064,-0.641727 1.732422,-0.626953 0.23354,0.02688 0.366786,0.04357 0.511719,0.04102 0.144933,-0.0025 0.343699,-0.07139 0.429687,-0.125 0.114305,-0.07125 0.284077,-0.135146 0.398438,-0.400391 0.11436,-0.265244 0.02163,-0.514948 -0.06055,-0.683594 -0.0221,-0.04534 -0.05629,-0.07939 -0.08203,-0.121098 z m -8.064491,-4.668237 c -0.203662,0.391545 -0.22594,0.831777 -0.05078,1.234375 0.02506,-0.06661 0.05936,-0.137005 0.09375,-0.203125 0.232223,0.0261 0.487508,0.05441 0.798828,0.148438 0.421699,0.127364 0.844461,0.316399 0.939453,0.380859 l 0.337891,0.230469 0.292969,-0.28711 c 0.206661,-0.201747 0.279855,-0.549458 0.226562,-0.783203 -0.03055,-0.134024 -0.08008,-0.240856 -0.134765,-0.33789 -0.02798,0.04274 -0.05571,0.08587 -0.0918,0.121093 l -0.292969,0.28711 -0.337891,-0.230469 c -0.09499,-0.06446 -0.517754,-0.253495 -0.939453,-0.380859 -0.31132,-0.09403 -0.609574,-0.153588 -0.841795,-0.179688 z m 5.380859,-3.720704 c -0.05284,0.163657 -0.134245,0.321559 -0.226562,0.476563 -0.21898,0.270335 -0.420735,0.49346 -0.71875,0.689453 -0.09685,0.05636 -0.177216,0.09126 -0.324219,0.160156 -0.147003,0.0689 -0.329946,0.153549 -0.515625,0.236328 l 0,-0.002 c -0.327898,0.146656 -0.779709,0.297005 -1.136719,0.480469 -0.178505,0.09173 -0.325303,0.192178 -0.402344,0.267578 -0.03856,0.03767 -0.0509,0.04933 -0.0586,0.0625 0.05099,0.100996 0.197313,0.287104 0.375,0.544923 0.02752,0.03994 0.0627,0.08589 0.08984,0.128906 0.355807,-0.181705 0.80723,-0.338756 1.132812,-0.484376 l 0,0.002 c 0.185679,-0.08278 0.368622,-0.167431 0.515625,-0.236328 0.147003,-0.0689 0.227374,-0.103796 0.324219,-0.160156 0.309734,-0.180368 0.53102,-0.411306 0.722656,-0.689453 0.143379,-0.208238 0.225678,-0.435032 0.28125,-0.662109 0.05557,-0.227078 0.131188,-0.411929 -0.0059,-0.740235 -0.01319,-0.03164 -0.03664,-0.04684 -0.05274,-0.07422 z m 1.914713,-3.6938179 c -0.02473,0.515991 -0.02057,1.051379 0.05078,1.435546 0.229258,1.2370379 0.753236,2.4015309 1.523437,3.3886719 l 0.01172,0.01563 0.01563,0.01563 c 0.833391,0.901434 1.726538,1.923477 1.994141,2.498047 0.362612,0.779099 0.536764,1.460877 0.589843,2.259766 0.01037,-0.157405 0.02539,-0.291874 0.02539,-0.476563 0,-1.04638 -0.175244,-1.837851 -0.615234,-2.783203 -0.267603,-0.57457 -1.160749,-1.596613 -1.994141,-2.498047 l -0.01563,-0.01563 -0.01172,-0.01563 C 19.12107,10.51826 18.597093,9.3537671 18.367834,8.1167291 c -0.0235,-0.126526 -0.03829,-0.278506 -0.05078,-0.435546 z m -3.6569,-0.771025 c -0.377214,0.319287 -0.854411,0.674308 -1.22461,1.06836 -0.213904,0.227687 -0.376511,0.457391 -0.451171,0.65039 -0.0698,0.180235 -0.06653,0.310777 -0.0059,0.46875 0.05646,0.09622 0.111275,0.174869 0.166016,0.242188 0.07967,-0.11762 0.17595,-0.238848 0.291015,-0.361328 0.427809,-0.455374 1.023897,-0.869976 1.410157,-1.222657 l 0.519531,-0.472656 -0.619141,-0.335937 c -0.0281,-0.01524 -0.0575,-0.02348 -0.08594,-0.03711 z" />
</svg>
