<?xml version="1.0" encoding="UTF-8" standalone="no"?>
<!-- Generator: Adobe Illustrator 16.0.3, SVG Export Plug-In . SVG Version: 6.00 Build 0)  -->

<svg
   xmlns:dc="http://purl.org/dc/elements/1.1/"
   xmlns:cc="http://creativecommons.org/ns#"
   xmlns:rdf="http://www.w3.org/1999/02/22-rdf-syntax-ns#"
   xmlns:svg="http://www.w3.org/2000/svg"
   xmlns="http://www.w3.org/2000/svg"
   xmlns:xlink="http://www.w3.org/1999/xlink"
   xmlns:sodipodi="http://sodipodi.sourceforge.net/DTD/sodipodi-0.dtd"
   xmlns:inkscape="http://www.inkscape.org/namespaces/inkscape"
   version="1.1"
   id="svg4031"
   sodipodi:docname="firefox_128.svg"
   inkscape:version="0.91 r13725"
   x="0px"
   y="0px"
   width="128px"
   height="128px"
   viewBox="0 0 128 128"
   enable-background="new 0 0 128 128"
   xml:space="preserve"><metadata
     id="metadata42"><rdf:RDF><cc:Work
         rdf:about=""><dc:format>image/svg+xml</dc:format><dc:type
           rdf:resource="http://purl.org/dc/dcmitype/StillImage" /></cc:Work></rdf:RDF></metadata><defs
     id="defs40"><linearGradient
       id="linearGradient4214"><stop
         offset="0"
         style="stop-color:#ffffff;stop-opacity:1"
         id="stop4216" /><stop
         offset="0.44890663"
         style="stop-color:#ffffff;stop-opacity:0.23529412"
         id="stop4218" /><stop
         offset="0.84736282"
         style="stop-color:#ffffff;stop-opacity:0.15686275"
         id="stop4220" /><stop
         offset="1"
         style="stop-color:#ffffff;stop-opacity:0.39215687"
         id="stop4222" /></linearGradient><linearGradient
       inkscape:collect="always"
       xlink:href="#linearGradient4214"
       id="linearGradient4194"
       x1="64.289238"
       y1="11.581164"
       x2="64.81942"
       y2="118.88461"
       gradientUnits="userSpaceOnUse" /><linearGradient
       id="path10-3-6_2_-5"
       gradientUnits="userSpaceOnUse"
       x1="0.17290001"
       y1="53.999001"
       x2="32.849998"
       y2="74.439201"
       gradientTransform="matrix(2.575,0,0,-2.5952,-7.8079024,430.20734)"><stop
         offset="0"
         style="stop-color:#FF780A"
         id="stop31-6" /><stop
         offset="1"
         style="stop-color:#FFBE3C"
         id="stop33-2" /></linearGradient><linearGradient
       id="linearGradient4259"
       gradientUnits="userSpaceOnUse"
       x1="-231.7348"
       y1="109.9953"
       x2="-192.935"
       y2="109.9953"
       gradientTransform="matrix(0,-2.5653,-2.5445,0,343.3642,-477.0014)"><stop
         offset="0"
         style="stop-color:#0D52BF"
         id="stop14-9" /><stop
         offset="1"
         style="stop-color:#64BAFF"
         id="stop16-1" /></linearGradient><linearGradient
       id="linearGradient4263"
       gradientUnits="userSpaceOnUse"
       x1="111.0466"
       y1="17.3155"
       x2="111.0466"
       y2="-39.684502"
       gradientTransform="matrix(1.7272,0,0,-1.7414,-128.3208,48.7485)"><stop
         offset="0"
         style="stop-color:#FFFFFF"
         id="stop21-2" /><stop
         offset="0.0899"
         style="stop-color:#FFFFFF;stop-opacity:0.2353"
         id="stop23-7" /><stop
         offset="0.8739"
         style="stop-color:#FFFFFF;stop-opacity:0.1569"
         id="stop25-0" /><stop
         offset="1"
         style="stop-color:#FFFFFF;stop-opacity:0.3922"
         id="stop27-9" /></linearGradient><radialGradient
       id="path3818-0-5-0_1_-3"
       cx="383.0762"
       cy="-1622.582"
       r="62.769501"
       gradientTransform="matrix(0.6869,0,0,-0.2146,-225.3335,-41.300959)"
       gradientUnits="userSpaceOnUse"><stop
         offset="0"
         style="stop-color:#3D3D3D"
         id="stop5-6" /><stop
         offset="0.5"
         style="stop-color:#686868;stop-opacity:0.498"
         id="stop7-0" /><stop
         offset="1"
         style="stop-color:#686868;stop-opacity:0"
         id="stop9-6" /></radialGradient><linearGradient
       inkscape:collect="always"
       xlink:href="#rect4_1_"
       id="linearGradient4289"
       gradientUnits="userSpaceOnUse"
       gradientTransform="matrix(0,-2.5657574,-2.5449555,0,317.6798,-277.80603)"
       x1="-231.7348"
       y1="109.9953"
       x2="-192.935"
       y2="109.9953" /><linearGradient
       gradientTransform="matrix(0,-2.5653,-2.5445,0,343.3642,-477.0014)"
       y2="109.9953"
       x2="-192.935"
       y1="109.9953"
       x1="-231.7348"
       gradientUnits="userSpaceOnUse"
       id="linearGradient4192"><stop
         id="stop4194"
         style="stop-color:#0D52BF"
         offset="0" /><stop
         id="stop4196"
         style="stop-color:#64BAFF"
         offset="1" /></linearGradient><linearGradient
       gradientTransform="matrix(1.7272,0,0,-1.7414,-128.3208,48.7485)"
       y2="-39.684502"
       x2="111.0466"
       y1="17.3155"
       x1="111.0466"
       gradientUnits="userSpaceOnUse"
       id="linearGradient4200"><stop
         id="stop4202"
         style="stop-color:#FFFFFF"
         offset="0" /><stop
         id="stop4204"
         style="stop-color:#FFFFFF;stop-opacity:0.2353"
         offset="0.0899" /><stop
         id="stop4206"
         style="stop-color:#FFFFFF;stop-opacity:0.1569"
         offset="0.8739" /><stop
         id="stop4208"
         style="stop-color:#FFFFFF;stop-opacity:0.3922"
         offset="1" /></linearGradient><linearGradient
       id="path10-3-6_2_-5-2"
       gradientUnits="userSpaceOnUse"
       x1="0.17290001"
       y1="53.999001"
       x2="32.849998"
       y2="74.439201"
       gradientTransform="matrix(2.575,0,0,-2.5952,-7.8075018,429.20631)"><stop
         offset="0"
         style="stop-color:#FF780A"
         id="stop31-6-3" /><stop
         offset="1"
         style="stop-color:#FFBE3C"
         id="stop33-2-7" /></linearGradient></defs><sodipodi:namedview
     inkscape:cy="71.05572"
     inkscape:cx="63.551529"
     inkscape:zoom="11.313709"
     showgrid="false"
     id="namedview37"
     guidetolerance="10"
     gridtolerance="10"
     objecttolerance="10"
     borderopacity="1"
     bordercolor="#666666"
     pagecolor="#ffffff"
     inkscape:current-layer="svg4031"
     inkscape:window-maximized="1"
     inkscape:window-y="30"
     inkscape:window-height="705"
     inkscape:window-x="0"
     inkscape:window-width="1366"
     inkscape:pageshadow="2"
     inkscape:pageopacity="0" /><radialGradient
     id="path3818-0-5-0_1_"
     cx="383.0762"
     cy="-1622.582"
     r="62.7695"
     gradientTransform="matrix(0.6869 0 0 -0.2146 -199.0565 -239.7024)"
     gradientUnits="userSpaceOnUse"><stop
       offset="0"
       style="stop-color:#3D3D3D"
       id="stop5" /><stop
       offset="0.5"
       style="stop-color:#686868;stop-opacity:0.498"
       id="stop7" /><stop
       offset="1"
       style="stop-color:#686868;stop-opacity:0"
       id="stop9" /></radialGradient><path
     id="path3818-0-5-0"
     inkscape:connector-curvature="0"
     d="M107.213,108.531  c-0.002,7.44-19.309,13.471-43.122,13.471c-23.812,0-43.114-6.031-43.116-13.471S40.277,95.061,64.091,95.06  s43.12,6.03,43.122,13.47C107.213,108.531,107.213,108.531,107.213,108.531z"
     fill="url(#path3818-0-5-0_1_)" /><g
     id="g4218"
     transform="matrix(1.000179,0,0,1.0001783,0.53113682,0.87898358)"><linearGradient
       id="rect4_1_"
       gradientUnits="userSpaceOnUse"
       x1="-231.7348"
       y1="109.9953"
       x2="-192.935"
       y2="109.9953"
       gradientTransform="matrix(0,-2.5653,-2.5445,0,343.3642,-477.0014)"><stop
         offset="0"
         style="stop-color:#0D52BF"
         id="stop14" /><stop
         offset="1"
         style="stop-color:#64BAFF"
         id="stop16" /></linearGradient><path
       id="rect4"
       d="m 14.129,67.708 0,0 c 0,-27.481 22.096,-49.758 49.354,-49.758 l 0,0 c 27.257,0 49.354,22.277 49.354,49.758 l 0,0 c 0,27.479 -22.097,49.757 -49.354,49.757 l 0,0 c -27.257,0 -49.354,-22.278 -49.354,-49.757 z"
       style="fill:url(#rect4_1_)"
       inkscape:connector-curvature="0" /><path
       id="rect4-5"
       enable-background="new    "
       d="m 14.145,68.207 0,0 c 0,-27.462 22.082,-49.725 49.321,-49.725 l 0,0 c 27.239,0 49.321,22.263 49.321,49.725 l 0,0 c 0,27.463 -22.082,49.725 -49.321,49.725 l 0,0 C 36.227,117.931 14.145,95.67 14.145,68.207 Z"
       inkscape:connector-curvature="0"
       style="opacity:0.7;fill:none;stroke:#0d52bf;stroke-width:0.99980003" /><linearGradient
       id="path3804_1_"
       gradientUnits="userSpaceOnUse"
       x1="111.0466"
       y1="17.3155"
       x2="111.0466"
       y2="-39.684502"
       gradientTransform="matrix(1.7272,0,0,-1.7414,-128.3208,48.7485)"><stop
         offset="0"
         style="stop-color:#FFFFFF"
         id="stop21" /><stop
         offset="0.0899"
         style="stop-color:#FFFFFF;stop-opacity:0.2353"
         id="stop23" /><stop
         offset="0.8739"
         style="stop-color:#FFFFFF;stop-opacity:0.1569"
         id="stop25" /><stop
         offset="1"
         style="stop-color:#FFFFFF;stop-opacity:0.3922"
         id="stop27" /></linearGradient><ellipse
       id="path3804"
       enable-background="new    "
       cx="63.483002"
       cy="68.214996"
       rx="48.354"
       ry="48.749001"
       style="opacity:0.4;fill:none;stroke:url(#path3804_1_);stroke-width:0.99980003" /></g><linearGradient
     id="path10-3-6_2_"
     gradientUnits="userSpaceOnUse"
     x1="0.1729"
     y1="53.999"
     x2="32.85"
     y2="74.4392"
     gradientTransform="matrix(2.575 0 0 -2.5952 18.4691 231.8059)"><stop
       offset="0"
       style="stop-color:#FF780A"
       id="stop31" /><stop
       offset="1"
       style="stop-color:#FFBE3C"
       id="stop33" /></linearGradient><path
     id="path10-3-6"
     inkscape:connector-curvature="0"
     d="M82.122,10.347l-0.615,0.771  c-0.105,0.132-0.207,0.266-0.316,0.405c-2.383,3.186-3.736,6.784-5.16,10.649c-0.543,1.483-1.119,3.72-1.439,5.581  c-0.32,1.866-0.35,6.012-0.051,7.644c0.791,4.322,2.596,8.395,5.246,11.841c3.072,3.371,6.412,7.087,7.656,9.798  c1.711,3.73,2.434,7.05,2.434,11.177c0,1.243-0.07,2.522-0.176,3.284C87.106,83.72,78.519,93.328,66.466,93.394  c-7.63,0.028-17.89-2.595-19.273-10.538c3.675,0.564,6.43,0.362,9.055,0.344c2.426-0.018,4.74-0.543,7.566-2.055  c4.212-2.266,6.296-2.684,7.449-2.549c1.697,0.198,1.912,0.194,2.283-0.041c0.787-0.498,1.014-0.697,0.559-1.645  c-0.574-1.196-2.59-2.867-4.279-3.549c-1.416-0.57-2.188-0.713-3.883-0.715c-1.728,0-3.193,0.083-6.307,1.035  c-3.109,0.949-4.832,1.092-6.75,0.552c-7.974-1.923-12.022-9.061-8.142-14.276c2.335-0.108,7.076,1.474,8.555,2.491  c1.414-1.4-1.655-3.556-2.147-5.525c0-2.458,4.97-3.889,7.011-4.815c1.345-0.608,2.655-1.233,2.912-1.384  c0.557-0.329,1.63-1.379,2.066-2.022c0.667-0.982,1.104-2.802,0.835-3.457c-0.338-0.824-2.614-1.336-8.122-1.83  c-2.079-0.186-3.501-1.144-4.597-3.092c-1.92-4.474,4.879-8.73,7.313-10.984c-3.87-2.128-11.063,1.606-13.368,3.787  c-0.738,0.736-0.513,0.725-2.751,0.132c-0.149-0.04-0.304-0.075-0.463-0.112c-0.057-0.013-0.114-0.028-0.171-0.041  c-0.103-0.023-0.211-0.044-0.316-0.066c-0.075-0.015-0.149-0.031-0.227-0.045c-0.088-0.016-0.174-0.035-0.262-0.051  c-0.093-0.015-0.184-0.03-0.276-0.045c-0.067-0.011-0.134-0.02-0.201-0.031c-0.593-0.094-1.212-0.175-1.836-0.233  c-0.682-0.063-1.366-0.105-2.026-0.122c-0.198-0.005-0.396-0.005-0.589-0.005c-0.208,0-0.409,0-0.608,0.005  c-0.038,0.001-0.077,0.002-0.115,0.005c-0.168,0.005-0.333,0.013-0.493,0.021c-0.026,0.001-0.045,0.002-0.065,0.005  c-0.178,0.01-0.348,0.024-0.513,0.041c-0.026,0.001-0.027,0.002-0.041,0.005c-0.17,0.015-0.327,0.039-0.482,0.061h-0.005  c-0.069,0.01-0.145,0.019-0.212,0.031c-0.737-0.003-1.414,0.208-1.991,0.476c-1.938-3.297-2.407-9.126-3.913-12.429  c-3.521,1.86-5.934,11.001-6.532,14.117c-0.229,1.239-0.492,3.645-0.493,4.496c0,0.123-0.03,0.17-0.035,0.258  c-5.088,8.048-8.057,17.593-8.057,27.843c0,28.666,23.057,51.904,51.5,51.904c28.442,0,51.5-23.238,51.5-51.904  c0-18.167-8.072-27.5-16.064-40.251c0-0.008,0.002-0.013-0.025-0.021c-1.178-1.775-2.197-3.724-3.021-5.657  c-0.129-0.426-0.281-0.775-0.338-0.775c-0.025,0-0.049,0.017-0.08,0.045c-1.039,1.265-1.541,6.192-2.098,7.73  c-4.02-5.611-9.002-11.189-11.627-17.406L82.122,10.347z"
     fill="url(#path10-3-6_2_)" /><path
     fill="none"
     stroke="#3FFF54"
     stroke-miterlimit="10"
     d="M102.038,33.039c-1.063-1.63-2.146-3.291-3.23-5.013l-0.002-0.001  l-0.201-0.303c-0.916-1.38-1.758-2.886-2.514-4.49c-0.23,0.903-0.434,1.957-0.596,2.789c-0.229,1.18-0.426,2.199-0.654,2.831  l-0.646,1.787l-1.107-1.545c-1.027-1.436-2.146-2.904-3.229-4.324c-2.988-3.923-6.072-7.971-8.094-12.34  c-2.209,3.063-3.523,6.632-4.797,10.087c-0.521,1.425-1.08,3.598-1.393,5.405c-0.301,1.754-0.328,5.776-0.051,7.293  c0.76,4.153,2.506,8.1,5.055,11.412c3.486,3.819,6.518,7.257,7.771,9.99c1.771,3.86,2.525,7.327,2.525,11.595  c0,1.262-0.072,2.604-0.186,3.42C87.767,85.424,78.265,94.33,66.472,94.395h-0.129c-8.375,0-18.674-2.977-20.135-11.367  l-0.239-1.371l1.376,0.211c2.207,0.34,4.027,0.383,5.368,0.383c0.698,0,1.368-0.014,2.021-0.027c0.51-0.01,1.011-0.02,1.507-0.023  c2.474-0.018,4.598-0.596,7.102-1.936c3.363-1.811,5.822-2.689,7.511-2.689c0.189,0,0.363,0.01,0.523,0.029  c1.033,0.119,1.598,0.127,1.605,0.129c0.076-0.053,0.203-0.133,0.303-0.203c-0.02-0.047-0.047-0.109-0.084-0.186  c-0.414-0.865-2.182-2.422-3.752-3.055c-1.291-0.52-1.947-0.641-3.51-0.643c-1.621,0-3.002,0.072-6.013,0.992  c-3.424,1.043-5.14,1.17-7.313,0.559c-4.693-1.131-8.473-4.166-9.828-7.912c-1-2.764-0.59-5.579,1.155-7.925l0.283-0.38l0.473-0.022  c1.917-0.083,5.393,0.863,7.641,1.856c-0.182-0.298-0.428-0.645-0.695-1.014c-0.604-0.832-1.228-1.693-1.463-2.635l-0.03-0.242  c0-2.697,3.646-4.142,6.307-5.195c0.492-0.194,0.937-0.37,1.291-0.531c1.448-0.654,2.637-1.228,2.819-1.335  c0.396-0.234,1.368-1.166,1.746-1.722c0.514-0.758,0.792-2.052,0.74-2.477c-0.388-0.316-1.997-0.779-7.29-1.253  c-2.411-0.217-4.12-1.359-5.379-3.598l-0.047-0.096c-1.881-4.384,2.856-8.242,5.99-10.796c0.072-0.059,0.144-0.116,0.213-0.174  c-0.242-0.028-0.496-0.043-0.762-0.043c-3.667,0-8.317,2.658-9.891,4.146l-0.117,0.119c-0.331,0.337-0.706,0.72-1.428,0.72  c-0.402,0-0.84-0.116-1.712-0.35l-0.437-0.116c-0.12-0.032-0.241-0.061-0.365-0.089l-1.453-0.281  c-0.572-0.091-1.169-0.169-1.77-0.225c-0.673-0.063-1.333-0.103-1.96-0.118c-0.19-0.005-0.378,0.002-0.563-0.005l-0.179-0.001  c-0.135,0-0.268,0.002-0.4,0.006l-0.59,0.024c-0.221,0.015-0.375,0.026-0.527,0.042c-0.177,0.018-0.298,0.034-0.417,0.051  l-0.427,0.051c-0.503,0-1.011,0.125-1.565,0.383l-0.824,0.384l-0.46-0.783c-1.158-1.972-1.799-4.674-2.419-7.288  c-0.347-1.464-0.68-2.867-1.081-4.052c-2.474,2.525-4.463,9.391-5.101,12.709c-0.215,1.163-0.474,3.503-0.475,4.31  c0,0.179-0.028,0.306-0.043,0.374l-0.015,0.259l-0.132,0.157c-5.169,8.178-7.902,17.621-7.902,27.31  c0,28.068,22.654,50.904,50.5,50.904c27.846,0,50.5-22.836,50.5-50.904C114.526,52.173,108.739,43.307,102.038,33.039z"
     id="path37"
     style="stroke:url(#linearGradient4194);opacity:0.5" /><path
     id="path10-3-6_1_"
     inkscape:connector-curvature="0"
     d="M82.122,10.347l-0.615,0.771  c-0.105,0.132-0.207,0.266-0.316,0.405c-2.383,3.186-3.736,6.784-5.16,10.649c-0.543,1.483-1.119,3.72-1.439,5.581  c-0.32,1.866-0.35,6.012-0.051,7.644c0.791,4.322,2.596,8.395,5.246,11.841c3.072,3.371,6.412,7.087,7.656,9.798  c1.711,3.73,2.434,7.05,2.434,11.177c0,1.242-0.07,2.521-0.176,3.283c-2.594,12.225-11.182,21.832-23.234,21.898  c-7.63,0.027-17.89-2.596-19.272-10.539c3.675,0.564,6.43,0.363,9.055,0.344c2.426-0.018,4.74-0.543,7.567-2.055  c4.211-2.266,6.295-2.684,7.447-2.549c1.697,0.199,1.912,0.195,2.283-0.041c0.787-0.498,1.014-0.697,0.559-1.645  c-0.574-1.195-2.59-2.867-4.279-3.549c-1.416-0.57-2.188-0.713-3.883-0.715c-1.728,0-3.192,0.084-6.307,1.035  c-3.109,0.949-4.832,1.092-6.75,0.553c-7.974-1.924-12.022-9.061-8.142-14.277c2.335-0.108,7.076,1.474,8.555,2.491  c1.414-1.4-1.655-3.556-2.147-5.525c0-2.458,4.97-3.889,7.011-4.815c1.345-0.608,2.655-1.233,2.912-1.384  c0.557-0.329,1.63-1.379,2.066-2.022c0.667-0.982,1.104-2.802,0.835-3.457c-0.338-0.824-2.614-1.336-8.122-1.83  c-2.079-0.186-3.501-1.144-4.597-3.092c-1.92-4.474,4.879-8.73,7.313-10.984c-3.87-2.128-11.063,1.606-13.368,3.787  c-0.738,0.736-0.513,0.725-2.751,0.132c-0.149-0.04-0.304-0.075-0.463-0.112c-0.057-0.013-0.114-0.028-0.171-0.041  c-0.103-0.023-0.211-0.044-0.316-0.066c-0.075-0.015-0.149-0.031-0.227-0.045c-0.088-0.016-0.174-0.035-0.262-0.051  c-0.093-0.015-0.184-0.03-0.276-0.045c-0.067-0.011-0.134-0.02-0.201-0.031c-0.593-0.094-1.212-0.175-1.836-0.233  c-0.682-0.063-1.366-0.105-2.026-0.122c-0.198-0.005-0.396-0.005-0.589-0.005c-0.208,0-0.409,0-0.608,0.005  c-0.038,0.001-0.077,0.002-0.115,0.005c-0.168,0.005-0.333,0.013-0.493,0.021c-0.026,0.001-0.045,0.002-0.065,0.005  c-0.178,0.01-0.348,0.024-0.513,0.041c-0.026,0.001-0.027,0.002-0.041,0.005c-0.17,0.015-0.327,0.039-0.482,0.061H33.76  c-0.069,0.01-0.145,0.019-0.212,0.031c-0.737-0.003-1.414,0.208-1.991,0.476c-1.938-3.297-2.407-9.126-3.913-12.429  c-3.521,1.86-5.934,11.001-6.532,14.117c-0.229,1.239-0.492,3.645-0.493,4.496c0,0.123-0.03,0.17-0.035,0.258  c-5.088,8.048-8.057,17.593-8.057,27.843c0,28.666,23.057,51.904,51.5,51.904c28.441,0,51.5-23.238,51.5-51.904  c0-18.167-8.072-27.5-16.064-40.251c0-0.008,0.002-0.013-0.025-0.021c-1.178-1.775-2.197-3.724-3.021-5.657  c-0.129-0.426-0.281-0.775-0.338-0.775c-0.025,0-0.049,0.017-0.08,0.045c-1.039,1.265-1.541,6.192-2.098,7.73  c-4.02-5.611-9.002-11.189-11.627-17.406L82.122,10.347z"
     style="stroke:#f37329;stroke-opacity:1;opacity:0.7"
     stroke="#5B15FF"
     fill="none" /><path
     style="fill:url(#linearGradient4289)"
     d="M 37.748047 217.23438 C 31.784292 217.23438 26.067749 218.30029 20.775391 220.25391 C 20.767435 220.25684 20.759907 220.26073 20.751953 220.26367 C 1.5948222 227.26725 -12.097656 245.77582 -12.097656 267.5 L -12.097656 268 L -12.072266 268 C -11.802937 295.50309 10.383618 317.73336 37.732422 317.73438 C 65.081249 317.73438 87.265828 295.5031 87.535156 268 L 87.560547 268 L 87.560547 267.5 C 87.560547 246.66951 74.97463 228.79352 57.050781 221.18359 C 51.12147 218.64136 44.59763 217.23438 37.748047 217.23438 z "
     id="rect4-1" /><path
     id="path10-3-6-9"
     style="opacity:0.5;fill:#000000;fill-opacity:1"
     d="m 74.642577,78.15431 c -0.187776,0.40664 -0.52768,0.60204 -0.916016,0.84765 -0.221326,0.14079 -0.530842,0.25472 -0.904296,0.26172 -0.373455,0.007 -0.853769,-0.0467 -1.705078,-0.14648 -0.964268,-0.113 -2.979367,0.2486 -7.152344,2.49414 l -0.002,0 c -2.884614,1.54281 -5.303058,2.09478 -7.798829,2.11328 -2.39832,0.0174 -5.045483,0.13389 -8.353515,-0.28711 0.08992,0.35753 0.209238,0.69677 0.335937,1.03125 3.145705,0.36998 5.704471,0.2726 8.017578,0.25586 2.495771,-0.0185 4.914215,-0.57047 7.798829,-2.11328 l 0.002,0 c 4.172977,-2.24554 6.188076,-2.60714 7.152344,-2.49414 0.851309,0.0998 1.331623,0.15321 1.705078,0.14648 0.373454,-0.007 0.68297,-0.12093 0.904296,-0.26172 0.399511,-0.25268 0.751689,-0.44756 0.935547,-0.8789 0.130625,-0.30646 0.09622,-0.62554 -0.01953,-0.96875 z M 44.923827,60.46485 c -0.955619,1.38885 -1.325689,2.88756 -1.210937,4.38086 0.08798,-1.15678 0.469202,-2.30286 1.210937,-3.38086 1.054554,-0.004 2.642666,0.28383 4.183594,0.75586 1.6316,0.49982 3.186604,1.16581 3.820312,1.60157 l 0.339844,0.23437 0.294922,-0.29102 c 0.463357,-0.45875 0.589673,-1.09374 0.466797,-1.64062 -0.0079,-0.0351 -0.02191,-0.0688 -0.03125,-0.10352 -0.07753,0.26851 -0.215904,0.52669 -0.435547,0.74414 l -0.294922,0.29102 -0.339844,-0.23437 c -0.633708,-0.43576 -2.188712,-1.10175 -3.820312,-1.60157 -1.540928,-0.47203 -3.12904,-0.75986 -4.183594,-0.75586 z m 19.56836,-14.08203 c -0.03195,0.19793 -0.07233,0.40091 -0.123047,0.61133 -0.170992,0.70937 -0.454192,1.44589 -0.839844,2.01367 -0.507953,0.74912 -1.510568,1.74897 -2.226563,2.17188 -0.18864,0.11083 -0.554658,0.28821 -1.085937,0.54101 -0.531279,0.25281 -1.19747,0.56375 -1.873047,0.86914 l 0,-0.002 c -1.071308,0.48605 -2.798828,1.06777 -4.246094,1.82227 -0.723633,0.37724 -1.370599,0.79756 -1.810547,1.23437 -0.422075,0.41907 -0.615602,0.82592 -0.632812,1.25195 0.03394,0.11903 0.102312,0.25089 0.160156,0.37891 0.103303,-0.21007 0.258872,-0.4186 0.472656,-0.63086 0.439948,-0.43681 1.086914,-0.85713 1.810547,-1.23437 1.447266,-0.7545 3.174786,-1.33622 4.246094,-1.82227 l 0,0.002 c 0.675577,-0.30539 1.341768,-0.61633 1.873047,-0.86914 0.531279,-0.2528 0.897297,-0.43018 1.085937,-0.54101 0.715995,-0.42291 1.71861,-1.42276 2.226563,-2.17188 0.385652,-0.56778 0.668852,-1.3043 0.839844,-2.01367 0.141403,-0.58662 0.225562,-1.1225 0.123047,-1.61133 z m 9.598689,-13.825097 c -0.02778,1.61297 0.03314,3.24437 0.210937,4.21484 0.805235,4.39978 2.64262,8.54474 5.341797,12.05469 l 0.01367,0.0176 0.01367,0.0156 c 3.070312,3.36915 6.395564,7.10984 7.570313,9.66992 1.609746,3.50928 2.315474,6.61474 2.376953,10.42774 0.0023,-0.15677 0.01172,-0.30242 0.01172,-0.45899 0,-4.0686 -0.702297,-7.29243 -2.388671,-10.96875 -1.174748,-2.56008 -4.500001,-6.30077 -7.570313,-9.66992 l -0.01367,-0.0156 -0.01367,-0.0176 c -2.699177,-3.50995 -4.536562,-7.65491 -5.341797,-12.05469 -0.139811,-0.76311 -0.199573,-1.96255 -0.210937,-3.21484 z M 58.636718,29.95118 c -1.296546,1.16304 -3.435827,2.70104 -5.078125,4.47461 -0.85636,0.92481 -1.560945,1.9047 -1.931641,2.87695 -0.253894,0.66575 -0.341751,1.31802 -0.244141,1.98243 0.04549,-0.32642 0.118371,-0.6526 0.244141,-0.98243 0.370696,-0.97225 1.075281,-1.95214 1.931641,-2.87695 1.712718,-1.84962 3.98954,-3.45471 5.261718,-4.63281 l 0.509766,-0.4707 -0.607422,-0.33399 c -0.02747,-0.0151 -0.05823,-0.0225 -0.08594,-0.0371 z" /></svg>