<?xml version="1.0" encoding="UTF-8" standalone="no"?>
<!-- Generator: Adobe Illustrator 16.0.3, SVG Export Plug-In . SVG Version: 6.00 Build 0)  -->

<svg
   xmlns:dc="http://purl.org/dc/elements/1.1/"
   xmlns:cc="http://creativecommons.org/ns#"
   xmlns:rdf="http://www.w3.org/1999/02/22-rdf-syntax-ns#"
   xmlns:svg="http://www.w3.org/2000/svg"
   xmlns="http://www.w3.org/2000/svg"
   xmlns:xlink="http://www.w3.org/1999/xlink"
   xmlns:sodipodi="http://sodipodi.sourceforge.net/DTD/sodipodi-0.dtd"
   xmlns:inkscape="http://www.inkscape.org/namespaces/inkscape"
   version="1.1"
   id="svg4031"
   sodipodi:docname="firefox_48.svg"
   inkscape:version="0.91 r13725"
   x="0px"
   y="0px"
   width="48px"
   height="48px"
   viewBox="0 0 48 48"
   enable-background="new 0 0 48 48"
   xml:space="preserve"><metadata
     id="metadata3065"><rdf:RDF><cc:Work
         rdf:about=""><dc:format>image/svg+xml</dc:format><dc:type
           rdf:resource="http://purl.org/dc/dcmitype/StillImage" /></cc:Work></rdf:RDF></metadata><defs
     id="defs3063"><marker
       inkscape:stockid="Arrow1Lend"
       orient="auto"
       refY="0.0"
       refX="0.0"
       id="Arrow1Lend"
       style="overflow:visible;"><path
         id="path3842"
         d="M 0.0,0.0 L 5.0,-5.0 L -12.5,0.0 L 5.0,5.0 L 0.0,0.0 z "
         style="fill-rule:evenodd;stroke:#000000;stroke-width:1.0pt;"
         transform="scale(0.8) rotate(180) translate(12.5,0)" /></marker><linearGradient
       inkscape:collect="always"
       xlink:href="#linearGradient4326"
       id="linearGradient4274-2-0-3-5"
       x1="-17.197968"
       y1="2.7050979"
       x2="-16.776388"
       y2="42.346199"
       gradientUnits="userSpaceOnUse"
       gradientTransform="matrix(0.70000031,0,0,0.69537264,28.173298,0.411356)" /><linearGradient
       id="linearGradient4326"><stop
         offset="0"
         style="stop-color:#ffffff;stop-opacity:1"
         id="stop4328" /><stop
         offset="0.45722568"
         style="stop-color:#ffffff;stop-opacity:0.23529412"
         id="stop4330" /><stop
         offset="0.83318615"
         style="stop-color:#ffffff;stop-opacity:0.15686275"
         id="stop4332" /><stop
         offset="1"
         style="stop-color:#ffffff;stop-opacity:0.39215687"
         id="stop4334" /></linearGradient><linearGradient
       y2="42.346199"
       x2="-16.776388"
       y1="2.7050979"
       x1="-17.197968"
       gradientTransform="matrix(0.70000031,0,0,0.69537264,34.270384,10.690596)"
       gradientUnits="userSpaceOnUse"
       id="linearGradient4770"
       xlink:href="#linearGradient4326"
       inkscape:collect="always" /><linearGradient
       inkscape:collect="always"
       xlink:href="#linearGradient4326"
       id="linearGradient4799"
       x1="-62.481998"
       y1="38.377953"
       x2="-23.482"
       y2="38.377953"
       gradientUnits="userSpaceOnUse" /><linearGradient
       inkscape:collect="always"
       xlink:href="#linearGradient4326"
       id="linearGradient4805"
       gradientUnits="userSpaceOnUse"
       x1="-62.481998"
       y1="38.377953"
       x2="-23.482"
       y2="38.377953" /><linearGradient
       inkscape:collect="always"
       xlink:href="#linearGradient4326"
       id="linearGradient5318"
       gradientUnits="userSpaceOnUse"
       x1="-43.12495"
       y1="17.783468"
       x2="-42.83905"
       y2="58.176941"
       gradientTransform="translate(66.982,-14.361)" /><linearGradient
       id="path10-3-6_2_-5"
       gradientUnits="userSpaceOnUse"
       x1="142.75"
       y1="-244.8286"
       x2="175.42799"
       y2="-224.38789"
       gradientTransform="matrix(1,0,0,-0.9993,-152.31555,-144.72649)"><stop
         offset="0"
         style="stop-color:#FF780A"
         id="stop3053-6" /><stop
         offset="1"
         style="stop-color:#FFBE3C"
         id="stop3055-2" /></linearGradient><linearGradient
       id="linearGradient4261"
       gradientUnits="userSpaceOnUse"
       x1="-559.78308"
       y1="-127.1764"
       x2="-520.98431"
       y2="-127.1764"
       gradientTransform="matrix(0,-0.962,-0.9623,0,-98.5896,-494.5154)"><stop
         offset="0"
         style="stop-color:#0D52BF"
         id="stop3036-9" /><stop
         offset="1"
         style="stop-color:#64BAFF"
         id="stop3038-1" /></linearGradient><linearGradient
       id="linearGradient4265"
       gradientUnits="userSpaceOnUse"
       x1="378.47989"
       y1="-460.11151"
       x2="378.47989"
       y2="-517.06409"
       gradientTransform="matrix(0.631,0,0,-0.6308,-215.0463,-283.8547)"><stop
         offset="0"
         style="stop-color:#FFFFFF"
         id="stop3043-2" /><stop
         offset="0.0899"
         style="stop-color:#FFFFFF;stop-opacity:0.2353"
         id="stop3045-7" /><stop
         offset="0.8739"
         style="stop-color:#FFFFFF;stop-opacity:0.1569"
         id="stop3047-0" /><stop
         offset="1"
         style="stop-color:#FFFFFF;stop-opacity:0.3922"
         id="stop3049-9" /></linearGradient><linearGradient
       gradientTransform="matrix(0,-0.962,-0.9623,0,-98.5896,-494.5154)"
       y2="-127.1764"
       x2="-520.98431"
       y1="-127.1764"
       x1="-559.78308"
       gradientUnits="userSpaceOnUse"
       id="linearGradient4199"><stop
         id="stop4201"
         style="stop-color:#0D52BF"
         offset="0" /><stop
         id="stop4203"
         style="stop-color:#64BAFF"
         offset="1" /></linearGradient><linearGradient
       gradientTransform="matrix(0.631,0,0,-0.6308,-215.0463,-283.8547)"
       y2="-517.06409"
       x2="378.47989"
       y1="-460.11151"
       x1="378.47989"
       gradientUnits="userSpaceOnUse"
       id="linearGradient4207"><stop
         id="stop4209"
         style="stop-color:#FFFFFF"
         offset="0" /><stop
         id="stop4211"
         style="stop-color:#FFFFFF;stop-opacity:0.2353"
         offset="0.0899" /><stop
         id="stop4213"
         style="stop-color:#FFFFFF;stop-opacity:0.1569"
         offset="0.8739" /><stop
         id="stop4215"
         style="stop-color:#FFFFFF;stop-opacity:0.3922"
         offset="1" /></linearGradient><linearGradient
       id="path10-3-6_2_-5-8"
       gradientUnits="userSpaceOnUse"
       x1="142.75"
       y1="-244.8286"
       x2="175.42799"
       y2="-224.38789"
       gradientTransform="matrix(1,0,0,-0.9993,-152.31562,-145.72595)"><stop
         offset="0"
         style="stop-color:#FF780A"
         id="stop3053-6-7" /><stop
         offset="1"
         style="stop-color:#FFBE3C"
         id="stop3055-2-9" /></linearGradient></defs><sodipodi:namedview
     inkscape:cy="26.529705"
     inkscape:cx="33.014894"
     inkscape:zoom="8"
     showgrid="false"
     id="namedview37"
     guidetolerance="10"
     gridtolerance="10"
     objecttolerance="10"
     borderopacity="1"
     bordercolor="#666666"
     pagecolor="#ffffff"
     inkscape:current-layer="svg4031"
     inkscape:window-maximized="1"
     inkscape:window-y="30"
     inkscape:window-height="705"
     inkscape:window-x="0"
     inkscape:window-width="1366"
     inkscape:pageshadow="2"
     inkscape:pageopacity="0"
     inkscape:showpageshadow="true" /><radialGradient
     id="rect4321_1_"
     cx="201.6602"
     cy="-2086.7813"
     r="17"
     gradientTransform="matrix(1 0 0 -0.3235 -177.6602 -633.6355)"
     gradientUnits="userSpaceOnUse"><stop
       offset="0"
       style="stop-color:#000000"
       id="stop3029" /><stop
       offset="1"
       style="stop-color:#000000;stop-opacity:0"
       id="stop3031" /></radialGradient><rect
     id="rect4321"
     x="7"
     y="36"
     opacity="0.5"
     fill="url(#rect4321_1_)"
     enable-background="new    "
     width="34"
     height="11" /><g
     id="g4208"
     transform="matrix(0.97402561,0,0,0.97402539,0.82534053,1.1422175)"><linearGradient
       id="rect4_1_"
       gradientUnits="userSpaceOnUse"
       x1="-559.78308"
       y1="-127.1764"
       x2="-520.98431"
       y2="-127.1764"
       gradientTransform="matrix(0,-0.962,-0.9623,0,-98.5896,-494.5154)"><stop
         offset="0"
         style="stop-color:#0D52BF"
         id="stop3036" /><stop
         offset="1"
         style="stop-color:#64BAFF"
         id="stop3038" /></linearGradient><path
       id="rect4"
       d="m 4.626,24.827 0,0 c 0,-10.581 8.578,-19.16 19.16,-19.16 l 0.013,0 c 10.582,0 19.16,8.578 19.16,19.16 l 0,0 c 0,10.581 -8.578,19.16 -19.16,19.16 l -0.013,0 C 13.204,43.986 4.626,35.408 4.626,24.827 Z"
       style="fill:url(#rect4_1_)"
       inkscape:connector-curvature="0" /><path
       id="rect4-5"
       enable-background="new    "
       d="m 4.639,24.827 0,0 C 4.639,14.253 13.211,5.68 23.786,5.68 l 0.013,0 c 10.575,0 19.147,8.573 19.147,19.147 l 0,0 c 0,10.575 -8.572,19.148 -19.147,19.148 l -0.013,0 C 13.211,43.974 4.639,35.402 4.639,24.827 Z"
       inkscape:connector-curvature="0"
       style="opacity:0.7;fill:none;stroke:#0d52bf;stroke-width:1.02670002" /><linearGradient
       id="path3804_1_"
       gradientUnits="userSpaceOnUse"
       x1="378.47989"
       y1="-460.11151"
       x2="378.47989"
       y2="-517.06409"
       gradientTransform="matrix(0.631,0,0,-0.6308,-215.0463,-283.8547)"><stop
         offset="0"
         style="stop-color:#FFFFFF"
         id="stop3043" /><stop
         offset="0.0899"
         style="stop-color:#FFFFFF;stop-opacity:0.2353"
         id="stop3045" /><stop
         offset="0.8739"
         style="stop-color:#FFFFFF;stop-opacity:0.1569"
         id="stop3047" /><stop
         offset="1"
         style="stop-color:#FFFFFF;stop-opacity:0.3922"
         id="stop3049" /></linearGradient><ellipse
       id="path3804"
       enable-background="new    "
       cx="23.792999"
       cy="24.826"
       rx="18.141001"
       ry="18.134001"
       style="opacity:0.5;fill:none;stroke:url(#path3804_1_);stroke-width:1.02670002" /></g><linearGradient
     id="path10-3-6_2_"
     gradientUnits="userSpaceOnUse"
     x1="142.75"
     y1="-244.8286"
     x2="175.428"
     y2="-224.3879"
     gradientTransform="matrix(1 0 0 -0.9993 -136.2705 -210.8252)"><stop
       offset="0"
       style="stop-color:#FF780A"
       id="stop3053" /><stop
       offset="1"
       style="stop-color:#FFBE3C"
       id="stop3055" /></linearGradient><path
     id="path10-3-6"
     sodipodi:nodetypes="ccccccccsccccccccccccccccccccccccccccccccccccccccccccccccssscccscccc"
     inkscape:connector-curvature="0"
     d="  M30.965,2.512l-0.176,0.312c-0.041,0.051-0.081,0.103-0.123,0.156c-0.926,1.227-1.451,2.612-2.004,4.101  c-0.211,0.571-0.436,1.432-0.559,2.149c-0.125,0.718-0.137,2.315-0.02,2.943c0.307,1.664,1.008,3.232,2.037,4.559  c1.192,1.298,2.489,2.729,2.973,3.773c0.664,1.437,0.945,2.715,0.945,4.304c0,0.479-0.027,0.972-0.068,1.265  c-1.008,4.707-4.343,8.406-9.023,8.432c-2.963,0.012-6.947-0.999-7.484-4.058c1.427,0.217,2.497,0.14,3.517,0.132  c0.942-0.006,1.841-0.209,2.938-0.791c1.635-0.872,2.445-1.033,2.893-0.981c0.659,0.077,0.742,0.075,0.887-0.016  c0.306-0.191,0.393-0.269,0.217-0.634c-0.223-0.46-1.006-1.104-1.662-1.365c-0.55-0.221-0.85-0.275-1.508-0.275  c-0.671-0.001-1.24,0.031-2.449,0.397c-1.208,0.366-1.876,0.421-2.621,0.213c-3.097-0.741-4.669-3.489-3.162-5.498  c0.907-0.042,2.748,0.568,3.322,0.959c0.549-0.539-0.643-1.369-0.834-2.127c0-0.946,1.93-1.498,2.723-1.854  c0.522-0.234,1.031-0.475,1.131-0.533c0.216-0.126,0.633-0.531,0.803-0.778c0.259-0.378,0.429-1.079,0.324-1.332  c-0.131-0.317-1.016-0.515-3.154-0.705c-0.808-0.072-1.36-0.44-1.785-1.19c-0.746-1.723,1.895-3.362,2.84-4.229  c-1.503-0.82-4.296,0.618-5.191,1.458c-0.287,0.283-0.199,0.279-1.068,0.051c-0.058-0.016-0.118-0.029-0.18-0.043  c-0.022-0.005-0.044-0.011-0.066-0.016c-0.04-0.009-0.082-0.017-0.123-0.025c-0.029-0.006-0.058-0.012-0.088-0.018  c-0.034-0.006-0.067-0.014-0.102-0.02c-0.036-0.006-0.071-0.012-0.107-0.018c-0.026-0.004-0.052-0.007-0.078-0.012  c-0.23-0.036-0.471-0.067-0.713-0.09c-0.265-0.024-0.531-0.041-0.787-0.047c-0.077-0.002-0.154-0.002-0.229-0.002  c-0.081,0-0.159,0-0.236,0.002c-0.015,0-0.03,0.001-0.045,0.002c-0.065,0.002-0.129,0.005-0.191,0.008  c-0.01,0-0.018,0.001-0.025,0.002c-0.069,0.004-0.135,0.009-0.199,0.016c-0.01,0-0.011,0.001-0.016,0.002  c-0.066,0.006-0.127,0.015-0.188,0.023h-0.002c-0.027,0.004-0.056,0.007-0.082,0.012c-0.287-0.001-0.549,0.08-0.773,0.184  c-0.752-1.27-0.935-3.515-1.52-4.786c-1.368,0.716-2.305,4.236-2.537,5.436c-0.089,0.477-0.191,1.403-0.191,1.731  c0,0.047-0.012,0.066-0.014,0.1C5.153,16.89,4,20.565,4,24.513c0,11.038,8.954,19.986,20,19.986c11.045,0,20-8.948,20-19.986  c0-6.996-3.135-10.59-6.238-15.5c0-0.003,0-0.005-0.01-0.008c-0.457-0.684-0.854-1.434-1.174-2.178  c-0.051-0.164-0.109-0.299-0.131-0.299c-0.01,0-0.02,0.006-0.031,0.018c-0.403,0.487-0.598,2.384-0.814,2.977  c-1.561-2.161-3.496-4.309-4.516-6.703L30.965,2.512z"
     fill="url(#path10-3-6_2_)" /><line
     fill="none"
     stroke="#FF0000"
     x1="-44.406"
     y1="-16.189"
     x2="-44.511"
     y2="-16.209"
     id="line3059" /><path
     id="path10-3-6_1_"
     sodipodi:nodetypes="ccccccccsccccccccccccccccccccccccccccccccccccccccccccccccssscccscccc"
     inkscape:connector-curvature="0"
     d="M 30.962,2.511 30.786,2.823 C 30.745,2.874 30.705,2.926 30.663,2.979 29.737,4.206 29.212,5.591 28.659,7.08 28.448,7.651 28.223,8.512 28.1,9.229 c -0.125,0.718 -0.137,2.314 -0.02,2.943 0.307,1.664 1.008,3.232 2.037,4.559 1.192,1.299 2.489,2.729 2.973,3.773 0.664,1.437 0.945,2.715 0.945,4.305 0,0.479 -0.027,0.971 -0.068,1.264 -1.008,4.707 -4.343,8.406 -9.023,8.432 -2.963,0.012 -6.947,-0.998 -7.484,-4.057 1.427,0.217 2.497,0.139 3.517,0.131 0.942,-0.006 1.841,-0.209 2.938,-0.791 1.635,-0.871 2.445,-1.033 2.893,-0.98 0.659,0.076 0.742,0.074 0.887,-0.016 0.306,-0.191 0.393,-0.27 0.217,-0.635 -0.223,-0.459 -1.006,-1.104 -1.662,-1.365 -0.55,-0.221 -0.85,-0.275 -1.508,-0.275 -0.671,0 -1.24,0.031 -2.449,0.398 -1.208,0.365 -1.876,0.42 -2.621,0.213 -3.097,-0.742 -4.669,-3.49 -3.162,-5.498 0.907,-0.041 2.748,0.568 3.322,0.959 0.549,-0.539 -0.643,-1.369 -0.834,-2.127 0,-0.946 1.93,-1.498 2.723,-1.854 0.522,-0.234 1.031,-0.475 1.131,-0.533 0.216,-0.127 0.633,-0.531 0.803,-0.779 0.259,-0.378 0.429,-1.078 0.324,-1.331 -0.131,-0.317 -1.016,-0.515 -3.154,-0.704 -0.808,-0.072 -1.36,-0.441 -1.785,-1.191 -0.746,-1.723 1.895,-3.361 2.84,-4.229 -1.503,-0.82 -4.296,0.618 -5.191,1.458 -0.287,0.283 -0.199,0.279 -1.068,0.051 -0.058,-0.016 -0.118,-0.028 -0.18,-0.043 -0.022,-0.005 -0.044,-0.01 -0.066,-0.016 -0.04,-0.009 -0.082,-0.017 -0.123,-0.025 -0.029,-0.006 -0.058,-0.012 -0.088,-0.018 -0.034,-0.006 -0.067,-0.014 -0.102,-0.02 -0.036,-0.006 -0.071,-0.012 -0.107,-0.018 -0.026,-0.004 -0.052,-0.007 -0.078,-0.012 -0.23,-0.035 -0.471,-0.066 -0.713,-0.09 -0.265,-0.023 -0.531,-0.04 -0.787,-0.047 -0.077,-0.002 -0.154,-0.002 -0.229,-0.002 -0.081,0 -0.159,0 -0.236,0.002 -0.015,10e-4 -0.03,0.002 -0.045,0.002 -0.065,0.002 -0.129,0.006 -0.191,0.008 -0.01,10e-4 -0.018,0.002 -0.025,0.002 -0.069,0.004 -0.135,0.01 -0.199,0.016 -0.01,10e-4 -0.011,0.002 -0.016,0.002 -0.066,0.006 -0.127,0.016 -0.188,0.023 h -0.002 c -0.027,0.004 -0.056,0.008 -0.082,0.012 -0.287,0 -0.549,0.08 -0.773,0.184 C 10.639,10.04 10.456,7.796 9.871,6.524 8.503,7.24 7.566,10.761 7.334,11.96 c -0.089,0.477 -0.191,1.403 -0.191,1.73 0,0.048 -0.012,0.066 -0.014,0.1 C 5.153,16.89 4,20.565 4,24.513 c 0,11.037 8.954,19.986 20,19.986 11.045,0 20,-8.949 20,-19.986 0,-6.996 -3.135,-10.59 -6.238,-15.5 0,-0.003 0,-0.005 -0.01,-0.008 C 37.295,8.321 36.898,7.571 36.578,6.827 36.527,6.663 36.469,6.528 36.447,6.528 c -0.01,0 -0.02,0.006 -0.031,0.018 C 36.013,7.033 35.818,8.93 35.602,9.523 34.041,7.362 32.106,5.214 31.086,2.82 L 30.962,2.511 z"
     style="opacity:0.7;fill:none;stroke:#f37329;stroke-opacity:1;stroke-width:1;stroke-miterlimit:4;stroke-dasharray:none" /><path
     d="m 14.896,12.211 c -0.18,-0.027 -0.601,-0.088 -0.822,-0.107 -0.243,-0.023 -0.486,-0.037 -0.722,-0.043 l -0.202,-0.002 -0.988,0.066 c -0.102,0 -0.219,0.029 -0.351,0.092 l -0.82,0.377 -0.46,-0.775 C 10.034,10.979 9.774,9.892 9.522,8.841 9.503,8.762 9.484,8.683 9.465,8.605 8.992,9.577 8.547,10.958 8.316,12.149 8.235,12.581 8.143,13.44 8.143,13.692 L 8.126,13.891 8.117,14.1 7.972,14.327 C 6.028,17.376 5,20.897 5,24.511 c 0,10.471 8.523,18.988 19,18.988 10.477,0 19,-8.518 19,-18.988 0,-5.695 -2.201,-9.037 -4.749,-12.908 -0.41,-0.623 -0.828,-1.257 -1.245,-1.914 L 36.92,9.561 C 36.849,9.455 36.778,9.301806 36.71,9.191806 36.66805,9.437806 36.603,9.695 36.541,9.866 l -0.647,1.769 -1.103,-1.527 C 34.394,9.558 33.971,9.009 33.547,8.456 32.588,7.208 31.581903,5.915951 30.844049,4.534903 30.342049,5.436903 29.961,6.456 29.6,7.43 29.411,7.942 29.201,8.753 29.089,9.4 c -0.105,0.604 -0.117,2.08 -0.022,2.589 0.277,1.506 0.915,2.932 1.844,4.131 1.355,1.469 2.565,2.83 3.09,3.965 0.728,1.576 1.038,2.988 1.038,4.725 0,0.521 -0.03,1.059 -0.078,1.402 -1.206,5.648 -5.13,9.268 -10.008,9.295 -3.544,0 -7.841,-1.279 -8.474,-4.885 l -0.241,-1.371 1.376,0.209 c 0.816,0.12 1.49,0.138 1.986,0.138 0.271,0 0.53,-0.006 0.784,-0.012 l 0.59,-0.01 c 0.855,-0.004 1.596,-0.207 2.477,-0.674 1.121,-0.598 2.21075,-1.042563 2.78175,-1.014125 -0.084,-0.047 -0.06062,-0.05875 -0.145625,-0.09175 C 25.655125,27.567438 25.282,27.513 24.747,27.513 c -0.597,0 -1.07,0.025 -2.158,0.355 -1.447,0.438 -2.226,0.484 -3.18,0.221 -2.007,-0.48 -3.643,-1.805 -4.234,-3.445 -0.448,-1.244 -0.251,-2.563 0.541,-3.617 l 0.283,-0.377 0.607,-0.025 c 0.414,0 1.03075,0.17975 1.56275,0.31275 C 18.15375,20.89275 18.046,20.752 18.034,20.703 l -0.03,-0.244 c 0,-1.457 1.708,-2.129 2.839,-2.572 0.18,-0.07 0.344,-0.135 0.473,-0.193 0.466,-0.209 0.921,-0.422 1.043,-0.488 0.092,-0.061 0.385,-0.344 0.477,-0.477 0.033,-0.049 0.065,-0.119 0.093,-0.193 -0.347,-0.076 -0.991,-0.174 -2.188,-0.281 -1.139,-0.102 -1.979,-0.656 -2.567,-1.693 l -0.048,-0.096 c -0.499687,-1.331625 0.07325,-2.562125 0.785625,-3.340063 -0.510312,0.17 -0.678375,0.236687 -1.36275,0.751625 -0.224916,0.189 -0.654673,0.636438 -1.188875,0.636438 -0.235,0 -0.442,-0.055 -0.817,-0.154 l -0.848,-0.18"
     id="path3061"
     style="opacity:0.5;fill:none;stroke:url(#linearGradient5318);stroke-width:1;stroke-linecap:butt;stroke-linejoin:miter;stroke-miterlimit:5.19999981;stroke-dasharray:none;stroke-dashoffset:0"
     inkscape:connector-curvature="0"
     sodipodi:nodetypes="cccccccccccccccsssccccccccccccccscccccscccccscccccccccccccccccccscc" /><path
     id="path4369"
     style="fill:#000000;fill-opacity:1;opacity:0.5"
     d="m 28.202875,28.923363 c -0.116747,0.156981 -0.260242,0.228182 -0.382813,0.304687 l 0,0.002 c -0.107407,0.06667 -0.324318,0.141132 -0.505859,0.144532 -0.181541,0.0034 -0.370756,-0.01831 -0.703125,-0.05664 l 0,-0.002 c -0.260123,-0.03077 -1.002436,0.07472 -2.599609,0.925781 l -0.002,0 c -1.154385,0.612444 -2.156167,0.843209 -3.167969,0.849609 -0.752955,0.0059 -1.719949,-0.02948 -2.714844,-0.103515 0.159781,0.383329 0.388453,0.724012 0.65625,1.037109 0.752152,0.04359 1.476348,0.07097 2.058594,0.06641 1.011802,-0.0064 2.013585,-0.237165 3.167969,-0.849609 l 0.002,0 c 1.597224,-0.850968 2.339486,-0.956555 2.599609,-0.925781 l 0,0.002 c 0.332369,0.03833 0.521584,0.06001 0.703125,0.05664 0.181541,-0.0034 0.398452,-0.07786 0.505859,-0.144532 l 0,-0.002 c 0.161215,-0.100625 0.36028,-0.189014 0.484376,-0.480469 0.124089,-0.291454 0.0261,-0.570674 -0.08203,-0.794922 l 0,-0.002 c -0.0048,-0.01 -0.0145,-0.01747 -0.01953,-0.02734 z M 16.773187,22.147972 c -0.336008,0.564284 -0.429811,1.15624 -0.287109,1.744141 0.057,-0.251002 0.142158,-0.500714 0.287109,-0.744141 0.36007,0.02629 0.825317,0.09025 1.332032,0.244141 0.615221,0.186842 1.219126,0.452697 1.40039,0.576171 l 0.337891,0.230469 0.292969,-0.287109 c 0.247571,-0.243062 0.329915,-0.638458 0.265625,-0.921875 -0.02468,-0.108822 -0.06703,-0.199633 -0.109375,-0.291016 -0.04203,0.07776 -0.09287,0.150666 -0.15625,0.212891 L 19.8435,23.198753 19.505609,22.968284 C 19.324345,22.84481 18.72044,22.578955 18.105219,22.392113 17.598505,22.238222 17.133257,22.174262 16.773187,22.147972 Z m 7.605469,-5.431641 c -0.07444,0.287928 -0.185206,0.576785 -0.357422,0.828125 -0.242414,0.35364 -0.587934,0.708423 -0.960937,0.927735 l -0.002,0 c -0.108493,0.06293 -0.236831,0.122313 -0.445313,0.220703 -0.208482,0.09839 -0.46831,0.217542 -0.732422,0.335937 -0.446676,0.200526 -1.103352,0.420527 -1.634765,0.695313 -0.265707,0.137393 -0.493668,0.286771 -0.628907,0.419922 -0.111015,0.1093 -0.124075,0.172152 -0.134765,0.232422 0.05183,0.136244 0.196068,0.352797 0.359375,0.591796 0.117749,-0.08198 0.250702,-0.164719 0.404297,-0.24414 0.531413,-0.274786 1.188089,-0.494787 1.634765,-0.695313 0.264112,-0.118395 0.52394,-0.237544 0.732422,-0.335937 0.208482,-0.09839 0.33682,-0.157777 0.445313,-0.220703 l 0.002,0 c 0.373002,-0.219312 0.718523,-0.574095 0.960937,-0.927735 0.182013,-0.265639 0.299081,-0.57285 0.373047,-0.876953 0.07381,-0.303464 0.152371,-0.563423 0.002,-0.927734 -0.0041,-0.0099 -0.01317,-0.01387 -0.01758,-0.02344 z m 3.142578,-5.408203 c -0.02577,0.699303 -0.0053,1.439829 0.08399,1.919922 0.321471,1.742436 1.056272,3.384564 2.134765,4.775391 l 0.01172,0.01563 0.01367,0.01563 c 1.190567,1.297439 2.474756,2.751705 2.888672,3.644531 0.562279,1.21686 0.816632,2.290447 0.873047,3.570312 0.0075,-0.173051 0.02539,-0.291568 0.02539,-0.474609 0,-1.53109 -0.259255,-2.712413 -0.898437,-4.095703 -0.413916,-0.892826 -1.698105,-2.347092 -2.888672,-3.644531 l -0.01367,-0.01563 -0.01172,-0.01563 c -1.078493,-1.390827 -1.813294,-3.032955 -2.134765,-4.775391 -0.04604,-0.247524 -0.06973,-0.57353 -0.08399,-0.919922 z m -5.533203,-0.978515 c -0.531253,0.458711 -1.268541,0.997701 -1.841797,1.611328 -0.31678,0.33909 -0.567241,0.690027 -0.689453,1.007812 -0.11764,0.305913 -0.120773,0.564203 -0.0039,0.855469 0.01545,0.02671 0.03147,0.04304 0.04687,0.06836 0.13072,-0.297696 0.354196,-0.618768 0.646485,-0.93164 0.633561,-0.67818 1.499341,-1.280645 2.027343,-1.765625 L 22.68725,10.70266 22.073969,10.366722 c -0.02778,-0.01516 -0.0578,-0.02317 -0.08594,-0.03711 z" /></svg>