<?xml version="1.0" encoding="UTF-8" standalone="no"?>
<!-- Generator: Adobe Illustrator 16.0.3, SVG Export Plug-In . SVG Version: 6.00 Build 0)  -->

<svg
   xmlns:dc="http://purl.org/dc/elements/1.1/"
   xmlns:cc="http://creativecommons.org/ns#"
   xmlns:rdf="http://www.w3.org/1999/02/22-rdf-syntax-ns#"
   xmlns:svg="http://www.w3.org/2000/svg"
   xmlns="http://www.w3.org/2000/svg"
   xmlns:xlink="http://www.w3.org/1999/xlink"
   xmlns:sodipodi="http://sodipodi.sourceforge.net/DTD/sodipodi-0.dtd"
   xmlns:inkscape="http://www.inkscape.org/namespaces/inkscape"
   version="1.1"
   id="svg4031"
   sodipodi:docname="firefox_64.svg"
   inkscape:version="0.92.3 (2405546, 2018-03-11)"
   x="0px"
   y="0px"
   width="64px"
   height="64px"
   viewBox="0 0 64 64"
   enable-background="new 0 0 64 64"
   xml:space="preserve"><metadata
     id="metadata57"><rdf:RDF><cc:Work
         rdf:about=""><dc:format>image/svg+xml</dc:format><dc:type
           rdf:resource="http://purl.org/dc/dcmitype/StillImage" /></cc:Work></rdf:RDF></metadata><defs
     id="defs55"><linearGradient
       id="linearGradient4214"><stop
         offset="0"
         style="stop-color:#ffffff;stop-opacity:1"
         id="stop4216" /><stop
         offset="0.44890663"
         style="stop-color:#ffffff;stop-opacity:0.23529412"
         id="stop4218" /><stop
         offset="0.84736282"
         style="stop-color:#ffffff;stop-opacity:0.15686275"
         id="stop4220" /><stop
         offset="1"
         style="stop-color:#ffffff;stop-opacity:0.39215687"
         id="stop4222" /></linearGradient><linearGradient
       id="path10-3-6_2_-5"
       gradientUnits="userSpaceOnUse"
       x1="63.659199"
       y1="-111.752"
       x2="96.337898"
       y2="-91.310799"
       gradientTransform="matrix(1.4251,0,0,-1.43,-114.97939,-1.0318843)"><stop
         offset="0"
         style="stop-color:#FF780A"
         id="stop42-6" /><stop
         offset="1"
         style="stop-color:#FFBE3C"
         id="stop44-2" /></linearGradient><linearGradient
       id="linearGradient4305"
       gradientUnits="userSpaceOnUse"
       x1="-403.99161"
       y1="-20.0308"
       x2="-365.19131"
       y2="-20.0308"
       gradientTransform="matrix(0,-1.4133,-1.385,0,3.9613,-509.4661)"><stop
         offset="0"
         style="stop-color:#0D52BF"
         id="stop25-9" /><stop
         offset="1"
         style="stop-color:#64BAFF"
         id="stop27-1" /></linearGradient><linearGradient
       id="linearGradient4309"
       gradientUnits="userSpaceOnUse"
       x1="226.4664"
       y1="-233.37691"
       x2="226.4664"
       y2="-290.3848"
       gradientTransform="matrix(0.9398,0,0,-0.928,-180.8262,-209.3992)"><stop
         offset="0"
         style="stop-color:#FFFFFF"
         id="stop32-2" /><stop
         offset="0.0899"
         style="stop-color:#FFFFFF;stop-opacity:0.2353"
         id="stop34-7" /><stop
         offset="0.8739"
         style="stop-color:#FFFFFF;stop-opacity:0.1569"
         id="stop36-0" /><stop
         offset="1"
         style="stop-color:#FFFFFF;stop-opacity:0.3922"
         id="stop38-9" /></linearGradient><radialGradient
       id="rect4321_1_-3"
       cx="201.6602"
       cy="-2054.0547"
       r="17"
       gradientTransform="matrix(1,0,0,-0.3235,-208.95309,-484.51708)"
       gradientUnits="userSpaceOnUse"><stop
         offset="0"
         style="stop-color:#000000"
         id="stop18-6" /><stop
         offset="1"
         style="stop-color:#000000;stop-opacity:0"
         id="stop20-0" /></radialGradient><radialGradient
       id="path3818-0_1_-6"
       cx="705.18359"
       cy="-3476.1409"
       r="62.7593"
       gradientTransform="matrix(0.3824,0,0,-0.1115,-237.6295,-330.6569)"
       gradientUnits="userSpaceOnUse"><stop
         offset="0"
         style="stop-color:#000000"
         id="stop6-2" /><stop
         offset="1"
         style="stop-color:#000000;stop-opacity:0"
         id="stop8-6" /></radialGradient><radialGradient
       id="path4190_1_-1"
       cx="1051.9307"
       cy="-4869.5586"
       r="62.769001"
       gradientTransform="matrix(0.2549,0,0,-0.0797,-236.1396,-328.8854)"
       gradientUnits="userSpaceOnUse"><stop
         offset="0"
         style="stop-color:#000000"
         id="stop12-8" /><stop
         offset="1"
         style="stop-color:#000000;stop-opacity:0"
         id="stop14-7" /></radialGradient><linearGradient
       gradientTransform="matrix(0,-1.4133,-1.385,0,3.9613,-509.4661)"
       y2="-20.0308"
       x2="-365.19131"
       y1="-20.0308"
       x1="-403.99161"
       gradientUnits="userSpaceOnUse"
       id="linearGradient4224"><stop
         id="stop4226"
         style="stop-color:#0D52BF"
         offset="0" /><stop
         id="stop4228"
         style="stop-color:#64BAFF"
         offset="1" /></linearGradient><linearGradient
       gradientTransform="matrix(0.9398,0,0,-0.928,-180.8262,-209.3992)"
       y2="-290.3848"
       x2="226.4664"
       y1="-233.37691"
       x1="226.4664"
       gradientUnits="userSpaceOnUse"
       id="linearGradient4232"><stop
         id="stop4234"
         style="stop-color:#FFFFFF"
         offset="0" /><stop
         id="stop4236"
         style="stop-color:#FFFFFF;stop-opacity:0.2353"
         offset="0.0899" /><stop
         id="stop4238"
         style="stop-color:#FFFFFF;stop-opacity:0.1569"
         offset="0.8739" /><stop
         id="stop4240"
         style="stop-color:#FFFFFF;stop-opacity:0.3922"
         offset="1" /></linearGradient><linearGradient
       id="path10-3-6_2_-5-9"
       gradientUnits="userSpaceOnUse"
       x1="63.659199"
       y1="-111.752"
       x2="96.337898"
       y2="-91.310799"
       gradientTransform="matrix(1.4251,0,0,-1.43,-114.97902,-2.0323402)"><stop
         offset="0"
         style="stop-color:#FF780A"
         id="stop42-6-7" /><stop
         offset="1"
         style="stop-color:#FFBE3C"
         id="stop44-2-3" /></linearGradient><linearGradient
       id="linearGradient4326"><stop
         offset="0"
         style="stop-color:#ffffff;stop-opacity:1"
         id="stop4328" /><stop
         offset="0.45722568"
         style="stop-color:#ffffff;stop-opacity:0.23529412"
         id="stop4330" /><stop
         offset="0.83318615"
         style="stop-color:#ffffff;stop-opacity:0.15686275"
         id="stop4332" /><stop
         offset="1"
         style="stop-color:#ffffff;stop-opacity:0.39215687"
         id="stop4334" /></linearGradient><linearGradient
       inkscape:collect="always"
       xlink:href="#path10-3-6_2_-5-8"
       id="linearGradient397-3"
       gradientUnits="userSpaceOnUse"
       gradientTransform="matrix(0.73624953,0,0,0.73594599,2.545171,2.6478116)"
       x1="23.409851"
       y1="63.304691"
       x2="57.358685"
       y2="29.920277" /><linearGradient
       id="path10-3-6_2_-5-8"
       gradientUnits="userSpaceOnUse"
       x1="142.75"
       y1="-244.8286"
       x2="175.42799"
       y2="-224.38789"
       gradientTransform="matrix(1,0,0,-0.9993,-152.31562,-145.72595)"><stop
         offset="0"
         style="stop-color:#FF780A"
         id="stop3053-6-7" /><stop
         offset="1"
         style="stop-color:#FFBE3C"
         id="stop3055-2-9" /></linearGradient><radialGradient
       id="rect4321_1_-36"
       cx="201.6602"
       cy="-2086.7812"
       r="17"
       gradientTransform="matrix(1,0,0,-0.3235,-241.66017,-641.69333)"
       gradientUnits="userSpaceOnUse"><stop
         offset="0"
         style="stop-color:#000000"
         id="stop3029" /><stop
         offset="1"
         style="stop-color:#000000;stop-opacity:0"
         id="stop3031" /></radialGradient><linearGradient
       inkscape:collect="always"
       xlink:href="#linearGradient1397"
       id="linearGradient1387"
       x1="-33.465771"
       y1="24.041632"
       x2="-14.627748"
       y2="24.041632"
       gradientUnits="userSpaceOnUse"
       gradientTransform="matrix(1.4728827,0,0,1.4722632,67.784553,-67.454607)" /><linearGradient
       id="linearGradient1397"
       gradientUnits="userSpaceOnUse"
       x1="378.47989"
       y1="-460.11151"
       x2="378.47989"
       y2="-517.06409"
       gradientTransform="matrix(0.61461016,0,0,-0.61441522,-265.70328,-287.06434)"><stop
         offset="0"
         style="stop-color:#FFFFFF"
         id="stop1389" /><stop
         offset="0.44649339"
         style="stop-color:#FFFFFF;stop-opacity:0.2353"
         id="stop1391" /><stop
         offset="0.74252349"
         style="stop-color:#FFFFFF;stop-opacity:0.1569"
         id="stop1393" /><stop
         offset="1"
         style="stop-color:#FFFFFF;stop-opacity:0.3922"
         id="stop1395" /></linearGradient><linearGradient
       inkscape:collect="always"
       xlink:href="#e-9-7-2-3"
       id="linearGradient4828"
       x1="257.13678"
       y1="68.803474"
       x2="295.37579"
       y2="68.803474"
       gradientUnits="userSpaceOnUse"
       gradientTransform="matrix(0.73594599,0,0,0.73624953,-235.67586,-18.597291)" /><radialGradient
       gradientUnits="userSpaceOnUse"
       gradientTransform="translate(8092.4632,8552.5202)"
       r="38.471001"
       cy="-8460.9844"
       cx="-7945.6479"
       id="e-9-7-2-3"><stop
         id="stop890-4-7-7-6"
         stop-color="#3a8ee6"
         offset=".353" /><stop
         id="stop892-7-1-0-7"
         stop-color="#5c79f0"
         offset=".472" /><stop
         id="stop894-8-1-9-5"
         stop-color="#9059ff"
         offset=".669" /><stop
         id="stop896-4-5-3-35"
         stop-color="#c139e6"
         offset="1" /></radialGradient><linearGradient
       inkscape:collect="always"
       xlink:href="#linearGradient4214"
       id="linearGradient1012"
       x1="-31.886486"
       y1="1.3456566"
       x2="-31.042473"
       y2="59.858742"
       gradientUnits="userSpaceOnUse"
       gradientTransform="translate(62.94771,0.89459424)" /><radialGradient
       gradientUnits="userSpaceOnUse"
       gradientTransform="translate(8092.4632,8552.5202)"
       r="38.471001"
       cy="-8460.9844"
       cx="-7945.6479"
       id="e-9-7-2-3-7"><stop
         id="stop890-4-7-7-6-0"
         stop-color="#3a8ee6"
         offset=".353" /><stop
         id="stop892-7-1-0-7-9"
         stop-color="#5c79f0"
         offset=".472" /><stop
         id="stop894-8-1-9-5-3"
         stop-color="#9059ff"
         offset=".669" /><stop
         id="stop896-4-5-3-35-6"
         stop-color="#c139e6"
         offset="1" /></radialGradient><linearGradient
       inkscape:collect="always"
       xlink:href="#linearGradient1397"
       id="linearGradient1068"
       x1="13.754854"
       y1="24.046759"
       x2="34.328407"
       y2="24.046759"
       gradientUnits="userSpaceOnUse" /></defs><sodipodi:namedview
     inkscape:cy="34.870632"
     inkscape:cx="-24.003975"
     inkscape:zoom="5.6568543"
     showgrid="false"
     id="namedview37"
     guidetolerance="10"
     gridtolerance="10"
     objecttolerance="10"
     borderopacity="1"
     bordercolor="#666666"
     pagecolor="#ffffff"
     inkscape:current-layer="svg4031"
     inkscape:window-maximized="1"
     inkscape:window-y="30"
     inkscape:window-height="705"
     inkscape:window-x="0"
     inkscape:window-width="1366"
     inkscape:pageshadow="2"
     inkscape:pageopacity="0" /><ellipse
     id="path276"
     cx="-32.366154"
     cy="32.059231"
     style="fill:url(#linearGradient4828);fill-opacity:1;stroke-width:1.08102214"
     transform="rotate(-90)"
     rx="14.070919"
     ry="14.076722" /><ellipse
     id="path276-6"
     cx="-32.366154"
     cy="32.059231"
     style="opacity:0.7;fill:none;fill-opacity:1;stroke:#9059ff;stroke-width:1.08102214;stroke-opacity:1"
     transform="rotate(-90)"
     rx="14.070919"
     ry="14.076722" /><g
     id="g4198"
     transform="translate(1.55e-6,1.6807946e-4)"><radialGradient
       id="path3818-0_1_"
       cx="705.1836"
       cy="-3476.1409"
       r="62.7593"
       gradientTransform="matrix(0.3824 0 0 -0.1115 -237.6295 -330.6569)"
       gradientUnits="userSpaceOnUse"><stop
         offset="0"
         style="stop-color:#000000"
         id="stop6" /><stop
         offset="1"
         style="stop-color:#000000;stop-opacity:0"
         id="stop8" /></radialGradient><path
       id="path3818-0"
       inkscape:connector-curvature="0"
       opacity="0.2"
       fill="url(#path3818-0_1_)"
       enable-background="new    "
       d="   M56,57.002C56,60.867,45.255,64,32,64S8,60.867,8,57.002s10.745-6.998,24-6.998S56,53.137,56,57.002z" /><radialGradient
       id="path4190_1_"
       cx="1051.9307"
       cy="-4869.5586"
       r="62.769"
       gradientTransform="matrix(0.2549 0 0 -0.0797 -236.1396 -328.8854)"
       gradientUnits="userSpaceOnUse"><stop
         offset="0"
         style="stop-color:#000000"
         id="stop12" /><stop
         offset="1"
         style="stop-color:#000000;stop-opacity:0"
         id="stop14" /></radialGradient><path
       id="path4190"
       inkscape:connector-curvature="0"
       opacity="0.4"
       fill="url(#path4190_1_)"
       enable-background="new    "
       d="   M48,59.002c0.003,2.761-7.158,5-15.995,5C23.169,64.004,16.003,61.765,16,59.006c0-0.002,0-0.003,0-0.004   c-0.003-2.761,7.158-5,15.995-5C40.831,54,47.997,56.238,48,58.998C48,59,48,59.001,48,59.002z" /></g><radialGradient
     id="rect4321_1_"
     cx="201.6602"
     cy="-2054.0547"
     r="17"
     gradientTransform="matrix(1 0 0 -0.3235 -177.6602 -623.0472)"
     gradientUnits="userSpaceOnUse"><stop
       offset="0"
       style="stop-color:#000000"
       id="stop18" /><stop
       offset="1"
       style="stop-color:#000000;stop-opacity:0"
       id="stop20" /></radialGradient><linearGradient
     id="path10-3-6_2_"
     gradientUnits="userSpaceOnUse"
     x1="63.6592"
     y1="-111.752"
     x2="96.3379"
     y2="-91.3108"
     gradientTransform="matrix(1.4251 0 0 -1.43 -83.6865 -113.562)"><stop
       offset="0"
       style="stop-color:#FF780A"
       id="stop42" /><stop
       offset="1"
       style="stop-color:#FFBE3C"
       id="stop44" /></linearGradient><linearGradient
     id="SVGID_1_"
     gradientUnits="userSpaceOnUse"
     x1="-83.485802"
     y1="8.7187996"
     x2="-27.4839"
     y2="8.7187996"
     gradientTransform="translate(122.42558,38.766502)"
     xlink:href="#path10-3-6_2_"><stop
       offset="0"
       style="stop-color:#FF780A"
       id="stop49" /><stop
       offset="1"
       style="stop-color:#FFBE3C"
       id="stop51" /></linearGradient><ellipse
     id="path276-6-4-6"
     cx="32.366501"
     cy="-32.058998"
     style="opacity:0.5;fill:none;fill-opacity:1;stroke:url(#linearGradient1387);stroke-width:1.08102202;stroke-opacity:1"
     transform="rotate(90)"
     rx="13.076989"
     ry="13.071488" /><path
     style="fill:url(#linearGradient397-3);fill-opacity:1;stroke-width:1"
     d="m 43.76648,1.1703047 c -0.0071,6.182e-4 -0.01454,0.00214 -0.02152,0.00427 -0.0043,0 -0.01,0.00741 -0.01439,0.00869 -0.0043,0.00142 -0.01282,0.00741 -0.02009,0.010113 l 0.01,-0.018688 C 36.668316,5.3021258 31.470948,14.306672 31.09204,18.295497 c 0.367337,-0.03074 0.735743,-0.04705 1.104377,-0.04887 7.774712,-6.51e-4 14.077753,6.299144 14.077896,14.070655 -1.43e-4,7.77151 -6.303184,14.071306 -14.077896,14.070655 -1.63026,-0.0058 -3.247096,-0.294769 -4.778432,-0.853813 -0.05144,-0.015 -0.1026,-0.03034 -0.153857,-0.04599 -0.07111,-0.02671 -0.141788,-0.05971 -0.212838,-0.08769 -0.185151,-0.07133 -0.368762,-0.146577 -0.550735,-0.225672 -0.02451,-0.01068 -0.04888,-0.01934 -0.07339,-0.03018 -0.161239,-0.07286 -0.322706,-0.147558 -0.481736,-0.229983 l 0.02009,0.01296 c -0.138367,-0.06623 -0.277162,-0.135348 -0.415573,-0.206985 0.133238,0.06403 0.258495,0.13297 0.395438,0.194048 -0.04161,-0.02152 -0.08222,-0.04558 -0.12369,-0.06756 -10.000395,-5.700904 -6.827342,-16.132231 2.832833,-14.17271 0.876875,0 3.385364,-2.447066 3.432474,-3.156519 -0.0114,-0.231823 -4.977504,-2.206987 -6.91384,-4.113823 -1.034437,-1.019286 -1.524852,-1.510702 -1.959976,-1.878674 -0.0029,0.0013 -0.0043,0.0016 -0.0071,0.0028 0.0029,-0.0019 0.0043,-0.0024 0.0071,-0.0043 -0.0043,-0.004 -0.01,-0.0075 -0.01439,-0.01154 -0.230879,-0.194589 -0.471633,-0.377171 -0.721863,-0.54621 -0.162693,-0.569148 -0.286283,-1.145916 -0.370999,-1.727748 -0.04232,-0.290678 -0.07496,-0.581563 -0.09776,-0.873937 -0.114427,-1.461866 0.01482,-2.938964 0.388256,-4.369678 l -0.0043,0.0028 v -0.0028 c -3.84e-4,1.85e-4 -7.41e-4,-1.85e-4 -0.0014,0 -0.328662,0.1591 -0.652864,0.327614 -0.972093,0.503087 -1.917683,1.054112 -3.659306,2.398644 -5.163809,3.987333 -0.250972,0.265016 -0.495915,0.536676 -0.733363,0.815001 h -0.0071 c -1.130882,-1.432885 -1.051253,-6.156945 -0.986458,-7.143849 -3.99e-4,1.63e-4 -7.41e-4,-1.62e-4 -0.0014,0 -0.334804,0.134479 -0.65439,0.304078 -0.953384,0.505963 -0.997786,0.71185 -1.929894,1.511296 -2.786819,2.387511 -2.43e-4,2.45e-4 -0.0014,-2.45e-4 -0.0014,0 -0.976911,0.990238 -1.867851,2.060536 -2.666037,3.19964 -1.834776,2.599524 -3.136273,5.536586 -3.829352,8.641616 l -0.03748,0.1883 c -0.05372,0.250957 -0.247281,1.507895 -0.280412,1.780931 0,0.02134 -0.0071,0.04047 -0.0085,0.06181 -0.01425,0.0749 -0.02551,0.15033 -0.03748,0.225672 0.0114,-0.07426 0.02451,-0.14591 0.03448,-0.228546 -0.0029,0.01239 -0.0043,0.02496 -0.0071,0.03738 0.0014,-0.01296 0.0043,-0.02386 0.0057,-0.03738 C 3.68354,30.213922 3.529982,31.531513 3.5,32.854787 v 0.146615 c 4.99e-4,-1.67e-4 7.41e-4,1.65e-4 0.0014,0 0.01454,14.804443 11.358165,27.137835 26.115274,28.394297 14.757124,1.256448 28.02217,-8.98169 30.541416,-23.570401 0.04788,-0.367974 0.08678,-0.732266 0.12939,-1.10392 C 60.87525,31.865857 60.23903,26.940488 58.436788,22.39343 55.210046,14.358663 49.740289,11.115142 45.273349,4.0580976 45.047315,3.7011635 44.821936,3.3446553 44.601802,2.9671156 44.475974,2.7514834 44.3745,2.5566178 44.286891,2.3777839 44.101526,2.0190166 43.95867,1.6398602 43.861243,1.2479908 c 1.28e-4,-0.03732 -0.02764,-0.068813 -0.0647,-0.073315 -0.01,-0.00299 -0.01895,-0.00427 -0.02878,-0.00427 z"
     id="path980-0-9-7"
     inkscape:connector-curvature="0"
     sodipodi:nodetypes="cccccccccccccccccccccccccccccccccsccccccccccccccccccccsccccccccsc" /><path
     style="opacity:0.5;fill:none;fill-opacity:1;stroke:#a62100;stroke-width:1;stroke-opacity:1"
     d="m 43.76648,1.170742 c -0.0071,6.125e-4 -0.01454,0.00142 -0.02152,0.00427 -0.0043,0 -0.01,0.00712 -0.01439,0.00855 -0.0043,0.00142 0.104025,-0.05964 0.09676,-0.056791 l -0.106876,0.048117 C 36.668316,5.3023138 31.470948,14.306864 31.09204,18.295681 c 0.367337,-0.03077 0.735743,-0.04701 1.104377,-0.04886 7.774712,-6.41e-4 14.077753,6.299147 14.077896,14.070654 -1.43e-4,7.771521 -6.303184,14.071308 -14.077896,14.070667 -1.63026,-0.0057 -3.247096,-0.294768 -4.778432,-0.853822 -0.05144,-0.01496 -0.1026,-0.03034 -0.153857,-0.04601 -0.07111,-0.02664 -0.141788,-0.05968 -0.212838,-0.08774 -0.185151,-0.07136 -0.368762,-0.146572 -0.550735,-0.22567 -0.02451,-0.01 -0.04888,-0.01937 -0.07339,-0.0302 -0.161239,-0.07293 -0.322706,-0.147555 -0.481736,-0.229986 l 0.02009,0.01282 c -0.138367,-0.06624 -0.277162,-0.135319 -0.415573,-0.206982 0.133238,0.0641 0.258495,0.133041 0.395438,0.194048 -0.04161,-0.02151 -0.08222,-0.04558 -0.12369,-0.06752 -10.000395,-5.700906 -6.827342,-16.132223 2.832833,-14.172712 0.876875,0 3.385364,-2.447059 3.432474,-3.156518 -0.0114,-0.231823 -4.977504,-2.206988 -6.91384,-4.113823 -1.034437,-1.019283 -1.524852,-1.510692 -1.959976,-1.878675 -0.0029,0.0013 -0.0043,0.0014 -0.0071,0.0028 0.0029,-0.0014 0.0043,-0.0028 0.0071,-0.0043 -0.0043,-0.0043 -0.01,-0.0071 -0.01439,-0.0114 -0.230879,-0.194589 -0.471633,-0.377171 -0.721863,-0.546206 -0.162693,-0.569153 -0.286283,-1.145913 -0.370999,-1.727744 -0.04232,-0.29068 -0.07496,-0.58156 -0.09776,-0.873935 -0.114427,-1.461877 0.01482,-2.938966 0.388256,-4.369676 l -0.0043,0.0028 v -0.0028 c -3.84e-4,1.85e-4 -7.41e-4,-1.86e-4 -0.0014,0 -0.328662,0.159092 -0.652864,0.327601 -0.972093,0.503074 -1.917683,1.054124 -3.659306,2.398657 -5.163809,3.987335 -0.250972,0.265027 -0.495915,0.536677 -0.733363,0.815008 h -0.0071 c -1.130882,-1.43289 -1.051253,-6.156947 -0.986458,-7.143852 -3.99e-4,1.57e-4 -7.41e-4,-1.57e-4 -0.0014,0 -0.334804,0.134465 -0.65439,0.304084 -0.953384,0.505966 -0.997786,0.711851 -1.929894,1.51129 -2.786819,2.387503 -2.43e-4,2.57e-4 -0.0014,-2.42e-4 -0.0014,0 C 9.807992,16.040164 8.917052,17.11047 8.118866,18.249574 6.28409,20.849088 4.982593,23.78616 4.289514,26.891185 l -0.03748,0.188307 c -0.05372,0.250954 -0.247281,1.507886 -0.280412,1.780932 0,0.02137 -0.0071,0.04045 -0.0085,0.06182 -0.01425,0.07492 -0.02551,0.150319 -0.03748,0.22567 0.0114,-0.07421 0.02451,-0.145917 0.03448,-0.228547 -0.0029,0.01282 -0.0043,0.02493 -0.0071,0.03732 0.0014,-0.01282 0.0043,-0.02393 0.0057,-0.03732 C 3.68354,30.214089 3.529982,31.531672 3.5,32.854954 v 0.146615 c 4.99e-4,-1.71e-4 7.41e-4,1.56e-4 0.0014,0 0.01454,14.80444 11.358165,27.13784 26.115274,28.394302 14.757124,1.256448 28.02217,-8.98169 30.541416,-23.570408 C 60.20597,37.45748 60.24487,37.0932 60.28748,36.721541 60.87525,31.866025 60.23903,26.940655 58.436788,22.393596 55.210046,14.358841 49.740289,11.115321 45.273349,4.0582728 45.047315,3.7013429 44.821936,3.3448262 44.601802,2.9672851 44.475974,2.7516572 44.3745,2.5567972 44.286891,2.377962 44.101526,2.0191946 43.95867,1.6400297 43.861243,1.2481589 c 1.28e-4,-0.03732 -0.02764,-0.068799 -0.0647,-0.073357 -0.01,-0.00285 -0.01895,-0.00427 -0.02878,-0.00427 z"
     id="path980-0-9-7-06"
     inkscape:connector-curvature="0"
     sodipodi:nodetypes="cccccccccccccccccccccccccccccccccsccccccccccccccccccccsccccccccsc" /><path
     style="opacity:0.5;fill:none;fill-opacity:1;stroke:url(#linearGradient1012);stroke-width:1;stroke-opacity:1"
     d="m 43.19145,2.7066508 c -2.969524,1.972752 -5.660781,4.747172 -7.623047,7.6230422 -1.812017,2.655689 -2.854103,5.151779 -3.294921,6.919929 8.202725,0.13015 14.837738,6.816215 14.83789,15.046865 -1.53e-4,8.3122 -6.76122,15.07101 -15.076172,15.07031 h -0.002 -0.002 c -1.745911,-0.006 -3.479013,-0.3153 -5.119141,-0.91406 -0.03421,-0.0102 -0.0694,-0.0189 -0.103515,-0.0293 l -0.0293,-0.01 -0.0293,-0.01 c -0.117782,-0.0442 -0.187253,-0.0783 -0.220702,-0.0918 -0.198532,-0.0765 -0.395092,-0.15759 -0.589844,-0.24219 h -0.002 c 0.01818,0.008 -0.0072,-0.002 -0.07813,-0.0332 h -0.0039 l -0.002,-0.002 c -0.149879,-0.0678 -0.312811,-0.14441 -0.478516,-0.22851 l -0.002,-0.002 -0.002,0.004 c -0.136814,-0.0655 -0.27375,-0.13292 -0.410156,-0.20312 -0.0016,-10e-4 -0.0044,-0.003 -0.0059,-0.004 -0.0091,-0.005 -0.01824,-0.009 -0.02734,-0.0137 l 0.02539,-0.0488 c -5.085255,-3.00002 -7.088147,-7.35459 -6.220703,-10.9082 0.866379,-3.54926 4.641096,-5.92063 9.699219,-5 0.05367,-0.0258 0.222048,-0.0792 0.404297,-0.20118 0.293089,-0.19622 0.658965,-0.49658 0.998046,-0.8164 0.274126,-0.25856 0.499695,-0.5178 0.701172,-0.75781 -0.478698,-0.23694 -1.095793,-0.53515 -1.800781,-0.89649 -1.512219,-0.77508 -3.276079,-1.73109 -4.425781,-2.86328 -0.513119,-0.4965 -1.021274,-0.99811 -1.529297,-1.49982 -0.359402,-0.34394 -0.653767,-0.54418 -1.023438,-0.82028 l -0.302734,-0.20508 -0.09961,-0.34961 c -0.174979,-0.61213 -0.307317,-1.23356 -0.398438,-1.85937 -0.04546,-0.31226 -0.08092,-0.62459 -0.105469,-0.939455 -0.06702,-0.85616 0.138093,-1.70344 0.226563,-2.55859 -1.541469,0.93297 -3.017231,1.97906 -4.257813,3.289055 -0.239731,0.25314 -0.47168,0.51292 -0.697265,0.77734 l -0.300782,0.34961 H 14.867 l -0.300782,-0.3789 c -0.903612,-1.14493 -1.034047,-2.735025 -1.152344,-4.283205 -0.05491,-0.71867 -0.01758,-1.05346 -0.02148,-1.64648 -0.712606,0.55302 -1.421176,1.11204 -2.052734,1.75781 l -0.0039,-0.002 0.0039,0.002 c -0.937387,0.95017 -1.799979,1.98043 -2.566413,3.074205 v 0.002 l -0.002,0.002 c -1.75862,2.49163 -3.00562,5.30514 -3.669922,8.28125 l -0.03516,0.17383 v 0.006 c -0.01358,0.0635 -0.244395,1.51837 -0.265625,1.69336 l 0.0059,-0.12109 c 0,0.24352 -0.0203,0.2872 -0.0098,0.12695 l -0.0039,0.0625 -0.01172,0.0586 c -0.0043,0.0228 -0.01073,0.0619 -0.01563,0.0918 -0.0029,0.0135 -0.0031,0.0275 -0.0059,0.041 -0.246442,1.19259 -0.393335,2.40351 -0.421875,3.62109 v 0.13868 c 0.01404,14.29416 10.950116,26.18523 25.199218,27.39843 14.247029,1.21302 27.033638,-8.6556 29.46875,-22.73828 0.04399,-0.34195 0.08321,-0.6882 0.125,-1.05273 v -0.004 -0.004 c 0.567556,-4.68853 -0.04557,-9.44304 -1.785156,-13.83398 -3.115741,-7.758155 -8.491801,-10.921755 -13.081989,-18.1735142 -0.226311,-0.35737 -0.457698,-0.72362 -0.689453,-1.12109 -0.13593,-0.23295 -0.246054,-0.44412 -0.339844,-0.63477 -7e-4,-0.0013 -0.0013,-0.0026 -0.002,-0.0039 -0.01735,-0.03363 0.01639,0.034069 0,0 z"
     id="path980-0-9-7-6"
     inkscape:connector-curvature="0"
     sodipodi:nodetypes="ccccccccccccccccccccccccsccccccccccccccccccccccccccccccccccccccsccccccccccc" /></svg>