<?xml version="1.0" encoding="UTF-8" standalone="no"?>
<!-- Generator: Adobe Illustrator 16.0.3, SVG Export Plug-In . SVG Version: 6.00 Build 0)  -->

<svg
   xmlns:dc="http://purl.org/dc/elements/1.1/"
   xmlns:cc="http://creativecommons.org/ns#"
   xmlns:rdf="http://www.w3.org/1999/02/22-rdf-syntax-ns#"
   xmlns:svg="http://www.w3.org/2000/svg"
   xmlns="http://www.w3.org/2000/svg"
   xmlns:xlink="http://www.w3.org/1999/xlink"
   xmlns:sodipodi="http://sodipodi.sourceforge.net/DTD/sodipodi-0.dtd"
   xmlns:inkscape="http://www.inkscape.org/namespaces/inkscape"
   version="1.1"
   id="svg4031"
   sodipodi:docname="firefox_128.svg"
   inkscape:version="0.92.3 (2405546, 2018-03-11)"
   x="0px"
   y="0px"
   width="128px"
   height="128px"
   viewBox="0 0 128 128"
   enable-background="new 0 0 128 128"
   xml:space="preserve"><metadata
     id="metadata42"><rdf:RDF><cc:Work
         rdf:about=""><dc:format>image/svg+xml</dc:format><dc:type
           rdf:resource="http://purl.org/dc/dcmitype/StillImage" /></cc:Work></rdf:RDF></metadata><defs
     id="defs40"><linearGradient
       id="linearGradient4214"><stop
         offset="0"
         style="stop-color:#ffffff;stop-opacity:1"
         id="stop4216" /><stop
         offset="0.44890663"
         style="stop-color:#ffffff;stop-opacity:0.23529412"
         id="stop4218" /><stop
         offset="0.84736282"
         style="stop-color:#ffffff;stop-opacity:0.15686275"
         id="stop4220" /><stop
         offset="1"
         style="stop-color:#ffffff;stop-opacity:0.39215687"
         id="stop4222" /></linearGradient><linearGradient
       id="path10-3-6_2_-5"
       gradientUnits="userSpaceOnUse"
       x1="0.17290001"
       y1="53.999001"
       x2="32.849998"
       y2="74.439201"
       gradientTransform="matrix(2.575,0,0,-2.5952,-7.8079024,430.20734)"><stop
         offset="0"
         style="stop-color:#FF780A"
         id="stop31-6" /><stop
         offset="1"
         style="stop-color:#FFBE3C"
         id="stop33-2" /></linearGradient><linearGradient
       id="linearGradient4259"
       gradientUnits="userSpaceOnUse"
       x1="-231.7348"
       y1="109.9953"
       x2="-192.935"
       y2="109.9953"
       gradientTransform="matrix(0,-2.5653,-2.5445,0,343.3642,-477.0014)"><stop
         offset="0"
         style="stop-color:#0D52BF"
         id="stop14-9" /><stop
         offset="1"
         style="stop-color:#64BAFF"
         id="stop16-1" /></linearGradient><linearGradient
       id="linearGradient4263"
       gradientUnits="userSpaceOnUse"
       x1="111.0466"
       y1="17.3155"
       x2="111.0466"
       y2="-39.684502"
       gradientTransform="matrix(1.7272,0,0,-1.7414,-128.3208,48.7485)"><stop
         offset="0"
         style="stop-color:#FFFFFF"
         id="stop21-2" /><stop
         offset="0.0899"
         style="stop-color:#FFFFFF;stop-opacity:0.2353"
         id="stop23-7" /><stop
         offset="0.8739"
         style="stop-color:#FFFFFF;stop-opacity:0.1569"
         id="stop25-0" /><stop
         offset="1"
         style="stop-color:#FFFFFF;stop-opacity:0.3922"
         id="stop27-9" /></linearGradient><radialGradient
       id="path3818-0-5-0_1_-3"
       cx="383.0762"
       cy="-1622.582"
       r="62.769501"
       gradientTransform="matrix(0.6869,0,0,-0.2146,-225.3335,-41.300959)"
       gradientUnits="userSpaceOnUse"><stop
         offset="0"
         style="stop-color:#3D3D3D"
         id="stop5-6" /><stop
         offset="0.5"
         style="stop-color:#686868;stop-opacity:0.498"
         id="stop7-0" /><stop
         offset="1"
         style="stop-color:#686868;stop-opacity:0"
         id="stop9-6" /></radialGradient><linearGradient
       gradientTransform="matrix(0,-2.5653,-2.5445,0,343.3642,-477.0014)"
       y2="109.9953"
       x2="-192.935"
       y1="109.9953"
       x1="-231.7348"
       gradientUnits="userSpaceOnUse"
       id="linearGradient4192"><stop
         id="stop4194"
         style="stop-color:#0D52BF"
         offset="0" /><stop
         id="stop4196"
         style="stop-color:#64BAFF"
         offset="1" /></linearGradient><linearGradient
       gradientTransform="matrix(1.7272,0,0,-1.7414,-128.3208,48.7485)"
       y2="-39.684502"
       x2="111.0466"
       y1="17.3155"
       x1="111.0466"
       gradientUnits="userSpaceOnUse"
       id="linearGradient4200"><stop
         id="stop4202"
         style="stop-color:#FFFFFF"
         offset="0" /><stop
         id="stop4204"
         style="stop-color:#FFFFFF;stop-opacity:0.2353"
         offset="0.0899" /><stop
         id="stop4206"
         style="stop-color:#FFFFFF;stop-opacity:0.1569"
         offset="0.8739" /><stop
         id="stop4208"
         style="stop-color:#FFFFFF;stop-opacity:0.3922"
         offset="1" /></linearGradient><linearGradient
       id="path10-3-6_2_-5-2"
       gradientUnits="userSpaceOnUse"
       x1="0.17290001"
       y1="53.999001"
       x2="32.849998"
       y2="74.439201"
       gradientTransform="matrix(2.575,0,0,-2.5952,-7.8075018,429.20631)"><stop
         offset="0"
         style="stop-color:#FF780A"
         id="stop31-6-3" /><stop
         offset="1"
         style="stop-color:#FFBE3C"
         id="stop33-2-7" /></linearGradient><linearGradient
       inkscape:collect="always"
       xlink:href="#path10-3-6_2_-5-8"
       id="linearGradient397-3"
       gradientUnits="userSpaceOnUse"
       gradientTransform="matrix(1.3304258,0,0,1.329301,11.2996,13.043399)"
       x1="23.409851"
       y1="63.304691"
       x2="57.358685"
       y2="29.920277" /><linearGradient
       id="path10-3-6_2_-5-8"
       gradientUnits="userSpaceOnUse"
       x1="142.75"
       y1="-244.8286"
       x2="175.42799"
       y2="-224.38789"
       gradientTransform="matrix(1,0,0,-0.9993,-152.31562,-145.72595)"><stop
         offset="0"
         style="stop-color:#FF780A"
         id="stop3053-6-7" /><stop
         offset="1"
         style="stop-color:#FFBE3C"
         id="stop3055-2-9" /></linearGradient><linearGradient
       inkscape:collect="always"
       xlink:href="#linearGradient1397"
       id="linearGradient1387"
       x1="-33.465771"
       y1="24.041632"
       x2="-14.627748"
       y2="24.041632"
       gradientUnits="userSpaceOnUse"
       gradientTransform="matrix(2.7477818,0,0,2.7478167,132.78679,-130.69442)" /><linearGradient
       id="linearGradient1397"
       gradientUnits="userSpaceOnUse"
       x1="378.47989"
       y1="-460.11151"
       x2="378.47989"
       y2="-517.06409"
       gradientTransform="matrix(0.61461016,0,0,-0.61441522,-265.70328,-287.06434)"><stop
         offset="0"
         style="stop-color:#FFFFFF"
         id="stop1389" /><stop
         offset="0.44649339"
         style="stop-color:#FFFFFF;stop-opacity:0.2353"
         id="stop1391" /><stop
         offset="0.74252349"
         style="stop-color:#FFFFFF;stop-opacity:0.1569"
         id="stop1393" /><stop
         offset="1"
         style="stop-color:#FFFFFF;stop-opacity:0.3922"
         id="stop1395" /></linearGradient><radialGradient
       id="path3818-0_1_"
       cx="705.18359"
       cy="-3476.1409"
       r="62.7593"
       gradientTransform="matrix(0.3824,0,0,-0.1115,-237.6295,-330.6569)"
       gradientUnits="userSpaceOnUse"><stop
         offset="0"
         style="stop-color:#000000"
         id="stop6" /><stop
         offset="1"
         style="stop-color:#000000;stop-opacity:0"
         id="stop8" /></radialGradient><radialGradient
       id="path4190_1_"
       cx="1051.9307"
       cy="-4869.5586"
       r="62.769001"
       gradientTransform="matrix(0.2549,0,0,-0.0797,-236.1396,-328.8854)"
       gradientUnits="userSpaceOnUse"><stop
         offset="0"
         style="stop-color:#000000"
         id="stop12" /><stop
         offset="1"
         style="stop-color:#000000;stop-opacity:0"
         id="stop14-3" /></radialGradient><linearGradient
       inkscape:collect="always"
       xlink:href="#e-9-7-2-3"
       id="linearGradient4828"
       x1="257.13678"
       y1="68.803474"
       x2="295.37579"
       y2="68.803474"
       gradientUnits="userSpaceOnUse"
       gradientTransform="matrix(1.329301,0,0,1.3304258,-433.93931,-26.90548)" /><radialGradient
       gradientUnits="userSpaceOnUse"
       gradientTransform="translate(8092.4632,8552.5202)"
       r="38.471001"
       cy="-8460.9844"
       cx="-7945.6479"
       id="e-9-7-2-3"><stop
         id="stop890-4-7-7-6"
         stop-color="#3a8ee6"
         offset=".353" /><stop
         id="stop892-7-1-0-7"
         stop-color="#5c79f0"
         offset=".472" /><stop
         id="stop894-8-1-9-5"
         stop-color="#9059ff"
         offset=".669" /><stop
         id="stop896-4-5-3-35"
         stop-color="#c139e6"
         offset="1" /></radialGradient><linearGradient
       inkscape:collect="always"
       xlink:href="#linearGradient4214"
       id="linearGradient1030"
       x1="65.930344"
       y1="89.486938"
       x2="65.22097"
       y2="196.79039"
       gradientUnits="userSpaceOnUse"
       gradientTransform="translate(-0.02701,-78.049263)" /></defs><sodipodi:namedview
     inkscape:cy="17.701354"
     inkscape:cx="-25.330914"
     inkscape:zoom="2.0000001"
     showgrid="false"
     id="namedview37"
     guidetolerance="10"
     gridtolerance="10"
     objecttolerance="10"
     borderopacity="1"
     bordercolor="#666666"
     pagecolor="#ffffff"
     inkscape:current-layer="svg4031"
     inkscape:window-maximized="1"
     inkscape:window-y="30"
     inkscape:window-height="705"
     inkscape:window-x="0"
     inkscape:window-width="1366"
     inkscape:pageshadow="2"
     inkscape:pageopacity="0" /><radialGradient
     id="path3818-0-5-0_1_"
     cx="383.0762"
     cy="-1622.582"
     r="62.7695"
     gradientTransform="matrix(0.6869 0 0 -0.2146 -199.0565 -239.7024)"
     gradientUnits="userSpaceOnUse"><stop
       offset="0"
       style="stop-color:#3D3D3D"
       id="stop5" /><stop
       offset="0.5"
       style="stop-color:#686868;stop-opacity:0.498"
       id="stop7" /><stop
       offset="1"
       style="stop-color:#686868;stop-opacity:0"
       id="stop9" /></radialGradient><ellipse
     id="path276"
     cx="-66.711533"
     cy="64.632423"
     style="fill:url(#linearGradient4828);fill-opacity:1;stroke-width:1.08102214"
     transform="rotate(-90)"
     rx="25.415571"
     ry="25.437075" /><ellipse
     id="path276-6"
     cx="-66.722092"
     cy="64.632423"
     style="opacity:0.7;fill:none;fill-opacity:1;stroke:#9059ff;stroke-width:1.08102214;stroke-opacity:1"
     transform="rotate(-90)"
     rx="25.415571"
     ry="25.437075" /><ellipse
     id="path276-6-4-6"
     cx="66.711533"
     cy="-64.632423"
     style="opacity:0.5;fill:none;fill-opacity:1;stroke:url(#linearGradient1387);stroke-width:1;stroke-miterlimit:4;stroke-dasharray:none;stroke-opacity:1"
     transform="rotate(90)"
     rx="24.396181"
     ry="24.396488" /><path
     id="path3818-0-5-0"
     inkscape:connector-curvature="0"
     d="M107.213,108.531  c-0.002,7.44-19.309,13.471-43.122,13.471c-23.812,0-43.114-6.031-43.116-13.471S40.277,95.061,64.091,95.06  s43.12,6.03,43.122,13.47C107.213,108.531,107.213,108.531,107.213,108.531z"
     fill="url(#path3818-0-5-0_1_)" /><linearGradient
     id="path10-3-6_2_"
     gradientUnits="userSpaceOnUse"
     x1="0.1729"
     y1="53.999"
     x2="32.85"
     y2="74.4392"
     gradientTransform="matrix(2.575 0 0 -2.5952 18.4691 231.8059)"><stop
       offset="0"
       style="stop-color:#FF780A"
       id="stop31" /><stop
       offset="1"
       style="stop-color:#FFBE3C"
       id="stop33" /></linearGradient><path
     style="fill:url(#linearGradient397-3);fill-opacity:1;stroke-width:1"
     d="m 85.787782,10.374659 c -0.01283,0.001 -0.02627,0.004 -0.03889,0.008 -0.0078,0 -0.01807,0.0134 -0.026,0.0157 -0.0078,0.002 -0.02317,0.0134 -0.0363,0.0183 l 0.01807,-0.0338 c -12.74348,7.45517 -22.135285,23.71961 -22.819984,30.92442 0.66379,-0.0555 1.329511,-0.085 1.995644,-0.0883 14.049146,-10e-4 25.438937,11.37782 25.439196,25.4151 -2.59e-4,14.03727 -11.39005,25.41627 -25.439196,25.41509 -2.945931,-0.0105 -5.867604,-0.53243 -8.634775,-1.5422 -0.09295,-0.0271 -0.185402,-0.0548 -0.278025,-0.0831 -0.128498,-0.0482 -0.256215,-0.10785 -0.384605,-0.15839 -0.334573,-0.12884 -0.666364,-0.26475 -0.995195,-0.40762 -0.04429,-0.0193 -0.08833,-0.0349 -0.132618,-0.0545 -0.291364,-0.1316 -0.58314,-0.26653 -0.870512,-0.41541 l 0.0363,0.0234 c -0.250033,-0.11962 -0.50084,-0.24447 -0.750953,-0.37386 0.240765,0.11565 0.467109,0.24018 0.714569,0.3505 -0.07519,-0.0389 -0.148574,-0.0823 -0.223512,-0.12203 -18.071016,-10.29725 -12.337216,-29.13881 5.119018,-25.59943 1.58454,0 6.117458,-4.42001 6.202587,-5.70146 -0.0206,-0.41873 -8.994505,-3.98637 -12.493524,-7.43059 -1.86926,-1.84108 -2.755455,-2.7287 -3.54174,-3.39335 -0.0054,0.002 -0.0072,0.003 -0.01265,0.005 0.0054,-0.003 0.0072,-0.004 0.01265,-0.008 -0.0072,-0.007 -0.01807,-0.0136 -0.02602,-0.0208 -0.417207,-0.35147 -0.85225,-0.68126 -1.304423,-0.98659 -0.293986,-1.02802 -0.517317,-2.06981 -0.670409,-3.12074 -0.07644,-0.52503 -0.135527,-1.05045 -0.176727,-1.57855 -0.206779,-2.64049 0.02674,-5.30849 0.701597,-7.89272 l -0.0072,0.005 v -0.005 c -7.04e-4,3.4e-4 -0.0014,-3.3e-4 -0.0018,0 -0.593917,0.28738 -1.179756,0.59175 -1.756615,0.9087 -3.465307,1.90399 -6.612469,4.33255 -9.331165,7.20211 -0.45351,0.47869 -0.896125,0.96937 -1.325204,1.4721 h -0.01265 c -2.043531,-2.58815 -1.899641,-11.12097 -1.782561,-12.90357 -7.2e-4,3e-4 -0.001,-2.9e-4 -0.002,0 -0.60499,0.24291 -1.1825,0.54925 -1.72278,0.9139 -1.80304,1.28578 -3.48739,2.72978 -5.03587,4.31244 -4.4e-4,4.4e-4 -0.002,-4.5e-4 -0.002,0 -1.76531,1.78861 -3.37526,3.72184 -4.81762,5.77934 -3.31548,4.69539 -5.66734,10.00045 -6.91975,15.6089 l -0.0678,0.34012 c -0.097,0.45329 -0.44684,2.72363 -0.50671,3.2168 0,0.0385 -0.0126,0.0731 -0.0144,0.11165 -0.0257,0.13529 -0.0461,0.27153 -0.0678,0.40762 0.0206,-0.13413 0.0443,-0.26355 0.0623,-0.41281 -0.005,0.0224 -0.007,0.0451 -0.0126,0.0675 0.002,-0.0234 0.007,-0.0431 0.0108,-0.0675 -0.49726,2.33858 -0.77475,4.71848 -0.82892,7.10864 v 0.26482 c 9e-4,-3e-4 0.001,3e-4 0.002,0 0.0262,26.7405 20.52454,49.017671 47.191096,51.287151 26.666582,2.26946 50.636934,-16.22316 55.189294,-42.573991 0.0865,-0.66466 0.15681,-1.32266 0.23381,-1.99396 1.06211,-8.77027 -0.0876,-17.66671 -3.34426,-25.87983 -5.83083,-14.51278 -15.714846,-20.37138 -23.786745,-33.11816 -0.40845,-0.64471 -0.815717,-1.28865 -1.213506,-1.97058 -0.227375,-0.38949 -0.410742,-0.74146 -0.569054,-1.06448 -0.334961,-0.64802 -0.593106,-1.33288 -0.769159,-2.04069 2.31e-4,-0.0674 -0.04995,-0.12429 -0.116915,-0.13241 -0.01807,-0.005 -0.03424,-0.008 -0.05201,-0.008 z"
     id="path980-0-9-7"
     inkscape:connector-curvature="0"
     sodipodi:nodetypes="cccccccccccccccccccccccccccccccccsccccccccccccccccccccsccccccccsc" /><path
     style="opacity:0.5;fill:none;fill-opacity:1;stroke:#a62100;stroke-width:1;stroke-opacity:1"
     d="m 85.787782,10.375449 c -0.01283,10e-4 -0.02627,0.002 -0.03889,0.008 -0.0078,0 -0.01807,0.0128 -0.026,0.0153 -0.0078,0.002 0.187976,-0.10773 0.174848,-0.10258 l -0.193128,0.0869 c -12.743433,7.45515 -22.135238,23.71961 -22.819937,30.9244 0.66379,-0.0556 1.329511,-0.0849 1.995644,-0.0882 14.049146,-10e-4 25.438937,11.37782 25.439196,25.41509 -2.59e-4,14.0373 -11.39005,25.41628 -25.439196,25.41512 -2.945931,-0.0103 -5.867604,-0.53243 -8.634775,-1.54222 -0.09295,-0.027 -0.185402,-0.0548 -0.278025,-0.0831 -0.128498,-0.0481 -0.256215,-0.10779 -0.384605,-0.15848 -0.334573,-0.12889 -0.666364,-0.26474 -0.995195,-0.40761 -0.04429,-0.0181 -0.08833,-0.035 -0.132618,-0.0546 -0.291364,-0.13173 -0.58314,-0.26652 -0.870512,-0.41541 l 0.0363,0.0232 c -0.250033,-0.11965 -0.50084,-0.24442 -0.750953,-0.37387 0.240765,0.11579 0.467109,0.24031 0.714569,0.3505 -0.07519,-0.0388 -0.148574,-0.0823 -0.223512,-0.12195 -18.071016,-10.29725 -12.337216,-29.1388 5.119018,-25.59944 1.58454,0 6.117458,-4.41999 6.202587,-5.70145 -0.0206,-0.41873 -8.994505,-3.98637 -12.493524,-7.43059 -1.86926,-1.84108 -2.755455,-2.72868 -3.54174,-3.39335 -0.0054,0.002 -0.0072,0.002 -0.01265,0.005 0.0054,-0.003 0.0072,-0.005 0.01265,-0.008 -0.0072,-0.008 -0.01807,-0.0128 -0.02602,-0.0206 -0.417207,-0.35148 -0.85225,-0.68127 -1.304423,-0.98659 -0.293986,-1.02803 -0.517317,-2.0698 -0.670409,-3.12073 -0.07644,-0.52504 -0.135527,-1.05044 -0.176727,-1.57854 -0.206779,-2.64052 0.02674,-5.3085 0.701597,-7.89272 l -0.0072,0.005 v -0.005 c -7.04e-4,3.3e-4 -0.0014,-3.4e-4 -0.0018,0 -0.593917,0.28736 -1.179756,0.59173 -1.756615,0.90867 -3.465307,1.90401 -6.612469,4.33257 -9.331165,7.20212 -0.45351,0.47871 -0.896125,0.96937 -1.325204,1.47211 h -0.01265 c -2.043538,-2.58816 -1.899648,-11.12098 -1.782568,-12.90357 -7.2e-4,2.8e-4 -10e-4,-2.9e-4 -0.002,0 -0.60499,0.24288 -1.1825,0.54925 -1.72278,0.9139 -1.80304,1.28578 -3.48739,2.72976 -5.03587,4.31242 -4.4e-4,4.7e-4 -0.002,-4.4e-4 -0.002,0 -1.76531,1.78862 -3.37526,3.72186 -4.81762,5.77936 -3.31548,4.69537 -5.66734,10.00045 -6.91975,15.60889 l -0.0678,0.34013 c -0.097,0.45329 -0.44684,2.72362 -0.50671,3.21681 0,0.0386 -0.0126,0.0731 -0.0144,0.11166 -0.0257,0.13533 -0.0461,0.27152 -0.0678,0.40762 0.0206,-0.13404 0.0443,-0.26356 0.0623,-0.41281 -0.005,0.0232 -0.007,0.045 -0.0126,0.0674 0.002,-0.0232 0.007,-0.0432 0.0108,-0.0674 -0.49726,2.33858 -0.77475,4.71847 -0.82892,7.10864 v 0.26483 c 9e-4,-3.1e-4 10e-4,2.8e-4 0.002,0 0.0262,26.74049 20.524547,49.017671 47.191103,51.287151 26.666582,2.26946 50.636937,-16.22316 55.189287,-42.574011 0.0865,-0.66466 0.15682,-1.32264 0.23381,-1.99395 1.06212,-8.77027 -0.0876,-17.66671 -3.34425,-25.87983 -5.83083,-14.51276 -15.714849,-20.37136 -23.786748,-33.11814 -0.40845,-0.6447 -0.815717,-1.28866 -1.213506,-1.9706 -0.227375,-0.38947 -0.410742,-0.74144 -0.569054,-1.06446 -0.334961,-0.64802 -0.593106,-1.33289 -0.769159,-2.0407 2.31e-4,-0.0674 -0.04995,-0.12427 -0.116915,-0.13251 -0.01807,-0.005 -0.03424,-0.008 -0.05201,-0.008 z"
     id="path980-0-9-7-06"
     inkscape:connector-curvature="0"
     sodipodi:nodetypes="cccccccccccccccccccccccccccccccccsccccccccccccccccccccsccccccccsc" /><path
     style="opacity:0.5;fill:none;fill-opacity:1;stroke:url(#linearGradient1030);stroke-width:1;stroke-opacity:1"
     d="m 85.260207,11.876209 c -5.842549,3.64436 -11.01006,9.15248 -14.791016,14.69141 -3.566421,5.22465 -5.814233,10.38299 -6.470703,13.74805 0.249492,-0.008 0.498352,-0.0322 0.748047,-0.0332 h 0.002 0.002 c 14.589131,-10e-4 26.439183,11.83782 26.439453,26.41602 -2.7e-4,14.5782 -11.850307,26.41506 -26.439453,26.41406 h -0.002 -0.002 c -3.061693,-0.0109 -6.09679,-0.55213 -8.972657,-1.60156 -0.07636,-0.0225 -0.153245,-0.0434 -0.228515,-0.0664 l -0.0293,-0.01 -0.0293,-0.01 c -0.175218,-0.0657 -0.303498,-0.12671 -0.392578,-0.16211 -0.347768,-0.13392 -0.693458,-0.27536 -1.035156,-0.42383 -0.0029,-0.001 -0.04995,-0.0174 -0.138672,-0.0566 l -0.0039,-0.002 -0.002,-0.002 c -0.274666,-0.12407 -0.561984,-0.25856 -0.851563,-0.40625 l -0.0039,0.006 c -0.22353,-0.10695 -0.446431,-0.21958 -0.669922,-0.33399 -0.02395,-0.0119 -0.05879,-0.0298 -0.08203,-0.041 -0.0086,-0.005 -0.01679,-0.01 -0.02539,-0.0137 l 0.04687,-0.0937 c -8.941777,-5.2898 -12.293524,-12.80638 -10.832031,-18.79102 1.47631,-6.04531 7.876954,-10.12111 16.859375,-8.37891 0.481809,-0.15044 0.48486,-0.14923 1.064453,-0.53711 0.582992,-0.39014 1.269469,-0.95444 1.908203,-1.55664 0.638733,-0.6022 1.234332,-1.24682 1.652344,-1.78515 0.211476,-0.27234 0.198005,-0.26518 0.291015,-0.44727 -0.19652,-0.10317 -0.357733,-0.19128 -0.632812,-0.32812 -0.887933,-0.44173 -2.12905,-1.03806 -3.484375,-1.73243 -2.710649,-1.38872 -5.865793,-3.1265 -7.796875,-5.02734 -1.871167,-1.84296 -2.752354,-2.72332 -3.486328,-3.34375 0.03282,0.0319 0.02738,0.0264 -0.02344,-0.0215 0.0099,0.01 0.01702,0.0152 0.02344,0.0215 0,0 -1.244148,-0.94531 -0.06055,-0.0586 0.02005,0.0201 0.01309,0.0152 0.02734,0.0293 -0.388051,-0.32636 -0.792457,-0.63344 -1.210938,-0.91601 l -0.300781,-0.20313 -0.101563,-0.34961 c -0.306286,-1.07101 -0.537766,-2.15702 -0.697265,-3.25195 -0.0795,-0.54636 -0.142577,-1.09374 -0.185547,-1.64453 -0.161069,-2.05678 0.02086,-4.11786 0.373047,-6.1582 -3.357064,1.8505 -6.409201,4.20433 -9.044922,6.98632 -0.442269,0.46683 -0.871841,0.94477 -1.289063,1.4336 l -0.300781,0.34961 h -0.957031 l -0.300781,-0.37891 c -1.360062,-1.72252 -1.704283,-4.55261 -1.914063,-7.29687 -0.15288,-1.99986 -0.09246,-3.321 -0.06055,-4.58594 -0.05609,0.0357 -0.120551,0.0566 -0.175781,0.0937 -1.751579,1.24979 -3.389202,2.65284 -4.894532,4.19141 l -0.002,0.004 -0.004,0.004 c 0,0 -0.007,0.006 -0.008,0.006 -1.72158,1.74552 -3.29351,3.6326 -4.70117,5.64062 l -0.002,0.002 c -3.23929,4.58748 -5.53615,9.77051 -6.75976,15.25 l -0.0644,0.32421 -0.002,0.008 c -0.057,0.2663 -0.44424,2.73194 -0.49219,3.12695 l 0.008,-0.11914 c 0,0.2567 -0.0226,0.30904 -0.0156,0.1582 l -0.004,0.0703 -0.0137,0.0684 c -0.0109,0.0577 -0.0224,0.13242 -0.0332,0.19922 -0.45944,2.21409 -0.73089,4.46186 -0.7832,6.72266 v 0.25977 c 0.0257,26.22999 20.118565,48.064751 46.277335,50.291011 26.151879,2.22566 49.638935,-15.89152 54.113275,-41.728511 0.0833,-0.6427 0.15373,-1.28803 0.23047,-1.95704 v -0.002 -0.004 c 1.0419,-8.60341 -0.0852,-17.32962 -3.2793,-25.38671 -5.71978,-14.23643 -15.507905,-20.01359 -23.703116,-32.95508 -0.408726,-0.64515 -0.823006,-1.30009 -1.232422,-2.00196 -0.23748,-0.40679 -0.429331,-0.77468 -0.59375,-1.10937 -6.6e-4,-0.001 -0.0013,-0.003 -0.0019,-0.004 -0.196517,-0.38057 -0.303385,-0.79797 -0.451172,-1.19922 z"
     id="path980-0-9-7-9"
     inkscape:connector-curvature="0"
     sodipodi:nodetypes="ccccccccccccccccccccccccsccscccccccccccccccccccccccccccccccccccccccccscccccccccccc" /></svg>