<?xml version="1.0" encoding="UTF-8" standalone="no"?>
<svg
   xmlns:osb="http://www.openswatchbook.org/uri/2009/osb"
   xmlns:dc="http://purl.org/dc/elements/1.1/"
   xmlns:cc="http://creativecommons.org/ns#"
   xmlns:rdf="http://www.w3.org/1999/02/22-rdf-syntax-ns#"
   xmlns:svg="http://www.w3.org/2000/svg"
   xmlns="http://www.w3.org/2000/svg"
   xmlns:xlink="http://www.w3.org/1999/xlink"
   xmlns:sodipodi="http://sodipodi.sourceforge.net/DTD/sodipodi-0.dtd"
   xmlns:inkscape="http://www.inkscape.org/namespaces/inkscape"
   id="svg4031"
   height="16"
   width="16"
   version="1.1"
   inkscape:version="0.92.3 (2405546, 2018-03-11)"
   sodipodi:docname="firefox_16.svg">
  <sodipodi:namedview
     pagecolor="#ffffff"
     bordercolor="#666666"
     borderopacity="1"
     objecttolerance="10"
     gridtolerance="10"
     guidetolerance="10"
     inkscape:pageopacity="0"
     inkscape:pageshadow="2"
     inkscape:window-width="1366"
     inkscape:window-height="705"
     id="namedview37"
     showgrid="false"
     inkscape:zoom="8"
     inkscape:cx="-16.125"
     inkscape:cy="8.3361695"
     inkscape:window-x="0"
     inkscape:window-y="30"
     inkscape:window-maximized="1"
     inkscape:current-layer="svg4031" />
  <defs
     id="defs4033">
    <linearGradient
       id="linearGradient4424">
      <stop
         offset="0"
         style="stop-color:#ffffff;stop-opacity:1"
         id="stop4426" />
      <stop
         offset="0.41302004"
         style="stop-color:#ffffff;stop-opacity:0.23529412"
         id="stop4428" />
      <stop
         offset="0.85573757"
         style="stop-color:#ffffff;stop-opacity:0.15686275"
         id="stop4430" />
      <stop
         offset="1"
         style="stop-color:#ffffff;stop-opacity:0.39215687"
         id="stop4432" />
    </linearGradient>
    <linearGradient
       id="linearGradient4322">
      <stop
         offset="0"
         style="stop-color:#ffffff;stop-opacity:1"
         id="stop4324" />
      <stop
         offset="0.4760069"
         style="stop-color:#ffffff;stop-opacity:0.23529412"
         id="stop4326" />
      <stop
         offset="0.84599608"
         style="stop-color:#ffffff;stop-opacity:0.15686275"
         id="stop4328" />
      <stop
         offset="1"
         style="stop-color:#ffffff;stop-opacity:0.39215687"
         id="stop4330" />
    </linearGradient>
    <linearGradient
       id="linearGradient4211">
      <stop
         offset="0"
         style="stop-color:#ffffff;stop-opacity:1"
         id="stop4213" />
      <stop
         offset="0.48019233"
         style="stop-color:#ffffff;stop-opacity:0.23529412"
         id="stop4215" />
      <stop
         offset="0.85520977"
         style="stop-color:#ffffff;stop-opacity:0.15686275"
         id="stop4217" />
      <stop
         offset="1"
         style="stop-color:#ffffff;stop-opacity:0.39215687"
         id="stop4219" />
    </linearGradient>
    <linearGradient
       id="linearGradient4250">
      <stop
         id="stop4252"
         offset="0"
         style="stop-color:#0d52bf;stop-opacity:1" />
      <stop
         id="stop4258"
         offset="1"
         style="stop-color:#64baff;stop-opacity:1" />
    </linearGradient>
    <linearGradient
       id="linearGradient2867-449-88-871-390-598-476-591-434-148-57-177-3-8">
      <stop
         offset="0"
         style="stop-color:#90dbec;stop-opacity:1"
         id="stop3750-8-9" />
      <stop
         offset="0.26238"
         style="stop-color:#42baea;stop-opacity:1"
         id="stop3752-3-2" />
      <stop
         offset="0.704952"
         style="stop-color:#3689e6;stop-opacity:1"
         id="stop3754-7-2" />
      <stop
         offset="1"
         style="stop-color:#2b63a0;stop-opacity:1"
         id="stop3756-9-3" />
    </linearGradient>
    <linearGradient
       id="linearGradient3820-7-2-1">
      <stop
         offset="0"
         style="stop-color:#3d3d3d;stop-opacity:1"
         id="stop3822-2-6-3" />
      <stop
         offset="0.5"
         style="stop-color:#686868;stop-opacity:0.49803922"
         id="stop3864-8-7-7" />
      <stop
         offset="1"
         style="stop-color:#686868;stop-opacity:0"
         id="stop3824-1-2-5" />
    </linearGradient>
    <radialGradient
       gradientTransform="matrix(0,2.4988347,-2.6434689,-6.8014435e-8,46.336814,-12.180468)"
       gradientUnits="userSpaceOnUse"
       xlink:href="#linearGradient2867-449-88-871-390-598-476-591-434-148-57-177-3-8"
       id="radialGradient3015"
       fy="8.4497671"
       fx="3.9722471"
       r="19.99999"
       cy="8.4497671"
       cx="3.9722471" />
    <radialGradient
       gradientTransform="matrix(0.27083381,0,0,0.08762273,-2.855072,25.187228)"
       gradientUnits="userSpaceOnUse"
       xlink:href="#linearGradient3820-7-2-1"
       id="radialGradient3018"
       fy="186.17059"
       fx="99.157013"
       r="62.769119"
       cy="186.17059"
       cx="99.157013" />
    <linearGradient
       gradientTransform="matrix(1.6169806,0,0,1.6169806,-92.70737,-21.060237)"
       gradientUnits="userSpaceOnUse"
       xlink:href="#linearGradient4806-2"
       id="linearGradient4338-5-6"
       y2="40.495617"
       x2="71.204407"
       y1="15.369057"
       x1="71.204407" />
    <linearGradient
       id="linearGradient4806-2">
      <stop
         offset="0"
         style="stop-color:#ffffff;stop-opacity:1"
         id="stop4808-4" />
      <stop
         offset="0.42447853"
         style="stop-color:#ffffff;stop-opacity:0.23529412"
         id="stop4810-0" />
      <stop
         offset="0.82089913"
         style="stop-color:#ffffff;stop-opacity:0.15686275"
         id="stop4812-8" />
      <stop
         offset="1"
         style="stop-color:#ffffff;stop-opacity:0.39215687"
         id="stop4814-0" />
    </linearGradient>
    <radialGradient
       gradientTransform="matrix(0,3.9153034,-3.0928272,-4.4454166e-8,49.977542,-1.450216)"
       gradientUnits="userSpaceOnUse"
       xlink:href="#linearGradient4223"
       id="radialGradient3126-7-25-24"
       fy="8.449769"
       fx="0.66680855"
       r="19.99999"
       cy="8.449769"
       cx="-1.2645766" />
    <linearGradient
       id="linearGradient4526"
       osb:paint="solid">
      <stop
         style="stop-color:#ffffff;stop-opacity:1;"
         offset="0"
         id="stop4528" />
    </linearGradient>
    <linearGradient
       id="linearGradient4223">
      <stop
         offset="0"
         style="stop-color:#cdf87e;stop-opacity:1"
         id="stop4225" />
      <stop
         offset="0.26238"
         style="stop-color:#a2e34f;stop-opacity:1"
         id="stop4227" />
      <stop
         offset="0.66093999"
         style="stop-color:#68b723;stop-opacity:1"
         id="stop4229" />
      <stop
         offset="1"
         style="stop-color:#1d7e0d;stop-opacity:1"
         id="stop4231" />
    </linearGradient>
    <linearGradient
       id="linearGradient4029-0">
      <stop
         style="stop-color:#87accd;stop-opacity:1;"
         offset="0"
         id="stop4031-7" />
      <stop
         id="stop4062-3-8"
         offset="0.28728491"
         style="stop-color:#6b96c1;stop-opacity:1;" />
      <stop
         id="stop4060-0-2"
         offset="0.59072286"
         style="stop-color:#477ba9;stop-opacity:1;" />
      <stop
         style="stop-color:#325978;stop-opacity:1;"
         offset="1"
         id="stop4033-0" />
    </linearGradient>
    <linearGradient
       id="linearGradient4037-1">
      <stop
         style="stop-color:#e67263;stop-opacity:1;"
         offset="0"
         id="stop4039-4" />
      <stop
         style="stop-color:#dc252a;stop-opacity:1;"
         offset="1"
         id="stop4041-6" />
    </linearGradient>
    <linearGradient
       id="linearGradient4064-1">
      <stop
         style="stop-color:#f0d550;stop-opacity:1;"
         offset="0"
         id="stop4066-2" />
      <stop
         style="stop-color:#dca023;stop-opacity:1;"
         offset="1"
         id="stop4068-8" />
    </linearGradient>
    <linearGradient
       id="linearGradient4072-7">
      <stop
         style="stop-color:#50b54c;stop-opacity:1;"
         offset="0"
         id="stop4074-1" />
      <stop
         style="stop-color:#32783b;stop-opacity:1;"
         offset="1"
         id="stop4076-0" />
    </linearGradient>
    <linearGradient
       id="c"
       y2="40.495998"
       gradientUnits="userSpaceOnUse"
       x2="71.204002"
       gradientTransform="matrix(1.4614589,0,0,1.4614589,-129.26231,-15.45283)"
       y1="15.369"
       x1="71.204002">
      <stop
         stop-color="#fff"
         offset="0"
         id="stop7" />
      <stop
         stop-color="#fff"
         stop-opacity=".23529"
         offset=".42448"
         id="stop9" />
      <stop
         stop-color="#fff"
         stop-opacity=".15686"
         offset=".82090"
         id="stop11" />
      <stop
         stop-color="#fff"
         stop-opacity=".39216"
         offset="1"
         id="stop13" />
    </linearGradient>
    <linearGradient
       id="linearGradient3767">
      <stop
         style="stop-color:#ffffff;stop-opacity:1;"
         offset="0"
         id="stop3769" />
      <stop
         id="stop3777"
         offset="0.08994294"
         style="stop-color:#ffffff;stop-opacity:0.23529412;" />
      <stop
         id="stop3775"
         offset="0.87385589"
         style="stop-color:#ffffff;stop-opacity:0.15686275;" />
      <stop
         style="stop-color:#ffffff;stop-opacity:0.39215687;"
         offset="1"
         id="stop3771" />
    </linearGradient>
    <radialGradient
       gradientUnits="userSpaceOnUse"
       gradientTransform="matrix(1,0,0,0.32352941,-1.9644775e-7,-296.86717)"
       r="17"
       fy="1045.8622"
       fx="24"
       cy="1045.8622"
       cx="24"
       id="radialGradient4329"
       xlink:href="#linearGradient4323" />
    <linearGradient
       id="linearGradient4323">
      <stop
         id="stop4325"
         offset="0"
         style="stop-color:#000000;stop-opacity:1;" />
      <stop
         id="stop4327"
         offset="1"
         style="stop-color:#000000;stop-opacity:0;" />
    </linearGradient>
    <linearGradient
       x1="23.99999"
       y1="4.999989"
       x2="23.99999"
       y2="43"
       id="linearGradient3058"
       xlink:href="#linearGradient3924-1"
       gradientUnits="userSpaceOnUse"
       gradientTransform="translate(-1.2203471,7.5254347)" />
    <linearGradient
       id="linearGradient3924-1">
      <stop
         id="stop3926-3"
         style="stop-color:#ffffff;stop-opacity:1"
         offset="0" />
      <stop
         id="stop3928-91"
         style="stop-color:#ffffff;stop-opacity:0.23529412"
         offset="0.06316455" />
      <stop
         id="stop3930-6"
         style="stop-color:#ffffff;stop-opacity:0.15686275"
         offset="0.95056331" />
      <stop
         id="stop3932-6"
         style="stop-color:#ffffff;stop-opacity:0.39215687"
         offset="1" />
    </linearGradient>
    <linearGradient
       id="linearGradient4326">
      <stop
         offset="0"
         style="stop-color:#ffffff;stop-opacity:1"
         id="stop4328-3" />
      <stop
         offset="0.45722568"
         style="stop-color:#ffffff;stop-opacity:0.23529412"
         id="stop4330-6" />
      <stop
         offset="0.83318615"
         style="stop-color:#ffffff;stop-opacity:0.15686275"
         id="stop4332" />
      <stop
         offset="1"
         style="stop-color:#ffffff;stop-opacity:0.39215687"
         id="stop4334" />
    </linearGradient>
    <linearGradient
       inkscape:collect="always"
       xlink:href="#path10-3-6_2_-5-8"
       id="linearGradient397-3"
       gradientUnits="userSpaceOnUse"
       gradientTransform="matrix(0.18239155,0,0,0.18285363,0.70338159,0.87233306)"
       x1="23.409851"
       y1="63.304691"
       x2="57.358685"
       y2="29.920277" />
    <linearGradient
       id="path10-3-6_2_-5-8"
       gradientUnits="userSpaceOnUse"
       x1="142.75"
       y1="-244.8286"
       x2="175.42799"
       y2="-224.38789"
       gradientTransform="matrix(1,0,0,-0.9993,-152.31562,-145.72595)">
      <stop
         offset="0"
         style="stop-color:#FF780A"
         id="stop3053-6-7" />
      <stop
         offset="1"
         style="stop-color:#FFBE3C"
         id="stop3055-2-9" />
    </linearGradient>
    <radialGradient
       id="rect4321_1_"
       cx="201.6602"
       cy="-2086.7812"
       r="17"
       gradientTransform="matrix(1,0,0,-0.3235,-218.09767,-653.19334)"
       gradientUnits="userSpaceOnUse">
      <stop
         offset="0"
         style="stop-color:#000000"
         id="stop3029" />
      <stop
         offset="1"
         style="stop-color:#000000;stop-opacity:0"
         id="stop3031" />
    </radialGradient>
    <linearGradient
       inkscape:collect="always"
       xlink:href="#linearGradient1397"
       id="linearGradient1387"
       x1="-33.465771"
       y1="24.041632"
       x2="-14.627748"
       y2="24.041632"
       gradientUnits="userSpaceOnUse"
       gradientTransform="matrix(0.28085039,0,0,0.28011489,14.753541,-14.734418)" />
    <linearGradient
       id="linearGradient1397"
       gradientUnits="userSpaceOnUse"
       x1="378.47989"
       y1="-460.11151"
       x2="378.47989"
       y2="-517.06409"
       gradientTransform="matrix(0.61461016,0,0,-0.61441522,-265.70328,-287.06434)">
      <stop
         offset="0"
         style="stop-color:#FFFFFF"
         id="stop1389" />
      <stop
         offset="0.44649339"
         style="stop-color:#FFFFFF;stop-opacity:0.2353"
         id="stop1391" />
      <stop
         offset="0.74252349"
         style="stop-color:#FFFFFF;stop-opacity:0.1569"
         id="stop1393" />
      <stop
         offset="1"
         style="stop-color:#FFFFFF;stop-opacity:0.3922"
         id="stop1395" />
    </linearGradient>
    <linearGradient
       inkscape:collect="always"
       xlink:href="#e-9-7-2-3"
       id="linearGradient4828"
       x1="257.13678"
       y1="68.803474"
       x2="295.37579"
       y2="68.803474"
       gradientUnits="userSpaceOnUse"
       gradientTransform="matrix(0.18285363,0,0,0.18239155,-58.514464,-4.5491728)" />
    <radialGradient
       gradientUnits="userSpaceOnUse"
       gradientTransform="translate(8092.4632,8552.5202)"
       r="38.471001"
       cy="-8460.9844"
       cx="-7945.6479"
       id="e-9-7-2-3">
      <stop
         id="stop890-4-7-7-6"
         stop-color="#3a8ee6"
         offset=".353" />
      <stop
         id="stop892-7-1-0-7"
         stop-color="#5c79f0"
         offset=".472" />
      <stop
         id="stop894-8-1-9-5"
         stop-color="#9059ff"
         offset=".669" />
      <stop
         id="stop896-4-5-3-35"
         stop-color="#c139e6"
         offset="1" />
    </radialGradient>
    <linearGradient
       inkscape:collect="always"
       xlink:href="#linearGradient4424"
       id="linearGradient397-3-1"
       gradientUnits="userSpaceOnUse"
       gradientTransform="matrix(0.18239155,0,0,0.18285363,0.7037886,0.71258017)"
       x1="40.128815"
       y1="2.3984256"
       x2="39.670506"
       y2="76.808434" />
  </defs>
  <metadata
     id="metadata4036">
    <rdf:RDF>
      <cc:Work
         rdf:about="">
        <dc:format>image/svg+xml</dc:format>
        <dc:type
           rdf:resource="http://purl.org/dc/dcmitype/StillImage" />
        <dc:title />
      </cc:Work>
    </rdf:RDF>
  </metadata>
  <ellipse
     id="path276"
     cx="-8"
     cy="8"
     style="fill:url(#linearGradient4828);fill-opacity:1;stroke-width:1.08102202"
     transform="rotate(-90)"
     rx="3.4960699"
     ry="3.4872353" />
  <ellipse
     id="path276-6"
     cx="-8"
     cy="8"
     style="opacity:0.7;fill:none;fill-opacity:1;stroke:#9059ff;stroke-width:1.08102202;stroke-opacity:1"
     transform="rotate(-90)"
     rx="3.4960699"
     ry="3.4872353" />
  <ellipse
     id="path276-6-4-6"
     cx="8"
     cy="-8"
     style="opacity:0.5;fill:none;fill-opacity:1;stroke:url(#linearGradient1387);stroke-width:1;stroke-miterlimit:4;stroke-dasharray:none;stroke-opacity:1"
     transform="rotate(90)"
     rx="2.4935303"
     ry="2.487" />
  <path
     style="fill:url(#linearGradient397-3);fill-opacity:1;stroke-width:1"
     d="m 10.915163,0.50523106 c -0.0018,1.54e-4 -0.0036,5.31e-4 -0.0053,0.0011 -0.0011,0 -0.0025,0.0018 -0.0036,0.0022 -0.0011,3.54e-4 -0.0032,0.0018 -0.005,0.0025 l 0.0025,-0.0046 C 9.1567326,1.531936 7.8691856,3.769212 7.7753186,4.760278 c 0.091,-0.0076 0.182266,-0.01169 0.273588,-0.01214 1.926034,-1.61e-4 3.4874904,1.56509 3.4875264,3.496005 -3.6e-5,1.930914 -1.5614924,3.496166 -3.4875264,3.496004 -0.403866,-0.0015 -0.804405,-0.07324 -1.183764,-0.212139 -0.01274,-0.0037 -0.02542,-0.0075 -0.03812,-0.01143 -0.01762,-0.0066 -0.03513,-0.01484 -0.05273,-0.02179 -0.04587,-0.01772 -0.09135,-0.03642 -0.136434,-0.05607 -0.0061,-0.0027 -0.01211,-0.0048 -0.01818,-0.0075 -0.03994,-0.0181 -0.07994,-0.03666 -0.119341,-0.05714 l 0.005,0.0032 c -0.03428,-0.01646 -0.06866,-0.03363 -0.102951,-0.05143 0.03301,0.01591 0.06404,0.03304 0.09796,0.04821 -0.01031,-0.0053 -0.02037,-0.01132 -0.03064,-0.01679 -2.477404,-1.41645 -1.691342,-4.008224 0.701779,-3.521361 0.217229,0 0.838658,-0.607999 0.850329,-0.78427 -0.0028,-0.0576 -1.23308,-0.54835 -1.71277,-1.022124 -0.256262,-0.253252 -0.377752,-0.37535 -0.485546,-0.466776 -7.06e-4,3.29e-4 -0.0011,3.89e-4 -0.0018,7.08e-4 7.06e-4,-4.61e-4 0.0011,-6.02e-4 0.0018,-0.0011 -0.0011,-9.91e-4 -0.0025,-0.0019 -0.0036,-0.0029 -0.0572,-0.04835 -0.116838,-0.09371 -0.178828,-0.135712 -0.0403,-0.14141 -0.07092,-0.284715 -0.09191,-0.429277 -0.01049,-0.07222 -0.01857,-0.144496 -0.02422,-0.217139 -0.02835,-0.363216 0.0037,-0.730217 0.09618,-1.085693 l -0.0011,7.08e-4 v -7.08e-4 c -9.5e-5,4.6e-5 -1.84e-4,-4.6e-5 -3.53e-4,0 -0.08142,0.03953 -0.161735,0.0814 -0.240817,0.124997 -0.475069,0.261906 -0.906523,0.595969 -1.279234,0.990696 -0.06217,0.06585 -0.122853,0.133343 -0.181677,0.202495 h -0.0018 C 3.6359856,4.653797 3.6557126,3.480054 3.6717646,3.234847 c -9.9e-5,4e-5 -1.84e-4,-4e-5 -3.53e-4,0 -0.08294,0.03341 -0.162113,0.07555 -0.236183,0.125712 -0.247182,0.176867 -0.478094,0.375497 -0.69038,0.593202 -6e-5,6.1e-5 -3.53e-4,-6e-5 -3.53e-4,0 -0.242011,0.246036 -0.462724,0.511962 -0.660459,0.794985 -0.45453,0.64588 -0.776951,1.375624 -0.948648,2.147102 l -0.0093,0.04678 c -0.01331,0.06235 -0.06126,0.374653 -0.06947,0.442491 0,0.0053 -0.0018,0.01005 -0.0021,0.01536 -0.0035,0.01861 -0.0063,0.03735 -0.0093,0.05607 0.0028,-0.01845 0.0061,-0.03625 0.0085,-0.05679 -7.06e-4,0.0031 -0.0011,0.0062 -0.0018,0.0093 3.53e-4,-0.0032 0.0011,-0.0059 0.0014,-0.0093 -0.06817,0.321687 -0.10621201,0.649057 -0.11364001,0.977838 v 0.03643 c 1.24e-4,-4.1e-5 1.84e-4,4.1e-5 3.53e-4,0 0.0036,3.678322 2.81376501,6.742685 6.46955301,7.054867 3.6557924,0.312177 6.9419504,-2.231597 7.5660444,-5.856318 0.01186,-0.09143 0.0215,-0.181939 0.03205,-0.274281 0.145609,-1.206406 -0.012,-2.430166 -0.458473,-3.559931 -0.799336,-1.996341 -2.154362,-2.802229 -3.26096,-4.5556269 -0.056,-0.08868 -0.111829,-0.177262 -0.166363,-0.27106604 -0.03117,-0.05358 -0.05631,-0.101993 -0.07801,-0.146426 -0.04592,-0.08914 -0.08131,-0.183345 -0.105446,-0.280709 3.2e-5,-0.0093 -0.0068,-0.0171 -0.01603,-0.01822 -0.0025,-7.43e-4 -0.0047,-0.0011 -0.0071,-0.0011 z"
     id="path980-0-9-7"
     inkscape:connector-curvature="0"
     sodipodi:nodetypes="cccccccccccccccccccccccccccccccccsccccccccccccccccccccsccccccccsc" />
  <path
     style="opacity:0.5;fill:none;fill-opacity:1;stroke:#a62100;stroke-width:1;stroke-linecap:round;stroke-linejoin:round;stroke-opacity:1"
     d="m 10.915173,0.50531537 c -0.0018,1.52e-4 -0.0036,3.54e-4 -0.0053,0.0011 -0.0011,0 -0.0025,0.0018 -0.0036,0.0021 -0.0011,3.54e-4 0.02577,-0.01482 0.02397,-0.01411 l -0.02648,0.01196 C 9.1567327,1.5318684 7.8691857,3.7691454 7.7753187,4.7602094 c 0.091,-0.0076 0.182266,-0.01168 0.273588,-0.01214 1.926034,-1.6e-4 3.4874903,1.56509 3.4875263,3.496003 -3.6e-5,1.9309176 -1.5614923,3.4961666 -3.4875263,3.4960076 -0.403866,-0.0014 -0.804405,-0.07324 -1.183764,-0.212141 -0.01274,-0.0037 -0.02542,-0.0075 -0.03812,-0.01143 -0.01762,-0.0066 -0.03513,-0.01483 -0.05273,-0.0218 -0.04587,-0.01773 -0.09135,-0.03642 -0.136434,-0.05607 -0.0061,-0.0025 -0.01211,-0.0048 -0.01818,-0.0075 -0.03994,-0.01812 -0.07994,-0.03666 -0.119341,-0.05714 l 0.005,0.0032 c -0.03428,-0.01646 -0.06866,-0.03362 -0.102951,-0.05143 0.03301,0.01593 0.06404,0.03306 0.09796,0.04821 -0.01031,-0.0053 -0.02037,-0.01132 -0.03064,-0.01678 -2.477404,-1.4164506 -1.691342,-4.0082226 0.701779,-3.5213616 0.217229,0 0.838658,-0.607997 0.850329,-0.78427 -0.0028,-0.0576 -1.23308,-0.54835 -1.71277,-1.022123 -0.256262,-0.253252 -0.377752,-0.375348 -0.485546,-0.466777 -7.06e-4,3.29e-4 -0.0011,3.54e-4 -0.0018,7.08e-4 7.06e-4,-3.54e-4 0.0011,-7.08e-4 0.0018,-0.0011 -0.0011,-0.0011 -0.0025,-0.0018 -0.0036,-0.0028 -0.0572,-0.04835 -0.116838,-0.09371 -0.178828,-0.135711 -0.0403,-0.141412 -0.07092,-0.284714 -0.09191,-0.429276 -0.01049,-0.07222 -0.01857,-0.144495 -0.02422,-0.217139 -0.02835,-0.363219 0.0037,-0.730217 0.09618,-1.085693 l -0.0011,7.08e-4 v -7.08e-4 c -9.5e-5,4.6e-5 -1.84e-4,-4.6e-5 -3.53e-4,0 -0.08142,0.03953 -0.161735,0.0814 -0.240817,0.124995 -0.475069,0.261908 -0.906523,0.595972 -1.279234,0.990696 -0.06217,0.06585 -0.122853,0.133343 -0.181677,0.202497 h -0.0018 c -0.280154,-0.356017 -0.260427,-1.529759 -0.244375,-1.774966 -9.9e-5,3.9e-5 -1.84e-4,-3.9e-5 -3.53e-4,0 -0.08294,0.03341 -0.162113,0.07555 -0.236183,0.125712 -0.247182,0.176867 -0.478094,0.375496 -0.69038,0.593201 -6e-5,6.4e-5 -3.53e-4,-6e-5 -3.53e-4,0 -0.242011,0.246035 -0.462724,0.511964 -0.660459,0.794987 -0.45453,0.645877 -0.776951,1.375624 -0.948648,2.1471 l -0.0093,0.04679 c -0.01331,0.06235 -0.06126,0.37465 -0.06947,0.442492 0,0.0053 -0.0018,0.01005 -0.0021,0.01536 -0.0035,0.01862 -0.0063,0.03735 -0.0093,0.05607 0.0028,-0.01844 0.0061,-0.03626 0.0085,-0.05679 -7.06e-4,0.0032 -0.0011,0.0062 -0.0018,0.0093 3.53e-4,-0.0032 0.0011,-0.0059 0.0014,-0.0093 -0.06817,0.321688 -0.10621204,0.649056 -0.11364004,0.977839 v 0.03643 c 1.24e-4,-4.2e-5 1.84e-4,3.9e-5 3.53e-4,0 0.0036,3.6783206 2.81376504,6.7426856 6.46955304,7.0548676 3.6557923,0.312177 6.9419503,-2.231597 7.5660443,-5.8563196 0.01186,-0.09143 0.0215,-0.181938 0.03205,-0.274281 0.145609,-1.206405 -0.012,-2.430165 -0.458473,-3.559931 -0.799336,-1.996341 -2.154362,-2.802228 -3.26096,-4.555627 -0.056,-0.08868 -0.111829,-0.177264 -0.166363,-0.27106803 -0.03117,-0.05358 -0.05631,-0.10199 -0.07801,-0.146424 -0.04592,-0.08914 -0.08131,-0.183347 -0.105446,-0.280711 3.2e-5,-0.0093 -0.0068,-0.01709 -0.01603,-0.01823 -0.0025,-7.07e-4 -0.0047,-0.0011 -0.0071,-0.0011 z"
     id="path980-0-9-7-06"
     inkscape:connector-curvature="0"
     sodipodi:nodetypes="cccccccccccccccccccccccccccccccccsccccccccccccccccccccsccccccccsc" />
  <path
     style="opacity:0.5;fill:url(#linearGradient397-3-1);fill-opacity:1;stroke-width:1"
     d="m 10.763955,1.165694 c -0.606239,0.4564764 -1.2107194,0.9868636 -1.6289064,1.6015625 -0.390087,0.5733929 -0.520388,1.0159313 -0.644532,1.4101562 1.9812854,0.22984 3.5487914,1.861728 3.5488284,3.90625 -4e-5,2.2004663 -1.791332,3.9962743 -3.9882814,3.9960933 a 0.50005,0.50005 0 0 0 -0.002,0 c -0.462012,-0.0016 -0.919724,-0.08336 -1.353516,-0.242187 -0.0045,-0.0014 -0.0092,-0.0025 -0.01367,-0.0039 a 0.50005,0.50005 0 0 1 -0.02734,-0.0098 c -0.04077,-0.01524 -0.0579,-0.02297 -0.05859,-0.02344 -0.04912,-0.01899 -0.09618,-0.03963 -0.144531,-0.06055 9.7e-4,3.9e-4 -0.01149,-0.002 -0.0332,-0.01172 a 0.50005,0.50005 0 0 0 -0.002,-0.002 c -0.02305,-0.01045 -0.05185,-0.0265 -0.07813,-0.03906 a 0.50005,0.50005 0 0 1 -0.03516,-0.01563 0.50005,0.50005 0 0 1 -0.0039,-0.002 0.50005,0.50005 0 0 1 -0.0078,-0.002 c -0.006,-0.0029 -0.01158,-0.0069 -0.01758,-0.0098 -0.0039,-0.0019 -0.0078,-0.004 -0.01172,-0.0059 -0.02936,-0.01437 -0.06277,-0.03161 -0.07422,-0.03711 -0.0044,-0.0023 -0.0093,-0.0036 -0.01367,-0.0059 A 0.50005,0.50005 0 0 1 5.9455206,11.360712 C 4.8381506,10.582159 4.2848536,9.535888 4.5119276,8.6029 c 0.240586,-0.9885023 1.295685,-1.6322846 2.595703,-1.4375 0.0046,-0.00231 0.0052,-8.058e-4 0.0098,-0.00391 0.03607,-0.024221 0.08933,-0.071151 0.138671,-0.1132812 -0.05091,-0.02549 -0.08395,-0.040229 -0.138671,-0.068359 C 6.7359606,6.7837436 6.2916666,6.5504004 5.9611806,6.2239904 5.7051036,5.9709202 5.5877356,5.851978 5.5061016,5.7825842 h 0.0039 a 0.50005,0.50005 0 0 1 -0.03711,-0.033203 v 0.00586 c -2.43e-4,-2.425e-4 0.0134,0.013455 0.02734,0.025391 -0.04409,-0.037265 -0.08984,-0.071756 -0.136719,-0.1035156 A 0.50005,0.50005 0 0 1 5.1623406,5.3997729 c -0.04641,-0.1628371 -0.0813,-0.3276487 -0.105468,-0.4941407 -0.01206,-0.083036 -0.02084,-0.16617 -0.02734,-0.25 -0.0029,-0.037258 0.01153,-0.074008 0.0098,-0.1113281 -0.19174,0.148852 -0.406945,0.2681585 -0.574218,0.4453125 -0.05659,0.059937 -0.111173,0.1214037 -0.164063,0.1835937 a 0.50005,0.50005 0 0 1 -0.380859,0.1757813 h -0.002 A 0.50005,0.50005 0 0 1 3.5256146,5.1578553 c -0.28514,-0.36235 -0.28683,-0.7364589 -0.3125,-1.1074218 -0.03398,0.03281 -0.07441,0.057937 -0.107422,0.091797 a 0.50005,0.50005 0 0 0 -0.002,0.00195 c -0.222278,0.225973 -0.425517,0.4701017 -0.607422,0.7304687 a 0.50005,0.50005 0 0 0 0,0.00195 c -0.414182,0.588544 -0.709132,1.2523811 -0.867188,1.9550781 l -0.0039,0.00586 -0.0078,0.041016 a 0.50005,0.50005 0 0 1 -0.002,0.00781 c 0.0064,-0.029877 -0.05325,0.3314193 -0.06055,0.3808594 a 0.50005,0.50005 0 0 1 -0.002,0.013672 0.50005,0.50005 0 0 0 0,0.00195 v 0.00195 a 0.50005,0.50005 0 0 1 -0.002,0.011719 0.50005,0.50005 0 0 1 -0.0039,0.035156 c -8e-4,0.00477 -0.0013,0.00997 -0.002,0.013672 -0.0011,0.0068 -0.0035,0.022591 -0.0039,0.025391 h -0.002 c -2.92e-4,0.0018 3.13e-4,0.00191 0,0.00391 a 0.50005,0.50005 0 0 1 0,0.00586 c -2.58e-4,0.0013 2.59e-4,0.00261 0,0.00391 -0.05647,0.2782701 -0.09321,0.5597811 -0.09961,0.84375 a 0.50005,0.50005 0 0 1 0.002,0.025391 c 0.0034,3.4239323 2.610667,6.2662113 6.011719,6.5566403 3.4010584,0.290425 6.4483674,-2.069329 7.0292974,-5.443359 0.0098,-0.077842 0.0193,-0.1588638 0.0293,-0.2460938 a 0.50005,0.50005 0 0 1 0,-0.00391 C 14.647306,7.9936252 14.499349,6.8542631 14.084004,5.802378 13.339695,3.945994 12.032678,3.1794988 10.865254,1.3297218 10.833064,1.2787498 10.797594,1.2209553 10.763692,1.1656593 Z m -0.125,1.6523437 c 1.036365,1.366478 1.991523,2.2059641 2.517578,3.5175782 0.353638,0.896633 0.478843,1.8667617 0.363281,2.8242187 a 1.50015,1.50015 0 0 0 -0.002,0.00977 c -0.009,0.07891 -0.01628,0.1399688 -0.02344,0.1992188 -0.49918,2.8668446 -3.067109,4.8540316 -5.9550794,4.6074206 -2.89092,-0.246867 -5.093799,-2.646291 -5.097656,-5.5605456 v -0.00195 a 1.50015,1.50015 0 0 0 0,-0.013672 1.50015,1.50015 0 0 0 0,-0.00586 c 0.0061,-0.223754 0.03276,-0.4449485 0.07813,-0.6640625 a 1.50015,1.50015 0 0 0 0.0078,-0.035156 c 0.0035,-0.02193 0.0029,-0.016649 0.002,-0.011719 -3.04e-4,0.0016 8.39e-4,-0.00841 0,-0.00391 a 1.50015,1.50015 0 0 0 0.01563,-0.1035157 1.50015,1.50015 0 0 0 0,-0.00195 1.50015,1.50015 0 0 0 0,-0.00391 1.50015,1.50015 0 0 0 0,-0.00391 1.50015,1.50015 0 0 0 0.002,-0.015625 v 0.015625 c -0.0095,0.07864 0.09352,-0.5270318 0.04687,-0.3085937 a 1.50015,1.50015 0 0 0 0.0039,-0.021484 l 0.0039,-0.013672 c 0.07955,-0.357435 0.276983,-0.6681846 0.439454,-0.9941406 a 1.50015,1.50015 0 0 0 0.876953,0.2832031 h 0.002 a 1.50015,1.50015 0 0 0 0.580078,-0.1171875 1.50015,1.50015 0 0 0 0.300781,0.2714844 c 0.01666,0.01129 0.03487,0.025916 0.05273,0.041016 l -0.04102,-0.037109 c 1.71e-4,1.55e-4 0.02585,0.020429 0.04687,0.037109 -0.0472,-0.039802 -0.09597,-0.082302 -0.0957,-0.082031 l 0.0039,-0.023437 a 1.50015,1.50015 0 0 0 0.117188,0.109375 l -0.02148,-0.00195 c -0.0016,-0.00134 -0.0023,-6.125e-4 -0.0039,-0.00195 h -0.0059 c 0.0056,0.0047 0.06416,0.063029 0.07617,0.074219 -0.681348,0.391648 -1.208945,0.9935429 -1.392579,1.7480469 -0.314113,1.290602 0.408475,2.5360572 1.541016,3.4902342 a 1.50015,1.50015 0 0 0 0.634766,0.638672 c 0.0131,0.0068 0.02598,0.01288 0.03906,0.01953 -0.0058,-0.0028 0.04139,0.02039 0.05469,0.02734 9.5e-4,4.97e-4 0.0029,0.0014 0.0039,0.0019 0.0015,7.62e-4 0.0042,0.0011 0.0059,0.002 0.01384,0.0068 0.0272,0.01485 0.04102,0.02148 a 1.50015,1.50015 0 0 0 0.0332,0.01367 c 0.03898,0.01876 0.08365,0.04213 0.111328,0.05469 a 1.50015,1.50015 0 0 0 0.0098,0.0039 c 0.05298,0.02357 0.07368,0.03157 0.05859,0.02539 0.05418,0.02318 0.109126,0.04517 0.164063,0.06641 -0.01918,-0.0071 -0.01344,-0.0033 0.06836,0.02734 a 1.50015,1.50015 0 0 0 0.04687,0.01563 c 0.54266,0.198693 1.117008,0.302683 1.695313,0.304688 a 1.50015,1.50015 0 0 0 0.0059,0 c 2.7387814,2.26e-4 4.9862774,-2.256532 4.9863284,-4.9960938 -3.9e-5,-2.086441 -1.310784,-3.8765547 -3.1425784,-4.6191406 0.03959,-0.06529 0.02284,-0.070721 0.06641,-0.1347657 C 10.142694,3.225296 10.412107,3.0642158 10.639084,2.8180278 Z M 6.3498916,12.937177 a 1.50015,1.50015 0 0 0 0.03516,0.01367 c 0.0212,0.0066 0.0416,0.01346 0.0625,0.01953 z m 0.302735,-6.1230455 c 0.01136,-0.0075 -0.09605,0.058794 -0.0957,0.058594 a 1.50015,1.50015 0 0 0 0.05469,-0.035156 c 0.01624,-0.0094 0.03805,-0.021478 0.04102,-0.023437 z"
     id="path980-0-9-7-9"
     inkscape:connector-curvature="0" />
</svg>
