<?xml version="1.0" encoding="UTF-8" standalone="no"?>
<!-- Generator: Adobe Illustrator 16.0.3, SVG Export Plug-In . SVG Version: 6.00 Build 0)  -->

<svg
   xmlns:dc="http://purl.org/dc/elements/1.1/"
   xmlns:cc="http://creativecommons.org/ns#"
   xmlns:rdf="http://www.w3.org/1999/02/22-rdf-syntax-ns#"
   xmlns:svg="http://www.w3.org/2000/svg"
   xmlns="http://www.w3.org/2000/svg"
   xmlns:xlink="http://www.w3.org/1999/xlink"
   xmlns:sodipodi="http://sodipodi.sourceforge.net/DTD/sodipodi-0.dtd"
   xmlns:inkscape="http://www.inkscape.org/namespaces/inkscape"
   version="1.1"
   id="svg4031"
   sodipodi:docname="firefox_48.svg"
   inkscape:version="0.92.3 (2405546, 2018-03-11)"
   x="0px"
   y="0px"
   width="48px"
   height="48px"
   viewBox="0 0 48 48"
   enable-background="new 0 0 48 48"
   xml:space="preserve"><metadata
     id="metadata3065"><rdf:RDF><cc:Work
         rdf:about=""><dc:format>image/svg+xml</dc:format><dc:type
           rdf:resource="http://purl.org/dc/dcmitype/StillImage" /></cc:Work></rdf:RDF></metadata><defs
     id="defs3063"><linearGradient
       id="linearGradient1397"
       gradientUnits="userSpaceOnUse"
       x1="378.47989"
       y1="-460.11151"
       x2="378.47989"
       y2="-517.06409"
       gradientTransform="matrix(0.61461016,0,0,-0.61441522,-265.70328,-287.06434)"><stop
         offset="0"
         style="stop-color:#FFFFFF"
         id="stop1389" /><stop
         offset="0.44649339"
         style="stop-color:#FFFFFF;stop-opacity:0.2353"
         id="stop1391" /><stop
         offset="0.74252349"
         style="stop-color:#FFFFFF;stop-opacity:0.1569"
         id="stop1393" /><stop
         offset="1"
         style="stop-color:#FFFFFF;stop-opacity:0.3922"
         id="stop1395" /></linearGradient><linearGradient
       id="linearGradient5090"><stop
         id="stop5082"
         style="stop-color:#ffffff;stop-opacity:1"
         offset="0" /><stop
         id="stop5084"
         style="stop-color:#ffffff;stop-opacity:0.23529412"
         offset="0.46358377" /><stop
         id="stop5086"
         style="stop-color:#ffffff;stop-opacity:0.15686275"
         offset="0.67741311" /><stop
         id="stop5088"
         style="stop-color:#ffffff;stop-opacity:0.39215687"
         offset="1" /></linearGradient><linearGradient
       id="linearGradient540"
       x1="70.786003"
       y1="12.393"
       x2="6.447"
       y2="74.468002"
       gradientUnits="userSpaceOnUse"
       gradientTransform="translate(84.740718,-21.987574)"><stop
         offset="0"
         stop-color="#ffc830"
         id="stop528" /></linearGradient><marker
       inkscape:stockid="Arrow1Lend"
       orient="auto"
       refY="0.0"
       refX="0.0"
       id="Arrow1Lend"
       style="overflow:visible;"><path
         id="path3842"
         d="M 0.0,0.0 L 5.0,-5.0 L -12.5,0.0 L 5.0,5.0 L 0.0,0.0 z "
         style="fill-rule:evenodd;stroke:#000000;stroke-width:1.0pt;"
         transform="scale(0.8) rotate(180) translate(12.5,0)" /></marker><linearGradient
       inkscape:collect="always"
       xlink:href="#linearGradient4326"
       id="linearGradient4274-2-0-3-5"
       x1="-17.197968"
       y1="2.7050979"
       x2="-16.776388"
       y2="42.346199"
       gradientUnits="userSpaceOnUse"
       gradientTransform="matrix(0.70000031,0,0,0.69537264,28.173298,0.411356)" /><linearGradient
       id="linearGradient4326"><stop
         offset="0"
         style="stop-color:#ffffff;stop-opacity:1"
         id="stop4328" /><stop
         offset="0.45722568"
         style="stop-color:#ffffff;stop-opacity:0.23529412"
         id="stop4330" /><stop
         offset="0.83318615"
         style="stop-color:#ffffff;stop-opacity:0.15686275"
         id="stop4332" /><stop
         offset="1"
         style="stop-color:#ffffff;stop-opacity:0.39215687"
         id="stop4334" /></linearGradient><linearGradient
       y2="42.346199"
       x2="-16.776388"
       y1="2.7050979"
       x1="-17.197968"
       gradientTransform="matrix(0.70000031,0,0,0.69537264,34.270384,10.690596)"
       gradientUnits="userSpaceOnUse"
       id="linearGradient4770"
       xlink:href="#linearGradient4326"
       inkscape:collect="always" /><linearGradient
       inkscape:collect="always"
       xlink:href="#linearGradient4326"
       id="linearGradient4799"
       x1="-62.481998"
       y1="38.377953"
       x2="-23.482"
       y2="38.377953"
       gradientUnits="userSpaceOnUse" /><linearGradient
       inkscape:collect="always"
       xlink:href="#linearGradient4326"
       id="linearGradient4805"
       gradientUnits="userSpaceOnUse"
       x1="-62.481998"
       y1="38.377953"
       x2="-23.482"
       y2="38.377953" /><linearGradient
       id="path10-3-6_2_-5"
       gradientUnits="userSpaceOnUse"
       x1="142.75"
       y1="-244.8286"
       x2="175.42799"
       y2="-224.38789"
       gradientTransform="matrix(1,0,0,-0.9993,-152.31555,-144.72649)"><stop
         offset="0"
         style="stop-color:#FF780A"
         id="stop3053-6" /><stop
         offset="1"
         style="stop-color:#FFBE3C"
         id="stop3055-2" /></linearGradient><linearGradient
       id="linearGradient4261"
       gradientUnits="userSpaceOnUse"
       x1="-559.78308"
       y1="-127.1764"
       x2="-520.98431"
       y2="-127.1764"
       gradientTransform="matrix(0,-0.962,-0.9623,0,-98.5896,-494.5154)"><stop
         offset="0"
         style="stop-color:#0D52BF"
         id="stop3036-9" /><stop
         offset="1"
         style="stop-color:#64BAFF"
         id="stop3038-1" /></linearGradient><linearGradient
       id="linearGradient4265"
       gradientUnits="userSpaceOnUse"
       x1="378.47989"
       y1="-460.11151"
       x2="378.47989"
       y2="-517.06409"
       gradientTransform="matrix(0.631,0,0,-0.6308,-215.0463,-283.8547)"><stop
         offset="0"
         style="stop-color:#FFFFFF"
         id="stop3043-2" /><stop
         offset="0.0899"
         style="stop-color:#FFFFFF;stop-opacity:0.2353"
         id="stop3045-7" /><stop
         offset="0.8739"
         style="stop-color:#FFFFFF;stop-opacity:0.1569"
         id="stop3047-0" /><stop
         offset="1"
         style="stop-color:#FFFFFF;stop-opacity:0.3922"
         id="stop3049-9" /></linearGradient><linearGradient
       gradientTransform="matrix(0,-0.962,-0.9623,0,-98.5896,-494.5154)"
       y2="-127.1764"
       x2="-520.98431"
       y1="-127.1764"
       x1="-559.78308"
       gradientUnits="userSpaceOnUse"
       id="linearGradient4199"><stop
         id="stop4201"
         style="stop-color:#0D52BF"
         offset="0" /><stop
         id="stop4203"
         style="stop-color:#64BAFF"
         offset="1" /></linearGradient><linearGradient
       gradientTransform="matrix(0.631,0,0,-0.6308,-215.0463,-283.8547)"
       y2="-517.06409"
       x2="378.47989"
       y1="-460.11151"
       x1="378.47989"
       gradientUnits="userSpaceOnUse"
       id="linearGradient4207"><stop
         id="stop4209"
         style="stop-color:#FFFFFF"
         offset="0" /><stop
         id="stop4211"
         style="stop-color:#FFFFFF;stop-opacity:0.2353"
         offset="0.0899" /><stop
         id="stop4213"
         style="stop-color:#FFFFFF;stop-opacity:0.1569"
         offset="0.8739" /><stop
         id="stop4215"
         style="stop-color:#FFFFFF;stop-opacity:0.3922"
         offset="1" /></linearGradient><linearGradient
       id="path10-3-6_2_-5-8"
       gradientUnits="userSpaceOnUse"
       x1="142.75"
       y1="-244.8286"
       x2="175.42799"
       y2="-224.38789"
       gradientTransform="matrix(1,0,0,-0.9993,-152.31562,-145.72595)"><stop
         offset="0"
         style="stop-color:#FF780A"
         id="stop3053-6-7" /><stop
         offset="1"
         style="stop-color:#FFBE3C"
         id="stop3055-2-9" /></linearGradient><linearGradient
       gradientTransform="translate(-124.12198,98.884793)"
       gradientUnits="userSpaceOnUse"
       y2="66.806"
       x2="15.267"
       y1="12.061"
       x1="70.013"
       id="l"><stop
         id="stop969"
         stop-opacity=".8"
         stop-color="#fff44f"
         offset=".167" /><stop
         id="stop971"
         stop-opacity=".634"
         stop-color="#fff44f"
         offset=".266" /><stop
         id="stop973"
         stop-opacity=".217"
         stop-color="#fff44f"
         offset=".489" /><stop
         id="stop975"
         stop-opacity="0"
         stop-color="#fff44f"
         offset=".6" /></linearGradient><radialGradient
       gradientUnits="userSpaceOnUse"
       gradientTransform="translate(7903.6217,8519.8784)"
       r="80.685997"
       cy="-8503.8613"
       cx="-7918.9229"
       id="k"><stop
         id="stop960"
         stop-color="#fff44f"
         offset=".094" /><stop
         id="stop962"
         stop-color="#ffe141"
         offset=".231" /><stop
         id="stop964"
         stop-color="#ffaf1e"
         offset=".509" /><stop
         id="stop966"
         stop-color="#ff980e"
         offset=".626" /></radialGradient><radialGradient
       gradientUnits="userSpaceOnUse"
       gradientTransform="translate(7881.9907,8501.2624)"
       r="73.720001"
       cy="-8508.1758"
       cx="-7938.3828"
       id="j"><stop
         id="stop949"
         stop-color="#fff44f"
         offset=".137" /><stop
         id="stop951"
         stop-color="#ff980e"
         offset=".48" /><stop
         id="stop953"
         stop-color="#ff5634"
         offset=".592" /><stop
         id="stop955"
         stop-color="#ff3647"
         offset=".655" /><stop
         id="stop957"
         stop-color="#e31587"
         offset=".904" /></radialGradient><radialGradient
       gradientUnits="userSpaceOnUse"
       gradientTransform="matrix(0.105,0.995,-0.653,0.069,-4777.0133,8447.4534)"
       r="86.499001"
       cy="-8522.8594"
       cx="-7927.165"
       id="i"><stop
         id="stop932"
         stop-color="#fff44f"
         offset="0" /><stop
         id="stop934"
         stop-color="#ffe847"
         offset=".06" /><stop
         id="stop936"
         stop-color="#ffc830"
         offset=".168" /><stop
         id="stop938"
         stop-color="#ff980e"
         offset=".304" /><stop
         id="stop940"
         stop-color="#ff8b16"
         offset=".356" /><stop
         id="stop942"
         stop-color="#ff672a"
         offset=".455" /><stop
         id="stop944"
         stop-color="#ff3647"
         offset=".57" /><stop
         id="stop946"
         stop-color="#e31587"
         offset=".737" /></radialGradient><radialGradient
       gradientUnits="userSpaceOnUse"
       gradientTransform="translate(7881.9907,8501.2624)"
       r="118.081"
       cy="-8535.9814"
       cx="-7915.9771"
       id="h"><stop
         id="stop921"
         stop-color="#fff44f"
         offset=".113" /><stop
         id="stop923"
         stop-color="#ff980e"
         offset=".456" /><stop
         id="stop925"
         stop-color="#ff5634"
         offset=".622" /><stop
         id="stop927"
         stop-color="#ff3647"
         offset=".716" /><stop
         id="stop929"
         stop-color="#e31587"
         offset=".904" /></radialGradient><radialGradient
       gradientUnits="userSpaceOnUse"
       gradientTransform="translate(7881.9907,8501.2624)"
       r="27.676001"
       cy="-8518.4268"
       cx="-7937.731"
       id="g"><stop
         id="stop908"
         stop-color="#ffe226"
         offset="0" /><stop
         id="stop910"
         stop-color="#ffdb27"
         offset=".121" /><stop
         id="stop912"
         stop-color="#ffc82a"
         offset=".295" /><stop
         id="stop914"
         stop-color="#ffa930"
         offset=".502" /><stop
         id="stop916"
         stop-color="#ff7e37"
         offset=".732" /><stop
         id="stop918"
         stop-color="#ff7139"
         offset=".792" /></radialGradient><radialGradient
       gradientUnits="userSpaceOnUse"
       gradientTransform="matrix(0.972,-0.235,0.275,1.138,9998.293,7811.0604)"
       r="20.396999"
       cy="-8491.5459"
       cx="-7935.6201"
       id="f"><stop
         id="stop899"
         stop-opacity="0"
         stop-color="#9059ff"
         offset=".206" /><stop
         id="stop901"
         stop-opacity=".064"
         stop-color="#8c4ff3"
         offset=".278" /><stop
         id="stop903"
         stop-opacity=".45"
         stop-color="#7716a8"
         offset=".747" /><stop
         id="stop905"
         stop-opacity=".6"
         stop-color="#6e008b"
         offset=".975" /></radialGradient><radialGradient
       gradientUnits="userSpaceOnUse"
       gradientTransform="translate(7881.9907,8501.2624)"
       r="38.471001"
       cy="-8460.9844"
       cx="-7945.6479"
       id="e"><stop
         id="stop890"
         stop-color="#3a8ee6"
         offset=".353" /><stop
         id="stop892"
         stop-color="#5c79f0"
         offset=".472" /><stop
         id="stop894"
         stop-color="#9059ff"
         offset=".669" /><stop
         id="stop896"
         stop-color="#c139e6"
         offset="1" /></radialGradient><radialGradient
       gradientUnits="userSpaceOnUse"
       gradientTransform="translate(7881.9907,8501.2624)"
       r="58.534"
       cy="-8533.457"
       cx="-7926.9702"
       id="d"><stop
         id="stop881"
         stop-color="#fff44f"
         offset=".132" /><stop
         id="stop883"
         stop-color="#ffdc3e"
         offset=".252" /><stop
         id="stop885"
         stop-color="#ff9d12"
         offset=".506" /><stop
         id="stop887"
         stop-color="#ff980e"
         offset=".526" /></radialGradient><radialGradient
       gradientUnits="userSpaceOnUse"
       gradientTransform="translate(7881.9907,8501.2624)"
       r="80.796997"
       cy="-8482.0889"
       cx="-7936.7109"
       id="c"><stop
         id="stop870"
         stop-color="#960e18"
         offset=".3" /><stop
         id="stop872"
         stop-opacity=".74"
         stop-color="#b11927"
         offset=".351" /><stop
         id="stop874"
         stop-opacity=".343"
         stop-color="#db293d"
         offset=".435" /><stop
         id="stop876"
         stop-opacity=".094"
         stop-color="#f5334b"
         offset=".497" /><stop
         id="stop878"
         stop-opacity="0"
         stop-color="#ff3750"
         offset=".53" /></radialGradient><radialGradient
       gradientUnits="userSpaceOnUse"
       gradientTransform="translate(7881.9907,8501.2624)"
       r="80.796997"
       cy="-8515.1211"
       cx="-7907.187"
       id="b"><stop
         id="stop851"
         stop-color="#ffbd4f"
         offset=".129" /><stop
         id="stop853"
         stop-color="#ffac31"
         offset=".186" /><stop
         id="stop855"
         stop-color="#ff9d17"
         offset=".247" /><stop
         id="stop857"
         stop-color="#ff980e"
         offset=".283" /><stop
         id="stop859"
         stop-color="#ff563b"
         offset=".403" /><stop
         id="stop861"
         stop-color="#ff3750"
         offset=".467" /><stop
         id="stop863"
         stop-color="#f5156c"
         offset=".71" /><stop
         id="stop865"
         stop-color="#eb0878"
         offset=".782" /><stop
         id="stop867"
         stop-color="#e50080"
         offset=".86" /></radialGradient><linearGradient
       gradientTransform="translate(-93.009282,-22.737574)"
       gradientUnits="userSpaceOnUse"
       y2="74.468002"
       x2="6.447"
       y1="12.393"
       x1="70.786003"
       id="a"><stop
         id="stop834"
         stop-color="#fff44f"
         offset=".048" /><stop
         id="stop836"
         stop-color="#ffe847"
         offset=".111" /><stop
         id="stop838"
         stop-color="#ffc830"
         offset=".225" /><stop
         id="stop840"
         stop-color="#ff980e"
         offset=".368" /><stop
         id="stop842"
         stop-color="#ff8b16"
         offset=".401" /><stop
         id="stop844"
         stop-color="#ff672a"
         offset=".462" /><stop
         id="stop846"
         stop-color="#ff3647"
         offset=".534" /><stop
         id="stop848"
         stop-color="#e31587"
         offset=".705" /></linearGradient><linearGradient
       gradientTransform="translate(84.740718,-21.987574)"
       gradientUnits="userSpaceOnUse"
       y2="66.806"
       x2="15.267"
       y1="12.061"
       x1="70.013"
       id="l-3"><stop
         id="stop969-6"
         stop-opacity=".8"
         stop-color="#fff44f"
         offset=".167" /><stop
         id="stop971-7"
         stop-opacity=".634"
         stop-color="#fff44f"
         offset=".266" /><stop
         id="stop973-5"
         stop-opacity=".217"
         stop-color="#fff44f"
         offset=".489" /><stop
         id="stop975-3"
         stop-opacity="0"
         stop-color="#fff44f"
         offset=".6" /></linearGradient><radialGradient
       gradientUnits="userSpaceOnUse"
       gradientTransform="translate(8059.7407,8502.0124)"
       r="80.685997"
       cy="-8503.8613"
       cx="-7918.9229"
       id="k-5"><stop
         id="stop960-6"
         stop-color="#fff44f"
         offset=".094" /><stop
         id="stop962-2"
         stop-color="#ffe141"
         offset=".231" /><stop
         id="stop964-9"
         stop-color="#ffaf1e"
         offset=".509" /><stop
         id="stop966-1"
         stop-color="#ff980e"
         offset=".626" /></radialGradient><radialGradient
       gradientUnits="userSpaceOnUse"
       gradientTransform="translate(8059.7407,8502.0124)"
       r="73.720001"
       cy="-8508.1758"
       cx="-7938.3828"
       id="j-2"><stop
         id="stop949-7"
         stop-color="#fff44f"
         offset=".137" /><stop
         id="stop951-0"
         stop-color="#ff980e"
         offset=".48" /><stop
         id="stop953-9"
         stop-color="#ff5634"
         offset=".592" /><stop
         id="stop955-3"
         stop-color="#ff3647"
         offset=".655" /><stop
         id="stop957-6"
         stop-color="#e31587"
         offset=".904" /></radialGradient><radialGradient
       gradientUnits="userSpaceOnUse"
       gradientTransform="matrix(0.105,0.995,-0.653,0.069,-4599.2633,8448.2034)"
       r="86.499001"
       cy="-8522.8594"
       cx="-7927.165"
       id="i-0"><stop
         id="stop932-6"
         stop-color="#fff44f"
         offset="0" /><stop
         id="stop934-2"
         stop-color="#ffe847"
         offset=".06" /><stop
         id="stop936-6"
         stop-color="#ffc830"
         offset=".168" /><stop
         id="stop938-1"
         stop-color="#ff980e"
         offset=".304" /><stop
         id="stop940-8"
         stop-color="#ff8b16"
         offset=".356" /><stop
         id="stop942-7"
         stop-color="#ff672a"
         offset=".455" /><stop
         id="stop944-9"
         stop-color="#ff3647"
         offset=".57" /><stop
         id="stop946-2"
         stop-color="#e31587"
         offset=".737" /></radialGradient><radialGradient
       gradientUnits="userSpaceOnUse"
       gradientTransform="translate(8059.9907,8526.5124)"
       r="118.081"
       cy="-8535.9814"
       cx="-7915.9771"
       id="h-0"><stop
         id="stop921-2"
         stop-color="#fff44f"
         offset=".113" /><stop
         id="stop923-3"
         stop-color="#ff980e"
         offset=".456" /><stop
         id="stop925-7"
         stop-color="#ff5634"
         offset=".622" /><stop
         id="stop927-5"
         stop-color="#ff3647"
         offset=".716" /><stop
         id="stop929-9"
         stop-color="#e31587"
         offset=".904" /></radialGradient><radialGradient
       gradientUnits="userSpaceOnUse"
       gradientTransform="translate(8059.7407,8502.0124)"
       r="27.676001"
       cy="-8518.4268"
       cx="-7937.731"
       id="g-2"><stop
         id="stop908-2"
         stop-color="#ffe226"
         offset="0" /><stop
         id="stop910-8"
         stop-color="#ffdb27"
         offset=".121" /><stop
         id="stop912-9"
         stop-color="#ffc82a"
         offset=".295" /><stop
         id="stop914-7"
         stop-color="#ffa930"
         offset=".502" /><stop
         id="stop916-3"
         stop-color="#ff7e37"
         offset=".732" /><stop
         id="stop918-6"
         stop-color="#ff7139"
         offset=".792" /></radialGradient><radialGradient
       gradientUnits="userSpaceOnUse"
       gradientTransform="matrix(0.972,-0.235,0.275,1.138,10104.043,7780.0604)"
       r="20.396999"
       cy="-8491.5459"
       cx="-7935.6201"
       id="f-1"><stop
         id="stop899-2"
         stop-opacity="0"
         stop-color="#9059ff"
         offset=".206" /><stop
         id="stop901-9"
         stop-opacity=".064"
         stop-color="#8c4ff3"
         offset=".278" /><stop
         id="stop903-3"
         stop-opacity=".45"
         stop-color="#7716a8"
         offset=".747" /><stop
         id="stop905-1"
         stop-opacity=".6"
         stop-color="#6e008b"
         offset=".975" /></radialGradient><radialGradient
       gradientUnits="userSpaceOnUse"
       gradientTransform="translate(8059.7407,8502.0124)"
       r="38.471001"
       cy="-8460.9844"
       cx="-7945.6479"
       id="e-9"><stop
         id="stop890-4"
         stop-color="#3a8ee6"
         offset=".353" /><stop
         id="stop892-7"
         stop-color="#5c79f0"
         offset=".472" /><stop
         id="stop894-8"
         stop-color="#9059ff"
         offset=".669" /><stop
         id="stop896-4"
         stop-color="#c139e6"
         offset="1" /></radialGradient><radialGradient
       gradientUnits="userSpaceOnUse"
       gradientTransform="translate(8059.7407,8502.0124)"
       r="58.534"
       cy="-8533.457"
       cx="-7926.9702"
       id="d-5"><stop
         id="stop881-0"
         stop-color="#fff44f"
         offset=".132" /><stop
         id="stop883-3"
         stop-color="#ffdc3e"
         offset=".252" /><stop
         id="stop885-6"
         stop-color="#ff9d12"
         offset=".506" /><stop
         id="stop887-1"
         stop-color="#ff980e"
         offset=".526" /></radialGradient><radialGradient
       gradientUnits="userSpaceOnUse"
       gradientTransform="translate(8065.7407,8524.7624)"
       r="80.796997"
       cy="-8482.0889"
       cx="-7936.7109"
       id="c-0"><stop
         id="stop870-6"
         stop-color="#960e18"
         offset=".3" /><stop
         id="stop872-3"
         stop-opacity=".74"
         stop-color="#b11927"
         offset=".351" /><stop
         id="stop874-2"
         stop-opacity=".343"
         stop-color="#db293d"
         offset=".435" /><stop
         id="stop876-0"
         stop-opacity=".094"
         stop-color="#f5334b"
         offset=".497" /><stop
         id="stop878-6"
         stop-opacity="0"
         stop-color="#ff3750"
         offset=".53" /></radialGradient><radialGradient
       gradientUnits="userSpaceOnUse"
       gradientTransform="translate(8059.7407,8502.0124)"
       r="80.796997"
       cy="-8515.1211"
       cx="-7907.187"
       id="b-1"><stop
         id="stop851-5"
         stop-color="#ffbd4f"
         offset=".129" /><stop
         id="stop853-5"
         stop-color="#ffac31"
         offset=".186" /><stop
         id="stop855-4"
         stop-color="#ff9d17"
         offset=".247" /><stop
         id="stop857-7"
         stop-color="#ff980e"
         offset=".283" /><stop
         id="stop859-6"
         stop-color="#ff563b"
         offset=".403" /><stop
         id="stop861-5"
         stop-color="#ff3750"
         offset=".467" /><stop
         id="stop863-6"
         stop-color="#f5156c"
         offset=".71" /><stop
         id="stop865-9"
         stop-color="#eb0878"
         offset=".782" /><stop
         id="stop867-3"
         stop-color="#e50080"
         offset=".86" /></radialGradient><linearGradient
       gradientTransform="translate(84.740718,-21.987574)"
       gradientUnits="userSpaceOnUse"
       y2="74.468002"
       x2="6.447"
       y1="12.393"
       x1="70.786003"
       id="a-7"><stop
         id="stop834-4"
         stop-color="#fff44f"
         offset=".048" /><stop
         id="stop836-5"
         stop-color="#ffe847"
         offset=".111" /><stop
         id="stop838-2"
         stop-color="#ffc830"
         offset=".225" /><stop
         id="stop840-5"
         stop-color="#ff980e"
         offset=".368" /><stop
         id="stop842-4"
         stop-color="#ff8b16"
         offset=".401" /><stop
         id="stop844-7"
         stop-color="#ff672a"
         offset=".462" /><stop
         id="stop846-4"
         stop-color="#ff3647"
         offset=".534" /><stop
         id="stop848-4"
         stop-color="#e31587"
         offset=".705" /></linearGradient><radialGradient
       gradientUnits="userSpaceOnUse"
       gradientTransform="translate(7956.382,8459.4105)"
       r="38.471001"
       cy="-8460.9844"
       cx="-7945.6479"
       id="e-9-0"><stop
         id="stop890-4-6"
         stop-color="#3a8ee6"
         offset=".353" /><stop
         id="stop892-7-8"
         stop-color="#5c79f0"
         offset=".472" /><stop
         id="stop894-8-9"
         stop-color="#9059ff"
         offset=".669" /><stop
         id="stop896-4-2"
         stop-color="#c139e6"
         offset="1" /></radialGradient><radialGradient
       gradientUnits="userSpaceOnUse"
       gradientTransform="translate(7979.491,8578.0153)"
       r="38.471001"
       cy="-8460.9844"
       cx="-7945.6479"
       id="e-9-6"><stop
         id="stop890-4-4"
         stop-color="#3a8ee6"
         offset=".353" /><stop
         id="stop892-7-9"
         stop-color="#5c79f0"
         offset=".472" /><stop
         id="stop894-8-5"
         stop-color="#9059ff"
         offset=".669" /><stop
         id="stop896-4-0"
         stop-color="#c139e6"
         offset="1" /></radialGradient><linearGradient
       inkscape:collect="always"
       xlink:href="#a-7"
       id="linearGradient566-6"
       gradientUnits="userSpaceOnUse"
       gradientTransform="translate(192.98264,-85.676362)"
       x1="70.786003"
       y1="12.393"
       x2="6.447"
       y2="74.468002" /><radialGradient
       gradientUnits="userSpaceOnUse"
       gradientTransform="translate(8168.2165,8438.3236)"
       r="38.471001"
       cy="-8460.9844"
       cx="-7945.6479"
       id="e-9-7"><stop
         id="stop890-4-7"
         stop-color="#3a8ee6"
         offset=".353" /><stop
         id="stop892-7-1"
         stop-color="#5c79f0"
         offset=".472" /><stop
         id="stop894-8-1"
         stop-color="#9059ff"
         offset=".669" /><stop
         id="stop896-4-5"
         stop-color="#c139e6"
         offset="1" /></radialGradient><linearGradient
       inkscape:collect="always"
       xlink:href="#a-7"
       id="linearGradient264"
       gradientUnits="userSpaceOnUse"
       gradientTransform="translate(193.21652,-85.676362)"
       x1="70.786003"
       y1="12.393"
       x2="6.447"
       y2="74.468002" /><radialGradient
       gradientUnits="userSpaceOnUse"
       gradientTransform="translate(8352.8912,8456.6518)"
       r="38.471001"
       cy="-8460.9844"
       cx="-7945.6479"
       id="e-9-7-2"><stop
         id="stop890-4-7-7"
         stop-color="#3a8ee6"
         offset=".353" /><stop
         id="stop892-7-1-0"
         stop-color="#5c79f0"
         offset=".472" /><stop
         id="stop894-8-1-9"
         stop-color="#9059ff"
         offset=".669" /><stop
         id="stop896-4-5-3"
         stop-color="#c139e6"
         offset="1" /></radialGradient><linearGradient
       inkscape:collect="always"
       xlink:href="#path10-3-6_2_-5-8"
       id="linearGradient397-3"
       gradientUnits="userSpaceOnUse"
       gradientTransform="matrix(0.51666554,0,0,0.51666554,3.33004,3.1832113)"
       x1="23.409851"
       y1="63.304691"
       x2="57.358685"
       y2="29.920277" /><radialGradient
       gradientUnits="userSpaceOnUse"
       gradientTransform="translate(8210.9925,8552.5201)"
       r="38.471001"
       cy="-8460.9844"
       cx="-7945.6479"
       id="e-9-7-2-8"><stop
         id="stop890-4-7-7-4"
         stop-color="#3a8ee6"
         offset=".353" /><stop
         id="stop892-7-1-0-5"
         stop-color="#5c79f0"
         offset=".472" /><stop
         id="stop894-8-1-9-0"
         stop-color="#9059ff"
         offset=".669" /><stop
         id="stop896-4-5-3-3"
         stop-color="#c139e6"
         offset="1" /></radialGradient><radialGradient
       gradientUnits="userSpaceOnUse"
       gradientTransform="translate(8092.4632,8552.5202)"
       r="38.471001"
       cy="-8460.9844"
       cx="-7945.6479"
       id="e-9-7-2-3"><stop
         id="stop890-4-7-7-6"
         stop-color="#3a8ee6"
         offset=".353" /><stop
         id="stop892-7-1-0-7"
         stop-color="#5c79f0"
         offset=".472" /><stop
         id="stop894-8-1-9-5"
         stop-color="#9059ff"
         offset=".669" /><stop
         id="stop896-4-5-3-35"
         stop-color="#c139e6"
         offset="1" /></radialGradient><linearGradient
       inkscape:collect="always"
       xlink:href="#e-9-7-2-3"
       id="linearGradient4828"
       x1="257.13678"
       y1="68.803474"
       x2="295.37579"
       y2="68.803474"
       gradientUnits="userSpaceOnUse"
       gradientTransform="matrix(0.51666554,0,0,0.51666554,-166.77886,-11.506752)" /><radialGradient
       gradientUnits="userSpaceOnUse"
       gradientTransform="translate(8092.4632,8552.5202)"
       r="38.471001"
       cy="-8460.9844"
       cx="-7945.6479"
       id="e-9-7-2-3-7"><stop
         id="stop890-4-7-7-6-9"
         stop-color="#3a8ee6"
         offset=".353" /><stop
         id="stop892-7-1-0-7-2"
         stop-color="#5c79f0"
         offset=".472" /><stop
         id="stop894-8-1-9-5-0"
         stop-color="#9059ff"
         offset=".669" /><stop
         id="stop896-4-5-3-35-2"
         stop-color="#c139e6"
         offset="1" /></radialGradient><radialGradient
       gradientUnits="userSpaceOnUse"
       gradientTransform="translate(8092.4632,8552.5202)"
       r="38.471001"
       cy="-8460.9844"
       cx="-7945.6479"
       id="e-9-7-2-3-5"><stop
         id="stop890-4-7-7-6-92"
         stop-color="#3a8ee6"
         offset=".353" /><stop
         id="stop892-7-1-0-7-28"
         stop-color="#5c79f0"
         offset=".472" /><stop
         id="stop894-8-1-9-5-9"
         stop-color="#9059ff"
         offset=".669" /><stop
         id="stop896-4-5-3-35-7"
         stop-color="#c139e6"
         offset="1" /></radialGradient><radialGradient
       gradientUnits="userSpaceOnUse"
       gradientTransform="translate(8092.4632,8552.5202)"
       r="38.471001"
       cy="-8460.9844"
       cx="-7945.6479"
       id="e-9-7-2-3-5-2"><stop
         id="stop890-4-7-7-6-92-9"
         stop-color="#3a8ee6"
         offset=".353" /><stop
         id="stop892-7-1-0-7-28-3"
         stop-color="#5c79f0"
         offset=".472" /><stop
         id="stop894-8-1-9-5-9-1"
         stop-color="#9059ff"
         offset=".669" /><stop
         id="stop896-4-5-3-35-7-9"
         stop-color="#c139e6"
         offset="1" /></radialGradient><radialGradient
       gradientUnits="userSpaceOnUse"
       gradientTransform="translate(8092.4632,8552.5202)"
       r="38.471001"
       cy="-8460.9844"
       cx="-7945.6479"
       id="e-9-7-2-3-5-8"><stop
         id="stop890-4-7-7-6-92-4"
         stop-color="#3a8ee6"
         offset=".353" /><stop
         id="stop892-7-1-0-7-28-5"
         stop-color="#5c79f0"
         offset=".472" /><stop
         id="stop894-8-1-9-5-9-0"
         stop-color="#9059ff"
         offset=".669" /><stop
         id="stop896-4-5-3-35-7-3"
         stop-color="#c139e6"
         offset="1" /></radialGradient><linearGradient
       inkscape:collect="always"
       xlink:href="#linearGradient4326"
       id="linearGradient1243"
       x1="264.73074"
       y1="119.0769"
       x2="264.75079"
       y2="159.82393"
       gradientUnits="userSpaceOnUse"
       gradientTransform="translate(-183.03676,-116.12178)" /><linearGradient
       inkscape:collect="always"
       xlink:href="#linearGradient4326"
       id="linearGradient1251"
       gradientUnits="userSpaceOnUse"
       gradientTransform="translate(-240.32555,-116.10917)"
       x1="264.73074"
       y1="119.0769"
       x2="264.75079"
       y2="159.82393" /><radialGradient
       gradientUnits="userSpaceOnUse"
       gradientTransform="translate(8092.4632,8552.5202)"
       r="38.471001"
       cy="-8460.9844"
       cx="-7945.6479"
       id="e-9-7-2-3-75"><stop
         id="stop890-4-7-7-6-922"
         stop-color="#3a8ee6"
         offset=".353" /><stop
         id="stop892-7-1-0-7-8"
         stop-color="#5c79f0"
         offset=".472" /><stop
         id="stop894-8-1-9-5-97"
         stop-color="#9059ff"
         offset=".669" /><stop
         id="stop896-4-5-3-35-3"
         stop-color="#c139e6"
         offset="1" /></radialGradient><radialGradient
       gradientUnits="userSpaceOnUse"
       gradientTransform="translate(8092.4632,8552.5202)"
       r="38.471001"
       cy="-8460.9844"
       cx="-7945.6479"
       id="e-9-7-2-3-75-2"><stop
         id="stop890-4-7-7-6-922-9"
         stop-color="#3a8ee6"
         offset=".353" /><stop
         id="stop892-7-1-0-7-8-3"
         stop-color="#5c79f0"
         offset=".472" /><stop
         id="stop894-8-1-9-5-97-1"
         stop-color="#9059ff"
         offset=".669" /><stop
         id="stop896-4-5-3-35-3-9"
         stop-color="#c139e6"
         offset="1" /></radialGradient><linearGradient
       gradientTransform="matrix(0,-0.93701243,-0.93730484,0,-152.27147,-492.25321)"
       y2="-127.1764"
       x2="-520.98431"
       y1="-127.1764"
       x1="-559.78308"
       gradientUnits="userSpaceOnUse"
       id="rect4_1_"><stop
         id="stop3036"
         style="stop-color:#0D52BF"
         offset="0" /><stop
         id="stop3038"
         style="stop-color:#64BAFF"
         offset="1" /></linearGradient><linearGradient
       gradientTransform="matrix(0.61461016,0,0,-0.61441522,-265.70328,-287.06434)"
       y2="-517.06409"
       x2="378.47989"
       y1="-460.11151"
       x1="378.47989"
       gradientUnits="userSpaceOnUse"
       id="path3804_1_"><stop
         id="stop3043"
         style="stop-color:#FFFFFF"
         offset="0" /><stop
         id="stop3045"
         style="stop-color:#FFFFFF;stop-opacity:0.2353"
         offset="0.0899" /><stop
         id="stop3047"
         style="stop-color:#FFFFFF;stop-opacity:0.1569"
         offset="0.8739" /><stop
         id="stop3049"
         style="stop-color:#FFFFFF;stop-opacity:0.3922"
         offset="1" /></linearGradient><radialGradient
       gradientUnits="userSpaceOnUse"
       gradientTransform="translate(8092.4632,8552.5202)"
       r="38.471001"
       cy="-8460.9844"
       cx="-7945.6479"
       id="e-9-7-2-3-75-2-8"><stop
         id="stop890-4-7-7-6-922-9-4"
         stop-color="#3a8ee6"
         offset=".353" /><stop
         id="stop892-7-1-0-7-8-3-5"
         stop-color="#5c79f0"
         offset=".472" /><stop
         id="stop894-8-1-9-5-97-1-0"
         stop-color="#9059ff"
         offset=".669" /><stop
         id="stop896-4-5-3-35-3-9-3"
         stop-color="#c139e6"
         offset="1" /></radialGradient><linearGradient
       inkscape:collect="always"
       xlink:href="#linearGradient1397"
       id="linearGradient1387"
       x1="-33.465771"
       y1="24.041632"
       x2="-14.627748"
       y2="24.041632"
       gradientUnits="userSpaceOnUse"
       gradientTransform="translate(48.093517,-48.083263)" /></defs><sodipodi:namedview
     inkscape:cy="24"
     inkscape:cx="-4.4137931"
     inkscape:zoom="5.4375"
     showgrid="false"
     id="namedview37"
     guidetolerance="10"
     gridtolerance="10"
     objecttolerance="10"
     borderopacity="1"
     bordercolor="#666666"
     pagecolor="#ffffff"
     inkscape:current-layer="svg4031"
     inkscape:window-maximized="1"
     inkscape:window-y="30"
     inkscape:window-height="705"
     inkscape:window-x="0"
     inkscape:window-width="1366"
     inkscape:pageshadow="2"
     inkscape:pageopacity="0"
     inkscape:showpageshadow="true"
     inkscape:measure-start="0,0"
     inkscape:measure-end="0,0" /><radialGradient
     id="rect4321_1_"
     cx="201.6602"
     cy="-2086.7813"
     r="17"
     gradientTransform="matrix(1 0 0 -0.3235 -177.6602 -633.6355)"
     gradientUnits="userSpaceOnUse"><stop
       offset="0"
       style="stop-color:#000000"
       id="stop3029" /><stop
       offset="1"
       style="stop-color:#000000;stop-opacity:0"
       id="stop3031" /></radialGradient><circle
     id="path276"
     cx="-24.046759"
     cy="24.041632"
     style="fill:url(#linearGradient4828);fill-opacity:1;stroke-width:1.08102202"
     r="9.8783865"
     transform="rotate(-90)" /><circle
     id="path276-6"
     cx="-24.046759"
     cy="24.041632"
     style="opacity:0.7;fill:none;fill-opacity:1;stroke:#9059ff;stroke-width:1.08102202;stroke-opacity:1"
     r="9.8783865"
     transform="rotate(-90)" /><circle
     id="path276-6-4-6"
     cx="24.046759"
     cy="-24.041632"
     style="fill:none;fill-opacity:1;stroke:url(#linearGradient1387);stroke-width:1.08102202;stroke-opacity:1;opacity:0.5"
     r="8.8785"
     transform="rotate(90)" /><rect
     id="rect4321"
     x="7"
     y="36"
     enable-background="new    "
     width="34"
     height="11"
     fill="url(#rect4321_1_)"
     opacity="0.5" /><linearGradient
     id="path10-3-6_2_"
     gradientUnits="userSpaceOnUse"
     x1="142.75"
     y1="-244.8286"
     x2="175.428"
     y2="-224.3879"
     gradientTransform="matrix(1 0 0 -0.9993 -136.2705 -210.8252)"><stop
       offset="0"
       style="stop-color:#FF780A"
       id="stop3053" /><stop
       offset="1"
       style="stop-color:#FFBE3C"
       id="stop3055" /></linearGradient><path
     style="fill:url(#linearGradient397-3);fill-opacity:1;stroke-width:1"
     d="m 32.25723,2.1459383 c -0.005,4.34e-4 -0.0102,0.0015 -0.0151,0.003 -0.003,0 -0.007,0.0052 -0.0101,0.0061 -0.003,10e-4 -0.009,0.0052 -0.0141,0.0071 l 0.007,-0.01312 C 27.27607,5.0466533 23.6288,11.36823 23.3629,14.168556 c 0.25778,-0.02158 0.51631,-0.03303 0.775,-0.03431 5.45593,-4.57e-4 9.87911,4.422268 9.87921,9.878201 -1e-4,5.455932 -4.42328,9.878658 -9.87921,9.878201 -1.14404,-0.0041 -2.27866,-0.20694 -3.35328,-0.599413 -0.0361,-0.01053 -0.072,-0.0213 -0.10797,-0.03229 -0.0499,-0.01875 -0.0995,-0.04192 -0.14936,-0.06156 -0.12993,-0.05008 -0.25878,-0.102903 -0.38648,-0.158431 -0.0172,-0.0075 -0.0343,-0.01358 -0.0515,-0.02119 -0.11315,-0.05115 -0.22646,-0.103592 -0.33806,-0.161458 l 0.0141,0.0091 c -0.0971,-0.0465 -0.1945,-0.09502 -0.29163,-0.145312 0.0935,0.04495 0.1814,0.09335 0.2775,0.13623 -0.0292,-0.01511 -0.0577,-0.032 -0.0868,-0.04743 -7.01781,-4.002278 -4.79111,-11.325515 1.98795,-9.949848 0.61535,0 2.37569,-1.717945 2.40875,-2.216011 -0.008,-0.16275 -3.49298,-1.549399 -4.85181,-2.88808 -0.72592,-0.715582 -1.07007,-1.060577 -1.37542,-1.318909 -0.002,9.3e-4 -0.003,0.0011 -0.005,0.002 0.002,-0.0013 0.003,-0.0017 0.005,-0.003 -0.003,-0.0028 -0.007,-0.0053 -0.0101,-0.0081 -0.16202,-0.13661 -0.33097,-0.26479 -0.50657,-0.383463 -0.11417,-0.399566 -0.2009,-0.804482 -0.26035,-1.212953 -0.0297,-0.204068 -0.0526,-0.408282 -0.0686,-0.613541 -0.0803,-1.026292 0.0104,-2.063278 0.27246,-3.067701 l -0.003,0.002 v -0.002 c -2.7e-4,1.3e-4 -5.2e-4,-1.3e-4 -10e-4,0 -0.23064,0.111695 -0.45815,0.229999 -0.68217,0.353189 -1.34574,0.740032 -2.56793,1.683951 -3.62372,2.799278 -0.17612,0.186053 -0.34801,0.37677 -0.51464,0.572166 h -0.005 c -0.7936,-1.005947 -0.73772,-4.322439 -0.69225,-5.0152877 -2.8e-4,1.14e-4 -5.2e-4,-1.14e-4 -0.001,0 -0.23495,0.09441 -0.45922,0.2134757 -0.66904,0.3552077 -0.7002,0.499749 -1.35431,1.060994 -1.95566,1.676135 -1.7e-4,1.72e-4 -0.001,-1.72e-4 -0.001,0 -0.68555,0.695189 -1.31077,1.446584 -1.8709,2.246284 -1.28756,1.824977 -2.20089,3.88692 -2.68726,6.066784 l -0.0263,0.132194 c -0.0377,0.176183 -0.17353,1.058607 -0.19678,1.25029 0,0.01498 -0.005,0.02841 -0.006,0.04339 -0.01,0.05258 -0.0179,0.105538 -0.0263,0.158431 0.008,-0.05213 0.0172,-0.102435 0.0242,-0.160449 -0.002,0.0087 -0.003,0.01752 -0.005,0.02624 10e-4,-0.0091 0.003,-0.01675 0.004,-0.02624 C 4.1288,22.535849 4.02104,23.460854 4,24.389849 v 0.10293 c 3.5e-4,-1.17e-4 5.2e-4,1.16e-4 0.001,0 0.0102,10.393352 7.97063,19.05192 18.32648,19.93401 10.35586,0.88208 19.66465,-6.30553 21.432539,-16.547429 0.0336,-0.258333 0.0609,-0.514082 0.0908,-0.774999 0.41247,-3.408783 -0.034,-6.866603 -1.298729,-10.058832 -2.2643,-5.640799 -6.10272,-7.9178897 -9.23741,-12.8722367 -0.15862,-0.250583 -0.31678,-0.500867 -0.47126,-0.765916 -0.0883,-0.151383 -0.15951,-0.288187 -0.22099,-0.413736 -0.13008,-0.25187 -0.23033,-0.518054 -0.2987,-0.793163 9e-5,-0.0262 -0.0194,-0.04831 -0.0454,-0.05147 -0.007,-0.0021 -0.0133,-0.003 -0.0202,-0.003 z"
     id="path980-0-9-7"
     inkscape:connector-curvature="0"
     sodipodi:nodetypes="cccccccccccccccccccccccccccccccccsccccccccccccccccccccsccccccccsc" /><path
     style="opacity:0.5;fill:none;fill-opacity:1;stroke:#a62100;stroke-width:1;stroke-opacity:1"
     d="m 32.25723,2.1462453 c -0.005,4.3e-4 -0.0102,10e-4 -0.0151,0.003 -0.003,0 -0.007,0.005 -0.0101,0.006 -0.003,0.001 0.073,-0.04187 0.0679,-0.03987 l -0.075,0.03378 c -4.94886,2.89763 -8.59613,9.2192097 -8.86203,12.0195297 0.25778,-0.0216 0.51631,-0.033 0.775,-0.0343 5.45593,-4.5e-4 9.87911,4.42227 9.87921,9.8782 -1e-4,5.45594 -4.42328,9.87866 -9.87921,9.87821 -1.14404,-0.004 -2.27866,-0.20694 -3.35328,-0.59942 -0.0361,-0.0105 -0.072,-0.0213 -0.10797,-0.0323 -0.0499,-0.0187 -0.0995,-0.0419 -0.14936,-0.0616 -0.12993,-0.0501 -0.25878,-0.1029 -0.38648,-0.15843 -0.0172,-0.007 -0.0343,-0.0136 -0.0515,-0.0212 -0.11315,-0.0512 -0.22646,-0.10359 -0.33806,-0.16146 l 0.0141,0.009 c -0.0971,-0.0465 -0.1945,-0.095 -0.29163,-0.14531 0.0935,0.045 0.1814,0.0934 0.2775,0.13623 -0.0292,-0.0151 -0.0577,-0.032 -0.0868,-0.0474 -7.01781,-4.00228 -4.79111,-11.32551 1.98795,-9.94985 0.61535,0 2.37569,-1.71794 2.40875,-2.21601 -0.008,-0.16275 -3.49298,-1.5494 -4.85181,-2.88808 -0.72592,-0.71558 -1.07007,-1.06057 -1.37542,-1.31891 -0.002,9.3e-4 -0.003,0.001 -0.005,0.002 0.002,-10e-4 0.003,-0.002 0.005,-0.003 -0.003,-0.003 -0.007,-0.005 -0.0101,-0.008 -0.16202,-0.13661 -0.33097,-0.26479 -0.50657,-0.38346 -0.11417,-0.39957 -0.2009,-0.80448 -0.26035,-1.21295 -0.0297,-0.20407 -0.0526,-0.40828 -0.0686,-0.61354 -0.0803,-1.0263 0.0104,-2.06328 0.27246,-3.0677 l -0.003,0.002 v -0.002 c -2.7e-4,1.3e-4 -5.2e-4,-1.3e-4 -10e-4,0 -0.23064,0.11169 -0.45815,0.22999 -0.68217,0.35318 -1.34574,0.74004 -2.56793,1.68396 -3.62372,2.79928 -0.17612,0.18606 -0.34801,0.37677 -0.51464,0.57217 h -0.005 c -0.7936,-1.00595 -0.73772,-4.32244 -0.69225,-5.0152897 -2.8e-4,1.1e-4 -5.2e-4,-1.1e-4 -0.001,0 -0.23495,0.0944 -0.45922,0.2134797 -0.66904,0.3552097 -0.7002,0.49975 -1.35431,1.06099 -1.95566,1.67613 -1.7e-4,1.8e-4 -0.001,-1.7e-4 -0.001,0 -0.68555,0.69519 -1.31077,1.44659 -1.8709,2.24629 -1.28756,1.82497 -2.20089,3.88692 -2.68726,6.06678 l -0.0263,0.1322 c -0.0377,0.17618 -0.17353,1.0586 -0.19678,1.25029 0,0.015 -0.005,0.0284 -0.006,0.0434 -0.01,0.0526 -0.0179,0.10553 -0.0263,0.15843 0.008,-0.0521 0.0172,-0.10244 0.0242,-0.16045 -0.002,0.009 -0.003,0.0175 -0.005,0.0262 10e-4,-0.009 0.003,-0.0168 0.004,-0.0262 C 4.1288,22.535975 4.02104,23.460975 4,24.389975 v 0.10293 c 3.5e-4,-1.2e-4 5.2e-4,1.1e-4 0.001,0 0.0102,10.39335 7.97063,19.051924 18.32648,19.934014 10.35586,0.88208 19.66465,-6.30553 21.432539,-16.547434 0.0336,-0.25834 0.0609,-0.51408 0.0908,-0.775 0.41247,-3.40878 -0.034,-6.8666 -1.298729,-10.05883 -2.2643,-5.6408 -6.10272,-7.9178897 -9.23741,-12.8722397 -0.15862,-0.25058 -0.31678,-0.50087 -0.47126,-0.76592 -0.0883,-0.15138 -0.15951,-0.28818 -0.22099,-0.41373 -0.13008,-0.25187 -0.23033,-0.51806 -0.2987,-0.79317 9e-5,-0.0262 -0.0194,-0.0483 -0.0454,-0.0515 -0.007,-0.002 -0.0133,-0.003 -0.0202,-0.003 z"
     id="path980-0-9-7-06"
     inkscape:connector-curvature="0"
     sodipodi:nodetypes="cccccccccccccccccccccccccccccccccsccccccccccccccccccccsccccccccsc" /><path
     style="opacity:0.5;fill:none;fill-opacity:1;stroke:url(#linearGradient1251);stroke-width:1;stroke-opacity:1"
     d="m 31.79359,3.5998123 c -1.92975,1.34964 -3.70162,3.15882 -5,5.0625 -1.1695,1.7147297 -1.83916,3.3006997 -2.18555,4.4843797 5.73205,0.298 10.33779,4.96482 10.33789,10.76953 -1.1e-4,5.99639 -4.88251,10.879403 -10.8789,10.878913 h -0.002 -0.002 c -1.23814,-0.004 -2.46389,-0.22304 -3.6289,-0.64063 -0.042,-0.0121 -0.0822,-0.0232 -0.1211,-0.0351 l -0.0293,-0.01 -0.0293,-0.01 c -0.096,-0.036 -0.14391,-0.0604 -0.1582,-0.0664 -0.13504,-0.0521 -0.26929,-0.10656 -0.40235,-0.16406 -0.006,-0.002 -0.0345,-0.0131 -0.0801,-0.0332 l -0.004,-0.002 -0.004,-0.002 c -0.10149,-0.0459 -0.21538,-0.0994 -0.33203,-0.15821 -0.005,-0.002 -0.006,-0.002 -0.01,-0.004 l -0.002,0.002 c -0.079,-0.0378 -0.15723,-0.0789 -0.23633,-0.11914 -0.0139,-0.007 -0.0452,-0.0213 -0.0566,-0.0273 -0.009,-0.005 -0.0164,-0.01 -0.0254,-0.0137 l -0.0469,-0.0293 c -3.65859,-2.15348 -5.10292,-5.34298 -4.45508,-7.99805 0.63958,-2.62127 3.43459,-4.35892 7.03906,-3.75 0.0459,-0.0145 0.10299,-0.0294 0.17578,-0.0781 0.18595,-0.12454 0.43377,-0.3275 0.66211,-0.54296 0.0828,-0.0781 0.13289,-0.14727 0.20899,-0.22657 -0.28526,-0.1402 -0.55517,-0.26909 -0.91407,-0.45312 -1.06933,-0.5483 -2.31682,-1.21435 -3.17773,-2.0625 -0.72783,-0.71746 -1.0653,-1.05348 -1.31836,-1.26758 0.0388,0.0384 0.0356,0.0365 -0.01,-0.008 0.003,0.003 0.007,0.005 0.01,0.008 -0.0273,-0.0237 -0.01,-0.008 -0.0273,-0.0237 0.004,0.004 0.13658,0.12653 0.14058,0.12953 -0.1328,-0.11147 -0.40276,-0.33815 -0.54469,-0.43403 l -0.30078,-0.20313 -0.0996,-0.34961 c -0.12645,-0.44253 -0.22326,-0.89132 -0.28906,-1.34375 -0.0329,-0.22566 -0.0584,-0.45195 -0.0762,-0.67969 -0.0308,-0.39336 0.0909,-0.78158 0.10547,-1.17578 -0.84974,0.56984 -1.71474,1.1242 -2.41992,1.86914 -0.16491,0.17422 -0.32571,0.35172 -0.48047,0.53321 l -0.29883,0.35156 h -0.95117 l -0.30078,-0.38086 c -0.73485,-0.93148 -0.78855,-2.06184 -0.87305,-3.16797 -0.0181,-0.23556 0.003,-0.31753 -0.006,-0.53906 -0.3135,0.26736 -0.64898,0.5076 -0.9375,0.80273 l -0.004,0.004 c -0.64603,0.65512 -1.23724,1.3628 -1.76563,2.11719 v 0.002 l -0.002,0.002 c -1.21144,1.71708 -2.06973,3.65605 -2.52734,5.70703 v 0 l -0.21105,1.3361 c 0.21105,-1.3361 0.0154,-0.1445 0.004,-0.0508 l -0.004,0.0508 -0.0117,0.0586 c -0.004,0.0229 -0.0106,0.0642 -0.0176,0.11133 -0.001,0.006 -0.003,0.0116 -0.004,0.0176 -0.16499,0.80806 -0.26556,1.62848 -0.28516,2.45313 v 0.0957 c 0.01,9.883283 7.56447,18.098704 17.41211,18.937504 9.84492,0.83856 18.67473,-5.97785 20.35937,-15.712894 0.0299,-0.23331 0.0548,-0.47224 0.084,-0.72656 l 0.002,-0.004 v -0.002 c 0.39227,-3.24186 -0.0323,-6.53027 -1.234365,-9.56641 -2.15342,-5.36457 -5.89642,-7.5618897 -9.1543,-12.7109397 -0.1589,-0.25102 -0.32415,-0.5119 -0.49023,-0.79687 -0.0462,-0.0792 -0.0755,-0.1418 -0.11443,-0.2145 z"
     id="path980-0-9-7-8"
     inkscape:connector-curvature="0"
     sodipodi:nodetypes="cccccccccccccccccccccccccccccccccccccccccccccccccccccccccccccccscccccccc" /></svg>