<?xml version="1.0" encoding="UTF-8" standalone="no"?>
<svg
   xmlns:osb="http://www.openswatchbook.org/uri/2009/osb"
   xmlns:dc="http://purl.org/dc/elements/1.1/"
   xmlns:cc="http://creativecommons.org/ns#"
   xmlns:rdf="http://www.w3.org/1999/02/22-rdf-syntax-ns#"
   xmlns:svg="http://www.w3.org/2000/svg"
   xmlns="http://www.w3.org/2000/svg"
   xmlns:xlink="http://www.w3.org/1999/xlink"
   xmlns:sodipodi="http://sodipodi.sourceforge.net/DTD/sodipodi-0.dtd"
   xmlns:inkscape="http://www.inkscape.org/namespaces/inkscape"
   id="svg4031"
   height="32"
   width="32"
   version="1.1"
   inkscape:version="0.92.3 (2405546, 2018-03-11)"
   sodipodi:docname="firefox_32.svg">
  <sodipodi:namedview
     pagecolor="#ffffff"
     bordercolor="#666666"
     borderopacity="1"
     objecttolerance="10"
     gridtolerance="10"
     guidetolerance="10"
     inkscape:pageopacity="0"
     inkscape:pageshadow="2"
     inkscape:window-width="1366"
     inkscape:window-height="705"
     id="namedview37"
     showgrid="false"
     inkscape:zoom="45.254834"
     inkscape:cx="8.466111"
     inkscape:cy="11.085749"
     inkscape:window-x="0"
     inkscape:window-y="30"
     inkscape:window-maximized="1"
     inkscape:current-layer="svg4031" />
  <defs
     id="defs4033">
    <linearGradient
       id="linearGradient4326">
      <stop
         offset="0"
         style="stop-color:#ffffff;stop-opacity:1"
         id="stop4328" />
      <stop
         offset="0.45722568"
         style="stop-color:#ffffff;stop-opacity:0.23529412"
         id="stop4330" />
      <stop
         offset="0.83318615"
         style="stop-color:#ffffff;stop-opacity:0.15686275"
         id="stop4332" />
      <stop
         offset="1"
         style="stop-color:#ffffff;stop-opacity:0.39215687"
         id="stop4334" />
    </linearGradient>
    <linearGradient
       id="linearGradient4226">
      <stop
         offset="0"
         style="stop-color:#ffffff;stop-opacity:1"
         id="stop4228" />
      <stop
         offset="0.43782076"
         style="stop-color:#ffffff;stop-opacity:0.23529412"
         id="stop4230" />
      <stop
         offset="0.84462607"
         style="stop-color:#ffffff;stop-opacity:0.15686275"
         id="stop4232" />
      <stop
         offset="1"
         style="stop-color:#ffffff;stop-opacity:0.39215687"
         id="stop4234" />
    </linearGradient>
    <linearGradient
       id="linearGradient4250">
      <stop
         id="stop4252"
         offset="0"
         style="stop-color:#0d52bf;stop-opacity:1" />
      <stop
         id="stop4258"
         offset="1"
         style="stop-color:#64baff;stop-opacity:1" />
    </linearGradient>
    <linearGradient
       id="linearGradient2867-449-88-871-390-598-476-591-434-148-57-177-3-8">
      <stop
         offset="0"
         style="stop-color:#90dbec;stop-opacity:1"
         id="stop3750-8-9" />
      <stop
         offset="0.26238"
         style="stop-color:#42baea;stop-opacity:1"
         id="stop3752-3-2" />
      <stop
         offset="0.704952"
         style="stop-color:#3689e6;stop-opacity:1"
         id="stop3754-7-2" />
      <stop
         offset="1"
         style="stop-color:#2b63a0;stop-opacity:1"
         id="stop3756-9-3" />
    </linearGradient>
    <linearGradient
       id="linearGradient3820-7-2-1">
      <stop
         offset="0"
         style="stop-color:#3d3d3d;stop-opacity:1"
         id="stop3822-2-6-3" />
      <stop
         offset="0.5"
         style="stop-color:#686868;stop-opacity:0.49803922"
         id="stop3864-8-7-7" />
      <stop
         offset="1"
         style="stop-color:#686868;stop-opacity:0"
         id="stop3824-1-2-5" />
    </linearGradient>
    <radialGradient
       gradientTransform="matrix(0,2.4988347,-2.6434689,-6.8014435e-8,46.336814,-12.180468)"
       gradientUnits="userSpaceOnUse"
       xlink:href="#linearGradient2867-449-88-871-390-598-476-591-434-148-57-177-3-8"
       id="radialGradient3015"
       fy="8.4497671"
       fx="3.9722471"
       r="19.99999"
       cy="8.4497671"
       cx="3.9722471" />
    <radialGradient
       gradientTransform="matrix(0.27083381,0,0,0.08762273,-2.855072,25.187228)"
       gradientUnits="userSpaceOnUse"
       xlink:href="#linearGradient3820-7-2-1"
       id="radialGradient3018"
       fy="186.17059"
       fx="99.157013"
       r="62.769119"
       cy="186.17059"
       cx="99.157013" />
    <linearGradient
       gradientTransform="matrix(1.6169806,0,0,1.6169806,-92.70737,-21.060237)"
       gradientUnits="userSpaceOnUse"
       xlink:href="#linearGradient4806-2"
       id="linearGradient4338-5-6"
       y2="40.495617"
       x2="71.204407"
       y1="15.369057"
       x1="71.204407" />
    <linearGradient
       id="linearGradient4806-2">
      <stop
         offset="0"
         style="stop-color:#ffffff;stop-opacity:1"
         id="stop4808-4" />
      <stop
         offset="0.42447853"
         style="stop-color:#ffffff;stop-opacity:0.23529412"
         id="stop4810-0" />
      <stop
         offset="0.82089913"
         style="stop-color:#ffffff;stop-opacity:0.15686275"
         id="stop4812-8" />
      <stop
         offset="1"
         style="stop-color:#ffffff;stop-opacity:0.39215687"
         id="stop4814-0" />
    </linearGradient>
    <radialGradient
       gradientTransform="matrix(0,3.9153034,-3.0928272,-4.4454166e-8,49.977542,-1.450216)"
       gradientUnits="userSpaceOnUse"
       xlink:href="#linearGradient4223"
       id="radialGradient3126-7-25-24"
       fy="8.449769"
       fx="0.66680855"
       r="19.99999"
       cy="8.449769"
       cx="-1.2645766" />
    <linearGradient
       id="linearGradient4526"
       osb:paint="solid">
      <stop
         style="stop-color:#ffffff;stop-opacity:1;"
         offset="0"
         id="stop4528" />
    </linearGradient>
    <linearGradient
       id="linearGradient4223">
      <stop
         offset="0"
         style="stop-color:#cdf87e;stop-opacity:1"
         id="stop4225" />
      <stop
         offset="0.26238"
         style="stop-color:#a2e34f;stop-opacity:1"
         id="stop4227" />
      <stop
         offset="0.66093999"
         style="stop-color:#68b723;stop-opacity:1"
         id="stop4229" />
      <stop
         offset="1"
         style="stop-color:#1d7e0d;stop-opacity:1"
         id="stop4231" />
    </linearGradient>
    <linearGradient
       id="linearGradient4029-0">
      <stop
         style="stop-color:#87accd;stop-opacity:1;"
         offset="0"
         id="stop4031-7" />
      <stop
         id="stop4062-3-8"
         offset="0.28728491"
         style="stop-color:#6b96c1;stop-opacity:1;" />
      <stop
         id="stop4060-0-2"
         offset="0.59072286"
         style="stop-color:#477ba9;stop-opacity:1;" />
      <stop
         style="stop-color:#325978;stop-opacity:1;"
         offset="1"
         id="stop4033-0" />
    </linearGradient>
    <linearGradient
       id="linearGradient4037-1">
      <stop
         style="stop-color:#e67263;stop-opacity:1;"
         offset="0"
         id="stop4039-4" />
      <stop
         style="stop-color:#dc252a;stop-opacity:1;"
         offset="1"
         id="stop4041-6" />
    </linearGradient>
    <linearGradient
       id="linearGradient4064-1">
      <stop
         style="stop-color:#f0d550;stop-opacity:1;"
         offset="0"
         id="stop4066-2" />
      <stop
         style="stop-color:#dca023;stop-opacity:1;"
         offset="1"
         id="stop4068-8" />
    </linearGradient>
    <linearGradient
       id="linearGradient4072-7">
      <stop
         style="stop-color:#50b54c;stop-opacity:1;"
         offset="0"
         id="stop4074-1" />
      <stop
         style="stop-color:#32783b;stop-opacity:1;"
         offset="1"
         id="stop4076-0" />
    </linearGradient>
    <linearGradient
       id="c"
       y2="40.495998"
       gradientUnits="userSpaceOnUse"
       x2="71.204002"
       gradientTransform="matrix(1.4614589,0,0,1.4614589,-129.26231,-15.45283)"
       y1="15.369"
       x1="71.204002">
      <stop
         stop-color="#fff"
         offset="0"
         id="stop7" />
      <stop
         stop-color="#fff"
         stop-opacity=".23529"
         offset=".42448"
         id="stop9" />
      <stop
         stop-color="#fff"
         stop-opacity=".15686"
         offset=".82090"
         id="stop11" />
      <stop
         stop-color="#fff"
         stop-opacity=".39216"
         offset="1"
         id="stop13" />
    </linearGradient>
    <linearGradient
       id="linearGradient3767">
      <stop
         style="stop-color:#ffffff;stop-opacity:1;"
         offset="0"
         id="stop3769" />
      <stop
         id="stop3777"
         offset="0.08994294"
         style="stop-color:#ffffff;stop-opacity:0.23529412;" />
      <stop
         id="stop3775"
         offset="0.87385589"
         style="stop-color:#ffffff;stop-opacity:0.15686275;" />
      <stop
         style="stop-color:#ffffff;stop-opacity:0.39215687;"
         offset="1"
         id="stop3771" />
    </linearGradient>
    <radialGradient
       gradientUnits="userSpaceOnUse"
       gradientTransform="matrix(1,0,0,0.32352941,-1.9644775e-7,-296.86717)"
       r="17"
       fy="1045.8622"
       fx="24"
       cy="1045.8622"
       cx="24"
       id="radialGradient4329"
       xlink:href="#linearGradient4323" />
    <linearGradient
       id="linearGradient4323">
      <stop
         id="stop4325"
         offset="0"
         style="stop-color:#000000;stop-opacity:1;" />
      <stop
         id="stop4327"
         offset="1"
         style="stop-color:#000000;stop-opacity:0;" />
    </linearGradient>
    <linearGradient
       x1="23.99999"
       y1="4.999989"
       x2="23.99999"
       y2="43"
       id="linearGradient3058"
       xlink:href="#linearGradient3924-1"
       gradientUnits="userSpaceOnUse"
       gradientTransform="translate(-1.2203471,7.5254347)" />
    <linearGradient
       id="linearGradient3924-1">
      <stop
         id="stop3926-3"
         style="stop-color:#ffffff;stop-opacity:1"
         offset="0" />
      <stop
         id="stop3928-91"
         style="stop-color:#ffffff;stop-opacity:0.23529412"
         offset="0.06316455" />
      <stop
         id="stop3930-6"
         style="stop-color:#ffffff;stop-opacity:0.15686275"
         offset="0.95056331" />
      <stop
         id="stop3932-6"
         style="stop-color:#ffffff;stop-opacity:0.39215687"
         offset="1" />
    </linearGradient>
    <radialGradient
       cx="99.157013"
       cy="186.17059"
       r="62.769119"
       fx="99.157013"
       fy="186.17059"
       id="radialGradient3043"
       xlink:href="#linearGradient3820-7-2-1"
       gradientUnits="userSpaceOnUse"
       gradientTransform="matrix(0.17524541,0,0,0.05575992,-1.3768114,18.119146)" />
    <radialGradient
       cx="99.157013"
       cy="186.17059"
       r="62.769119"
       fx="99.157013"
       fy="186.17059"
       id="radialGradient3043-3"
       xlink:href="#linearGradient3820-7-2-1"
       gradientUnits="userSpaceOnUse"
       gradientTransform="matrix(0.17524541,0,0,0.05575992,-30.626811,71.247899)" />
    <linearGradient
       inkscape:collect="always"
       xlink:href="#path10-3-6_2_-5-8"
       id="linearGradient397-3"
       gradientUnits="userSpaceOnUse"
       gradientTransform="matrix(0.36166644,0,0,0.3618807,1.531058,1.5610813)"
       x1="23.409851"
       y1="63.304691"
       x2="57.358685"
       y2="29.920277" />
    <linearGradient
       id="path10-3-6_2_-5-8"
       gradientUnits="userSpaceOnUse"
       x1="142.75"
       y1="-244.8286"
       x2="175.42799"
       y2="-224.38789"
       gradientTransform="matrix(1,0,0,-0.9993,-152.31562,-145.72595)">
      <stop
         offset="0"
         style="stop-color:#FF780A"
         id="stop3053-6-7" />
      <stop
         offset="1"
         style="stop-color:#FFBE3C"
         id="stop3055-2-9" />
    </linearGradient>
    <linearGradient
       inkscape:collect="always"
       xlink:href="#linearGradient1397"
       id="linearGradient1387"
       x1="-33.465771"
       y1="24.041632"
       x2="-14.627748"
       y2="24.041632"
       gradientUnits="userSpaceOnUse"
       gradientTransform="matrix(0.66661233,0,0,0.66621615,32.260115,-32.046118)" />
    <linearGradient
       id="linearGradient1397"
       gradientUnits="userSpaceOnUse"
       x1="378.47989"
       y1="-460.11151"
       x2="378.47989"
       y2="-517.06409"
       gradientTransform="matrix(0.61461016,0,0,-0.61441522,-265.70328,-287.06434)">
      <stop
         offset="0"
         style="stop-color:#FFFFFF"
         id="stop1389" />
      <stop
         offset="0.44649339"
         style="stop-color:#FFFFFF;stop-opacity:0.2353"
         id="stop1391" />
      <stop
         offset="0.74252349"
         style="stop-color:#FFFFFF;stop-opacity:0.1569"
         id="stop1393" />
      <stop
         offset="1"
         style="stop-color:#FFFFFF;stop-opacity:0.3922"
         id="stop1395" />
    </linearGradient>
    <linearGradient
       inkscape:collect="always"
       xlink:href="#e-9-7-2-3"
       id="linearGradient4828"
       x1="257.13678"
       y1="68.803474"
       x2="295.37579"
       y2="68.803474"
       gradientUnits="userSpaceOnUse"
       gradientTransform="matrix(0.3618807,0,0,0.36166644,-116.20207,-8.854712)" />
    <radialGradient
       gradientUnits="userSpaceOnUse"
       gradientTransform="translate(8092.4632,8552.5202)"
       r="38.471001"
       cy="-8460.9844"
       cx="-7945.6479"
       id="e-9-7-2-3">
      <stop
         id="stop890-4-7-7-6"
         stop-color="#3a8ee6"
         offset=".353" />
      <stop
         id="stop892-7-1-0-7"
         stop-color="#5c79f0"
         offset=".472" />
      <stop
         id="stop894-8-1-9-5"
         stop-color="#9059ff"
         offset=".669" />
      <stop
         id="stop896-4-5-3-35"
         stop-color="#c139e6"
         offset="1" />
    </radialGradient>
    <linearGradient
       inkscape:collect="always"
       xlink:href="#linearGradient4326"
       id="linearGradient397-3-3"
       gradientUnits="userSpaceOnUse"
       gradientTransform="matrix(0.36166644,0,0,0.3618807,1.480051,1.4828679)"
       x1="40.518158"
       y1="0.093251675"
       x2="39.731945"
       y2="78.106049" />
  </defs>
  <metadata
     id="metadata4036">
    <rdf:RDF>
      <cc:Work
         rdf:about="">
        <dc:format>image/svg+xml</dc:format>
        <dc:type
           rdf:resource="http://purl.org/dc/dcmitype/StillImage" />
        <dc:title />
      </cc:Work>
    </rdf:RDF>
  </metadata>
  <ellipse
     id="path276"
     cx="-16.230251"
     cy="16.029198"
     style="fill:url(#linearGradient4828);fill-opacity:1;stroke-width:1.08102202"
     transform="rotate(-90)"
     rx="6.9189777"
     ry="6.9148812" />
  <ellipse
     id="path276-6"
     cx="-16.17424"
     cy="16.029198"
     style="opacity:0.7;fill:none;fill-opacity:1;stroke:#9059ff;stroke-width:1.08102202;stroke-opacity:1"
     transform="rotate(-90)"
     rx="6.9189777"
     ry="6.9148812" />
  <ellipse
     id="path276-6-4-6"
     cx="16.230251"
     cy="-16.029198"
     style="opacity:0.5;fill:none;fill-opacity:1;stroke:url(#linearGradient1387);stroke-width:0.99999994;stroke-miterlimit:4;stroke-dasharray:none;stroke-opacity:1"
     transform="rotate(90)"
     rx="5.9185176"
     ry="5.915" />
  <path
     inkscape:connector-curvature="0"
     d="m 27,28.5 a 11,3.4999999 0 0 1 -22,0 11,3.4999999 0 1 1 22,0 z"
     id="path3818-0-2"
     style="fill:url(#radialGradient3043);fill-opacity:1;stroke:none" />
  <path
     style="fill:url(#linearGradient397-3);fill-opacity:1;stroke-width:1"
     d="m 21.780123,0.83455904 c -0.0035,3.039e-4 -0.0071,0.00105 -0.01057,0.0021 -0.0021,0 -0.0049,0.00364 -0.0071,0.00427 -0.0021,7.005e-4 -0.0063,0.00364 -0.0099,0.00497 l 0.0049,-0.00919 c -3.464207,2.02954926 -6.0173,6.45728156 -6.203431,8.41867386 0.180447,-0.015115 0.361418,-0.023135 0.542501,-0.024031 3.819157,-3.201e-4 6.915388,3.0974271 6.915458,6.9188481 -7e-5,3.821421 -3.096301,6.919168 -6.915458,6.918848 -0.800829,-0.0029 -1.595064,-0.144944 -2.3473,-0.419838 -0.02527,-0.0074 -0.0504,-0.01492 -0.07558,-0.02262 -0.03493,-0.01313 -0.06965,-0.02936 -0.104552,-0.04312 -0.09095,-0.03508 -0.181146,-0.07207 -0.270536,-0.110968 -0.01204,-0.0053 -0.02401,-0.0095 -0.03605,-0.01484 -0.07921,-0.03583 -0.158523,-0.07256 -0.236643,-0.113087 l 0.0099,0.0064 c -0.06797,-0.03257 -0.13615,-0.06655 -0.204141,-0.101779 0.06545,0.03148 0.12698,0.06538 0.19425,0.09542 -0.02044,-0.01058 -0.04039,-0.02241 -0.06076,-0.03322 -4.912474,-2.803259 -3.353782,-7.93257 1.391567,-6.969031 0.430746,0 1.662986,-1.203276 1.686128,-1.552129 -0.0056,-0.113993 -2.44509,-1.085224 -3.396272,-2.022857 -0.508145,-0.501205 -0.74905,-0.742845 -0.962796,-0.923785 -0.0014,6.51e-4 -0.0021,7.7e-4 -0.0035,0.0014 0.0014,-9.1e-4 0.0021,-0.0012 0.0035,-0.0021 -0.0021,-0.002 -0.0049,-0.0037 -0.0071,-0.0057 -0.113414,-0.09568 -0.231679,-0.185463 -0.354599,-0.268583 -0.07992,-0.279863 -0.140631,-0.563472 -0.182246,-0.849572 -0.02079,-0.1429324 -0.03682,-0.2859671 -0.04802,-0.4297338 -0.05621,-0.7188311 0.0073,-1.4451525 0.190723,-2.1486659 l -0.0021,0.0014 v -0.0014 c -1.89e-4,9.1e-5 -3.64e-4,-9.11e-5 -7e-4,0 -0.161449,0.078233 -0.320706,0.1610949 -0.47752,0.2473791 C 9.860156,7.9063783 9.004622,8.567514 8.265568,9.3487067 8.142284,9.4790211 8.021961,9.6126023 7.905319,9.7494608 h -0.0035 C 7.346298,9.0448796 7.385415,6.7219565 7.417244,6.2366744 c -1.96e-4,7.98e-5 -3.64e-4,-7.99e-5 -7e-4,0 -0.164466,0.066126 -0.321455,0.1495217 -0.468329,0.248793 -0.490141,0.3500321 -0.948019,0.743137 -1.368964,1.1739912 -1.19e-4,1.204e-4 -7e-4,-1.205e-4 -7e-4,0 C 5.098665,8.1463799 4.66101,8.6726689 4.268919,9.2327914 3.367625,10.511034 2.728293,11.955252 2.387834,13.482063 l -0.01841,0.09259 c -0.02639,0.123401 -0.121471,0.741465 -0.137747,0.875723 0,0.01049 -0.0035,0.0199 -0.0042,0.03039 -0.007,0.03683 -0.01253,0.07392 -0.01841,0.110968 0.0056,-0.03651 0.01204,-0.07175 0.01694,-0.112381 -0.0014,0.0061 -0.0021,0.01227 -0.0035,0.01838 7e-4,-0.0064 0.0021,-0.01173 0.0028,-0.01838 -0.135177,0.636642 -0.210609,1.284529 -0.225337,1.935212 v 0.07209 c 2.45e-4,-8.2e-5 3.64e-4,8.1e-5 7e-4,0 0.0071,7.279668 5.57945,13.344266 12.828556,13.962096 7.249113,0.617822 13.765277,-4.416493 15.002801,-11.590081 0.02352,-0.180941 0.04263,-0.360071 0.06356,-0.542822 0.288729,-2.387565 -0.0238,-4.809476 -0.909112,-7.045364 C 27.401463,7.3195792 24.714565,5.7246688 22.520278,2.2545659 22.409244,2.0790536 22.298532,1.9037508 22.190396,1.7181062 22.128586,1.6120752 22.078738,1.5162555 22.035702,1.428319 21.944642,1.2519053 21.874471,1.0654658 21.826612,0.87277514 c 6.3e-5,-0.018351 -0.01358,-0.033837 -0.03178,-0.03605 -0.0049,-0.00147 -0.0093,-0.0021 -0.01414,-0.0021 z"
     id="path980-0-9-7"
     inkscape:connector-curvature="0"
     sodipodi:nodetypes="cccccccccccccccccccccccccccccccccsccccccccccccccccccccsccccccccsc" />
  <path
     style="opacity:0.5;fill:none;fill-opacity:1;stroke:#a62100;stroke-width:1;stroke-opacity:1"
     d="m 21.780123,0.83477404 c -0.0035,3.012e-4 -0.0071,7.004e-4 -0.01057,0.0021 -0.0021,0 -0.0049,0.0035 -0.0071,0.0042 -0.0021,7.004e-4 0.0511,-0.029326 0.04753,-0.027926 l -0.0525,0.02366 c -3.464207,2.02954576 -6.0173,6.45728016 -6.203431,8.41866816 0.180447,-0.015129 0.361418,-0.023114 0.542501,-0.024024 3.819157,-3.152e-4 6.915388,3.0974278 6.915458,6.9188478 -7e-5,3.821426 -3.096301,6.919169 -6.915458,6.918854 -0.800829,-0.0028 -1.595064,-0.144944 -2.3473,-0.419843 -0.02527,-0.0074 -0.0504,-0.01492 -0.07558,-0.02262 -0.03493,-0.0131 -0.06965,-0.02935 -0.104552,-0.04314 -0.09095,-0.03509 -0.181146,-0.07207 -0.270536,-0.110967 -0.01204,-0.0049 -0.02401,-0.0095 -0.03605,-0.01485 -0.07921,-0.03586 -0.158523,-0.07256 -0.236643,-0.113089 l 0.0099,0.0063 c -0.06797,-0.03257 -0.13615,-0.06654 -0.204141,-0.101778 0.06545,0.03152 0.12698,0.06542 0.19425,0.09542 -0.02044,-0.01058 -0.04039,-0.02241 -0.06076,-0.0332 -4.912474,-2.80326 -3.353782,-7.932566 1.391567,-6.969032 0.430746,0 1.662986,-1.203272 1.686128,-1.552128 -0.0056,-0.113993 -2.44509,-1.085224 -3.396272,-2.022857 -0.508145,-0.501204 -0.74905,-0.74284 -0.962796,-0.923786 -0.0014,6.52e-4 -0.0021,7.01e-4 -0.0035,0.0014 0.0014,-7e-4 0.0021,-0.0014 0.0035,-0.0021 -0.0021,-0.0021 -0.0049,-0.0035 -0.0071,-0.0056 -0.113414,-0.09568 -0.231679,-0.185463 -0.354599,-0.268581 -0.07992,-0.279865 -0.140631,-0.563471 -0.182246,-0.8495696 -0.02079,-0.1429339 -0.03682,-0.2859658 -0.04802,-0.4297331 -0.05621,-0.7188368 0.0073,-1.4451539 0.190723,-2.1486653 l -0.0021,0.0014 v -0.0014 c -1.89e-4,9.11e-5 -3.64e-4,-9.1e-5 -7e-4,0 C 11.118277,7.218964 10.95902,7.3018237 10.802206,7.3881079 9.860186,7.9064433 9.004652,8.5675798 8.265598,9.3487675 8.142314,9.4790869 8.021991,9.6126632 7.905349,9.7495244 h -0.0035 C 7.346328,9.0449412 7.385445,6.7220195 7.417274,6.2367366 c -1.96e-4,7.7e-5 -3.64e-4,-7.7e-5 -7e-4,0 C 7.252108,6.3028556 7.095119,6.3862612 6.948245,6.4855311 6.458104,6.8355639 6.000226,7.2286652 5.579281,7.6595187 c -1.19e-4,1.261e-4 -7e-4,-1.19e-4 -7e-4,0 C 5.098695,8.1464408 4.66104,8.6727332 4.268949,9.2328557 3.367655,10.511094 2.728323,11.955316 2.387864,13.482125 l -0.01841,0.0926 c -0.02639,0.123399 -0.121471,0.74146 -0.137747,0.875722 0,0.01051 -0.0035,0.01989 -0.0042,0.0304 -0.007,0.03684 -0.01253,0.07391 -0.01841,0.110967 0.0056,-0.03649 0.01204,-0.07175 0.01694,-0.112382 -0.0014,0.0063 -0.0021,0.01226 -0.0035,0.01835 7e-4,-0.0063 0.0021,-0.01177 0.0028,-0.01835 C 2.09016,15.116075 2.014728,15.76396 2,16.414646 v 0.07209 c 2.45e-4,-8.4e-5 3.64e-4,7.7e-5 7e-4,0 0.0071,7.279667 5.57945,13.344269 12.828556,13.962099 7.249113,0.617823 13.765277,-4.416493 15.002801,-11.590085 0.02352,-0.180945 0.04263,-0.360069 0.06356,-0.542822 0.288729,-2.387563 -0.0238,-4.809475 -0.909112,-7.045364 C 27.401493,7.3196591 24.714595,5.7247494 22.520308,2.2546445 22.409274,2.0791343 22.298562,1.9038272 22.190426,1.718182 22.128616,1.6121531 22.078768,1.5163362 22.035732,1.428399 21.944672,1.2519852 21.874501,1.0655416 21.826642,0.87285024 c 6.3e-5,-0.018351 -0.01358,-0.03383 -0.03178,-0.036071 -0.0049,-0.0014 -0.0093,-0.0021 -0.01414,-0.0021 z"
     id="path980-0-9-7-06"
     inkscape:connector-curvature="0"
     sodipodi:nodetypes="cccccccccccccccccccccccccccccccccsccccccccccccccccccccsccccccccsc" />
  <path
     style="opacity:0.5;fill:url(#linearGradient397-3-3);fill-opacity:1;stroke-width:1"
     d="m 21.522772,1.5346799 c -1.454511,0.969111 -2.772501,2.329101 -3.734375,3.740234 -0.919433,1.34887 -1.350044,2.553484 -1.546875,3.417969 3.993318,0.110681 7.218676,3.3573021 7.21875,7.3789081 -7.5e-5,4.091496 -3.326467,7.420258 -7.416015,7.419921 -0.858837,-0.003 -1.710964,-0.1564 -2.517579,-0.451171 l 0.03125,0.01172 c -0.02715,-0.008 -0.05494,-0.01709 -0.08203,-0.02539 l -0.01563,-0.0039 -0.01367,-0.0059 c -0.05808,-0.02178 -0.093,-0.03822 -0.109375,-0.04492 -0.09416,-0.03633 -0.186567,-0.07504 -0.279297,-0.115234 -0.0061,-0.0025 -0.02355,-0.0074 -0.05078,-0.01953 v -0.002 h -0.002 c -0.07312,-0.0331 -0.153355,-0.07021 -0.234375,-0.111328 h -0.002 c -0.0086,-0.0041 -0.01679,-0.0096 -0.02539,-0.01367 -0.07381,-0.03439 -0.136697,-0.06719 -0.179687,-0.08789 -0.0047,-0.0024 -0.009,-0.0054 -0.01367,-0.0078 l 0.01172,-0.02344 c -2.500798,-1.476583 -3.487701,-3.621383 -3.060547,-5.373047 0.42582,-1.746186 2.284355,-2.907445 4.765625,-2.460938 0.01303,-0.0106 0.103556,-0.03614 0.201172,-0.101562 0.143392,-0.0961 0.323944,-0.243387 0.490234,-0.400391 0.131777,-0.124419 0.240021,-0.247243 0.337891,-0.363281 -0.234459,-0.116102 -0.533566,-0.261322 -0.876953,-0.4375 -0.743088,-0.381248 -1.609468,-0.849955 -2.175782,-1.408203 -0.496493,-0.48971 -0.754462,-0.744123 -0.941406,-0.904297 -0.100304,-0.08462 -0.204707,-0.163438 -0.3125,-0.236328 l -0.150391,-0.103517 -0.04883,-0.173828 c -0.08605,-0.301337 -0.152455,-0.607947 -0.197265,-0.9160161 -0.02227,-0.153083 -0.03871,-0.306594 -0.05078,-0.460937 -0.03249,-0.415454 0.06757,-0.827156 0.109374,-1.242187 -0.750281,0.456511 -1.469633,0.966415 -2.074218,1.605468 -0.11768,0.124396 -0.233038,0.250958 -0.34375,0.38086 L 8.08518,10.171336 H 7.608618 L 7.458227,9.9818829 C 7.011525,9.4153189 6.948018,8.6323289 6.889868,7.8705549 c -0.02647,-0.346333 -0.0076,-0.505292 -0.0098,-0.792969 -0.34486,0.268857 -0.68808,0.540252 -0.99414,0.853515 l -0.002,0.002 c -0.460133,0.46688 -0.881581,0.970348 -1.257812,1.507812 v 0.002 C 3.765248,10.663818 3.154061,12.043583 2.827288,13.501508 l -0.002,0.0059 -0.01758,0.08984 -0.002,0.0039 c -0.0063,0.02969 -0.118566,0.746732 -0.128906,0.832032 l 0.0039,-0.06055 c 0,0.12151 -0.01112,0.144536 -0.0059,0.06445 l -0.002,0.0293 -0.0059,0.0293 c -8e-4,0.0043 -0.0031,0.01268 -0.0039,0.01758 -0.0018,0.0084 -0.0021,0.01699 -0.0039,0.02539 -0.0015,0.007 -4.07e-4,0.01439 -0.002,0.02148 -0.121614,0.588824 -0.195374,1.185907 -0.208984,1.787109 v 0.06055 0.002 c 0.0079,7.023896 5.376901,12.866787 12.371093,13.462891 6.992733,0.595973 13.269868,-4.250831 14.466797,-11.169922 0.02179,-0.169162 0.03988,-0.340967 0.06055,-0.521485 v -0.002 -0.002 c 0.278651,-2.30423 -0.02285,-4.640892 -0.876953,-6.798828 -1.529622,-3.8128371 -4.167987,-5.3661481 -6.423828,-8.9335951 -0.111174,-0.175732 -0.225906,-0.357128 -0.339844,-0.552734 -0.06677,-0.114528 -0.119926,-0.21874 -0.166016,-0.3125 -0.0074,-0.01434 -0.01038,-0.03047 -0.01758,-0.04492 z m -0.285156,1.628906 c 2.368153,3.718624 4.89329,5.208422 6.304688,8.7265641 0.791552,2.001901 1.070976,4.169238 0.8125,6.306641 v 0.0039 0.0059 c -0.01966,0.1717 -0.0384,0.323441 -0.05664,0.46875 -1.112181,6.414428 -6.90985,10.89235 -13.392578,10.339844 C 8.419896,28.462387 3.45583,23.062484 3.448555,16.548388 v -0.002 -0.03711 c 0.01228,-0.542252 0.07756,-1.082284 0.1875,-1.613282 h 0.002 c 2.31e-4,-0.0014 0.0017,-0.0063 0.002,-0.0078 0.0021,-0.01283 0.0064,-0.0454 0.0098,-0.06641 l 0.02734,-0.138672 c 8.43e-4,0.09621 0.0033,0.07855 0.0039,-0.06445 0.02215,-0.131885 0.134057,-0.812676 0.103516,-0.669921 l 0.002,-0.0098 0.01367,-0.07031 0.002,-0.0039 c 0.297614,-1.331993 0.854301,-2.59184 1.640625,-3.707032 l 0.002,-0.002 0.002,-0.002 c 0.18089,-0.2584111 0.401266,-0.4836401 0.603516,-0.7246101 0.09417,0.41277 0.253447,0.8417731 0.623047,1.3105471 l 0.449219,0.570314 h 1.423828 l 0.449218,-0.527345 c 0.09885,-0.115985 0.202122,-0.229248 0.308594,-0.341797 0.09887,-0.104511 0.2362,-0.162309 0.339844,-0.261719 0.04903,0.28931 0.102552,0.577534 0.183594,0.86133 l 0.15039,0.52539 0.453125,0.306641 c 0.135325,0.114558 0.600326,0.519416 1.111329,1.023437 0.461438,0.454867 0.982144,0.688413 1.49414,0.980469 -2.224018,0.109168 -4.046964,1.362317 -4.505859,3.244141 -0.558817,2.29158 0.767315,4.868406 3.568359,6.501953 l -0.0098,0.01953 c 0.01346,0.007 0.02755,0.01264 0.04102,0.01953 0.051,0.0261 0.103314,0.05132 0.154297,0.07617 0.0176,0.0086 0.03515,0.01892 0.05273,0.02734 l 0.002,-0.002 c 0.0136,0.0063 0.01031,0.005 0.02539,0.01172 0.08198,0.04044 0.164154,0.08024 0.228516,0.109376 l 0.0039,0.0039 0.0059,0.002 c 0.05761,0.0256 0.08399,0.0356 0.07813,0.0332 0.09861,0.04243 0.197068,0.08259 0.296875,0.121094 -0.01015,-0.0034 0.01678,0.0092 0.117188,0.04687 l 0.04492,0.01758 0.04297,0.01367 c 0.0309,0.0094 0.06285,0.01829 0.09375,0.02734 l -0.09375,-0.03125 c 0.915374,0.334517 1.882568,0.508311 2.857422,0.511719 h 0.002 0.002 c 4.63033,3.82e-4 8.41593,-3.788281 8.416015,-8.419922 -7.4e-5,-4.072755 -2.983277,-7.3318391 -6.83789,-8.0976571 0.269564,-0.694171 0.380265,-1.237036 0.992187,-2.134765 0.706273,-1.03615 1.637474,-1.993385 2.623047,-2.814454 z M 14.493475,13.9214 l 0.111329,0.01172 c -0.03861,-0.0078 -0.07283,0.0032 -0.111329,-0.0039 -6e-6,-4.3e-5 0,-0.0039 0,-0.0039 z m -11.322265,0.695312 0.257812,0.05664 -0.03711,0.0078 z"
     id="path980-0-9-7-2"
     inkscape:connector-curvature="0" />
</svg>
