<?xml version="1.0" encoding="UTF-8" standalone="no"?>
<!-- Created with Inkscape (http://www.inkscape.org/) -->

<svg
   xmlns:dc="http://purl.org/dc/elements/1.1/"
   xmlns:cc="http://creativecommons.org/ns#"
   xmlns:rdf="http://www.w3.org/1999/02/22-rdf-syntax-ns#"
   xmlns:svg="http://www.w3.org/2000/svg"
   xmlns="http://www.w3.org/2000/svg"
   xmlns:xlink="http://www.w3.org/1999/xlink"
   xmlns:sodipodi="http://sodipodi.sourceforge.net/DTD/sodipodi-0.dtd"
   xmlns:inkscape="http://www.inkscape.org/namespaces/inkscape"
   width="64"
   height="64"
   id="svg7839"
   version="1.1"
   inkscape:version="0.91 r13725"
   sodipodi:docname="amule_64.svg">
  <defs
     id="defs7841">
    <radialGradient
       inkscape:collect="always"
       xlink:href="#linearGradient6945-74"
       id="radialGradient7157"
       gradientUnits="userSpaceOnUse"
       gradientTransform="matrix(1.3991458,0,0,0.52898209,41.838741,277.34195)"
       cx="170.58949"
       cy="50.677525"
       fx="170.58949"
       fy="50.677525"
       r="7.4246206" />
    <linearGradient
       inkscape:collect="always"
       id="linearGradient6945-74">
      <stop
         style="stop-color:#000000;stop-opacity:1;"
         offset="0"
         id="stop6947-2" />
      <stop
         style="stop-color:#000000;stop-opacity:0;"
         offset="1"
         id="stop6949-7" />
    </linearGradient>
    <linearGradient
       inkscape:collect="always"
       xlink:href="#linearGradient7343"
       id="linearGradient7159"
       gradientUnits="userSpaceOnUse"
       gradientTransform="matrix(1.3531173,0,0,1.3524174,49.253637,238.14402)"
       x1="157.5466"
       y1="42.639908"
       x2="157.5466"
       y2="8.2586107" />
    <linearGradient
       id="linearGradient7343">
      <stop
         id="stop7345"
         offset="0"
         style="stop-color:#388ccc;stop-opacity:1;" />
      <stop
         id="stop7347"
         offset="1"
         style="stop-color:#78b1dc;stop-opacity:1;" />
    </linearGradient>
    <linearGradient
       inkscape:collect="always"
       xlink:href="#linearGradient6977-6"
       id="linearGradient7161"
       gradientUnits="userSpaceOnUse"
       x1="156.71875"
       y1="-10.294855"
       x2="156.71875"
       y2="51.989662" />
    <linearGradient
       inkscape:collect="always"
       id="linearGradient6977-6">
      <stop
         style="stop-color:#ffffff;stop-opacity:1;"
         offset="0"
         id="stop6979-0" />
      <stop
         style="stop-color:#ffffff;stop-opacity:0;"
         offset="1"
         id="stop6981-0" />
    </linearGradient>
    <radialGradient
       inkscape:collect="always"
       xlink:href="#linearGradient6945-7-7"
       id="radialGradient7163"
       gradientUnits="userSpaceOnUse"
       gradientTransform="matrix(2.6325604,0,0,0.52898209,-194.73354,277.34195)"
       cx="170.58949"
       cy="50.677525"
       fx="170.58949"
       fy="50.677525"
       r="7.4246206" />
    <linearGradient
       inkscape:collect="always"
       id="linearGradient6945-7-7">
      <stop
         style="stop-color:#000000;stop-opacity:1;"
         offset="0"
         id="stop6947-5-6" />
      <stop
         style="stop-color:#000000;stop-opacity:0;"
         offset="1"
         id="stop6949-9-2" />
    </linearGradient>
    <linearGradient
       inkscape:collect="always"
       xlink:href="#linearGradient6977-6"
       id="linearGradient4286"
       x1="292.66113"
       y1="325.86102"
       x2="292.6622"
       y2="383.81854"
       gradientUnits="userSpaceOnUse"
       gradientTransform="translate(-28.812347,-78.447951)" />
  </defs>
  <sodipodi:namedview
     id="base"
     pagecolor="#ffffff"
     bordercolor="#666666"
     borderopacity="1.0"
     inkscape:pageopacity="0.0"
     inkscape:pageshadow="2"
     inkscape:zoom="7.919596"
     inkscape:cx="-6.224018"
     inkscape:cy="30.165321"
     inkscape:document-units="px"
     inkscape:current-layer="layer1"
     showgrid="false"
     fit-margin-top="0"
     fit-margin-left="0"
     fit-margin-right="0"
     fit-margin-bottom="0"
     inkscape:window-width="1366"
     inkscape:window-height="705"
     inkscape:window-x="0"
     inkscape:window-y="30"
     inkscape:window-maximized="1" />
  <metadata
     id="metadata7844">
    <rdf:RDF>
      <cc:Work
         rdf:about="">
        <dc:format>image/svg+xml</dc:format>
        <dc:type
           rdf:resource="http://purl.org/dc/dcmitype/StillImage" />
        <dc:title />
      </cc:Work>
    </rdf:RDF>
  </metadata>
  <g
     inkscape:label="Capa 1"
     inkscape:groupmode="layer"
     id="layer1"
     transform="translate(-230.85715,-246.07646)">
    <ellipse
       ry="3.9274914"
       rx="10.388126"
       cy="304.14944"
       cx="280.51831"
       style="color:#000000;display:inline;overflow:visible;visibility:visible;opacity:0.3;fill:url(#radialGradient7157);fill-opacity:1;fill-rule:nonzero;stroke:none;stroke-width:1;marker:none;enable-background:accumulate"
       id="path6943-2" />
    <path
       style="color:#000000;display:inline;overflow:visible;visibility:visible;opacity:1;fill:url(#linearGradient7159);fill-opacity:1;fill-rule:nonzero;stroke:none;stroke-width:1;stroke-linecap:round;stroke-linejoin:round;stroke-miterlimit:4;stroke-dasharray:none;stroke-dashoffset:0;stroke-opacity:1;marker:none;enable-background:accumulate"
       d="m 274.84366,247.56868 c -4.3904,0 -7.94956,3.5573 -7.94956,7.94544 0,1.4177 0.36385,2.7359 1.01484,3.88822 l -8.71069,8.70618 c -1.57183,-0.63856 -3.27292,-1.01432 -5.07419,-1.01432 -2.33533,0 -4.55232,0.60728 -6.4696,1.64827 l -2.28338,-8.49488 c 0.70008,-0.78799 1.14169,-1.82168 1.14169,-2.95841 0,-2.46484 -2.01609,-4.43761 -4.4822,-4.43761 -2.4661,0 -4.43992,1.97277 -4.43992,4.43761 0,2.20036 1.58249,4.02829 3.6788,4.39536 l 2.70622,10.01634 c -2.10223,2.38336 -3.38252,5.49043 -3.38252,8.9175 0,7.4692 6.05784,13.52417 13.53091,13.52417 4.14004,0 7.83547,-1.8481 10.31751,-4.77572 l 6.85016,3.97273 c -0.18041,0.72982 -0.2537,1.49668 -0.2537,2.28221 0,5.22843 4.24067,9.46691 9.47181,9.46691 5.23115,0 9.47182,-4.23848 9.47182,-9.46691 0,-5.22845 -4.24067,-9.46693 -9.47182,-9.46693 -2.88753,0 -5.4934,1.30226 -7.23072,3.33878 l -6.59644,-3.80367 c 0.62946,-1.56102 0.97247,-3.28531 0.97247,-5.07157 0,-4.08182 -1.83286,-7.70569 -4.69355,-10.18538 l 7.99185,-7.98773 c 1.14577,0.63991 2.48444,1.01433 3.89021,1.01433 4.39043,0 7.94957,-3.55731 7.94957,-7.94548 0,-4.38814 -3.55914,-7.94544 -7.94957,-7.94544 z"
       id="path6667-7"
       inkscape:connector-curvature="0"
       sodipodi:nodetypes="ssccsccsssccssccssssccsccsss" />
    <path
       sodipodi:type="inkscape:offset"
       inkscape:radius="-0.72266525"
       inkscape:original="M 166.71875 6.96875 C 163.47408 6.96875 160.84375 9.599077 160.84375 12.84375 C 160.84375 13.89201 161.11265 14.866714 161.59375 15.71875 L 155.15625 22.15625 C 153.99461 21.684079 152.73745 21.40625 151.40625 21.40625 C 149.68036 21.40625 148.04193 21.855276 146.625 22.625 L 144.9375 16.34375 C 145.45489 15.761092 145.78125 14.996762 145.78125 14.15625 C 145.78125 12.33371 144.29129 10.875 142.46875 10.875 C 140.64621 10.875 139.1875 12.33371 139.1875 14.15625 C 139.1875 15.783225 140.35702 17.134839 141.90625 17.40625 L 143.90625 24.8125 C 142.35262 26.574792 141.40625 28.872217 141.40625 31.40625 C 141.40625 36.929097 145.8834 41.40625 151.40625 41.40625 C 154.46588 41.40625 157.19693 40.039729 159.03125 37.875 L 164.09375 40.8125 C 163.96041 41.352137 163.90625 41.919172 163.90625 42.5 C 163.90625 46.365993 167.04026 49.5 170.90625 49.5 C 174.77224 49.5 177.90625 46.365993 177.90625 42.5 C 177.90625 38.634007 174.77224 35.5 170.90625 35.5 C 168.77226 35.5 166.84644 36.462915 165.5625 37.96875 L 160.6875 35.15625 C 161.15269 34.002007 161.40625 32.72704 161.40625 31.40625 C 161.40625 28.388079 160.05165 25.708536 157.9375 23.875 L 163.84375 17.96875 C 164.69052 18.44191 165.67983 18.71875 166.71875 18.71875 C 169.96342 18.71875 172.59375 16.088423 172.59375 12.84375 C 172.59375 9.599077 169.96342 6.96875 166.71875 6.96875 z "
       style="color:#000000;display:inline;overflow:visible;visibility:visible;opacity:0.98999999;fill:none;stroke:url(#linearGradient7161);stroke-width:0.73922539;stroke-linecap:round;stroke-linejoin:round;stroke-miterlimit:4;stroke-dasharray:none;stroke-dashoffset:0;stroke-opacity:1;marker:none;enable-background:accumulate"
       id="path6975-5"
       d="m 166.71875,7.6914062 c -2.85411,0 -5.15234,2.2982285 -5.15234,5.1523438 0,0.924674 0.23448,1.772578 0.65625,2.519531 a 0.72273752,0.72273752 0 0 1 -0.11719,0.867188 l -6.4375,6.4375 a 0.72273752,0.72273752 0 0 1 -0.7832,0.158203 c -1.08476,-0.44092 -2.24787,-0.697266 -3.47852,-0.697266 -1.60055,0 -3.12036,0.416406 -4.43555,1.13086 A 0.72273752,0.72273752 0 0 1 145.92773,22.8125 l -1.6875,-6.28125 a 0.72273752,0.72273752 0 0 1 0.15625,-0.667969 c 0.40923,-0.460851 0.66211,-1.053587 0.66211,-1.707031 0,-1.428679 -1.1529,-2.558594 -2.58984,-2.558594 -1.43694,0 -2.55859,1.121655 -2.55859,2.558594 0,1.280659 0.91266,2.327356 2.12109,2.539062 a 0.72273752,0.72273752 0 0 1 0.57227,0.523438 l 2,7.40625 a 0.72273752,0.72273752 0 0 1 -0.1543,0.666016 c -1.44387,1.637785 -2.32031,3.761127 -2.32031,6.115234 0,5.13229 4.14505,9.277344 9.27734,9.277344 2.84445,0 5.37164,-1.266134 7.07422,-3.275391 A 0.72273752,0.72273752 0 0 1 159.39453,37.25 l 5.0625,2.9375 a 0.72273752,0.72273752 0 0 1 0.33789,0.798828 c -0.11599,0.46943 -0.16601,0.977768 -0.16601,1.513672 0,3.475435 2.80191,6.277344 6.27734,6.277344 3.47543,0 6.27734,-2.801909 6.27734,-6.277344 0,-3.475435 -2.80191,-6.277344 -6.27734,-6.277344 -1.9166,0 -3.64182,0.864753 -4.79297,2.214844 a 0.72273752,0.72273752 0 0 1 -0.91211,0.15625 l -4.875,-2.8125 a 0.72273752,0.72273752 0 0 1 -0.30859,-0.894531 c 0.43025,-1.067558 0.66601,-2.252169 0.66601,-3.480469 0,-2.801942 -1.25244,-5.279062 -3.21875,-6.984375 a 0.72273752,0.72273752 0 0 1 -0.0391,-1.058594 l 5.90625,-5.90625 a 0.72273752,0.72273752 0 0 1 0.86328,-0.11914 c 0.74232,0.414793 1.6129,0.658203 2.52344,0.658203 2.85411,0 5.15234,-2.298229 5.15234,-5.152344 0,-2.8541153 -2.29823,-5.1523438 -5.15234,-5.1523438 z"
       transform="matrix(1.402446,0,0,1.4017206,-187.77429,129.27208)" />
    <ellipse
       ry="3.9274914"
       rx="19.545763"
       cy="304.14944"
       cx="254.35361"
       style="color:#000000;display:inline;overflow:visible;visibility:visible;opacity:0.15;fill:url(#radialGradient7163);fill-opacity:1;fill-rule:nonzero;stroke:none;stroke-width:1;marker:none;enable-background:accumulate"
       id="path6943-0-8" />
    <path
       style="color:#000000;display:inline;overflow:visible;visibility:visible;opacity:0.6;fill:none;fill-opacity:1;fill-rule:nonzero;stroke:#255f8f;stroke-width:1;stroke-linecap:round;stroke-linejoin:round;stroke-miterlimit:4;stroke-dasharray:none;stroke-dashoffset:0;stroke-opacity:1;marker:none;enable-background:accumulate"
       d="m 274.84316,247.56846 c -4.3904,0 -7.94956,3.5573 -7.94956,7.94544 0,1.4177 0.36385,2.7359 1.01484,3.88822 l -8.71069,8.70618 c -1.57183,-0.63856 -3.27292,-1.01432 -5.07419,-1.01432 -2.33533,0 -4.55232,0.60728 -6.4696,1.64827 l -2.28338,-8.49488 c 0.70008,-0.78799 1.14169,-1.82168 1.14169,-2.95841 0,-2.46484 -2.01609,-4.43761 -4.4822,-4.43761 -2.4661,0 -4.43992,1.97277 -4.43992,4.43761 0,2.20036 1.58249,4.02829 3.6788,4.39536 l 2.70622,10.01634 c -2.10223,2.38336 -3.38277,5.49043 -3.38277,8.9175 0,7.4692 6.05809,13.52417 13.53116,13.52417 4.14004,0 7.83547,-1.8481 10.31751,-4.77572 l 6.85016,3.97273 c -0.18041,0.72982 -0.2537,1.49668 -0.2537,2.28221 0,5.22843 4.24067,9.46691 9.47181,9.46691 5.23115,0 9.47182,-4.23848 9.47182,-9.46691 0,-5.22845 -4.24067,-9.46693 -9.47182,-9.46693 -2.88753,0 -5.4934,1.30226 -7.23072,3.33878 l -6.59644,-3.80367 c 0.62946,-1.56102 0.97255,-3.28531 0.97255,-5.07157 0,-4.08182 -1.83294,-7.70569 -4.69363,-10.18538 l 7.99185,-7.98773 c 1.14577,0.63991 2.48444,1.01433 3.89021,1.01433 4.39043,0 7.94957,-3.55731 7.94957,-7.94548 0,-4.38814 -3.55914,-7.94544 -7.94957,-7.94544 z"
       id="path6667-7-7"
       inkscape:connector-curvature="0" />
    <path
       style="color:#000000;display:inline;overflow:visible;visibility:visible;opacity:0.6;fill:none;fill-opacity:1;fill-rule:nonzero;stroke:url(#linearGradient4286);stroke-width:1;stroke-linecap:round;stroke-linejoin:round;stroke-miterlimit:4;stroke-dasharray:none;stroke-dashoffset:0;stroke-opacity:1;marker:none;enable-background:accumulate"
       d="m 274.84377,248.56892 c -3.85023,0 -6.94922,3.09789 -6.94922,6.94531 0,1.2466 0.31594,2.38959 0.88476,3.39648 a 1.0001,1.0001 0 0 1 -0.16406,1.19922 l -8.71094,8.70508 a 1.0001,1.0001 0 0 1 -1.08203,0.21875 c -1.46548,-0.59536 -3.03702,-0.93945 -4.69922,-0.93945 -2.16197,0 -4.21566,0.56082 -5.99218,1.52539 a 1.0001,1.0001 0 0 1 -1.44141,-0.61914 l -2.2832,-8.49414 a 1.0001,1.0001 0 0 1 0.21679,-0.92383 c 0.55036,-0.61947 0.88868,-1.41719 0.88868,-2.29492 0,-1.91955 -1.54766,-3.4375 -3.48047,-3.4375 -1.93279,-1e-5 -3.44141,1.50652 -3.44141,3.4375 0,1.72089 1.2266,3.12758 2.85156,3.41211 a 1.0001,1.0001 0 0 1 0.79297,0.72265 l 2.70703,10.01758 a 1.0001,1.0001 0 0 1 -0.21679,0.92188 c -1.95029,2.21109 -3.13086,5.07789 -3.13086,8.25585 0,6.92849 5.59638,12.52344 12.52929,12.52344 3.84244,0 7.25698,-1.70938 9.55665,-4.42188 a 1.0001,1.0001 0 0 1 1.26367,-0.21875 l 6.84961,3.97266 a 1.0001,1.0001 0 0 1 0.46875,1.10547 c -0.15641,0.63265 -0.22461,1.31964 -0.22461,2.04297 0,4.68771 3.78167,8.46679 8.47265,8.46679 4.69099,0 8.47266,-3.77908 8.47266,-8.46679 0,-4.68773 -3.78167,-8.4668 -8.47266,-8.4668 -2.58687,0 -4.9172,1.1653 -6.4707,2.98633 a 1.0001,1.0001 0 0 1 -1.25977,0.21875 l -6.5957,-3.80469 a 1.0001,1.0001 0 0 1 -0.42773,-1.24023 c 0.58108,-1.44103 0.89843,-3.03905 0.89843,-4.69727 0,-3.78245 -1.69158,-7.12736 -4.34765,-9.42968 a 1.0001,1.0001 0 0 1 -0.0527,-1.46289 l 7.99219,-7.98828 a 1.0001,1.0001 0 0 1 1.19531,-0.16602 c 1.00125,0.5592 2.17415,0.88867 3.40235,0.88867 3.85027,0 6.94922,-3.09786 6.94922,-6.94531 0,-3.84742 -3.09895,-6.94531 -6.94922,-6.94531 z"
       id="path6667-7-6-6"
       inkscape:connector-curvature="0" />
    <text
       xml:space="preserve"
       style="font-style:normal;font-variant:normal;font-weight:bold;font-stretch:normal;font-size:24.12163353px;line-height:125%;font-family:'Droid Sans';-inkscape-font-specification:'Droid Sans Bold';letter-spacing:0px;word-spacing:0px;display:inline;fill:#ffffff;fill-opacity:1;stroke:none;enable-background:new"
       x="246.34964"
       y="287.26773"
       id="text6939-0"
       sodipodi:linespacing="125%"
       transform="scale(1.0002587,0.99974136)"><tspan
         sodipodi:role="line"
         id="tspan6941-1"
         x="246.34964"
         y="287.26773">a</tspan></text>
  </g>
</svg>
