<?xml version="1.0" encoding="UTF-8" standalone="no"?>
<svg
   xmlns:dc="http://purl.org/dc/elements/1.1/"
   xmlns:cc="http://creativecommons.org/ns#"
   xmlns:rdf="http://www.w3.org/1999/02/22-rdf-syntax-ns#"
   xmlns:svg="http://www.w3.org/2000/svg"
   xmlns="http://www.w3.org/2000/svg"
   xmlns:xlink="http://www.w3.org/1999/xlink"
   xmlns:sodipodi="http://sodipodi.sourceforge.net/DTD/sodipodi-0.dtd"
   xmlns:inkscape="http://www.inkscape.org/namespaces/inkscape"
   version="1.1"
   width="64"
   height="64"
   id="svg4161"
   sodipodi:docname="com.visualstudio.code.svg"
   inkscape:version="1.0.1 (3bc2e813f5, 2020-09-07)">
  <sodipodi:namedview
     pagecolor="#ffffff"
     bordercolor="#666666"
     borderopacity="1"
     objecttolerance="10"
     gridtolerance="10"
     guidetolerance="10"
     inkscape:pageopacity="0"
     inkscape:pageshadow="2"
     inkscape:window-width="1366"
     inkscape:window-height="705"
     id="namedview38"
     showgrid="true"
     inkscape:zoom="5.2149125"
     inkscape:cx="72.10261"
     inkscape:cy="29.069485"
     inkscape:window-x="0"
     inkscape:window-y="30"
     inkscape:window-maximized="1"
     inkscape:current-layer="svg4161"
     inkscape:document-rotation="0"
     inkscape:object-paths="true"
     inkscape:snap-intersection-paths="true"
     inkscape:snap-smooth-nodes="true"
     inkscape:snap-midpoints="true">
    <inkscape:grid
       type="xygrid"
       id="grid1041" />
  </sodipodi:namedview>
  <defs
     id="defs4163">
    <linearGradient
       x1="23.99999"
       y1="4.999989"
       x2="23.99999"
       y2="43"
       id="linearGradient3180"
       xlink:href="#linearGradient3924-2-2-5-8"
       gradientUnits="userSpaceOnUse"
       gradientTransform="matrix(1.4324324,0,0,1.4362832,-2.378381,-2.4707781)" />
    <linearGradient
       id="linearGradient3924-2-2-5-8">
      <stop
         id="stop3926-9-4-9-6"
         style="stop-color:#ffffff;stop-opacity:1"
         offset="0" />
      <stop
         id="stop3928-9-8-6-5"
         style="stop-color:#ffffff;stop-opacity:0.23529412"
         offset="0.06316455" />
      <stop
         id="stop3930-3-5-1-7"
         style="stop-color:#ffffff;stop-opacity:0.15686275"
         offset="0.95056331" />
      <stop
         id="stop3932-8-0-4-8"
         style="stop-color:#ffffff;stop-opacity:0.39215687"
         offset="1" />
    </linearGradient>
    <radialGradient
       cx="6.952919"
       cy="9.9571075"
       r="12.671875"
       fx="6.952919"
       fy="9.9571075"
       id="radialGradient3988-3"
       xlink:href="#linearGradient2867-449-88-871-390-598-476-591-434-148-57-177-8-3-3-6-4-8-8-8-5-7-8"
       gradientUnits="userSpaceOnUse"
       gradientTransform="matrix(0,8.3741498,-10.280782,0,135.53887,-79.76307)" />
    <radialGradient
       cx="4.9929786"
       cy="43.5"
       r="2.5"
       fx="4.9929786"
       fy="43.5"
       id="radialGradient3337-2-2"
       xlink:href="#linearGradient3688-166-749-4-0-3-8"
       gradientUnits="userSpaceOnUse"
       gradientTransform="matrix(2.003784,0,0,1.4,27.98813,-17.4)" />
    <linearGradient
       id="linearGradient3688-166-749-4-0-3-8">
      <stop
         id="stop2883-4-0-1-8"
         style="stop-color:#181818;stop-opacity:1"
         offset="0" />
      <stop
         id="stop2885-9-2-9-6"
         style="stop-color:#181818;stop-opacity:0"
         offset="1" />
    </linearGradient>
    <radialGradient
       cx="4.9929786"
       cy="43.5"
       r="2.5"
       fx="4.9929786"
       fy="43.5"
       id="radialGradient3339-1-4"
       xlink:href="#linearGradient3688-464-309-9-2-4-2"
       gradientUnits="userSpaceOnUse"
       gradientTransform="matrix(2.003784,0,0,1.4,-20.01187,-104.4)" />
    <linearGradient
       id="linearGradient3688-464-309-9-2-4-2">
      <stop
         id="stop2889-7-9-6-9"
         style="stop-color:#181818;stop-opacity:1"
         offset="0" />
      <stop
         id="stop2891-6-6-1-7"
         style="stop-color:#181818;stop-opacity:0"
         offset="1" />
    </linearGradient>
    <linearGradient
       id="linearGradient3702-501-757-8-4-1-1">
      <stop
         id="stop2895-8-9-9-1"
         style="stop-color:#181818;stop-opacity:0"
         offset="0" />
      <stop
         id="stop2897-7-8-7-7"
         style="stop-color:#181818;stop-opacity:1"
         offset="0.5" />
      <stop
         id="stop2899-4-5-1-5"
         style="stop-color:#181818;stop-opacity:0"
         offset="1" />
    </linearGradient>
    <linearGradient
       x1="25.058096"
       y1="47.027729"
       x2="25.058096"
       y2="39.999443"
       id="linearGradient4159"
       xlink:href="#linearGradient3702-501-757-8-4-1-1"
       gradientUnits="userSpaceOnUse" />
    <linearGradient
       id="linearGradient2867-449-88-871-390-598-476-591-434-148-57-177-8-3-3-6-4-8-8-8-5-7-8">
      <stop
         id="stop3750-1-0-7-6-6-1-3-9-3-9-2"
         style="stop-color:#404648;stop-opacity:1"
         offset="0" />
      <stop
         id="stop3754-1-8-5-2-7-6-7-1-9-1-0"
         style="stop-color:#0c1011;stop-opacity:1"
         offset="1" />
    </linearGradient>
    <linearGradient
       id="l-3"
       x1="27.447001"
       x2="25.966"
       y1="289.76001"
       y2="289.76001"
       gradientTransform="matrix(0.94283,0,0,0.9628,-15.756983,-272.2533)"
       gradientUnits="userSpaceOnUse">
      <stop
         stop-color="#1881ce"
         offset="0"
         id="stop19-6" />
      <stop
         stop-color="#2980b9"
         stop-opacity=".86667"
         offset="1"
         id="stop21-7" />
    </linearGradient>
    <linearGradient
       id="j-5"
       x1="10.692"
       x2="34.026001"
       y1="14.134"
       y2="29.068001"
       gradientTransform="matrix(0.24946,0,0,0.25474,1.6335269,1.6367)"
       gradientUnits="userSpaceOnUse">
      <stop
         stop-color="#349cd2"
         offset="0"
         id="stop7-3" />
      <stop
         stop-color="#1e92ff"
         offset=".76001"
         id="stop9-5" />
      <stop
         stop-color="#0e71b1"
         offset="1"
         id="stop11-6" />
    </linearGradient>
    <linearGradient
       id="k-2"
       x1="22.457001"
       x2="27.447001"
       y1="290.14999"
       y2="287.35001"
       gradientTransform="matrix(0.94283,0,0,0.9628,-15.756983,-272.2533)"
       gradientUnits="userSpaceOnUse">
      <stop
         stop-color="#1d99f3"
         offset="0"
         id="stop14-9" />
      <stop
         stop-color="#3daee9"
         offset="1"
         id="stop16-1" />
    </linearGradient>
    <linearGradient
       id="a">
      <stop
         stop-color="#232629"
         offset="0"
         id="stop2" />
      <stop
         stop-opacity="0"
         offset="1"
         id="stop4" />
    </linearGradient>
    <linearGradient
       x1="23.99999"
       y1="6.0315123"
       x2="23.99999"
       y2="41.934097"
       id="linearGradient3024"
       xlink:href="#linearGradient3895"
       gradientUnits="userSpaceOnUse"
       gradientTransform="matrix(1.4,0,0,1.4,-75.227129,1.2474736)" />
    <linearGradient
       id="linearGradient3895">
      <stop
         id="stop3897"
         style="stop-color:#ffffff;stop-opacity:1"
         offset="0" />
      <stop
         id="stop3899"
         style="stop-color:#ffffff;stop-opacity:0.23529412"
         offset="0.03030945" />
      <stop
         id="stop3901"
         style="stop-color:#ffffff;stop-opacity:0.15686275"
         offset="0.97833663" />
      <stop
         id="stop3903"
         style="stop-color:#ffffff;stop-opacity:0.39215687"
         offset="1" />
    </linearGradient>
    <linearGradient
       id="b"
       x1="1.0583"
       x2="11.642"
       y1="285.07999"
       y2="296.22"
       gradientTransform="matrix(3.7795276,0,0,3.5905512,-53.491524,-1019.8022)"
       gradientUnits="userSpaceOnUse">
      <stop
         stop-color="#535a61"
         offset="0"
         id="stop24" />
      <stop
         stop-color="#333c45"
         offset="1"
         id="stop26" />
    </linearGradient>
    <linearGradient
       x1="23.99999"
       y1="6.0315123"
       x2="23.99999"
       y2="41.934097"
       id="linearGradient3024-1"
       xlink:href="#linearGradient3895"
       gradientUnits="userSpaceOnUse"
       gradientTransform="matrix(1.4102564,0,0,1.4102564,68.889119,-34.288719)" />
    <linearGradient
       inkscape:collect="always"
       id="linearGradient961">
      <stop
         style="stop-color:#64baff;stop-opacity:1"
         offset="0"
         id="stop957" />
      <stop
         style="stop-color:#3689e6;stop-opacity:1"
         offset="1"
         id="stop959" />
    </linearGradient>
    <linearGradient
       inkscape:collect="always"
       xlink:href="#linearGradient1055-3"
       id="linearGradient958"
       x1="4.5"
       y1="-32"
       x2="59.5"
       y2="-32"
       gradientUnits="userSpaceOnUse" />
    <linearGradient
       inkscape:collect="always"
       xlink:href="#linearGradient961"
       id="linearGradient997-6"
       x1="21"
       y1="12"
       x2="21"
       y2="31.708517"
       gradientUnits="userSpaceOnUse"
       gradientTransform="matrix(1.3846154,0,0,1.3846154,-1.2307865,-2.615365)" />
    <linearGradient
       inkscape:collect="always"
       xlink:href="#linearGradient961"
       id="linearGradient1019-2"
       x1="21"
       y1="18"
       x2="21"
       y2="37.686501"
       gradientUnits="userSpaceOnUse"
       gradientTransform="matrix(1.3846154,0,0,1.3846154,-1.2307865,-2.615365)" />
    <linearGradient
       inkscape:collect="always"
       xlink:href="#linearGradient961"
       id="linearGradient1027-6"
       x1="29.55467"
       y1="24.999994"
       x2="37.000011"
       y2="24.999994"
       gradientUnits="userSpaceOnUse"
       gradientTransform="matrix(1.3846154,0,0,1.3846154,-1.2307865,-2.615365)" />
    <linearGradient
       inkscape:collect="always"
       id="linearGradient1055-3">
      <stop
         style="stop-color:#485a6c;stop-opacity:1"
         offset="0"
         id="stop1051-6" />
      <stop
         style="stop-color:#273445;stop-opacity:1"
         offset="1"
         id="stop1053-7" />
    </linearGradient>
  </defs>
  <metadata
     id="metadata4166">
    <rdf:RDF>
      <cc:Work
         rdf:about="">
        <dc:format>image/svg+xml</dc:format>
        <dc:type
           rdf:resource="http://purl.org/dc/dcmitype/StillImage" />
        <dc:title />
      </cc:Work>
    </rdf:RDF>
  </metadata>
  <g
     style="opacity:0.6"
     id="g3712-8-2-4-4"
     transform="matrix(1.5789502,0,0,0.7142857,-5.894751,27.928572)">
    <rect
       style="fill:url(#radialGradient3337-2-2);fill-opacity:1;stroke:none"
       id="rect2801-5-5-7-9"
       y="40"
       x="38"
       height="7"
       width="5" />
    <rect
       style="fill:url(#radialGradient3339-1-4);fill-opacity:1;stroke:none"
       id="rect3696-3-0-3-7"
       transform="scale(-1,-1)"
       y="-47"
       x="-10"
       height="7"
       width="5" />
    <rect
       style="fill:url(#linearGradient4159);fill-opacity:1;stroke:none"
       id="rect3700-5-6-8-4"
       y="40"
       x="10"
       height="7.0000005"
       width="28" />
  </g>
  <rect
     style="color:#000000;display:inline;overflow:visible;visibility:visible;opacity:0.9;fill:url(#linearGradient958);fill-opacity:1.0;fill-rule:nonzero;stroke:none;stroke-width:0.99999994;marker:none;enable-background:accumulate"
     id="rect5505-21-3-8-5-2"
     y="-59.5"
     x="4.5"
     ry="3"
     rx="3"
     height="55"
     width="55"
     transform="rotate(90)" />
  <rect
     style="opacity:0.3;fill:none;stroke:url(#linearGradient3180);stroke-width:1;stroke-linecap:round;stroke-linejoin:round;stroke-miterlimit:4;stroke-dasharray:none;stroke-dashoffset:0;stroke-opacity:1"
     id="rect6741-5-0-2-3"
     y="5.4287739"
     x="5.4999986"
     ry="2"
     rx="2"
     height="53.142479"
     width="53" />
  <rect
     style="color:#000000;display:inline;overflow:visible;visibility:visible;opacity:0.5;fill:none;stroke:#0e141f;stroke-width:1;stroke-linecap:round;stroke-linejoin:round;stroke-miterlimit:4;stroke-dasharray:none;stroke-dashoffset:0;stroke-opacity:1;marker:none;enable-background:accumulate"
     id="rect5505-21-3-8-9-1-1"
     y="4.5000019"
     x="4.4999986"
     ry="3"
     rx="3"
     height="55"
     width="55" />
  <path
     id="path4-1-1"
     style="opacity:0.2;fill:#0e141f;fill-opacity:1;stroke:none;stroke-width:2.46585"
     d="m 41.179562,14.002159 c -1.70003,0.167406 -2.73857,1.697898 -4.02981,2.650016 -4.05842,3.483849 -8.116846,6.967698 -12.17527,10.451546 -1.992187,-1.485026 -3.984375,-2.970052 -5.976562,-4.455078 -0.829662,-0.83476 -2.594734,-0.367907 -3.308311,0.742863 -0.645928,0.656676 -1.291855,1.313352 -1.937783,1.970028 -1.014529,0.424779 -1.006952,2.824495 0.194558,3.22617 1.573168,1.39336 3.146336,2.78672 4.719504,4.18008 -1.711588,1.588541 -3.423177,3.177083 -5.134765,4.765625 -0.779016,0.457656 -0.749903,2.484305 0.414088,3.097535 0.776684,0.70642 1.553368,1.412841 2.330052,2.119261 0.783422,0.9405 2.623093,0.462946 3.512608,-0.524141 1.700876,-1.31487 3.401751,-2.629739 5.102627,-3.944609 4.984374,4.415366 9.968754,8.83073 14.953124,13.246094 0.90677,0.09 1.93229,0.802153 2.74672,0.05662 2.40315,-1.388576 4.8699,-2.679144 7.2334,-4.128834 1.11579,-0.919847 1.1611,-2.011647 1.10973,-3.036808 -0.0134,-8.117987 0.0268,-16.237668 -0.0202,-24.354593 -0.27757,-1.482882 -1.40285,-1.890048 -2.25751,-2.386104 -2.11325,-1.154545 -4.1676,-2.429642 -6.32194,-3.500069 -0.36958,-0.128809 -0.76289,-0.190416 -1.15428,-0.175598 z m 0.40625,0.01172 c -0.0398,-0.0085 -0.204891,-0.0019 0,0 z m -0.64453,12.884764 c 0,4.03711 0,8.074218 0,12.111328 -2.82227,-2.104167 -5.64453,-4.208333 -8.4668,-6.3125 2.82227,-1.932942 5.64453,-3.865885 8.4668,-5.798828 z" />
  <path
     id="path1214"
     style="opacity:0.4;fill:#0e141f;fill-opacity:1;stroke:none;stroke-width:2.46585"
     d="m 41.526372,14.969139 c -0.96681,-0.08882 -1.55468,0.566406 -1.55468,0.566406 0,0 0.16332,-0.109903 0.39453,-0.185547 -0.12328,0.04374 -0.2537,0.09975 -0.39453,0.185547 l -14.92188,12.80664 -6.617186,-4.933594 c -0.749568,-0.649938 -1.458984,0.0957 -1.458984,0.0957 l -2.476562,2.517578 c -1.063389,0.853051 -0.177735,1.492187 -0.177735,1.492187 l 5.867187,5.197266 -0.16992,0.154297 -5.773439,5.359375 c 0,0 -0.605517,0.450809 0,1.255859 l 2.736328,2.488282 c 0,0 0.649395,0.698256 1.609375,-0.0957 l 6.128906,-4.738281 0.25195,-0.1875 15.32032,13.570312 c 0.01,8.26e-4 0.0159,-7.31e-4 0.0254,0 0.62273,0.61197 1.36328,0.410157 1.36328,0.410157 l 7.36133,-4.150391 c 1.07816,-0.734921 0.92578,-1.648434 0.92578,-1.648434 V 20.342185 c 0,-1.089448 -1.11524,-1.464844 -1.11524,-1.464844 l -6.23828,-3.519531 c -0.39878,-0.246504 -0.76366,-0.359066 -1.08594,-0.388671 z m 0.44727,9.992187 v 16.000001 l -11.18555,-8.339845 z" />
  <path
     id="path4-1"
     style="fill:url(#linearGradient997-6);fill-opacity:1;stroke-width:2.46585"
     d="m 40.808936,14.303364 c -0.228941,0 -0.497232,0.07995 -0.809932,0.270449 l -15.254806,13.091546 -4.700326,4.23952 -5.774755,5.358373 c 0,0 -0.605517,0.4506 0,1.25565 l 2.735971,2.489023 c 0,0 0.649912,0.69795 1.609892,-0.09601 L 24.744198,36.173871 30.389736,31.949123 42,24 l -8.9e-5,-8.562044 c 0,0 -0.293053,-1.144349 -1.19124,-1.1346 z"
     sodipodi:nodetypes="cccccccccccccc" />
  <path
     d="m 14.346157,26.553782 c 0,0 -0.88612,-0.638923 0.177268,-1.491974 l 2.477492,-2.517784 c 0,0 0.708926,-0.745949 1.458494,-0.09601 L 42,40 v 8.397546 c 0,0 -0.01109,1.303574 -1.683671,1.159575 z"
     fill="#2489ca"
     id="path2-8"
     style="fill:url(#linearGradient1019-2);fill-opacity:1;stroke-width:2.46585"
     sodipodi:nodetypes="cccccccc" />
  <path
     d="m 40.316211,49.53497 c 0.627716,0.642525 1.388311,0.432075 1.388311,0.432075 l 7.361439,-4.150872 c 1.078164,-0.734924 0.926758,-1.647076 0.926758,-1.647076 V 19.382062 c 0,-1.089448 -1.115051,-1.4661 -1.115051,-1.4661 l -6.238672,-3.519374 c -1.595121,-0.986023 -2.639992,0.177225 -2.639992,0.177225 0,0 1.343992,-0.967499 2.001172,0.864148 l -2.85e-4,32.77491 c -10e-7,0.2253 -0.04791,0.446851 -0.143974,0.646275 -0.191965,0.38775 -0.609189,0.749623 -1.609809,0.598275 z"
     fill="#3c99d4"
     id="path8-7"
     style="fill:url(#linearGradient1027-6);fill-opacity:1;stroke-width:2.46585"
     sodipodi:nodetypes="ccccsccccsccc" />
  <path
     id="path2-8-1"
     style="opacity:0.3;fill:#0e141f;fill-opacity:1;stroke:none;stroke-width:2.46585"
     d="m 41,39.253906 v 8.958985 c 0,0.2253 -0.0485,0.44706 -0.14453,0.646484 -0.11674,0.235792 -0.33731,0.447623 -0.70117,0.554687 l 0.16211,0.142579 C 41.98898,49.70064 42,48.398438 42,48.398438 V 40 Z M 40.80859,14.302734 c -0.16096,0 -0.34916,0.05876 -0.55078,0.148438 C 40.53062,14.594635 40.798,14.874493 41,15.4375 v 9.248047 L 42,24 v -8.5625 c 0,0 -0.29322,-1.144515 -1.19141,-1.134766 z" />
  <path
     id="path1144"
     style="opacity:0.3;fill:#0e141f;fill-opacity:1;stroke:none;stroke-width:2.46585"
     d="m 25.850402,26.711865 -0.777343,0.667969 5.740231,4.279297 0.8711,-0.597656 z m -5.638671,5.03711 -0.169922,0.154297 -0.56836,0.527343 4.712891,4.173828 0.556641,-0.43164 0.251953,-0.1875 z" />
</svg>
