<?xml version="1.0" encoding="UTF-8" standalone="no"?>
<!-- Created with Inkscape (http://www.inkscape.org/) -->

<svg
   xmlns:dc="http://purl.org/dc/elements/1.1/"
   xmlns:cc="http://creativecommons.org/ns#"
   xmlns:rdf="http://www.w3.org/1999/02/22-rdf-syntax-ns#"
   xmlns:svg="http://www.w3.org/2000/svg"
   xmlns="http://www.w3.org/2000/svg"
   xmlns:xlink="http://www.w3.org/1999/xlink"
   xmlns:sodipodi="http://sodipodi.sourceforge.net/DTD/sodipodi-0.dtd"
   xmlns:inkscape="http://www.inkscape.org/namespaces/inkscape"
   id="svg4951"
   height="64"
   width="64"
   version="1.1"
   inkscape:version="0.92.3 (2405546, 2018-03-11)"
   sodipodi:docname="gitkraken_64.svg">
  <sodipodi:namedview
     pagecolor="#ffffff"
     bordercolor="#666666"
     borderopacity="1"
     objecttolerance="10"
     gridtolerance="10"
     guidetolerance="10"
     inkscape:pageopacity="0"
     inkscape:pageshadow="2"
     inkscape:window-width="1366"
     inkscape:window-height="705"
     id="namedview24"
     showgrid="false"
     inkscape:zoom="10.57"
     inkscape:cx="7.8086026"
     inkscape:cy="7.7387067"
     inkscape:window-x="0"
     inkscape:window-y="30"
     inkscape:window-maximized="1"
     inkscape:current-layer="svg4951" />
  <defs
     id="defs4953">
    <linearGradient
       inkscape:collect="always"
       id="linearGradient4156">
      <stop
         style="stop-color:#3fb2ab;stop-opacity:1;"
         offset="0"
         id="stop4158" />
      <stop
         style="stop-color:#308983;stop-opacity:1"
         offset="1"
         id="stop4160" />
    </linearGradient>
    <radialGradient
       id="radialGradient4448"
       gradientUnits="userSpaceOnUse"
       cy="-17.681"
       cx="14.892"
       gradientTransform="matrix(-2.0695087,5.4789404e-8,-4.0748621e-8,-1.5391494,62.450705,-23.518702)"
       r="25.571">
      <stop
         id="stop3750-1-0-7-6-6-1-3-9-3"
         stop-color="#5f5f5f"
         offset="0" />
      <stop
         id="stop3752-3-7-4-0-32-8-923-0-7"
         stop-color="#515151"
         offset=".26238" />
      <stop
         id="stop3754-1-8-5-2-7-6-7-1-9"
         stop-color="#404040"
         offset=".70495" />
      <stop
         id="stop3756-1-6-2-6-6-1-96-6-0"
         stop-color="#343434"
         offset="1" />
    </radialGradient>
    <linearGradient
       id="linearGradient4450"
       y2="32.568"
       gradientUnits="userSpaceOnUse"
       x2="15.124"
       gradientTransform="matrix(1.0992404,0,0,1.0992404,-45.078699,21.271724)"
       y1="-18.801"
       x1="15.124">
      <stop
         id="stop4413"
         stop-color="#fff"
         offset="0" />
      <stop
         id="stop4415"
         stop-color="#fff"
         stop-opacity="0"
         offset="1" />
    </linearGradient>
    <radialGradient
       xlink:href="#linearGradient3820-7-2"
       id="radialGradient3300-8"
       gradientUnits="userSpaceOnUse"
       gradientTransform="matrix(0.3823536,7.5555777e-8,-1.8372241e-8,0.1115198,-5.9254271,36.335849)"
       cx="99.189415"
       cy="185.29727"
       fx="99.189415"
       fy="185.29727"
       r="62.769119" />
    <linearGradient
       id="linearGradient3820-7-2">
      <stop
         id="stop3822-2-6"
         style="stop-color:#000000;stop-opacity:1"
         offset="0" />
      <stop
         id="stop3824-1-2"
         style="stop-color:#000000;stop-opacity:0"
         offset="1" />
    </linearGradient>
    <radialGradient
       xlink:href="#linearGradient3820-7-2"
       id="radialGradient4192-6"
       gradientUnits="userSpaceOnUse"
       gradientTransform="matrix(0.2549024,5.3967361e-8,-1.2248161e-8,0.07965545,6.7163816,44.240666)"
       cx="99.189415"
       cy="185.29727"
       fx="99.189415"
       fy="185.29727"
       r="62.769119" />
    <linearGradient
       inkscape:collect="always"
       xlink:href="#linearGradient4156"
       id="linearGradient850"
       x1="-43.230652"
       y1="14.611153"
       x2="-43.183392"
       y2="42.52816"
       gradientUnits="userSpaceOnUse"
       gradientTransform="matrix(1.4384574,0,0,1.4384574,94.135091,-6.227671)" />
    <radialGradient
       r="62.769119"
       fy="185.29727"
       fx="99.189415"
       cy="185.29727"
       cx="99.189415"
       gradientTransform="matrix(0.3823536,7.5555777e-8,-1.8372241e-8,0.1115198,-5.9254271,36.335849)"
       gradientUnits="userSpaceOnUse"
       id="radialGradient3300"
       xlink:href="#linearGradient3820-7-2" />
    <radialGradient
       r="62.769119"
       fy="185.29727"
       fx="99.189415"
       cy="185.29727"
       cx="99.189415"
       gradientTransform="matrix(0.2549024,5.3967361e-8,-1.2248161e-8,0.07965545,6.7163816,44.240666)"
       gradientUnits="userSpaceOnUse"
       id="radialGradient4192"
       xlink:href="#linearGradient3820-7-2" />
    <linearGradient
       y2="40.495617"
       x2="71.204407"
       y1="15.369057"
       x1="71.204407"
       gradientTransform="matrix(2.3268746,0,0,2.3268746,-135.94475,-32.842781)"
       gradientUnits="userSpaceOnUse"
       id="linearGradient3293"
       xlink:href="#linearGradient4806" />
    <linearGradient
       id="linearGradient4806">
      <stop
         offset="0"
         style="stop-color:#ffffff;stop-opacity:1"
         id="stop4808" />
      <stop
         offset="0.42447853"
         style="stop-color:#ffffff;stop-opacity:0.23529412"
         id="stop4810" />
      <stop
         offset="0.82089913"
         style="stop-color:#ffffff;stop-opacity:0.15686275"
         id="stop4812" />
      <stop
         offset="1"
         style="stop-color:#ffffff;stop-opacity:0.39215687"
         id="stop4814" />
    </linearGradient>
  </defs>
  <metadata
     id="metadata4956">
    <rdf:RDF>
      <cc:Work
         rdf:about="">
        <dc:format>image/svg+xml</dc:format>
        <dc:type
           rdf:resource="http://purl.org/dc/dcmitype/StillImage" />
        <dc:title />
      </cc:Work>
    </rdf:RDF>
  </metadata>
  <g
     transform="translate(1.55e-6,-0.00183192)"
     id="g4198">
    <path
       inkscape:connector-curvature="0"
       style="opacity:0.2;fill:url(#radialGradient3300);fill-opacity:1;stroke:none"
       id="path3818-0"
       d="m 55.999998,57.0017 a 24,6.9985714 0 1 1 -47.9999991,0 24,6.9985714 0 1 1 47.9999991,0 z" />
    <path
       inkscape:connector-curvature="0"
       d="m 47.999998,59.0017 a 16,4.9988822 0 1 1 -31.999999,0 16,4.9988822 0 1 1 31.999999,0 z"
       id="path4190"
       style="opacity:0.4;fill:url(#radialGradient4192);fill-opacity:1;stroke:none" />
  </g>
  <circle
     style="fill:url(#radialGradient4448);stroke-width:0.69518918"
     id="path2985-6"
     cy="32"
     cx="32"
     r="29.525776" />
  <circle
     style="opacity:0.6;fill:none;stroke:#242424;stroke-width:0.94845003"
     id="path3755-9"
     cy="32"
     cx="32"
     r="29.525776" />
  <path
     inkscape:connector-curvature="0"
     d="M 60.500011,32.000001 C 60.500011,47.740116 47.740111,60.5 31.999991,60.5 16.259892,60.5 3.5,47.740116 3.5,32.000001 3.5,16.259885 16.259892,3.5000001 31.999991,3.5000001 c 15.74012,0 28.50002,12.7598849 28.50002,28.5000009 z"
     id="path3019"
     style="color:#000000;display:inline;overflow:visible;visibility:visible;opacity:0.5;fill:none;stroke:url(#linearGradient3293);stroke-width:1;stroke-linecap:round;stroke-linejoin:round;stroke-miterlimit:4;stroke-dasharray:none;stroke-dashoffset:0;stroke-opacity:1;marker:none;enable-background:accumulate" />
  <g
     id="g942"
     transform="translate(39.419874,-38.498204)">
    <path
       inkscape:connector-curvature="0"
       d="m -7.7890144,53.376953 c -1.2938804,0.09421 -2.4040706,0.913471 -3.5957036,1.984375 -1.191633,1.070904 -2.409634,2.463079 -3.523438,3.94336 -1.113803,1.48028 -2.118835,3.045149 -2.861328,4.464843 -0.742492,1.419694 -1.263672,2.620913 -1.263672,3.765625 v 1.183594 c 0,0.744588 0.411328,1.442962 0.837891,1.785156 0.426564,0.342194 0.773636,0.489961 1.080078,0.728516 0.575031,0.447642 1.219121,1.326151 1.556641,3.910156 -0.756223,0.703494 -1.300781,1.625212 -1.300781,2.71875 0,1.398742 0.863366,2.474867 1.982421,3.136719 V 86.1875 c -5.393634,-2.745145 -9.171874,-8.210773 -9.171874,-14.695312 0,-6.271844 3.469174,-11.724354 8.58789,-14.566407 0.884194,-0.491216 1.228417,-1.622517 0.78711,-2.521484 -0.475419,-0.967205 -1.70489,-1.356728 -2.652344,-0.833985 -4.135337,2.288217 -7.24391,6.051098 -8.996094,10.490235 0.152993,-0.861482 -0.214525,-1.759987 -1.037109,-2.109375 -0.996093,-0.427687 -2.174186,0.08243 -2.550782,1.097656 -0.983005,2.625372 -1.52539,5.470355 -1.52539,8.44336 0,12.921681 10.230286,23.481358 23.0390627,23.998046 l 1.0410157,0.04297 v -0.01563 l 0.9101562,-0.03516 C 6.3638977,94.974059 16.595751,84.413869 16.595751,71.492188 c 0,-2.974323 -0.543983,-5.819715 -1.527344,-8.453126 v -0.002 -0.002 c -0.379919,-1.007505 -1.546175,-1.523083 -2.550781,-1.091703 -0.829641,0.352346 -1.194612,1.247888 -1.03711,2.111329 -1.7513443,-4.43816 -4.8566646,-8.199576 -8.9902335,-10.488282 -0.951672,-0.534261 -2.17682833,-0.145323 -2.65625,0.830078 -0.44773804,0.91205 -0.10197822,2.035702 0.79296875,2.525391 l -0.005859,-0.002 c 5.11770835,2.83401 8.58789025,8.284224 8.58789025,14.5645 0,6.475817 -3.7788264,11.941546 -9.171875,14.693359 v -5.1875 c 1.1202078,-0.660912 1.9902344,-1.73483 1.9902344,-3.136718 0,-1.097497 -0.5480956,-2.017002 -1.30078128,-2.71875 C 1.067401,72.555866 1.7121567,71.675447 2.2871575,71.226562 2.5936881,70.987264 2.9396688,70.839226 3.3652825,70.496094 3.7908962,70.152962 4.20122,69.454867 4.20122,68.710938 v -1.175782 c 0,-1.144712 -0.5213503,-2.347308 -1.2636719,-3.767578 C 2.1952266,62.347308 1.1894954,60.783509 0.07622,59.302734 -1.0370554,57.82196 -2.2527294,56.428056 -3.4433113,55.357422 c -1.1905818,-1.070634 -2.3012448,-1.889135 -3.5957031,-1.980469 -0.2482255,-0.01937 -0.4978832,-0.01923 -0.75,0 z m 0.1464844,1.994141 h 0.00195 0.00195 c 0.1588237,-0.01224 0.3023361,-0.01177 0.4492187,0 h 0.00586 0.00391 c 0.3477813,0.02454 1.3481722,0.530155 2.3984375,1.474609 1.0502653,0.944454 2.2063647,2.257068 3.2597656,3.658203 1.05340105,1.401135 2.01009425,2.893385 2.6875,4.189453 0.6774058,1.296068 1.0351563,2.468137 1.0351563,2.841797 v 1.175782 c 0,0.266984 0.045736,0.117635 -0.091797,0.228515 -0.1375329,0.11088 -0.5550815,0.320912 -1.0546875,0.710938 -0.98195279,0.766578 -2.0050356,2.314354 -2.3710937,5.53125 -0.1895335,-0.03975 -0.3174999,-0.214844 -0.5175782,-0.214844 -1.5863229,0 -2.8945312,1.308218 -2.8945312,2.894531 0,1.544979 1.2549361,2.763462 2.765625,2.841797 v 0.04492 l -1.1660156,0.404297 c -0.5592704,0.193884 -1.118525,0.347147 -1.6972656,0.457031 l -0.8125,0.154297 v 0.01563 l -0.90625,0.05469 c -0.6247545,0.03722 -1.2457008,0.02975 -1.7519532,0 l -0.9042968,-0.05273 h -0.00391 l -0.7968753,-0.162109 c -0.585155,-0.11851 -1.144861,-0.274133 -1.72461,-0.464844 l -1.150391,-0.378906 v -0.08398 c 1.525778,-0.07952 2.763672,-1.310365 2.763672,-2.83789 0,-1.586318 -1.306261,-2.894532 -2.892578,-2.894532 -0.200355,0 -0.324658,0.1754 -0.513672,0.214844 -0.364143,-3.207127 -1.385145,-4.755046 -2.367187,-5.519531 -0.500693,-0.389772 -0.918809,-0.598415 -1.056641,-0.708985 -0.13783,-0.110569 -0.08984,0.03976 -0.08984,-0.226562 v -1.183594 c 0,-0.37366 0.357673,-1.544449 1.035157,-2.839844 0.677484,-1.295394 1.633628,-2.78687 2.6875,-4.1875 1.053871,-1.400629 2.210257,-2.715222 3.261719,-3.660156 1.0514614,-0.944933 2.0538977,-1.450906 2.4062503,-1.476562 z m 18.503906,18.365234 c -0.06321,0.517154 -0.131371,1.028312 -0.236328,1.53125 0.105562,-0.502527 0.172183,-1.014841 0.236328,-1.53125 z m -36.5625,0.0098 c 0.06386,0.514447 0.129471,1.024757 0.234375,1.52539 -0.104415,-0.500843 -0.171373,-1.010411 -0.234375,-1.52539 z m 12.695312,3.21289 c 0.507444,0 0.892578,0.387089 0.892578,0.894532 0,0.50042 -0.378115,0.892578 -0.892578,0.892578 -0.514462,0 -0.894531,-0.392158 -0.894531,-0.892578 0,-0.50042 0.380068,-0.894532 0.894531,-0.894532 z m 11.1718757,0.0078 c 0.5004202,0 0.8945313,0.380067 0.8945313,0.894531 0,0.507437 -0.3871013,0.894531 -0.8945313,0.894531 -0.5004337,0 -0.8945312,-0.380064 -0.8945312,-0.894531 0,-0.507431 0.3870942,-0.894531 0.8945312,-0.894531 z m 10.9667969,2.613281 c -0.1786195,0.364669 -0.3356636,0.739217 -0.5371093,1.089844 0.2016481,-0.350771 0.3581164,-0.72524 0.5371093,-1.089844 z m -33.0703126,0.08594 c 0.164009,0.330507 0.305591,0.671196 0.488281,0.990234 -0.182716,-0.318874 -0.324407,-0.65974 -0.488281,-0.990234 z m 26.6171876,7.267555 c -0.2696888,0.176593 -0.5566957,0.319818 -0.8359375,0.482422 0.2785834,-0.162757 0.5668203,-0.305875 0.8359375,-0.482422 z m -20.1757806,0.02539 c 0.221565,0.144663 0.459512,0.261151 0.6875,0.396485 -0.228316,-0.135353 -0.465653,-0.25173 -0.6875,-0.396485 z M 14.133012,63.411123 c -0.183807,-0.487483 -0.743204,-0.735215 -1.222689,-0.527434 -0.455512,0.191794 -0.679279,0.71123 -0.50346,1.166742 0.871062,2.317518 1.350549,4.834819 1.350549,7.456004 0,10.756468 -8.0154001,19.634944 -18.3962691,20.993492 V 82.61453 c 0.631321,-0.119867 1.238666,-0.287691 1.838022,-0.495472 v 8.31109 c 8.52686,-2.069786 14.8560711,-9.757535 14.8560711,-18.923713 0,-7.336133 -4.0596421,-13.729269 -10.0532141,-17.045719 -0.455512,-0.255721 -1.038893,-0.07192 -1.270638,0.399574 -0.215769,0.439525 -0.04794,0.974958 0.375591,1.206702 5.426188,3.004785 9.1022421,8.790577 9.1022421,15.439443 0,7.456006 -4.6270371,13.833166 -11.1720181,16.414402 v -7.368095 c 1.13478,-0.359615 1.989866,-1.414485 1.989866,-2.677134 0,-1.04688 -0.543421,-1.949905 -1.382522,-2.437388 0.663293,-6.353187 3.556193,-4.682976 3.556193,-6.704804 v -1.174741 c 0,-3.036746 -7.024466,-12.93014 -10.308945,-13.161884 -0.199792,-0.01601 -0.399575,-0.01601 -0.607354,0 -3.2924669,0.239742 -10.3169329,10.125138 -10.3169329,13.161884 v 1.182729 c 0,2.021829 2.900888,0.343629 3.556191,6.704814 -0.847097,0.487473 -1.38252,1.390508 -1.38252,2.43738 0,1.262649 0.84709,2.317517 1.981878,2.677131 v 7.368096 c -6.544981,-2.573238 -11.172019,-8.950399 -11.172019,-16.414392 0,-6.640877 3.676056,-12.42668 9.102232,-15.439443 0.431538,-0.239742 0.59137,-0.767177 0.3756,-1.206712 -0.231754,-0.471487 -0.807136,-0.655293 -1.270636,-0.399564 -5.993572,3.316439 -10.053215,9.709586 -10.053215,17.045719 0,9.166167 6.329212,16.845929 14.85606,18.923704 v -8.31109 c 0.607355,0.199792 1.206713,0.367612 1.838032,0.495471 v 9.885396 C -20.57377,91.149377 -28.597159,82.270893 -28.597159,71.514433 c 0,-2.621194 0.479486,-5.138495 1.350548,-7.456004 0.175808,-0.46351 -0.04794,-0.974958 -0.50346,-1.166752 -0.479485,-0.207781 -1.038883,0.03193 -1.222689,0.527433 -0.942986,2.517302 -1.462433,5.242383 -1.462433,8.095323 0,12.394709 9.797497,22.503862 22.0803219,22.999334 V 82.854273 c 0.54341,0.03193 1.198714,0.03999 1.869995,0 V 94.505769 C 5.7979469,94.018295 15.595445,83.909142 15.595445,71.514433 c 0,-2.85294 -0.519447,-5.578021 -1.462433,-8.10331 z M -1.8338651,75.989628 c 1.038883,0 1.89397,0.8391 1.89397,1.89397 0,1.04688 -0.847099,1.893968 -1.89397,1.893968 -1.038892,0 -1.893969,-0.8391 -1.893969,-1.893968 0,-1.046872 0.847089,-1.89397 1.893969,-1.89397 z m -11.1720199,3.77995 c -1.054869,0 -1.893968,-0.855087 -1.893968,-1.89397 0,-1.038882 0.839099,-1.893968 1.893968,-1.893968 1.04688,0 1.893969,0.847088 1.893969,1.893968 0,1.038883 -0.8391,1.89397 -1.893969,1.89397 z"
       style="color:#000000;font-style:normal;font-variant:normal;font-weight:normal;font-stretch:normal;font-size:medium;line-height:normal;font-family:sans-serif;font-variant-ligatures:normal;font-variant-position:normal;font-variant-caps:normal;font-variant-numeric:normal;font-variant-alternates:normal;font-feature-settings:normal;text-indent:0;text-align:start;text-decoration:none;text-decoration-line:none;text-decoration-style:solid;text-decoration-color:#000000;letter-spacing:normal;word-spacing:normal;text-transform:none;writing-mode:lr-tb;direction:ltr;text-orientation:mixed;dominant-baseline:auto;baseline-shift:baseline;text-anchor:start;white-space:normal;shape-padding:0;clip-rule:nonzero;display:inline;overflow:visible;visibility:visible;opacity:0.15;isolation:auto;mix-blend-mode:normal;color-interpolation:sRGB;color-interpolation-filters:linearRGB;solid-color:#000000;solid-opacity:1;vector-effect:none;fill:#000000;fill-opacity:1;fill-rule:nonzero;stroke:none;stroke-width:2;stroke-linecap:butt;stroke-linejoin:miter;stroke-miterlimit:4;stroke-dasharray:none;stroke-dashoffset:0;stroke-opacity:1;color-rendering:auto;image-rendering:auto;shape-rendering:auto;text-rendering:auto;enable-background:accumulate"
       id="path2-5-2" />
    <path
       style="opacity:0.3;fill:#000000;fill-opacity:1;stroke-width:0.99999994"
       inkscape:connector-curvature="0"
       id="path2-5"
       d="m 14.133013,63.411123 c -0.183807,-0.487483 -0.743205,-0.735215 -1.22269,-0.527434 -0.455512,0.191794 -0.679279,0.71123 -0.50346,1.166742 0.871062,2.317518 1.350549,4.834819 1.350549,7.456004 0,10.756468 -8.0154005,19.634943 -18.3962695,20.993491 V 82.61453 c 0.631321,-0.119867 1.238666,-0.287691 1.838022,-0.495472 v 8.311089 c 8.52686,-2.069786 14.8560715,-9.757534 14.8560715,-18.923712 0,-7.336133 -4.0596425,-13.729269 -10.0532145,-17.045719 -0.455512,-0.255721 -1.038893,-0.07192 -1.270638,0.399574 -0.215769,0.439525 -0.04794,0.974958 0.375591,1.206702 5.426188,3.004785 9.1022425,8.790577 9.1022425,15.439443 0,7.456006 -4.6270375,13.833165 -11.1720185,16.414401 v -7.368094 c 1.13478,-0.359615 1.989866,-1.414485 1.989866,-2.677134 0,-1.04688 -0.543421,-1.949905 -1.382522,-2.437388 0.663293,-6.353187 3.556193,-4.682976 3.556193,-6.704804 v -1.174741 c 0,-3.036746 -7.024466,-12.93014 -10.308945,-13.161884 -0.199792,-0.01601 -0.399575,-0.01601 -0.607354,0 -3.2924665,0.239742 -10.3169335,10.125138 -10.3169335,13.161884 v 1.182729 c 0,2.021829 2.900889,0.343629 3.556192,6.704814 -0.847097,0.487473 -1.38252,1.390508 -1.38252,2.43738 0,1.262649 0.84709,2.317517 1.981878,2.677131 v 7.368095 c -6.544982,-2.573238 -11.172019,-8.950398 -11.172019,-16.414391 0,-6.640877 3.676056,-12.42668 9.102232,-15.439443 0.431538,-0.239742 0.59137,-0.767177 0.3756,-1.206712 -0.231754,-0.471487 -0.807137,-0.655293 -1.270637,-0.399564 -5.993572,3.316439 -10.053215,9.709586 -10.053215,17.045719 0,9.166167 6.329213,16.845928 14.856061,18.923703 v -8.311089 c 0.607355,0.199792 1.206713,0.367612 1.838032,0.495471 v 9.885395 c -10.372878,-1.358537 -18.396267,-10.23702 -18.396267,-20.99348 0,-2.621194 0.479486,-5.138495 1.350548,-7.456004 0.175808,-0.46351 -0.04794,-0.974958 -0.50346,-1.166752 -0.479485,-0.207781 -1.038882,0.03193 -1.222688,0.527433 -0.942986,2.517302 -1.462433,5.242383 -1.462433,8.095323 0,12.394708 9.797497,22.503861 22.0803215,22.999333 V 82.854273 c 0.54341,0.03193 1.198714,0.03999 1.869995,0 V 94.505768 C 5.7979465,94.018294 15.595445,83.909141 15.595445,71.514433 c 0,-2.85294 -0.519447,-5.578021 -1.462432,-8.10331 z M -1.8338655,75.989628 c 1.038883,0 1.89397,0.8391 1.89397,1.89397 0,1.04688 -0.847099,1.893968 -1.89397,1.893968 -1.038892,0 -1.893969,-0.8391 -1.893969,-1.893968 0,-1.046872 0.847089,-1.89397 1.893969,-1.89397 z m -11.1720195,3.77995 c -1.054869,0 -1.893968,-0.855087 -1.893968,-1.89397 0,-1.038882 0.839099,-1.893968 1.893968,-1.893968 1.04688,0 1.893969,0.847088 1.893969,1.893968 0,1.038883 -0.8391,1.89397 -1.893969,1.89397 z" />
  </g>
  <path
     d="m 53.552887,23.912676 c -0.183807,-0.487483 -0.743204,-0.735215 -1.222689,-0.527434 -0.455512,0.191794 -0.679279,0.71123 -0.50346,1.166742 0.871062,2.317517 1.350549,4.834818 1.350549,7.456003 0,10.756468 -8.015401,19.634944 -18.39627,20.993491 v -9.885396 c 0.631321,-0.119867 1.238666,-0.287691 1.838022,-0.495472 v 8.31109 c 8.526859,-2.069786 14.856072,-9.757535 14.856072,-18.923713 0,-7.336132 -4.059643,-13.729268 -10.053215,-17.045718 -0.455512,-0.255721 -1.038893,-0.07192 -1.270638,0.399574 -0.215769,0.439525 -0.04794,0.974958 0.375591,1.206702 5.426188,3.004785 9.102242,8.790576 9.102242,15.439442 0,7.456006 -4.627038,13.833166 -11.172019,16.414402 v -7.368095 c 1.13478,-0.359615 1.989867,-1.414485 1.989867,-2.677134 0,-1.04688 -0.543421,-1.949905 -1.382522,-2.437388 0.663293,-6.353187 3.556193,-4.682976 3.556193,-6.704804 v -1.174741 c 0,-3.036746 -7.024466,-12.930139 -10.308945,-13.161883 -0.199792,-0.01601 -0.399575,-0.01601 -0.607354,0 -3.292466,0.239742 -10.316933,10.125137 -10.316933,13.161883 v 1.182729 c 0,2.021829 2.900888,0.343629 3.556192,6.704814 -0.847098,0.487473 -1.38252,1.390508 -1.38252,2.43738 0,1.262649 0.847089,2.317517 1.981878,2.677131 v 7.368096 c -6.544982,-2.573238 -11.17202,-8.950399 -11.17202,-16.414392 0,-6.640877 3.676056,-12.426679 9.102233,-15.439442 0.431538,-0.239742 0.591369,-0.767177 0.3756,-1.206712 -0.231754,-0.471487 -0.807137,-0.655293 -1.270637,-0.399564 -5.993573,3.316439 -10.053216,9.709586 -10.053216,17.045718 0,9.166167 6.329213,16.845929 14.856062,18.923704 v -8.31109 c 0.607355,0.199792 1.206713,0.367612 1.838032,0.495471 v 9.885395 C 18.846103,51.650929 10.822714,42.772445 10.822714,32.015985 c 0,-2.621194 0.479486,-5.138495 1.350548,-7.456003 0.175808,-0.46351 -0.04794,-0.974958 -0.50346,-1.166752 -0.479485,-0.207781 -1.038882,0.03193 -1.222688,0.527433 -0.9429853,2.517301 -1.4624325,5.242382 -1.4624325,8.095322 0,12.394709 9.7974965,22.503861 22.0803215,22.999333 V 43.355825 c 0.54341,0.03193 1.198714,0.03999 1.869995,0 V 55.00732 c 12.282823,-0.487474 22.080321,-10.596626 22.080321,-22.991335 0,-2.85294 -0.519447,-5.578021 -1.462432,-8.103309 z M 37.586009,36.49118 c 1.038883,0 1.89397,0.8391 1.89397,1.89397 0,1.04688 -0.847099,1.893968 -1.89397,1.893968 -1.038892,0 -1.893969,-0.8391 -1.893969,-1.893968 0,-1.046872 0.847089,-1.89397 1.893969,-1.89397 z M 26.41399,40.27113 c -1.054869,0 -1.893968,-0.855087 -1.893968,-1.89397 0,-1.038882 0.839099,-1.893968 1.893968,-1.893968 1.04688,0 1.893969,0.847088 1.893969,1.893968 0,1.038883 -0.8391,1.89397 -1.893969,1.89397 z"
     id="path2"
     inkscape:connector-curvature="0"
     style="fill:url(#linearGradient850);fill-opacity:1;stroke-width:0.99999994" />
</svg>
