<?xml version="1.0" encoding="UTF-8" standalone="no"?>
<svg
   xmlns:dc="http://purl.org/dc/elements/1.1/"
   xmlns:cc="http://creativecommons.org/ns#"
   xmlns:rdf="http://www.w3.org/1999/02/22-rdf-syntax-ns#"
   xmlns:svg="http://www.w3.org/2000/svg"
   xmlns="http://www.w3.org/2000/svg"
   xmlns:xlink="http://www.w3.org/1999/xlink"
   xmlns:sodipodi="http://sodipodi.sourceforge.net/DTD/sodipodi-0.dtd"
   xmlns:inkscape="http://www.inkscape.org/namespaces/inkscape"
   id="svg4951"
   height="64"
   width="64"
   version="1.1"
   inkscape:version="1.0.1 (1.0.1+r75)"
   sodipodi:docname="gitkraken_64.svg">
  <sodipodi:namedview
     pagecolor="#ffffff"
     bordercolor="#666666"
     borderopacity="1"
     objecttolerance="10"
     gridtolerance="10"
     guidetolerance="10"
     inkscape:pageopacity="0"
     inkscape:pageshadow="2"
     inkscape:window-width="1366"
     inkscape:window-height="705"
     id="namedview24"
     showgrid="true"
     inkscape:zoom="10.960155"
     inkscape:cx="31.504104"
     inkscape:cy="45.952011"
     inkscape:window-x="0"
     inkscape:window-y="30"
     inkscape:window-maximized="1"
     inkscape:current-layer="svg4951"
     inkscape:document-rotation="0"
     inkscape:snap-bbox="true"
     showguides="true"
     inkscape:guide-bbox="true"
     inkscape:object-paths="true"
     inkscape:object-nodes="true"
     inkscape:snap-intersection-paths="true"
     inkscape:snap-smooth-nodes="true"
     inkscape:snap-midpoints="true"
     inkscape:bbox-nodes="true">
    <inkscape:grid
       type="xygrid"
       id="grid895" />
    <sodipodi:guide
       position="32,32"
       orientation="1,0"
       id="guide911" />
    <sodipodi:guide
       position="32,32"
       orientation="0,-1"
       id="guide913" />
  </sodipodi:namedview>
  <defs
     id="defs4953">
    <radialGradient
       id="radialGradient4448"
       gradientUnits="userSpaceOnUse"
       cy="-17.681"
       cx="14.892"
       gradientTransform="matrix(-2.0695087,5.4789404e-8,-4.0748621e-8,-1.5391494,62.450705,-23.518702)"
       r="25.571">
      <stop
         id="stop3750-1-0-7-6-6-1-3-9-3"
         stop-color="#5f5f5f"
         offset="0" />
      <stop
         id="stop3752-3-7-4-0-32-8-923-0-7"
         stop-color="#515151"
         offset=".26238" />
      <stop
         id="stop3754-1-8-5-2-7-6-7-1-9"
         stop-color="#404040"
         offset=".70495" />
      <stop
         id="stop3756-1-6-2-6-6-1-96-6-0"
         stop-color="#343434"
         offset="1" />
    </radialGradient>
    <linearGradient
       id="linearGradient4450"
       y2="32.568"
       gradientUnits="userSpaceOnUse"
       x2="15.124"
       gradientTransform="matrix(1.0992404,0,0,1.0992404,-45.078699,21.271724)"
       y1="-18.801"
       x1="15.124">
      <stop
         id="stop4413"
         stop-color="#fff"
         offset="0" />
      <stop
         id="stop4415"
         stop-color="#fff"
         stop-opacity="0"
         offset="1" />
    </linearGradient>
    <radialGradient
       xlink:href="#linearGradient3820-7-2"
       id="radialGradient3300-8"
       gradientUnits="userSpaceOnUse"
       gradientTransform="matrix(0.3823536,7.5555777e-8,-1.8372241e-8,0.1115198,-5.9254271,36.335849)"
       cx="99.189415"
       cy="185.29727"
       fx="99.189415"
       fy="185.29727"
       r="62.769119" />
    <linearGradient
       id="linearGradient3820-7-2">
      <stop
         id="stop3822-2-6"
         style="stop-color:#000000;stop-opacity:1"
         offset="0" />
      <stop
         id="stop3824-1-2"
         style="stop-color:#000000;stop-opacity:0"
         offset="1" />
    </linearGradient>
    <radialGradient
       xlink:href="#linearGradient3820-7-2"
       id="radialGradient4192-6"
       gradientUnits="userSpaceOnUse"
       gradientTransform="matrix(0.2549024,5.3967361e-8,-1.2248161e-8,0.07965545,6.7163816,44.240666)"
       cx="99.189415"
       cy="185.29727"
       fx="99.189415"
       fy="185.29727"
       r="62.769119" />
    <radialGradient
       r="62.769119"
       fy="185.29727"
       fx="99.189415"
       cy="185.29727"
       cx="99.189415"
       gradientTransform="matrix(0.3823536,7.5555777e-8,-1.8372241e-8,0.1115198,-5.9254271,36.335849)"
       gradientUnits="userSpaceOnUse"
       id="radialGradient3300"
       xlink:href="#linearGradient3820-7-2" />
    <radialGradient
       r="62.769119"
       fy="185.29727"
       fx="99.189415"
       cy="185.29727"
       cx="99.189415"
       gradientTransform="matrix(0.2549024,5.3967361e-8,-1.2248161e-8,0.07965545,6.7163816,44.240666)"
       gradientUnits="userSpaceOnUse"
       id="radialGradient4192"
       xlink:href="#linearGradient3820-7-2" />
    <linearGradient
       y2="40.495617"
       x2="71.204407"
       y1="15.369057"
       x1="71.204407"
       gradientTransform="matrix(2.3268746,0,0,2.3268746,-135.94475,-32.842781)"
       gradientUnits="userSpaceOnUse"
       id="linearGradient3293"
       xlink:href="#linearGradient4806" />
    <linearGradient
       id="linearGradient4806">
      <stop
         offset="0"
         style="stop-color:#ffffff;stop-opacity:1"
         id="stop4808" />
      <stop
         offset="0.42447853"
         style="stop-color:#ffffff;stop-opacity:0.23529412"
         id="stop4810" />
      <stop
         offset="0.82089913"
         style="stop-color:#ffffff;stop-opacity:0.15686275"
         id="stop4812" />
      <stop
         offset="1"
         style="stop-color:#ffffff;stop-opacity:0.39215687"
         id="stop4814" />
    </linearGradient>
    <linearGradient
       inkscape:collect="always"
       xlink:href="#radialGradient4448-1"
       id="linearGradient856"
       x1="3.4740009"
       y1="24"
       x2="44.525997"
       y2="24"
       gradientUnits="userSpaceOnUse"
       gradientTransform="matrix(1.4372016,0,0,1.4372016,-2.4928372,-66.492838)" />
    <radialGradient
       id="radialGradient4448-1"
       gradientUnits="userSpaceOnUse"
       cy="-17.681"
       cx="14.892"
       gradientTransform="matrix(-1.4387,3.8089e-8,-2.8328e-8,-1.07,45.169,-14.596)"
       r="25.570999">
      <stop
         id="stop3750-1-0-7-6-6-1-3-9-3-2"
         stop-color="#5f5f5f"
         offset="0"
         style="stop-color:#4d4d4d;stop-opacity:1" />
      <stop
         id="stop3756-1-6-2-6-6-1-96-6-0-7"
         stop-color="#343434"
         offset="1"
         style="stop-color:#333333;stop-opacity:1" />
    </radialGradient>
    <linearGradient
       inkscape:collect="always"
       id="linearGradient866">
      <stop
         style="stop-color:#43d6b5;stop-opacity:1;"
         offset="0"
         id="stop862" />
      <stop
         style="stop-color:#28bca3;stop-opacity:1"
         offset="1"
         id="stop864" />
    </linearGradient>
    <linearGradient
       inkscape:collect="always"
       xlink:href="#linearGradient866"
       id="linearGradient886"
       x1="32.074219"
       y1="7"
       x2="32"
       y2="58"
       gradientUnits="userSpaceOnUse" />
  </defs>
  <metadata
     id="metadata4956">
    <rdf:RDF>
      <cc:Work
         rdf:about="">
        <dc:format>image/svg+xml</dc:format>
        <dc:type
           rdf:resource="http://purl.org/dc/dcmitype/StillImage" />
        <dc:title />
      </cc:Work>
    </rdf:RDF>
  </metadata>
  <g
     transform="translate(1.55e-6,-0.00183192)"
     id="g4198">
    <path
       inkscape:connector-curvature="0"
       style="opacity:0.2;fill:url(#radialGradient3300);fill-opacity:1;stroke:none"
       id="path3818-0"
       d="m 55.999998,57.0017 a 24,6.9985714 0 1 1 -47.9999991,0 24,6.9985714 0 1 1 47.9999991,0 z" />
    <path
       inkscape:connector-curvature="0"
       d="m 47.999998,59.0017 a 16,4.9988822 0 1 1 -31.999999,0 16,4.9988822 0 1 1 31.999999,0 z"
       id="path4190"
       style="opacity:0.4;fill:url(#radialGradient4192);fill-opacity:1;stroke:none" />
  </g>
  <circle
     id="path2985-6-0"
     cy="-32"
     cx="32"
     r="29.5"
     fill="url(#radialGradient4448)"
     style="fill:url(#linearGradient856);fill-opacity:1;stroke-width:0.999995"
     transform="rotate(90)" />
  <circle
     style="opacity:0.6;fill:none;stroke:#000000;stroke-width:0.94845003;stroke-opacity:1"
     id="path3755-9"
     cy="32"
     cx="32"
     r="29.525776" />
  <path
     inkscape:connector-curvature="0"
     d="M 60.500011,32.000001 C 60.500011,47.740116 47.740111,60.5 31.999991,60.5 16.259892,60.5 3.5,47.740116 3.5,32.000001 3.5,16.259885 16.259892,3.5000001 31.999991,3.5000001 c 15.74012,0 28.50002,12.7598849 28.50002,28.5000009 z"
     id="path3019"
     style="color:#000000;display:inline;overflow:visible;visibility:visible;opacity:0.5;fill:none;stroke:url(#linearGradient3293);stroke-width:1;stroke-linecap:round;stroke-linejoin:round;stroke-miterlimit:4;stroke-dasharray:none;stroke-dashoffset:0;stroke-opacity:1;marker:none;enable-background:accumulate" />
  <path
     id="path1157-5-6"
     style="color:#000000;font-style:normal;font-variant:normal;font-weight:normal;font-stretch:normal;font-size:medium;line-height:normal;font-family:sans-serif;font-variant-ligatures:normal;font-variant-position:normal;font-variant-caps:normal;font-variant-numeric:normal;font-variant-alternates:normal;font-variant-east-asian:normal;font-feature-settings:normal;font-variation-settings:normal;text-indent:0;text-align:start;text-decoration:none;text-decoration-line:none;text-decoration-style:solid;text-decoration-color:#000000;letter-spacing:normal;word-spacing:normal;text-transform:none;writing-mode:lr-tb;direction:ltr;text-orientation:mixed;dominant-baseline:auto;baseline-shift:baseline;text-anchor:start;white-space:normal;shape-padding:0;shape-margin:0;inline-size:0;clip-rule:nonzero;display:inline;overflow:visible;visibility:visible;opacity:0.2;isolation:auto;mix-blend-mode:normal;color-interpolation:sRGB;color-interpolation-filters:linearRGB;solid-color:#000000;solid-opacity:1;vector-effect:none;fill:#000000;fill-opacity:1;fill-rule:evenodd;stroke:none;stroke-width:2.99999;stroke-linecap:square;stroke-linejoin:miter;stroke-miterlimit:4;stroke-dasharray:none;stroke-dashoffset:0;stroke-opacity:1;color-rendering:auto;image-rendering:auto;shape-rendering:auto;text-rendering:auto;enable-background:accumulate;stop-color:#000000;stop-opacity:1"
     d="m 32.07422,7.000007 c -1.90269,0 -3.67411,1.047093 -5.287111,2.548828 -1.612997,1.501736 -3.098489,3.508157 -4.388671,5.69336 -0.877515,1.486257 -1.494667,3.044267 -2.154297,4.58789 L 17.865234,17.451179 17.158203,18.15821 C 13.357352,21.959062 11,27.214764 11,33.000007 11,41.98469 16.68761,49.657582 24.648438,52.646491 L 26,53.154304 v 0.9375 C 16.773304,51.478635 10,43.087563 10,33.000007 c 0,-1.948633 0.339828,-3.821548 0.833984,-5.671875 L 11.091797,26.363288 6.277344,25.072273 6.019531,26.037116 C 5.427273,28.24182 5,30.551597 5,33.000007 5,47.184645 16.001608,58.850027 29.92383,59.914067 L 31,59.996097 V 55.90821 46.851569 c 0.66478,0.04136 1.33097,0.04248 2,0.0039 V 55.908203 58 59.99609 l 1.07617,-0.08203 C 47.99839,58.85002 59,47.184638 59,33 59,30.552121 58.57236,28.243045 57.98047,26.039062 l -0.25781,-0.964843 -4.8125,1.289062 0.25781,0.964844 C 53.66186,29.177681 54,31.050983 54,33 54,43.087557 47.2267,51.478628 38,54.091797 v -0.9375 l 1.35156,-0.507813 C 47.31239,49.657575 53,41.984683 53,33 53,27.214758 50.64265,21.959056 46.8418,18.158203 l -0.70703,-0.707031 -2.375,2.375 C 43.10372,18.285187 42.49054,16.727706 41.62109,15.244141 40.34089,13.059693 38.87182,11.056291 37.28125,9.554688 35.69068,8.053083 33.94942,7 32.07422,7 Z M 18.5625,24.349616 C 18.233369,25.66998 18,26.930158 18,28.000007 v 0.414062 l 0.292969,0.292969 c 0.5,0.5 1.126708,1.137634 1.542969,2.074219 0.412749,0.928687 0.634518,2.152662 0.197265,3.9375 -0.54962,0.912882 -1.032617,2.11815 -1.033203,3.28125 4.66e-4,1.540326 0.811328,2.888683 2,3.828125 v 2.642578 c -3.038568,-2.904242 -5,-6.914623 -5,-11.470703 0,-3.201223 0.955983,-6.156876 2.5625,-8.650391 z m 26.87695,0.0039 C 47.04453,26.846277 48,29.800342 48,33 c 0,4.55608 -1.96143,8.566461 -5,11.470703 V 41.830078 C 44.18934,40.890117 45.00029,39.541211 45,38 c 1.1e-4,-1.150591 -0.46086,-2.35506 -1.0332,-3.283203 -0.43651,-1.783609 -0.21531,-3.007251 0.19726,-3.935547 0.41626,-0.936585 1.04297,-1.574219 1.54297,-2.074219 L 46,28.414062 V 28 c 0,-1.068953 -0.2326,-2.327599 -0.56055,-3.646484 z M 38.93945,35 a 3,3 0 0 1 0.0078,0 v 1 z m -13.972653,1 c 0.0082,-3.1e-5 0.01724,-6.9e-5 0.02539,0 h 0.0039 0.0039 c 1.116414,0 2,0.883586 2,2 0,1.116414 -0.883586,2 -2,2 -1.116414,0 -2,-0.883586 -2,-2 -1.58e-4,-1.102719 0.864235,-1.981334 1.966797,-2 z m 13.998043,0 c 0.0088,-4.1e-5 0.01857,-7.4e-5 0.02735,0 h 0.0039 0.0039 c 1.11641,0 2,0.883586 2,2 0,1.116414 -0.88359,2 -2,2 -1.11641,0 -2,-0.883586 -2,-2 -1.7e-4,-1.102197 0.86282,-1.980623 1.96484,-2 z" />
  <path
     id="path1157-5"
     style="color:#000000;font-style:normal;font-variant:normal;font-weight:normal;font-stretch:normal;font-size:medium;line-height:normal;font-family:sans-serif;font-variant-ligatures:normal;font-variant-position:normal;font-variant-caps:normal;font-variant-numeric:normal;font-variant-alternates:normal;font-variant-east-asian:normal;font-feature-settings:normal;font-variation-settings:normal;text-indent:0;text-align:start;text-decoration:none;text-decoration-line:none;text-decoration-style:solid;text-decoration-color:#000000;letter-spacing:normal;word-spacing:normal;text-transform:none;writing-mode:lr-tb;direction:ltr;text-orientation:mixed;dominant-baseline:auto;baseline-shift:baseline;text-anchor:start;white-space:normal;shape-padding:0;shape-margin:0;inline-size:0;clip-rule:nonzero;display:inline;overflow:visible;visibility:visible;opacity:0.4;isolation:auto;mix-blend-mode:normal;color-interpolation:sRGB;color-interpolation-filters:linearRGB;solid-color:#000000;solid-opacity:1;vector-effect:none;fill:#000000;fill-opacity:1;fill-rule:evenodd;stroke:none;stroke-width:2.99999;stroke-linecap:square;stroke-linejoin:miter;stroke-miterlimit:4;stroke-dasharray:none;stroke-dashoffset:0;stroke-opacity:1;color-rendering:auto;image-rendering:auto;shape-rendering:auto;text-rendering:auto;enable-background:accumulate;stop-color:#000000;stop-opacity:1"
     d="M 32.07422,8.039944 C 26,8.039944 19,22.039944 19,28.03994 c 1,1 3,3 2,7 -0.430252,0.65281 -0.999606,2.21817 -1,3 4.32e-4,1.42863 0.76277,2.74858 2,3.46289 v 5.27539 c -4.242347,-3.08449 -7,-8.0771 -7,-13.73828 0,-4.7033 1.898483,-8.953166 4.972656,-12.02734 L 17.865234,18.905178 C 14.243726,22.526687 12,27.525979 12,33.03994 c 0,8.56276 5.419254,15.86473 13,18.71094 v -3.22461 -4.0625 c 0.664826,0.29566 1.331293,0.55635 2,0.76953 V 55.48721 C 16.691982,53.20969 9,44.04188 9,33.03994 9,30.97535 9.359102,29.01274 9.867187,27.110256 L 6.984375,26.336819 C 6.406345,28.48856 6,30.70769 6,33.03994 6,46.708 16.591026,57.93115 30,58.955957 V 55.94815 45.89737 c 1.32581,0.1709 2.65819,0.17699 4,0.008 v 10.04298 2.091787 0.91602 C 47.40897,57.93135 58,46.7082 58,33.04014 c 0,-2.3316 -0.40666,-4.54997 -0.98437,-6.701168 l -2.88086,0.771484 C 54.64275,29.01277 55,30.97576 55,33.04014 55,44.04208 47.30802,53.20989 37,55.48741 V 45.24522 c 0.66406,-0.21122 1.33186,-0.47338 2,-0.77148 v 5.5664 1.71094 C 46.58075,48.90487 52,41.6029 52,33.04014 52,27.526179 49.75628,22.526887 46.13477,18.905378 L 44.02734,21.0128 C 47.10152,24.086974 49,28.33684 49,33.04014 c 0,5.66118 -2.75765,10.65379 -7,13.73828 v -5.27343 c 1.23783,-0.71467 2.00027,-2.03552 2,-3.46485 8e-5,-0.80652 -0.54444,-2.33446 -1,-3 -1,-4 1,-6 2,-7 C 45,22.040144 38,8.040144 32.07422,8.040144 Z M 24.949219,35.03994 a 3,3 0 0 1 0.05078,0 3,3 0 0 1 3,3 3,3 0 0 1 -3,3 3,3 0 0 1 -3,-3 3,3 0 0 1 2.94922,-3 z m 13.998051,0 a 3,3 0 0 1 0.002,0 3,3 0 0 1 0.0508,0 3,3 0 0 1 3,3 3,3 0 0 1 -3,3 3,3 0 0 1 -3,-3 3,3 0 0 1 2.94726,-3 z" />
  <path
     id="path1157"
     style="color:#000000;font-style:normal;font-variant:normal;font-weight:normal;font-stretch:normal;font-size:medium;line-height:normal;font-family:sans-serif;font-variant-ligatures:normal;font-variant-position:normal;font-variant-caps:normal;font-variant-numeric:normal;font-variant-alternates:normal;font-variant-east-asian:normal;font-feature-settings:normal;font-variation-settings:normal;text-indent:0;text-align:start;text-decoration:none;text-decoration-line:none;text-decoration-style:solid;text-decoration-color:#000000;letter-spacing:normal;word-spacing:normal;text-transform:none;writing-mode:lr-tb;direction:ltr;text-orientation:mixed;dominant-baseline:auto;baseline-shift:baseline;text-anchor:start;white-space:normal;shape-padding:0;shape-margin:0;inline-size:0;clip-rule:nonzero;display:inline;overflow:visible;visibility:visible;opacity:1;isolation:auto;mix-blend-mode:normal;color-interpolation:sRGB;color-interpolation-filters:linearRGB;solid-color:#000000;solid-opacity:1;vector-effect:none;fill:url(#linearGradient886);fill-opacity:1;fill-rule:evenodd;stroke:none;stroke-width:2.99999;stroke-linecap:square;stroke-linejoin:miter;stroke-miterlimit:4;stroke-dasharray:none;stroke-dashoffset:0;stroke-opacity:1;color-rendering:auto;image-rendering:auto;shape-rendering:auto;text-rendering:auto;enable-background:accumulate;stop-color:#000000;stop-opacity:1"
     d="M 32.074219 7 C 26 7 19 21 19 27 C 20 28 22 30 21 34 C 20.569748 34.652803 20.000394 36.218164 20 37 C 20.000432 38.42863 20.76277 39.748576 22 40.462891 L 22 45.738281 C 17.757653 42.653786 15 37.661178 15 32 C 15 27.296693 16.898483 23.04683 19.972656 19.972656 L 17.865234 17.865234 C 14.243726 21.486743 12 26.486035 12 32 C 12 40.562759 17.419254 47.864731 25 50.710938 L 25 47.486328 L 25 43.423828 C 25.664826 43.719485 26.331293 43.980177 27 44.193359 L 27 54.447266 C 16.691982 52.169747 9 43.001938 9 32 C 9 29.935411 9.3591023 27.972795 9.8671875 26.070312 L 6.984375 25.296875 C 6.4063454 27.448612 6 29.667742 6 32 C 6 45.668055 16.591026 56.891203 30 57.916016 L 30 54.908203 L 30 44.857422 C 31.325807 45.028327 32.658189 45.03442 34 44.865234 L 34 54.908203 L 34 57 L 34 57.916016 C 47.408974 56.891203 58 45.668055 58 32 C 58 29.668396 57.593341 27.450023 57.015625 25.298828 L 54.134766 26.070312 C 54.642754 27.972627 55 29.935614 55 32 C 55 43.001938 47.308018 52.169747 37 54.447266 L 37 44.205078 C 37.664055 43.993857 38.331856 43.731696 39 43.433594 L 39 49 L 39 50.710938 C 46.580746 47.864731 52 40.562759 52 32 C 52 26.486035 49.756275 21.486743 46.134766 17.865234 L 44.027344 19.972656 C 47.101517 23.04683 49 27.296693 49 32 C 49 37.661178 46.242347 42.653786 42 45.738281 L 42 40.464844 C 43.237834 39.75018 44.000265 38.429328 44 37 C 44.000076 36.193478 43.455562 34.665538 43 34 C 42 30 44 28 45 27 C 45 21 38 7 32.074219 7 z M 24.949219 34 A 3 3 0 0 1 25 34 A 3 3 0 0 1 28 37 A 3 3 0 0 1 25 40 A 3 3 0 0 1 22 37 A 3 3 0 0 1 24.949219 34 z M 38.947266 34 A 3 3 0 0 1 38.949219 34 A 3 3 0 0 1 39 34 A 3 3 0 0 1 42 37 A 3 3 0 0 1 39 40 A 3 3 0 0 1 36 37 A 3 3 0 0 1 38.947266 34 z " />
</svg>
