<?xml version="1.0" encoding="UTF-8" standalone="no"?>
<svg
   xmlns:dc="http://purl.org/dc/elements/1.1/"
   xmlns:cc="http://creativecommons.org/ns#"
   xmlns:rdf="http://www.w3.org/1999/02/22-rdf-syntax-ns#"
   xmlns:svg="http://www.w3.org/2000/svg"
   xmlns="http://www.w3.org/2000/svg"
   xmlns:xlink="http://www.w3.org/1999/xlink"
   xmlns:sodipodi="http://sodipodi.sourceforge.net/DTD/sodipodi-0.dtd"
   xmlns:inkscape="http://www.inkscape.org/namespaces/inkscape"
   version="1.1"
   width="64"
   height="64"
   id="svg4056"
   inkscape:version="0.91 r13725"
   sodipodi:docname="glade_64.svg">
  <sodipodi:namedview
     pagecolor="#ffffff"
     bordercolor="#666666"
     borderopacity="1"
     objecttolerance="10"
     gridtolerance="10"
     guidetolerance="10"
     inkscape:pageopacity="0"
     inkscape:pageshadow="2"
     inkscape:window-width="1366"
     inkscape:window-height="705"
     id="namedview54"
     showgrid="false"
     inkscape:zoom="7.375"
     inkscape:cx="27.254237"
     inkscape:cy="35.562599"
     inkscape:window-x="0"
     inkscape:window-y="30"
     inkscape:window-maximized="1"
     inkscape:current-layer="svg4056" />
  <defs
     id="defs4058">
    <linearGradient
       x1="182"
       y1="33"
       x2="182"
       y2="24.519934"
       id="linearGradient3830"
       xlink:href="#linearGradient3985-6-635-120-628-965"
       gradientUnits="userSpaceOnUse"
       gradientTransform="matrix(2.1333272,0,0,2.1333272,-372.30794,-24.624104)" />
    <linearGradient
       id="linearGradient3985-6-635-120-628-965">
      <stop
         id="stop7116"
         style="stop-color:#ffffff;stop-opacity:1"
         offset="0" />
      <stop
         id="stop7118"
         style="stop-color:#ffffff;stop-opacity:0"
         offset="1" />
    </linearGradient>
    <linearGradient
       x1="188"
       y1="17"
       x2="188"
       y2="36.026299"
       id="linearGradient3833"
       xlink:href="#linearGradient3985-746-156-539-972"
       gradientUnits="userSpaceOnUse"
       gradientTransform="matrix(2.3260591,0,0,2.3260598,-406.97676,-31.147815)" />
    <linearGradient
       id="linearGradient3985-746-156-539-972">
      <stop
         id="stop7110"
         style="stop-color:#ffffff;stop-opacity:1"
         offset="0" />
      <stop
         id="stop7112"
         style="stop-color:#ffffff;stop-opacity:0"
         offset="1" />
    </linearGradient>
    <linearGradient
       x1="22.004084"
       y1="47.813133"
       x2="22.004084"
       y2="3.3638515"
       id="linearGradient3116"
       xlink:href="#linearGradient3104-5"
       gradientUnits="userSpaceOnUse"
       gradientTransform="matrix(1.3266332,0,0,1.3333242,-2.2224797,-3.8959701)" />
    <linearGradient
       id="linearGradient3104-5">
      <stop
         id="stop3106-2"
         style="stop-color:#aaaaaa;stop-opacity:1"
         offset="0" />
      <stop
         id="stop3108-5"
         style="stop-color:#c8c8c8;stop-opacity:1"
         offset="1" />
    </linearGradient>
    <linearGradient
       x1="23.99999"
       y1="5.5641499"
       x2="23.99999"
       y2="43"
       id="linearGradient3093"
       xlink:href="#linearGradient3977-4"
       gradientUnits="userSpaceOnUse"
       gradientTransform="matrix(1.2162162,0,0,1.5405376,2.8108184,-6.9729501)" />
    <linearGradient
       id="linearGradient3977-4">
      <stop
         id="stop3979-7"
         style="stop-color:#ffffff;stop-opacity:1"
         offset="0" />
      <stop
         id="stop3981-6"
         style="stop-color:#ffffff;stop-opacity:0.23529412"
         offset="0.03626217" />
      <stop
         id="stop3983-5"
         style="stop-color:#ffffff;stop-opacity:0.15686275"
         offset="0.95056331" />
      <stop
         id="stop3985-6"
         style="stop-color:#ffffff;stop-opacity:0.39215687"
         offset="1" />
    </linearGradient>
    <linearGradient
       x1="25.132275"
       y1="0.98520643"
       x2="25.132275"
       y2="47.013336"
       id="linearGradient3096"
       xlink:href="#linearGradient3600-9"
       gradientUnits="userSpaceOnUse"
       gradientTransform="matrix(1.3428567,0,0,1.2819685,-0.2285551,-2.7340501)" />
    <linearGradient
       id="linearGradient3600-9">
      <stop
         id="stop3602-3"
         style="stop-color:#f4f4f4;stop-opacity:1"
         offset="0" />
      <stop
         id="stop3604-7"
         style="stop-color:#dbdbdb;stop-opacity:1"
         offset="1" />
    </linearGradient>
    <linearGradient
       x1="-51.786404"
       y1="50.786446"
       x2="-51.786404"
       y2="2.9062471"
       id="linearGradient3098"
       xlink:href="#linearGradient3104"
       gradientUnits="userSpaceOnUse"
       gradientTransform="matrix(1.0843525,0,0,1.1997316,79.550873,-4.1627801)" />
    <linearGradient
       id="linearGradient3104">
      <stop
         id="stop3106"
         style="stop-color:#a0a0a0;stop-opacity:1"
         offset="0" />
      <stop
         id="stop3108"
         style="stop-color:#bebebe;stop-opacity:1"
         offset="1" />
    </linearGradient>
    <radialGradient
       cx="605.71429"
       cy="486.64789"
       r="117.14286"
       fx="605.71429"
       fy="486.64789"
       id="radialGradient3153"
       xlink:href="#linearGradient5060"
       gradientUnits="userSpaceOnUse"
       gradientTransform="matrix(0.03132633,0,0,0.02058823,35.220859,49.45142)" />
    <linearGradient
       id="linearGradient5060">
      <stop
         id="stop5062"
         style="stop-color:#000000;stop-opacity:1"
         offset="0" />
      <stop
         id="stop5064"
         style="stop-color:#000000;stop-opacity:0"
         offset="1" />
    </linearGradient>
    <radialGradient
       cx="605.71429"
       cy="486.64789"
       r="117.14286"
       fx="605.71429"
       fy="486.64789"
       id="radialGradient3156"
       xlink:href="#linearGradient5060"
       gradientUnits="userSpaceOnUse"
       gradientTransform="matrix(-0.03132632,0,0,0.02058823,28.779136,49.45142)" />
    <linearGradient
       id="linearGradient5048">
      <stop
         id="stop5050"
         style="stop-color:#000000;stop-opacity:0"
         offset="0" />
      <stop
         id="stop5056"
         style="stop-color:#000000;stop-opacity:1"
         offset="0.5" />
      <stop
         id="stop5052"
         style="stop-color:#000000;stop-opacity:0"
         offset="1" />
    </linearGradient>
    <linearGradient
       x1="302.85715"
       y1="366.64789"
       x2="302.85715"
       y2="609.50507"
       id="linearGradient4054"
       xlink:href="#linearGradient5048"
       gradientUnits="userSpaceOnUse"
       gradientTransform="matrix(0.09153846,0,0,0.02058823,-1.084616,49.45142)" />
    <linearGradient
       x1="25.132275"
       y1="0.98520643"
       x2="25.132275"
       y2="47.013336"
       id="linearGradient3322"
       xlink:href="#linearGradient3600-9"
       gradientUnits="userSpaceOnUse"
       gradientTransform="matrix(1.3421813,0,0,1.281893,-0.22388844,-2.7298092)" />
    <linearGradient
       x1="-51.786404"
       y1="50.786446"
       x2="-51.786404"
       y2="2.9062471"
       id="linearGradient3324"
       xlink:href="#linearGradient3104-5"
       gradientUnits="userSpaceOnUse"
       gradientTransform="matrix(1.0838071,0,0,1.1996609,79.515414,-4.1584527)" />
    <linearGradient
       x1="24"
       y1="1.9999999"
       x2="24"
       y2="46.01725"
       id="linearGradient3316"
       xlink:href="#linearGradient3985-6-635-120-628-965"
       gradientUnits="userSpaceOnUse"
       gradientTransform="matrix(1.3421813,0,0,1.3108623,-0.2238883,-1.4585299)" />
    <linearGradient
       y2="0.25937599"
       x2="18.38633"
       y1="44.960533"
       x1="18.38633"
       gradientUnits="userSpaceOnUse"
       id="linearGradient3090"
       xlink:href="#linearGradient3104-5"
       inkscape:collect="always"
       gradientTransform="matrix(1.3421813,0,0,1.3406546,-0.2238883,-0.16256024)" />
    <linearGradient
       y2="0.25937599"
       x2="18.38633"
       y1="44.960533"
       x1="18.38633"
       gradientUnits="userSpaceOnUse"
       id="linearGradient3092"
       xlink:href="#linearGradient3104-5"
       inkscape:collect="always"
       gradientTransform="matrix(1.3421813,0,0,1.3406546,-0.2238883,-0.16256024)" />
    <linearGradient
       y2="0.25937599"
       x2="18.38633"
       y1="44.960533"
       x1="18.38633"
       gradientUnits="userSpaceOnUse"
       id="linearGradient3094"
       xlink:href="#linearGradient3104-5"
       inkscape:collect="always"
       gradientTransform="matrix(1.3421813,0,0,1.3406546,-0.2238883,-0.16256024)" />
    <linearGradient
       x1="83.239876"
       y1="42.457047"
       x2="83.239876"
       y2="57.609871"
       id="linearGradient3805"
       xlink:href="#linearGradient3623-623"
       gradientUnits="userSpaceOnUse"
       gradientTransform="matrix(0.54215535,0,0,0.57067349,-2.1609724,-6.5882964)" />
    <linearGradient
       id="linearGradient3623-623">
      <stop
         id="stop3127"
         style="stop-color:#ffffff;stop-opacity:1"
         offset="0" />
      <stop
         id="stop3129"
         style="stop-color:#e1e1e1;stop-opacity:1"
         offset="1" />
    </linearGradient>
    <linearGradient
       x1="25.498058"
       y1="44.637547"
       x2="25.498058"
       y2="0.27636921"
       id="linearGradient3843"
       xlink:href="#linearGradient3104-5"
       gradientUnits="userSpaceOnUse"
       gradientTransform="matrix(1.3421813,0,0,1.3406546,-0.2238883,-0.16256024)" />
    <linearGradient
       x1="23.99999"
       y1="5.5641499"
       x2="23.99999"
       y2="43"
       id="linearGradient3093-3"
       xlink:href="#linearGradient3977-4"
       gradientUnits="userSpaceOnUse"
       gradientTransform="matrix(1.2162162,0,0,1.5405376,2.810818,-6.9729695)" />
  </defs>
  <metadata
     id="metadata4061">
    <rdf:RDF>
      <cc:Work
         rdf:about="">
        <dc:format>image/svg+xml</dc:format>
        <dc:type
           rdf:resource="http://purl.org/dc/dcmitype/StillImage" />
        <dc:title />
      </cc:Work>
    </rdf:RDF>
  </metadata>
  <rect
     style="display:inline;overflow:visible;visibility:visible;opacity:0.3;fill:url(#linearGradient4054);fill-opacity:1;fill-rule:nonzero;stroke:none;stroke-width:1;marker:none"
     id="rect2879"
     y="57.000004"
     x="9.8999996"
     height="5"
     width="44.199997" />
  <path
     inkscape:connector-curvature="0"
     style="display:inline;overflow:visible;visibility:visible;opacity:0.3;fill:url(#radialGradient3156);fill-opacity:1;fill-rule:nonzero;stroke:none;stroke-width:1;marker:none"
     id="path2881"
     d="m 9.9,57.00022 c 0,0 0,4.9997 0,4.9997 -1.6132281,0.01 -3.9,-1.1202 -3.9,-2.5002 0,-1.38 1.8002408,-2.4995 3.9,-2.4995 z" />
  <path
     inkscape:connector-curvature="0"
     style="display:inline;overflow:visible;visibility:visible;opacity:0.3;fill:url(#radialGradient3153);fill-opacity:1;fill-rule:nonzero;stroke:none;stroke-width:1;marker:none"
     id="path2883"
     d="m 54.099999,57.00022 c 0,0 0,4.9997 0,4.9997 C 55.713227,62.00992 58,60.87972 58,59.49972 c 0,-1.38 -1.800241,-2.4995 -3.900001,-2.4995 z" />
  <path
     d="m 8.5002377,0.50401159 c 10.7646903,0 36.2267193,-0.004487 46.9914103,-0.004487 0.03707,2.26362321 -0.07226,7.29875441 -0.01495,12.91017241 0,15.363544 0,30.727087 0,46.09063 -15.658818,0 -31.317636,0 -46.9764543,0 0,-19.665439 0,-39.330878 0,-58.99631553 z"
     id="path4160"
     style="display:inline;fill:url(#linearGradient3322);fill-opacity:1;stroke:url(#linearGradient3324);stroke-width:0.99991423;stroke-linecap:butt;stroke-linejoin:round;stroke-miterlimit:4;stroke-dasharray:none;stroke-dashoffset:0;stroke-opacity:1"
     inkscape:connector-curvature="0"
     sodipodi:nodetypes="cccccc" />
  <path
     inkscape:connector-curvature="0"
     style="fill:none;stroke:url(#linearGradient3093-3);stroke-width:1;stroke-linecap:round;stroke-linejoin:miter;stroke-miterlimit:4;stroke-dasharray:none;stroke-dashoffset:0;stroke-opacity:1"
     id="rect6741-1-8"
     d="M 54.499998,58.5 9.5,58.5 l 0,-57.0000392 44.999998,0 z" />
  <g
     id="g4198"
     transform="translate(0.00674676,-4.0240537)">
    <path
       style="display:inline;overflow:visible;visibility:visible;fill:#ffffff;fill-opacity:1;fill-rule:evenodd;stroke:url(#linearGradient3090);stroke-width:0.99999231;stroke-linecap:round;stroke-linejoin:round;stroke-miterlimit:4;stroke-dashoffset:0;stroke-opacity:1;marker:none;enable-background:accumulate"
       id="path3835"
       d="m 15.211197,40.727405 10.737451,0 0,10.725237 -10.737451,0 0,-10.725237 z"
       inkscape:connector-curvature="0" />
    <path
       style="display:inline;overflow:visible;visibility:visible;fill:#ffffff;fill-opacity:1;fill-rule:evenodd;stroke:url(#linearGradient3092);stroke-width:0.99999231;stroke-linecap:round;stroke-linejoin:round;stroke-miterlimit:4;stroke-dashoffset:0;stroke-opacity:1;marker:none;enable-background:accumulate"
       id="path3833"
       d="m 48.76573,46.090021 c 0,2.960165 -2.405188,5.362618 -5.368725,5.362618 -2.963536,0 -5.368724,-2.402453 -5.368724,-5.362618 0,-2.960166 2.405188,-5.362619 5.368724,-5.362619 2.963537,0 5.368725,2.402453 5.368725,5.362619 z"
       inkscape:connector-curvature="0" />
    <path
       style="display:inline;overflow:visible;visibility:visible;fill:#ffffff;fill-opacity:1;fill-rule:evenodd;stroke:url(#linearGradient3094);stroke-width:0.99999231;stroke-linecap:round;stroke-linejoin:round;stroke-miterlimit:4;stroke-dashoffset:0;stroke-opacity:1;marker:none;enable-background:accumulate"
       id="path3831"
       d="m 17.048556,16.597647 29.898684,0 c 1.012662,0 1.82791,0.888636 1.82791,1.99246 l 0,6.738291 c 0,1.103823 -0.815248,1.992461 -1.82791,1.992461 l -29.898684,0 c -1.012664,0 -1.827912,-0.888638 -1.827912,-1.992461 l 0,-6.738291 c 0,-1.103824 0.815248,-1.99246 1.827912,-1.99246 z"
       inkscape:connector-curvature="0" />
    <path
       style="display:inline;overflow:visible;visibility:visible;fill:#4d4d4d;fill-opacity:1;fill-rule:evenodd;stroke:none;stroke-width:1;marker:none;enable-background:accumulate"
       id="rect2257"
       d="m 46.081372,46.090019 c 0,1.480083 -1.202595,2.681312 -2.684367,2.681312 -1.481771,0 -2.684365,-1.201229 -2.684365,-2.681312 0,-1.480082 1.202594,-2.681309 2.684365,-2.681309 1.481772,0 2.684367,1.201227 2.684367,2.681309 z"
       inkscape:connector-curvature="0" />
    <path
       style="display:inline;overflow:visible;visibility:visible;fill:url(#linearGradient3805);fill-opacity:1;fill-rule:evenodd;stroke:url(#linearGradient3843);stroke-width:0.99999219;stroke-linecap:round;stroke-linejoin:round;stroke-miterlimit:4;stroke-dasharray:none;stroke-dashoffset:0;stroke-opacity:1;marker:none;enable-background:accumulate"
       id="rect3618"
       d="m 37.975472,16.595317 0,10.717963 8.437293,0 c 1.310164,0 2.35499,-1.099782 2.354988,-2.478865 l 0,-5.742401 c 0,-1.379082 -1.044821,-2.496697 -2.354988,-2.496697 l -8.437293,0 z"
       inkscape:connector-curvature="0" />
    <path
       style="fill:none;stroke:#4d4d4d;stroke-width:0.99999219;stroke-linecap:round;stroke-linejoin:round;stroke-miterlimit:4;stroke-dasharray:none;stroke-opacity:1"
       id="path3631"
       d="m 41.531415,20.935052 1.87159,2.0803 1.928062,-2.101198"
       inkscape:connector-curvature="0" />
    <path
       style="fill:none;stroke:#4d4d4d;stroke-width:0.99999231;stroke-linecap:round;stroke-linejoin:round;stroke-miterlimit:4;stroke-dasharray:none;stroke-opacity:1"
       id="path2259"
       d="m 17.568197,47.005583 2.618886,2.092733 3.666447,-4.970231"
       inkscape:connector-curvature="0" />
  </g>
  <path
     inkscape:connector-curvature="0"
     style="color:#000000;display:inline;overflow:visible;visibility:visible;fill:#81d72c;fill-opacity:0.58823529;fill-rule:evenodd;stroke:#4e9a06;stroke-width:1;stroke-linecap:butt;stroke-linejoin:round;stroke-miterlimit:4;stroke-dasharray:none;stroke-dashoffset:0;stroke-opacity:1;marker:none;enable-background:accumulate"
     id="path3410"
     d="M 2.4999999,8.500164 46.499842,52.5 l -43.9998421,0 0,-43.999836 z M 11.5,32.5 l 0,11 11,0 -11,-11 z" />
  <path
     inkscape:connector-curvature="0"
     style="opacity:0.5;fill:none;stroke:url(#linearGradient3833);stroke-width:0.99999982px;stroke-linecap:butt;stroke-linejoin:miter;stroke-opacity:1"
     id="path3981"
     d="m 3.5,10.999999 c 0,13.714061 0,26.785938 0,40.5 13.714051,0 26.785951,0 40.5,0 0,0 -40.5,-40.5 -40.5,-40.5 z" />
  <path
     inkscape:connector-curvature="0"
     style="opacity:0.5;fill:none;stroke:url(#linearGradient3830);stroke-width:0.99999988px;stroke-linecap:butt;stroke-linejoin:miter;stroke-opacity:1"
     id="path3981-5"
     d="m 10.5,28.709078 c 0,0 0,15.790922 0,15.790922 0,0 14.790948,0 14.790948,0" />
  <path
     inkscape:connector-curvature="0"
     style="color:#000000;display:inline;overflow:visible;visibility:visible;opacity:0.15;fill:#000000;fill-opacity:1;stroke:none;stroke-width:2;marker:none;enable-background:accumulate"
     id="rect4034-50-7-4"
     d="m 40.999641,49 0,3 -1,0 0,-3 1,0 z m -3.957641,0 0,3 -1,0 0,-3 1,0 z m -4.042359,0 0,3 -1,0 0,-3 1,0 z m -3.957641,0 0,3 -1,0 0,-3 1,0 z m -4.042359,0 0,3 -1,0 0,-3 1,0 z m -3.957641,0 0,3 -1,0 0,-3 1,0 z m -4.042359,0 0,3 -1,0 0,-3 1,0 z m -3.957641,0 0,3 -1,0 0,-3 1,0 z m -4.042359,0 0,3 -1,0 0,-3 1,0 z M 3,14.042358 l 3,0 0,1 -3,0 0,-1 z M 3,18 l 3,0 0,1 -3,0 0,-1 z m 0,4.042359 3,0 0,1 -3,0 0,-1 z M 3,26 l 3,0 0,1 -3,0 0,-1 z m 0,4.042359 3,0 0,1 -3,0 0,-1 z M 3,34 l 3,0 0,1 -3,0 0,-1 z m 0,4.042359 3,0 0,1 -3,0 0,-1 z M 3,42 l 3,0 0,1 -3,0 0,-1 z m 0,4.042359 3,0 0,1 -3,0 0,-1 z" />
  <path
     inkscape:connector-curvature="0"
     style="color:#000000;display:inline;overflow:visible;visibility:visible;opacity:0.4;fill:#ffffff;fill-opacity:1;stroke:none;stroke-width:2;marker:none;enable-background:accumulate"
     id="rect4034-50-7-1-9"
     d="m 40,49 0,3 -1,0 0,-3 1,0 z m -3.957641,0 0,3 -1,0 0,-3 1,0 z M 32,49 l 0,3 -1,0 0,-3 1,0 z m -3.957641,0 0,3 -1,0 0,-3 1,0 z M 24,49 l 0,3 -1,0 0,-3 1,0 z m -3.957641,0 0,3 -1,0 0,-3 1,0 z M 16,49 l 0,3 -1,0 0,-3 1,0 z m -3.957641,0 0,3 -1,0 0,-3 1,0 z M 8,49 l 0,3 -1,0 0,-3 1,0 z m -5,-33.958001 3,0 0,1 -3,0 0,-1 z m 0,3.957642 3,0 0,1 -3,0 0,-1 z m 0,4.042359 3,0 0,1 -3,0 0,-1 z m 0,3.957641 3,0 0,1 -3,0 0,-1 z m 0,4.042359 3,0 0,1 -3,0 0,-1 z m 0,3.957641 3,0 0,1 -3,0 0,-1 z m 0,4.042359 3,0 0,1 -3,0 0,-1 z m 0,3.957641 3,0 0,1 -3,0 0,-1 z m 0,4.042359 3,0 0,1 -3,0 0,-1 z" />
  <path
     inkscape:connector-curvature="0"
     style="opacity:0.3;fill:none;stroke:#85f619;stroke-width:1px;stroke-linecap:square;stroke-linejoin:miter;stroke-opacity:1"
     id="path3853"
     d="m 8.5,53.5 37.001241,0" />
</svg>
