<?xml version="1.0" encoding="UTF-8" standalone="no"?>
<!-- Created with Inkscape (http://www.inkscape.org/) -->

<svg
   xmlns:dc="http://purl.org/dc/elements/1.1/"
   xmlns:cc="http://creativecommons.org/ns#"
   xmlns:rdf="http://www.w3.org/1999/02/22-rdf-syntax-ns#"
   xmlns:svg="http://www.w3.org/2000/svg"
   xmlns="http://www.w3.org/2000/svg"
   xmlns:xlink="http://www.w3.org/1999/xlink"
   xmlns:sodipodi="http://sodipodi.sourceforge.net/DTD/sodipodi-0.dtd"
   xmlns:inkscape="http://www.inkscape.org/namespaces/inkscape"
   id="svg3143"
   height="128"
   width="128"
   version="1.1"
   inkscape:version="0.91 r13725"
   sodipodi:docname="vmware-player_128.svg">
  <sodipodi:namedview
     pagecolor="#ffffff"
     bordercolor="#666666"
     borderopacity="1"
     objecttolerance="10"
     gridtolerance="10"
     guidetolerance="10"
     inkscape:pageopacity="0"
     inkscape:pageshadow="2"
     inkscape:window-width="1366"
     inkscape:window-height="705"
     id="namedview50"
     showgrid="false"
     inkscape:zoom="1.4694563"
     inkscape:cx="26.225564"
     inkscape:cy="54.37594"
     inkscape:window-x="0"
     inkscape:window-y="30"
     inkscape:window-maximized="1"
     inkscape:current-layer="svg3143" />
  <defs
     id="defs3145">
    <linearGradient
       inkscape:collect="always"
       id="linearGradient4223">
      <stop
         style="stop-color:#fad229;stop-opacity:1"
         offset="0"
         id="stop4225" />
      <stop
         style="stop-color:#f3b500;stop-opacity:1"
         offset="1"
         id="stop4227" />
    </linearGradient>
    <radialGradient
       id="radialGradient3030"
       gradientUnits="userSpaceOnUse"
       cy="43.5"
       cx="4.993"
       gradientTransform="matrix(2.0038 0 0 1.4 27.988 -17.4)"
       r="2.5">
      <stop
         id="stop2883"
         stop-color="#181818"
         offset="0" />
      <stop
         id="stop2885"
         stop-color="#181818"
         stop-opacity="0"
         offset="1" />
    </radialGradient>
    <radialGradient
       id="radialGradient3032"
       gradientUnits="userSpaceOnUse"
       cy="43.5"
       cx="4.993"
       gradientTransform="matrix(2.0038 0 0 1.4 -20.012 -104.4)"
       r="2.5">
      <stop
         id="stop2889"
         stop-color="#181818"
         offset="0" />
      <stop
         id="stop2891"
         stop-color="#181818"
         stop-opacity="0"
         offset="1" />
    </radialGradient>
    <linearGradient
       id="linearGradient3034"
       y2="39.999"
       gradientUnits="userSpaceOnUse"
       x2="25.058"
       y1="47.028"
       x1="25.058">
      <stop
         id="stop2895"
         stop-color="#181818"
         stop-opacity="0"
         offset="0" />
      <stop
         id="stop2897"
         stop-color="#181818"
         offset=".5" />
      <stop
         id="stop2899"
         stop-color="#181818"
         stop-opacity="0"
         offset="1" />
    </linearGradient>
    <linearGradient
       id="linearGradient3044"
       y2="43"
       gradientUnits="userSpaceOnUse"
       x2="24"
       gradientTransform="matrix(1.4,0,0,1.4,-65.016309,-0.90541928)"
       y1="5"
       x1="24">
      <stop
         id="stop3926-7"
         stop-color="#fff"
         offset="0" />
      <stop
         id="stop3928-3"
         stop-color="#fff"
         stop-opacity=".23529"
         offset=".063165" />
      <stop
         id="stop3930-7"
         stop-color="#fff"
         stop-opacity=".15686"
         offset=".95056" />
      <stop
         id="stop3932-1"
         stop-color="#fff"
         stop-opacity=".39216"
         offset="1" />
    </linearGradient>
    <radialGradient
       id="radialGradient3053"
       gradientUnits="userSpaceOnUse"
       cy="9.9941"
       cx="8.2761"
       gradientTransform="matrix(0,9.33492,-11.46026,0,83.215688,-85.55362)"
       r="12.672">
      <stop
         id="stop3244"
         stop-color="#7ec1f8"
         offset="0" />
      <stop
         id="stop3246"
         stop-color="#4f97e3"
         offset=".26238" />
      <stop
         id="stop3248"
         stop-color="#2674c6"
         offset=".66094" />
      <stop
         id="stop3250"
         stop-color="#0b4169"
         offset="1" />
    </radialGradient>
    <clipPath
       id="clipPath-929888831">
      <g
         id="g17"
         transform="translate(0 -1004.4)">
        <path
           id="path19"
           d="m-24 13c0 1.105-0.672 2-1.5 2s-1.5-0.895-1.5-2 0.672-2 1.5-2 1.5 0.895 1.5 2z"
           transform="matrix(15.333 0 0 11.5 415 878.86)"
           fill="#1890d0" />
      </g>
    </clipPath>
    <radialGradient
       gradientTransform="matrix(2.003784,0,0,1.4,27.98813,-17.4)"
       gradientUnits="userSpaceOnUse"
       xlink:href="#linearGradient3688-166-749-2-324"
       id="radialGradient3013-896"
       fy="43.5"
       fx="4.9929786"
       r="2.5"
       cy="43.5"
       cx="4.9929786" />
    <linearGradient
       id="linearGradient3688-166-749-2-324">
      <stop
         offset="0"
         style="stop-color:#181818;stop-opacity:1"
         id="stop3216" />
      <stop
         offset="1"
         style="stop-color:#181818;stop-opacity:0"
         id="stop3218" />
    </linearGradient>
    <radialGradient
       gradientTransform="matrix(2.003784,0,0,1.4,-20.01187,-104.4)"
       gradientUnits="userSpaceOnUse"
       xlink:href="#linearGradient3688-166-749-2-324"
       id="radialGradient3015-826"
       fy="43.5"
       fx="4.9929786"
       r="2.5"
       cy="43.5"
       cx="4.9929786" />
    <linearGradient
       gradientUnits="userSpaceOnUse"
       xlink:href="#linearGradient3702-501-757-6-946"
       id="linearGradient4395"
       y2="39.999443"
       x2="25.058096"
       y1="47.027729"
       x1="25.058096" />
    <linearGradient
       id="linearGradient3702-501-757-6-946">
      <stop
         offset="0"
         style="stop-color:#181818;stop-opacity:0"
         id="stop3228" />
      <stop
         offset="0.5"
         style="stop-color:#181818;stop-opacity:1"
         id="stop3230" />
      <stop
         offset="1"
         style="stop-color:#181818;stop-opacity:0"
         id="stop3232" />
    </linearGradient>
    <radialGradient
       gradientTransform="matrix(0,9.4975523,-11.65996,0,140.93055,-79.160972)"
       gradientUnits="userSpaceOnUse"
       xlink:href="#linearGradient2867-449-88-871-390-598-476-591-434-148-57-177-8-3-3-6-4-8-8-8-5"
       id="radialGradient4144"
       fy="9.9571075"
       fx="6.2001843"
       r="12.671875"
       cy="9.9571075"
       cx="6.7304144" />
    <linearGradient
       id="linearGradient2867-449-88-871-390-598-476-591-434-148-57-177-8-3-3-6-4-8-8-8-5">
      <stop
         offset="0"
         style="stop-color:#919caf;stop-opacity:1"
         id="stop3750-1-0-7-6-6-1-3-9-3" />
      <stop
         offset="0.26238"
         style="stop-color:#68758e;stop-opacity:1"
         id="stop3752-3-7-4-0-32-8-923-0-7" />
      <stop
         offset="0.704952"
         style="stop-color:#485a6c;stop-opacity:1"
         id="stop3754-1-8-5-2-7-6-7-1-9" />
      <stop
         offset="1"
         style="stop-color:#444c5c;stop-opacity:1"
         id="stop3756-1-6-2-6-6-1-96-6-0" />
    </linearGradient>
    <linearGradient
       gradientTransform="translate(1.17e-5,1.00001)"
       gradientUnits="userSpaceOnUse"
       xlink:href="#linearGradient4187"
       id="linearGradient3153"
       y2="41.890972"
       x2="23.99999"
       y1="6.1111298"
       x1="23.99999" />
    <linearGradient
       id="linearGradient4187">
      <stop
         offset="0"
         style="stop-color:#ffffff;stop-opacity:1"
         id="stop4189" />
      <stop
         offset="0.02099473"
         style="stop-color:#ffffff;stop-opacity:0.23529412"
         id="stop4191" />
      <stop
         offset="0.97696"
         style="stop-color:#ffffff;stop-opacity:0.15686275"
         id="stop4193" />
      <stop
         offset="1"
         style="stop-color:#ffffff;stop-opacity:0.39215687"
         id="stop4195" />
    </linearGradient>
    <linearGradient
       gradientTransform="matrix(1.0521608,0,0,-1.0532519,-1.2521612,51.339874)"
       gradientUnits="userSpaceOnUse"
       xlink:href="#linearGradient4311"
       id="linearGradient3143"
       y2="25.361452"
       x2="30.212982"
       y1="21.416878"
       x1="30.212982" />
    <linearGradient
       id="linearGradient4311">
      <stop
         offset="0"
         style="stop-color:#000000;stop-opacity:1"
         id="stop4313" />
      <stop
         offset="1"
         style="stop-color:#000000;stop-opacity:0"
         id="stop4315" />
    </linearGradient>
    <radialGradient
       gradientTransform="matrix(2.003784,0,0,1.4,27.98813,-17.4)"
       gradientUnits="userSpaceOnUse"
       xlink:href="#linearGradient3688-166-749-2-324"
       id="radialGradient2873-966-168-714"
       fy="43.5"
       fx="4.9929786"
       r="2.5"
       cy="43.5"
       cx="4.9929786" />
    <radialGradient
       gradientTransform="matrix(2.003784,0,0,1.4,-20.01187,-104.4)"
       gradientUnits="userSpaceOnUse"
       xlink:href="#linearGradient3688-166-749-2-324"
       id="radialGradient2875-742-326-419"
       fy="43.5"
       fx="4.9929786"
       r="2.5"
       cy="43.5"
       cx="4.9929786" />
    <radialGradient
       r="12.671875"
       fy="9.9571075"
       fx="6.2001843"
       cy="9.9571075"
       cx="6.7304144"
       gradientTransform="matrix(0,24.874542,-30.537991,0,216.08126,-225.1033)"
       gradientUnits="userSpaceOnUse"
       id="radialGradient4147"
       xlink:href="#radialGradient3053" />
    <linearGradient
       y2="42.091705"
       x2="23.99999"
       y1="5.9093657"
       x1="23.99999"
       gradientTransform="matrix(2.6602317,0,0,2.6673831,-154.01097,-16.317921)"
       gradientUnits="userSpaceOnUse"
       id="linearGradient3904"
       xlink:href="#linearGradient4270" />
    <linearGradient
       id="linearGradient4270">
      <stop
         id="stop4272"
         style="stop-color:#ffffff;stop-opacity:1"
         offset="0" />
      <stop
         id="stop4274"
         style="stop-color:#ffffff;stop-opacity:0.23529412"
         offset="0.0348749" />
      <stop
         id="stop4276"
         style="stop-color:#ffffff;stop-opacity:0.15686275"
         offset="0.96216321" />
      <stop
         id="stop4278"
         style="stop-color:#ffffff;stop-opacity:0.39215687"
         offset="1" />
    </linearGradient>
    <radialGradient
       gradientTransform="matrix(1.5563924,0,0,0.16978827,70.270357,102.13131)"
       gradientUnits="userSpaceOnUse"
       xlink:href="#linearGradient4311"
       id="radialGradient4377"
       fy="93.467628"
       fx="-4.0287771"
       r="35.338131"
       cy="93.467628"
       cx="-4.0287771" />
    <radialGradient
       gradientTransform="matrix(2.003784,0,0,1.4,27.98813,-17.4)"
       gradientUnits="userSpaceOnUse"
       xlink:href="#linearGradient3688-166-749-2-324"
       id="radialGradient2455-1"
       fy="43.5"
       fx="4.9929786"
       r="2.5"
       cy="43.5"
       cx="4.9929786" />
    <radialGradient
       gradientTransform="matrix(2.003784,0,0,1.4,-20.01187,-104.4)"
       gradientUnits="userSpaceOnUse"
       xlink:href="#linearGradient3688-166-749-2-324"
       id="radialGradient2457-5"
       fy="43.5"
       fx="4.9929786"
       r="2.5"
       cy="43.5"
       cx="4.9929786" />
    <radialGradient
       gradientTransform="matrix(0,25.083279,-30.794253,0,372.81658,-208.09078)"
       gradientUnits="userSpaceOnUse"
       xlink:href="#radialGradient3053"
       id="radialGradient3395"
       fy="9.9571075"
       fx="6.2001843"
       r="12.671875"
       cy="9.9571075"
       cx="6.7304144" />
    <linearGradient
       gradientTransform="matrix(2.7297298,0,0,2.7297298,-1.5135132,1.4875374)"
       gradientUnits="userSpaceOnUse"
       xlink:href="#linearGradient3924-776"
       id="linearGradient3159"
       y2="43"
       x2="23.99999"
       y1="4.999989"
       x1="23.99999" />
    <linearGradient
       id="linearGradient3924-776">
      <stop
         offset="0"
         style="stop-color:#ffffff;stop-opacity:1"
         id="stop3124" />
      <stop
         offset="0.06316455"
         style="stop-color:#ffffff;stop-opacity:0.23529412"
         id="stop3126" />
      <stop
         offset="0.95056331"
         style="stop-color:#ffffff;stop-opacity:0.15686275"
         id="stop3128" />
      <stop
         offset="1"
         style="stop-color:#ffffff;stop-opacity:0.39215687"
         id="stop3130" />
    </linearGradient>
    <linearGradient
       inkscape:collect="always"
       xlink:href="#linearGradient4223"
       id="linearGradient4229"
       x1="63.69022"
       y1="30.670195"
       x2="64.550377"
       y2="103.33185"
       gradientUnits="userSpaceOnUse" />
  </defs>
  <metadata
     id="metadata3148">
    <rdf:RDF>
      <cc:Work
         rdf:about="">
        <dc:format>image/svg+xml</dc:format>
        <dc:type
           rdf:resource="http://purl.org/dc/dcmitype/StillImage" />
        <dc:title />
      </cc:Work>
    </rdf:RDF>
  </metadata>
  <g
     id="g4224"
     fill="#ffc239"
     transform="matrix(1.0826 0 0 -1.0785 -1.975 50.826)">
    <g
       id="g4226"
       fill="#ffc239"
       clip-path="url(#clipPath-929888831)">
      <!-- color: #dfdfdf -->
    </g>
  </g>
  <g
     id="g4232"
     fill="#ffc239"
     transform="matrix(-1.0826 0 0 -1.0785 49.975 50.826)">
    <g
       id="g4234"
       fill="#ffc239"
       clip-path="url(#clipPath-929888831)">
      <!-- color: #dfdfdf -->
    </g>
  </g>
  <g
     id="g4294"
     stroke-linejoin="round"
     opacity=".15"
     transform="matrix(.99936 0 0 .99553 .022037 .46841)"
     stroke="#fff"
     stroke-linecap="round"
     stroke-width="1.8509"
     fill="none">
    <g
       id="g4296"
       transform="matrix(1.0833 0 0 1.0833 -2 -1.3)">
      <g
         id="g4298"
         stroke-linejoin="round"
         clip-path="url(#clipPath-929888831)"
         stroke="#fff"
         stroke-linecap="round"
         stroke-width="1.8509"
         fill="none">
        <!-- color: #dfdfdf -->
      </g>
    </g>
    <g
       id="g4304"
       transform="matrix(1.0833 0 0 -1.0833 -1.9983 50.583)">
      <g
         id="g4306"
         stroke-linejoin="round"
         clip-path="url(#clipPath-929888831)"
         stroke="#fff"
         stroke-linecap="round"
         stroke-width="1.8509"
         fill="none">
        <!-- color: #dfdfdf -->
      </g>
    </g>
    <g
       id="g4310"
       transform="matrix(-1.0833 0 0 -1.0833 49.985 50.583)">
      <g
         id="g4312"
         stroke-linejoin="round"
         clip-path="url(#clipPath-929888831)"
         stroke="#fff"
         stroke-linecap="round"
         stroke-width="1.8509"
         fill="none">
        <!-- color: #dfdfdf -->
      </g>
    </g>
  </g>
  <path
     d="m 119,118.00102 a 55,6 0 0 1 -109.9999992,0 55,6 0 1 1 109.9999992,0 z"
     id="path3041"
     style="color:#000000;display:inline;overflow:visible;visibility:visible;opacity:0.2;fill:url(#radialGradient4377);fill-opacity:1;fill-rule:nonzero;stroke:none;stroke-width:1;marker:none;enable-background:accumulate"
     inkscape:connector-curvature="0" />
  <g
     transform="matrix(2.6999989,0,0,0.55555607,-0.8000027,94.889905)"
     id="g2036"
     style="display:inline">
    <g
       transform="matrix(1.052632,0,0,1.285713,-1.263158,-13.42854)"
       id="g3712"
       style="opacity:0.4">
      <rect
         width="5"
         height="7"
         x="38"
         y="40"
         id="rect2801"
         style="fill:url(#radialGradient2455-1);fill-opacity:1;stroke:none" />
      <rect
         width="5"
         height="7"
         x="-10"
         y="-47"
         transform="scale(-1,-1)"
         id="rect3696"
         style="fill:url(#radialGradient2457-5);fill-opacity:1;stroke:none" />
      <rect
         width="28"
         height="7.0000005"
         x="10"
         y="40"
         id="rect3700"
         style="fill:url(#linearGradient4395);fill-opacity:1;stroke:none" />
    </g>
  </g>
  <rect
     width="103"
     height="103"
     rx="6.0545406"
     ry="6.0545406"
     x="12.499999"
     y="15.501023"
     id="rect5505-21-3"
     style="color:#000000;display:inline;overflow:visible;visibility:visible;fill:url(#radialGradient3395);fill-opacity:1.0;fill-rule:nonzero;stroke:none;stroke-width:0.99999994;marker:none;enable-background:accumulate" />
  <rect
     width="101"
     height="101"
     rx="5"
     ry="5"
     x="13.499999"
     y="16.501024"
     id="rect6741-7"
     style="opacity:0.3;fill:none;stroke:url(#linearGradient3159);stroke-width:0.99999994;stroke-linecap:round;stroke-linejoin:round;stroke-miterlimit:4;stroke-dasharray:none;stroke-dashoffset:0;stroke-opacity:1" />
  <rect
     width="103"
     height="103"
     rx="6"
     ry="6"
     x="12.499999"
     y="15.501023"
     id="rect5505-21-6"
     style="color:#000000;display:inline;overflow:visible;visibility:visible;opacity:0.5;fill:none;stroke:#001841;stroke-width:1;stroke-linecap:round;stroke-linejoin:round;stroke-miterlimit:4;stroke-dasharray:none;stroke-dashoffset:0;stroke-opacity:1;marker:none;enable-background:accumulate" />
  <path
     style="color:#000000;font-style:normal;font-variant:normal;font-weight:normal;font-stretch:normal;font-size:medium;line-height:normal;font-family:sans-serif;text-indent:0;text-align:start;text-decoration:none;text-decoration-line:none;text-decoration-style:solid;text-decoration-color:#000000;letter-spacing:normal;word-spacing:normal;text-transform:none;direction:ltr;block-progression:tb;writing-mode:lr-tb;baseline-shift:baseline;text-anchor:start;white-space:normal;clip-rule:nonzero;display:inline;overflow:visible;visibility:visible;opacity:0.15;isolation:auto;mix-blend-mode:normal;color-interpolation:sRGB;color-interpolation-filters:linearRGB;solid-color:#000000;solid-opacity:1;fill:#001841;fill-opacity:1;fill-rule:nonzero;stroke:none;stroke-width:2;stroke-linecap:butt;stroke-linejoin:miter;stroke-miterlimit:4;stroke-dasharray:none;stroke-dashoffset:0;stroke-opacity:1;color-rendering:auto;image-rendering:auto;shape-rendering:auto;text-rendering:auto;enable-background:new"
     d="m 32.800779,30.600118 c -3.4175,0 -6.20117,2.783668 -6.20117,6.201171 l 0,23.400391 c 0,3.417503 2.78367,6.199218 6.20117,6.199219 3.41751,0 6.19922,-2.781716 6.19922,-6.199219 l 0,-8.474609 5.80078,5.800781 0,8.873047 12.39844,0 0,-3.59961 c 0,-0.903697 0.69787,-1.599609 1.60156,-1.599609 l 3.599609,0 0,-12.400391 -8.873049,0 -5.80078,-5.800781 8.47461,0 c 3.417509,0 6.199219,-2.781716 6.199219,-6.199219 0,-3.417503 -2.78171,-6.201171 -6.199219,-6.201171 l -23.40039,0 z m 38.999999,0 c -3.4175,0 -6.20117,2.783668 -6.20117,6.201171 0,3.417503 2.78367,6.199219 6.20117,6.199219 l 8.47265,0 -5.80078,5.800781 -8.87304,0 0,12.400391 3.59961,0 c 0.9037,0 1.60156,0.695912 1.60156,1.599609 l 0,3.59961 12.39844,0 0,-8.873047 5.80078,-5.800781 0,8.474609 c 0,3.417503 2.78172,6.201172 6.19922,6.201172 3.4175,0 6.201172,-2.78367 6.201172,-6.201172 l 0,-23.400391 c 0,-3.417502 -2.783672,-6.199218 -6.201172,-6.199218 l -22.39844,0 0,-0.002 -1,0 z m 11.39844,38.998046 -1.00196,0.002 c -3.46368,0.0016 -6.93744,-0.0042 -10.39843,0 l -0.99805,0.002 0,0.998047 0,2.601562 c 0,0.903697 -0.69786,1.599609 -1.60156,1.599609 l -3.59961,0 0,12.400391 8.87304,0 5.80078,5.79883 -8.4746,0 c -3.4175,0 -6.19922,2.78367 -6.19922,6.20117 0,3.417507 2.78172,6.199227 6.19922,6.199227 l 23.40039,0 c 3.4175,0 6.199212,-2.78173 6.199212,-6.199227 l 0,-23.400391 c 0,-3.417502 -2.781712,-6.201171 -6.199212,-6.201171 -3.4175,0 -6.20118,2.783668 -6.20118,6.201171 l 0,8.472661 -5.79882,-5.80079 0,-8.874996 z m -38.398439,0.002 0,1 0,10.400392 c 0,3.41751 2.78172,6.20117 6.19922,6.20117 l 11.400389,0 0,-12.400391 -3.599609,0 c -0.90369,0 -1.60156,-0.695912 -1.60156,-1.599609 l 0,-3.601562 -12.39844,0 z"
     id="rect3863-3"
     inkscape:connector-curvature="0" />
  <path
     inkscape:connector-curvature="0"
     id="rect3863-7"
     style="color:#000000;opacity:0.3;fill:#001841;fill-opacity:1;enable-background:new"
     d="m 32.799994,31.600536 c -2.8808,0 -5.2,2.3192 -5.2,5.2 l 0,23.400001 c 0,2.880799 2.3192,5.199999 5.2,5.199999 2.8808,0 5.2,-2.319199 5.2,-5.199999 l 0,-10.887501 7.80001,7.799999 0,8.2875 10.4,0 0,-2.599999 c 0,-1.4404 1.1596,-2.599999 2.6,-2.599999 l 2.599999,0 0,-10.400002 -8.287499,0 -7.8,-7.799999 10.8888,0 c 2.8808,0 5.199999,-2.319201 5.199999,-5.200001 0,-2.8808 -2.319199,-5.2 -5.199999,-5.2 l -23.40001,0 z m 39.000009,0 c -2.8808,0 -5.2,2.3192 -5.2,5.2 0,2.8808 2.3192,5.2 5.2,5.2 l 10.8875,0 -7.8,7.799999 -8.2875,0 0,10.400002 2.6,0 c 1.4404,0 2.6,1.159599 2.6,2.599999 l 0,2.599999 10.4,0 0,-8.2875 7.8,-7.799999 0,10.888801 c 0,2.880799 2.3192,5.199999 5.2,5.199999 2.8808,0 5.199997,-2.319199 5.199997,-5.199999 l 0,-23.400002 c 0,-2.8808 -2.319197,-5.2 -5.199997,-5.2 l -23.4,0 z m -25.999999,39.000001 0,10.399999 c 0,2.8808 2.3192,5.2 5.2,5.2 l 10.399999,0 0,-10.399998 -2.599999,0 c -1.4404,0 -2.6,-1.1596 -2.6,-2.600001 l 0,-2.6 z m 25.999999,0 0,2.6 c 0,1.4404 -1.1596,2.600001 -2.6,2.600001 l -2.6,0 0,10.399998 8.2875,0 7.8,7.8 -10.8888,0 c -2.8808,0 -5.2,2.3192 -5.2,5.2 0,2.880794 2.3192,5.199994 5.2,5.199994 l 23.4,0 c 2.8808,0 5.199997,-2.3192 5.199997,-5.199994 l 0,-23.399998 c 0,-2.880801 -2.319197,-5.200001 -5.199997,-5.200001 -2.8808,0 -5.2,2.3192 -5.2,5.200001 l 0,10.887498 -7.8,-7.8 0,-8.288799 c -3.46486,0.0016 -6.9394,-0.0029 -10.3987,0.0013 z"
     sodipodi:nodetypes="sssssccccssccccssscscssccccssccccssssscccssccsscccssccccsssssssscccc" />
  <path
     inkscape:connector-curvature="0"
     id="rect3863"
     style="color:#000000;fill:url(#linearGradient4229);enable-background:new;fill-opacity:1"
     d="m 32.799995,30.601023 c -2.8808,0 -5.2,2.3192 -5.2,5.2 l 0,23.400001 c 0,2.8808 2.3192,5.199999 5.2,5.199999 2.8808,0 5.2,-2.319199 5.2,-5.199999 l 0,-10.887501 7.80001,7.8 0,8.2875 10.399995,0 0,-2.599999 c 0,-1.4404 1.1596,-2.6 2.6,-2.6 l 2.600001,0 0,-10.400001 -8.287496,0 -7.8,-7.8 10.888795,0 c 2.8808,0 5.200001,-2.3192 5.200001,-5.2 0,-2.8808 -2.319201,-5.2 -5.200001,-5.2 l -23.400005,0 z m 39.000006,0 c -2.8808,0 -5.2,2.3192 -5.2,5.2 0,2.8808 2.3192,5.2 5.2,5.2 l 10.8875,0 -7.8,7.8 -8.2875,0 0,10.400001 2.6,0 c 1.4404,0 2.6,1.1596 2.6,2.6 l 0,2.599999 10.4,0 0,-8.2875 7.8,-7.8 0,10.888801 c 0,2.8808 2.3192,5.199999 5.2,5.199999 2.8808,0 5.199999,-2.319199 5.199999,-5.199999 l 0,-23.400001 c 0,-2.8808 -2.319199,-5.2 -5.199999,-5.2 l -23.4,0 z m -25.999996,39.000001 0,10.4 c 0,2.8808 2.3192,5.2 5.2,5.2 l 10.399996,0 0,-10.4 -2.600001,0 c -1.4404,0 -2.6,-1.1596 -2.6,-2.6 l 0,-2.6 z m 25.999996,0 0,2.6 c 0,1.4404 -1.1596,2.6 -2.6,2.6 l -2.6,0 0,10.4 8.2875,0 7.8,7.8 -10.8888,0 c -2.8808,0 -5.2,2.3192 -5.2,5.199998 0,2.880798 2.3192,5.199998 5.2,5.199998 l 23.4,0 c 2.8808,0 5.199999,-2.3192 5.199999,-5.199998 l 0,-23.399998 c 0,-2.8808 -2.319199,-5.2 -5.199999,-5.2 -2.8808,0 -5.2,2.3192 -5.2,5.2 l 0,10.8875 -7.8,-7.8 0,-8.2888 c -3.464854,0.0016 -6.939393,-0.0029 -10.3987,0.0013 z"
     sodipodi:nodetypes="sssssccccssccccssscscssccccssccccssssscccssccsscccssccccsssssssscccc" />
</svg>
