<?xml version="1.0" encoding="UTF-8" standalone="no"?>
<svg
   xmlns:dc="http://purl.org/dc/elements/1.1/"
   xmlns:cc="http://creativecommons.org/ns#"
   xmlns:rdf="http://www.w3.org/1999/02/22-rdf-syntax-ns#"
   xmlns:svg="http://www.w3.org/2000/svg"
   xmlns="http://www.w3.org/2000/svg"
   xmlns:xlink="http://www.w3.org/1999/xlink"
   xmlns:sodipodi="http://sodipodi.sourceforge.net/DTD/sodipodi-0.dtd"
   xmlns:inkscape="http://www.inkscape.org/namespaces/inkscape"
   version="1.1"
   width="64"
   height="64"
   id="svg3130"
   sodipodi:docname="libreoffice-base.svg"
   inkscape:version="1.0.1 (3bc2e813f5, 2020-09-07)">
  <sodipodi:namedview
     pagecolor="#ffffff"
     bordercolor="#666666"
     borderopacity="1"
     objecttolerance="10"
     gridtolerance="10"
     guidetolerance="10"
     inkscape:pageopacity="0"
     inkscape:pageshadow="2"
     inkscape:window-width="1366"
     inkscape:window-height="705"
     id="namedview34"
     showgrid="true"
     inkscape:zoom="7.75"
     inkscape:cx="31.677419"
     inkscape:cy="32"
     inkscape:window-x="0"
     inkscape:window-y="30"
     inkscape:window-maximized="1"
     inkscape:current-layer="svg3130"
     inkscape:document-rotation="0">
    <inkscape:grid
       type="xygrid"
       id="grid890" />
  </sodipodi:namedview>
  <defs
     id="defs3132">
    <linearGradient
       id="linearGradient5769">
      <stop
         offset="0"
         style="stop-color:#ffffff;stop-opacity:1"
         id="stop5771" />
      <stop
         offset="0"
         style="stop-color:#ffffff;stop-opacity:0.23529412"
         id="stop5773" />
      <stop
         offset="1"
         style="stop-color:#ffffff;stop-opacity:0.15686275"
         id="stop5775" />
      <stop
         offset="1"
         style="stop-color:#ffffff;stop-opacity:0.39215687"
         id="stop5777" />
    </linearGradient>
    <linearGradient
       id="linearGradient5736">
      <stop
         offset="0"
         style="stop-color:#586e75;stop-opacity:1"
         id="stop5738" />
      <stop
         offset="1"
         style="stop-color:#073642;stop-opacity:1"
         id="stop5740" />
    </linearGradient>
    <linearGradient
       id="linearGradient4337">
      <stop
         offset="0"
         style="stop-color:#fdf6e3;stop-opacity:1"
         id="stop4339" />
      <stop
         offset="1"
         style="stop-color:#eee8d5;stop-opacity:1"
         id="stop4341" />
    </linearGradient>
    <linearGradient
       x1="41.45314"
       y1="-3.7500122"
       x2="41.45314"
       y2="42.059517"
       id="linearGradient4277-0"
       xlink:href="#linearGradient5769"
       gradientUnits="userSpaceOnUse"
       gradientTransform="matrix(1.4673697,0,0,1.1565526,-2.7173287,10.34652)" />
    <linearGradient
       x1="25.132275"
       y1="0.98520643"
       x2="25.132275"
       y2="47.013336"
       id="linearGradient4285-6"
       xlink:href="#linearGradient4337-3"
       gradientUnits="userSpaceOnUse"
       gradientTransform="matrix(1.5714252,0,0,0.95604679,-5.7146655,13.088186)" />
    <radialGradient
       cx="19.53446"
       cy="40.430397"
       r="23.929714"
       fx="19.53446"
       fy="40.430397"
       id="radialGradient4291-0"
       xlink:href="#radialGradient3109-470-9-6"
       gradientUnits="userSpaceOnUse"
       gradientTransform="matrix(1.0029562,1.769214e-7,-1.4743171e-8,0.0835781,12.407788,56.620897)" />
    <radialGradient
       cx="62.625"
       cy="4.625"
       r="10.625"
       id="radialGradient3109-470-9-6"
       gradientUnits="userSpaceOnUse"
       gradientTransform="matrix(1.1294118,0,0,0.2823525,-58.729414,19.694118)">
      <stop
         id="stop5165-6-1"
         style="stop-color:#000000;stop-opacity:1"
         offset="0" />
      <stop
         id="stop5167-3-5"
         style="stop-color:#000000;stop-opacity:0"
         offset="1" />
    </radialGradient>
    <linearGradient
       xlink:href="#linearGradient5736"
       id="linearGradient5857"
       gradientUnits="userSpaceOnUse"
       gradientTransform="matrix(1.5163817,0.4032233,-0.24859898,0.92087263,1.954085,0.18711795)"
       x1="17.233864"
       y1="-1.6629155"
       x2="26.343443"
       y2="54.477512" />
    <linearGradient
       y2="47.013336"
       x2="25.132275"
       y1="0.98520643"
       x1="25.132275"
       gradientTransform="matrix(1.5714252,0,0,0.95604679,-5.7142,12.90359)"
       gradientUnits="userSpaceOnUse"
       id="linearGradient4523"
       xlink:href="#linearGradient5736" />
    <linearGradient
       y2="42.059517"
       x2="41.45314"
       y1="-3.7500122"
       x1="41.45314"
       gradientTransform="matrix(1.4324324,0,0,1.135135,-4.37882,8.25677)"
       gradientUnits="userSpaceOnUse"
       id="linearGradient4677"
       xlink:href="#linearGradient5769" />
    <linearGradient
       gradientTransform="matrix(1.2289813,0,0,1.194744,-47.21022,-0.60274378)"
       gradientUnits="userSpaceOnUse"
       xlink:href="#linearGradient4337-3"
       id="linearGradient3182-6"
       y2="47.984291"
       x2="24.000002"
       y1="3.0839527"
       x1="24.000002" />
    <linearGradient
       id="linearGradient4337-3">
      <stop
         offset="0"
         style="stop-color:#fafafa;stop-opacity:1"
         id="stop4339-6" />
      <stop
         offset="1"
         style="stop-color:#d4d4d4;stop-opacity:1"
         id="stop4341-7" />
    </linearGradient>
    <linearGradient
       gradientTransform="matrix(1.3739258,0,0,1.1236329,-45.475003,8.3007617)"
       gradientUnits="userSpaceOnUse"
       xlink:href="#linearGradient5769"
       id="linearGradient3174-3"
       y2="41.903656"
       x2="23.99999"
       y1="-3.4511831"
       x1="23.99999" />
    <linearGradient
       x1="25.132275"
       y1="0.98520643"
       x2="25.132275"
       y2="47.013336"
       id="linearGradient4285-6-1"
       xlink:href="#linearGradient4337-3"
       gradientUnits="userSpaceOnUse"
       gradientTransform="matrix(1.5714252,0,0,0.95604679,89.285335,-1.9118141)" />
    <linearGradient
       y2="3.3638515"
       x2="22.004084"
       y1="47.813133"
       x1="22.004084"
       gradientTransform="matrix(1.2586111,0,0,1,-13.884583,985.31513)"
       gradientUnits="userSpaceOnUse"
       id="linearGradient3030"
       xlink:href="#linearGradient3104-5-3" />
    <linearGradient
       id="linearGradient3104-5-3">
      <stop
         offset="0"
         style="stop-color:#aaaaaa;stop-opacity:1"
         id="stop3106-2-94" />
      <stop
         offset="1"
         style="stop-color:#c8c8c8;stop-opacity:1"
         id="stop3108-5-9" />
    </linearGradient>
    <linearGradient
       xlink:href="#linearGradient3104-5-3"
       id="linearGradient3052"
       gradientUnits="userSpaceOnUse"
       gradientTransform="matrix(1.2586111,0,0,1,-13.884582,985.31513)"
       x1="22.004084"
       y1="47.813133"
       x2="22.004084"
       y2="3.3638515" />
    <linearGradient
       gradientTransform="matrix(1.2289114,0,0,1.1595928,-54.696482,0.0090701)"
       gradientUnits="userSpaceOnUse"
       xlink:href="#linearGradient4337-3"
       id="linearGradient3182-6-3"
       y2="47.984291"
       x2="24.000002"
       y1="3.0839527"
       x1="24.000002" />
    <linearGradient
       gradientTransform="matrix(1.3738477,0,0,1.0905738,-52.961364,8.6506203)"
       gradientUnits="userSpaceOnUse"
       xlink:href="#linearGradient5769"
       id="linearGradient3174-3-3"
       y2="41.903656"
       x2="23.99999"
       y1="-3.4511831"
       x1="23.99999" />
  </defs>
  <metadata
     id="metadata3135">
    <rdf:RDF>
      <cc:Work
         rdf:about="">
        <dc:format>image/svg+xml</dc:format>
        <dc:type
           rdf:resource="http://purl.org/dc/dcmitype/StillImage" />
        <dc:title />
      </cc:Work>
    </rdf:RDF>
  </metadata>
  <path
     style="color:#000000;display:inline;overflow:visible;visibility:visible;opacity:0.2;fill:url(#radialGradient4291-0);fill-opacity:1;fill-rule:nonzero;stroke:none;stroke-width:0.999922;marker:none;enable-background:accumulate"
     id="path5050-1-5"
     d="M 56,60 A 24,2.0000002 0 0 1 8,60 24,2.0000002 0 1 1 56,60 Z" />
  <path
     style="display:inline;fill:url(#linearGradient4285-6);fill-opacity:1;stroke:none;stroke-width:1;stroke-linejoin:round;stroke-miterlimit:4;stroke-dasharray:none;stroke-opacity:1;opacity:1"
     id="path4160-9-48-5"
     d="m 53.499985,4.4999991 c 0,12.6032899 -0.003,54.9999399 -0.003,54.9999399 l -42.996971,6e-5 c 0,0 0,-36.66667 0,-54.9999999 14.33332,0 28.66664,0 42.99996,0 z" />
  <path
     style="fill:none;stroke:url(#linearGradient4277-0);stroke-width:1;stroke-linecap:round;stroke-linejoin:miter;stroke-miterlimit:4;stroke-dasharray:none;stroke-dashoffset:0;stroke-opacity:1"
     id="rect6741-1-2-3-4"
     d="M 11.5,59.499998 V 5.499999 h 41.999998 v 53.999999 z" />
  <path
     style="fill:#e4c6fa;fill-opacity:1;stroke:none;stroke-width:1px;stroke-linecap:butt;stroke-linejoin:round;stroke-opacity:1"
     d="m 53.511944,4.50338 0.01164,10.97993 -11,-11 z"
     id="path892-5"
     sodipodi:nodetypes="cccc" />
  <path
     id="path886-3-3"
     style="opacity:0.4;fill:none;fill-opacity:1;stroke:#452981;stroke-width:1px;stroke-linecap:butt;stroke-linejoin:round;stroke-opacity:1"
     d="M 53.499985,4.4999991 53.494785,15.560651 42.421205,4.5242521 Z M 10.5,4.4999998 c 9.853482,0 42.999946,0.00348 42.999946,0.00348 L 53.5,59.499998 c 0,0 -28.666671,0 -43,0 0,-18.333322 0,-36.666645 0,-54.9999516 z" />
  <g
     id="g1298"
     transform="translate(-0.021485)">
    <path
       id="path948-3-6-2-3"
       style="fill:#e4c6fa;fill-opacity:1;stroke:none;stroke-width:2;stroke-linecap:square;stroke-linejoin:round;stroke-miterlimit:4;stroke-dasharray:none;stroke-opacity:1"
       d="m 32,20 c 0.763424,0 1.508857,0.02317 2.228516,0.06445 C 33.50904,20.02243 32.764344,20 32,20 Z m 0,0 c -0.764344,0 -1.50904,0.02243 -2.228516,0.06445 C 30.491143,20.023172 31.236576,20 32,20 Z m 0,1 c -2.990048,0 -5.700601,0.349865 -7.568359,0.873047 -0.932712,0.261263 -1.662977,0.576549 -2.060547,0.839844 C 22.174178,22.843299 22.086719,22.94335 22.042969,23 c 0.04375,0.05665 0.131209,0.156701 0.328125,0.287109 0.397569,0.263294 1.127834,0.578581 2.060547,0.839844 1.400817,0.392387 3.275397,0.687623 5.386718,0.810547 C 30.522133,24.978475 31.252488,25 32,25 c 0.747512,0 1.477867,-0.02153 2.181641,-0.0625 2.11132,-0.122924 3.985899,-0.41816 5.386718,-0.810547 0.932713,-0.261263 1.662981,-0.576551 2.060547,-0.839844 C 41.825823,23.156701 41.913281,23.05665 41.957031,23 41.913284,22.943349 41.825822,22.843299 41.628906,22.712891 41.231337,22.449597 40.501072,22.13431 39.568359,21.873047 37.7006,21.349865 34.990047,21 32,21 Z" />
    <path
       id="path1117"
       style="color:#000000;font-style:normal;font-variant:normal;font-weight:normal;font-stretch:normal;font-size:medium;line-height:normal;font-family:sans-serif;font-variant-ligatures:normal;font-variant-position:normal;font-variant-caps:normal;font-variant-numeric:normal;font-variant-alternates:normal;font-variant-east-asian:normal;font-feature-settings:normal;font-variation-settings:normal;text-indent:0;text-align:start;text-decoration:none;text-decoration-line:none;text-decoration-style:solid;text-decoration-color:#000000;letter-spacing:normal;word-spacing:normal;text-transform:none;writing-mode:lr-tb;direction:ltr;text-orientation:mixed;dominant-baseline:auto;baseline-shift:baseline;text-anchor:start;white-space:normal;shape-padding:0;shape-margin:0;inline-size:0;clip-rule:nonzero;display:inline;overflow:visible;visibility:visible;opacity:0.6;isolation:auto;mix-blend-mode:normal;color-interpolation:sRGB;color-interpolation-filters:linearRGB;solid-color:#000000;solid-opacity:1;vector-effect:none;fill:#452981;fill-opacity:1;fill-rule:nonzero;stroke:none;stroke-width:1;stroke-linecap:square;stroke-linejoin:round;stroke-miterlimit:4;stroke-dasharray:none;stroke-dashoffset:0;stroke-opacity:1;color-rendering:auto;image-rendering:auto;shape-rendering:auto;text-rendering:auto;enable-background:accumulate;stop-color:#000000;stop-opacity:1"
       d="m 32,20 c -3.067066,0 -5.841259,0.350876 -7.837891,0.910156 -0.999482,0.279967 -1.796254,0.60812 -2.34375,0.970703 C 21.27841,22.238445 21,22.5735 21,23 v 6 6 6 h 0.04297 c 0,0.4265 0.278408,0.761556 0.818359,1.119141 0.547496,0.362584 1.344267,0.690736 2.34375,0.970703 C 26.201709,43.649124 28.975903,44 32.042969,44 c 3.067065,0 5.841257,-0.350876 7.83789,-0.910156 0.999483,-0.279967 1.796256,-0.608118 2.34375,-0.970703 C 42.764558,41.761556 43.042969,41.42651 43.042969,41 H 43 V 35.248047 C 43.022924,35.167856 43.042969,35.086808 43.042969,35 H 43 V 29 23 C 43,22.57349 42.721588,22.238445 42.181641,21.880859 41.634145,21.518275 40.837374,21.190123 39.837891,20.910156 37.841258,20.350876 35.067065,20 32,20 Z m 0,1 c 2.990047,0 5.7006,0.349865 7.568359,0.873047 0.932713,0.261263 1.662978,0.57655 2.060547,0.839844 0.196916,0.130408 0.284378,0.230458 0.328125,0.287109 -0.04375,0.05665 -0.131208,0.156701 -0.328125,0.287109 -0.397566,0.263293 -1.127834,0.578581 -2.060547,0.839844 C 37.7006,24.650135 34.990047,25 32,25 29.009952,25 26.299398,24.650135 24.431641,24.126953 23.498928,23.86569 22.768663,23.550403 22.371094,23.287109 22.174178,23.156701 22.086716,23.056649 22.042969,23 c 0.04375,-0.05665 0.131209,-0.156701 0.328125,-0.287109 0.39757,-0.263295 1.127835,-0.578581 2.060547,-0.839844 C 26.299399,21.349865 29.009952,21 32,21 Z m -10,3.224609 c 0.537301,0.320284 1.26191,0.613078 2.162109,0.865235 C 26.15874,25.649124 28.932934,26 32,26 35.067065,26 37.841258,25.649124 39.837891,25.089844 40.73809,24.837687 41.4627,24.544893 42,24.224609 V 29 h -0.04297 c -0.04375,0.05665 -0.131208,0.156701 -0.328125,0.287109 -0.397566,0.263293 -1.127834,0.578581 -2.060547,0.839844 C 37.7006,30.650135 34.990047,31 32,31 29.009952,31 26.299398,30.650135 24.431641,30.126953 23.498928,29.86569 22.768663,29.550403 22.371094,29.287109 22.174178,29.156701 22.086716,29.056649 22.042969,29 H 22 Z m 0,6 c 0.537301,0.320284 1.26191,0.613078 2.162109,0.865235 C 26.15874,31.649124 28.932934,32 32,32 35.067065,32 37.841258,31.649124 39.837891,31.089844 40.73809,30.837687 41.4627,30.544893 42,30.224609 V 35 c -0.04375,0.05665 -0.131209,0.156701 -0.328125,0.287109 -0.397566,0.263293 -1.127834,0.578581 -2.060547,0.839844 C 37.74357,36.650135 35.033016,37 32.042969,37 29.052921,37 26.342366,36.650135 24.474609,36.126953 23.541896,35.86569 22.811632,35.550403 22.414062,35.287109 22.217147,35.156701 22.129684,35.056649 22.085938,35 H 22.042969 22 Z m 0,5.97461 c 0.540683,0.330232 1.281288,0.63186 2.205078,0.890625 C 26.201709,37.649124 28.975903,38 32.042969,38 c 3.067065,0 5.841257,-0.350876 7.83789,-0.910156 C 40.757467,36.844296 41.466675,36.560401 42,36.25 V 41 c -0.04375,0.05665 -0.131209,0.156701 -0.328125,0.287109 -0.397566,0.263293 -1.127834,0.578581 -2.060547,0.839844 C 37.74357,42.650135 35.033016,43 32.042969,43 29.052921,43 26.342366,42.650135 24.474609,42.126953 23.541896,41.86569 22.811632,41.550403 22.414062,41.287109 22.217147,41.156701 22.129684,41.056649 22.085938,41 H 22.042969 22 Z" />
    <path
       style="fill:#e4c6fa;fill-opacity:1;stroke:none;stroke-width:1;stroke-miterlimit:4;stroke-dasharray:none;stroke-opacity:1"
       d="M 21.999999,24.224609 V 29 h 0.04297 c 0.04375,0.05665 0.131209,0.156701 0.328125,0.287109 0.397569,0.263294 1.127834,0.578581 2.060547,0.839844 C 26.299397,30.650135 29.009951,31 31.999999,31 c 2.990047,0 5.7006,-0.349865 7.568359,-0.873047 0.932713,-0.261263 1.662981,-0.576551 2.060547,-0.839844 C 41.825822,29.156701 41.913283,29.056651 41.95703,29 H 42 v -4.775391 c -0.5373,0.320284 -1.26191,0.613078 -2.162109,0.865235 C 37.841257,25.649124 35.067064,26 31.999999,26 28.932933,26 26.158739,25.649124 24.162108,25.089844 23.261909,24.837687 22.5373,24.544893 21.999999,24.224609 Z"
       id="path1113" />
    <path
       style="fill:#e4c6fa;fill-opacity:1;stroke:none;stroke-width:1;stroke-miterlimit:4;stroke-dasharray:none;stroke-opacity:1"
       d="M 22,30.224609 V 35 h 0.04297 c 0.04375,0.05665 0.131209,0.156701 0.328125,0.287109 0.397569,0.263294 1.127834,0.578581 2.060547,0.839844 C 26.299398,36.650135 29.009952,37 32,37 c 2.990047,0 5.7006,-0.349865 7.568359,-0.873047 0.932713,-0.261263 1.662981,-0.576551 2.060547,-0.839844 C 41.825823,35.156701 41.913284,35.056651 41.957031,35 h 0.04297 v -4.775391 c -0.5373,0.320284 -1.26191,0.613078 -2.162109,0.865235 C 37.841258,31.649124 35.067065,32 32,32 28.932934,32 26.15874,31.649124 24.162109,31.089844 23.26191,30.837687 22.537301,30.544893 22,30.224609 Z"
       id="path1113-6" />
    <path
       style="fill:#e4c6fa;fill-opacity:1;stroke:none;stroke-width:1;stroke-miterlimit:4;stroke-dasharray:none;stroke-opacity:1"
       d="M 22,36.224609 V 41 h 0.04297 c 0.04375,0.05665 0.131209,0.156701 0.328125,0.287109 0.397569,0.263294 1.127834,0.578581 2.060547,0.839844 C 26.299398,42.650135 29.009952,43 32,43 c 2.990047,0 5.7006,-0.349865 7.568359,-0.873047 0.932713,-0.261263 1.662981,-0.576551 2.060547,-0.839844 C 41.825823,41.156701 41.913284,41.056651 41.957031,41 h 0.04297 v -4.775391 c -0.5373,0.320284 -1.26191,0.613078 -2.162109,0.865235 C 37.841258,37.649124 35.067065,38 32,38 28.932934,38 26.15874,37.649124 24.162109,37.089844 23.26191,36.837687 22.537301,36.544893 22,36.224609 Z"
       id="path1113-6-1" />
  </g>
</svg>
