<?xml version="1.0" encoding="UTF-8" standalone="no"?>
<!-- Created with Inkscape (http://www.inkscape.org/) -->

<svg
   xmlns:dc="http://purl.org/dc/elements/1.1/"
   xmlns:cc="http://creativecommons.org/ns#"
   xmlns:rdf="http://www.w3.org/1999/02/22-rdf-syntax-ns#"
   xmlns:svg="http://www.w3.org/2000/svg"
   xmlns="http://www.w3.org/2000/svg"
   xmlns:xlink="http://www.w3.org/1999/xlink"
   xmlns:sodipodi="http://sodipodi.sourceforge.net/DTD/sodipodi-0.dtd"
   xmlns:inkscape="http://www.inkscape.org/namespaces/inkscape"
   id="svg3143"
   height="48"
   width="48"
   version="1.1"
   inkscape:version="0.91 r13725"
   sodipodi:docname="vmware-workstation_48.svg">
  <sodipodi:namedview
     pagecolor="#ffffff"
     bordercolor="#666666"
     borderopacity="1"
     objecttolerance="10"
     gridtolerance="10"
     guidetolerance="10"
     inkscape:pageopacity="0"
     inkscape:pageshadow="2"
     inkscape:window-width="1366"
     inkscape:window-height="705"
     id="namedview50"
     showgrid="false"
     inkscape:zoom="11.083333"
     inkscape:cx="24"
     inkscape:cy="24"
     inkscape:window-x="0"
     inkscape:window-y="30"
     inkscape:window-maximized="1"
     inkscape:current-layer="svg3143"
     showguides="true" />
  <defs
     id="defs3145">
    <linearGradient
       inkscape:collect="always"
       id="linearGradient4276">
      <stop
         style="stop-color:#acd1ff;stop-opacity:1"
         offset="0"
         id="stop4278" />
      <stop
         style="stop-color:#7ca1ed;stop-opacity:1"
         offset="1"
         id="stop4280" />
    </linearGradient>
    <linearGradient
       inkscape:collect="always"
       id="linearGradient4268">
      <stop
         style="stop-color:#ffaa1f;stop-opacity:1"
         offset="0"
         id="stop4270" />
      <stop
         style="stop-color:#ff7b00;stop-opacity:1"
         offset="1"
         id="stop4272" />
    </linearGradient>
    <linearGradient
       id="linearGradient3044"
       y2="43"
       gradientUnits="userSpaceOnUse"
       x2="24"
       gradientTransform="translate(5.3e-6,0)"
       y1="5"
       x1="24">
      <stop
         id="stop3926-7"
         stop-color="#fff"
         offset="0" />
      <stop
         id="stop3928-3"
         stop-color="#fff"
         stop-opacity=".23529"
         offset=".063165" />
      <stop
         id="stop3930-7"
         stop-color="#fff"
         stop-opacity=".15686"
         offset=".95056" />
      <stop
         id="stop3932-1"
         stop-color="#fff"
         stop-opacity=".39216"
         offset="1" />
    </linearGradient>
    <radialGradient
       id="radialGradient3053"
       gradientUnits="userSpaceOnUse"
       cy="9.9941"
       cx="8.2761"
       gradientTransform="matrix(0,6.6678,-8.1859,0,105.88,-60.463)"
       r="12.672">
      <stop
         id="stop3244"
         stop-color="#7ec1f8"
         offset="0" />
      <stop
         id="stop3246"
         stop-color="#4f97e3"
         offset=".26238" />
      <stop
         id="stop3248"
         stop-color="#2674c6"
         offset=".66094" />
      <stop
         id="stop3250"
         stop-color="#0b4169"
         offset="1" />
    </radialGradient>
    <clipPath
       id="clipPath-929888831">
      <g
         id="g17"
         transform="translate(0 -1004.4)">
        <path
           id="path19"
           d="m-24 13c0 1.105-0.672 2-1.5 2s-1.5-0.895-1.5-2 0.672-2 1.5-2 1.5 0.895 1.5 2z"
           transform="matrix(15.333 0 0 11.5 415 878.86)"
           fill="#1890d0" />
      </g>
    </clipPath>
    <radialGradient
       gradientTransform="matrix(2.003784,0,0,1.4,27.98813,-17.4)"
       gradientUnits="userSpaceOnUse"
       xlink:href="#linearGradient3688-166-749-2-324"
       id="radialGradient3013-896-3"
       fy="43.5"
       fx="4.9929786"
       r="2.5"
       cy="43.5"
       cx="4.9929786" />
    <linearGradient
       id="linearGradient3688-166-749-2-324">
      <stop
         offset="0"
         style="stop-color:#181818;stop-opacity:1"
         id="stop3216" />
      <stop
         offset="1"
         style="stop-color:#181818;stop-opacity:0"
         id="stop3218" />
    </linearGradient>
    <radialGradient
       gradientTransform="matrix(2.003784,0,0,1.4,-20.01187,-104.4)"
       gradientUnits="userSpaceOnUse"
       xlink:href="#linearGradient3688-166-749-2-324"
       id="radialGradient3015-826-5"
       fy="43.5"
       fx="4.9929786"
       r="2.5"
       cy="43.5"
       cx="4.9929786" />
    <linearGradient
       inkscape:collect="always"
       xlink:href="#linearGradient3702-501-757-6-946"
       id="linearGradient4264"
       gradientUnits="userSpaceOnUse"
       x1="25.058096"
       y1="47.027729"
       x2="25.058096"
       y2="39.999443" />
    <linearGradient
       id="linearGradient3702-501-757-6-946">
      <stop
         offset="0"
         style="stop-color:#181818;stop-opacity:0"
         id="stop3228" />
      <stop
         offset="0.5"
         style="stop-color:#181818;stop-opacity:1"
         id="stop3230" />
      <stop
         offset="1"
         style="stop-color:#181818;stop-opacity:0"
         id="stop3232" />
    </linearGradient>
    <radialGradient
       gradientTransform="matrix(0,9.4975523,-11.65996,0,140.93055,-79.160972)"
       gradientUnits="userSpaceOnUse"
       xlink:href="#radialGradient3053-3"
       id="radialGradient4144-2"
       fy="9.9571075"
       fx="6.2001843"
       r="12.671875"
       cy="9.9571075"
       cx="6.7304144" />
    <radialGradient
       id="radialGradient3053-3"
       gradientUnits="userSpaceOnUse"
       cy="9.9940996"
       cx="8.2761002"
       gradientTransform="matrix(0,6.6678,-8.1859,0,154.87772,-60.100992)"
       r="12.672">
      <stop
         id="stop3244-6"
         stop-color="#7ec1f8"
         offset="0" />
      <stop
         id="stop3246-7"
         stop-color="#4f97e3"
         offset=".26238" />
      <stop
         id="stop3248-5"
         stop-color="#2674c6"
         offset=".66094" />
      <stop
         id="stop3250-3"
         stop-color="#0b4169"
         offset="1" />
    </radialGradient>
    <linearGradient
       gradientTransform="translate(1.17e-5,1.00001)"
       gradientUnits="userSpaceOnUse"
       xlink:href="#linearGradient4187"
       id="linearGradient3153"
       y2="41.890972"
       x2="23.99999"
       y1="6.1111298"
       x1="23.99999" />
    <linearGradient
       id="linearGradient4187">
      <stop
         offset="0"
         style="stop-color:#ffffff;stop-opacity:1"
         id="stop4189" />
      <stop
         offset="0.02099473"
         style="stop-color:#ffffff;stop-opacity:0.23529412"
         id="stop4191" />
      <stop
         offset="0.97696"
         style="stop-color:#ffffff;stop-opacity:0.15686275"
         id="stop4193" />
      <stop
         offset="1"
         style="stop-color:#ffffff;stop-opacity:0.39215687"
         id="stop4195" />
    </linearGradient>
    <linearGradient
       inkscape:collect="always"
       xlink:href="#linearGradient4268"
       id="linearGradient4274"
       x1="10.000006"
       y1="27.5"
       x2="33.000006"
       y2="27.5"
       gradientUnits="userSpaceOnUse"
       gradientTransform="matrix(0,1,-1,0,49.000006,5.999994)" />
    <linearGradient
       inkscape:collect="always"
       xlink:href="#linearGradient4276"
       id="linearGradient4282"
       x1="26.101049"
       y1="10.760964"
       x2="25.878178"
       y2="33.856243"
       gradientUnits="userSpaceOnUse" />
  </defs>
  <metadata
     id="metadata3148">
    <rdf:RDF>
      <cc:Work
         rdf:about="">
        <dc:format>image/svg+xml</dc:format>
        <dc:type
           rdf:resource="http://purl.org/dc/dcmitype/StillImage" />
        <dc:title />
      </cc:Work>
    </rdf:RDF>
  </metadata>
  <g
     id="g4224"
     fill="#ffc239"
     transform="matrix(1.0826 0 0 -1.0785 -1.975 50.826)">
    <g
       id="g4226"
       fill="#ffc239"
       clip-path="url(#clipPath-929888831)">
      <!-- color: #dfdfdf -->
    </g>
  </g>
  <g
     id="g4232"
     fill="#ffc239"
     transform="matrix(-1.0826 0 0 -1.0785 49.975 50.826)">
    <g
       id="g4234"
       fill="#ffc239"
       clip-path="url(#clipPath-929888831)">
      <!-- color: #dfdfdf -->
    </g>
  </g>
  <g
     id="g4294"
     stroke-linejoin="round"
     opacity=".15"
     transform="matrix(.99936 0 0 .99553 .022037 .46841)"
     stroke="#fff"
     stroke-linecap="round"
     stroke-width="1.8509"
     fill="none">
    <g
       id="g4296"
       transform="matrix(1.0833 0 0 1.0833 -2 -1.3)">
      <g
         id="g4298"
         stroke-linejoin="round"
         clip-path="url(#clipPath-929888831)"
         stroke="#fff"
         stroke-linecap="round"
         stroke-width="1.8509"
         fill="none">
        <!-- color: #dfdfdf -->
      </g>
    </g>
    <g
       id="g4304"
       transform="matrix(1.0833 0 0 -1.0833 -1.9983 50.583)">
      <g
         id="g4306"
         stroke-linejoin="round"
         clip-path="url(#clipPath-929888831)"
         stroke="#fff"
         stroke-linecap="round"
         stroke-width="1.8509"
         fill="none">
        <!-- color: #dfdfdf -->
      </g>
    </g>
    <g
       id="g4310"
       transform="matrix(-1.0833 0 0 -1.0833 49.985 50.583)">
      <g
         id="g4312"
         stroke-linejoin="round"
         clip-path="url(#clipPath-929888831)"
         stroke="#fff"
         stroke-linecap="round"
         stroke-width="1.8509"
         fill="none">
        <!-- color: #dfdfdf -->
      </g>
    </g>
  </g>
  <g
     style="opacity:0.4"
     id="g3712-0-2"
     transform="matrix(1.1578952,0,0,0.57142859,-3.789476,19.142856)">
    <rect
       style="fill:url(#radialGradient3013-896-3);fill-opacity:1;stroke:none"
       id="rect2801-4-6"
       y="40"
       x="38"
       height="7"
       width="5" />
    <rect
       style="fill:url(#radialGradient3015-826-5);fill-opacity:1;stroke:none"
       id="rect3696-8-1"
       transform="scale(-1,-1)"
       y="-47"
       x="-10"
       height="7"
       width="5" />
    <rect
       style="fill:url(#linearGradient4264);fill-opacity:1;stroke:none"
       id="rect3700-7-8"
       y="40"
       x="10"
       height="7.0000005"
       width="28" />
  </g>
  <rect
     style="color:#000000;display:inline;overflow:visible;visibility:visible;fill:url(#radialGradient4144-2);fill-opacity:1;fill-rule:nonzero;stroke:none;stroke-width:0.99999994;marker:none;enable-background:accumulate"
     id="rect5505-21-7"
     y="5.5"
     x="4.5000067"
     ry="2"
     rx="2"
     height="39"
     width="39" />
  <rect
     style="opacity:0.3;fill:none;stroke:url(#linearGradient3153);stroke-width:1;stroke-linecap:round;stroke-linejoin:round;stroke-miterlimit:4;stroke-dasharray:none;stroke-dashoffset:0;stroke-opacity:1"
     id="rect6741-1"
     y="6.5"
     x="5.5000081"
     ry="1"
     rx="1"
     height="37"
     width="37" />
  <rect
     style="color:#000000;display:inline;overflow:visible;visibility:visible;opacity:0.5;fill:none;stroke:#001841;stroke-width:1;stroke-linecap:round;stroke-linejoin:round;stroke-miterlimit:4;stroke-dasharray:none;stroke-dashoffset:0;stroke-opacity:1;marker:none;enable-background:accumulate"
     id="rect5505-21-6"
     y="5.5"
     x="4.5000081"
     ry="2"
     rx="2"
     height="39"
     width="39" />
  <path
     style="color:#000000;font-style:normal;font-variant:normal;font-weight:normal;font-stretch:normal;font-size:medium;line-height:normal;font-family:sans-serif;text-indent:0;text-align:start;text-decoration:none;text-decoration-line:none;text-decoration-style:solid;text-decoration-color:#000000;letter-spacing:normal;word-spacing:normal;text-transform:none;direction:ltr;block-progression:tb;writing-mode:lr-tb;baseline-shift:baseline;text-anchor:start;white-space:normal;clip-rule:nonzero;display:inline;overflow:visible;visibility:visible;opacity:0.15;isolation:auto;mix-blend-mode:normal;color-interpolation:sRGB;color-interpolation-filters:linearRGB;solid-color:#000000;solid-opacity:1;fill:#000000;fill-opacity:1;fill-rule:nonzero;stroke:none;stroke-width:2;stroke-linecap:butt;stroke-linejoin:miter;stroke-miterlimit:4;stroke-dasharray:none;stroke-dashoffset:0;stroke-opacity:1;color-rendering:auto;image-rendering:auto;shape-rendering:auto;text-rendering:auto;enable-background:accumulate"
     d="m 17.400395,11 c -1.866498,0 -3.400389,1.533892 -3.400389,3.400391 l 0,1.599609 -1.599611,0 c -1.866498,0 -3.4003881,1.533892 -3.4003881,3.400391 l 0,4.294921 0,13.904297 C 9.0000069,39.466108 10.533896,41 12.400395,41 l 18.199219,0 c 1.866499,0 3.400392,-1.533892 3.400392,-3.400391 l 0,-1.599609 1.599609,0 c 1.866498,0 3.400391,-1.533892 3.400391,-3.400391 l 0,-18.199218 C 39.000006,12.533892 37.466113,11 35.599615,11 l -18.199219,0 z m 3.599611,12 6,0 0,6 -6,0 0,-6 z"
     id="path4419-6-9"
     inkscape:connector-curvature="0" />
  <path
     style="opacity:0.3;fill:#000000;fill-opacity:1;stroke:none"
     d="m 17.400397,12 c -1.3296,0 -2.400391,1.070791 -2.400391,2.40039 l 0,2.59961 -2.599609,0 c -1.3296,0 -2.400391,1.070791 -2.400391,2.40039 l 0,18.199219 c 0,1.3296 1.070791,2.400391 2.400391,2.400391 l 18.199218,0 c 1.3296,0 2.400391,-1.070791 2.400391,-2.400391 l 0,-2.599609 2.599609,0 c 1.3296,0 2.400391,-1.070791 2.400391,-2.400391 l 0,-18.199219 C 38.000006,13.070791 36.929215,12 35.599615,12 l -18.199218,0 z m 13.199218,5 2.400391,0 0,2.40039 C 33.000006,18.070791 31.929215,17 30.599615,17 Z m -10.599609,5 8,0 0,8 -8,0 0,-8 z m -5,10.599609 c 0,1.3296 1.070791,2.400391 2.400391,2.400391 l -2.400391,0 0,-2.400391 z"
     id="path4419-6"
     inkscape:connector-curvature="0" />
  <path
     id="path4419"
     d="m 10.000006,36.6 c 0,1.3296 1.0704,2.4 2.4,2.4 l 18.2,0 c 1.3296,0 2.4,-1.0704 2.4,-2.4 l 0,-18.2 c 0,-1.3296 -1.0704,-2.4 -2.4,-2.4 l -18.2,0 c -1.3296,0 -2.4,1.0704 -2.4,2.4 z m 5,-2.6 0,-13 13,0 0,13 z"
     style="fill:url(#linearGradient4274);fill-opacity:1;stroke:none"
     inkscape:connector-curvature="0"
     sodipodi:nodetypes="sssssssssccccc" />
  <path
     style="fill:url(#linearGradient4282);fill-opacity:1;stroke:none"
     d="m 35.600006,34 c 1.3296,0 2.4,-1.0704 2.4,-2.4 l 0,-18.2 c 0,-1.3296 -1.0704,-2.4 -2.4,-2.4 l -18.2,0 c -1.3296,0 -2.4,1.0704 -2.4,2.4 l 0,2.6 18,0 0,13 -13,0 0,-8 -5,0 0,10.6 c 0,1.3296 1.0704,2.4 2.4,2.4 z"
     id="path4421"
     inkscape:connector-curvature="0"
     sodipodi:nodetypes="ssssssccccccsss" />
  <path
     style="opacity:0.3;fill:#000000;fill-opacity:1;stroke:none"
     d="m 15.000006,21 0,1 5,0 0,-1 -5,0 z"
     id="path4199"
     inkscape:connector-curvature="0" />
  <path
     style="opacity:0.3;fill:#000000;fill-opacity:1;stroke:none"
     d="m 15.000006,31.60156 0,0.99805 c 0,1.3296 1.07079,2.40039 2.40039,2.40039 l 18.199219,0 c 1.3296,0 2.40039,-1.07079 2.400391,-2.40039 l 0,-0.99805 C 38.000005,32.93116 36.929214,34 35.599615,34 l -18.199219,0 c -1.3296,0 -2.40039,-1.06884 -2.40039,-2.39844 z"
     id="path4421-7"
     inkscape:connector-curvature="0" />
</svg>
