<?xml version="1.0" encoding="UTF-8" standalone="no"?>
<svg
   xmlns:dc="http://purl.org/dc/elements/1.1/"
   xmlns:cc="http://creativecommons.org/ns#"
   xmlns:rdf="http://www.w3.org/1999/02/22-rdf-syntax-ns#"
   xmlns:svg="http://www.w3.org/2000/svg"
   xmlns="http://www.w3.org/2000/svg"
   xmlns:xlink="http://www.w3.org/1999/xlink"
   xmlns:sodipodi="http://sodipodi.sourceforge.net/DTD/sodipodi-0.dtd"
   xmlns:inkscape="http://www.inkscape.org/namespaces/inkscape"
   id="svg4113"
   height="128"
   width="128"
   version="1.1"
   sodipodi:docname="pycharm_128.svg"
   inkscape:version="0.92.3 (2405546, 2018-03-11)">
  <sodipodi:namedview
     pagecolor="#ffffff"
     bordercolor="#666666"
     borderopacity="1"
     objecttolerance="10"
     gridtolerance="10"
     guidetolerance="10"
     inkscape:pageopacity="0"
     inkscape:pageshadow="2"
     inkscape:window-width="1366"
     inkscape:window-height="705"
     id="namedview44"
     showgrid="false"
     inkscape:zoom="0.72091746"
     inkscape:cx="64"
     inkscape:cy="58.628877"
     inkscape:window-x="0"
     inkscape:window-y="30"
     inkscape:window-maximized="1"
     inkscape:current-layer="svg4113" />
  <defs
     id="defs4115">
    <linearGradient
       gradientTransform="matrix(2.7297298,0,0,2.7297298,-1.5135184,1.488321)"
       gradientUnits="userSpaceOnUse"
       xlink:href="#linearGradient3924"
       id="linearGradient4136"
       y2="43"
       x2="23.99999"
       y1="4.999989"
       x1="23.99999" />
    <linearGradient
       id="linearGradient3924">
      <stop
         offset="0"
         style="stop-color:#ffffff;stop-opacity:1"
         id="stop3926" />
      <stop
         offset="0.06316455"
         style="stop-color:#ffffff;stop-opacity:0.23529412"
         id="stop3928" />
      <stop
         offset="0.95056331"
         style="stop-color:#ffffff;stop-opacity:0.15686275"
         id="stop3930" />
      <stop
         offset="1"
         style="stop-color:#ffffff;stop-opacity:0.39215687"
         id="stop3932" />
    </linearGradient>
    <radialGradient
       gradientTransform="matrix(0,24.139622,-29.635745,0,361.28116,-204.72681)"
       gradientUnits="userSpaceOnUse"
       xlink:href="#linearGradient890"
       id="radialGradient3936-3"
       fy="9.9571075"
       fx="7.1183534"
       r="8.9330635"
       cy="9.9571075"
       cx="7.1183534" />
    <linearGradient
       id="linearGradient2867-449-88-871-390-598-476-591-434-148-57-177-8-3-3-6-4-8-8-8-5-7-8">
      <stop
         offset="0"
         style="stop-color:#404648;stop-opacity:1"
         id="stop3750-1-0-7-6-6-1-3-9-3-9-2" />
      <stop
         offset="1"
         style="stop-color:#0c1011;stop-opacity:1"
         id="stop3754-1-8-5-2-7-6-7-1-9-1-0" />
    </linearGradient>
    <radialGradient
       gradientTransform="matrix(2.003784,0,0,1.4,27.98813,-17.4)"
       gradientUnits="userSpaceOnUse"
       xlink:href="#linearGradient3688-166-749-5"
       id="radialGradient4093"
       fy="43.5"
       fx="4.9929786"
       r="2.5"
       cy="43.5"
       cx="4.9929786" />
    <linearGradient
       id="linearGradient3688-166-749-5">
      <stop
         offset="0"
         style="stop-color:#181818;stop-opacity:1"
         id="stop2883-0" />
      <stop
         offset="1"
         style="stop-color:#181818;stop-opacity:0"
         id="stop2885-5" />
    </linearGradient>
    <radialGradient
       gradientTransform="matrix(2.003784,0,0,1.4,-20.01187,-104.4)"
       gradientUnits="userSpaceOnUse"
       xlink:href="#linearGradient3688-464-309-8"
       id="radialGradient4095"
       fy="43.5"
       fx="4.9929786"
       r="2.5"
       cy="43.5"
       cx="4.9929786" />
    <linearGradient
       id="linearGradient3688-464-309-8">
      <stop
         offset="0"
         style="stop-color:#181818;stop-opacity:1"
         id="stop2889-9" />
      <stop
         offset="1"
         style="stop-color:#181818;stop-opacity:0"
         id="stop2891-4" />
    </linearGradient>
    <linearGradient
       gradientUnits="userSpaceOnUse"
       xlink:href="#linearGradient3702-501-757-0"
       id="linearGradient4097"
       y2="39.999443"
       x2="25.058096"
       y1="47.027729"
       x1="25.058096" />
    <linearGradient
       id="linearGradient3702-501-757-0">
      <stop
         offset="0"
         style="stop-color:#181818;stop-opacity:0"
         id="stop2895-0" />
      <stop
         offset="0.5"
         style="stop-color:#181818;stop-opacity:1"
         id="stop2897-2" />
      <stop
         offset="1"
         style="stop-color:#181818;stop-opacity:0"
         id="stop2899-6" />
    </linearGradient>
    <linearGradient
       id="linearGradient3811">
      <stop
         offset="0"
         style="stop-color:#000000;stop-opacity:1"
         id="stop3813" />
      <stop
         offset="1"
         style="stop-color:#000000;stop-opacity:0"
         id="stop3815" />
    </linearGradient>
    <radialGradient
       gradientTransform="matrix(1.5563924,0,0,0.16978827,70.270355,102.1321)"
       gradientUnits="userSpaceOnUse"
       xlink:href="#linearGradient3811"
       id="radialGradient4111"
       fy="93.467628"
       fx="-4.0287771"
       r="35.338131"
       cy="93.467628"
       cx="-4.0287771" />
    <radialGradient
       inkscape:collect="always"
       xlink:href="#linearGradient2867-449-88-871-390-598-476-591-434-148-57-177-8-3-3-6-4-8-8-8-5-7-8"
       id="radialGradient1151"
       gradientUnits="userSpaceOnUse"
       gradientTransform="matrix(0.01745098,12.162405,-14.02958,0.02013023,-710.81606,-1051.9977)"
       cx="84.006363"
       cy="-55.122822"
       fx="84.006363"
       fy="-55.122822"
       r="16" />
    <linearGradient
       x1="23.99999"
       y1="4.999989"
       x2="23.99999"
       y2="43"
       id="linearGradient3180"
       xlink:href="#linearGradient3924"
       gradientUnits="userSpaceOnUse"
       gradientTransform="matrix(2.6602317,0,0,2.6673831,-148.86258,-72.495979)" />
    <linearGradient
       inkscape:collect="always"
       id="linearGradient890">
      <stop
         style="stop-color:#6a9bed;stop-opacity:1"
         offset="0"
         id="stop886" />
      <stop
         id="stop894"
         offset="0.28305084"
         style="stop-color:#b074de;stop-opacity:1" />
      <stop
         style="stop-color:#fe688a;stop-opacity:1"
         offset="0.67949152"
         id="stop896-3" />
      <stop
         style="stop-color:#fda461;stop-opacity:1"
         offset="1"
         id="stop888" />
    </linearGradient>
    <radialGradient
       cx="4.9929786"
       cy="43.5"
       r="2.5"
       fx="4.9929786"
       fy="43.5"
       id="radialGradient3337-2-2"
       xlink:href="#linearGradient3688-166-749-5"
       gradientUnits="userSpaceOnUse"
       gradientTransform="matrix(2.003784,0,0,1.4,27.98813,-17.4)" />
    <radialGradient
       cx="4.9929786"
       cy="43.5"
       r="2.5"
       fx="4.9929786"
       fy="43.5"
       id="radialGradient3339-1-4"
       xlink:href="#linearGradient3688-166-749-5"
       gradientUnits="userSpaceOnUse"
       gradientTransform="matrix(2.003784,0,0,1.4,-20.01187,-104.4)" />
    <linearGradient
       inkscape:collect="always"
       xlink:href="#linearGradient1094"
       id="linearGradient950"
       x1="12.499988"
       y1="67.001808"
       x2="115.49999"
       y2="67.001808"
       gradientUnits="userSpaceOnUse"
       gradientTransform="translate(-127.99998)" />
    <linearGradient
       x1="23.99999"
       y1="4.999989"
       x2="23.99999"
       y2="43"
       id="linearGradient3180-6"
       xlink:href="#linearGradient3924"
       gradientUnits="userSpaceOnUse"
       gradientTransform="matrix(2.6602317,0,0,2.6673831,-201.91272,-7.1706059)" />
    <radialGradient
       cx="4.9929786"
       cy="43.5"
       r="2.5"
       fx="4.9929786"
       fy="43.5"
       id="radialGradient3337-2-2-7"
       xlink:href="#linearGradient3688-166-749-5"
       gradientUnits="userSpaceOnUse"
       gradientTransform="matrix(2.003784,0,0,1.4,27.98813,-17.4)" />
    <radialGradient
       cx="4.9929786"
       cy="43.5"
       r="2.5"
       fx="4.9929786"
       fy="43.5"
       id="radialGradient3339-1-4-9"
       xlink:href="#linearGradient3688-166-749-5"
       gradientUnits="userSpaceOnUse"
       gradientTransform="matrix(2.003784,0,0,1.4,-20.01187,-104.4)" />
    <linearGradient
       gradientUnits="userSpaceOnUse"
       gradientTransform="matrix(0.97462589,0,0,1.0260347,48.682926,-56.556768)"
       y2="51.655518"
       y1="27.452364"
       x2="46.896217"
       x1="11.203525"
       id="linearGradient1094">
      <stop
         id="stop1090"
         stop-color="#21D789"
         offset="0%"
         style="stop-color:#087cfa;stop-opacity:1" />
      <stop
         offset="0.5"
         stop-color="#21D789"
         id="stop1096"
         style="stop-color:#07c3f2;stop-opacity:1" />
      <stop
         id="stop1092"
         stop-color="#FCF84A"
         offset="100%" />
    </linearGradient>
  </defs>
  <metadata
     id="metadata4118">
    <rdf:RDF>
      <cc:Work
         rdf:about="">
        <dc:format>image/svg+xml</dc:format>
        <dc:type
           rdf:resource="http://purl.org/dc/dcmitype/StillImage" />
        <dc:title />
      </cc:Work>
    </rdf:RDF>
  </metadata>
  <path
     d="m 119,118.00181 a 55,6 0 0 1 -109.9999982,0 55,6 0 1 1 109.9999982,0 z"
     id="path3041"
     style="color:#000000;display:inline;overflow:visible;visibility:visible;opacity:0.2;fill:url(#radialGradient4111);fill-opacity:1;fill-rule:nonzero;stroke:none;stroke-width:1;marker:none;enable-background:accumulate" />
  <g
     transform="matrix(2.6999989,0,0,0.55555607,-0.80000812,94.890691)"
     id="g2036"
     style="display:inline">
    <g
       transform="matrix(1.052632,0,0,1.285713,-1.263158,-13.42854)"
       id="g3712"
       style="opacity:0.4">
      <rect
         width="5"
         height="7"
         x="38"
         y="40"
         id="rect2801"
         style="fill:url(#radialGradient4093);fill-opacity:1;stroke:none" />
      <rect
         width="5"
         height="7"
         x="-10"
         y="-47"
         transform="scale(-1,-1)"
         id="rect3696"
         style="fill:url(#radialGradient4095);fill-opacity:1;stroke:none" />
      <rect
         width="28"
         height="7.0000005"
         x="10"
         y="40"
         id="rect3700"
         style="fill:url(#linearGradient4097);fill-opacity:1;stroke:none" />
    </g>
  </g>
  <rect
     width="103"
     height="103"
     rx="6.0545406"
     ry="6.0545406"
     x="-115.49998"
     y="15.501808"
     id="rect5505-21-3"
     style="color:#000000;display:inline;overflow:visible;visibility:visible;opacity:0.9;fill:url(#linearGradient950);fill-opacity:1.0;fill-rule:nonzero;stroke:none;stroke-width:0.99999994;marker:none;enable-background:accumulate"
     transform="scale(-1,1)" />
  <rect
     width="101"
     height="101"
     rx="5"
     ry="5"
     x="13.499988"
     y="16.501808"
     id="rect6741-7"
     style="opacity:0.3;fill:none;stroke:url(#linearGradient4136);stroke-width:0.99999994;stroke-linecap:round;stroke-linejoin:round;stroke-miterlimit:4;stroke-dasharray:none;stroke-dashoffset:0;stroke-opacity:1" />
  <rect
     width="103"
     height="103"
     rx="6.0545406"
     ry="6.0545406"
     x="12.499988"
     y="15.501808"
     id="rect5505-21-3-1"
     style="color:#000000;display:inline;overflow:visible;visibility:visible;opacity:0.5;fill:none;stroke:#087cfa;stroke-width:1;stroke-linecap:round;stroke-linejoin:round;stroke-miterlimit:4;stroke-dasharray:none;stroke-dashoffset:0;stroke-opacity:1;marker:none;enable-background:accumulate" />
  <g
     id="g1308"
     transform="translate(-1.2388184e-5)">
    <path
       inkscape:connector-curvature="0"
       id="rect4335-1"
       d="m 22.328119,24.002 c -1.27252,0 -2.32813,1.05562 -2.32813,2.32813 v 83.3457 c 0,1.27273 1.05636,2.32617 2.32813,2.32617 h 83.343751 c 1.27198,0 2.32812,-1.05417 2.32812,-2.32617 v -83.3457 c 0,-1.27171 -1.05516,-2.32813 -2.32812,-2.32813 z"
       style="color:#000000;font-style:normal;font-variant:normal;font-weight:normal;font-stretch:normal;font-size:medium;line-height:normal;font-family:sans-serif;font-variant-ligatures:normal;font-variant-position:normal;font-variant-caps:normal;font-variant-numeric:normal;font-variant-alternates:normal;font-feature-settings:normal;text-indent:0;text-align:start;text-decoration:none;text-decoration-line:none;text-decoration-style:solid;text-decoration-color:#000000;letter-spacing:normal;word-spacing:normal;text-transform:none;writing-mode:lr-tb;direction:ltr;text-orientation:mixed;dominant-baseline:auto;baseline-shift:baseline;text-anchor:start;white-space:normal;shape-padding:0;clip-rule:nonzero;display:inline;overflow:visible;visibility:visible;opacity:0.15;isolation:auto;mix-blend-mode:normal;color-interpolation:sRGB;color-interpolation-filters:linearRGB;solid-color:#000000;solid-opacity:1;vector-effect:none;fill:#000000;fill-opacity:1;fill-rule:nonzero;stroke:none;stroke-width:2;stroke-linecap:butt;stroke-linejoin:miter;stroke-miterlimit:4;stroke-dasharray:none;stroke-dashoffset:0;stroke-opacity:1;color-rendering:auto;image-rendering:auto;shape-rendering:auto;text-rendering:auto;enable-background:accumulate" />
    <path
       inkscape:connector-curvature="0"
       id="rect4335-1-9"
       d="m 22.327999,25.00201 c -0.73557,0 -1.32801,0.59244 -1.32801,1.328 V 109.674 c 0,0.73637 0.59244,1.32799 1.32801,1.32799 h 83.343991 c 0.73636,0 1.328,-0.59162 1.328,-1.32799 V 26.33001 c 0,-0.7353 -0.59164,-1.328 -1.328,-1.328 z"
       style="color:#000000;opacity:0.3;fill:#000000;fill-opacity:1;stroke-width:2.68749976" />
    <path
       inkscape:connector-curvature="0"
       id="rect4335"
       d="m 22.327999,24.00178 c -0.73557,0 -1.32801,0.59244 -1.32801,1.328 v 83.34399 c 0,0.73637 0.59244,1.32799 1.32801,1.32799 h 83.343991 c 0.73636,0 1.328,-0.59162 1.328,-1.32799 V 25.32978 c 0,-0.7353 -0.59164,-1.328 -1.328,-1.328 z"
       style="color:#000000;fill:url(#radialGradient1151);fill-opacity:1;stroke-width:2.68749976" />
  </g>
  <g
     id="g1055"
     transform="translate(-121.41513,-40.444339)">
    <path
       inkscape:connector-curvature="0"
       d="m 151.52646,133.59276 v 7.19336 h 1 32.14453 v -7.19336 z m 55.04883,-57.486326 c -3.78782,0 -7.10519,1.115311 -9.49609,3.148437 -2.39091,2.033127 -3.81446,4.997159 -3.81446,8.453125 v 0.107422 c 0,3.707488 1.31253,6.343576 3.55664,8.101563 2.24412,1.757989 5.27947,2.706269 8.85547,3.619139 2.90376,0.74234 4.6094,1.37733 5.44336,1.92774 0.83396,0.5504 0.88867,0.79609 0.88867,1.56836 v 0.0996 c 0,0.72365 -0.2545,1.17717 -0.89648,1.59766 -0.64199,0.42049 -1.7286,0.72266 -3.18164,0.72266 -3.73756,0 -6.79979,-1.51746 -9.85938,-4.04102 l -0.76757,-0.63086 -5.21094,6.23633 0.67578,0.56445 -0.0664,0.0781 c 0.0294,0.0262 0.0603,0.0501 0.0898,0.0762 l -0.59766,0.66992 c 4.41163,3.93618 10.03004,5.875 15.58789,5.875 3.966,0 7.42702,-1.02048 9.93164,-3.05469 2.50463,-2.0342 3.98242,-5.09856 3.98242,-8.8457 v -0.0977 c 0,-3.28295 -1.15276,-5.821056 -3.24804,-7.632818 -2.09528,-1.811761 -5.0242,-2.941821 -8.65625,-3.888671 h -0.002 l -0.002,-0.002 c -3.01972,-0.770663 -4.8765,-1.365598 -5.81055,-1.917969 -0.93404,-0.552372 -1.02539,-0.79705 -1.02539,-1.734375 v -0.09961 c 0,-0.551151 0.20162,-0.97378 0.73828,-1.363281 0.53666,-0.3895 1.45696,-0.701172 2.78711,-0.701172 2.66922,0 5.55593,1.193713 8.57227,3.289063 l 0.82226,0.572265 5.11719,-7.421875 -0.72461,-0.582031 c -3.73299,-2.998134 -8.35201,-4.693359 -13.68945,-4.693359 z m -57.44141,0.394531 10.39649,37.296875 h 0.75781 7.2168 l 4.875,-17.238281 4.8125,17.238281 h 8.0625 l 10.38476,-37.296875 h -10.12109 l -4.41211,17.310547 -5.05273,-17.310547 h -7.33204 l -5.05664,17.300781 -4.40625,-17.300781 z"
       style="opacity:0.15;fill:#000000;fill-opacity:1;fill-rule:evenodd;stroke:none;stroke-width:2.07610989;stroke-opacity:1"
       id="polygon50-7-1" />
    <g
       style="opacity:0.3;fill:#000000;fill-opacity:1;stroke:none;stroke-opacity:1"
       id="g887-9-0"
       transform="matrix(2.0761098,0,0,2.0761098,119.15119,42.208568)">
      <path
         d="m 35.4277,31.5254 2.203,-2.637 c 1.524,1.257 3.123,2.056 5.056,2.056 1.527,0 2.446,-0.605 2.446,-1.599 v -0.048 c 0,-0.942 -0.581,-1.427 -3.413,-2.151 -3.412,-0.871 -5.616,-1.818 -5.616,-5.179 v -0.051 c 0,-3.071 2.47,-5.107 5.93,-5.107 2.47,0 4.575,0.776 6.292,2.155 l -1.936,2.808 c -1.5,-1.042 -2.976,-1.67 -4.403,-1.67 -1.428,0 -2.18,0.652 -2.18,1.476 v 0.048 c 0,1.113 0.728,1.479 3.655,2.226 3.437,0.896 5.373,2.132 5.373,5.084 v 0.047 c 0,3.365 -2.565,5.25 -6.22,5.25 -2.565,0 -5.155,-0.895 -7.187,-2.708"
         id="path46-1-9"
         inkscape:connector-curvature="0"
         style="fill:#000000;fill-opacity:1;fill-rule:evenodd;stroke:none;stroke-opacity:1" />
      <polygon
         points="17.798,14.679 14.971,5 12.161,5 9.334,14.679 6.867,5 3,5 7.738,22 10.851,22 13.566,12.398 16.247,22 19.398,22 24.131,5 20.265,5 "
         id="polygon48-2-3"
         style="fill:#000000;fill-opacity:1;fill-rule:evenodd;stroke:none;stroke-opacity:1"
         transform="translate(12,12)" />
      <polygon
         points="4,32.5 4,35 19,35 19,32.5 "
         id="polygon50-7-6"
         style="fill:#000000;fill-opacity:1;fill-rule:evenodd;stroke:none;stroke-opacity:1"
         transform="translate(12,12)" />
    </g>
    <g
       id="g887"
       transform="matrix(2.0761098,0,0,2.0761098,119.15119,41.208839)">
      <path
         d="m 35.4277,31.5254 2.203,-2.637 c 1.524,1.257 3.123,2.056 5.056,2.056 1.527,0 2.446,-0.605 2.446,-1.599 v -0.048 c 0,-0.942 -0.581,-1.427 -3.413,-2.151 -3.412,-0.871 -5.616,-1.818 -5.616,-5.179 v -0.051 c 0,-3.071 2.47,-5.107 5.93,-5.107 2.47,0 4.575,0.776 6.292,2.155 l -1.936,2.808 c -1.5,-1.042 -2.976,-1.67 -4.403,-1.67 -1.428,0 -2.18,0.652 -2.18,1.476 v 0.048 c 0,1.113 0.728,1.479 3.655,2.226 3.437,0.896 5.373,2.132 5.373,5.084 v 0.047 c 0,3.365 -2.565,5.25 -6.22,5.25 -2.565,0 -5.155,-0.895 -7.187,-2.708"
         id="path46"
         inkscape:connector-curvature="0"
         style="fill:#ffffff;fill-rule:evenodd" />
      <polygon
         points="9.334,14.679 6.867,5 3,5 7.738,22 10.851,22 13.566,12.398 16.247,22 19.398,22 24.131,5 20.265,5 17.798,14.679 14.971,5 12.161,5 "
         id="polygon48"
         style="fill:#ffffff;fill-rule:evenodd"
         transform="translate(12,12)" />
      <polygon
         points="19,35 19,32.5 4,32.5 4,35 "
         id="polygon50"
         style="fill:#ffffff;fill-rule:evenodd"
         transform="translate(12,12)" />
    </g>
  </g>
</svg>
