<?xml version="1.0" encoding="UTF-8" standalone="no"?>
<svg
   xmlns:dc="http://purl.org/dc/elements/1.1/"
   xmlns:cc="http://creativecommons.org/ns#"
   xmlns:rdf="http://www.w3.org/1999/02/22-rdf-syntax-ns#"
   xmlns:svg="http://www.w3.org/2000/svg"
   xmlns="http://www.w3.org/2000/svg"
   xmlns:xlink="http://www.w3.org/1999/xlink"
   xmlns:sodipodi="http://sodipodi.sourceforge.net/DTD/sodipodi-0.dtd"
   xmlns:inkscape="http://www.inkscape.org/namespaces/inkscape"
   width="128"
   height="128"
   viewBox="0 0 48 48"
   version="1.1"
   id="svg46"
   sodipodi:docname="android-studio_128.svg"
   inkscape:version="0.92.3 (2405546, 2018-03-11)">
  <metadata
     id="metadata50">
    <rdf:RDF>
      <cc:Work
         rdf:about="">
        <dc:format>image/svg+xml</dc:format>
        <dc:type
           rdf:resource="http://purl.org/dc/dcmitype/StillImage" />
      </cc:Work>
    </rdf:RDF>
  </metadata>
  <sodipodi:namedview
     pagecolor="#ffffff"
     bordercolor="#666666"
     borderopacity="1"
     objecttolerance="10"
     gridtolerance="10"
     guidetolerance="10"
     inkscape:pageopacity="0"
     inkscape:pageshadow="2"
     inkscape:window-width="1366"
     inkscape:window-height="705"
     id="namedview48"
     showgrid="false"
     inkscape:zoom="27.812867"
     inkscape:cx="76.13725"
     inkscape:cy="31.431047"
     inkscape:window-x="0"
     inkscape:window-y="30"
     inkscape:window-maximized="1"
     inkscape:current-layer="svg46"
     showguides="false" />
  <defs
     id="defs26">
    <linearGradient
       id="linearGradient4212">
      <stop
         style="stop-color:#000000;stop-opacity:1;"
         offset="0"
         id="stop2" />
      <stop
         style="stop-color:#000000;stop-opacity:0;"
         offset="1"
         id="stop4" />
    </linearGradient>
    <linearGradient
       id="linearGradient4198">
      <stop
         style="stop-color:#272b2d;stop-opacity:1;"
         offset="0"
         id="stop7" />
      <stop
         style="stop-color:#3e4447;stop-opacity:1"
         offset="1"
         id="stop9" />
    </linearGradient>
    <linearGradient
       id="linearGradient4185">
      <stop
         style="stop-color:#acacac;stop-opacity:1"
         offset="0"
         id="stop12" />
      <stop
         style="stop-color:#cbcbcb;stop-opacity:1"
         offset="1"
         id="stop14" />
    </linearGradient>
    <linearGradient
       id="linearGradient4144">
      <stop
         style="stop-color:#3b962d;stop-opacity:1"
         offset="0"
         id="stop17" />
      <stop
         style="stop-color:#93d169;stop-opacity:1"
         offset="1"
         id="stop19" />
    </linearGradient>
    <linearGradient
       xlink:href="#linearGradient4144"
       id="linearGradient4150"
       x1="25"
       y1="1046.362"
       x2="25"
       y2="1010.362"
       gradientUnits="userSpaceOnUse"
       gradientTransform="matrix(1.0833334,0,0,1.0833334,-1.8126673,-1089.1213)" />
    <radialGradient
       xlink:href="#linearGradient4185"
       id="radialGradient4191"
       cx="24"
       cy="1025.362"
       fx="24"
       fy="1025.362"
       r="2"
       gradientTransform="matrix(1.0833405,0,0,1.0830886,-1.8127099,-1088.4643)"
       gradientUnits="userSpaceOnUse" />
    <linearGradient
       xlink:href="#linearGradient4198"
       id="linearGradient4204"
       x1="24"
       y1="1032.362"
       x2="24"
       y2="1018.362"
       gradientUnits="userSpaceOnUse"
       gradientTransform="matrix(1.0833405,0,0,1.0832245,-1.8127099,-1088.6037)" />
    <linearGradient
       xlink:href="#linearGradient4212"
       id="linearGradient4218"
       x1="20"
       y1="17"
       x2="38"
       y2="35"
       gradientUnits="userSpaceOnUse"
       gradientTransform="translate(-46.45332,-2.1572749)" />
    <linearGradient
       x1="71.204407"
       y1="6.2375584"
       x2="71.204407"
       y2="44.340794"
       id="linearGradient3019"
       xlink:href="#linearGradient4011"
       gradientUnits="userSpaceOnUse"
       gradientTransform="matrix(1.054054,0,0,1.054054,-51.611001,-2.7278993)" />
    <linearGradient
       id="linearGradient4011">
      <stop
         id="stop4013"
         style="stop-color:#ffffff;stop-opacity:1"
         offset="0" />
      <stop
         id="stop4015"
         style="stop-color:#ffffff;stop-opacity:0.23529412"
         offset="0.507761" />
      <stop
         id="stop4017"
         style="stop-color:#ffffff;stop-opacity:0.15686275"
         offset="0.83456558" />
      <stop
         id="stop4019"
         style="stop-color:#ffffff;stop-opacity:0.39215687"
         offset="1" />
    </linearGradient>
    <radialGradient
       xlink:href="#linearGradient4185"
       id="radialGradient4191-2"
       cx="24"
       cy="1025.3621"
       fx="24"
       fy="1025.3621"
       r="2"
       gradientTransform="matrix(1.1388889,0,0,1.138746,-22.045197,-1091.085)"
       gradientUnits="userSpaceOnUse" />
    <linearGradient
       xlink:href="#linearGradient4144"
       id="linearGradient4150-2"
       x1="25"
       y1="1046.3621"
       x2="25"
       y2="1010.362"
       gradientUnits="userSpaceOnUse"
       gradientTransform="matrix(1.1388889,0,0,1.1388889,-48.994349,-1150.7231)" />
    <linearGradient
       xlink:href="#linearGradient4144"
       id="linearGradient4150-23"
       x1="25"
       y1="1046.3621"
       x2="25"
       y2="1010.362"
       gradientUnits="userSpaceOnUse"
       gradientTransform="matrix(1.1388889,0,0,1.1388889,-25.463694,-1085.9672)" />
    <radialGradient
       xlink:href="#linearGradient4185"
       id="radialGradient4191-28"
       cx="24"
       cy="1025.3621"
       fx="24"
       fy="1025.3621"
       r="2"
       gradientTransform="matrix(1.1388889,0,0,1.138746,-25.463695,-1085.8206)"
       gradientUnits="userSpaceOnUse" />
    <linearGradient
       xlink:href="#linearGradient4144"
       id="linearGradient4150-23-8"
       x1="25"
       y1="1046.3621"
       x2="25"
       y2="1010.362"
       gradientUnits="userSpaceOnUse"
       gradientTransform="matrix(1.1388889,0,0,1.1388889,45.439239,-1092.5824)" />
    <linearGradient
       xlink:href="#linearGradient4144"
       id="linearGradient4150-23-2"
       x1="25"
       y1="1046.3621"
       x2="25"
       y2="1010.362"
       gradientUnits="userSpaceOnUse"
       gradientTransform="matrix(1.1388889,0,0,1.1388889,-25.463694,-1085.9673)" />
    <radialGradient
       xlink:href="#linearGradient4185"
       id="radialGradient4191-4"
       cx="24"
       cy="1025.3621"
       fx="24"
       fy="1025.3621"
       r="2"
       gradientTransform="matrix(1.1388889,0,0,1.138746,-8.7184604,-1106.59)"
       gradientUnits="userSpaceOnUse" />
    <radialGradient
       xlink:href="#linearGradient4212"
       id="radialGradient3300-8"
       gradientUnits="userSpaceOnUse"
       gradientTransform="matrix(0.3823536,7.5555777e-8,-1.8372241e-8,0.1115198,-5.9254271,36.335849)"
       cx="99.189415"
       cy="185.29727"
       fx="99.189415"
       fy="185.29727"
       r="62.769119" />
    <radialGradient
       xlink:href="#linearGradient4212"
       id="radialGradient4192-6"
       gradientUnits="userSpaceOnUse"
       gradientTransform="matrix(0.2549024,5.3967361e-8,-1.2248161e-8,0.07965545,6.7163816,44.240666)"
       cx="99.189415"
       cy="185.29727"
       fx="99.189415"
       fy="185.29727"
       r="62.769119" />
    <radialGradient
       gradientTransform="matrix(0.6168591,0,0,0.20491803,-5.3370623,37.707954)"
       gradientUnits="userSpaceOnUse"
       xlink:href="#linearGradient4212"
       id="radialGradient4284"
       fy="44.129044"
       fx="23.668133"
       r="6.0999999"
       cy="44.129044"
       cx="23.668133" />
    <radialGradient
       gradientTransform="matrix(0.6168591,0,0,0.20491803,23.962938,37.708076)"
       gradientUnits="userSpaceOnUse"
       xlink:href="#linearGradient4212"
       id="radialGradient4284-3"
       fy="44.129044"
       fx="23.668133"
       r="6.0999999"
       cy="44.129044"
       cx="23.668133" />
    <radialGradient
       cx="4.9929786"
       cy="43.5"
       r="2.5"
       fx="4.9929786"
       fy="43.5"
       id="radialGradient3013"
       xlink:href="#linearGradient3688-166-749"
       gradientUnits="userSpaceOnUse"
       gradientTransform="matrix(2.003784,0,0,1.4,27.98813,-17.4)" />
    <linearGradient
       id="linearGradient3688-166-749">
      <stop
         id="stop2883"
         style="stop-color:#181818;stop-opacity:1"
         offset="0" />
      <stop
         id="stop2885"
         style="stop-color:#181818;stop-opacity:0"
         offset="1" />
    </linearGradient>
    <radialGradient
       cx="4.9929786"
       cy="43.5"
       r="2.5"
       fx="4.9929786"
       fy="43.5"
       id="radialGradient3015"
       xlink:href="#linearGradient3688-166-749"
       gradientUnits="userSpaceOnUse"
       gradientTransform="matrix(2.003784,0,0,1.4,-20.01187,-104.4)" />
    <linearGradient
       x1="25.058096"
       y1="47.027729"
       x2="25.058096"
       y2="39.999443"
       id="linearGradient3990"
       xlink:href="#linearGradient3702-501-757"
       gradientUnits="userSpaceOnUse" />
    <linearGradient
       id="linearGradient3702-501-757">
      <stop
         id="stop2895"
         style="stop-color:#181818;stop-opacity:0"
         offset="0" />
      <stop
         id="stop2897"
         style="stop-color:#181818;stop-opacity:1"
         offset="0.5" />
      <stop
         id="stop2899"
         style="stop-color:#181818;stop-opacity:0"
         offset="1" />
    </linearGradient>
    <radialGradient
       gradientTransform="matrix(0.6168591,0,0,0.20491803,23.926676,37.708076)"
       gradientUnits="userSpaceOnUse"
       xlink:href="#linearGradient4212"
       id="radialGradient4284-3-3"
       fy="44.26123"
       fx="24.059826"
       r="6.0999999"
       cy="44.26123"
       cx="24.059826" />
    <radialGradient
       gradientTransform="matrix(0.6168591,0,0,0.20491803,-5.3370623,37.707954)"
       gradientUnits="userSpaceOnUse"
       xlink:href="#linearGradient4212"
       id="radialGradient4284-5"
       fy="44.261826"
       fx="23.557255"
       r="6.0999999"
       cy="44.261826"
       cx="23.557255" />
    <radialGradient
       r="62.769119"
       fy="185.29727"
       fx="99.189415"
       cy="185.29727"
       cx="99.189415"
       gradientTransform="matrix(0.3823536,7.5555777e-8,-1.8372241e-8,0.1115198,-5.9254271,36.335849)"
       gradientUnits="userSpaceOnUse"
       id="radialGradient3300"
       xlink:href="#linearGradient4212" />
    <radialGradient
       r="62.769119"
       fy="185.29727"
       fx="99.189415"
       cy="185.29727"
       cx="99.189415"
       gradientTransform="matrix(0.2549024,5.3967361e-8,-1.2248161e-8,0.07965545,6.7163816,44.240666)"
       gradientUnits="userSpaceOnUse"
       id="radialGradient4192"
       xlink:href="#linearGradient4212" />
    <linearGradient
       xlink:href="#linearGradient4144"
       id="linearGradient4150-3"
       x1="25"
       y1="1046.3621"
       x2="25"
       y2="1010.362"
       gradientUnits="userSpaceOnUse"
       gradientTransform="matrix(1.2291667,0,0,1.2283248,-53.144067,-1179.1822)" />
    <radialGradient
       xlink:href="#linearGradient4185"
       id="radialGradient4191-1"
       cx="24"
       cy="1025.3621"
       fx="24"
       fy="1025.3621"
       r="2"
       gradientTransform="matrix(1.2291667,0,0,1.228159,-5.4998691,-1239.5589)"
       gradientUnits="userSpaceOnUse" />
    <radialGradient
       xlink:href="#linearGradient4185"
       id="radialGradient4191-1-7"
       cx="24"
       cy="1025.3621"
       fx="24"
       fy="1025.3621"
       r="2"
       gradientTransform="matrix(1.2291667,0,0,1.228159,14.127119,-1177.0579)"
       gradientUnits="userSpaceOnUse" />
    <linearGradient
       xlink:href="#linearGradient4144"
       id="linearGradient4150-3-0"
       x1="25"
       y1="1046.3621"
       x2="25"
       y2="1010.362"
       gradientUnits="userSpaceOnUse"
       gradientTransform="matrix(1.6388889,0,0,1.6377664,18.83616,-1567.3616)" />
    <radialGradient
       xlink:href="#linearGradient4185"
       id="radialGradient4191-1-7-1"
       cx="24"
       cy="1025.3621"
       fx="24"
       fy="1025.3621"
       r="2"
       gradientTransform="matrix(1.2291667,0,0,1.228159,-5.4998691,-1239.5589)"
       gradientUnits="userSpaceOnUse" />
    <linearGradient
       xlink:href="#linearGradient4144"
       id="linearGradient4150-3-0-3"
       x1="25"
       y1="1046.3621"
       x2="25"
       y2="1010.362"
       gradientUnits="userSpaceOnUse"
       gradientTransform="matrix(1.2291667,0,0,1.2283248,-64.73761,-1178.8775)" />
    <linearGradient
       xlink:href="#linearGradient4144"
       id="linearGradient4150-3-0-0"
       x1="25"
       y1="1046.3621"
       x2="25"
       y2="1010.362"
       gradientUnits="userSpaceOnUse"
       gradientTransform="matrix(1.2291667,0,0,1.2283248,14.12712,-1175.5212)" />
    <radialGradient
       xlink:href="#linearGradient4185"
       id="radialGradient4191-0"
       cx="24"
       cy="1025.3621"
       fx="24"
       fy="1025.3621"
       r="2"
       gradientTransform="matrix(1.2291667,0,0,1.228159,-5.4838393,-1240.6839)"
       gradientUnits="userSpaceOnUse" />
    <radialGradient
       xlink:href="#linearGradient4185"
       id="radialGradient4191-0-5"
       cx="24"
       cy="1025.3621"
       fx="24"
       fy="1025.3621"
       r="2"
       gradientTransform="matrix(1.6388889,0,0,1.6375453,-13.302218,-1605.2977)"
       gradientUnits="userSpaceOnUse" />
    <radialGradient
       xlink:href="#linearGradient4185"
       id="radialGradient4191-0-5-6"
       cx="24"
       cy="1025.3621"
       fx="24"
       fy="1025.3621"
       r="2"
       gradientTransform="matrix(1.2291667,0,0,1.228159,-9.9766629,-1203.2553)"
       gradientUnits="userSpaceOnUse" />
    <linearGradient
       xlink:href="#linearGradient4198"
       id="linearGradient4204-5"
       x1="24"
       y1="1032.3621"
       x2="24"
       y2="1018.362"
       gradientUnits="userSpaceOnUse"
       gradientTransform="matrix(1.2291667,0,0,1.2283131,11.380358,-1199.7085)" />
    <linearGradient
       xlink:href="#linearGradient4198"
       id="linearGradient4204-7"
       x1="24"
       y1="1032.3621"
       x2="24"
       y2="1018.362"
       gradientUnits="userSpaceOnUse"
       gradientTransform="matrix(1.2291667,0,0,1.2283131,11.380358,-1198.9582)" />
    <linearGradient
       xlink:href="#linearGradient4198"
       id="linearGradient4204-0"
       x1="24"
       y1="1032.3621"
       x2="24"
       y2="1018.362"
       gradientUnits="userSpaceOnUse"
       gradientTransform="matrix(1.6388889,0,0,1.6377508,57.169552,-1633.7108)" />
    <linearGradient
       xlink:href="#linearGradient4198"
       id="linearGradient4204-0-4"
       x1="24"
       y1="1032.3621"
       x2="24"
       y2="1018.362"
       gradientUnits="userSpaceOnUse"
       gradientTransform="matrix(1.2291667,0,0,1.2283131,42.877166,-1224.5331)" />
    <linearGradient
       y2="40.495617"
       x2="71.204407"
       y1="15.369057"
       x1="71.204407"
       gradientTransform="matrix(1.7451559,0,0,1.7451559,-101.95856,-24.632086)"
       gradientUnits="userSpaceOnUse"
       id="linearGradient3293"
       xlink:href="#linearGradient4806" />
    <linearGradient
       id="linearGradient4806">
      <stop
         offset="0"
         style="stop-color:#ffffff;stop-opacity:1"
         id="stop4808" />
      <stop
         offset="0.42447853"
         style="stop-color:#ffffff;stop-opacity:0.23529412"
         id="stop4810" />
      <stop
         offset="0.82089913"
         style="stop-color:#ffffff;stop-opacity:0.15686275"
         id="stop4812" />
      <stop
         offset="1"
         style="stop-color:#ffffff;stop-opacity:0.39215687"
         id="stop4814" />
    </linearGradient>
    <radialGradient
       xlink:href="#linearGradient3820-7-2-8-6"
       id="radialGradient3163"
       gradientUnits="userSpaceOnUse"
       gradientTransform="matrix(0.25760265,0,0,0.08048135,-1.4986165,25.714114)"
       cx="99.157013"
       cy="186.17059"
       fx="99.157013"
       fy="186.17059"
       r="62.769119" />
    <linearGradient
       id="linearGradient3820-7-2-8-6">
      <stop
         id="stop3822-2-6-5-0"
         style="stop-color:#3d3d3d;stop-opacity:1"
         offset="0" />
      <stop
         id="stop3864-8-7-4-1"
         style="stop-color:#686868;stop-opacity:0.49803922"
         offset="0.5" />
      <stop
         id="stop3824-1-2-6-7"
         style="stop-color:#686868;stop-opacity:0"
         offset="1" />
    </linearGradient>
    <linearGradient
       xlink:href="#linearGradient4144"
       id="linearGradient4150-36"
       x1="25"
       y1="1046.3621"
       x2="25"
       y2="1010.362"
       gradientUnits="userSpaceOnUse"
       gradientTransform="matrix(2.8888891,0,0,2.8888891,-31.503165,-2736.5768)" />
    <radialGradient
       xlink:href="#linearGradient4185"
       id="radialGradient4191-3"
       cx="24"
       cy="1025.3621"
       fx="24"
       fy="1025.3621"
       r="2"
       gradientTransform="matrix(1.0833405,0,0,1.0830886,-11.813729,-1025.5593)"
       gradientUnits="userSpaceOnUse" />
    <linearGradient
       xlink:href="#linearGradient4198"
       id="linearGradient4204-2"
       x1="24"
       y1="1032.3621"
       x2="24"
       y2="1018.362"
       gradientUnits="userSpaceOnUse"
       gradientTransform="matrix(1.0833405,0,0,1.0832245,-11.813729,-1025.6987)" />
    <linearGradient
       xlink:href="#linearGradient4144"
       id="linearGradient4150-36-8"
       x1="25"
       y1="1046.3621"
       x2="25"
       y2="1010.362"
       gradientUnits="userSpaceOnUse"
       gradientTransform="matrix(2.8888891,0,0,2.8888891,-31.503165,-2736.5765)" />
    <linearGradient
       gradientTransform="matrix(1.0337842,0,0,1.0337843,-49.969485,-1.276416)"
       gradientUnits="userSpaceOnUse"
       xlink:href="#linearGradient4011"
       id="linearGradient12398-3"
       y2="44.340794"
       x2="71.204407"
       y1="6.2375584"
       x1="71.204407" />
    <radialGradient
       xlink:href="#linearGradient4185"
       id="radialGradient4191-6"
       cx="24"
       cy="1025.3621"
       fx="24"
       fy="1025.3621"
       r="2"
       gradientTransform="matrix(2.888908,0,0,2.8882363,-14.825317,-2811.9296)"
       gradientUnits="userSpaceOnUse" />
    <radialGradient
       xlink:href="#linearGradient4185"
       id="radialGradient4191-31"
       cx="24"
       cy="1025.3621"
       fx="24"
       fy="1025.3621"
       r="2"
       gradientTransform="matrix(1.0833405,0,0,1.0830886,-5.5594937,-1054.0985)"
       gradientUnits="userSpaceOnUse" />
    <linearGradient
       xlink:href="#linearGradient4198"
       id="linearGradient4204-8"
       x1="24"
       y1="1032.3621"
       x2="24"
       y2="1018.362"
       gradientUnits="userSpaceOnUse"
       gradientTransform="matrix(2.888908,0,0,2.8885987,-5.0612125,-2815.6803)" />
    <linearGradient
       xlink:href="#linearGradient4198"
       id="linearGradient4204-8-1"
       x1="24"
       y1="1032.3621"
       x2="24"
       y2="1018.362"
       gradientUnits="userSpaceOnUse"
       gradientTransform="matrix(1.0833405,0,0,1.0832245,-1.8979555,-1055.505)" />
  </defs>
  <path
     inkscape:connector-curvature="0"
     style="fill:url(#radialGradient3163);fill-opacity:1;stroke:none;stroke-width:0.375"
     id="path3818-0-5-0"
     d="m 40.213984,40.69737 a 16.169492,5.051742 0 1 1 -32.3389835,0 16.169492,5.051742 0 1 1 32.3389835,0 z" />
  <circle
     id="circle28"
     cy="24.937531"
     cx="24.187332"
     style="opacity:1;fill:url(#linearGradient4150);fill-opacity:1;stroke:none;stroke-width:4.5555768;stroke-linecap:round;stroke-linejoin:round;stroke-miterlimit:4;stroke-dasharray:none;stroke-opacity:1"
     r="19.5" />
  <path
     inkscape:connector-curvature="0"
     d="M 43.3125,24.936806 C 43.3125,35.49961 34.749302,44.0625 24.187731,44.0625 13.625188,44.0625 5.0625,35.49951 5.0625,24.936806 c 0,-10.5623 8.562688,-19.124325 19.125231,-19.124325 10.561571,0 19.124769,8.562025 19.124769,19.124325 z"
     id="path8655-6-0-9-5-0"
     style="color:#000000;display:inline;overflow:visible;visibility:visible;opacity:0.5;fill:none;stroke:url(#linearGradient12398-3);stroke-width:0.37499994;stroke-linecap:round;stroke-linejoin:round;stroke-miterlimit:4;stroke-dasharray:none;stroke-dashoffset:0;stroke-opacity:1;marker:none;enable-background:accumulate" />
  <g
     id="g1242"
     transform="translate(10.001363,-62.905253)">
    <path
       id="circle28-2-2"
       transform="scale(0.375)"
       d="m 32.052734,206.94336 a 0.50005,0.50005 0 0 0 -0.5,0.5 v 0.0469 8.11915 h -2.765625 c -3.234632,0 -5.902343,2.6657 -5.902343,5.86914 v 14.14062 a 0.50005,0.50005 0 0 0 0.308593,0.46484 c 0.118606,0.49912 0.247016,0.99114 0.734375,1.47266 a 0.50005,0.50005 0 0 0 0.01953,0.0156 l 2.246093,1.98046 -20.7675778,35.96289 c 2.5326481,1.99229 5.2507738,3.75602 8.1269528,5.26172 l 9.285157,-16.08984 c 5.055121,2.50763 10.741686,3.91602 16.761718,3.91602 4.587648,0 9.632126,-0.8578 14.134766,-2.3379 l 8.375,14.50977 c 2.875,-1.50551 5.591371,-3.26999 8.123047,-5.26172 l -7.810547,-13.52344 c 1.756384,-1.20892 3.436287,-2.52964 4.943359,-4.00585 7.059294,-6.86935 11.488284,-16.77753 11.488282,-27.40626 a 0.50005,0.50005 0 0 0 -0.494141,-0.5 c -2.97772,-0.029 -6.117471,-0.002 -8.744141,-0.0312 a 0.50005,0.50005 0 0 0 -0.505859,0.5 c -0.004,11.46198 -3.296875,13.95265 -7.509766,18.875 -1.2566,1.44694 -2.68601,2.71677 -4.199218,3.875 l -7.931641,-13.74415 2.244141,-1.98046 a 0.50005,0.50005 0 0 0 0.02148,-0.0156 c 0.518616,-0.51246 0.650561,-1.00477 0.765625,-1.48828 a 0.50005,0.50005 0 0 0 0.275391,-0.44922 v -14.09375 a 0.50005,0.50005 0 0 0 0,-0.01 c -0.0512,-3.23581 -2.669911,-5.90626 -5.947266,-5.90624 h -2.71875 v -8.11915 -0.0469 a 0.50005,0.50005 0 0 0 -0.5,-0.5 h -5.802734 z m 1.53125,39.12891 1.191407,1.05273 c 0.775136,0.76622 1.788599,1.08444 2.771484,1.15039 0.0016,1e-4 0.0043,-10e-5 0.0059,0 a 0.50005,0.50005 0 0 0 0.234375,0.0996 c 0.0075,4e-5 0.01206,0.01 0.01953,0.01 a 0.50005,0.50005 0 0 0 0.02734,-0.004 0.50005,0.50005 0 0 0 0.01953,0.004 c 0.0056,0 0.01002,-0.004 0.01563,-0.004 a 0.50005,0.50005 0 0 0 0.246093,-0.10547 c 1.015659,-0.0655 2.042573,-0.38129 2.78125,-1.16016 l 1.175782,-1.03711 6.621093,11.46876 c -3.00628,0.81978 -6.281038,1.34374 -9.140625,1.34374 -4.238072,0 -8.224713,-1.05241 -11.761718,-2.77148 z"
       style="opacity:0.4;fill:#0b6926;fill-opacity:1;stroke:none;stroke-width:12.1482048;stroke-linecap:round;stroke-linejoin:round;stroke-miterlimit:4;stroke-dasharray:none;stroke-opacity:1"
       inkscape:connector-curvature="0" />
    <path
       id="circle28-2"
       transform="scale(0.375)"
       d="m 32.052734,207.44336 v 0.0449 8.6211 h -3.265625 c -2.959363,0 -5.40039,2.44386 -5.40039,5.36914 v 14.14257 h 0.04687 c -0.04701,0.46449 0.234968,0.9747 0.845703,1.57813 l 2.548828,2.24805 -21.0058594,36.38085 c 2.2870302,1.76393 4.7203214,3.34559 7.2832034,4.71876 l 9.509765,-16.47071 c 5.08878,2.6089 10.869137,4.02735 16.982422,4.02735 4.66499,0 9.853258,-0.83229 14.396485,-2.37891 l 8.558593,14.82227 c 2.56268,-1.37317 4.994397,-2.95684 7.28125,-4.72071 l -8.058593,-13.95703 c 1.88013,-1.26129 3.642518,-2.67714 5.238281,-4.24023 6.963488,-6.77463 11.339844,-16.56164 11.339844,-27.05274 -2.971096,-0.0289 -6.109514,-4.2e-4 -8.744141,-0.0293 -0.004,11.56113 -3.443848,14.3094 -7.628906,19.19921 -1.406158,1.62 -2.975286,3.07635 -4.699219,4.33985 l -8.451172,-14.63672 2.552734,-2.25 c 0.610675,-0.60343 0.845704,-1.16014 0.845704,-1.57813 h 0.04687 v -14.0957 c -0.04701,-2.9715 -2.442904,-5.41603 -5.449219,-5.41601 h -3.21875 v -8.6211 -0.0449 h -5.800781 z m 1.40625,37.85352 1.669922,1.47265 c 0.751592,0.74295 1.738265,1.11328 2.677735,1.11328 v -0.0449 l 0.04687,0.0449 c 0.986448,0 1.973123,-0.37033 2.677734,-1.11328 l 1.667969,-1.47265 7.291015,12.6289 c -3.224642,0.95119 -6.819575,1.46484 -9.939453,1.46484 -4.511864,0 -8.771501,-1.11336 -12.490234,-3.01171 z"
       style="opacity:0.6;fill:#0b6926;fill-opacity:1;stroke:none;stroke-width:12.1482048;stroke-linecap:round;stroke-linejoin:round;stroke-miterlimit:4;stroke-dasharray:none;stroke-opacity:1"
       inkscape:connector-curvature="0" />
  </g>
  <path
     d="m 24.187463,5.4373562 c -10.759435,0 -19.5000181,8.7405708 -19.5000181,19.4999988 0,10.759427 8.7405831,19.500003 19.5000181,19.500001 10.75943,0 19.500023,-8.740574 19.500012,-19.500001 0,-10.759428 -8.740582,-19.4999988 -19.500012,-19.4999988 z"
     id="path2555-6"
     style="color:#000000;clip-rule:nonzero;display:inline;overflow:visible;visibility:visible;opacity:0.5;isolation:auto;mix-blend-mode:normal;color-interpolation:sRGB;color-interpolation-filters:linearRGB;solid-color:#000000;solid-opacity:1;fill:none;fill-opacity:1;fill-rule:nonzero;stroke:#0b6926;stroke-width:0.375;stroke-linecap:round;stroke-linejoin:round;stroke-miterlimit:4;stroke-dasharray:none;stroke-dashoffset:0;stroke-opacity:1;marker:none;color-rendering:auto;image-rendering:auto;shape-rendering:auto;text-rendering:auto;enable-background:accumulate"
     inkscape:connector-curvature="0" />
  <g
     style="stroke-width:1.1342746"
     transform="matrix(0.96509089,0,0,0.96565817,1.1267787,1.6484077)"
     id="g966">
    <g
       style="opacity:0.1;stroke-width:1.56711602"
       id="g3712"
       transform="matrix(0.96814261,0,0,0.35714283,0.6592867,31.214287)">
      <rect
         style="fill:url(#radialGradient3013);fill-opacity:1;stroke:none;stroke-width:1.56711602"
         id="rect2801"
         y="40"
         x="38"
         height="7"
         width="5" />
      <rect
         style="fill:url(#radialGradient3015);fill-opacity:1;stroke:none;stroke-width:1.56711602"
         id="rect3696"
         transform="scale(-1)"
         y="-47"
         x="-10"
         height="7"
         width="5" />
      <rect
         style="fill:url(#linearGradient3990);fill-opacity:1;stroke:none;stroke-width:1.56711602"
         id="rect3700"
         y="40"
         x="10"
         height="7.0000005"
         width="28" />
    </g>
    <path
       style="color:#000000;display:inline;overflow:visible;visibility:visible;opacity:0.15;fill:url(#radialGradient4284-3-3);fill-opacity:1;fill-rule:nonzero;stroke:none;stroke-width:0.50111938;marker:none;enable-background:accumulate"
       id="path3964-5"
       d="m 42.289418,46.750911 a 3.7628405,1.25 0 0 1 -7.525679,0 3.7628405,1.25 0 1 1 7.525679,0 z"
       inkscape:connector-curvature="0" />
    <path
       style="color:#000000;display:inline;overflow:visible;visibility:visible;opacity:0.15;fill:url(#radialGradient4284-5);fill-opacity:1;fill-rule:nonzero;stroke:none;stroke-width:0.50111938;marker:none;enable-background:accumulate"
       id="path3964"
       d="m 13.02568,46.750789 a 3.7628405,1.25 0 0 1 -7.5256795,0 3.7628405,1.25 0 1 1 7.5256795,0 z"
       inkscape:connector-curvature="0" />
  </g>
  <path
     inkscape:connector-curvature="0"
     id="path34"
     style="opacity:1;fill:#dcdcdc;fill-opacity:1;stroke:none;stroke-width:4.55555534;stroke-linecap:round;stroke-linejoin:round;stroke-miterlimit:4;stroke-dasharray:none;stroke-opacity:1"
     d="m 23.427038,18.052429 -2.8146,1.624836 14.62515,25.328822 3.032256,2.001798 -0.217655,-3.626635 z" />
  <path
     inkscape:connector-curvature="0"
     id="path36"
     d="m 36.104206,23.167957 c 0,4.341888 -1.290416,5.371818 -2.860739,7.206584 -0.811617,0.935039 -1.764394,1.728934 -2.858318,2.328716 -1.482097,0.829208 -3.73541,1.287953 -5.552746,1.287953 -1.817325,0 -3.528797,-0.476401 -4.993246,-1.287953 -1.068398,-0.860514 -3.235079,2.389159 -1.799689,2.815193 2.011416,1.129151 4.340425,1.740415 6.810582,1.740415 2.470158,0 5.341019,-0.611264 7.352424,-1.740415 1.076288,-0.599783 2.064349,-1.340708 2.928908,-2.187574 2.611307,-2.540485 4.252199,-6.210775 4.252199,-10.144938 -1.114161,-0.01083 -2.291389,0 -3.279375,-0.01083 z"
     style="fill:#c3c3c3;fill-opacity:1;stroke-width:1.13888884" />
  <path
     inkscape:connector-curvature="0"
     id="path38"
     d="m 24.946842,18.052429 2.8146,1.624836 -14.625149,25.328822 -3.032258,2.001798 0.217656,-3.626635 z"
     style="opacity:1;fill:#c3c3c3;fill-opacity:1;stroke:none;stroke-width:4.55555534;stroke-linecap:round;stroke-linejoin:round;stroke-miterlimit:4;stroke-dasharray:none;stroke-opacity:1" />
  <path
     inkscape:connector-curvature="0"
     id="path40"
     d="m 27.56077,17.760825 h -1.206628 v -3.232558 -0.01733 h -2.175501 -2.15786 v 0.01733 3.232558 h -1.224259 c -1.109761,0 -2.025758,0.91695 -2.025758,2.01393 v 5.302927 h 0.01763 c -0.01763,0.174182 0.08805,0.365804 0.317076,0.59209 l 4.069112,3.588614 c 0.281847,0.278606 0.651769,0.417908 1.00407,0.417908 v -0.01733 l 0.01763,0.01733 c 0.369919,0 0.73984,-0.139302 1.004069,-0.417908 l 4.069113,-3.588614 c 0.229002,-0.226286 0.317075,-0.435348 0.317075,-0.59209 h 0.01763 v -5.285487 c -0.01763,-1.114313 -0.915997,-2.03137 -2.043365,-2.03137 z"
     style="fill:url(#linearGradient4204);fill-opacity:1;stroke-width:1.13888884" />
  <path
     inkscape:connector-curvature="0"
     id="path42"
     d="m 24.194531,24.260171 h -0.01413 v 0 c -1.185674,0 -2.159622,-0.964285 -2.159622,-2.152041 0,-1.187865 0.973948,-2.152151 2.159622,-2.152151 v -0.02816 l 0.01413,0.02816 c 1.185674,0.01408 2.159613,0.964286 2.159613,2.152151 0,1.187756 -0.973939,2.138069 -2.159613,2.152041 z"
     style="fill:url(#radialGradient4191);fill-opacity:1;stroke-width:1.13888884" />
  <path
     style="opacity:0.6;fill:#000000;fill-opacity:1;stroke-width:1.13888884"
     d="m 26.347787,22.300075 c -0.0963,1.098544 -1.027225,1.951129 -2.149658,1.964355 h -0.01392 c -1.122436,0 -2.054093,-0.86451 -2.150391,-1.964355 -0.0054,0.06197 -0.0095,0.124144 -0.0095,0.1875 0,1.187757 0.974238,2.151855 2.159912,2.151855 h 0.01392 c 1.185674,-0.01399 2.159912,-0.964098 2.159912,-2.151855 0,-0.06336 -0.0048,-0.125602 -0.01025,-0.1875 z"
     id="path42-9"
     inkscape:connector-curvature="0" />
  <path
     style="opacity:0.4;fill:#000000;fill-opacity:1;stroke:none;stroke-width:4.55555534;stroke-linecap:round;stroke-linejoin:round;stroke-miterlimit:4;stroke-dasharray:none;stroke-opacity:1"
     d="m 20.061175,26.509939 -0.143554,0.249022 2.487304,2.192873 0.143555,-0.248291 z m 8.251465,7.31e-4 -2.486572,2.192873 0.143555,0.249022 2.486572,-2.192869 z"
     id="path34-0"
     inkscape:connector-curvature="0" />
  <path
     style="opacity:0.4;fill:#000000;fill-opacity:1;stroke:none;stroke-width:4.55555534;stroke-linecap:round;stroke-linejoin:round;stroke-miterlimit:4;stroke-dasharray:none;stroke-opacity:1"
     d="m 33.166872,34.923111 c -0.313581,0.210289 -0.633273,0.412287 -0.964599,0.596925 -0.586721,0.32937 -1.251713,0.609158 -1.953369,0.848145 l 0.18164,0.31494 c 0.634781,-0.225682 1.235272,-0.486933 1.771729,-0.788085 0.386497,-0.215385 0.757023,-0.455137 1.11914,-0.705322 z"
     id="path34-2"
     inkscape:connector-curvature="0" />
</svg>
