<?xml version="1.0" encoding="UTF-8" standalone="no"?>
<svg
   xmlns:dc="http://purl.org/dc/elements/1.1/"
   xmlns:cc="http://creativecommons.org/ns#"
   xmlns:rdf="http://www.w3.org/1999/02/22-rdf-syntax-ns#"
   xmlns:svg="http://www.w3.org/2000/svg"
   xmlns="http://www.w3.org/2000/svg"
   xmlns:xlink="http://www.w3.org/1999/xlink"
   xmlns:sodipodi="http://sodipodi.sourceforge.net/DTD/sodipodi-0.dtd"
   xmlns:inkscape="http://www.inkscape.org/namespaces/inkscape"
   width="64"
   height="64"
   viewBox="0 0 48 48"
   version="1.1"
   id="svg46"
   sodipodi:docname="android-studio_64.svg"
   inkscape:version="0.92.3 (2405546, 2018-03-11)">
  <metadata
     id="metadata50">
    <rdf:RDF>
      <cc:Work
         rdf:about="">
        <dc:format>image/svg+xml</dc:format>
        <dc:type
           rdf:resource="http://purl.org/dc/dcmitype/StillImage" />
      </cc:Work>
    </rdf:RDF>
  </metadata>
  <sodipodi:namedview
     pagecolor="#ffffff"
     bordercolor="#666666"
     borderopacity="1"
     objecttolerance="10"
     gridtolerance="10"
     guidetolerance="10"
     inkscape:pageopacity="0"
     inkscape:pageshadow="2"
     inkscape:window-width="1366"
     inkscape:window-height="705"
     id="namedview48"
     showgrid="false"
     inkscape:zoom="4.9166667"
     inkscape:cx="24.799673"
     inkscape:cy="30.363416"
     inkscape:window-x="0"
     inkscape:window-y="30"
     inkscape:window-maximized="1"
     inkscape:current-layer="svg46"
     showguides="false" />
  <defs
     id="defs26">
    <linearGradient
       id="linearGradient4212">
      <stop
         style="stop-color:#000000;stop-opacity:1;"
         offset="0"
         id="stop2" />
      <stop
         style="stop-color:#000000;stop-opacity:0;"
         offset="1"
         id="stop4" />
    </linearGradient>
    <linearGradient
       id="linearGradient4198">
      <stop
         style="stop-color:#272b2d;stop-opacity:1;"
         offset="0"
         id="stop7" />
      <stop
         style="stop-color:#3e4447;stop-opacity:1"
         offset="1"
         id="stop9" />
    </linearGradient>
    <linearGradient
       id="linearGradient4185">
      <stop
         style="stop-color:#acacac;stop-opacity:1"
         offset="0"
         id="stop12" />
      <stop
         style="stop-color:#cbcbcb;stop-opacity:1"
         offset="1"
         id="stop14" />
    </linearGradient>
    <linearGradient
       id="linearGradient4144">
      <stop
         style="stop-color:#3b962d;stop-opacity:1"
         offset="0"
         id="stop17" />
      <stop
         style="stop-color:#93d169;stop-opacity:1"
         offset="1"
         id="stop19" />
    </linearGradient>
    <linearGradient
       xlink:href="#linearGradient4144"
       id="linearGradient4150"
       x1="25"
       y1="1046.362"
       x2="25"
       y2="1010.362"
       gradientUnits="userSpaceOnUse"
       gradientTransform="matrix(1.2291667,0,0,1.2283248,-5.4998691,-1239.1472)" />
    <radialGradient
       xlink:href="#linearGradient4185"
       id="radialGradient4191"
       cx="24"
       cy="1025.362"
       fx="24"
       fy="1025.362"
       r="2"
       gradientTransform="matrix(1.2291667,0,0,1.228159,-5.4998691,-1240.6839)"
       gradientUnits="userSpaceOnUse" />
    <linearGradient
       xlink:href="#linearGradient4198"
       id="linearGradient4204"
       x1="24"
       y1="1032.362"
       x2="24"
       y2="1018.362"
       gradientUnits="userSpaceOnUse"
       gradientTransform="matrix(1.2291667,0,0,1.2283131,-5.4998691,-1240.842)" />
    <linearGradient
       xlink:href="#linearGradient4212"
       id="linearGradient4218"
       x1="20"
       y1="17"
       x2="38"
       y2="35"
       gradientUnits="userSpaceOnUse"
       gradientTransform="translate(-46.45332,-2.1572749)" />
    <linearGradient
       x1="71.204407"
       y1="6.2375584"
       x2="71.204407"
       y2="44.340794"
       id="linearGradient3019"
       xlink:href="#linearGradient4011"
       gradientUnits="userSpaceOnUse"
       gradientTransform="matrix(1.054054,0,0,1.054054,-51.611001,-2.7278993)" />
    <linearGradient
       id="linearGradient4011">
      <stop
         id="stop4013"
         style="stop-color:#ffffff;stop-opacity:1"
         offset="0" />
      <stop
         id="stop4015"
         style="stop-color:#ffffff;stop-opacity:0.23529412"
         offset="0.507761" />
      <stop
         id="stop4017"
         style="stop-color:#ffffff;stop-opacity:0.15686275"
         offset="0.83456558" />
      <stop
         id="stop4019"
         style="stop-color:#ffffff;stop-opacity:0.39215687"
         offset="1" />
    </linearGradient>
    <radialGradient
       xlink:href="#linearGradient4185"
       id="radialGradient4191-2"
       cx="24"
       cy="1025.3621"
       fx="24"
       fy="1025.3621"
       r="2"
       gradientTransform="matrix(1.1388889,0,0,1.138746,-22.045197,-1091.085)"
       gradientUnits="userSpaceOnUse" />
    <linearGradient
       xlink:href="#linearGradient4144"
       id="linearGradient4150-2"
       x1="25"
       y1="1046.3621"
       x2="25"
       y2="1010.362"
       gradientUnits="userSpaceOnUse"
       gradientTransform="matrix(1.1388889,0,0,1.1388889,-48.994349,-1150.7231)" />
    <linearGradient
       xlink:href="#linearGradient4144"
       id="linearGradient4150-23"
       x1="25"
       y1="1046.3621"
       x2="25"
       y2="1010.362"
       gradientUnits="userSpaceOnUse"
       gradientTransform="matrix(1.1388889,0,0,1.1388889,-25.463694,-1085.9672)" />
    <radialGradient
       xlink:href="#linearGradient4185"
       id="radialGradient4191-28"
       cx="24"
       cy="1025.3621"
       fx="24"
       fy="1025.3621"
       r="2"
       gradientTransform="matrix(1.1388889,0,0,1.138746,-25.463695,-1085.8206)"
       gradientUnits="userSpaceOnUse" />
    <linearGradient
       xlink:href="#linearGradient4144"
       id="linearGradient4150-23-8"
       x1="25"
       y1="1046.3621"
       x2="25"
       y2="1010.362"
       gradientUnits="userSpaceOnUse"
       gradientTransform="matrix(1.1388889,0,0,1.1388889,45.439239,-1092.5824)" />
    <linearGradient
       xlink:href="#linearGradient4144"
       id="linearGradient4150-23-2"
       x1="25"
       y1="1046.3621"
       x2="25"
       y2="1010.362"
       gradientUnits="userSpaceOnUse"
       gradientTransform="matrix(1.1388889,0,0,1.1388889,-25.463694,-1085.9673)" />
    <radialGradient
       xlink:href="#linearGradient4185"
       id="radialGradient4191-4"
       cx="24"
       cy="1025.3621"
       fx="24"
       fy="1025.3621"
       r="2"
       gradientTransform="matrix(1.1388889,0,0,1.138746,-8.7184604,-1106.59)"
       gradientUnits="userSpaceOnUse" />
    <radialGradient
       xlink:href="#linearGradient4212"
       id="radialGradient3300-8"
       gradientUnits="userSpaceOnUse"
       gradientTransform="matrix(0.3823536,7.5555777e-8,-1.8372241e-8,0.1115198,-5.9254271,36.335849)"
       cx="99.189415"
       cy="185.29727"
       fx="99.189415"
       fy="185.29727"
       r="62.769119" />
    <radialGradient
       xlink:href="#linearGradient4212"
       id="radialGradient4192-6"
       gradientUnits="userSpaceOnUse"
       gradientTransform="matrix(0.2549024,5.3967361e-8,-1.2248161e-8,0.07965545,6.7163816,44.240666)"
       cx="99.189415"
       cy="185.29727"
       fx="99.189415"
       fy="185.29727"
       r="62.769119" />
    <radialGradient
       gradientTransform="matrix(0.6168591,0,0,0.20491803,-5.3370623,37.707954)"
       gradientUnits="userSpaceOnUse"
       xlink:href="#linearGradient4212"
       id="radialGradient4284"
       fy="44.129044"
       fx="23.668133"
       r="6.0999999"
       cy="44.129044"
       cx="23.668133" />
    <radialGradient
       gradientTransform="matrix(0.6168591,0,0,0.20491803,23.962938,37.708076)"
       gradientUnits="userSpaceOnUse"
       xlink:href="#linearGradient4212"
       id="radialGradient4284-3"
       fy="44.129044"
       fx="23.668133"
       r="6.0999999"
       cy="44.129044"
       cx="23.668133" />
    <radialGradient
       cx="4.9929786"
       cy="43.5"
       r="2.5"
       fx="4.9929786"
       fy="43.5"
       id="radialGradient3013"
       xlink:href="#linearGradient3688-166-749"
       gradientUnits="userSpaceOnUse"
       gradientTransform="matrix(2.003784,0,0,1.4,27.98813,-17.4)" />
    <linearGradient
       id="linearGradient3688-166-749">
      <stop
         id="stop2883"
         style="stop-color:#181818;stop-opacity:1"
         offset="0" />
      <stop
         id="stop2885"
         style="stop-color:#181818;stop-opacity:0"
         offset="1" />
    </linearGradient>
    <radialGradient
       cx="4.9929786"
       cy="43.5"
       r="2.5"
       fx="4.9929786"
       fy="43.5"
       id="radialGradient3015"
       xlink:href="#linearGradient3688-166-749"
       gradientUnits="userSpaceOnUse"
       gradientTransform="matrix(2.003784,0,0,1.4,-20.01187,-104.4)" />
    <linearGradient
       x1="25.058096"
       y1="47.027729"
       x2="25.058096"
       y2="39.999443"
       id="linearGradient3990"
       xlink:href="#linearGradient3702-501-757"
       gradientUnits="userSpaceOnUse" />
    <linearGradient
       id="linearGradient3702-501-757">
      <stop
         id="stop2895"
         style="stop-color:#181818;stop-opacity:0"
         offset="0" />
      <stop
         id="stop2897"
         style="stop-color:#181818;stop-opacity:1"
         offset="0.5" />
      <stop
         id="stop2899"
         style="stop-color:#181818;stop-opacity:0"
         offset="1" />
    </linearGradient>
    <radialGradient
       gradientTransform="matrix(0.6168591,0,0,0.20491803,23.926676,37.708076)"
       gradientUnits="userSpaceOnUse"
       xlink:href="#linearGradient4212"
       id="radialGradient4284-3-3"
       fy="44.26123"
       fx="24.059826"
       r="6.0999999"
       cy="44.26123"
       cx="24.059826" />
    <radialGradient
       gradientTransform="matrix(0.6168591,0,0,0.20491803,-5.3370623,37.707954)"
       gradientUnits="userSpaceOnUse"
       xlink:href="#linearGradient4212"
       id="radialGradient4284-5"
       fy="44.261826"
       fx="23.557255"
       r="6.0999999"
       cy="44.261826"
       cx="23.557255" />
    <radialGradient
       r="62.769119"
       fy="185.29727"
       fx="99.189415"
       cy="185.29727"
       cx="99.189415"
       gradientTransform="matrix(0.3823536,7.5555777e-8,-1.8372241e-8,0.1115198,-5.9254271,36.335849)"
       gradientUnits="userSpaceOnUse"
       id="radialGradient3300"
       xlink:href="#linearGradient4212" />
    <radialGradient
       r="62.769119"
       fy="185.29727"
       fx="99.189415"
       cy="185.29727"
       cx="99.189415"
       gradientTransform="matrix(0.2549024,5.3967361e-8,-1.2248161e-8,0.07965545,6.7163816,44.240666)"
       gradientUnits="userSpaceOnUse"
       id="radialGradient4192"
       xlink:href="#linearGradient4212" />
    <linearGradient
       xlink:href="#linearGradient4144"
       id="linearGradient4150-3"
       x1="25"
       y1="1046.3621"
       x2="25"
       y2="1010.362"
       gradientUnits="userSpaceOnUse"
       gradientTransform="matrix(1.2291667,0,0,1.2283248,-53.144067,-1179.1822)" />
    <radialGradient
       xlink:href="#linearGradient4185"
       id="radialGradient4191-1"
       cx="24"
       cy="1025.3621"
       fx="24"
       fy="1025.3621"
       r="2"
       gradientTransform="matrix(1.2291667,0,0,1.228159,-5.4998691,-1239.5589)"
       gradientUnits="userSpaceOnUse" />
    <radialGradient
       xlink:href="#linearGradient4185"
       id="radialGradient4191-1-7"
       cx="24"
       cy="1025.3621"
       fx="24"
       fy="1025.3621"
       r="2"
       gradientTransform="matrix(1.2291667,0,0,1.228159,14.127119,-1177.0579)"
       gradientUnits="userSpaceOnUse" />
    <linearGradient
       xlink:href="#linearGradient4144"
       id="linearGradient4150-3-0"
       x1="25"
       y1="1046.3621"
       x2="25"
       y2="1010.362"
       gradientUnits="userSpaceOnUse"
       gradientTransform="matrix(1.6388889,0,0,1.6377664,18.83616,-1567.3616)" />
    <radialGradient
       xlink:href="#linearGradient4185"
       id="radialGradient4191-1-7-1"
       cx="24"
       cy="1025.3621"
       fx="24"
       fy="1025.3621"
       r="2"
       gradientTransform="matrix(1.2291667,0,0,1.228159,-5.4998691,-1239.5589)"
       gradientUnits="userSpaceOnUse" />
    <linearGradient
       xlink:href="#linearGradient4144"
       id="linearGradient4150-3-0-3"
       x1="25"
       y1="1046.3621"
       x2="25"
       y2="1010.362"
       gradientUnits="userSpaceOnUse"
       gradientTransform="matrix(1.2291667,0,0,1.2283248,-64.73761,-1178.8775)" />
    <linearGradient
       xlink:href="#linearGradient4144"
       id="linearGradient4150-3-0-0"
       x1="25"
       y1="1046.3621"
       x2="25"
       y2="1010.362"
       gradientUnits="userSpaceOnUse"
       gradientTransform="matrix(1.2291667,0,0,1.2283248,14.12712,-1175.5212)" />
    <radialGradient
       xlink:href="#linearGradient4185"
       id="radialGradient4191-0"
       cx="24"
       cy="1025.3621"
       fx="24"
       fy="1025.3621"
       r="2"
       gradientTransform="matrix(1.2291667,0,0,1.228159,-5.4838393,-1240.6839)"
       gradientUnits="userSpaceOnUse" />
    <radialGradient
       xlink:href="#linearGradient4185"
       id="radialGradient4191-0-5"
       cx="24"
       cy="1025.3621"
       fx="24"
       fy="1025.3621"
       r="2"
       gradientTransform="matrix(1.6388889,0,0,1.6375453,-13.302218,-1605.2977)"
       gradientUnits="userSpaceOnUse" />
    <radialGradient
       xlink:href="#linearGradient4185"
       id="radialGradient4191-0-5-6"
       cx="24"
       cy="1025.3621"
       fx="24"
       fy="1025.3621"
       r="2"
       gradientTransform="matrix(1.2291667,0,0,1.228159,-9.9766629,-1203.2553)"
       gradientUnits="userSpaceOnUse" />
    <linearGradient
       xlink:href="#linearGradient4198"
       id="linearGradient4204-5"
       x1="24"
       y1="1032.3621"
       x2="24"
       y2="1018.362"
       gradientUnits="userSpaceOnUse"
       gradientTransform="matrix(1.2291667,0,0,1.2283131,11.380358,-1199.7085)" />
    <linearGradient
       xlink:href="#linearGradient4198"
       id="linearGradient4204-7"
       x1="24"
       y1="1032.3621"
       x2="24"
       y2="1018.362"
       gradientUnits="userSpaceOnUse"
       gradientTransform="matrix(1.2291667,0,0,1.2283131,11.380358,-1198.9582)" />
    <linearGradient
       xlink:href="#linearGradient4198"
       id="linearGradient4204-0"
       x1="24"
       y1="1032.3621"
       x2="24"
       y2="1018.362"
       gradientUnits="userSpaceOnUse"
       gradientTransform="matrix(1.6388889,0,0,1.6377508,57.169552,-1633.7108)" />
    <linearGradient
       xlink:href="#linearGradient4198"
       id="linearGradient4204-0-4"
       x1="24"
       y1="1032.3621"
       x2="24"
       y2="1018.362"
       gradientUnits="userSpaceOnUse"
       gradientTransform="matrix(1.2291667,0,0,1.2283131,42.877166,-1224.5331)" />
    <linearGradient
       y2="40.495617"
       x2="71.204407"
       y1="15.369057"
       x1="71.204407"
       gradientTransform="matrix(1.7451559,0,0,1.7451559,-101.95856,-24.632086)"
       gradientUnits="userSpaceOnUse"
       id="linearGradient3293"
       xlink:href="#linearGradient4806" />
    <linearGradient
       id="linearGradient4806">
      <stop
         offset="0"
         style="stop-color:#ffffff;stop-opacity:1"
         id="stop4808" />
      <stop
         offset="0.42447853"
         style="stop-color:#ffffff;stop-opacity:0.23529412"
         id="stop4810" />
      <stop
         offset="0.82089913"
         style="stop-color:#ffffff;stop-opacity:0.15686275"
         id="stop4812" />
      <stop
         offset="1"
         style="stop-color:#ffffff;stop-opacity:0.39215687"
         id="stop4814" />
    </linearGradient>
  </defs>
  <g
     transform="matrix(1.0949998,0,0,1.0949998,-2.164702,-4.5599906)"
     id="g966">
    <g
       style="opacity:0.1;stroke-width:1.38160193"
       id="g3712"
       transform="matrix(0.96814261,0,0,0.35714283,0.6592867,31.214287)">
      <rect
         style="fill:url(#radialGradient3013);fill-opacity:1;stroke:none;stroke-width:1.38160193"
         id="rect2801"
         y="40"
         x="38"
         height="7"
         width="5" />
      <rect
         style="fill:url(#radialGradient3015);fill-opacity:1;stroke:none;stroke-width:1.38160193"
         id="rect3696"
         transform="scale(-1)"
         y="-47"
         x="-10"
         height="7"
         width="5" />
      <rect
         style="fill:url(#linearGradient3990);fill-opacity:1;stroke:none;stroke-width:1.38160193"
         id="rect3700"
         y="40"
         x="10"
         height="7.0000005"
         width="28" />
    </g>
    <path
       style="color:#000000;display:inline;overflow:visible;visibility:visible;opacity:0.15;fill:url(#radialGradient4284-3-3);fill-opacity:1;fill-rule:nonzero;stroke:none;stroke-width:0.4417972;marker:none;enable-background:accumulate"
       id="path3964-5"
       d="m 42.289418,46.750911 a 3.7628405,1.25 0 0 1 -7.525679,0 3.7628405,1.25 0 1 1 7.525679,0 z"
       inkscape:connector-curvature="0" />
    <path
       style="color:#000000;display:inline;overflow:visible;visibility:visible;opacity:0.15;fill:url(#radialGradient4284-5);fill-opacity:1;fill-rule:nonzero;stroke:none;stroke-width:0.4417972;marker:none;enable-background:accumulate"
       id="path3964"
       d="m 13.02568,46.750789 a 3.7628405,1.25 0 0 1 -7.5256795,0 3.7628405,1.25 0 1 1 7.5256795,0 z"
       inkscape:connector-curvature="0" />
  </g>
  <g
     transform="matrix(0.75,0,0,0.75,1.1625e-6,-0.00137394)"
     id="g4198">
    <path
       inkscape:connector-curvature="0"
       style="opacity:0.2;fill:url(#radialGradient3300);fill-opacity:1;stroke:none"
       id="path3818-0"
       d="m 55.999998,57.0017 a 24,6.9985714 0 1 1 -47.9999991,0 24,6.9985714 0 1 1 47.9999991,0 z" />
    <path
       inkscape:connector-curvature="0"
       d="m 47.999998,59.0017 a 16,4.9988822 0 1 1 -31.999999,0 16,4.9988822 0 1 1 31.999999,0 z"
       id="path4190"
       style="opacity:0.4;fill:url(#radialGradient4192);fill-opacity:1;stroke:none" />
  </g>
  <ellipse
     id="circle28"
     cy="24.01536"
     cx="24.00013"
     style="opacity:1;fill:url(#linearGradient4150);fill-opacity:1;stroke:none;stroke-width:4.5555768;stroke-linecap:round;stroke-linejoin:round;stroke-miterlimit:4;stroke-dasharray:none;stroke-opacity:1"
     rx="22.125"
     ry="22.109846" />
  <path
     d="m 45.375008,24 c 0,11.805087 -9.569925,21.375 -21.375015,21.375 C 12.194919,45.375 2.625,35.805087 2.625,24 2.625,12.194914 12.194919,2.6249994 23.999993,2.6249994 35.805083,2.6249994 45.375008,12.194914 45.375008,24 Z"
     id="path3019"
     style="color:#000000;display:inline;overflow:visible;visibility:visible;opacity:0.5;fill:none;stroke:url(#linearGradient3293);stroke-width:0.75;stroke-linecap:round;stroke-linejoin:round;stroke-miterlimit:4;stroke-dasharray:none;stroke-dashoffset:0;stroke-opacity:1;marker:none;enable-background:accumulate"
     inkscape:connector-curvature="0" />
  <path
     d="m 24.000134,1.8752621 c -12.207741,0 -22.1248757,9.9171289 -22.1248757,22.1248709 0,12.207742 9.9171347,22.124876 22.1248757,22.124873 12.207735,0 22.124881,-9.917131 22.124869,-22.124873 0,-12.207742 -9.917134,-22.1248709 -22.124869,-22.1248709 z"
     id="path2555-6"
     style="color:#000000;clip-rule:nonzero;display:inline;overflow:visible;visibility:visible;opacity:0.5;isolation:auto;mix-blend-mode:normal;color-interpolation:sRGB;color-interpolation-filters:linearRGB;solid-color:#000000;solid-opacity:1;fill:none;fill-opacity:1;fill-rule:nonzero;stroke:#0b6926;stroke-width:0.75025618;stroke-linecap:round;stroke-linejoin:round;stroke-miterlimit:4;stroke-dasharray:none;stroke-dashoffset:0;stroke-opacity:1;marker:none;color-rendering:auto;image-rendering:auto;shape-rendering:auto;text-rendering:auto;enable-background:accumulate"
     inkscape:connector-curvature="0" />
  <g
     id="g1203"
     transform="translate(-19.626518,-63.625185)">
    <path
       id="circle28-0-7"
       transform="scale(0.75)"
       d="m 54.892578,98.201172 a 1.0001,1.0001 0 0 0 -1,1 v 0.02734 3.886718 h -0.853516 c -2.229383,0 -4.064453,1.83138 -4.064453,4.04688 v 8.01562 a 1.0001,1.0001 0 0 0 0.457032,0.83789 c 0.143512,0.24652 0.150368,0.57277 0.347656,0.76758 a 1.0001,1.0001 0 0 0 0.04102,0.0391 l 0.830079,0.73437 -12.486329,21.61524 c 1.723197,1.54484 3.623582,2.89635 5.669922,4.01367 l 6.152344,-10.65235 c 2.812533,1.28483 5.902431,2.0625 9.185547,2.0625 2.498683,0 5.186537,-0.45059 7.673828,-1.20312 l 5.658203,9.79297 c 2.046096,-1.11704 3.946848,-2.46727 5.669922,-4.01172 l -5.128906,-8.87695 c 0.825236,-0.60401 1.649812,-1.21225 2.376953,-1.92383 l 0.002,-0.004 c 4.143824,-4.03046 6.734375,-9.82563 6.734375,-16.05078 a 1.0001,1.0001 0 0 0 -0.992187,-1 c -1.698459,-0.0165 -3.478084,8e-4 -4.957032,-0.0156 a 1.0001,1.0001 0 0 0 -1.011718,0.9961 c -0.0021,6.35714 -1.657768,7.39667 -4.087891,10.23437 -0.495936,0.57043 -1.090341,1.0406 -1.666016,1.5293 l -3.757812,-6.50586 0.832031,-0.73437 a 1.0001,1.0001 0 0 0 0.04297,-0.0391 c 0.234036,-0.23112 0.249687,-0.52999 0.384765,-0.79297 a 1.0001,1.0001 0 0 0 0.416016,-0.8125 v -7.99023 a 1.0001,1.0001 0 0 0 0,-0.0156 c -0.03503,-2.21311 -1.840024,-4.05665 -4.08789,-4.05665 h -0.826172 v -3.886718 -0.02734 a 1.0001,1.0001 0 0 0 -1,-1 H 58.15625 Z m 5.492188,24.003908 0.0078,0.0137 2.794922,4.83789 c -1.368543,0.29721 -2.791586,0.59766 -4.044922,0.59766 -2.016588,0 -3.893437,-0.49122 -5.628906,-1.22461 l 2.43164,-4.21094 0.002,-0.006 c 0.433174,0.42399 1.002949,0.51676 1.550781,0.64453 a 1.0001,1.0001 0 0 0 0.65625,0.27344 1.0001,1.0001 0 0 0 0.01172,0 1.0001,1.0001 0 0 0 0.01953,0 c 0.002,0 0.002,-0.004 0.0039,-0.004 a 1.0001,1.0001 0 0 0 0.65625,-0.27539 c 0.548883,-0.1258 1.118519,-0.21772 1.539063,-0.64648 z"
       style="opacity:0.2;fill:#0b6926;fill-opacity:1;stroke:none;stroke-width:6.0741024;stroke-linecap:round;stroke-linejoin:round;stroke-miterlimit:4;stroke-dasharray:none;stroke-opacity:1"
       inkscape:connector-curvature="0" />
    <path
       transform="scale(0.75)"
       id="path34-6-2"
       d="m 54.892578,99.201172 v 0.02734 4.886718 h -1.853516 c -1.678855,0 -3.064453,1.38638 -3.064453,3.04493 v 8.01757 h 0.02734 c -0.02667,0.26335 0.13204,0.5524 0.478516,0.89454 l 1.447265,1.27539 -12.99414,22.49023 c 1.260479,1.05572 2.609818,2.00759 4.033203,2.84766 l 6.572265,-11.375 c 2.886618,1.47881 6.165168,2.28515 9.632813,2.28515 2.646757,0 5.590378,-0.47252 8.167969,-1.34961 l 6.03125,10.44141 c 1.423437,-0.83993 2.772652,-1.79207 4.033203,-2.84766 l -5.650391,-9.77929 c 1.066726,-0.71517 2.065331,-1.51798 2.970703,-2.4043 3.950412,-3.84102 6.433594,-9.38974 6.433594,-15.33789 -1.685515,-0.0164 -3.466301,-0.001 -4.960937,-0.0176 -0.0021,6.55557 -1.953819,8.11225 -4.328125,10.88477 -0.797144,0.91782 -1.694715,1.7332 -2.671875,2.44922 l -4.78711,-8.28711 1.447266,-1.27539 c 0.346436,-0.34214 0.480469,-0.65755 0.480469,-0.89454 h 0.02539 v -7.99023 c -0.02667,-1.68475 -1.384349,-3.07227 -3.089843,-3.07227 h -1.826172 v -4.886718 -0.02734 H 58.15625 Z m 0.796875,21.462888 0.947266,0.83399 c 0.426381,0.42123 0.986567,0.63281 1.519531,0.63281 v -0.0273 l 0.02734,0.0273 c 0.559617,0 1.11785,-0.21158 1.517578,-0.63281 l 0.947266,-0.83399 4.136718,7.16016 c -1.829628,0.5395 -3.870358,0.83008 -5.640625,0.83008 -2.559954,0 -4.976077,-0.63045 -7.085937,-1.70703 z"
       style="opacity:0.4;fill:#0b6926;fill-opacity:1;stroke:none;stroke-width:6.07407379;stroke-linecap:round;stroke-linejoin:round;stroke-miterlimit:4;stroke-dasharray:none;stroke-opacity:1"
       inkscape:connector-curvature="0" />
  </g>
  <path
     inkscape:connector-curvature="0"
     id="path34"
     style="opacity:1;fill:#dcdcdc;fill-opacity:1;stroke:none;stroke-width:4.55555534;stroke-linecap:round;stroke-linejoin:round;stroke-miterlimit:4;stroke-dasharray:none;stroke-opacity:1"
     d="m 23.13735,14.041209 -3.193468,1.842469 16.593812,28.7214 3.440422,2.269922 -0.246954,-4.112392 z" />
  <path
     inkscape:connector-curvature="0"
     id="path36"
     d="m 37.520965,19.841918 c 0,4.923447 -1.464116,6.091327 -3.245817,8.171844 -0.920867,1.06028 -2.001895,1.96051 -3.24307,2.640627 -1.681599,0.940274 -4.238226,1.460464 -6.30019,1.460464 -2.061951,0 -4.003801,-0.540211 -5.665377,-1.460464 -1.212212,-0.975772 -3.670546,2.709167 -2.041941,3.192264 2.282169,1.280392 4.924681,1.973529 7.727341,1.973529 2.80266,0 6.059962,-0.693137 8.342118,-1.973529 1.221165,-0.680118 2.342227,-1.520284 3.323163,-2.48058 2.962809,-2.880762 4.824578,-7.042655 4.824578,-11.503766 -1.264136,-0.01228 -2.599828,0 -3.720805,-0.01228 z"
     style="fill:#c3c3c3;fill-opacity:1;stroke-width:1.13888884" />
  <path
     inkscape:connector-curvature="0"
     id="path38"
     d="m 24.861731,14.041209 3.193468,1.842469 -16.593811,28.7214 L 8.0209644,46.875 8.2679187,42.762608 Z"
     style="opacity:1;fill:#c3c3c3;fill-opacity:1;stroke:none;stroke-width:4.55555534;stroke-linecap:round;stroke-linejoin:round;stroke-miterlimit:4;stroke-dasharray:none;stroke-opacity:1" />
  <path
     inkscape:connector-curvature="0"
     id="path40"
     d="m 27.827515,13.710547 h -1.36905 v -3.665532 -0.01965 h -2.468341 -2.448325 v 0.01965 3.665532 h -1.389054 c -1.259143,0 -2.298441,1.039768 -2.298441,2.283679 v 6.013208 h 0.02 c -0.02,0.197512 0.0999,0.414801 0.359757,0.671396 l 4.616847,4.069278 c 0.319786,0.315922 0.739502,0.473883 1.139225,0.473883 v -0.01965 l 0.02,0.01965 c 0.419713,0 0.839429,-0.157961 1.139225,-0.473883 l 4.616848,-4.069278 c 0.259828,-0.256595 0.359756,-0.49366 0.359756,-0.671396 h 0.02 v -5.993432 c -0.02,-1.263566 -1.039298,-2.303455 -2.318419,-2.303455 z"
     style="fill:url(#linearGradient4204);fill-opacity:1;stroke-width:1.13888884" />
  <path
     inkscape:connector-curvature="0"
     id="path42"
     d="m 24.008153,21.080425 h -0.01603 v 0 c -1.345276,0 -2.450325,-1.093443 -2.450325,-2.440289 0,-1.346969 1.105049,-2.440413 2.450325,-2.440413 v -0.03193 l 0.01603,0.03193 c 1.345275,0.01597 2.450314,1.093444 2.450314,2.440413 0,1.346846 -1.105039,2.424445 -2.450314,2.440289 z"
     style="fill:url(#radialGradient4191);fill-opacity:1;stroke-width:1.13888884" />
  <path
     style="opacity:0.6;fill:#000000;fill-opacity:1;stroke-width:1.13888884"
     d="m 26.42117,19.008833 c -0.177013,1.172965 -1.191778,2.067148 -2.414062,2.081543 h -0.01611 c -1.22265,0 -2.236034,-0.905797 -2.412598,-2.081543 -0.01781,0.118264 -0.03662,0.235743 -0.03662,0.358886 0,1.346846 1.103943,2.44043 2.449219,2.44043 h 0.01611 c 1.345274,-0.01585 2.450684,-1.093584 2.450684,-2.44043 0,-0.123143 -0.01881,-0.240853 -0.03662,-0.358886 z"
     id="path42-5"
     inkscape:connector-curvature="0" />
  <path
     style="opacity:0.4;fill:#000000;fill-opacity:1;stroke:none;stroke-width:4.55555534;stroke-linecap:round;stroke-linejoin:round;stroke-miterlimit:4;stroke-dasharray:none;stroke-opacity:1"
     d="m 34.188909,33.165181 c -0.3561,0.238845 -0.719508,0.467243 -1.095704,0.676763 -0.665751,0.373515 -1.420061,0.690045 -2.216308,0.960937 l 0.358887,0.62256 c 0.664496,-0.243735 1.291169,-0.524595 1.857421,-0.842287 0.485185,-0.270225 0.949213,-0.572498 1.400391,-0.890625 z"
     id="path34-3"
     inkscape:connector-curvature="0" />
  <path
     style="opacity:0.4;fill:#000000;fill-opacity:1;stroke:none;stroke-width:4.55555534;stroke-linecap:round;stroke-linejoin:round;stroke-miterlimit:4;stroke-dasharray:none;stroke-opacity:1"
     d="m 19.320745,23.63051 -0.28711,0.496581 2.821289,2.48584 0.28711,-0.496582 z m 9.360353,0.0015 -2.82129,2.48584 0.287108,0.496582 2.82129,-2.48584 z"
     id="path34-6"
     inkscape:connector-curvature="0" />
</svg>
