<?xml version="1.0" encoding="UTF-8" standalone="no"?>
<svg
   xmlns:dc="http://purl.org/dc/elements/1.1/"
   xmlns:cc="http://creativecommons.org/ns#"
   xmlns:rdf="http://www.w3.org/1999/02/22-rdf-syntax-ns#"
   xmlns:svg="http://www.w3.org/2000/svg"
   xmlns="http://www.w3.org/2000/svg"
   xmlns:xlink="http://www.w3.org/1999/xlink"
   xmlns:sodipodi="http://sodipodi.sourceforge.net/DTD/sodipodi-0.dtd"
   xmlns:inkscape="http://www.inkscape.org/namespaces/inkscape"
   width="24"
   height="24"
   viewBox="0 0 48 48"
   version="1.1"
   id="svg46"
   sodipodi:docname="android-studio_24.svg"
   inkscape:version="0.92.3 (2405546, 2018-03-11)">
  <metadata
     id="metadata50">
    <rdf:RDF>
      <cc:Work
         rdf:about="">
        <dc:format>image/svg+xml</dc:format>
        <dc:type
           rdf:resource="http://purl.org/dc/dcmitype/StillImage" />
      </cc:Work>
    </rdf:RDF>
  </metadata>
  <sodipodi:namedview
     pagecolor="#ffffff"
     bordercolor="#666666"
     borderopacity="1"
     objecttolerance="10"
     gridtolerance="10"
     guidetolerance="10"
     inkscape:pageopacity="0"
     inkscape:pageshadow="2"
     inkscape:window-width="1366"
     inkscape:window-height="705"
     id="namedview48"
     showgrid="false"
     inkscape:zoom="15.379572"
     inkscape:cx="13.105729"
     inkscape:cy="6.6342738"
     inkscape:window-x="0"
     inkscape:window-y="30"
     inkscape:window-maximized="1"
     inkscape:current-layer="svg46" />
  <defs
     id="defs26">
    <linearGradient
       id="linearGradient4212">
      <stop
         style="stop-color:#000000;stop-opacity:1;"
         offset="0"
         id="stop2" />
      <stop
         style="stop-color:#000000;stop-opacity:0;"
         offset="1"
         id="stop4" />
    </linearGradient>
    <linearGradient
       id="linearGradient4198">
      <stop
         style="stop-color:#272b2d;stop-opacity:1;"
         offset="0"
         id="stop7" />
      <stop
         style="stop-color:#3e4447;stop-opacity:1"
         offset="1"
         id="stop9" />
    </linearGradient>
    <linearGradient
       id="linearGradient4185">
      <stop
         style="stop-color:#acacac;stop-opacity:1"
         offset="0"
         id="stop12" />
      <stop
         style="stop-color:#cbcbcb;stop-opacity:1"
         offset="1"
         id="stop14" />
    </linearGradient>
    <linearGradient
       id="linearGradient4144">
      <stop
         style="stop-color:#3b962d;stop-opacity:1"
         offset="0"
         id="stop17" />
      <stop
         style="stop-color:#93d169;stop-opacity:1"
         offset="1"
         id="stop19" />
    </linearGradient>
    <linearGradient
       xlink:href="#linearGradient4144"
       id="linearGradient4150"
       x1="25"
       y1="1046.362"
       x2="25"
       y2="1010.362"
       gradientUnits="userSpaceOnUse"
       gradientTransform="matrix(1.1684981,0,0,1.1684981,-4.0439554,-1177.6397)" />
    <radialGradient
       xlink:href="#linearGradient4185"
       id="radialGradient4191"
       cx="24"
       cy="1025.362"
       fx="24"
       fy="1025.362"
       r="2"
       gradientTransform="matrix(1.1684981,0,0,1.1671043,-4.0439554,-1177.7942)"
       gradientUnits="userSpaceOnUse" />
    <linearGradient
       xlink:href="#linearGradient4198"
       id="linearGradient4204"
       x1="24"
       y1="1032.362"
       x2="24"
       y2="1018.362"
       gradientUnits="userSpaceOnUse"
       gradientTransform="matrix(1.1684981,0,0,1.1672507,-4.0439554,-1177.9445)" />
    <linearGradient
       xlink:href="#linearGradient4212"
       id="linearGradient4218"
       x1="20"
       y1="17"
       x2="38"
       y2="35"
       gradientUnits="userSpaceOnUse"
       gradientTransform="translate(-46.45332,-2.1572749)" />
    <linearGradient
       x1="71.204407"
       y1="6.2375584"
       x2="71.204407"
       y2="44.340794"
       id="linearGradient3019"
       xlink:href="#linearGradient4011"
       gradientUnits="userSpaceOnUse"
       gradientTransform="matrix(1.054054,0,0,1.054054,-51.611001,-2.7278993)" />
    <linearGradient
       id="linearGradient4011">
      <stop
         id="stop4013"
         style="stop-color:#ffffff;stop-opacity:1"
         offset="0" />
      <stop
         id="stop4015"
         style="stop-color:#ffffff;stop-opacity:0.23529412"
         offset="0.507761" />
      <stop
         id="stop4017"
         style="stop-color:#ffffff;stop-opacity:0.15686275"
         offset="0.83456558" />
      <stop
         id="stop4019"
         style="stop-color:#ffffff;stop-opacity:0.39215687"
         offset="1" />
    </linearGradient>
    <radialGradient
       xlink:href="#linearGradient4185"
       id="radialGradient4191-2"
       cx="24"
       cy="1025.3621"
       fx="24"
       fy="1025.3621"
       r="2"
       gradientTransform="matrix(1.1388889,0,0,1.138746,-22.045197,-1091.085)"
       gradientUnits="userSpaceOnUse" />
    <linearGradient
       xlink:href="#linearGradient4144"
       id="linearGradient4150-2"
       x1="25"
       y1="1046.3621"
       x2="25"
       y2="1010.362"
       gradientUnits="userSpaceOnUse"
       gradientTransform="matrix(1.1388889,0,0,1.1388889,-48.994349,-1150.7231)" />
    <linearGradient
       xlink:href="#linearGradient4144"
       id="linearGradient4150-23"
       x1="25"
       y1="1046.3621"
       x2="25"
       y2="1010.362"
       gradientUnits="userSpaceOnUse"
       gradientTransform="matrix(1.1388889,0,0,1.1388889,-25.463694,-1085.9672)" />
    <radialGradient
       xlink:href="#linearGradient4185"
       id="radialGradient4191-28"
       cx="24"
       cy="1025.3621"
       fx="24"
       fy="1025.3621"
       r="2"
       gradientTransform="matrix(1.1388889,0,0,1.138746,-25.463695,-1085.8206)"
       gradientUnits="userSpaceOnUse" />
    <linearGradient
       xlink:href="#linearGradient4144"
       id="linearGradient4150-23-8"
       x1="25"
       y1="1046.3621"
       x2="25"
       y2="1010.362"
       gradientUnits="userSpaceOnUse"
       gradientTransform="matrix(1.1388889,0,0,1.1388889,45.439239,-1092.5824)" />
    <linearGradient
       xlink:href="#linearGradient4144"
       id="linearGradient4150-23-2"
       x1="25"
       y1="1046.3621"
       x2="25"
       y2="1010.362"
       gradientUnits="userSpaceOnUse"
       gradientTransform="matrix(1.1388889,0,0,1.1388889,-25.463694,-1085.9673)" />
    <radialGradient
       xlink:href="#linearGradient4185"
       id="radialGradient4191-4"
       cx="24"
       cy="1025.3621"
       fx="24"
       fy="1025.3621"
       r="2"
       gradientTransform="matrix(1.1388889,0,0,1.138746,-8.7184604,-1106.59)"
       gradientUnits="userSpaceOnUse" />
    <radialGradient
       xlink:href="#linearGradient4212"
       id="radialGradient3300-8"
       gradientUnits="userSpaceOnUse"
       gradientTransform="matrix(0.3823536,7.5555777e-8,-1.8372241e-8,0.1115198,-5.9254271,36.335849)"
       cx="99.189415"
       cy="185.29727"
       fx="99.189415"
       fy="185.29727"
       r="62.769119" />
    <radialGradient
       xlink:href="#linearGradient4212"
       id="radialGradient4192-6"
       gradientUnits="userSpaceOnUse"
       gradientTransform="matrix(0.2549024,5.3967361e-8,-1.2248161e-8,0.07965545,6.7163816,44.240666)"
       cx="99.189415"
       cy="185.29727"
       fx="99.189415"
       fy="185.29727"
       r="62.769119" />
    <radialGradient
       gradientTransform="matrix(0.6168591,0,0,0.20491803,-5.3370623,37.707954)"
       gradientUnits="userSpaceOnUse"
       xlink:href="#linearGradient4212"
       id="radialGradient4284"
       fy="44.261826"
       fx="23.557255"
       r="6.0999999"
       cy="44.261826"
       cx="23.557255" />
    <radialGradient
       gradientTransform="matrix(0.6168591,0,0,0.20491803,23.926676,37.708076)"
       gradientUnits="userSpaceOnUse"
       xlink:href="#linearGradient4212"
       id="radialGradient4284-3"
       fy="44.26123"
       fx="24.059826"
       r="6.0999999"
       cy="44.26123"
       cx="24.059826" />
    <radialGradient
       xlink:href="#linearGradient4185"
       id="radialGradient4191-3"
       cx="24"
       cy="1025.3621"
       fx="24"
       fy="1025.3621"
       r="2"
       gradientTransform="matrix(1.1388889,0,0,1.138746,-3.7401161,-1107.3222)"
       gradientUnits="userSpaceOnUse" />
    <radialGradient
       xlink:href="#linearGradient4185"
       id="radialGradient4191-35"
       cx="24"
       cy="1025.3621"
       fx="24"
       fy="1025.3621"
       r="2"
       gradientTransform="matrix(1.1388889,0,0,1.138746,-6.4710288,-1095.9498)"
       gradientUnits="userSpaceOnUse" />
    <radialGradient
       cx="4.9929786"
       cy="43.5"
       r="2.5"
       fx="4.9929786"
       fy="43.5"
       id="radialGradient3013"
       xlink:href="#linearGradient3688-166-749"
       gradientUnits="userSpaceOnUse"
       gradientTransform="matrix(2.003784,0,0,1.4,27.98813,-17.4)" />
    <linearGradient
       id="linearGradient3688-166-749">
      <stop
         id="stop2883"
         style="stop-color:#181818;stop-opacity:1"
         offset="0" />
      <stop
         id="stop2885"
         style="stop-color:#181818;stop-opacity:0"
         offset="1" />
    </linearGradient>
    <radialGradient
       cx="4.9929786"
       cy="43.5"
       r="2.5"
       fx="4.9929786"
       fy="43.5"
       id="radialGradient3015"
       xlink:href="#linearGradient3688-166-749"
       gradientUnits="userSpaceOnUse"
       gradientTransform="matrix(2.003784,0,0,1.4,-20.01187,-104.4)" />
    <linearGradient
       x1="25.058096"
       y1="47.027729"
       x2="25.058096"
       y2="39.999443"
       id="linearGradient3990"
       xlink:href="#linearGradient3702-501-757"
       gradientUnits="userSpaceOnUse" />
    <linearGradient
       id="linearGradient3702-501-757">
      <stop
         id="stop2895"
         style="stop-color:#181818;stop-opacity:0"
         offset="0" />
      <stop
         id="stop2897"
         style="stop-color:#181818;stop-opacity:1"
         offset="0.5" />
      <stop
         id="stop2899"
         style="stop-color:#181818;stop-opacity:0"
         offset="1" />
    </linearGradient>
    <linearGradient
       gradientTransform="matrix(1.0945951,0,0,1.0945951,-54.51917,-3.7559083)"
       gradientUnits="userSpaceOnUse"
       xlink:href="#linearGradient4011"
       id="linearGradient12398-3"
       y2="44.340794"
       x2="71.204407"
       y1="6.2375584"
       x1="71.204407" />
    <radialGradient
       cx="4.9929786"
       cy="43.5"
       r="2.5"
       fx="4.9929786"
       fy="43.5"
       id="radialGradient3013-3"
       xlink:href="#linearGradient3688-166-749"
       gradientUnits="userSpaceOnUse"
       gradientTransform="matrix(2.003784,0,0,1.4,27.98813,-17.4)" />
    <radialGradient
       cx="4.9929786"
       cy="43.5"
       r="2.5"
       fx="4.9929786"
       fy="43.5"
       id="radialGradient3015-2"
       xlink:href="#linearGradient3688-166-749"
       gradientUnits="userSpaceOnUse"
       gradientTransform="matrix(2.003784,0,0,1.4,-20.01187,-104.4)" />
    <radialGradient
       gradientTransform="matrix(0.6168591,0,0,0.20491803,23.926676,37.708076)"
       gradientUnits="userSpaceOnUse"
       xlink:href="#linearGradient4212"
       id="radialGradient4284-3-7"
       fy="44.26123"
       fx="24.059826"
       r="6.0999999"
       cy="44.26123"
       cx="24.059826" />
    <radialGradient
       gradientTransform="matrix(0.6168591,0,0,0.20491803,-5.3370623,37.707954)"
       gradientUnits="userSpaceOnUse"
       xlink:href="#linearGradient4212"
       id="radialGradient4284-36"
       fy="44.261826"
       fx="23.557255"
       r="6.0999999"
       cy="44.261826"
       cx="23.557255" />
    <radialGradient
       xlink:href="#linearGradient3820-7-2-2"
       id="radialGradient4048"
       gradientUnits="userSpaceOnUse"
       gradientTransform="matrix(0.25420213,0,0,0.08088252,-1.2059077,27.072733)"
       cx="99.157013"
       cy="186.17059"
       fx="99.157013"
       fy="186.17059"
       r="62.769119" />
    <linearGradient
       id="linearGradient3820-7-2-2">
      <stop
         id="stop3822-2-6-36"
         style="stop-color:#3d3d3d;stop-opacity:1"
         offset="0" />
      <stop
         id="stop3864-8-7-6"
         style="stop-color:#686868;stop-opacity:0.49803922"
         offset="0.5" />
      <stop
         id="stop3824-1-2-4"
         style="stop-color:#686868;stop-opacity:0"
         offset="1" />
    </linearGradient>
    <radialGradient
       xlink:href="#linearGradient4185"
       id="radialGradient4191-26"
       cx="24"
       cy="1025.3621"
       fx="24"
       fy="1025.3621"
       r="2"
       gradientTransform="matrix(1.2083333,0,0,1.2068919,-6.5676462,-1153.9955)"
       gradientUnits="userSpaceOnUse" />
    <linearGradient
       xlink:href="#linearGradient4144"
       id="linearGradient4150-7"
       x1="25"
       y1="1046.3621"
       x2="25"
       y2="1010.362"
       gradientUnits="userSpaceOnUse"
       gradientTransform="matrix(0.80555553,0,0,0.80555553,-4.3784309,-769.2238)" />
    <linearGradient
       xlink:href="#linearGradient4144"
       id="linearGradient4150-7-7"
       x1="25"
       y1="1046.3621"
       x2="25"
       y2="1010.362"
       gradientUnits="userSpaceOnUse"
       gradientTransform="matrix(0.80555553,0,0,0.80555553,-4.3784308,-769.2238)" />
    <radialGradient
       xlink:href="#linearGradient4185"
       id="radialGradient4191-29"
       cx="24"
       cy="1025.3621"
       fx="24"
       fy="1025.3621"
       r="2"
       gradientTransform="matrix(0.80555553,0,0,0.8045946,4.4367776,-779.20787)"
       gradientUnits="userSpaceOnUse" />
    <radialGradient
       xlink:href="#linearGradient4185"
       id="radialGradient4191-47"
       cx="24"
       cy="1025.3621"
       fx="24"
       fy="1025.3621"
       r="2"
       gradientTransform="matrix(1.2083333,0,0,1.2068919,6.6551664,-1167.3122)"
       gradientUnits="userSpaceOnUse" />
    <linearGradient
       xlink:href="#linearGradient4198"
       id="linearGradient4204-0"
       x1="24"
       y1="1032.3621"
       x2="24"
       y2="1018.362"
       gradientUnits="userSpaceOnUse"
       gradientTransform="matrix(0.80555553,0,0,0.80469553,0.06935253,-775.58787)" />
    <linearGradient
       xlink:href="#linearGradient4198"
       id="linearGradient4204-0-3"
       x1="24"
       y1="1032.3621"
       x2="24"
       y2="1018.362"
       gradientUnits="userSpaceOnUse"
       gradientTransform="matrix(1.2083333,0,0,1.2070433,0.12370067,-1161.8825)" />
    <radialGradient
       gradientTransform="matrix(0.22303962,0,0,0.07096718,1.884058,30.333459)"
       gradientUnits="userSpaceOnUse"
       xlink:href="#linearGradient3820-7-2-2"
       id="radialGradient3108"
       fy="186.17059"
       fx="99.157013"
       r="62.769119"
       cy="186.17059"
       cx="99.157013" />
    <radialGradient
       xlink:href="#linearGradient4185"
       id="radialGradient4191-5"
       cx="24"
       cy="1025.3621"
       fx="24"
       fy="1025.3621"
       r="2"
       gradientTransform="matrix(1.1684981,0,0,1.1671043,-117.51328,-1181.8428)"
       gradientUnits="userSpaceOnUse" />
    <linearGradient
       xlink:href="#linearGradient4198"
       id="linearGradient4204-6"
       x1="24"
       y1="1032.3621"
       x2="24"
       y2="1018.362"
       gradientUnits="userSpaceOnUse"
       gradientTransform="matrix(1.1684981,0,0,1.1672507,-117.51328,-1181.9931)" />
    <linearGradient
       xlink:href="#linearGradient4144"
       id="linearGradient4150-1"
       x1="25"
       y1="1046.3621"
       x2="25"
       y2="1010.362"
       gradientUnits="userSpaceOnUse"
       gradientTransform="matrix(0.58424905,0,0,0.58424905,-58.75664,-590.84415)" />
    <radialGradient
       cx="4.9929786"
       cy="43.5"
       r="2.5"
       fx="4.9929786"
       fy="43.5"
       id="radialGradient3013-3-0"
       xlink:href="#linearGradient3688-166-749"
       gradientUnits="userSpaceOnUse"
       gradientTransform="matrix(2.003784,0,0,1.4,27.98813,-17.4)" />
    <radialGradient
       cx="4.9929786"
       cy="43.5"
       r="2.5"
       fx="4.9929786"
       fy="43.5"
       id="radialGradient3015-2-6"
       xlink:href="#linearGradient3688-166-749"
       gradientUnits="userSpaceOnUse"
       gradientTransform="matrix(2.003784,0,0,1.4,-20.01187,-104.4)" />
    <linearGradient
       x1="25.058096"
       y1="47.027729"
       x2="25.058096"
       y2="39.999443"
       id="linearGradient3990-0"
       xlink:href="#linearGradient3702-501-757"
       gradientUnits="userSpaceOnUse" />
    <radialGradient
       gradientTransform="matrix(0.6168591,0,0,0.20491803,23.926676,37.708076)"
       gradientUnits="userSpaceOnUse"
       xlink:href="#linearGradient4212"
       id="radialGradient4284-3-7-1"
       fy="44.26123"
       fx="24.059826"
       r="6.0999999"
       cy="44.26123"
       cx="24.059826" />
    <radialGradient
       gradientTransform="matrix(0.6168591,0,0,0.20491803,-5.3370623,37.707954)"
       gradientUnits="userSpaceOnUse"
       xlink:href="#linearGradient4212"
       id="radialGradient4284-36-9"
       fy="44.261826"
       fx="23.557255"
       r="6.0999999"
       cy="44.261826"
       cx="23.557255" />
    <radialGradient
       xlink:href="#linearGradient3820-7-2-2"
       id="radialGradient4048-2"
       gradientUnits="userSpaceOnUse"
       gradientTransform="matrix(0.25420214,0,0,0.08088252,-114.67523,23.024135)"
       cx="99.157013"
       cy="186.17059"
       fx="99.157013"
       fy="186.17059"
       r="62.769119" />
    <radialGradient
       gradientTransform="matrix(0.22303962,0,0,0.07096718,-111.58527,26.284861)"
       gradientUnits="userSpaceOnUse"
       xlink:href="#linearGradient3820-7-2-2"
       id="radialGradient3108-7"
       fy="186.17059"
       fx="99.157013"
       r="62.769119"
       cy="186.17059"
       cx="99.157013" />
    <linearGradient
       xlink:href="#linearGradient4144"
       id="linearGradient4150-1-0"
       x1="25"
       y1="1046.3621"
       x2="25"
       y2="1010.362"
       gradientUnits="userSpaceOnUse"
       gradientTransform="matrix(0.58424905,0,0,0.58424905,-58.75664,-590.84415)" />
    <linearGradient
       x1="71.204407"
       y1="6.2375584"
       x2="71.204407"
       y2="44.340794"
       id="linearGradient12398-3-0"
       xlink:href="#linearGradient4011"
       gradientUnits="userSpaceOnUse"
       gradientTransform="matrix(1.027027,0,0,1.027027,-49.67228,-2.0425604)" />
    <radialGradient
       xlink:href="#linearGradient4185"
       id="radialGradient4191-55"
       cx="24"
       cy="1025.3621"
       fx="24"
       fy="1025.3621"
       r="2"
       gradientTransform="matrix(0.58424905,0,0,0.58355215,-1.608186,-572.28345)"
       gradientUnits="userSpaceOnUse" />
    <radialGradient
       xlink:href="#linearGradient4185"
       id="radialGradient4191-56"
       cx="24"
       cy="1025.3621"
       fx="24"
       fy="1025.3621"
       r="2"
       gradientTransform="matrix(1.1684981,0,0,1.1671043,-3.2163721,-1142.567)"
       gradientUnits="userSpaceOnUse" />
    <linearGradient
       xlink:href="#linearGradient4198"
       id="linearGradient4204-4"
       x1="24"
       y1="1032.3621"
       x2="24"
       y2="1018.362"
       gradientUnits="userSpaceOnUse"
       gradientTransform="matrix(0.58424905,0,0,0.58362535,1.4265789,-563.51015)" />
    <linearGradient
       xlink:href="#linearGradient4198"
       id="linearGradient4204-4-4"
       x1="24"
       y1="1032.3621"
       x2="24"
       y2="1018.362"
       gradientUnits="userSpaceOnUse"
       gradientTransform="matrix(1.1684981,0,0,1.1672507,2.853158,-1125.0196)" />
  </defs>
  <path
     inkscape:connector-curvature="0"
     style="fill:url(#radialGradient3108);fill-opacity:1;stroke:none;stroke-width:2"
     id="path3818-0-2-5"
     d="m 38,43.545455 a 14,4.4545454 0 0 1 -28,0 14,4.4545454 0 1 1 28,0 z" />
  <path
     inkscape:connector-curvature="0"
     d="m 39.956044,42.130675 a 15.956044,5.0769229 0 1 1 -31.9120879,0 15.956044,5.0769229 0 1 1 31.9120879,0 z"
     id="path3818-0-2"
     style="fill:url(#radialGradient4048);fill-opacity:1;stroke:none;stroke-width:1.45054948" />
  <path
     style="opacity:0.4;fill:#0b6926;fill-opacity:1;stroke:none;stroke-width:4.40537262;stroke-linecap:round;stroke-linejoin:round;stroke-miterlimit:4;stroke-dasharray:none;stroke-opacity:1"
     d="m 21.645592,11.741815 a 1.0001,1.0001 0 0 0 -1,1 v 0.01953 2.480469 h -0.320314 c -1.748266,0 -3.1875,1.431176 -3.1875,3.171875 v 5.714843 a 1.0001,1.0001 0 0 0 0.429688,0.820314 c 0.108124,0.15702 0.108424,0.406876 0.230468,0.527344 a 1.0001,1.0001 0 0 0 0.04297,0.03906 l 0.417968,0.367188 -8.558594,14.804686 c 1.393172,1.19603 2.939704,2.209996 4.601564,3.03125 l 3.976562,-6.886718 c 1.977536,0.867246 4.124642,1.421874 6.417968,1.421874 1.732754,0 3.564254,-0.387412 5.29297,-0.886718 L 33.669028,43.734 c 1.662908,-0.818482 3.21069,-1.829956 4.60547,-3.023438 l -3.32422,-5.753906 c 0.524136,-0.387122 1.059944,-0.757834 1.535156,-1.222656 3.010324,-2.926906 4.886718,-7.127932 4.88672,-11.644532 a 1.0001,1.0001 0 0 0 -0.988282,-1 c -1.215054,-0.01181 -2.489414,-2.1e-4 -3.539062,-0.01172 a 1.0001,1.0001 0 0 0 -1.011718,1 c -0.0016,4.472938 -1.0953,5.064542 -2.84375,7.105468 -0.260098,0.298738 -0.601794,0.544762 -0.90625,0.8125 l -2.375,-4.11328 0.417968,-0.367188 a 1.0001,1.0001 0 0 0 0.03906,-0.03906 c 0.151576,-0.149632 0.155528,-0.376298 0.26172,-0.550782 a 1.0001,1.0001 0 0 0 0.398436,-0.796876 v -5.695312 a 1.0001,1.0001 0 0 0 0,-0.01563 c -0.0275,-1.7315 -1.447914,-3.175781 -3.20703,-3.175781 h -0.300782 v -2.480469 -0.01953 a 1.0001,1.0001 0 0 0 -1,-1 H 23.96981 Z m 3.78125,17.734376 1.667968,2.886718 c -0.828778,0.161242 -1.676068,0.371094 -2.417968,0.371094 -1.278926,0 -2.470212,-0.30912 -3.59375,-0.746094 l 1.449218,-2.5 c 0.259534,0.187314 0.547052,0.269896 0.84375,0.347656 l -0.02734,0.01172 0.01953,0.01953 a 1.0001,1.0001 0 0 0 0.601562,0.214844 1.0001,1.0001 0 0 0 0.0039,0 1.0001,1.0001 0 0 0 0.01563,0 l 0.0039,-0.0039 a 1.0001,1.0001 0 0 0 0.671874,-0.28125 c 0.267486,-0.07796 0.527208,-0.149036 0.76172,-0.320312 z"
     id="circle28-1-2"
     inkscape:connector-curvature="0" />
  <g
     transform="matrix(1.0371689,0,0,1.4546922,-0.99673615,-21.881989)"
     id="g966"
     style="stroke-width:1.32219839">
    <g
       style="opacity:0.1;stroke-width:1.82675195"
       id="g3712"
       transform="matrix(0.96814261,0,0,0.35714283,0.6592867,31.214287)">
      <rect
         style="fill:url(#radialGradient3013-3);fill-opacity:1;stroke:none;stroke-width:1.82675195"
         id="rect2801"
         y="40"
         x="38"
         height="7"
         width="5" />
      <rect
         style="fill:url(#radialGradient3015-2);fill-opacity:1;stroke:none;stroke-width:1.82675195"
         id="rect3696"
         transform="scale(-1)"
         y="-47"
         x="-10"
         height="7"
         width="5" />
      <rect
         style="fill:url(#linearGradient3990);fill-opacity:1;stroke:none;stroke-width:1.82675195"
         id="rect3700"
         y="40"
         x="10"
         height="7.0000005"
         width="28" />
    </g>
    <path
       style="color:#000000;display:inline;overflow:visible;visibility:visible;opacity:0.15;fill:url(#radialGradient4284-3-7);fill-opacity:1;fill-rule:nonzero;stroke:none;stroke-width:0.58414352;marker:none;enable-background:accumulate"
       id="path3964-5"
       d="m 42.289418,46.750911 a 3.7628405,1.25 0 0 1 -7.525679,0 3.7628405,1.25 0 1 1 7.525679,0 z"
       inkscape:connector-curvature="0" />
    <path
       style="color:#000000;display:inline;overflow:visible;visibility:visible;opacity:0.15;fill:url(#radialGradient4284-36);fill-opacity:1;fill-rule:nonzero;stroke:none;stroke-width:0.58414352;marker:none;enable-background:accumulate"
       id="path3964"
       d="m 13.02568,46.750789 a 3.7628405,1.25 0 0 1 -7.5256795,0 3.7628405,1.25 0 1 1 7.5256795,0 z"
       inkscape:connector-curvature="0" />
  </g>
  <circle
     id="circle28"
     cy="23.999529"
     cx="24"
     style="opacity:1;fill:url(#linearGradient4150);fill-opacity:1;stroke:none;stroke-width:4.40537262;stroke-linecap:round;stroke-linejoin:round;stroke-miterlimit:4;stroke-dasharray:none;stroke-opacity:1"
     r="21.032967" />
  <path
     inkscape:connector-curvature="0"
     d="M 42.99998,23.99932 C 42.99998,34.49308 34.49276,43 24.00022,43 13.50672,43 4.9999999,34.49298 4.9999999,23.99932 c 0,-10.49326 8.5067201,-18.9993199 19.0002201,-18.9993199 10.49254,0 18.99976,8.5060599 18.99976,18.9993199 z"
     id="path8655-6-0-9-5-0"
     style="color:#000000;display:inline;overflow:visible;visibility:visible;opacity:0.5;fill:none;stroke:url(#linearGradient12398-3-0);stroke-width:1.99999976;stroke-linecap:round;stroke-linejoin:round;stroke-miterlimit:4;stroke-dasharray:none;stroke-dashoffset:0;stroke-opacity:1;marker:none;enable-background:accumulate" />
  <path
     style="opacity:0.6;fill:#0b6926;fill-opacity:1;stroke:none;stroke-width:4.40537262;stroke-linecap:round;stroke-linejoin:round;stroke-miterlimit:4;stroke-dasharray:none;stroke-opacity:1"
     d="m 21.665122,12.741815 v 0.01953 3.480469 H 20.34481 c -1.196996,0 -2.1875,0.989801 -2.1875,2.171875 v 5.714843 h 0.01953 c -0.019,0.1877 0.09671,0.392882 0.34375,0.63672 l 1.03125,0.910156 -9.054688,15.660156 c 0.921206,0.719416 1.892092,1.377642 2.921874,1.945312 l 4.433594,-7.671874 c 2.058616,1.054668 4.390066,1.64453 6.863282,1.64453 1.88769,0 3.978216,-0.347152 5.816406,-0.972656 l 4.046876,7 c 1.029936,-0.56755 2.00051,-1.225982 2.921874,-1.945312 L 33.672932,34.71447 c 0.759684,-0.50933 1.487952,-1.064254 2.132814,-1.695312 2.81657,-2.737552 4.585936,-6.69035 4.585938,-10.929688 -1.201742,-0.01168 -2.473416,-3.7e-5 -3.539064,-0.01172 -0.0017,4.671464 -1.393214,5.781934 -3.085936,7.757812 -0.567788,0.653502 -1.22209,1.212692 -1.91797,1.722656 l -3.398438,-5.882812 1.03125,-0.910156 c 0.247002,-0.243838 0.34375,-0.467818 0.34375,-0.63672 h 0.01953 v -5.695312 c -0.019,-1.20075 -0.991044,-2.191406 -2.207032,-2.191406 h -1.30078 v -3.480469 -0.01953 h -2.347656 z m 0.566406,15.296876 0.675782,0.59375 c 0.304004,0.300216 0.702038,0.449218 1.082032,0.449218 v -0.01563 l 0.01953,0.01563 c 0.398998,0 0.80094,-0.148994 1.085938,-0.449218 l 0.675782,-0.59375 2.9375,5.08203 c -1.305492,0.385256 -2.748288,0.613282 -4.01172,0.613282 -1.82544,0 -3.542444,-0.462982 -5.046874,-1.23047 z"
     id="circle28-1"
     inkscape:connector-curvature="0" />
  <path
     d="m 24.000003,2.9664963 c -11.605266,0 -21.03297,9.4276987 -21.03297,21.0329657 0,11.605266 9.427704,21.032971 21.03297,21.032968 11.605261,0 21.032975,-9.427702 21.032964,-21.032968 0,-11.605267 -9.427703,-21.0329657 -21.032964,-21.0329657 z"
     id="path2555-6"
     style="color:#000000;clip-rule:nonzero;display:inline;overflow:visible;visibility:visible;opacity:0.5;isolation:auto;mix-blend-mode:normal;color-interpolation:sRGB;color-interpolation-filters:linearRGB;solid-color:#000000;solid-opacity:1;fill:none;fill-opacity:1;fill-rule:nonzero;stroke:#0b6926;stroke-width:1.93406594;stroke-linecap:round;stroke-linejoin:round;stroke-miterlimit:4;stroke-dasharray:none;stroke-dashoffset:0;stroke-opacity:1;marker:none;color-rendering:auto;image-rendering:auto;shape-rendering:auto;text-rendering:auto;enable-background:accumulate"
     inkscape:connector-curvature="0" />
  <path
     inkscape:connector-curvature="0"
     id="path34"
     style="opacity:1;fill:#dcdcdc;fill-opacity:1;stroke:none;stroke-width:4.40537262;stroke-linecap:round;stroke-linejoin:round;stroke-miterlimit:4;stroke-dasharray:none;stroke-opacity:1"
     d="m 23.179804,14.555505 -3.035847,1.750875 15.774784,27.29359 3.270612,2.157079 -0.234764,-3.907955 z" />
  <path
     inkscape:connector-curvature="0"
     id="path36"
     d="m 36.853481,20.067846 c 0,4.67869 -1.391851,5.788513 -3.085612,7.765602 -0.875416,1.007571 -1.903086,1.863049 -3.083,2.509356 -1.5986,0.89353 -4.029039,1.38786 -5.989229,1.38786 -1.960179,0 -3.806184,-0.513356 -5.385749,-1.38786 -1.15238,-0.927264 -3.489377,2.574487 -1.941155,3.033568 2.169527,1.216741 4.681611,1.875421 7.345938,1.875421 2.664329,0 5.760858,-0.65868 7.930373,-1.875421 1.160892,-0.646307 2.226621,-1.444706 3.159141,-2.357264 2.816571,-2.737553 4.586448,-6.692548 4.586448,-10.931886 -1.201741,-0.01167 -2.471507,0 -3.537155,-0.01167 z"
     style="fill:#c3c3c3;fill-opacity:1;stroke-width:1.10134315" />
  <path
     inkscape:connector-curvature="0"
     id="path38"
     d="M 24.819074,14.555505 27.854921,16.30638 12.080137,43.59997 8.8095245,45.757049 9.0442898,41.849094 Z"
     style="opacity:1;fill:#c3c3c3;fill-opacity:1;stroke:none;stroke-width:4.40537262;stroke-linecap:round;stroke-linejoin:round;stroke-miterlimit:4;stroke-dasharray:none;stroke-opacity:1" />
  <path
     inkscape:connector-curvature="0"
     id="path40"
     d="m 27.638474,14.241281 h -1.301476 v -3.48331 -0.01867 h -2.346511 -2.327482 v 0.01867 3.48331 h -1.320493 c -1.196996,0 -2.184996,0.988078 -2.184996,2.170152 v 5.714276 h 0.01901 c -0.01901,0.187693 0.09496,0.394181 0.341999,0.638019 l 4.388972,3.866985 c 0.304003,0.300216 0.703002,0.450325 1.082996,0.450325 v -0.01867 l 0.01901,0.01867 c 0.398998,0 0.797997,-0.150109 1.082996,-0.450325 l 4.388973,-3.866985 c 0.247002,-0.243838 0.341999,-0.469118 0.341999,-0.638019 h 0.01901 v -5.695484 c -0.01901,-1.20075 -0.988001,-2.188944 -2.203988,-2.188944 z"
     style="fill:url(#linearGradient4204);fill-opacity:1;stroke-width:1.10134315" />
  <path
     inkscape:connector-curvature="0"
     id="path42"
     d="m 24.007626,21.244784 h -0.01523 v 0 c -1.278877,0 -2.329383,-1.039085 -2.329383,-2.318976 0,-1.280008 1.050506,-2.319095 2.329383,-2.319095 v -0.03035 l 0.01523,0.03035 c 1.278876,0.01518 2.329374,1.039087 2.329374,2.319095 0,1.279891 -1.050498,2.30392 -2.329374,2.318976 z"
     style="fill:url(#radialGradient4191);fill-opacity:1;stroke-width:1.10134315" />
  <path
     style="opacity:0.6;fill:#000000;fill-opacity:1;stroke-width:1.10134315"
     d="m 26.086476,19.933953 c -0.379332,0.769984 -1.161622,1.309522 -2.078124,1.320312 h -0.0156 c -0.91682,0 -1.698944,-0.54639 -2.078124,-1.320312 -0.14974,0.305652 -0.25,0.637616 -0.25,1 0,1.27989 1.049238,2.320312 2.328124,2.320312 h 0.0156 c 1.278876,-0.015 2.328124,-1.040422 2.328124,-2.320312 0,-0.363702 -0.09924,-0.694916 -0.25,-1 z"
     id="path42-6"
     inkscape:connector-curvature="0" />
  <path
     id="path34-5"
     style="opacity:0.4;fill:#000000;fill-opacity:1;stroke:none;stroke-width:4.40537262;stroke-linecap:round;stroke-linejoin:round;stroke-miterlimit:4;stroke-dasharray:none;stroke-opacity:1"
     d="m 28.438961,23.677873 -2.683594,2.359376 0.765626,1.328124 2.683594,-2.36328 z m -8.898438,0 -0.76953,1.32422 2.683594,2.36328 0.765624,-1.324218 z"
     inkscape:connector-curvature="0" />
  <path
     style="opacity:0.4;fill:#000000;fill-opacity:1;stroke:none;stroke-width:4.40537262;stroke-linecap:round;stroke-linejoin:round;stroke-miterlimit:4;stroke-dasharray:none;stroke-opacity:1"
     d="m 33.689278,32.726278 c -0.339564,0.227404 -0.668616,0.468254 -1.027344,0.667968 -0.632564,0.354766 -1.356874,0.645008 -2.113282,0.902344 l 0.941408,1.625 c 0.401164,-0.16954 0.814834,-0.33101 1.171874,-0.53125 0.653112,-0.363608 1.265186,-0.784564 1.851562,-1.238282 z"
     id="path34-7"
     inkscape:connector-curvature="0" />
</svg>
