<?xml version="1.0" encoding="UTF-8" standalone="no"?>
<svg
   xmlns:dc="http://purl.org/dc/elements/1.1/"
   xmlns:cc="http://creativecommons.org/ns#"
   xmlns:rdf="http://www.w3.org/1999/02/22-rdf-syntax-ns#"
   xmlns:svg="http://www.w3.org/2000/svg"
   xmlns="http://www.w3.org/2000/svg"
   xmlns:xlink="http://www.w3.org/1999/xlink"
   xmlns:sodipodi="http://sodipodi.sourceforge.net/DTD/sodipodi-0.dtd"
   xmlns:inkscape="http://www.inkscape.org/namespaces/inkscape"
   version="1.1"
   id="svg4812"
   viewBox="0 0 24 24"
   height="24"
   width="24"
   inkscape:version="0.91 r13725"
   sodipodi:docname="google-chrome_24.svg">
  <sodipodi:namedview
     pagecolor="#ffffff"
     bordercolor="#666666"
     borderopacity="1"
     objecttolerance="10"
     gridtolerance="10"
     guidetolerance="10"
     inkscape:pageopacity="0"
     inkscape:pageshadow="2"
     inkscape:window-width="1366"
     inkscape:window-height="705"
     id="namedview49"
     showgrid="false"
     inkscape:zoom="2.4583333"
     inkscape:cx="0.63835176"
     inkscape:cy="12"
     inkscape:window-x="0"
     inkscape:window-y="30"
     inkscape:window-maximized="1"
     inkscape:current-layer="svg4812" />
  <defs
     id="defs4814">
    <linearGradient
       id="linearGradient4181">
      <stop
         style="stop-color:#ffffff;stop-opacity:1;"
         offset="0"
         id="stop4183" />
      <stop
         id="stop4185"
         offset="0.33333623"
         style="stop-color:#ffffff;stop-opacity:0.23529412" />
      <stop
         style="stop-color:#ffffff;stop-opacity:0.15686275"
         offset="0.66666955"
         id="stop4187" />
      <stop
         style="stop-color:#ffffff;stop-opacity:0.39215687"
         offset="1"
         id="stop4189" />
    </linearGradient>
    <linearGradient
       id="linearGradient5394">
      <stop
         id="stop5396"
         offset="0"
         style="stop-color:#000000;stop-opacity:1;" />
      <stop
         id="stop5398"
         offset="1"
         style="stop-color:#000000;stop-opacity:0;" />
    </linearGradient>
    <linearGradient
       id="linearGradient5380">
      <stop
         id="stop5382"
         offset="0"
         style="stop-color:#ffffff;stop-opacity:1;" />
      <stop
         style="stop-color:#ffffff;stop-opacity:0.23529412"
         offset="0.21292116"
         id="stop5388" />
      <stop
         id="stop5390"
         offset="0.76530349"
         style="stop-color:#ffffff;stop-opacity:0.15686275" />
      <stop
         id="stop5384"
         offset="1"
         style="stop-color:#ffffff;stop-opacity:0.39215687" />
    </linearGradient>
    <linearGradient
       id="linearGradient5367">
      <stop
         id="stop5369"
         offset="0"
         style="stop-color:#1eb4dc;stop-opacity:1" />
      <stop
         id="stop5371"
         offset="1"
         style="stop-color:#0a64dc;stop-opacity:1" />
    </linearGradient>
    <radialGradient
       gradientUnits="userSpaceOnUse"
       gradientTransform="matrix(1,0,0,0.25,0,-241.34056)"
       r="12"
       fy="1049.3622"
       fx="12"
       cy="1049.3622"
       cx="12"
       id="radialGradient5400"
       xlink:href="#linearGradient5394" />
    <linearGradient
       gradientUnits="userSpaceOnUse"
       y2="1050.2637"
       x2="11.964534"
       y1="1030.3882"
       x1="11.964534"
       id="linearGradient4166"
       xlink:href="#linearGradient5380"
       gradientTransform="translate(0,-1028.3622)" />
    <radialGradient
       r="10.5"
       fy="1035.1057"
       fx="10.312201"
       cy="1035.1057"
       cx="10.312201"
       gradientTransform="matrix(6.1305158e-7,0.66666662,-0.57143097,5.2547503e-7,603.49142,3.1247)"
       gradientUnits="userSpaceOnUse"
       id="radialGradient4157"
       xlink:href="#linearGradient4177-6" />
    <linearGradient
       gradientUnits="userSpaceOnUse"
       y2="1043.3622"
       x2="12"
       y1="1037.3622"
       x1="12"
       id="linearGradient4179"
       xlink:href="#linearGradient4181"
       gradientTransform="translate(0,-1028.3622)" />
    <radialGradient
       gradientTransform="matrix(-6.2955977e-7,0.47471775,-0.49970265,-6.6269418e-7,517.6718,0.3243)"
       gradientUnits="userSpaceOnUse"
       r="20.5"
       fy="1020.1454"
       fx="32.149761"
       cy="1020.1454"
       cx="32.149761"
       id="radialGradient4149"
       xlink:href="#linearGradient4247-3" />
    <linearGradient
       id="linearGradient4247">
      <stop
         style="stop-color:#55e132;stop-opacity:1"
         offset="0"
         id="stop4249" />
      <stop
         style="stop-color:#41a032;stop-opacity:1"
         offset="1"
         id="stop4251" />
    </linearGradient>
    <radialGradient
       r="20.5"
       fy="991.62952"
       fx="28.46682"
       cy="991.62952"
       cx="28.46682"
       gradientTransform="matrix(-1.2801082e-7,0.37477689,-0.29982169,-1.0240872e-7,314.43398,4.4049)"
       gradientUnits="userSpaceOnUse"
       id="radialGradient4385"
       xlink:href="#linearGradient4269-5" />
    <linearGradient
       id="linearGradient4269">
      <stop
         id="stop4271"
         offset="0"
         style="stop-color:#fff53c;stop-opacity:1" />
      <stop
         id="stop4273"
         offset="1"
         style="stop-color:#e1b41e;stop-opacity:1" />
    </linearGradient>
    <radialGradient
       gradientUnits="userSpaceOnUse"
       gradientTransform="matrix(0,0.39777243,-0.4972155,0,15.344693,-6.2536)"
       r="20.602539"
       fy="6.7268453"
       fx="24"
       cy="6.7268453"
       cx="24"
       id="radialGradient4360"
       xlink:href="#linearGradient4229-1" />
    <linearGradient
       id="linearGradient4229">
      <stop
         style="stop-color:#f0735f;stop-opacity:1"
         offset="0"
         id="stop4231" />
      <stop
         style="stop-color:#c81e1e;stop-opacity:1"
         offset="1"
         id="stop4233" />
    </linearGradient>
    <linearGradient
       gradientUnits="userSpaceOnUse"
       y2="1030.3622"
       x2="32"
       y1="1010.3622"
       x1="32"
       id="linearGradient4203"
       xlink:href="#linearGradient4205"
       gradientTransform="translate(-67.694915,-1022.8876)" />
    <linearGradient
       id="linearGradient4205">
      <stop
         style="stop-color:#ffffff;stop-opacity:1;"
         offset="0"
         id="stop4207" />
      <stop
         id="stop4209"
         offset="0.29999986"
         style="stop-color:#ffffff;stop-opacity:0.23529412;" />
      <stop
         id="stop4211"
         offset="0.69999987"
         style="stop-color:#ffffff;stop-opacity:0.15686275;" />
      <stop
         style="stop-color:#ffffff;stop-opacity:0.39215687;"
         offset="1"
         id="stop4213" />
    </linearGradient>
    <linearGradient
       gradientUnits="userSpaceOnUse"
       y2="60.501682"
       x2="26.386984"
       y1="3.548188"
       x1="26.386984"
       id="linearGradient3814"
       xlink:href="#linearGradient3767"
       gradientTransform="matrix(1.0178572,0,0,1.0178572,-68.375402,-35.096829)" />
    <linearGradient
       id="linearGradient3767">
      <stop
         id="stop3769"
         offset="0"
         style="stop-color:#ffffff;stop-opacity:1;" />
      <stop
         style="stop-color:#ffffff;stop-opacity:0.23529412;"
         offset="0.08994294"
         id="stop3777" />
      <stop
         style="stop-color:#ffffff;stop-opacity:0.15686275;"
         offset="0.87385589"
         id="stop3775" />
      <stop
         id="stop3771"
         offset="1"
         style="stop-color:#ffffff;stop-opacity:0.39215687;" />
    </linearGradient>
    <radialGradient
       r="28"
       fy="16.321266"
       fx="30.706524"
       cy="16.321266"
       cx="30.706524"
       gradientTransform="matrix(0,0.71428568,-0.60714286,0,-25.785575,-30.458689)"
       gradientUnits="userSpaceOnUse"
       id="radialGradient4190"
       xlink:href="#linearGradient4154" />
    <linearGradient
       id="linearGradient4154">
      <stop
         id="stop4156"
         offset="0"
         style="stop-color:#429aff;stop-opacity:1" />
      <stop
         id="stop4158"
         offset="1"
         style="stop-color:#2566d3;stop-opacity:1" />
    </linearGradient>
    <radialGradient
       r="28"
       fy="16.321266"
       fx="26.706453"
       cy="16.321266"
       cx="26.706453"
       gradientTransform="matrix(3.1939715e-8,1.3928572,-1.1785714,2.702591e-8,-16.459137,-66.723735)"
       gradientUnits="userSpaceOnUse"
       id="radialGradient4225"
       xlink:href="#linearGradient4229-6" />
    <linearGradient
       id="linearGradient4229-6">
      <stop
         style="stop-color:#fd5757;stop-opacity:1"
         offset="0"
         id="stop4231-7" />
      <stop
         style="stop-color:#db4437;stop-opacity:1"
         offset="1"
         id="stop4233-5" />
    </linearGradient>
    <radialGradient
       r="28"
       fy="-1.3459288"
       fx="39.478199"
       cy="-1.3459288"
       cx="39.478199"
       gradientTransform="matrix(0,0.82142852,-0.60714286,0,-23.512086,-29.953976)"
       gradientUnits="userSpaceOnUse"
       id="radialGradient4263"
       xlink:href="#linearGradient4269-3" />
    <linearGradient
       id="linearGradient4269-3">
      <stop
         id="stop4271-5"
         offset="0"
         style="stop-color:#fee145;stop-opacity:1" />
      <stop
         id="stop4273-6"
         offset="1"
         style="stop-color:#ffcd40;stop-opacity:1" />
    </linearGradient>
    <radialGradient
       gradientTransform="matrix(0,1.0357143,-0.82142856,0,-26.939324,-38.413593)"
       gradientUnits="userSpaceOnUse"
       r="28"
       fy="22.832893"
       fx="41.409233"
       cy="22.832893"
       cx="41.409233"
       id="radialGradient3791"
       xlink:href="#linearGradient4247-2" />
    <linearGradient
       id="linearGradient4247-2">
      <stop
         style="stop-color:#00d455;stop-opacity:1"
         offset="0"
         id="stop4249-9" />
      <stop
         style="stop-color:#0f9d58;stop-opacity:1"
         offset="1"
         id="stop4251-1" />
    </linearGradient>
    <radialGradient
       gradientUnits="userSpaceOnUse"
       gradientTransform="matrix(1,0,0,0.3125,-67.694915,-304.54489)"
       r="24"
       fy="1044.8622"
       fx="32"
       cy="1044.8622"
       cx="32"
       id="radialGradient3802"
       xlink:href="#linearGradient5394" />
    <radialGradient
       gradientUnits="userSpaceOnUse"
       gradientTransform="matrix(1,0,0,0.31395349,-135.04625,-267.28688)"
       r="43"
       fy="1032.8622"
       fx="64"
       cy="1032.8622"
       cx="64"
       id="radialGradient4187"
       xlink:href="#linearGradient5394" />
    <radialGradient
       gradientTransform="matrix(0,0.96153868,-1.0576923,0,931.28795,-35.4007)"
       gradientUnits="userSpaceOnUse"
       r="52"
       fy="970.35236"
       fx="69.559845"
       cy="970.35236"
       cx="69.559845"
       id="radialGradient4160"
       xlink:href="#linearGradient4247-3" />
    <linearGradient
       id="linearGradient4247-3">
      <stop
         style="stop-color:#91c3e1;stop-opacity:1"
         offset="0"
         id="stop4249-6" />
      <stop
         style="stop-color:#6491cd;stop-opacity:1"
         offset="1"
         id="stop4251-7" />
    </linearGradient>
    <radialGradient
       r="52"
       fy="923.07959"
       fx="64.359848"
       cy="923.07959"
       cx="64.359848"
       gradientTransform="matrix(0,0.86538455,-0.57692259,0,487.49924,-29.212232)"
       gradientUnits="userSpaceOnUse"
       id="radialGradient4354"
       xlink:href="#linearGradient4269-5" />
    <linearGradient
       id="linearGradient4269-5">
      <stop
         id="stop4271-3"
         offset="0"
         style="stop-color:#d2e6f0;stop-opacity:1" />
      <stop
         id="stop4273-5"
         offset="1"
         style="stop-color:#9bbee1;stop-opacity:1" />
    </linearGradient>
    <radialGradient
       r="52"
       fy="960.23871"
       fx="52.086823"
       cy="960.23871"
       cx="52.086823"
       gradientTransform="matrix(0,1.1538462,-1.249999,0,1130.2512,-88.616402)"
       gradientUnits="userSpaceOnUse"
       id="radialGradient4346"
       xlink:href="#linearGradient4229-1" />
    <linearGradient
       id="linearGradient4229-1">
      <stop
         style="stop-color:#6e91c8;stop-opacity:1"
         offset="0"
         id="stop4231-2" />
      <stop
         style="stop-color:#326482;stop-opacity:1"
         offset="1"
         id="stop4233-7" />
    </linearGradient>
    <linearGradient
       gradientUnits="userSpaceOnUse"
       y2="1041.274"
       x2="64.396698"
       y1="939.20795"
       x1="64.396698"
       id="linearGradient4166-5"
       xlink:href="#linearGradient4167"
       gradientTransform="translate(-135.04625,-975.87838)" />
    <linearGradient
       id="linearGradient4167">
      <stop
         id="stop4169"
         offset="0"
         style="stop-color:#ffffff;stop-opacity:1;" />
      <stop
         style="stop-color:#ffffff;stop-opacity:0.23529412"
         offset="0.22685508"
         id="stop4175" />
      <stop
         id="stop4177"
         offset="0.76572156"
         style="stop-color:#ffffff;stop-opacity:0.15686275" />
      <stop
         id="stop4171"
         offset="1"
         style="stop-color:#ffffff;stop-opacity:0.39215687" />
    </linearGradient>
    <radialGradient
       r="52"
       fy="960.30774"
       fx="44.826469"
       cy="960.30774"
       cx="44.826469"
       gradientTransform="matrix(-2.0736933e-7,1.1577649,-0.99828076,-1.7880385e-7,887.94545,-63.18571)"
       gradientUnits="userSpaceOnUse"
       id="radialGradient4205"
       xlink:href="#linearGradient4177-6" />
    <linearGradient
       id="linearGradient4177-6">
      <stop
         id="stop4179-2"
         offset="0"
         style="stop-color:#9bc3e6;stop-opacity:1" />
      <stop
         id="stop4181-9"
         offset="1"
         style="stop-color:#2864aa;stop-opacity:1" />
    </linearGradient>
    <linearGradient
       gradientUnits="userSpaceOnUse"
       y2="1010.3622"
       x2="65"
       y1="970.36218"
       x1="65"
       id="linearGradient4312"
       xlink:href="#linearGradient4314"
       gradientTransform="translate(-135.04625,-975.87838)" />
    <linearGradient
       id="linearGradient4314">
      <stop
         style="stop-color:#ffffff;stop-opacity:1;"
         offset="0"
         id="stop4316" />
      <stop
         id="stop4318"
         offset="0.27499944"
         style="stop-color:#ffffff;stop-opacity:0.23529412" />
      <stop
         style="stop-color:#ffffff;stop-opacity:0.15686275"
         offset="0.72499943"
         id="stop4320" />
      <stop
         style="stop-color:#ffffff;stop-opacity:0.39215687"
         offset="1"
         id="stop4322" />
    </linearGradient>
  </defs>
  <metadata
     id="metadata4817">
    <rdf:RDF>
      <cc:Work
         rdf:about="">
        <dc:format>image/svg+xml</dc:format>
        <dc:type
           rdf:resource="http://purl.org/dc/dcmitype/StillImage" />
        <dc:title />
      </cc:Work>
    </rdf:RDF>
  </metadata>
  <rect
     style="opacity:0.4;fill:url(#radialGradient5400);fill-opacity:1;stroke:none;stroke-width:3;stroke-linejoin:round;stroke-miterlimit:4;stroke-dasharray:none;stroke-opacity:1"
     id="rect5392"
     width="24"
     height="6"
     x="0"
     y="17.999983" />
  <circle
     style="opacity:1;fill:url(#radialGradient4149);fill-opacity:1.0;stroke:none;stroke-width:1;stroke-linejoin:round;stroke-miterlimit:4;stroke-dasharray:none;stroke-opacity:1"
     id="path4136"
     cx="12"
     cy="12.000349"
     r="10.5" />
  <path
     inkscape:connector-curvature="0"
     style="opacity:1;fill:url(#radialGradient4385);fill-opacity:1.0;stroke:none;stroke-width:1;stroke-linejoin:round;stroke-miterlimit:4;stroke-dasharray:none;stroke-opacity:1"
     d="M 12,1.5003 A 10.5,10.5 0 0 0 6.142769,3.297 l 8.158108,4.7098 a 4.6097571,4.6097561 0 0 1 0.456173,0.3081 4.6097571,4.6097561 0 0 1 0.05202,0.037 4.6097571,4.6097561 0 0 1 0.05602,0.044 4.6097571,4.6097561 0 0 1 0.233089,0.2001 4.6097571,4.6097561 0 0 1 0.06202,0.055 4.6097571,4.6097561 0 0 1 0.04301,0.042 4.6097571,4.6097561 0 0 1 0.222087,0.234 4.6097571,4.6097561 0 0 1 0.05802,0.062 4.6097571,4.6097561 0 0 1 0.03702,0.044 4.6097571,4.6097561 0 0 1 0.18507,0.2381 4.6097571,4.6097561 0 0 1 0.06202,0.082 4.6097571,4.6097561 0 0 1 0.04201,0.062 4.6097571,4.6097561 0 0 1 0.113043,0.1781 4.6097571,4.6097561 0 0 1 0.006,0.01 4.6097571,4.6097561 0 0 1 0.06002,0.094 4.6097571,4.6097561 0 0 1 0.03001,0.056 4.6097571,4.6097561 0 0 1 0.04202,0.078 4.6097571,4.6097561 0 0 1 0.006,0.011 4.6097571,4.6097561 0 0 1 0.112043,0.232 4.6097571,4.6097561 0 0 1 0.01501,0.033 4.6097571,4.6097561 0 0 1 0.01501,0.034 4.6097571,4.6097561 0 0 1 0.128049,0.3222 4.6097571,4.6097561 0 0 1 0.02301,0.065 4.6097571,4.6097561 0 0 1 0.05202,0.1551 4.6097571,4.6097561 0 0 1 0.003,0.011 4.6097571,4.6097561 0 0 1 0.02701,0.094 4.6097561,4.6097571 0 0 1 0.003,0.011 4.6097571,4.6097561 0 0 1 0.04201,0.1801 4.6097571,4.6097561 0 0 1 0.01601,0.071 4.6097571,4.6097561 0 0 1 0.03901,0.1951 4.6097571,4.6097561 0 0 1 0.02401,0.1821 4.6097571,4.6097561 0 0 1 0.01901,0.154 4.6097571,4.6097561 0 0 1 10e-4,0.01 4.6097571,4.6097561 0 0 1 0.008,0.105 4.6097561,4.6097571 0 0 1 0.002,0.022 4.6097571,4.6097561 0 0 1 0.004,0.164 4.6097571,4.6097561 0 0 1 0.006,0.1201 4.6097571,4.6097561 0 0 1 -0.002,0.047 4.6097561,4.6097571 0 0 1 0,0.012 4.6097571,4.6097561 0 0 1 -0.002,0.095 4.6097561,4.6097571 0 0 1 -0.001,0.025 4.6097571,4.6097561 0 0 1 -0.005,0.089 4.6097571,4.6097561 0 0 1 -0.01201,0.141 4.6097561,4.6097571 0 0 1 -0.005,0.043 4.6097571,4.6097561 0 0 1 -0.01601,0.1641 4.6097561,4.6097571 0 0 1 -0.003,0.024 4.6097571,4.6097561 0 0 1 -0.01501,0.09 4.6097571,4.6097561 0 0 1 -0.02701,0.1491 4.6097561,4.6097571 0 0 1 -0.007,0.034 4.6097571,4.6097561 0 0 1 -0.03501,0.1651 4.6097561,4.6097571 0 0 1 -0.002,0.01 4.6097571,4.6097561 0 0 1 -0.02501,0.097 4.6097571,4.6097561 0 0 1 -0.02201,0.074 l 0.695282,0.2781 -4.88286,8.9514 A 10.5,10.5 0 0 0 22.5,12.0003 10.5,10.5 0 0 0 12,1.5003 Z"
     id="circle4370" />
  <path
     inkscape:connector-curvature="0"
     style="opacity:1;fill:url(#radialGradient4360);fill-opacity:1.0;stroke:none;stroke-width:1;stroke-linejoin:round;stroke-miterlimit:4;stroke-dasharray:none;stroke-opacity:1"
     d="m 12,1.5 c -0.240433,0.01 -0.481095,0.017109 -0.720703,0.037109 l -0.0059,-0.011719 a 10.5,10.5 0 0 0 -0.01563,0 10.5,10.5 0 0 0 -3.0585932,0.6855469 10.5,10.5 0 0 0 -0.070313,0.03125 10.5,10.5 0 0 0 -0.859375,0.3847656 C 7.1347235,2.6953241 7.0062323,2.7749136 6.875,2.8496094 A 10.5,10.5 0 0 0 6.3789062,3.1347656 C 6.2319348,3.2284678 6.0908678,3.3315035 5.9492188,3.4335938 A 10.5,10.5 0 0 0 5.5214844,3.7402344 C 5.3918714,3.8424847 5.2686843,3.9531465 5.1445312,4.0625 A 10.5,10.5 0 0 0 4.7460938,4.4140625 C 4.6121314,4.5426812 4.4861454,4.680011 4.359375,4.8164062 A 10.5,10.5 0 0 0 4.1132812,5.0820312 C 3.8720569,5.3558367 3.644578,5.6423599 3.4335938,5.9394531 3.4198652,5.9587847 3.4042223,5.9766697 3.390625,5.9960938 3.1647413,6.3187731 2.9582438,6.6536383 2.7695312,7 a 10.5,10.5 0 0 0 -0.00781,0.013672 l 5.140625,8.316406 0.5917968,-0.33789 c 1.4147326,1.657899 3.853212,2.127146 5.808593,0.998046 2.205154,-1.2728 2.960631,-4.091875 1.6875,-6.2968745 l -3.478515,-2.3027344 -2.5605467,0 0,-0.5117188 1.0488277,0 L 11,7 21.222656,7 A 10.5,10.5 0 0 0 19.636719,4.8027344 C 19.561766,4.7233014 19.485481,4.6452903 19.408203,4.5683594 A 10.5,10.5 0 0 0 18.923828,4.1191406 C 18.825457,4.0322833 18.72642,3.9463179 18.625,3.8632812 A 10.5,10.5 0 0 0 17.943359,3.34375 c -0.0047,-0.00311 -0.009,-0.00667 -0.01367,-0.00977 A 10.5,10.5 0 0 0 17.90625,3.3203125 10.5,10.5 0 0 0 16.089844,2.328125 10.5,10.5 0 0 0 12,1.5 Z"
     id="circle4317" />
  <circle
     r="10.5"
     cy="11.999983"
     cx="12"
     id="circle4154"
     style="opacity:0.3;fill:none;fill-opacity:1;stroke:#000000;stroke-width:1;stroke-linejoin:round;stroke-miterlimit:4;stroke-dasharray:none;stroke-opacity:1" />
  <circle
     r="9.5"
     cy="12.000105"
     cx="12.000002"
     id="circle4156"
     style="opacity:0.5;fill:none;fill-opacity:1;stroke:url(#linearGradient4166);stroke-width:1;stroke-linejoin:round;stroke-miterlimit:4;stroke-dasharray:none;stroke-opacity:1" />
  <circle
     style="opacity:1;fill:#f5f5f5;fill-opacity:1;stroke:none;stroke-width:3;stroke-linejoin:round;stroke-miterlimit:4;stroke-dasharray:none;stroke-opacity:1"
     id="circle4159"
     cx="11.999998"
     cy="11.999861"
     r="5.5" />
  <circle
     r="3.5"
     cy="11.999983"
     cx="12"
     id="circle4155"
     style="opacity:1;fill:url(#radialGradient4157);fill-opacity:1.0;stroke:none;stroke-width:3;stroke-linejoin:round;stroke-miterlimit:4;stroke-dasharray:none;stroke-opacity:1" />
  <circle
     style="opacity:0.6;fill:none;fill-opacity:1;stroke:#144696;stroke-width:1;stroke-linejoin:round;stroke-miterlimit:4;stroke-dasharray:none;stroke-opacity:1"
     id="circle4165"
     cx="12"
     cy="11.999983"
     r="3.5" />
  <circle
     r="5.5"
     cy="11.999861"
     cx="11.999998"
     id="circle4167"
     style="opacity:0.3;fill:none;fill-opacity:1;stroke:#000000;stroke-width:1;stroke-linejoin:round;stroke-miterlimit:4;stroke-dasharray:none;stroke-opacity:1" />
  <circle
     style="opacity:0.5;fill:none;fill-opacity:1;stroke:url(#linearGradient4179);stroke-width:1;stroke-linejoin:round;stroke-miterlimit:4;stroke-dasharray:none;stroke-opacity:1"
     id="circle4169"
     cx="12"
     cy="11.999983"
     r="2.5" />
</svg>
