<?xml version="1.0" encoding="UTF-8" standalone="no"?>
<svg
   xmlns:dc="http://purl.org/dc/elements/1.1/"
   xmlns:cc="http://creativecommons.org/ns#"
   xmlns:rdf="http://www.w3.org/1999/02/22-rdf-syntax-ns#"
   xmlns:svg="http://www.w3.org/2000/svg"
   xmlns="http://www.w3.org/2000/svg"
   xmlns:xlink="http://www.w3.org/1999/xlink"
   xmlns:sodipodi="http://sodipodi.sourceforge.net/DTD/sodipodi-0.dtd"
   xmlns:inkscape="http://www.inkscape.org/namespaces/inkscape"
   version="1.0"
   width="24"
   height="24"
   id="svg2"
   sodipodi:docname="com.github.djaler.formatter_24.svg"
   inkscape:version="1.0.1 (1.0.1+r75)">
  <sodipodi:namedview
     pagecolor="#ffffff"
     bordercolor="#666666"
     borderopacity="1"
     objecttolerance="10"
     gridtolerance="10"
     guidetolerance="10"
     inkscape:pageopacity="0"
     inkscape:pageshadow="2"
     inkscape:window-width="1366"
     inkscape:window-height="705"
     id="namedview36"
     showgrid="true"
     inkscape:zoom="28.166666"
     inkscape:cx="19.725747"
     inkscape:cy="16.56285"
     inkscape:window-x="0"
     inkscape:window-y="30"
     inkscape:window-maximized="1"
     inkscape:current-layer="svg2"
     inkscape:document-rotation="0">
    <inkscape:grid
       type="xygrid"
       id="grid907" />
  </sodipodi:namedview>
  <metadata
     id="metadata88">
    <rdf:RDF>
      <cc:Work
         rdf:about="">
        <dc:format>image/svg+xml</dc:format>
        <dc:type
           rdf:resource="http://purl.org/dc/dcmitype/StillImage" />
        <dc:title />
      </cc:Work>
    </rdf:RDF>
  </metadata>
  <defs
     id="defs4">
    <linearGradient
       id="linearGradient4075">
      <stop
         id="stop4077"
         style="stop-color:#ffffff;stop-opacity:1"
         offset="0" />
      <stop
         id="stop4079"
         style="stop-color:#ffffff;stop-opacity:0.23529412"
         offset="0" />
      <stop
         id="stop4081"
         style="stop-color:#ffffff;stop-opacity:0.15686275"
         offset="1" />
      <stop
         id="stop4083"
         style="stop-color:#ffffff;stop-opacity:0.39215687"
         offset="1" />
    </linearGradient>
    <linearGradient
       x1="22.553417"
       y1="6.6305909"
       x2="22.553417"
       y2="41.943768"
       id="linearGradient4161-4"
       xlink:href="#linearGradient4075"
       gradientUnits="userSpaceOnUse"
       gradientTransform="matrix(0.21462027,0,0,0.42391297,11.25048,-0.78050762)" />
    <linearGradient
       y2="-26.979191"
       x2="116.7913"
       y1="-37.80846"
       x1="116.7913"
       gradientTransform="matrix(0.33471938,0,0,0.59667354,-23.328651,0.35638626)"
       gradientUnits="userSpaceOnUse"
       id="linearGradient4604"
       xlink:href="#linearGradient4614" />
    <linearGradient
       id="linearGradient4614">
      <stop
         offset="0"
         style="stop-color:#ffffff;stop-opacity:1"
         id="stop4606" />
      <stop
         offset="0.03140453"
         style="stop-color:#ffffff;stop-opacity:0.23529412"
         id="stop4608" />
      <stop
         offset="0.9812181"
         style="stop-color:#ffffff;stop-opacity:0.15686275"
         id="stop4610" />
      <stop
         offset="1"
         style="stop-color:#ffffff;stop-opacity:0.39215687"
         id="stop4612" />
    </linearGradient>
    <radialGradient
       r="22.627001"
       gradientTransform="matrix(0.26516308,0,0,0.06026566,48.916692,28.466026)"
       cx="23.334999"
       cy="41.636002"
       gradientUnits="userSpaceOnUse"
       id="radialGradient7374">
      <stop
         offset="0"
         id="stop23421" />
      <stop
         offset="1"
         style="stop-opacity:0"
         id="stop23423" />
    </radialGradient>
    <linearGradient
       x1="11.098394"
       y1="5.9702148"
       x2="11.098394"
       y2="45.68882"
       id="linearGradient5466-8-3-0"
       xlink:href="#linearGradient3600-8"
       gradientUnits="userSpaceOnUse"
       gradientTransform="matrix(0.47793243,0,0,0.42768318,8.8306347,-1.55508)" />
    <linearGradient
       id="linearGradient3600-8">
      <stop
         id="stop3602-2"
         style="stop-color:#f4f4f4;stop-opacity:1"
         offset="0" />
      <stop
         id="stop3604-5"
         style="stop-color:#dbdbdb;stop-opacity:1"
         offset="1" />
    </linearGradient>
    <linearGradient
       x1="-95.837799"
       y1="54.199703"
       x2="-95.837799"
       y2="5.1757793"
       id="linearGradient3373-2-5"
       xlink:href="#linearGradient3104-8-8-97-4-6-2-0-1-4-0-5-8-3-9-1-4"
       gradientUnits="userSpaceOnUse"
       gradientTransform="matrix(0.53833223,0,0,0.5558293,33.381992,-4.173296)" />
    <linearGradient
       id="linearGradient3104-8-8-97-4-6-2-0-1-4-0-5-8-3-9-1-4">
      <stop
         id="stop3106-5-4-3-5-0-1-61-9-2-7-3-3-2-6-9-2"
         style="stop-color:#000000;stop-opacity:0.32173914"
         offset="0" />
      <stop
         id="stop3108-4-3-7-8-2-4-01-9-9-0-6-4-3-7-7-3"
         style="stop-color:#000000;stop-opacity:0.27826086"
         offset="1" />
    </linearGradient>
    <radialGradient
       cx="6.2751122"
       cy="8.4497671"
       r="19.99999"
       fx="6.2751122"
       fy="8.4497671"
       id="radialGradient3370-2"
       xlink:href="#linearGradient4632-92-3-0-8-1-6-6"
       gradientUnits="userSpaceOnUse"
       gradientTransform="matrix(0,0.5485247,-0.58027369,-1.4929998e-8,23.403203,10.557946)" />
    <linearGradient
       id="linearGradient4632-92-3-0-8-1-6-6">
      <stop
         id="stop4634-68-8-0-2-9-1-1"
         style="stop-color:#fafafa;stop-opacity:1"
         offset="0" />
      <stop
         id="stop4636-8-21-7-1-4-9-4"
         style="stop-color:#e1e1e1;stop-opacity:1"
         offset="1" />
    </linearGradient>
    <linearGradient
       x1="71.204407"
       y1="7.8309216"
       x2="71.204407"
       y2="42.883553"
       id="linearGradient3364-8"
       xlink:href="#linearGradient4011"
       gradientUnits="userSpaceOnUse"
       gradientTransform="matrix(0.21621622,0,0,0.21621622,2.990049,13.017354)" />
    <linearGradient
       id="linearGradient4011">
      <stop
         id="stop4013"
         style="stop-color:#ffffff;stop-opacity:1"
         offset="0" />
      <stop
         id="stop4015"
         style="stop-color:#ffffff;stop-opacity:0.23529412"
         offset="0.507761" />
      <stop
         id="stop4017"
         style="stop-color:#ffffff;stop-opacity:0.15686275"
         offset="0.83456558" />
      <stop
         id="stop4019"
         style="stop-color:#ffffff;stop-opacity:0.39215687"
         offset="1" />
    </linearGradient>
    <radialGradient
       gradientTransform="matrix(0,1.0975615,-1.1610891,-2.9873935e-8,28.310952,9.2827926)"
       gradientUnits="userSpaceOnUse"
       xlink:href="#linearGradient2867-449-88-871-390-598-476-591-434-148-57-177-3-8-8"
       id="radialGradient3386"
       fy="8.4497671"
       fx="1.1978998"
       r="19.99999"
       cy="8.4497671"
       cx="1.1978998" />
    <linearGradient
       id="linearGradient2867-449-88-871-390-598-476-591-434-148-57-177-3-8-8">
      <stop
         offset="0"
         style="stop-color:#90dbec;stop-opacity:1"
         id="stop3750-8-9-0" />
      <stop
         offset="0.26238"
         style="stop-color:#42baea;stop-opacity:1"
         id="stop3752-3-2-2" />
      <stop
         offset="0.704952"
         style="stop-color:#3689e6;stop-opacity:1"
         id="stop3754-7-2-2-9" />
      <stop
         offset="1"
         style="stop-color:#2b63a0;stop-opacity:1"
         id="stop3756-9-3-05" />
    </linearGradient>
    <linearGradient
       x1="-95.837799"
       y1="54.199703"
       x2="-95.837799"
       y2="5.1757793"
       id="linearGradient3373-2-5-3"
       xlink:href="#linearGradient3104-8-8-97-4-6-2-0-1-4-0-5-8-3-9-1-4"
       gradientUnits="userSpaceOnUse"
       gradientTransform="matrix(0.53833223,0,0,0.5558293,46.195602,-12.16442)" />
    <radialGradient
       gradientTransform="matrix(0,1.0975615,-1.1610891,-2.9873935e-8,40.876042,7.2827926)"
       gradientUnits="userSpaceOnUse"
       xlink:href="#linearGradient2867-449-88-871-390-598-476-591-434-148-57-177-3-8-8"
       id="radialGradient3386-5"
       fy="8.4497671"
       fx="1.1978998"
       r="19.99999"
       cy="8.4497671"
       cx="1.1978998" />
  </defs>
  <g
     id="g4579"
     transform="translate(-43.104077,-8.3392264)">
    <path
       id="path23417"
       style="opacity:0.3;fill:url(#radialGradient7374);fill-rule:evenodd;stroke-width:0.99999994"
       d="m 61.104077,30.975341 a 6.0000001,1.3636364 0 1 1 -12,0 6.0000001,1.3636364 0 1 1 12,0 z" />
  </g>
  <rect
     x="7.5"
     y="-23.5"
     width="9"
     height="9"
     ry="1"
     rx="1"
     transform="scale(1,-1)"
     style="fill:#e6e6e6;fill-opacity:1;stroke:#000000;stroke-width:1;stroke-opacity:0.30232558"
     id="rect3448" />
  <g
     id="g4576"
     style="opacity:0.2">
    <rect
       y="20"
       x="9"
       height="2"
       width="2"
       id="rect4570"
       style="opacity:1;fill:#000000;fill-opacity:1;stroke:none;stroke-width:2;stroke-linecap:round;stroke-linejoin:round;stroke-miterlimit:4;stroke-dasharray:none;stroke-dashoffset:0;stroke-opacity:0.4" />
    <rect
       style="opacity:1;fill:#000000;fill-opacity:1;stroke:none;stroke-width:2;stroke-linecap:round;stroke-linejoin:round;stroke-miterlimit:4;stroke-dasharray:none;stroke-dashoffset:0;stroke-opacity:0.4"
       id="rect4572"
       width="2"
       height="2"
       x="13"
       y="20" />
  </g>
  <rect
     x="8.4944277"
     y="-22.472153"
     width="7"
     height="7"
     transform="scale(1,-1)"
     style="opacity:0.6;fill:none;fill-opacity:1;stroke:url(#linearGradient4604);stroke-width:0.99999994;stroke-linecap:round;stroke-linejoin:round;stroke-miterlimit:4;stroke-dasharray:none;stroke-dashoffset:0;stroke-opacity:1;marker:none"
     id="rect3458" />
  <rect
     ry="0.5"
     id="rect5391-5-7"
     style="opacity:1;fill:url(#linearGradient5466-8-3-0);fill-opacity:1;stroke:none;stroke-width:0.99992192;stroke-linecap:butt;stroke-linejoin:round;stroke-miterlimit:4;stroke-dasharray:none;stroke-dashoffset:0;stroke-opacity:1;marker:none"
     rx="0.5"
     height="17"
     width="10"
     y="0.99999845"
     x="7" />
  <rect
     ry="1"
     rx="1"
     y="0.49995935"
     x="6.4999609"
     height="18.000078"
     width="11.000078"
     id="rect901"
     style="opacity:0.3;vector-effect:none;fill:none;fill-opacity:1;stroke:#000000;stroke-width:0.9999218;stroke-linecap:butt;stroke-linejoin:round;stroke-miterlimit:4;stroke-dasharray:none;stroke-dashoffset:0;stroke-opacity:1;marker:none" />
  <rect
     y="1.4999593"
     x="7.5"
     height="16.000078"
     width="9"
     id="rect901-3"
     style="opacity:1;vector-effect:none;fill:none;fill-opacity:1;stroke:url(#linearGradient4161-4);stroke-width:0.99999988;stroke-linecap:round;stroke-linejoin:round;stroke-miterlimit:4;stroke-dasharray:none;stroke-dashoffset:0;stroke-opacity:1;marker:none" />
  <path
     d="m 10.840723,15.42596 c 0,-0.812844 0.270159,-1.023722 0.601081,-1.307524 0.265666,-0.128245 0.308115,-0.215797 0.304622,-0.628246 -0.0038,-0.455788 -0.04748,-0.403723 -0.892257,-1.137052 C 9.5643341,11.233522 9.3908717,10.963528 9.239426,9.8400295 9.1277128,9.0114045 9.2060698,9.6984184 8.8853869,9.3796815 8.2951367,8.7930329 8.3962618,7.932675 9.098919,7.5629056 9.7319231,7.2298013 10.481784,7.5840826 10.713024,8.325543 10.826996,8.6909666 10.553758,9.3220307 10.186859,9.5407364 9.8511071,9.7408934 9.7118161,9.4071903 9.7885951,10.144998 c 0.04249,0.408357 0.14605,0.373299 0.2301219,0.538935 0.144387,0.284464 1.5583,1.623587 1.712099,1.623587 V 5.9999129 h -0.783763 l 1.06712,-2.5039139 1.11847,2.5041685 h -0.76181 v 4.7546645 c 0.105957,0 1.129458,-1.023679 1.478993,-1.4983148 0.151025,-0.2050753 0.242676,-0.4962648 0.242676,-0.7710368 0,-0.4144014 0.136657,-0.50154 -0.17942,-0.50154 H 13.576338 V 6.0421262 h 1.908216 v 1.9418142 h -0.308681 c -0.275428,0.03225 -0.472288,0.1726354 -0.524283,0.6321332 -0.07755,0.6852601 -0.355742,1.1044272 -1.435848,2.1931844 l -0.844915,0.911155 v 2.24934 l 0.249682,0.149014 c 0.169778,0.08196 0.403596,0.346791 0.519598,0.58852 0.412977,0.862221 -0.161626,1.788713 -1.109116,1.788713 -0.686597,-0.02546 -1.190568,-0.377978 -1.190568,-1.069028 z"
     style="opacity:0.3;fill:#ffffff;fill-opacity:1;stroke-width:1;font-variant-east_asian:normal;vector-effect:none;stroke-linecap:butt;stroke-linejoin:miter;stroke-miterlimit:4;stroke-dasharray:none;stroke-dashoffset:0;stroke-opacity:1"
     id="path3690-3" />
  <path
     d="m 10.840723,14.425792 c 0,-0.812844 0.270159,-1.023722 0.601081,-1.307524 0.265666,-0.128245 0.308115,-0.215797 0.304622,-0.628246 -0.0038,-0.455788 -0.04748,-0.403723 -0.892257,-1.137052 C 9.5643341,10.233354 9.3908717,9.96336 9.239426,8.839862 9.1277128,8.011237 9.2060698,8.6982509 8.8853869,8.379514 8.2951367,7.7928654 8.3962618,6.9325075 9.098919,6.5627381 c 0.6330041,-0.3331043 1.382865,0.021177 1.614105,0.7626374 0.113972,0.3654236 -0.159266,0.9964877 -0.526165,1.2151934 -0.3357519,0.200157 -0.4750429,-0.1335461 -0.3982639,0.604262 0.04249,0.408357 0.14605,0.3732981 0.2301219,0.5389341 0.144387,0.284464 1.5583,1.623587 1.712099,1.623587 V 4.9997454 H 10.947053 L 12.014173,2.4958315 13.132643,5 h -0.76181 v 4.754664 c 0.105957,0 1.129458,-1.0236785 1.478993,-1.4983143 0.151025,-0.2050753 0.242676,-0.4962648 0.242676,-0.7710368 0,-0.4144014 0.136657,-0.50154 -0.17942,-0.50154 H 13.576338 V 5.0419587 h 1.908216 V 6.9837729 H 15.175873 C 14.900445,7.0160229 14.703585,7.1564083 14.65159,7.6159061 14.57404,8.3011662 14.295848,8.7203333 13.215742,9.80909 l -0.844915,0.911155 v 2.24934 l 0.249682,0.149014 c 0.169778,0.08196 0.403596,0.346791 0.519598,0.58852 0.412977,0.862221 -0.161626,1.788713 -1.109116,1.788713 -0.686597,-0.02546 -1.190568,-0.377978 -1.190568,-1.069028 z"
     style="opacity:0.95;fill:#969696;fill-opacity:1;stroke-width:0.63632655"
     id="path3690" />
  <path
     d="M 18.500001,13.5 C 15.741174,13.5 13.5,15.741172 13.5,18.5 c 0,2.758828 2.241174,5.000001 5.000001,5 2.758825,0 5.000002,-2.241172 4.999999,-5 0,-2.758828 -2.241174,-5 -4.999999,-5 z"
     id="path2555-7-2"
     style="color:#000000;display:inline;overflow:visible;visibility:visible;opacity:0.8;fill:none;stroke:url(#linearGradient3373-2-5);stroke-width:1;stroke-linecap:butt;stroke-linejoin:miter;stroke-miterlimit:4;stroke-dasharray:none;stroke-dashoffset:0;stroke-opacity:1;marker:none;enable-background:accumulate" />
  <path
     d="m 18.5,14 c -2.482946,0 -4.5,2.017055 -4.5,4.5 0,2.482944 2.017054,4.500001 4.5,4.5 C 20.982945,23 23,20.982944 23,18.5 23,16.017055 20.982945,14 18.5,14 Z"
     id="path2555-72"
     style="color:#000000;display:inline;overflow:visible;visibility:visible;fill:url(#radialGradient3386);fill-opacity:1;fill-rule:nonzero;stroke:none;stroke-width:0.999999;marker:none;enable-background:accumulate" />
  <path
     d="m 22.5,18.499859 c 0,2.20921 -1.790994,4.000142 -3.999949,4.000142 C 16.290891,22.500001 14.5,20.709049 14.5,18.499859 14.5,16.290751 16.290891,14.5 18.500051,14.5 20.709006,14.5 22.5,16.290751 22.5,18.499859 Z"
     id="path8655-6-4-6"
     style="color:#000000;display:inline;overflow:visible;visibility:visible;fill:none;stroke:url(#linearGradient3364-8);stroke-width:1;stroke-linecap:round;stroke-linejoin:round;stroke-miterlimit:4;stroke-dasharray:none;stroke-dashoffset:0;stroke-opacity:1;marker:none;enable-background:accumulate;opacity:0.5" />
  <path
     id="path2555-72-2"
     style="color:#000000;display:inline;overflow:visible;visibility:visible;opacity:0.05;fill:#000000;fill-opacity:1;fill-rule:nonzero;stroke:none;stroke-width:0.999999;marker:none;enable-background:accumulate"
     d="M 17.259766,14.195312 C 17.172334,14.220569 17.085165,14.245056 17,14.275391 V 16 16.552734 C 15.874308,17.13778 15,18.15475 15,19.5 c 0,1.920374 1.579624,3.500002 3.5,3.5 0.240047,0 0.476146,-0.02532 0.703125,-0.07227 C 20.791976,22.599129 22.000001,21.180329 22,19.5 V 18 h -1 l 0.666016,-0.5 z M 19,19.5 c 0,0.298554 -0.201447,0.5 -0.5,0.5 -0.04315,0 -0.03349,-0.06416 -0.07227,-0.07227 z" />
  <path
     id="path911-3"
     style="color:#000000;font-style:normal;font-variant:normal;font-weight:normal;font-stretch:normal;font-size:medium;line-height:normal;font-family:sans-serif;font-variant-ligatures:normal;font-variant-position:normal;font-variant-caps:normal;font-variant-numeric:normal;font-variant-alternates:normal;font-variant-east-asian:normal;font-feature-settings:normal;font-variation-settings:normal;text-indent:0;text-align:start;text-decoration:none;text-decoration-line:none;text-decoration-style:solid;text-decoration-color:#000000;letter-spacing:normal;word-spacing:normal;text-transform:none;writing-mode:lr-tb;direction:ltr;text-orientation:mixed;dominant-baseline:auto;baseline-shift:baseline;text-anchor:start;white-space:normal;shape-padding:0;shape-margin:0;inline-size:0;clip-rule:nonzero;display:inline;overflow:visible;visibility:visible;opacity:0.15;isolation:auto;mix-blend-mode:normal;color-interpolation:sRGB;color-interpolation-filters:linearRGB;solid-color:#000000;solid-opacity:1;vector-effect:none;fill:#000000;fill-opacity:1;fill-rule:nonzero;stroke:none;stroke-width:1;stroke-linecap:butt;stroke-linejoin:miter;stroke-miterlimit:4;stroke-dasharray:none;stroke-dashoffset:0;stroke-opacity:1;marker:none;color-rendering:auto;image-rendering:auto;shape-rendering:auto;text-rendering:auto;enable-background:accumulate;stop-color:#000000;stop-opacity:1"
     d="m 18,16 v 1.050781 c -1.137076,0.233524 -2,1.246028 -2,2.449219 0,1.374319 1.12568,2.500001 2.5,2.5 1.374318,0 2.500001,-1.12568 2.5,-2.5 V 19 h -1 v 0.5 c 1e-6,0.832742 -0.66726,1.5 -1.5,1.5 -0.832742,1e-6 -1.5,-0.667257 -1.5,-1.5 0,-0.656074 0.417039,-1.20294 1,-1.408203 V 19 l 2,-1.5 z" />
  <path
     id="path911"
     style="color:#000000;font-style:normal;font-variant:normal;font-weight:normal;font-stretch:normal;font-size:medium;line-height:normal;font-family:sans-serif;font-variant-ligatures:normal;font-variant-position:normal;font-variant-caps:normal;font-variant-numeric:normal;font-variant-alternates:normal;font-variant-east-asian:normal;font-feature-settings:normal;font-variation-settings:normal;text-indent:0;text-align:start;text-decoration:none;text-decoration-line:none;text-decoration-style:solid;text-decoration-color:#000000;letter-spacing:normal;word-spacing:normal;text-transform:none;writing-mode:lr-tb;direction:ltr;text-orientation:mixed;dominant-baseline:auto;baseline-shift:baseline;text-anchor:start;white-space:normal;shape-padding:0;shape-margin:0;inline-size:0;clip-rule:nonzero;display:inline;overflow:visible;visibility:visible;opacity:1;isolation:auto;mix-blend-mode:normal;color-interpolation:sRGB;color-interpolation-filters:linearRGB;solid-color:#000000;solid-opacity:1;vector-effect:none;fill:#ffffff;fill-opacity:1;fill-rule:nonzero;stroke:none;stroke-width:1;stroke-linecap:butt;stroke-linejoin:miter;stroke-miterlimit:4;stroke-dasharray:none;stroke-dashoffset:0;stroke-opacity:1;marker:none;color-rendering:auto;image-rendering:auto;shape-rendering:auto;text-rendering:auto;enable-background:accumulate;stop-color:#000000;stop-opacity:1"
     d="M 18 15 L 18 16.050781 C 16.862924 16.284305 16 17.296809 16 18.5 C 16 19.874319 17.12568 21.000001 18.5 21 C 19.874318 21 21.000001 19.87432 21 18.5 L 21 18 L 20 18 L 20 18.5 C 20.000001 19.332742 19.33274 20 18.5 20 C 17.667258 20.000001 17 19.332743 17 18.5 C 17 17.843926 17.417039 17.29706 18 17.091797 L 18 18 L 20 16.5 L 18 15 z " />
</svg>
