<?xml version="1.0" encoding="UTF-8" standalone="no"?>
<svg
   xmlns:dc="http://purl.org/dc/elements/1.1/"
   xmlns:cc="http://creativecommons.org/ns#"
   xmlns:rdf="http://www.w3.org/1999/02/22-rdf-syntax-ns#"
   xmlns:svg="http://www.w3.org/2000/svg"
   xmlns="http://www.w3.org/2000/svg"
   xmlns:xlink="http://www.w3.org/1999/xlink"
   xmlns:sodipodi="http://sodipodi.sourceforge.net/DTD/sodipodi-0.dtd"
   xmlns:inkscape="http://www.inkscape.org/namespaces/inkscape"
   id="svg3946"
   height="24"
   width="24"
   version="1.1"
   sodipodi:docname="skypeforlinux_24.svg"
   inkscape:version="1.0.1 (1.0.1+r75)">
  <sodipodi:namedview
     pagecolor="#ffffff"
     bordercolor="#666666"
     borderopacity="1"
     objecttolerance="10"
     gridtolerance="10"
     guidetolerance="10"
     inkscape:pageopacity="0"
     inkscape:pageshadow="2"
     inkscape:window-width="1366"
     inkscape:window-height="705"
     id="namedview33"
     showgrid="true"
     inkscape:zoom="3.5208333"
     inkscape:cx="13.882141"
     inkscape:cy="13.698854"
     inkscape:window-x="0"
     inkscape:window-y="30"
     inkscape:window-maximized="1"
     inkscape:current-layer="svg3946"
     inkscape:document-rotation="0"
     inkscape:snap-nodes="false"
     inkscape:snap-bbox="true"
     inkscape:bbox-nodes="true">
    <inkscape:grid
       type="xygrid"
       id="grid949" />
  </sodipodi:namedview>
  <defs
     id="defs3948">
    <linearGradient
       id="linearGradient8838">
      <stop
         offset="0"
         style="stop-color:#000000;stop-opacity:1"
         id="stop8840" />
      <stop
         offset="1"
         style="stop-color:#000000;stop-opacity:0"
         id="stop8842" />
    </linearGradient>
    <linearGradient
       id="linearGradient2867-449-88-871-390-598-476-591-434-148-57-177-3-8-9">
      <stop
         id="stop3750-8-9-6"
         style="stop-color:#8cd5ff;stop-opacity:1"
         offset="0" />
      <stop
         id="stop3752-3-2-9"
         style="stop-color:#64baff;stop-opacity:1"
         offset="0.26238" />
      <stop
         id="stop3754-7-2-5"
         style="stop-color:#3689e6;stop-opacity:1"
         offset="0.704952" />
      <stop
         id="stop3756-9-3-0"
         style="stop-color:#0d52bf;stop-opacity:1"
         offset="1" />
    </linearGradient>
    <radialGradient
       r="10.625"
       fy="4.625"
       fx="62.625"
       cy="4.625"
       cx="62.625"
       gradientTransform="matrix(1.1294118,0,0,0.2823525,-58.729414,19.694118)"
       gradientUnits="userSpaceOnUse"
       id="radialGradient3090"
       xlink:href="#linearGradient8838" />
    <radialGradient
       r="19.99999"
       fy="8.4497671"
       fx="3.9722471"
       cy="8.4497671"
       cx="3.9722471"
       gradientTransform="matrix(0,1.2798909,-1.3539719,-3.4836662e-8,23.440807,-6.5314582)"
       gradientUnits="userSpaceOnUse"
       id="radialGradient3100"
       xlink:href="#linearGradient2867-449-88-871-390-598-476-591-434-148-57-177-3-8-9" />
    <linearGradient
       x1="71.204407"
       y1="15.369057"
       x2="71.204407"
       y2="40.495617"
       id="linearGradient4338-5-6"
       xlink:href="#linearGradient4806-2-9-2"
       gradientUnits="userSpaceOnUse"
       gradientTransform="matrix(0.78775976,0,0,0.7877599,-44.857438,-9.952426)" />
    <linearGradient
       id="linearGradient4806-2-9-2">
      <stop
         id="stop4808-4-6-7"
         style="stop-color:#ffffff;stop-opacity:1"
         offset="0" />
      <stop
         id="stop4810-0-9-3"
         style="stop-color:#ffffff;stop-opacity:0.23529412"
         offset="0.42447853" />
      <stop
         id="stop4812-8-7-9"
         style="stop-color:#ffffff;stop-opacity:0.15686275"
         offset="0.82089913" />
      <stop
         id="stop4814-0-7-4"
         style="stop-color:#ffffff;stop-opacity:0.39215687"
         offset="1" />
    </linearGradient>
    <radialGradient
       cx="-1.2645766"
       cy="8.449769"
       r="19.99999"
       fx="0.66680855"
       fy="8.449769"
       id="radialGradient3126-7-25-24-9"
       xlink:href="#linearGradient4223"
       gradientUnits="userSpaceOnUse"
       gradientTransform="matrix(0,2.0117098,-1.584131,-2.2840856e-8,25.885602,-1.132613)" />
    <linearGradient
       id="linearGradient4223">
      <stop
         id="stop4225"
         style="stop-color:#d1ff82;stop-opacity:1"
         offset="0" />
      <stop
         id="stop4227"
         style="stop-color:#9bdb4d;stop-opacity:1"
         offset="0.26238" />
      <stop
         id="stop4229"
         style="stop-color:#68b723;stop-opacity:1"
         offset="0.66093999" />
      <stop
         id="stop4231"
         style="stop-color:#3a9104;stop-opacity:1"
         offset="1" />
    </linearGradient>
    <linearGradient
       inkscape:collect="always"
       xlink:href="#linearGradient947"
       id="linearGradient929"
       x1="19.288254"
       y1="1006.3339"
       x2="4.1306152"
       y2="1032.0963"
       gradientUnits="userSpaceOnUse"
       gradientTransform="matrix(0.33936523,0,0,0.34049233,0.82126717,-341.1586)" />
    <linearGradient
       id="linearGradient947">
      <stop
         id="stop943"
         style="stop-color:#64baff;stop-opacity:1"
         offset="0" />
      <stop
         id="stop945"
         style="stop-color:#3689e6;stop-opacity:1"
         offset="1" />
    </linearGradient>
    <linearGradient
       id="b"
       x1="21.834949"
       y1="30.768084"
       x2="29.546"
       y2="17.889"
       gradientUnits="userSpaceOnUse"
       gradientTransform="matrix(0.68477519,0,0,0.68704888,1.4602835,1.2014605)">
      <stop
         offset="0"
         stop-color="#0078d4"
         id="stop11"
         style="stop-color:#3689e6;stop-opacity:1" />
      <stop
         offset="1"
         stop-color="#00bcf2"
         id="stop21"
         style="stop-color:#64baff;stop-opacity:1" />
    </linearGradient>
    <linearGradient
       id="c"
       x1="15.862497"
       y1="2.235914"
       x2="15.862497"
       y2="29.892433"
       gradientUnits="userSpaceOnUse"
       gradientTransform="matrix(0.68478151,0,0,0.68705882,1.1366289,0.96240392)">
      <stop
         offset="0"
         stop-color="#00b7f0"
         id="stop24"
         style="stop-color:#64baff;stop-opacity:1" />
      <stop
         offset="1"
         stop-color="#007cc1"
         id="stop26"
         style="stop-color:#3689e6;stop-opacity:1" />
    </linearGradient>
    <linearGradient
       inkscape:collect="always"
       xlink:href="#linearGradient4214"
       id="linearGradient1180"
       x1="5.5000019"
       y1="1028.3623"
       x2="42.499996"
       y2="1028.3623"
       gradientUnits="userSpaceOnUse"
       gradientTransform="matrix(0,0.47222246,-0.47222246,0,497.61576,0.66665648)" />
    <linearGradient
       id="linearGradient4214">
      <stop
         style="stop-color:#ffffff;stop-opacity:1;"
         offset="0"
         id="stop4216" />
      <stop
         id="stop4218"
         offset="0.28571552"
         style="stop-color:#ffffff;stop-opacity:0.23529412" />
      <stop
         style="stop-color:#ffffff;stop-opacity:0.15686275"
         offset="0.71428698"
         id="stop4220" />
      <stop
         style="stop-color:#ffffff;stop-opacity:0.39215687"
         offset="1"
         id="stop4222" />
    </linearGradient>
    <linearGradient
       inkscape:collect="always"
       xlink:href="#linearGradient4632-92-3-0-8-1-9"
       id="linearGradient936"
       x1="24"
       y1="1017.3622"
       x2="24"
       y2="1039.3586"
       gradientUnits="userSpaceOnUse"
       gradientTransform="matrix(0.54545138,0,0,0.54545138,-1.0908374,-548.92159)" />
    <linearGradient
       id="linearGradient4632-92-3-0-8-1-9">
      <stop
         offset="0"
         style="stop-color:#fafafa;stop-opacity:1"
         id="stop4634-68-8-0-2-9-4" />
      <stop
         offset="1"
         style="stop-color:#e1e1e1;stop-opacity:1"
         id="stop4636-8-21-7-1-4-8" />
    </linearGradient>
    <linearGradient
       id="c-9"
       x1="15.862497"
       y1="2.235914"
       x2="15.862497"
       y2="29.892433"
       gradientUnits="userSpaceOnUse"
       gradientTransform="matrix(0.68478151,0,0,0.68705882,23.136629,27.962403)">
      <stop
         offset="0"
         stop-color="#00b7f0"
         id="stop24-2"
         style="stop-color:#64baff;stop-opacity:1" />
      <stop
         offset="1"
         stop-color="#007cc1"
         id="stop26-0"
         style="stop-color:#3689e6;stop-opacity:1" />
    </linearGradient>
    <linearGradient
       id="b-2"
       x1="21.834949"
       y1="30.768084"
       x2="29.546"
       y2="17.889"
       gradientUnits="userSpaceOnUse"
       gradientTransform="matrix(0.68477519,0,0,0.68704888,23.460284,28.20146)">
      <stop
         offset="0"
         stop-color="#0078d4"
         id="stop11-3"
         style="stop-color:#3689e6;stop-opacity:1" />
      <stop
         offset="1"
         stop-color="#00bcf2"
         id="stop21-7"
         style="stop-color:#64baff;stop-opacity:1" />
    </linearGradient>
    <linearGradient
       id="b-2-8"
       x1="21.834949"
       y1="30.768084"
       x2="29.546"
       y2="17.889"
       gradientUnits="userSpaceOnUse"
       gradientTransform="matrix(0.68477519,0,0,0.68704888,26.37044,-2.2340867)">
      <stop
         offset="0"
         stop-color="#0078d4"
         id="stop11-3-9"
         style="stop-color:#3689e6;stop-opacity:1" />
      <stop
         offset="1"
         stop-color="#00bcf2"
         id="stop21-7-7"
         style="stop-color:#64baff;stop-opacity:1" />
    </linearGradient>
    <linearGradient
       inkscape:collect="always"
       xlink:href="#linearGradient4214"
       id="linearGradient906"
       x1="5"
       y1="2"
       x2="5"
       y2="8"
       gradientUnits="userSpaceOnUse" />
    <linearGradient
       inkscape:collect="always"
       xlink:href="#linearGradient4214"
       id="linearGradient914"
       x1="19"
       y1="16"
       x2="19"
       y2="22"
       gradientUnits="userSpaceOnUse" />
  </defs>
  <metadata
     id="metadata3951">
    <rdf:RDF>
      <cc:Work
         rdf:about="">
        <dc:format>image/svg+xml</dc:format>
        <dc:type
           rdf:resource="http://purl.org/dc/dcmitype/StillImage" />
        <dc:title />
      </cc:Work>
    </rdf:RDF>
  </metadata>
  <path
     d="m 24,21 c 0,1.656854 -5.372583,3 -12,3 C 5.3725827,24 -2.5e-7,22.656854 -2.5e-7,21 -2.5e-7,19.343146 5.3725827,18 12,18 c 6.627417,0 12,1.343146 12,3 l 0,0 z"
     id="path8836"
     style="opacity:0.3;fill:url(#radialGradient3090);fill-opacity:1;fill-rule:evenodd;stroke:none;stroke-width:0.99999988;marker:none;visibility:visible;display:inline;overflow:visible" />
  <path
     d="M 13.499998,7.4999505 A 6.0000002,5.9999962 0 0 1 7.5000001,13.500002 6.0000002,5.9999962 0 0 1 1.4999985,7.4999505 6.0000002,5.9999962 0 0 1 7.5000001,1.5000024 6.0000002,5.9999962 0 0 1 13.499998,7.4999505"
     style="fill:url(#linearGradient929);fill-opacity:1;stroke:none;stroke-width:33.3333"
     id="path31" />
  <path
     d="M 22.500001,16.499949 A 6.0000003,5.9999979 0 0 1 16.5,22.500001 a 6.0000003,5.9999979 0 0 1 -6,-6.000052 6.0000003,5.9999979 0 0 1 6,-5.999949 6.0000003,5.9999979 0 0 1 6.000001,5.999949"
     style="fill:url(#b);stroke-width:33.3333"
     id="path33" />
  <path
     d="M 21.499974,12.000025 A 9.4999735,9.4999628 0 0 1 12.000001,21.5 9.4999735,9.4999628 0 0 1 2.5000259,12.000025 9.4999735,9.4999628 0 0 1 12.000001,2.5 a 9.4999735,9.4999628 0 0 1 9.499973,9.500025"
     style="fill:url(#c);stroke-width:33.3333"
     id="path47" />
  <path
     id="path47-22"
     style="opacity:0.4;fill:none;stroke:#002e99;stroke-width:1;stroke-miterlimit:4;stroke-dasharray:none;stroke-opacity:1"
     d="M 21.499975,12.000025 A 9.4999735,9.4999628 0 0 1 12.000002,21.5 9.4999735,9.4999628 0 0 1 2.5000261,12.000025 9.4999735,9.4999628 0 0 1 12.000002,2.499999 a 9.4999735,9.4999628 0 0 1 9.499973,9.500026 m -0.06247,1.089819 a 9.4999735,9.4999628 0 0 1 -8.347656,8.345703 6.0000003,5.9999979 0 0 0 3.410156,1.064453 6.0000003,5.9999979 0 0 0 6,-6 6.0000003,5.9999979 0 0 0 -1.0625,-3.410156 z M 7.5000001,1.5 a 6.0000002,5.9999962 0 0 0 -6,6 6.0000002,5.9999962 0 0 0 1.0625,3.410156 A 9.4999735,9.4999628 0 0 1 10.910156,2.564453 6.0000002,5.9999962 0 0 0 7.5000001,1.5 Z" />
  <path
     id="path31-5-2"
     style="fill:none;fill-opacity:1;stroke:url(#linearGradient906);stroke-width:1;stroke-linejoin:round;stroke-miterlimit:4;stroke-dasharray:none;stroke-opacity:1;opacity:0.4"
     d="m 7.5,2.5 c -2.77327,0 -5.000002,2.226733 -5,5 -4e-6,0.02023 0.017337,0.036431 0.017578,0.056641 C 3.559746,5.337413 5.340645,3.560424 7.560547,2.519531 7.53887,2.519243 7.5217,2.500006 7.5,2.5 Z" />
  <path
     id="path33-9-9"
     style="fill:none;stroke:url(#linearGradient914);stroke-width:1;stroke-linejoin:round;stroke-miterlimit:4;stroke-dasharray:none;stroke-opacity:1;opacity:0.4"
     d="m 21.48972,16.441745 c -1.042168,2.219229 -2.823067,3.996218 -5.042969,5.03711 0.02168,2.88e-4 0.03885,0.01953 0.06055,0.01953 2.77327,0 5.000001,-2.226732 5,-5 1e-6,-0.02023 -0.01734,-0.03643 -0.01758,-0.05664 z" />
  <path
     id="path49-5-9"
     style="opacity:0.2;fill:#002e99;fill-opacity:1;stroke:none;stroke-width:33.3333"
     d="m 12.949212,6.0094638 c -0.836334,-0.040234 -1.675042,0.04882 -2.474609,0.248047 -1.6174416,0.380951 -3.2925776,1.624576 -3.4492186,3.589844 -0.168373,1.4741672 0.509538,2.9378032 1.775391,3.7519532 l -0.00977,0.01367 c 0.014391,0.01022 0.02466,0.0095 0.039063,0.01953 0.00613,0.0038 0.00752,0.01182 0.013672,0.01563 l 0.00391,-0.0059 c 1.4419226,1.001877 2.9480236,1.300123 3.8867186,1.998047 l 0.02734,0.02148 0.0293,0.01758 c 0.04203,0.02698 0.06385,0.206761 0.03711,0.261719 -0.100928,0.109145 -0.227982,0.179958 -0.480469,0.214844 -0.264664,0.03657 -0.623382,0.01097 -0.958984,-0.05469 l -0.02539,-0.0059 -0.02344,-0.0039 c -0.17142,-0.02494 -0.444649,-0.153091 -0.84375,-0.34961 -0.393058,-0.193542 -0.9483736,-0.445434 -1.6425786,-0.414062 -1.248682,0.03556 -2.070991,1.240359 -1.767578,2.398437 0.22543,0.882606 0.947093,1.430364 1.5625,1.689453 0.617792,0.260094 1.213597,0.352402 1.5917966,0.447266 l 0.05273,0.01367 0.05273,0.0059 c 1.579536,0.220457 3.431,0.22777 5.042969,-0.726562 l 0.0039,-0.002 0.0039,-0.002 c 1.386398,-0.835323 1.99757,-2.426172 1.832031,-3.921875 -0.127602,-1.718598 -1.414299,-2.902821 -2.701171,-3.509766 -1.184571,-0.650526 -2.318856,-0.919813 -3.050782,-1.443359 l -0.02539,-0.01758 -0.02539,-0.01562 c -8.11e-4,-5.1e-4 -0.002,-0.166536 -0.0039,-0.179688 0.574114,-0.3705622 1.520899,-0.2544562 2.404297,0.121094 0.421805,0.23899 0.888664,0.339457 1.384765,0.269531 0.546216,-0.07699 1.163991,-0.4615752 1.431641,-1.0878912 0.533689,-1.174261 -0.163037,-2.411657 -1.230469,-2.826172 -0.792836,-0.318691 -1.626527,-0.491013 -2.462891,-0.53125 z" />
  <path
     id="path942"
     style="opacity:0.4;fill:#002e99;fill-opacity:1;stroke:none;stroke-width:33.3333"
     d="m 9.3680284,12.798772 c -0.956826,-0.59187 -1.484998,-1.737372 -1.353396,-2.8492732 0.09969,-1.41572 1.393086,-2.414714 2.6919476,-2.719022 1.418739,-0.355198 2.976317,-0.31118 4.33961,0.239072 0.579505,0.222435 0.968498,0.906267 0.690407,1.497045 -0.239627,0.604033 -1.032945,0.62536 -1.511159,0.303489 -1.042618,-0.445306 -2.362164,-0.70445 -3.370908,-0.0371 -0.623054,0.427251 -0.603409,1.4551012 0.03821,1.8580802 0.969655,0.693595 2.172423,0.951757 3.204959,1.531844 1.070526,0.504325 2.057858,1.455429 2.14071,2.697585 0.13411,1.143704 -0.352697,2.368678 -1.360288,2.975765 -1.310033,0.775577 -2.927657,0.802086 -4.395911,0.597161 -0.8759206,-0.219708 -2.1719516,-0.372707 -2.4333346,-1.417084 -0.144548,-0.544141 0.25816,-1.145011 0.836397,-1.155702 0.849538,-0.04909 1.4928486,0.642978 2.3092556,0.761778 0.807913,0.15807 1.825596,0.181907 2.412078,-0.497724 0.42623,-0.527453 0.297566,-1.377267 -0.27718,-1.7461 -1.20072,-0.892741 -2.74142,-1.17283 -3.9613896,-2.039552" />
  <path
     id="path49-5"
     style="fill:url(#linearGradient936);fill-opacity:1;stroke:none;stroke-width:33.3333"
     d="M 9.2405431,11.796652 C 8.2837168,11.204782 7.7555448,10.05928 7.8871469,8.9473783 7.9868344,7.5316585 9.2802327,6.5326644 10.579095,6.2283571 c 1.418739,-0.355198 2.976317,-0.3111802 4.33961,0.2390714 0.579505,0.222435 0.968498,0.9062673 0.690407,1.4970453 -0.239627,0.604033 -1.032945,0.6253599 -1.511159,0.3034891 -1.042618,-0.4453059 -2.362164,-0.7044505 -3.370908,-0.037095 -0.623054,0.4272512 -0.603409,1.4551005 0.03821,1.8580801 0.969655,0.693595 2.172423,0.951757 3.204959,1.531844 1.070526,0.504325 2.057858,1.455429 2.14071,2.697585 0.13411,1.143704 -0.352697,2.368678 -1.360288,2.975765 -1.310033,0.775577 -2.927657,0.802086 -4.395911,0.597161 -0.8759209,-0.219708 -2.171952,-0.372707 -2.4333353,-1.417084 -0.1445475,-0.544141 0.2581601,-1.145011 0.8363975,-1.155702 0.8495377,-0.04909 1.4928488,0.642978 2.3092558,0.761778 0.807913,0.15807 1.825596,0.181907 2.412078,-0.497724 0.42623,-0.527453 0.297566,-1.377267 -0.27718,-1.7461 -1.20072,-0.892741 -2.74142,-1.17283 -3.9613896,-2.039552" />
  <path
     d="m 20.500005,11.999999 a 8.5000032,8.4999718 0 0 1 -8.500006,8.500006 8.5000032,8.4999718 0 0 1 -8.5000036,-8.500006 8.5000032,8.4999718 0 0 1 8.5000036,-8.500004 8.5000032,8.4999718 0 0 1 8.500006,8.500004"
     style="fill:none;stroke:url(#linearGradient1180);stroke-width:0.999992;stroke-miterlimit:4;stroke-dasharray:none;stroke-opacity:0.392157"
     id="path47-2" />
</svg>
