<?xml version="1.0" encoding="UTF-8" standalone="no"?>
<svg
   xmlns:dc="http://purl.org/dc/elements/1.1/"
   xmlns:cc="http://creativecommons.org/ns#"
   xmlns:rdf="http://www.w3.org/1999/02/22-rdf-syntax-ns#"
   xmlns:svg="http://www.w3.org/2000/svg"
   xmlns="http://www.w3.org/2000/svg"
   xmlns:xlink="http://www.w3.org/1999/xlink"
   xmlns:sodipodi="http://sodipodi.sourceforge.net/DTD/sodipodi-0.dtd"
   xmlns:inkscape="http://www.inkscape.org/namespaces/inkscape"
   id="svg3143"
   height="24"
   width="24"
   version="1.1"
   inkscape:version="1.0.2 (e86c870879, 2021-01-15)"
   sodipodi:docname="vmware-player_24.svg">
  <sodipodi:namedview
     pagecolor="#ffffff"
     bordercolor="#666666"
     borderopacity="1"
     objecttolerance="10"
     gridtolerance="10"
     guidetolerance="10"
     inkscape:pageopacity="0"
     inkscape:pageshadow="2"
     inkscape:window-width="1366"
     inkscape:window-height="705"
     id="namedview50"
     showgrid="true"
     inkscape:zoom="42.621594"
     inkscape:cx="12"
     inkscape:cy="24.806282"
     inkscape:window-x="0"
     inkscape:window-y="30"
     inkscape:window-maximized="1"
     inkscape:current-layer="svg3143"
     showguides="true"
     inkscape:guide-bbox="true"
     inkscape:document-rotation="0">
    <inkscape:grid
       type="xygrid"
       id="grid937" />
  </sodipodi:namedview>
  <defs
     id="defs3145">
    <radialGradient
       id="radialGradient3030"
       gradientUnits="userSpaceOnUse"
       cy="43.5"
       cx="4.993"
       gradientTransform="matrix(2.0038 0 0 1.4 27.988 -17.4)"
       r="2.5">
      <stop
         id="stop2883"
         stop-color="#181818"
         offset="0" />
      <stop
         id="stop2885"
         stop-color="#181818"
         stop-opacity="0"
         offset="1" />
    </radialGradient>
    <radialGradient
       id="radialGradient3032"
       gradientUnits="userSpaceOnUse"
       cy="43.5"
       cx="4.993"
       gradientTransform="matrix(2.0038 0 0 1.4 -20.012 -104.4)"
       r="2.5">
      <stop
         id="stop2889"
         stop-color="#181818"
         offset="0" />
      <stop
         id="stop2891"
         stop-color="#181818"
         stop-opacity="0"
         offset="1" />
    </radialGradient>
    <linearGradient
       id="linearGradient3034"
       y2="39.999"
       gradientUnits="userSpaceOnUse"
       x2="25.058"
       y1="47.028"
       x1="25.058">
      <stop
         id="stop2895"
         stop-color="#181818"
         stop-opacity="0"
         offset="0" />
      <stop
         id="stop2897"
         stop-color="#181818"
         offset=".5" />
      <stop
         id="stop2899"
         stop-color="#181818"
         stop-opacity="0"
         offset="1" />
    </linearGradient>
    <linearGradient
       id="linearGradient3044"
       y2="43"
       gradientUnits="userSpaceOnUse"
       x2="24"
       gradientTransform="translate(48.997719,0.36200872)"
       y1="5"
       x1="24">
      <stop
         id="stop3926-7"
         stop-color="#fff"
         offset="0" />
      <stop
         id="stop3928-3"
         stop-color="#fff"
         stop-opacity=".23529"
         offset=".063165" />
      <stop
         id="stop3930-7"
         stop-color="#fff"
         stop-opacity=".15686"
         offset=".95056" />
      <stop
         id="stop3932-1"
         stop-color="#fff"
         stop-opacity=".39216"
         offset="1" />
    </linearGradient>
    <radialGradient
       id="radialGradient3053"
       gradientUnits="userSpaceOnUse"
       cy="9.9941"
       cx="8.2761"
       gradientTransform="matrix(0,6.6678,-8.1859,0,154.87772,-60.100992)"
       r="12.672">
      <stop
         id="stop3244"
         stop-color="#7ec1f8"
         offset="0" />
      <stop
         id="stop3246"
         stop-color="#4f97e3"
         offset=".26238" />
      <stop
         id="stop3248"
         stop-color="#2674c6"
         offset=".66094" />
      <stop
         id="stop3250"
         stop-color="#0b4169"
         offset="1" />
    </radialGradient>
    <clipPath
       id="clipPath-929888831">
      <g
         id="g17"
         transform="translate(0 -1004.4)">
        <path
           id="path19"
           d="m-24 13c0 1.105-0.672 2-1.5 2s-1.5-0.895-1.5-2 0.672-2 1.5-2 1.5 0.895 1.5 2z"
           transform="matrix(15.333 0 0 11.5 415 878.86)"
           fill="#1890d0" />
      </g>
    </clipPath>
    <radialGradient
       gradientTransform="matrix(2.003784,0,0,1.4,27.98813,-17.4)"
       gradientUnits="userSpaceOnUse"
       xlink:href="#linearGradient3688-166-749-2-324"
       id="radialGradient3013-896"
       fy="43.5"
       fx="4.9929786"
       r="2.5"
       cy="43.5"
       cx="4.9929786" />
    <linearGradient
       id="linearGradient3688-166-749-2-324">
      <stop
         offset="0"
         style="stop-color:#181818;stop-opacity:1"
         id="stop3216" />
      <stop
         offset="1"
         style="stop-color:#181818;stop-opacity:0"
         id="stop3218" />
    </linearGradient>
    <radialGradient
       gradientTransform="matrix(2.003784,0,0,1.4,-20.01187,-104.4)"
       gradientUnits="userSpaceOnUse"
       xlink:href="#linearGradient3688-166-749-2-324"
       id="radialGradient3015-826"
       fy="43.5"
       fx="4.9929786"
       r="2.5"
       cy="43.5"
       cx="4.9929786" />
    <linearGradient
       gradientUnits="userSpaceOnUse"
       xlink:href="#linearGradient3702-501-757-6-946"
       id="linearGradient4395"
       y2="39.999443"
       x2="25.058096"
       y1="47.027729"
       x1="25.058096" />
    <linearGradient
       id="linearGradient3702-501-757-6-946">
      <stop
         offset="0"
         style="stop-color:#181818;stop-opacity:0"
         id="stop3228" />
      <stop
         offset="0.5"
         style="stop-color:#181818;stop-opacity:1"
         id="stop3230" />
      <stop
         offset="1"
         style="stop-color:#181818;stop-opacity:0"
         id="stop3232" />
    </linearGradient>
    <radialGradient
       gradientTransform="matrix(0,9.4975523,-11.65996,0,140.93055,-79.160972)"
       gradientUnits="userSpaceOnUse"
       xlink:href="#linearGradient2867-449-88-871-390-598-476-591-434-148-57-177-8-3-3-6-4-8-8-8-5"
       id="radialGradient4144"
       fy="9.9571075"
       fx="6.2001843"
       r="12.671875"
       cy="9.9571075"
       cx="6.7304144" />
    <linearGradient
       id="linearGradient2867-449-88-871-390-598-476-591-434-148-57-177-8-3-3-6-4-8-8-8-5">
      <stop
         offset="0"
         style="stop-color:#919caf;stop-opacity:1"
         id="stop3750-1-0-7-6-6-1-3-9-3" />
      <stop
         offset="0.26238"
         style="stop-color:#68758e;stop-opacity:1"
         id="stop3752-3-7-4-0-32-8-923-0-7" />
      <stop
         offset="0.704952"
         style="stop-color:#485a6c;stop-opacity:1"
         id="stop3754-1-8-5-2-7-6-7-1-9" />
      <stop
         offset="1"
         style="stop-color:#444c5c;stop-opacity:1"
         id="stop3756-1-6-2-6-6-1-96-6-0" />
    </linearGradient>
    <linearGradient
       gradientTransform="matrix(0.7,0,0,0.7,-68.815024,-4.2060077)"
       gradientUnits="userSpaceOnUse"
       xlink:href="#linearGradient4187"
       id="linearGradient3153"
       y2="41.890972"
       x2="23.99999"
       y1="6.1111298"
       x1="23.99999" />
    <linearGradient
       id="linearGradient4187">
      <stop
         offset="0"
         style="stop-color:#ffffff;stop-opacity:1"
         id="stop4189" />
      <stop
         offset="0.02099473"
         style="stop-color:#ffffff;stop-opacity:0.23529412"
         id="stop4191" />
      <stop
         offset="0.97696"
         style="stop-color:#ffffff;stop-opacity:0.15686275"
         id="stop4193" />
      <stop
         offset="1"
         style="stop-color:#ffffff;stop-opacity:0.39215687"
         id="stop4195" />
    </linearGradient>
    <linearGradient
       gradientTransform="matrix(1.0521608,0,0,-1.0532519,-1.2521612,51.339874)"
       gradientUnits="userSpaceOnUse"
       xlink:href="#linearGradient4311"
       id="linearGradient3143"
       y2="25.361452"
       x2="30.212982"
       y1="21.416878"
       x1="30.212982" />
    <linearGradient
       id="linearGradient4311">
      <stop
         offset="0"
         style="stop-color:#000000;stop-opacity:1"
         id="stop4313" />
      <stop
         offset="1"
         style="stop-color:#000000;stop-opacity:0"
         id="stop4315" />
    </linearGradient>
    <radialGradient
       gradientTransform="matrix(2.003784,0,0,1.4,27.98813,-17.4)"
       gradientUnits="userSpaceOnUse"
       xlink:href="#linearGradient3688-166-749-2-324"
       id="radialGradient3013-896-3"
       fy="43.5"
       fx="4.9929786"
       r="2.5"
       cy="43.5"
       cx="4.9929786" />
    <radialGradient
       gradientTransform="matrix(2.003784,0,0,1.4,-20.01187,-104.4)"
       gradientUnits="userSpaceOnUse"
       xlink:href="#linearGradient3688-166-749-2-324"
       id="radialGradient3015-826-5"
       fy="43.5"
       fx="4.9929786"
       r="2.5"
       cy="43.5"
       cx="4.9929786" />
    <radialGradient
       gradientTransform="matrix(0,6.6482866,-8.161972,0,29.836353,-60.318695)"
       gradientUnits="userSpaceOnUse"
       xlink:href="#radialGradient3053"
       id="radialGradient4144-2"
       fy="9.9571075"
       fx="6.2001843"
       r="12.671875"
       cy="9.9571075"
       cx="6.7304144" />
    <radialGradient
       gradientTransform="matrix(2.003784,0,0,1.4,27.98813,-17.4)"
       gradientUnits="userSpaceOnUse"
       xlink:href="#linearGradient3688-166-749-2-324"
       id="radialGradient3493"
       fy="43.5"
       fx="4.9929786"
       r="2.5"
       cy="43.5"
       cx="4.9929786" />
    <radialGradient
       gradientTransform="matrix(2.003784,0,0,1.4,-20.01187,-104.4)"
       gradientUnits="userSpaceOnUse"
       xlink:href="#linearGradient3688-166-749-2-324"
       id="radialGradient3495"
       fy="43.5"
       fx="4.9929786"
       r="2.5"
       cy="43.5"
       cx="4.9929786" />
    <radialGradient
       gradientTransform="matrix(0,4.6965918,-5.7659143,0,45.882949,-39.568323)"
       gradientUnits="userSpaceOnUse"
       xlink:href="#radialGradient3053"
       id="radialGradient4388"
       fy="9.9571075"
       fx="6.2001843"
       r="12.671875"
       cy="9.9571075"
       cx="6.7304144" />
    <linearGradient
       gradientTransform="matrix(0.48262548,0,0,0.48262548,-23.522863,0.35684565)"
       gradientUnits="userSpaceOnUse"
       xlink:href="#linearGradient3924-0"
       id="linearGradient3483"
       y2="41.679485"
       x2="38.546436"
       y1="6.3738203"
       x1="38.546436" />
    <linearGradient
       id="linearGradient3924-0">
      <stop
         offset="0"
         style="stop-color:#ffffff;stop-opacity:1"
         id="stop3926-6" />
      <stop
         offset="0.03798588"
         style="stop-color:#ffffff;stop-opacity:0.23529412"
         id="stop3928-3-3" />
      <stop
         offset="0.96200818"
         style="stop-color:#ffffff;stop-opacity:0.15686275"
         id="stop3930-2" />
      <stop
         offset="1"
         style="stop-color:#ffffff;stop-opacity:0.39215687"
         id="stop3932-62" />
    </linearGradient>
    <radialGradient
       gradientTransform="matrix(2.003784,0,0,1.4,27.98813,-17.4)"
       gradientUnits="userSpaceOnUse"
       xlink:href="#linearGradient3688-166-749-2-324"
       id="radialGradient3082-6"
       fy="43.5"
       fx="4.9929786"
       r="2.5"
       cy="43.5"
       cx="4.9929786" />
    <radialGradient
       gradientTransform="matrix(2.003784,0,0,1.4,-20.01187,-104.4)"
       gradientUnits="userSpaceOnUse"
       xlink:href="#linearGradient3688-166-749-2-324"
       id="radialGradient3084-4"
       fy="43.5"
       fx="4.9929786"
       r="2.5"
       cy="43.5"
       cx="4.9929786" />
    <linearGradient
       gradientUnits="userSpaceOnUse"
       xlink:href="#linearGradient3702-501-757-6-946"
       id="linearGradient3086-8"
       y2="39.999443"
       x2="25.058096"
       y1="47.027729"
       x1="25.058096" />
    <radialGradient
       gradientTransform="matrix(0,4.6270127,-5.6804933,0,68.966159,-38.745063)"
       gradientUnits="userSpaceOnUse"
       xlink:href="#radialGradient3053"
       id="radialGradient3215"
       fy="9.9571075"
       fx="6.2001843"
       r="12.671875"
       cy="9.9571075"
       cx="6.7304144" />
    <linearGradient
       gradientTransform="matrix(0.45945947,0,0,0.45945947,0.9742203,0.9717328)"
       gradientUnits="userSpaceOnUse"
       xlink:href="#linearGradient4095"
       id="linearGradient3233"
       y2="41.229313"
       x2="23.99999"
       y1="6.5493407"
       x1="23.99999" />
    <linearGradient
       id="linearGradient4095">
      <stop
         offset="0"
         style="stop-color:#ffffff;stop-opacity:1"
         id="stop4097" />
      <stop
         offset="0.01652508"
         style="stop-color:#ffffff;stop-opacity:0.23529412"
         id="stop4100" />
      <stop
         offset="0.98001981"
         style="stop-color:#ffffff;stop-opacity:0.15686275"
         id="stop4102" />
      <stop
         offset="1"
         style="stop-color:#ffffff;stop-opacity:0.39215687"
         id="stop4104" />
    </linearGradient>
    <linearGradient
       gradientTransform="matrix(1.0181566,0,0,-1.0195328,-0.21530444,32.481143)"
       gradientUnits="userSpaceOnUse"
       xlink:href="#linearGradient4311"
       id="linearGradient3223"
       y2="20.187275"
       x2="12.913282"
       y1="17.533852"
       x1="12.913282" />
    <radialGradient
       gradientTransform="matrix(2.003784,0,0,1.4,27.98813,-17.4)"
       gradientUnits="userSpaceOnUse"
       xlink:href="#linearGradient3688-166-749-2-324"
       id="radialGradient3013-896-3-3"
       fy="43.5"
       fx="4.9929786"
       r="2.5"
       cy="43.5"
       cx="4.9929786" />
    <radialGradient
       gradientTransform="matrix(2.003784,0,0,1.4,-20.01187,-104.4)"
       gradientUnits="userSpaceOnUse"
       xlink:href="#linearGradient3688-166-749-2-324"
       id="radialGradient3015-826-5-2"
       fy="43.5"
       fx="4.9929786"
       r="2.5"
       cy="43.5"
       cx="4.9929786" />
    <radialGradient
       gradientTransform="matrix(2.003784,0,0,1.4,27.98813,-17.4)"
       gradientUnits="userSpaceOnUse"
       xlink:href="#linearGradient3688-166-749-2-324"
       id="radialGradient3013-896-3-0"
       fy="43.5"
       fx="4.9929786"
       r="2.5"
       cy="43.5"
       cx="4.9929786" />
    <radialGradient
       gradientTransform="matrix(2.003784,0,0,1.4,-20.01187,-104.4)"
       gradientUnits="userSpaceOnUse"
       xlink:href="#linearGradient3688-166-749-2-324"
       id="radialGradient3015-826-5-7"
       fy="43.5"
       fx="4.9929786"
       r="2.5"
       cy="43.5"
       cx="4.9929786" />
    <linearGradient
       inkscape:collect="always"
       xlink:href="#linearGradient4206"
       id="linearGradient1013"
       gradientUnits="userSpaceOnUse"
       gradientTransform="matrix(-0.67857143,0,0,-0.67857143,28.285719,28.964286)"
       x1="24.000008"
       y1="39.003357"
       x2="24.000008"
       y2="11.032117" />
    <linearGradient
       inkscape:collect="always"
       id="linearGradient4206">
      <stop
         style="stop-color:#ffe16b;stop-opacity:1"
         offset="0"
         id="stop4208" />
      <stop
         style="stop-color:#f9c440;stop-opacity:1"
         offset="1"
         id="stop4210-6" />
    </linearGradient>
    <linearGradient
       id="linearGradient1086">
      <stop
         offset="0"
         style="stop-color:#ffffff;stop-opacity:1"
         id="stop1078" />
      <stop
         offset="0.05"
         style="stop-color:#ffffff;stop-opacity:0.23529412"
         id="stop1080" />
      <stop
         offset="0.94999999"
         style="stop-color:#ffffff;stop-opacity:0.15686275"
         id="stop1082" />
      <stop
         offset="1"
         style="stop-color:#ffffff;stop-opacity:0.39215687"
         id="stop1084" />
    </linearGradient>
    <linearGradient
       inkscape:collect="always"
       xlink:href="#linearGradient1086"
       id="linearGradient1103"
       x1="12"
       y1="2"
       x2="12"
       y2="22"
       gradientUnits="userSpaceOnUse" />
  </defs>
  <metadata
     id="metadata3148">
    <rdf:RDF>
      <cc:Work
         rdf:about="">
        <dc:format>image/svg+xml</dc:format>
        <dc:type
           rdf:resource="http://purl.org/dc/dcmitype/StillImage" />
        <dc:title />
      </cc:Work>
    </rdf:RDF>
  </metadata>
  <g
     style="opacity:0.2;stroke-width:0.992556"
     id="g3712-0-2"
     transform="matrix(-0.31578947,0,0,-0.4285714,24.578947,40.142856)">
    <rect
       style="fill:url(#radialGradient3013-896-3-3);fill-opacity:1;stroke:none;stroke-width:0.992556"
       id="rect2801-4-6"
       y="40"
       x="38"
       height="7"
       width="5" />
    <rect
       style="fill:url(#radialGradient3015-826-5-2);fill-opacity:1;stroke:none;stroke-width:0.992556"
       id="rect3696-8-1"
       transform="scale(-1)"
       y="-47"
       x="-10"
       height="7"
       width="5" />
    <rect
       style="fill:url(#linearGradient4395);fill-opacity:1;stroke:none;stroke-width:0.992556"
       id="rect3700-7-8"
       y="40"
       x="10"
       height="7.0000005"
       width="28" />
  </g>
  <g
     id="g4224"
     fill="#ffc239"
     transform="matrix(1.0826 0 0 -1.0785 -1.975 50.826)">
    <g
       id="g4226"
       fill="#ffc239"
       clip-path="url(#clipPath-929888831)">
      <!-- color: #dfdfdf -->
    </g>
  </g>
  <g
     id="g4232"
     fill="#ffc239"
     transform="matrix(-1.0826 0 0 -1.0785 49.975 50.826)">
    <g
       id="g4234"
       fill="#ffc239"
       clip-path="url(#clipPath-929888831)">
      <!-- color: #dfdfdf -->
    </g>
  </g>
  <g
     id="g4294"
     stroke-linejoin="round"
     opacity=".15"
     transform="matrix(.99936 0 0 .99553 .022037 .46841)"
     stroke="#fff"
     stroke-linecap="round"
     stroke-width="1.8509"
     fill="none">
    <g
       id="g4296"
       transform="matrix(1.0833 0 0 1.0833 -2 -1.3)">
      <g
         id="g4298"
         stroke-linejoin="round"
         clip-path="url(#clipPath-929888831)"
         stroke="#fff"
         stroke-linecap="round"
         stroke-width="1.8509"
         fill="none">
        <!-- color: #dfdfdf -->
      </g>
    </g>
    <g
       id="g4304"
       transform="matrix(1.0833 0 0 -1.0833 -1.9983 50.583)">
      <g
         id="g4306"
         stroke-linejoin="round"
         clip-path="url(#clipPath-929888831)"
         stroke="#fff"
         stroke-linecap="round"
         stroke-width="1.8509"
         fill="none">
        <!-- color: #dfdfdf -->
      </g>
    </g>
    <g
       id="g4310"
       transform="matrix(-1.0833 0 0 -1.0833 49.985 50.583)">
      <g
         id="g4312"
         stroke-linejoin="round"
         clip-path="url(#clipPath-929888831)"
         stroke="#fff"
         stroke-linecap="round"
         stroke-width="1.8509"
         fill="none">
        <!-- color: #dfdfdf -->
      </g>
    </g>
  </g>
  <path
     id="rect3863-7-5"
     style="color:#000000;fill:url(#linearGradient1013);fill-opacity:1;enable-background:new"
     d="M 20.142578,21.5 C 20.894435,21.5 21.5,20.894436 21.5,20.142578 V 13.849609 C 21.5,13.097752 20.751857,12.5 20,12.5 c -0.751857,0 -1.5,0.597752 -1.5,1.349609 v 2.529297 l -2,-2 V 12.5 h -3 v 0.25 c 0,0.375929 -0.374071,0.75 -0.75,0.75 H 12.5 v 3 h 1.878906 l 2,2 H 13.849609 C 13.097752,18.5 12.5,19.248142 12.5,20 c 0,0.751857 0.597752,1.5 1.349609,1.5 z m 0,-19 C 20.894435,2.5 21.5,3.1055644 21.5,3.8574219 V 10.150391 C 21.5,10.902248 20.751857,11.5 20,11.5 c -0.751857,0 -1.5,-0.597752 -1.5,-1.349609 V 7.6210938 l -2,2 V 11.5 h -3 v -0.25 c 0,-0.375929 -0.374071,-0.75 -0.75,-0.75 H 12.5 v -3 h 1.878906 l 2,-2 H 13.849609 C 13.097752,5.5 12.5,4.7518575 12.5,4 12.5,3.2481425 13.097752,2.5 13.849609,2.5 Z M 3.8574219,2.5 C 3.1055649,2.5 2.5,3.1055644 2.5,3.8574219 V 10.150391 C 2.5,10.902248 3.248143,11.5 4,11.5 c 0.751857,0 1.5,-0.597752 1.5,-1.349609 V 7.6210938 l 2,2 V 11.5 h 3 v -0.25 c 0,-0.375929 0.374071,-0.75 0.75,-0.75 h 0.25 v -3 H 9.6210938 l -2,-2 H 10.150391 C 10.902248,5.5 11.5,4.7518575 11.5,4 11.5,3.2481425 10.902248,2.5 10.150391,2.5 Z M 7.5,12.5 v 2.606691 C 7.5,15.858547 8.1053564,16.510288 8.857143,16.5 H 11.5 v -3 h -0.25 c -0.563748,0 -0.75,-0.279639 -0.75,-0.75 V 12.5 Z" />
  <path
     id="path1052"
     style="color:#000000;fill:none;fill-opacity:1;enable-background:new;stroke:#ad5f00;stroke-opacity:1;opacity:0.4"
     d="M 20.142578,21.5 C 20.894435,21.5 21.5,20.894436 21.5,20.142578 V 13.849609 C 21.5,13.097752 20.751857,12.5 20,12.5 c -0.751857,0 -1.5,0.597752 -1.5,1.349609 v 2.529297 l -2,-2 V 12.5 h -3 v 0.25 c 0,0.375929 -0.374071,0.75 -0.75,0.75 H 12.5 v 3 h 1.878906 l 2,2 H 13.849609 C 13.097752,18.5 12.5,19.248142 12.5,20 c 0,0.751857 0.597752,1.5 1.349609,1.5 z m 0,-19 C 20.894435,2.5 21.5,3.1055644 21.5,3.8574219 V 10.150391 C 21.5,10.902248 20.751857,11.5 20,11.5 c -0.751857,0 -1.5,-0.597752 -1.5,-1.349609 V 7.6210938 l -2,2 V 11.5 h -3 v -0.25 c 0,-0.375929 -0.374071,-0.75 -0.75,-0.75 H 12.5 v -3 h 1.878906 l 2,-2 H 13.849609 C 13.097752,5.5 12.5,4.7518575 12.5,4 12.5,3.2481425 13.097752,2.5 13.849609,2.5 Z M 3.8574219,2.5 C 3.1055649,2.5 2.5,3.1055644 2.5,3.8574219 V 10.150391 C 2.5,10.902248 3.248143,11.5 4,11.5 c 0.751857,0 1.5,-0.597752 1.5,-1.349609 V 7.6210938 l 2,2 V 11.5 h 3 v -0.25 c 0,-0.375929 0.374071,-0.75 0.75,-0.75 h 0.25 v -3 H 9.6210938 l -2,-2 H 10.150391 C 10.902248,5.5 11.5,4.7518575 11.5,4 11.5,3.2481425 10.902248,2.5 10.150391,2.5 Z M 7.5,12.5 v 2.606691 C 7.5,15.858547 8.1053564,16.510288 8.857143,16.5 H 11.5 v -3 h -0.25 c -0.563748,0 -0.75,-0.279639 -0.75,-0.75 V 12.5 Z" />
  <path
     id="rect3863-7-5-9"
     style="color:#000000;fill:none;fill-opacity:1;stroke:url(#linearGradient1103);stroke-opacity:1;enable-background:new"
     d="M 3.857422,3.5 C 3.642515,3.5 3.5,3.6425146 3.5,3.8574219 V 10.150391 C 3.5,10.238875 3.778166,10.5 4,10.5 c 0.221834,0 0.5,-0.261126 0.5,-0.349609 V 5.2070313 l 4,4.0000005 V 10.5 h 1.324219 c 0.08529,-0.147595 0.08793,-0.357457 0.203125,-0.472656 C 10.142543,9.9121448 10.352405,9.9095058 10.5,9.8242188 V 8.5 H 9.207031 l -4,-4 h 4.94336 C 10.238871,4.5000002 10.5,4.2218351 10.5,4 10.5,3.778165 10.238875,3.5 10.150391,3.5 Z m 9.992187,0 C 13.761129,3.5 13.5,3.778165 13.5,4 c 0,0.2218351 0.261125,0.5 0.349609,0.5 h 4.94336 l -4,4 H 13.5 v 1.3242188 c 0.147595,0.085287 0.357457,0.087926 0.472656,0.2031252 0.115199,0.115199 0.117838,0.325061 0.203125,0.472656 H 15.5 V 9.2070318 l 4,-4.0000005 V 10.150391 C 19.5,10.238875 19.778166,10.5 20,10.5 c 0.221834,0 0.5,-0.261126 0.5,-0.349609 V 3.8574219 C 20.5,3.6425146 20.357485,3.5 20.142578,3.5 Z M 8.5,13.5 v 1.607422 c 0,0.21509 0.177093,0.394859 0.34375,0.392578 H 8.849609 10.5 V 14.203125 C 10.301961,14.119825 10.077406,14.143505 9.923828,13.97461 9.786868,13.823989 9.824078,13.66401 9.759766,13.5 Z m 5.675781,0 c -0.08529,0.147595 -0.08793,0.357458 -0.203125,0.472656 C 13.857457,14.087857 13.647595,14.090492 13.5,14.175782 V 15.5 h 1.292969 l 4,3.999999 h -4.94336 c -0.08848,0 -0.349609,0.278164 -0.349609,0.5 0,0.221834 0.261126,0.5 0.349609,0.5 h 6.292969 c 0.214908,0 0.357422,-0.142513 0.357422,-0.357422 V 13.84961 C 20.5,13.76113 20.221834,13.5 20,13.5 c -0.221834,0 -0.5,0.261126 -0.5,0.34961 v 4.943358 l -4,-3.999999 V 13.5 Z" />
</svg>
