<?xml version="1.0" encoding="UTF-8" standalone="no"?>
<svg
   xmlns:dc="http://purl.org/dc/elements/1.1/"
   xmlns:cc="http://creativecommons.org/ns#"
   xmlns:rdf="http://www.w3.org/1999/02/22-rdf-syntax-ns#"
   xmlns:svg="http://www.w3.org/2000/svg"
   xmlns="http://www.w3.org/2000/svg"
   xmlns:xlink="http://www.w3.org/1999/xlink"
   xmlns:sodipodi="http://sodipodi.sourceforge.net/DTD/sodipodi-0.dtd"
   xmlns:inkscape="http://www.inkscape.org/namespaces/inkscape"
   id="svg3143"
   height="128"
   width="128"
   version="1.1"
   inkscape:version="1.0.2 (e86c870879, 2021-01-15)"
   sodipodi:docname="vmware-player_128.svg">
  <sodipodi:namedview
     pagecolor="#ffffff"
     bordercolor="#666666"
     borderopacity="1"
     objecttolerance="10"
     gridtolerance="10"
     guidetolerance="10"
     inkscape:pageopacity="0"
     inkscape:pageshadow="2"
     inkscape:window-width="1366"
     inkscape:window-height="705"
     id="namedview50"
     showgrid="true"
     inkscape:zoom="7.9915488"
     inkscape:cx="63.628813"
     inkscape:cy="126.82118"
     inkscape:window-x="0"
     inkscape:window-y="30"
     inkscape:window-maximized="1"
     inkscape:current-layer="svg3143"
     inkscape:document-rotation="0">
    <inkscape:grid
       type="xygrid"
       id="grid930" />
  </sodipodi:namedview>
  <defs
     id="defs3145">
    <linearGradient
       id="linearGradient1093">
      <stop
         offset="0"
         style="stop-color:#ffffff;stop-opacity:1"
         id="stop1085" />
      <stop
         offset="0.00966634"
         style="stop-color:#ffffff;stop-opacity:0.23529412"
         id="stop1087" />
      <stop
         offset="0.99038464"
         style="stop-color:#ffffff;stop-opacity:0.15686275"
         id="stop1089" />
      <stop
         offset="1"
         style="stop-color:#ffffff;stop-opacity:0.39215687"
         id="stop1091" />
    </linearGradient>
    <linearGradient
       inkscape:collect="always"
       id="linearGradient4223">
      <stop
         style="stop-color:#fad229;stop-opacity:1"
         offset="0"
         id="stop4225" />
      <stop
         style="stop-color:#f3b500;stop-opacity:1"
         offset="1"
         id="stop4227" />
    </linearGradient>
    <radialGradient
       id="radialGradient3030"
       gradientUnits="userSpaceOnUse"
       cy="43.5"
       cx="4.993"
       gradientTransform="matrix(2.0038 0 0 1.4 27.988 -17.4)"
       r="2.5">
      <stop
         id="stop2883"
         stop-color="#181818"
         offset="0" />
      <stop
         id="stop2885"
         stop-color="#181818"
         stop-opacity="0"
         offset="1" />
    </radialGradient>
    <radialGradient
       id="radialGradient3032"
       gradientUnits="userSpaceOnUse"
       cy="43.5"
       cx="4.993"
       gradientTransform="matrix(2.0038 0 0 1.4 -20.012 -104.4)"
       r="2.5">
      <stop
         id="stop2889"
         stop-color="#181818"
         offset="0" />
      <stop
         id="stop2891"
         stop-color="#181818"
         stop-opacity="0"
         offset="1" />
    </radialGradient>
    <linearGradient
       id="linearGradient3034"
       y2="39.999"
       gradientUnits="userSpaceOnUse"
       x2="25.058"
       y1="47.028"
       x1="25.058">
      <stop
         id="stop2895"
         stop-color="#181818"
         stop-opacity="0"
         offset="0" />
      <stop
         id="stop2897"
         stop-color="#181818"
         offset=".5" />
      <stop
         id="stop2899"
         stop-color="#181818"
         stop-opacity="0"
         offset="1" />
    </linearGradient>
    <linearGradient
       id="linearGradient3044"
       y2="43"
       gradientUnits="userSpaceOnUse"
       x2="24"
       gradientTransform="matrix(1.4,0,0,1.4,-65.016309,-0.90541928)"
       y1="5"
       x1="24">
      <stop
         id="stop3926-7"
         stop-color="#fff"
         offset="0" />
      <stop
         id="stop3928-3"
         stop-color="#fff"
         stop-opacity=".23529"
         offset=".063165" />
      <stop
         id="stop3930-7"
         stop-color="#fff"
         stop-opacity=".15686"
         offset=".95056" />
      <stop
         id="stop3932-1"
         stop-color="#fff"
         stop-opacity=".39216"
         offset="1" />
    </linearGradient>
    <radialGradient
       id="radialGradient3053"
       gradientUnits="userSpaceOnUse"
       cy="9.9941"
       cx="8.2761"
       gradientTransform="matrix(0,9.33492,-11.46026,0,83.215688,-85.55362)"
       r="12.672">
      <stop
         id="stop3244"
         stop-color="#7ec1f8"
         offset="0" />
      <stop
         id="stop3246"
         stop-color="#4f97e3"
         offset=".26238" />
      <stop
         id="stop3248"
         stop-color="#2674c6"
         offset=".66094" />
      <stop
         id="stop3250"
         stop-color="#0b4169"
         offset="1" />
    </radialGradient>
    <clipPath
       id="clipPath-929888831">
      <g
         id="g17"
         transform="translate(0 -1004.4)">
        <path
           id="path19"
           d="m-24 13c0 1.105-0.672 2-1.5 2s-1.5-0.895-1.5-2 0.672-2 1.5-2 1.5 0.895 1.5 2z"
           transform="matrix(15.333 0 0 11.5 415 878.86)"
           fill="#1890d0" />
      </g>
    </clipPath>
    <radialGradient
       gradientTransform="matrix(2.003784,0,0,1.4,27.98813,-17.4)"
       gradientUnits="userSpaceOnUse"
       xlink:href="#linearGradient3688-166-749-2-324"
       id="radialGradient3013-896"
       fy="43.5"
       fx="4.9929786"
       r="2.5"
       cy="43.5"
       cx="4.9929786" />
    <linearGradient
       id="linearGradient3688-166-749-2-324">
      <stop
         offset="0"
         style="stop-color:#181818;stop-opacity:1"
         id="stop3216" />
      <stop
         offset="1"
         style="stop-color:#181818;stop-opacity:0"
         id="stop3218" />
    </linearGradient>
    <radialGradient
       gradientTransform="matrix(2.003784,0,0,1.4,-20.01187,-104.4)"
       gradientUnits="userSpaceOnUse"
       xlink:href="#linearGradient3688-166-749-2-324"
       id="radialGradient3015-826"
       fy="43.5"
       fx="4.9929786"
       r="2.5"
       cy="43.5"
       cx="4.9929786" />
    <linearGradient
       gradientUnits="userSpaceOnUse"
       xlink:href="#linearGradient3702-501-757-6-946"
       id="linearGradient4395"
       y2="39.999443"
       x2="25.058096"
       y1="47.027729"
       x1="25.058096" />
    <linearGradient
       id="linearGradient3702-501-757-6-946">
      <stop
         offset="0"
         style="stop-color:#181818;stop-opacity:0"
         id="stop3228" />
      <stop
         offset="0.5"
         style="stop-color:#181818;stop-opacity:1"
         id="stop3230" />
      <stop
         offset="1"
         style="stop-color:#181818;stop-opacity:0"
         id="stop3232" />
    </linearGradient>
    <radialGradient
       gradientTransform="matrix(0,9.4975523,-11.65996,0,140.93055,-79.160972)"
       gradientUnits="userSpaceOnUse"
       xlink:href="#linearGradient2867-449-88-871-390-598-476-591-434-148-57-177-8-3-3-6-4-8-8-8-5"
       id="radialGradient4144"
       fy="9.9571075"
       fx="6.2001843"
       r="12.671875"
       cy="9.9571075"
       cx="6.7304144" />
    <linearGradient
       id="linearGradient2867-449-88-871-390-598-476-591-434-148-57-177-8-3-3-6-4-8-8-8-5">
      <stop
         offset="0"
         style="stop-color:#919caf;stop-opacity:1"
         id="stop3750-1-0-7-6-6-1-3-9-3" />
      <stop
         offset="0.26238"
         style="stop-color:#68758e;stop-opacity:1"
         id="stop3752-3-7-4-0-32-8-923-0-7" />
      <stop
         offset="0.704952"
         style="stop-color:#485a6c;stop-opacity:1"
         id="stop3754-1-8-5-2-7-6-7-1-9" />
      <stop
         offset="1"
         style="stop-color:#444c5c;stop-opacity:1"
         id="stop3756-1-6-2-6-6-1-96-6-0" />
    </linearGradient>
    <linearGradient
       gradientTransform="translate(1.17e-5,1.00001)"
       gradientUnits="userSpaceOnUse"
       xlink:href="#linearGradient4187"
       id="linearGradient3153"
       y2="41.890972"
       x2="23.99999"
       y1="6.1111298"
       x1="23.99999" />
    <linearGradient
       id="linearGradient4187">
      <stop
         offset="0"
         style="stop-color:#ffffff;stop-opacity:1"
         id="stop4189" />
      <stop
         offset="0.02099473"
         style="stop-color:#ffffff;stop-opacity:0.23529412"
         id="stop4191" />
      <stop
         offset="0.97696"
         style="stop-color:#ffffff;stop-opacity:0.15686275"
         id="stop4193" />
      <stop
         offset="1"
         style="stop-color:#ffffff;stop-opacity:0.39215687"
         id="stop4195" />
    </linearGradient>
    <linearGradient
       gradientTransform="matrix(1.0521608,0,0,-1.0532519,-1.2521612,51.339874)"
       gradientUnits="userSpaceOnUse"
       xlink:href="#linearGradient4311"
       id="linearGradient3143"
       y2="25.361452"
       x2="30.212982"
       y1="21.416878"
       x1="30.212982" />
    <linearGradient
       id="linearGradient4311">
      <stop
         offset="0"
         style="stop-color:#000000;stop-opacity:1"
         id="stop4313" />
      <stop
         offset="1"
         style="stop-color:#000000;stop-opacity:0"
         id="stop4315" />
    </linearGradient>
    <radialGradient
       gradientTransform="matrix(2.003784,0,0,1.4,27.98813,-17.4)"
       gradientUnits="userSpaceOnUse"
       xlink:href="#linearGradient3688-166-749-2-324"
       id="radialGradient2873-966-168-714"
       fy="43.5"
       fx="4.9929786"
       r="2.5"
       cy="43.5"
       cx="4.9929786" />
    <radialGradient
       gradientTransform="matrix(2.003784,0,0,1.4,-20.01187,-104.4)"
       gradientUnits="userSpaceOnUse"
       xlink:href="#linearGradient3688-166-749-2-324"
       id="radialGradient2875-742-326-419"
       fy="43.5"
       fx="4.9929786"
       r="2.5"
       cy="43.5"
       cx="4.9929786" />
    <radialGradient
       r="12.671875"
       fy="9.9571075"
       fx="6.2001843"
       cy="9.9571075"
       cx="6.7304144"
       gradientTransform="matrix(0,24.874542,-30.537991,0,216.08126,-225.1033)"
       gradientUnits="userSpaceOnUse"
       id="radialGradient4147"
       xlink:href="#radialGradient3053" />
    <linearGradient
       y2="42.091705"
       x2="23.99999"
       y1="5.9093657"
       x1="23.99999"
       gradientTransform="matrix(2.6602317,0,0,2.6673831,-154.01097,-16.317921)"
       gradientUnits="userSpaceOnUse"
       id="linearGradient3904"
       xlink:href="#linearGradient4270" />
    <linearGradient
       id="linearGradient4270">
      <stop
         id="stop4272"
         style="stop-color:#ffffff;stop-opacity:1"
         offset="0" />
      <stop
         id="stop4274"
         style="stop-color:#ffffff;stop-opacity:0.23529412"
         offset="0.0348749" />
      <stop
         id="stop4276"
         style="stop-color:#ffffff;stop-opacity:0.15686275"
         offset="0.96216321" />
      <stop
         id="stop4278"
         style="stop-color:#ffffff;stop-opacity:0.39215687"
         offset="1" />
    </linearGradient>
    <radialGradient
       gradientTransform="matrix(1.5563924,0,0,0.16978827,70.270357,102.13131)"
       gradientUnits="userSpaceOnUse"
       xlink:href="#linearGradient4311"
       id="radialGradient4377"
       fy="93.467628"
       fx="-4.0287771"
       r="35.338131"
       cy="93.467628"
       cx="-4.0287771" />
    <radialGradient
       gradientTransform="matrix(2.003784,0,0,1.4,27.98813,-17.4)"
       gradientUnits="userSpaceOnUse"
       xlink:href="#linearGradient3688-166-749-2-324"
       id="radialGradient2455-1"
       fy="43.5"
       fx="4.9929786"
       r="2.5"
       cy="43.5"
       cx="4.9929786" />
    <radialGradient
       gradientTransform="matrix(2.003784,0,0,1.4,-20.01187,-104.4)"
       gradientUnits="userSpaceOnUse"
       xlink:href="#linearGradient3688-166-749-2-324"
       id="radialGradient2457-5"
       fy="43.5"
       fx="4.9929786"
       r="2.5"
       cy="43.5"
       cx="4.9929786" />
    <radialGradient
       gradientTransform="matrix(0,25.083279,-30.794253,0,372.81658,-208.09078)"
       gradientUnits="userSpaceOnUse"
       xlink:href="#radialGradient3053"
       id="radialGradient3395"
       fy="9.9571075"
       fx="6.2001843"
       r="12.671875"
       cy="9.9571075"
       cx="6.7304144" />
    <linearGradient
       gradientTransform="matrix(2.7297298,0,0,2.7297298,-1.5135132,1.4875374)"
       gradientUnits="userSpaceOnUse"
       xlink:href="#linearGradient3924-776"
       id="linearGradient3159"
       y2="43"
       x2="23.99999"
       y1="4.999989"
       x1="23.99999" />
    <linearGradient
       id="linearGradient3924-776">
      <stop
         offset="0"
         style="stop-color:#ffffff;stop-opacity:1"
         id="stop3124" />
      <stop
         offset="0.06316455"
         style="stop-color:#ffffff;stop-opacity:0.23529412"
         id="stop3126" />
      <stop
         offset="0.95056331"
         style="stop-color:#ffffff;stop-opacity:0.15686275"
         id="stop3128" />
      <stop
         offset="1"
         style="stop-color:#ffffff;stop-opacity:0.39215687"
         id="stop3130" />
    </linearGradient>
    <linearGradient
       inkscape:collect="always"
       xlink:href="#linearGradient4223"
       id="linearGradient4212-3"
       x1="23.939856"
       y1="10.879699"
       x2="24.015045"
       y2="39.030075"
       gradientUnits="userSpaceOnUse"
       gradientTransform="matrix(3.6785714,0,0,3.6785714,-24.28574,-24.964284)" />
    <radialGradient
       gradientTransform="matrix(2.003784,0,0,1.4,27.98813,-17.4)"
       gradientUnits="userSpaceOnUse"
       xlink:href="#linearGradient3688-166-749-2-324"
       id="radialGradient3013-896-3-3"
       fy="43.5"
       fx="4.9929786"
       r="2.5"
       cy="43.5"
       cx="4.9929786" />
    <radialGradient
       gradientTransform="matrix(2.003784,0,0,1.4,-20.01187,-104.4)"
       gradientUnits="userSpaceOnUse"
       xlink:href="#linearGradient3688-166-749-2-324"
       id="radialGradient3015-826-5-2"
       fy="43.5"
       fx="4.9929786"
       r="2.5"
       cy="43.5"
       cx="4.9929786" />
    <radialGradient
       gradientTransform="matrix(2.003784,0,0,1.4,27.98813,-17.4)"
       gradientUnits="userSpaceOnUse"
       xlink:href="#linearGradient3688-166-749-2-324"
       id="radialGradient3013-896-3-0"
       fy="43.5"
       fx="4.9929786"
       r="2.5"
       cy="43.5"
       cx="4.9929786" />
    <radialGradient
       gradientTransform="matrix(2.003784,0,0,1.4,-20.01187,-104.4)"
       gradientUnits="userSpaceOnUse"
       xlink:href="#linearGradient3688-166-749-2-324"
       id="radialGradient3015-826-5-7"
       fy="43.5"
       fx="4.9929786"
       r="2.5"
       cy="43.5"
       cx="4.9929786" />
    <linearGradient
       inkscape:collect="always"
       xlink:href="#linearGradient3702-501-757-6-946"
       id="linearGradient4296"
       gradientUnits="userSpaceOnUse"
       x1="25.058096"
       y1="47.027729"
       x2="25.058096"
       y2="39.999443" />
    <linearGradient
       inkscape:collect="always"
       xlink:href="#linearGradient4206"
       id="linearGradient997"
       gradientUnits="userSpaceOnUse"
       gradientTransform="matrix(-3.6785714,0,0,-3.6785714,152.28574,158.96428)"
       x1="24.000008"
       y1="38.997097"
       x2="24.000008"
       y2="11.006949" />
    <linearGradient
       id="linearGradient1122">
      <stop
         offset="0"
         style="stop-color:#ffffff;stop-opacity:1"
         id="stop1114" />
      <stop
         offset="0.0183425"
         style="stop-color:#ffffff;stop-opacity:0.23529412"
         id="stop1116" />
      <stop
         offset="0.98214287"
         style="stop-color:#ffffff;stop-opacity:0.15686275"
         id="stop1118" />
      <stop
         offset="1"
         style="stop-color:#ffffff;stop-opacity:0.39215687"
         id="stop1120" />
    </linearGradient>
    <linearGradient
       inkscape:collect="always"
       id="linearGradient4206">
      <stop
         style="stop-color:#ffe16b;stop-opacity:1"
         offset="0"
         id="stop4208" />
      <stop
         style="stop-color:#f9c440;stop-opacity:1"
         offset="1"
         id="stop4210" />
    </linearGradient>
    <linearGradient
       inkscape:collect="always"
       xlink:href="#linearGradient1093"
       id="linearGradient1083"
       x1="64"
       y1="15"
       x2="64"
       y2="119"
       gradientUnits="userSpaceOnUse" />
  </defs>
  <metadata
     id="metadata3148">
    <rdf:RDF>
      <cc:Work
         rdf:about="">
        <dc:format>image/svg+xml</dc:format>
        <dc:type
           rdf:resource="http://purl.org/dc/dcmitype/StillImage" />
        <dc:title />
      </cc:Work>
    </rdf:RDF>
  </metadata>
  <g
     style="opacity:0.2;stroke-width:0.998319"
     id="g3712-0-2"
     transform="matrix(-1.394737,0,0,-0.69334949,124.97369,148.73398)">
    <rect
       style="fill:url(#radialGradient3013-896-3-3);fill-opacity:1;stroke:none;stroke-width:0.998319"
       id="rect2801-4-6"
       y="40"
       x="38"
       height="7"
       width="5" />
    <rect
       style="fill:url(#radialGradient3015-826-5-2);fill-opacity:1;stroke:none;stroke-width:0.998319"
       id="rect3696-8-1"
       transform="scale(-1)"
       y="-47"
       x="-10"
       height="7"
       width="5" />
    <rect
       style="fill:url(#linearGradient4296);fill-opacity:1;stroke:none;stroke-width:0.998319"
       id="rect3700-7-8"
       y="40"
       x="10"
       height="7.0000005"
       width="28" />
  </g>
  <g
     id="g4224"
     fill="#ffc239"
     transform="matrix(1.0826 0 0 -1.0785 -1.975 50.826)">
    <g
       id="g4226"
       fill="#ffc239"
       clip-path="url(#clipPath-929888831)">
      <!-- color: #dfdfdf -->
    </g>
  </g>
  <g
     id="g4232"
     fill="#ffc239"
     transform="matrix(-1.0826 0 0 -1.0785 49.975 50.826)">
    <g
       id="g4234"
       fill="#ffc239"
       clip-path="url(#clipPath-929888831)">
      <!-- color: #dfdfdf -->
    </g>
  </g>
  <g
     id="g4294"
     stroke-linejoin="round"
     opacity=".15"
     transform="matrix(.99936 0 0 .99553 .022037 .46841)"
     stroke="#fff"
     stroke-linecap="round"
     stroke-width="1.8509"
     fill="none">
    <g
       id="g4296"
       transform="matrix(1.0833 0 0 1.0833 -2 -1.3)">
      <g
         id="g4298"
         stroke-linejoin="round"
         clip-path="url(#clipPath-929888831)"
         stroke="#fff"
         stroke-linecap="round"
         stroke-width="1.8509"
         fill="none">
        <!-- color: #dfdfdf -->
      </g>
    </g>
    <g
       id="g4304"
       transform="matrix(1.0833 0 0 -1.0833 -1.9983 50.583)">
      <g
         id="g4306"
         stroke-linejoin="round"
         clip-path="url(#clipPath-929888831)"
         stroke="#fff"
         stroke-linecap="round"
         stroke-width="1.8509"
         fill="none">
        <!-- color: #dfdfdf -->
      </g>
    </g>
    <g
       id="g4310"
       transform="matrix(-1.0833 0 0 -1.0833 49.985 50.583)">
      <g
         id="g4312"
         stroke-linejoin="round"
         clip-path="url(#clipPath-929888831)"
         stroke="#fff"
         stroke-linecap="round"
         stroke-width="1.8509"
         fill="none">
        <!-- color: #dfdfdf -->
      </g>
    </g>
  </g>
  <path
     id="rect3863-2-7-5"
     style="color:#000000;fill:url(#linearGradient997);fill-opacity:1;enable-background:new"
     d="m 108.14286,118.5 c 4.07586,0 7.35714,-3.28128 7.35714,-7.35714 V 78.035717 C 115.5,73.95986 112.07586,70.5 108,70.5 c -4.07586,0 -7.5,3.45986 -7.5,7.535717 V 93.5 l -11,-11 v -12 h -15 V 73 c 0,2 -0.5,5.5 -4.5,5.5 h -2.5 v 14 h 12 l 11,11 H 75 c -4.07585,0 -7.5,3.42414 -7.5,7.5 0,4.07586 3.45802,7.5 7.53387,7.5 h 33.10714 z m 0,-103 c 4.07586,0 7.35714,3.281285 7.35714,7.357141 V 55.964283 C 115.5,60.04014 112.07586,63.5 108,63.5 c -4.07586,0 -7.5,-3.45986 -7.5,-7.535717 V 40.5 l -11,11 v 12 h -15 V 61 C 74.5,59 74,55.5 70,55.5 h -2.5 v -14 h 12 l 11,-11 H 75 c -4.07585,0 -7.5,-3.424142 -7.5,-7.5 0,-4.075856 3.45802,-7.5 7.53387,-7.5 h 33.10714 z m -88.28572,0 C 15.78128,15.5 12.5,18.781285 12.5,22.857141 V 55.964283 C 12.5,60.04014 15.92414,63.5 20,63.5 c 4.07586,0 7.5,-3.45986 7.5,-7.535717 V 40.5 l 11,11 v 12 h 15 V 61 c 0,-2 0.5,-5.5 4.5,-5.5 h 2.5 v -14 h -12 l -11,-11 H 53 c 4.075854,0 7.5,-3.424142 7.5,-7.5 0,-4.075856 -3.458016,-7.5 -7.53387,-7.5 H 19.85899 Z M 38.5,70.5 V 85.39286 C 38.5,89.468714 41.53128,92.5 45.60714,92.5 H 60.5 V 78.500143 l -4,-2.86e-4 C 54,78.499678 53.5,76 53.5,74.357144 v -3.678572 z" />
  <path
     id="path1036"
     style="color:#000000;fill:none;fill-opacity:1;enable-background:new;stroke:#ad5f00;stroke-opacity:1;opacity:0.4"
     d="m 108.14286,118.5 c 4.07586,0 7.35714,-3.28128 7.35714,-7.35714 V 78.035717 C 115.5,73.95986 112.07586,70.5 108,70.5 c -4.07586,0 -7.5,3.45986 -7.5,7.535717 V 93.5 l -11,-11 v -12 h -15 V 73 c 0,2 -0.5,5.5 -4.5,5.5 h -2.5 v 14 h 12 l 11,11 H 75 c -4.07585,0 -7.5,3.42414 -7.5,7.5 0,4.07586 3.45802,7.5 7.53387,7.5 h 33.10714 z m 0,-103 c 4.07586,0 7.35714,3.281285 7.35714,7.357141 V 55.964283 C 115.5,60.04014 112.07586,63.5 108,63.5 c -4.07586,0 -7.5,-3.45986 -7.5,-7.535717 V 40.5 l -11,11 v 12 h -15 V 61 C 74.5,59 74,55.5 70,55.5 h -2.5 v -14 h 12 l 11,-11 H 75 c -4.07585,0 -7.5,-3.424142 -7.5,-7.5 0,-4.075856 3.45802,-7.5 7.53387,-7.5 h 33.10714 z m -88.28572,0 C 15.78128,15.5 12.5,18.781285 12.5,22.857141 V 55.964283 C 12.5,60.04014 15.92414,63.5 20,63.5 c 4.07586,0 7.5,-3.45986 7.5,-7.535717 V 40.5 l 11,11 v 12 h 15 V 61 c 0,-2 0.5,-5.5 4.5,-5.5 h 2.5 v -14 h -12 l -11,-11 H 53 c 4.075854,0 7.5,-3.424142 7.5,-7.5 0,-4.075856 -3.458016,-7.5 -7.53387,-7.5 H 19.85899 Z M 38.5,70.5 V 85.39286 C 38.5,89.468714 41.53128,92.5 45.60714,92.5 H 60.5 V 78.500143 l -4,-2.86e-4 C 54,78.499678 53.5,76 53.5,74.357144 v -3.678572 z" />
  <path
     id="rect3863-2-7-5-9"
     style="color:#000000;fill:none;fill-opacity:1;stroke:url(#linearGradient1083);stroke-opacity:1;enable-background:new"
     d="M 19.85742,16.5 C 16.31826,16.5 13.5,19.31826 13.5,22.85742 v 33.10742 c 0,3.5158 2.99005,6.53516 6.5,6.53516 3.50995,0 6.5,-3.01936 6.5,-6.53516 v -17.8789 l 13,13 V 62.5 h 13 V 61 c 0,-1.08333 0.1095,-2.60843 0.875,-3.98633 C 54.1405,55.63577 55.70833,54.5 58,54.5 h 1.5 v -12 H 48.08594 l -13,-13 H 53 c 3.51578,0 6.5,-2.98421 6.5,-6.5 0,-3.51025 -3.01742,-6.5 -6.5332,-6.5 H 19.85938 Z m 55.17578,0 C 71.51742,16.5 68.5,19.48975 68.5,23 c 0,3.51579 2.98422,6.5 6.5,6.5 h 17.91406 l -13,13 H 68.5 v 12 H 70 c 2.29167,0 3.8595,1.13577 4.625,2.51367 0.7655,1.3779 0.875,2.903 0.875,3.98633 v 1.5 h 13 V 51.08594 l 13,-13 v 17.8789 c 0,3.5158 2.99005,6.53516 6.5,6.53516 3.50995,0 6.5,-3.01936 6.5,-6.53516 V 22.85742 C 114.5,19.31826 111.68174,16.5 108.14258,16.5 h -0.002 z M 75.5,71.5 V 73 c 0,1.08333 -0.1095,2.60843 -0.875,3.98633 C 73.8595,78.36423 72.29167,79.5 70,79.5 h -1.5 v 12 h 11.41406 l 13,13 H 75 c -3.51578,0 -6.5,2.98421 -6.5,6.5 0,3.51025 3.01742,6.5 6.5332,6.5 h 33.10742 0.002 c 3.53916,0 6.35742,-2.81826 6.35742,-6.35742 V 78.03516 c 0,-3.5158 -2.99005,-6.53516 -6.5,-6.53516 -3.50995,0 -6.5,3.01936 -6.5,6.53516 v 17.8789 l -13,-13 V 71.5 Z m -36,0.01172 V 85.39258 C 39.5,88.97262 42.02737,91.5 45.60742,91.5 H 59.5 v -12 h -3 C 54.91671,79.49989 53.73848,78.57396 53.17773,77.50977 52.61699,76.44557 52.5,75.2803 52.5,74.35742 v -2.6914 z" />
</svg>
