<?xml version="1.0" encoding="UTF-8" standalone="no"?>
<svg
   xmlns:dc="http://purl.org/dc/elements/1.1/"
   xmlns:cc="http://creativecommons.org/ns#"
   xmlns:rdf="http://www.w3.org/1999/02/22-rdf-syntax-ns#"
   xmlns:svg="http://www.w3.org/2000/svg"
   xmlns="http://www.w3.org/2000/svg"
   xmlns:xlink="http://www.w3.org/1999/xlink"
   xmlns:sodipodi="http://sodipodi.sourceforge.net/DTD/sodipodi-0.dtd"
   xmlns:inkscape="http://www.inkscape.org/namespaces/inkscape"
   id="svg3143"
   height="48"
   width="48"
   version="1.1"
   inkscape:version="1.0.2 (e86c870879, 2021-01-15)"
   sodipodi:docname="vmware-player_48.svg">
  <sodipodi:namedview
     pagecolor="#ffffff"
     bordercolor="#666666"
     borderopacity="1"
     objecttolerance="10"
     gridtolerance="10"
     guidetolerance="10"
     inkscape:pageopacity="0"
     inkscape:pageshadow="2"
     inkscape:window-width="1366"
     inkscape:window-height="705"
     id="namedview50"
     showgrid="true"
     inkscape:zoom="72.323983"
     inkscape:cx="37.486192"
     inkscape:cy="46.406752"
     inkscape:window-x="0"
     inkscape:window-y="30"
     inkscape:window-maximized="1"
     inkscape:current-layer="svg3143"
     inkscape:document-rotation="0">
    <inkscape:grid
       type="xygrid"
       id="grid913" />
  </sodipodi:namedview>
  <defs
     id="defs3145">
    <linearGradient
       id="linearGradient1136">
      <stop
         offset="0"
         style="stop-color:#ffffff;stop-opacity:1"
         id="stop1128" />
      <stop
         offset="0.025"
         style="stop-color:#ffffff;stop-opacity:0.23529412"
         id="stop1130" />
      <stop
         offset="0.97500002"
         style="stop-color:#ffffff;stop-opacity:0.15686275"
         id="stop1132" />
      <stop
         offset="1"
         style="stop-color:#ffffff;stop-opacity:0.39215687"
         id="stop1134" />
    </linearGradient>
    <linearGradient
       inkscape:collect="always"
       id="linearGradient4206">
      <stop
         style="stop-color:#ffe16b;stop-opacity:1"
         offset="0"
         id="stop4208" />
      <stop
         style="stop-color:#f9c440;stop-opacity:1"
         offset="1"
         id="stop4210" />
    </linearGradient>
    <radialGradient
       id="radialGradient3030"
       gradientUnits="userSpaceOnUse"
       cy="43.5"
       cx="4.993"
       gradientTransform="matrix(2.0038 0 0 1.4 27.988 -17.4)"
       r="2.5">
      <stop
         id="stop2883"
         stop-color="#181818"
         offset="0" />
      <stop
         id="stop2885"
         stop-color="#181818"
         stop-opacity="0"
         offset="1" />
    </radialGradient>
    <radialGradient
       id="radialGradient3032"
       gradientUnits="userSpaceOnUse"
       cy="43.5"
       cx="4.993"
       gradientTransform="matrix(2.0038 0 0 1.4 -20.012 -104.4)"
       r="2.5">
      <stop
         id="stop2889"
         stop-color="#181818"
         offset="0" />
      <stop
         id="stop2891"
         stop-color="#181818"
         stop-opacity="0"
         offset="1" />
    </radialGradient>
    <linearGradient
       id="linearGradient3034"
       y2="39.999"
       gradientUnits="userSpaceOnUse"
       x2="25.058"
       y1="47.028"
       x1="25.058">
      <stop
         id="stop2895"
         stop-color="#181818"
         stop-opacity="0"
         offset="0" />
      <stop
         id="stop2897"
         stop-color="#181818"
         offset=".5" />
      <stop
         id="stop2899"
         stop-color="#181818"
         stop-opacity="0"
         offset="1" />
    </linearGradient>
    <linearGradient
       id="linearGradient3044"
       y2="43"
       gradientUnits="userSpaceOnUse"
       x2="24"
       gradientTransform="translate(48.997719,0.36200872)"
       y1="5"
       x1="24">
      <stop
         id="stop3926-7"
         stop-color="#fff"
         offset="0" />
      <stop
         id="stop3928-3"
         stop-color="#fff"
         stop-opacity=".23529"
         offset=".063165" />
      <stop
         id="stop3930-7"
         stop-color="#fff"
         stop-opacity=".15686"
         offset=".95056" />
      <stop
         id="stop3932-1"
         stop-color="#fff"
         stop-opacity=".39216"
         offset="1" />
    </linearGradient>
    <radialGradient
       id="radialGradient3053"
       gradientUnits="userSpaceOnUse"
       cy="9.9941"
       cx="8.2761"
       gradientTransform="matrix(0,6.6678,-8.1859,0,154.87772,-60.100992)"
       r="12.672">
      <stop
         id="stop3244"
         stop-color="#7ec1f8"
         offset="0" />
      <stop
         id="stop3246"
         stop-color="#4f97e3"
         offset=".26238" />
      <stop
         id="stop3248"
         stop-color="#2674c6"
         offset=".66094" />
      <stop
         id="stop3250"
         stop-color="#0b4169"
         offset="1" />
    </radialGradient>
    <clipPath
       id="clipPath-929888831">
      <g
         id="g17"
         transform="translate(0 -1004.4)">
        <path
           id="path19"
           d="m-24 13c0 1.105-0.672 2-1.5 2s-1.5-0.895-1.5-2 0.672-2 1.5-2 1.5 0.895 1.5 2z"
           transform="matrix(15.333 0 0 11.5 415 878.86)"
           fill="#1890d0" />
      </g>
    </clipPath>
    <radialGradient
       gradientTransform="matrix(2.003784,0,0,1.4,27.98813,-17.4)"
       gradientUnits="userSpaceOnUse"
       xlink:href="#linearGradient3688-166-749-2-324"
       id="radialGradient3013-896"
       fy="43.5"
       fx="4.9929786"
       r="2.5"
       cy="43.5"
       cx="4.9929786" />
    <linearGradient
       id="linearGradient3688-166-749-2-324">
      <stop
         offset="0"
         style="stop-color:#181818;stop-opacity:1"
         id="stop3216" />
      <stop
         offset="1"
         style="stop-color:#181818;stop-opacity:0"
         id="stop3218" />
    </linearGradient>
    <radialGradient
       gradientTransform="matrix(2.003784,0,0,1.4,-20.01187,-104.4)"
       gradientUnits="userSpaceOnUse"
       xlink:href="#linearGradient3688-166-749-2-324"
       id="radialGradient3015-826"
       fy="43.5"
       fx="4.9929786"
       r="2.5"
       cy="43.5"
       cx="4.9929786" />
    <linearGradient
       gradientUnits="userSpaceOnUse"
       xlink:href="#linearGradient3702-501-757-6-946"
       id="linearGradient4395"
       y2="39.999443"
       x2="25.058096"
       y1="47.027729"
       x1="25.058096" />
    <linearGradient
       id="linearGradient3702-501-757-6-946">
      <stop
         offset="0"
         style="stop-color:#181818;stop-opacity:0"
         id="stop3228" />
      <stop
         offset="0.5"
         style="stop-color:#181818;stop-opacity:1"
         id="stop3230" />
      <stop
         offset="1"
         style="stop-color:#181818;stop-opacity:0"
         id="stop3232" />
    </linearGradient>
    <radialGradient
       gradientTransform="matrix(0,9.4975523,-11.65996,0,140.93055,-79.160972)"
       gradientUnits="userSpaceOnUse"
       xlink:href="#linearGradient2867-449-88-871-390-598-476-591-434-148-57-177-8-3-3-6-4-8-8-8-5"
       id="radialGradient4144"
       fy="9.9571075"
       fx="6.2001843"
       r="12.671875"
       cy="9.9571075"
       cx="6.7304144" />
    <linearGradient
       id="linearGradient2867-449-88-871-390-598-476-591-434-148-57-177-8-3-3-6-4-8-8-8-5">
      <stop
         offset="0"
         style="stop-color:#919caf;stop-opacity:1"
         id="stop3750-1-0-7-6-6-1-3-9-3" />
      <stop
         offset="0.26238"
         style="stop-color:#68758e;stop-opacity:1"
         id="stop3752-3-7-4-0-32-8-923-0-7" />
      <stop
         offset="0.704952"
         style="stop-color:#485a6c;stop-opacity:1"
         id="stop3754-1-8-5-2-7-6-7-1-9" />
      <stop
         offset="1"
         style="stop-color:#444c5c;stop-opacity:1"
         id="stop3756-1-6-2-6-6-1-96-6-0" />
    </linearGradient>
    <linearGradient
       gradientTransform="translate(-46.573339,-5.6350974)"
       gradientUnits="userSpaceOnUse"
       xlink:href="#linearGradient4187"
       id="linearGradient3153"
       y2="41.890972"
       x2="23.99999"
       y1="6.1111298"
       x1="23.99999" />
    <linearGradient
       id="linearGradient4187">
      <stop
         offset="0"
         style="stop-color:#ffffff;stop-opacity:1"
         id="stop4189" />
      <stop
         offset="0.02099473"
         style="stop-color:#ffffff;stop-opacity:0.23529412"
         id="stop4191" />
      <stop
         offset="0.97696"
         style="stop-color:#ffffff;stop-opacity:0.15686275"
         id="stop4193" />
      <stop
         offset="1"
         style="stop-color:#ffffff;stop-opacity:0.39215687"
         id="stop4195" />
    </linearGradient>
    <linearGradient
       gradientTransform="matrix(1.0521608,0,0,-1.0532519,-1.2521612,51.339874)"
       gradientUnits="userSpaceOnUse"
       xlink:href="#linearGradient4311"
       id="linearGradient3143"
       y2="25.361452"
       x2="30.212982"
       y1="21.416878"
       x1="30.212982" />
    <linearGradient
       id="linearGradient4311">
      <stop
         offset="0"
         style="stop-color:#000000;stop-opacity:1"
         id="stop4313" />
      <stop
         offset="1"
         style="stop-color:#000000;stop-opacity:0"
         id="stop4315" />
    </linearGradient>
    <radialGradient
       gradientTransform="matrix(2.003784,0,0,1.4,27.98813,-17.4)"
       gradientUnits="userSpaceOnUse"
       xlink:href="#linearGradient3688-166-749-2-324"
       id="radialGradient3013-896-3"
       fy="43.5"
       fx="4.9929786"
       r="2.5"
       cy="43.5"
       cx="4.9929786" />
    <radialGradient
       gradientTransform="matrix(2.003784,0,0,1.4,-20.01187,-104.4)"
       gradientUnits="userSpaceOnUse"
       xlink:href="#linearGradient3688-166-749-2-324"
       id="radialGradient3015-826-5"
       fy="43.5"
       fx="4.9929786"
       r="2.5"
       cy="43.5"
       cx="4.9929786" />
    <radialGradient
       gradientTransform="matrix(0,9.4975523,-11.65996,0,140.93055,-79.160972)"
       gradientUnits="userSpaceOnUse"
       xlink:href="#radialGradient3053"
       id="radialGradient4144-2"
       fy="9.9571075"
       fx="6.2001843"
       r="12.671875"
       cy="9.9571075"
       cx="6.7304144" />
    <radialGradient
       gradientTransform="matrix(2.003784,0,0,1.4,27.98813,-17.4)"
       gradientUnits="userSpaceOnUse"
       xlink:href="#linearGradient3688-166-749-2-324"
       id="radialGradient3013-896-3-3"
       fy="43.5"
       fx="4.9929786"
       r="2.5"
       cy="43.5"
       cx="4.9929786" />
    <radialGradient
       gradientTransform="matrix(2.003784,0,0,1.4,-20.01187,-104.4)"
       gradientUnits="userSpaceOnUse"
       xlink:href="#linearGradient3688-166-749-2-324"
       id="radialGradient3015-826-5-2"
       fy="43.5"
       fx="4.9929786"
       r="2.5"
       cy="43.5"
       cx="4.9929786" />
    <radialGradient
       gradientTransform="matrix(2.003784,0,0,1.4,27.98813,-17.4)"
       gradientUnits="userSpaceOnUse"
       xlink:href="#linearGradient3688-166-749-2-324"
       id="radialGradient3013-896-3-0"
       fy="43.5"
       fx="4.9929786"
       r="2.5"
       cy="43.5"
       cx="4.9929786" />
    <radialGradient
       gradientTransform="matrix(2.003784,0,0,1.4,-20.01187,-104.4)"
       gradientUnits="userSpaceOnUse"
       xlink:href="#linearGradient3688-166-749-2-324"
       id="radialGradient3015-826-5-7"
       fy="43.5"
       fx="4.9929786"
       r="2.5"
       cy="43.5"
       cx="4.9929786" />
    <linearGradient
       inkscape:collect="always"
       xlink:href="#linearGradient4206"
       id="linearGradient1024"
       gradientUnits="userSpaceOnUse"
       gradientTransform="matrix(-1.3928571,0,0,-1.3928571,56.428581,59.821429)"
       x1="23.641033"
       y1="38.641026"
       x2="23.641033"
       y2="10.641026" />
    <linearGradient
       inkscape:collect="always"
       xlink:href="#linearGradient1136"
       id="linearGradient1118"
       x1="23.070616"
       y1="4.5"
       x2="23.059841"
       y2="44.5"
       gradientUnits="userSpaceOnUse"
       gradientTransform="translate(0.429688,0.5)" />
  </defs>
  <metadata
     id="metadata3148">
    <rdf:RDF>
      <cc:Work
         rdf:about="">
        <dc:format>image/svg+xml</dc:format>
        <dc:type
           rdf:resource="http://purl.org/dc/dcmitype/StillImage" />
        <dc:title />
      </cc:Work>
    </rdf:RDF>
  </metadata>
  <g
     style="opacity:0.2"
     id="g3712-0-2"
     transform="matrix(-0.60526317,0,0,-0.57142859,48.026316,68.857144)">
    <rect
       style="fill:url(#radialGradient3013-896-3-3);fill-opacity:1;stroke:none"
       id="rect2801-4-6"
       y="40"
       x="38"
       height="7"
       width="5" />
    <rect
       style="fill:url(#radialGradient3015-826-5-2);fill-opacity:1;stroke:none"
       id="rect3696-8-1"
       transform="scale(-1)"
       y="-47"
       x="-10"
       height="7"
       width="5" />
    <rect
       style="fill:url(#linearGradient4395);fill-opacity:1;stroke:none"
       id="rect3700-7-8"
       y="40"
       x="10"
       height="7.0000005"
       width="28" />
  </g>
  <g
     id="g4224"
     fill="#ffc239"
     transform="matrix(1.0826 0 0 -1.0785 -1.975 50.826)">
    <g
       id="g4226"
       fill="#ffc239"
       clip-path="url(#clipPath-929888831)">
      <!-- color: #dfdfdf -->
    </g>
  </g>
  <g
     id="g4232"
     fill="#ffc239"
     transform="matrix(-1.0826 0 0 -1.0785 49.975 50.826)">
    <g
       id="g4234"
       fill="#ffc239"
       clip-path="url(#clipPath-929888831)">
      <!-- color: #dfdfdf -->
    </g>
  </g>
  <g
     id="g4294"
     stroke-linejoin="round"
     opacity=".15"
     transform="matrix(.99936 0 0 .99553 .022037 .46841)"
     stroke="#fff"
     stroke-linecap="round"
     stroke-width="1.8509"
     fill="none">
    <g
       id="g4296"
       transform="matrix(1.0833 0 0 1.0833 -2 -1.3)">
      <g
         id="g4298"
         stroke-linejoin="round"
         clip-path="url(#clipPath-929888831)"
         stroke="#fff"
         stroke-linecap="round"
         stroke-width="1.8509"
         fill="none">
        <!-- color: #dfdfdf -->
      </g>
    </g>
    <g
       id="g4304"
       transform="matrix(1.0833 0 0 -1.0833 -1.9983 50.583)">
      <g
         id="g4306"
         stroke-linejoin="round"
         clip-path="url(#clipPath-929888831)"
         stroke="#fff"
         stroke-linecap="round"
         stroke-width="1.8509"
         fill="none">
        <!-- color: #dfdfdf -->
      </g>
    </g>
    <g
       id="g4310"
       transform="matrix(-1.0833 0 0 -1.0833 49.985 50.583)">
      <g
         id="g4312"
         stroke-linejoin="round"
         clip-path="url(#clipPath-929888831)"
         stroke="#fff"
         stroke-linecap="round"
         stroke-width="1.8509"
         fill="none">
        <!-- color: #dfdfdf -->
      </g>
    </g>
  </g>
  <path
     id="rect3863-7"
     style="color:#000000;fill:url(#linearGradient1024);fill-opacity:1;enable-background:new"
     d="m 39.714286,44.500001 c 1.543285,0 2.785714,-1.242428 2.785714,-2.785714 V 29.178574 C 42.5,27.635288 41.043285,26.5 39.5,26.5 c -1.543286,0 -3,1.135288 -3,2.678574 V 35 l -4,-4 v -4.5 h -5 v 1.286 c 0,0.771643 -0.942643,1.714 -1.714286,1.714 H 24.5 v 5 H 29 l 4.011161,4 H 27.177875 C 25.634589,38.5 24.5,39.956714 24.5,41.5 c 0,1.543286 1.134589,3.000001 2.677875,3.000001 h 12.535714 z m 0,-39.000002 c 1.543285,0 2.785714,1.242428 2.785714,2.785714 v 12.535713 c 0,1.543286 -1.456715,2.678574 -3,2.678574 -1.543286,0 -3,-1.135288 -3,-2.678574 V 15 l -4,4 v 4.5 h -5 V 22.214 C 27.5,21.442357 26.557357,20.5 25.785714,20.5 H 24.5 v -5 H 29 l 4.011161,-4 H 27.177875 C 25.634589,11.5 24.5,10.043286 24.5,8.5 c 0,-1.543286 1.134589,-3.000001 2.677875,-3.000001 h 12.535714 z m -32.428572,0 C 5.742429,5.499999 4.5,6.742427 4.5,8.285713 V 20.821426 C 4.5,22.364712 5.956715,23.5 7.5,23.5 c 1.543286,0 3,-1.135288 3,-2.678574 V 15 l 4,4 v 4.5 h 5 v -1.286 c 0,-0.771643 0.942643,-1.714 1.714286,-1.714 H 22.5 v -5 H 18 l -4.011161,-4 h 5.833286 C 21.365411,11.5 22.5,10.043286 22.5,8.5 22.5,6.956714 21.365411,5.499999 19.822125,5.499999 H 7.286411 Z M 14.5,26.392856 v 5.571429 C 14.5,33.50757 15.492429,34.5 17.035714,34.5 H 22.5 v -5 H 21.214286 C 20.442643,29.5 19.5,28.491035 19.5,27.785713 v -1.392857 z" />
  <path
     id="rect3863-7-3"
     style="color:#000000;opacity:0.4;fill:none;fill-opacity:1;stroke:#ad5f00;stroke-opacity:1;enable-background:new"
     d="m 39.714286,44.500001 c 1.543285,0 2.785714,-1.242428 2.785714,-2.785714 V 29.178574 C 42.5,27.635288 41.043285,26.5 39.5,26.5 c -1.543286,0 -3,1.135288 -3,2.678574 V 35 l -4,-4 v -4.5 h -5 v 1.286 c 0,0.771643 -0.942643,1.714 -1.714286,1.714 H 24.5 v 5 H 29 l 4.011161,4 H 27.177875 C 25.634589,38.5 24.5,39.956714 24.5,41.5 c 0,1.543286 1.134589,3.000001 2.677875,3.000001 h 12.535714 z m 0,-39.000002 c 1.543285,0 2.785714,1.242428 2.785714,2.785714 v 12.535713 c 0,1.543286 -1.456715,2.678574 -3,2.678574 -1.543286,0 -3,-1.135288 -3,-2.678574 V 15 l -4,4 v 4.5 h -5 V 22.214 C 27.5,21.442357 26.557357,20.5 25.785714,20.5 H 24.5 v -5 H 29 l 4.011161,-4 H 27.177875 C 25.634589,11.5 24.5,10.043286 24.5,8.5 c 0,-1.543286 1.134589,-3.000001 2.677875,-3.000001 h 12.535714 z m -32.428572,0 C 5.742429,5.499999 4.5,6.742427 4.5,8.285713 V 20.821426 C 4.5,22.364712 5.956715,23.5 7.5,23.5 c 1.543286,0 3,-1.135288 3,-2.678574 V 15 l 4,4 v 4.5 h 5 v -1.286 c 0,-0.771643 0.942643,-1.714 1.714286,-1.714 H 22.5 v -5 H 18 l -4.011161,-4 h 5.833286 C 21.365411,11.5 22.5,10.043286 22.5,8.5 22.5,6.956714 21.365411,5.499999 19.822125,5.499999 H 7.286411 Z M 14.5,26.392856 v 5.571429 C 14.5,33.50757 15.492429,34.5 17.035714,34.5 H 22.5 v -5 H 21.214286 C 20.442643,29.5 19.5,28.491035 19.5,27.785713 v -1.392857 z" />
  <path
     id="rect3863-7-6"
     style="color:#000000;fill:none;fill-opacity:1;stroke:url(#linearGradient1118);stroke-opacity:1;enable-background:new"
     d="M 7.285156,6.5 C 6.278574,6.5 5.5,7.2785732 5.5,8.2851562 V 20.822266 C 5.5,21.736282 6.447136,22.5 7.5,22.5 c 1.052866,0 2,-0.763718 2,-1.677734 v -8.236328 l 6,6 V 22.5 h 3 v -0.285156 c 0,-0.793023 0.392274,-1.384563 0.861328,-1.853516 C 19.830382,19.892375 20.421944,19.5 21.214844,19.5 H 21.5 v -3 h -3.914062 l -6.015626,-6 h 8.251954 C 20.736282,10.5 21.5,9.5531677 21.5,8.5 c 0,-1.0531677 -0.763718,-2 -1.677734,-2 H 7.287109 Z m 19.892578,0 C 26.263718,6.5 25.5,7.4468323 25.5,8.5 c 0,1.0531677 0.763718,2 1.677734,2 h 8.251954 l -6.015626,6 H 25.5 v 3 h 0.285156 c 0.7929,0 1.384462,0.392375 1.853516,0.861328 C 28.107726,20.830281 28.5,21.421821 28.5,22.214844 V 22.5 h 3 v -3.914062 l 6,-6 v 8.236328 c 0,0.914016 0.947134,1.677734 2,1.677734 1.052864,0 2,-0.763718 2,-1.677734 V 8.2851562 C 41.5,7.2785732 40.721426,6.5 39.714844,6.5 h -0.002 z M 15.5,27.392578 v 4.572266 c 0,0.557288 0.161669,0.903856 0.396484,1.138672 C 16.1313,33.338331 16.477868,33.5 17.035156,33.5 H 21.5 v -3 h -0.285156 c -0.821673,0 -1.403308,-0.423077 -1.863282,-0.894531 C 18.89159,29.134015 18.5,28.583308 18.5,27.785156 V 27.392578 Z M 28.5,27.5 v 0.285156 c 0,0.793023 -0.392274,1.384563 -0.861328,1.853516 C 27.169618,30.107625 26.578056,30.5 25.785156,30.5 H 25.5 v 3 h 3.914062 l 6.015626,6 H 27.177734 C 26.263718,39.5 25.5,40.446832 25.5,41.5 c 0,1.053168 0.763718,2 1.677734,2 h 12.535157 0.002 c 1.006582,0 1.785156,-0.778573 1.785156,-1.785156 v -12.53711 c 0,-0.914016 -0.947136,-1.677734 -2,-1.677734 -1.052866,0 -2,0.763718 -2,1.677734 v 8.236328 l -6,-6 V 27.5 Z" />
</svg>
