<?xml version="1.0" encoding="UTF-8" standalone="no"?>
<svg
   xmlns:dc="http://purl.org/dc/elements/1.1/"
   xmlns:cc="http://creativecommons.org/ns#"
   xmlns:rdf="http://www.w3.org/1999/02/22-rdf-syntax-ns#"
   xmlns:svg="http://www.w3.org/2000/svg"
   xmlns="http://www.w3.org/2000/svg"
   xmlns:xlink="http://www.w3.org/1999/xlink"
   xmlns:sodipodi="http://sodipodi.sourceforge.net/DTD/sodipodi-0.dtd"
   xmlns:inkscape="http://www.inkscape.org/namespaces/inkscape"
   id="svg3143"
   height="64"
   width="64"
   version="1.1"
   inkscape:version="1.0.2 (e86c870879, 2021-01-15)"
   sodipodi:docname="vmware-player_64.svg">
  <sodipodi:namedview
     pagecolor="#ffffff"
     bordercolor="#666666"
     borderopacity="1"
     objecttolerance="10"
     gridtolerance="10"
     guidetolerance="10"
     inkscape:pageopacity="0"
     inkscape:pageshadow="2"
     inkscape:window-width="1366"
     inkscape:window-height="705"
     id="namedview50"
     showgrid="true"
     inkscape:zoom="39.848005"
     inkscape:cx="31.422225"
     inkscape:cy="60.24932"
     inkscape:window-x="0"
     inkscape:window-y="30"
     inkscape:window-maximized="1"
     inkscape:current-layer="svg3143"
     inkscape:document-rotation="0">
    <inkscape:grid
       type="xygrid"
       id="grid982" />
  </sodipodi:namedview>
  <defs
     id="defs3145">
    <linearGradient
       id="linearGradient1122">
      <stop
         offset="0"
         style="stop-color:#ffffff;stop-opacity:1"
         id="stop1114" />
      <stop
         offset="0.0183425"
         style="stop-color:#ffffff;stop-opacity:0.23529412"
         id="stop1116" />
      <stop
         offset="0.98214287"
         style="stop-color:#ffffff;stop-opacity:0.15686275"
         id="stop1118" />
      <stop
         offset="1"
         style="stop-color:#ffffff;stop-opacity:0.39215687"
         id="stop1120" />
    </linearGradient>
    <radialGradient
       id="radialGradient3030"
       gradientUnits="userSpaceOnUse"
       cy="43.5"
       cx="4.993"
       gradientTransform="matrix(2.0038 0 0 1.4 27.988 -17.4)"
       r="2.5">
      <stop
         id="stop2883"
         stop-color="#181818"
         offset="0" />
      <stop
         id="stop2885"
         stop-color="#181818"
         stop-opacity="0"
         offset="1" />
    </radialGradient>
    <radialGradient
       id="radialGradient3032"
       gradientUnits="userSpaceOnUse"
       cy="43.5"
       cx="4.993"
       gradientTransform="matrix(2.0038 0 0 1.4 -20.012 -104.4)"
       r="2.5">
      <stop
         id="stop2889"
         stop-color="#181818"
         offset="0" />
      <stop
         id="stop2891"
         stop-color="#181818"
         stop-opacity="0"
         offset="1" />
    </radialGradient>
    <linearGradient
       id="linearGradient3034"
       y2="39.999"
       gradientUnits="userSpaceOnUse"
       x2="25.058"
       y1="47.028"
       x1="25.058">
      <stop
         id="stop2895"
         stop-color="#181818"
         stop-opacity="0"
         offset="0" />
      <stop
         id="stop2897"
         stop-color="#181818"
         offset=".5" />
      <stop
         id="stop2899"
         stop-color="#181818"
         stop-opacity="0"
         offset="1" />
    </linearGradient>
    <linearGradient
       id="linearGradient3044"
       y2="43"
       gradientUnits="userSpaceOnUse"
       x2="24"
       gradientTransform="matrix(1.4,0,0,1.4,-65.016309,-0.90541928)"
       y1="5"
       x1="24">
      <stop
         id="stop3926-7"
         stop-color="#fff"
         offset="0" />
      <stop
         id="stop3928-3"
         stop-color="#fff"
         stop-opacity=".23529"
         offset=".063165" />
      <stop
         id="stop3930-7"
         stop-color="#fff"
         stop-opacity=".15686"
         offset=".95056" />
      <stop
         id="stop3932-1"
         stop-color="#fff"
         stop-opacity=".39216"
         offset="1" />
    </linearGradient>
    <radialGradient
       id="radialGradient3053"
       gradientUnits="userSpaceOnUse"
       cy="9.9941"
       cx="8.2761"
       gradientTransform="matrix(0,9.33492,-11.46026,0,83.215688,-85.55362)"
       r="12.672">
      <stop
         id="stop3244"
         stop-color="#7ec1f8"
         offset="0" />
      <stop
         id="stop3246"
         stop-color="#4f97e3"
         offset=".26238" />
      <stop
         id="stop3248"
         stop-color="#2674c6"
         offset=".66094" />
      <stop
         id="stop3250"
         stop-color="#0b4169"
         offset="1" />
    </radialGradient>
    <clipPath
       id="clipPath-929888831">
      <g
         id="g17"
         transform="translate(0 -1004.4)">
        <path
           id="path19"
           d="m-24 13c0 1.105-0.672 2-1.5 2s-1.5-0.895-1.5-2 0.672-2 1.5-2 1.5 0.895 1.5 2z"
           transform="matrix(15.333 0 0 11.5 415 878.86)"
           fill="#1890d0" />
      </g>
    </clipPath>
    <radialGradient
       gradientTransform="matrix(2.003784,0,0,1.4,27.98813,-17.4)"
       gradientUnits="userSpaceOnUse"
       xlink:href="#linearGradient3688-166-749-2-324"
       id="radialGradient3013-896"
       fy="43.5"
       fx="4.9929786"
       r="2.5"
       cy="43.5"
       cx="4.9929786" />
    <linearGradient
       id="linearGradient3688-166-749-2-324">
      <stop
         offset="0"
         style="stop-color:#181818;stop-opacity:1"
         id="stop3216" />
      <stop
         offset="1"
         style="stop-color:#181818;stop-opacity:0"
         id="stop3218" />
    </linearGradient>
    <radialGradient
       gradientTransform="matrix(2.003784,0,0,1.4,-20.01187,-104.4)"
       gradientUnits="userSpaceOnUse"
       xlink:href="#linearGradient3688-166-749-2-324"
       id="radialGradient3015-826"
       fy="43.5"
       fx="4.9929786"
       r="2.5"
       cy="43.5"
       cx="4.9929786" />
    <linearGradient
       gradientUnits="userSpaceOnUse"
       xlink:href="#linearGradient3702-501-757-6-946"
       id="linearGradient4395"
       y2="39.999443"
       x2="25.058096"
       y1="47.027729"
       x1="25.058096" />
    <linearGradient
       id="linearGradient3702-501-757-6-946">
      <stop
         offset="0"
         style="stop-color:#181818;stop-opacity:0"
         id="stop3228" />
      <stop
         offset="0.5"
         style="stop-color:#181818;stop-opacity:1"
         id="stop3230" />
      <stop
         offset="1"
         style="stop-color:#181818;stop-opacity:0"
         id="stop3232" />
    </linearGradient>
    <radialGradient
       gradientTransform="matrix(0,9.4975523,-11.65996,0,140.93055,-79.160972)"
       gradientUnits="userSpaceOnUse"
       xlink:href="#linearGradient2867-449-88-871-390-598-476-591-434-148-57-177-8-3-3-6-4-8-8-8-5"
       id="radialGradient4144"
       fy="9.9571075"
       fx="6.2001843"
       r="12.671875"
       cy="9.9571075"
       cx="6.7304144" />
    <linearGradient
       id="linearGradient2867-449-88-871-390-598-476-591-434-148-57-177-8-3-3-6-4-8-8-8-5">
      <stop
         offset="0"
         style="stop-color:#919caf;stop-opacity:1"
         id="stop3750-1-0-7-6-6-1-3-9-3" />
      <stop
         offset="0.26238"
         style="stop-color:#68758e;stop-opacity:1"
         id="stop3752-3-7-4-0-32-8-923-0-7" />
      <stop
         offset="0.704952"
         style="stop-color:#485a6c;stop-opacity:1"
         id="stop3754-1-8-5-2-7-6-7-1-9" />
      <stop
         offset="1"
         style="stop-color:#444c5c;stop-opacity:1"
         id="stop3756-1-6-2-6-6-1-96-6-0" />
    </linearGradient>
    <linearGradient
       gradientTransform="translate(1.17e-5,1.00001)"
       gradientUnits="userSpaceOnUse"
       xlink:href="#linearGradient4187"
       id="linearGradient3153"
       y2="41.890972"
       x2="23.99999"
       y1="6.1111298"
       x1="23.99999" />
    <linearGradient
       id="linearGradient4187">
      <stop
         offset="0"
         style="stop-color:#ffffff;stop-opacity:1"
         id="stop4189" />
      <stop
         offset="0.02099473"
         style="stop-color:#ffffff;stop-opacity:0.23529412"
         id="stop4191" />
      <stop
         offset="0.97696"
         style="stop-color:#ffffff;stop-opacity:0.15686275"
         id="stop4193" />
      <stop
         offset="1"
         style="stop-color:#ffffff;stop-opacity:0.39215687"
         id="stop4195" />
    </linearGradient>
    <linearGradient
       gradientTransform="matrix(1.0521608,0,0,-1.0532519,-1.2521612,51.339874)"
       gradientUnits="userSpaceOnUse"
       xlink:href="#linearGradient4311"
       id="linearGradient3143"
       y2="25.361452"
       x2="30.212982"
       y1="21.416878"
       x1="30.212982" />
    <linearGradient
       id="linearGradient4311">
      <stop
         offset="0"
         style="stop-color:#000000;stop-opacity:1"
         id="stop4313" />
      <stop
         offset="1"
         style="stop-color:#000000;stop-opacity:0"
         id="stop4315" />
    </linearGradient>
    <radialGradient
       gradientTransform="matrix(2.003784,0,0,1.4,27.98813,-17.4)"
       gradientUnits="userSpaceOnUse"
       xlink:href="#linearGradient3688-166-749-2-324"
       id="radialGradient2873-966-168-714"
       fy="43.5"
       fx="4.9929786"
       r="2.5"
       cy="43.5"
       cx="4.9929786" />
    <radialGradient
       gradientTransform="matrix(2.003784,0,0,1.4,-20.01187,-104.4)"
       gradientUnits="userSpaceOnUse"
       xlink:href="#linearGradient3688-166-749-2-324"
       id="radialGradient2875-742-326-419"
       fy="43.5"
       fx="4.9929786"
       r="2.5"
       cy="43.5"
       cx="4.9929786" />
    <radialGradient
       r="12.671875"
       fy="9.9571075"
       fx="6.2001843"
       cy="9.9571075"
       cx="6.7304144"
       gradientTransform="matrix(0,13.393984,-16.443533,0,196.90205,-114.89368)"
       gradientUnits="userSpaceOnUse"
       id="radialGradient4147"
       xlink:href="#radialGradient3053" />
    <linearGradient
       y2="42.091705"
       x2="23.99999"
       y1="5.9093657"
       x1="23.99999"
       gradientTransform="matrix(1.4324324,0,0,1.4362832,-2.3783747,-2.4707827)"
       gradientUnits="userSpaceOnUse"
       id="linearGradient3904"
       xlink:href="#linearGradient4270" />
    <linearGradient
       id="linearGradient4270">
      <stop
         id="stop4272"
         style="stop-color:#ffffff;stop-opacity:1"
         offset="0" />
      <stop
         id="stop4274"
         style="stop-color:#ffffff;stop-opacity:0.23529412"
         offset="0.0348749" />
      <stop
         id="stop4276"
         style="stop-color:#ffffff;stop-opacity:0.15686275"
         offset="0.96216321" />
      <stop
         id="stop4278"
         style="stop-color:#ffffff;stop-opacity:0.39215687"
         offset="1" />
    </linearGradient>
    <radialGradient
       gradientTransform="matrix(2.003784,0,0,1.4,27.98813,-17.4)"
       gradientUnits="userSpaceOnUse"
       xlink:href="#linearGradient3688-166-749-2-324"
       id="radialGradient3013-896-3-3"
       fy="43.5"
       fx="4.9929786"
       r="2.5"
       cy="43.5"
       cx="4.9929786" />
    <radialGradient
       gradientTransform="matrix(2.003784,0,0,1.4,-20.01187,-104.4)"
       gradientUnits="userSpaceOnUse"
       xlink:href="#linearGradient3688-166-749-2-324"
       id="radialGradient3015-826-5-2"
       fy="43.5"
       fx="4.9929786"
       r="2.5"
       cy="43.5"
       cx="4.9929786" />
    <radialGradient
       gradientTransform="matrix(2.003784,0,0,1.4,27.98813,-17.4)"
       gradientUnits="userSpaceOnUse"
       xlink:href="#linearGradient3688-166-749-2-324"
       id="radialGradient3013-896-3-0"
       fy="43.5"
       fx="4.9929786"
       r="2.5"
       cy="43.5"
       cx="4.9929786" />
    <radialGradient
       gradientTransform="matrix(2.003784,0,0,1.4,-20.01187,-104.4)"
       gradientUnits="userSpaceOnUse"
       xlink:href="#linearGradient3688-166-749-2-324"
       id="radialGradient3015-826-5-7"
       fy="43.5"
       fx="4.9929786"
       r="2.5"
       cy="43.5"
       cx="4.9929786" />
    <linearGradient
       inkscape:collect="always"
       xlink:href="#linearGradient3702-501-757-6-946"
       id="linearGradient4285"
       gradientUnits="userSpaceOnUse"
       x1="25.058096"
       y1="47.027729"
       x2="25.058096"
       y2="39.999443" />
    <radialGradient
       gradientTransform="matrix(2.003784,0,0,1.4,27.98813,-17.4)"
       gradientUnits="userSpaceOnUse"
       xlink:href="#linearGradient3688-166-749-2-324"
       id="radialGradient3013-896-3-3-3"
       fy="43.5"
       fx="4.9929786"
       r="2.5"
       cy="43.5"
       cx="4.9929786" />
    <radialGradient
       gradientTransform="matrix(2.003784,0,0,1.4,-20.01187,-104.4)"
       gradientUnits="userSpaceOnUse"
       xlink:href="#linearGradient3688-166-749-2-324"
       id="radialGradient3015-826-5-2-5"
       fy="43.5"
       fx="4.9929786"
       r="2.5"
       cy="43.5"
       cx="4.9929786" />
    <linearGradient
       inkscape:collect="always"
       id="linearGradient4206">
      <stop
         style="stop-color:#ffe16b;stop-opacity:1"
         offset="0"
         id="stop4208" />
      <stop
         style="stop-color:#f9c440;stop-opacity:1"
         offset="1"
         id="stop4210" />
    </linearGradient>
    <linearGradient
       id="linearGradient1136">
      <stop
         offset="0"
         style="stop-color:#ffffff;stop-opacity:1"
         id="stop1128" />
      <stop
         offset="0.025"
         style="stop-color:#ffffff;stop-opacity:0.23529412"
         id="stop1130" />
      <stop
         offset="0.97500002"
         style="stop-color:#ffffff;stop-opacity:0.15686275"
         id="stop1132" />
      <stop
         offset="1"
         style="stop-color:#ffffff;stop-opacity:0.39215687"
         id="stop1134" />
    </linearGradient>
    <linearGradient
       inkscape:collect="always"
       xlink:href="#linearGradient4206"
       id="linearGradient1063"
       x1="32"
       y1="4.5005112"
       x2="32"
       y2="59.489185"
       gradientUnits="userSpaceOnUse" />
    <linearGradient
       inkscape:collect="always"
       xlink:href="#linearGradient1122"
       id="linearGradient1112"
       x1="32"
       y1="4"
       x2="32"
       y2="60"
       gradientUnits="userSpaceOnUse" />
  </defs>
  <metadata
     id="metadata3148">
    <rdf:RDF>
      <cc:Work
         rdf:about="">
        <dc:format>image/svg+xml</dc:format>
        <dc:type
           rdf:resource="http://purl.org/dc/dcmitype/StillImage" />
        <dc:title />
      </cc:Work>
    </rdf:RDF>
  </metadata>
  <g
     style="opacity:0.2;stroke-width:1.01055"
     id="g3712-0-2"
     transform="matrix(-0.78689414,0,0,-0.69334949,65.836448,89.73398)">
    <rect
       style="fill:url(#radialGradient3013-896-3-3);fill-opacity:1;stroke:none;stroke-width:1.01055"
       id="rect2801-4-6"
       y="40"
       x="38"
       height="7"
       width="5" />
    <rect
       style="fill:url(#radialGradient3015-826-5-2);fill-opacity:1;stroke:none;stroke-width:1.01055"
       id="rect3696-8-1"
       transform="scale(-1)"
       y="-47"
       x="-10"
       height="7"
       width="5" />
    <rect
       style="fill:url(#linearGradient4285);fill-opacity:1;stroke:none;stroke-width:1.01055"
       id="rect3700-7-8"
       y="40"
       x="10"
       height="7.0000005"
       width="28" />
  </g>
  <g
     id="g4224"
     fill="#ffc239"
     transform="matrix(1.0826 0 0 -1.0785 -1.975 50.826)">
    <g
       id="g4226"
       fill="#ffc239"
       clip-path="url(#clipPath-929888831)">
      <!-- color: #dfdfdf -->
    </g>
  </g>
  <g
     id="g4232"
     fill="#ffc239"
     transform="matrix(-1.0826 0 0 -1.0785 49.975 50.826)">
    <g
       id="g4234"
       fill="#ffc239"
       clip-path="url(#clipPath-929888831)">
      <!-- color: #dfdfdf -->
    </g>
  </g>
  <g
     id="g4294"
     stroke-linejoin="round"
     opacity=".15"
     transform="matrix(.99936 0 0 .99553 .022037 .46841)"
     stroke="#fff"
     stroke-linecap="round"
     stroke-width="1.8509"
     fill="none">
    <g
       id="g4296"
       transform="matrix(1.0833 0 0 1.0833 -2 -1.3)">
      <g
         id="g4298"
         stroke-linejoin="round"
         clip-path="url(#clipPath-929888831)"
         stroke="#fff"
         stroke-linecap="round"
         stroke-width="1.8509"
         fill="none">
        <!-- color: #dfdfdf -->
      </g>
    </g>
    <g
       id="g4304"
       transform="matrix(1.0833 0 0 -1.0833 -1.9983 50.583)">
      <g
         id="g4306"
         stroke-linejoin="round"
         clip-path="url(#clipPath-929888831)"
         stroke="#fff"
         stroke-linecap="round"
         stroke-width="1.8509"
         fill="none">
        <!-- color: #dfdfdf -->
      </g>
    </g>
    <g
       id="g4310"
       transform="matrix(-1.0833 0 0 -1.0833 49.985 50.583)">
      <g
         id="g4312"
         stroke-linejoin="round"
         clip-path="url(#clipPath-929888831)"
         stroke="#fff"
         stroke-linecap="round"
         stroke-width="1.8509"
         fill="none">
        <!-- color: #dfdfdf -->
      </g>
    </g>
  </g>
  <path
     id="path988"
     style="color:#000000;fill:url(#linearGradient1063);fill-opacity:1;enable-background:new"
     d="M 8.4277344 4.5 C 6.2513064 4.5 4.4969804 6.2513083 4.5 8.4277344 L 4.5234375 25.677734 C 4.5264575 27.854161 6.276697 29.5 8.453125 29.5 C 10.629554 29.5 12.554937 27.853733 12.511719 25.677734 L 12.488281 18 L 18.5 23.5 L 18.5 29.5 L 25.5 29.5 L 25.5 27.5 C 25.5 26.411786 26.411815 25.508141 27.5 25.5 L 29.5 25.5 L 29.5 18.5 L 23.5 18.5 L 18 12.5 L 25.535156 12.521484 C 27.711577 12.527484 29.464844 10.647132 29.464844 8.4707031 C 29.464844 6.2942749 27.682282 4.546351 25.505859 4.5410156 L 8.4296875 4.5 L 8.4277344 4.5 z M 55.570312 4.5 L 38.494141 4.5410156 C 36.317718 4.546351 34.535156 6.2942751 34.535156 8.4707031 C 34.535156 10.647133 36.288423 12.527484 38.464844 12.521484 L 46 12.5 L 40.5 18.5 L 34.5 18.5 L 34.5 25.5 L 36.5 25.5 C 37.588185 25.508141 38.5 26.411786 38.5 27.5 L 38.5 29.5 L 45.5 29.5 L 45.5 23.5 L 51.511719 18 L 51.488281 25.677734 C 51.445063 27.853733 53.370446 29.5 55.546875 29.5 C 57.723303 29.5 59.473562 27.854161 59.476562 25.677734 L 59.5 8.4277344 C 59.50302 6.2513084 57.748694 4.5 55.572266 4.5 L 55.570312 4.5 z M 18.5 34.5 L 18.5 41.857422 C 18.5 44.033849 19.756028 45.356709 21.927734 45.5 L 29.5 45.5 L 29.5 38.5 L 27.5 38.5 C 26.411785 38.500156 25.5 37.588214 25.5 36.5 L 25.5 34.5 L 18.5 34.5 z M 38.5 34.5 L 38.5 36.5 C 38.5 37.588214 37.588185 38.491859 36.5 38.5 L 34.5 38.5 L 34.5 45.5 L 40.5 45.5 L 46 51.5 L 38.464844 51.478516 C 36.288423 51.472516 34.535156 53.352868 34.535156 55.529297 C 34.535156 57.705725 36.317718 59.453649 38.494141 59.458984 L 55.570312 59.5 L 55.572266 59.5 C 57.748694 59.5 59.50302 57.748692 59.5 55.572266 L 59.476562 38.322266 C 59.473562 36.145839 57.723303 34.5 55.546875 34.5 C 53.370446 34.5 51.445063 36.146267 51.488281 38.322266 L 51.511719 46 L 45.5 40.5 L 45.5 34.5 L 38.5 34.5 z " />
  <path
     id="path1065"
     style="color:#000000;fill:none;fill-opacity:1;enable-background:new;stroke:#ad5f00;stroke-opacity:1;opacity:0.4"
     d="M 8.4277344 4.5 C 6.2513064 4.5 4.4969804 6.2513083 4.5 8.4277344 L 4.5234375 25.677734 C 4.5264575 27.854161 6.276697 29.5 8.453125 29.5 C 10.629554 29.5 12.554937 27.853733 12.511719 25.677734 L 12.488281 18 L 18.5 23.5 L 18.5 29.5 L 25.5 29.5 L 25.5 27.5 C 25.5 26.411786 26.411815 25.508141 27.5 25.5 L 29.5 25.5 L 29.5 18.5 L 23.5 18.5 L 18 12.5 L 25.535156 12.521484 C 27.711577 12.527484 29.464844 10.647132 29.464844 8.4707031 C 29.464844 6.2942749 27.682282 4.546351 25.505859 4.5410156 L 8.4296875 4.5 L 8.4277344 4.5 z M 55.570312 4.5 L 38.494141 4.5410156 C 36.317718 4.546351 34.535156 6.2942751 34.535156 8.4707031 C 34.535156 10.647133 36.288423 12.527484 38.464844 12.521484 L 46 12.5 L 40.5 18.5 L 34.5 18.5 L 34.5 25.5 L 36.5 25.5 C 37.588185 25.508141 38.5 26.411786 38.5 27.5 L 38.5 29.5 L 45.5 29.5 L 45.5 23.5 L 51.511719 18 L 51.488281 25.677734 C 51.445063 27.853733 53.370446 29.5 55.546875 29.5 C 57.723303 29.5 59.473562 27.854161 59.476562 25.677734 L 59.5 8.4277344 C 59.50302 6.2513084 57.748694 4.5 55.572266 4.5 L 55.570312 4.5 z M 18.5 34.5 L 18.5 41.857422 C 18.5 44.033849 19.756028 45.356709 21.927734 45.5 L 29.5 45.5 L 29.5 38.5 L 27.5 38.5 C 26.411785 38.500156 25.5 37.588214 25.5 36.5 L 25.5 34.5 L 18.5 34.5 z M 38.5 34.5 L 38.5 36.5 C 38.5 37.588214 37.588185 38.491859 36.5 38.5 L 34.5 38.5 L 34.5 45.5 L 40.5 45.5 L 46 51.5 L 38.464844 51.478516 C 36.288423 51.472516 34.535156 53.352868 34.535156 55.529297 C 34.535156 57.705725 36.317718 59.453649 38.494141 59.458984 L 55.570312 59.5 L 55.572266 59.5 C 57.748694 59.5 59.50302 57.748692 59.5 55.572266 L 59.476562 38.322266 C 59.473562 36.145839 57.723303 34.5 55.546875 34.5 C 53.370446 34.5 51.445063 36.146267 51.488281 38.322266 L 51.511719 46 L 45.5 40.5 L 45.5 34.5 L 38.5 34.5 z " />
  <path
     id="path988-8"
     style="color:#000000;fill:none;fill-opacity:1;stroke:url(#linearGradient1112);stroke-opacity:1;enable-background:new"
     d="m 8.4277379,5.5 c -1.639981,0 -2.930008,1.2874702 -2.927735,2.9257812 l 0.023438,17.2499998 c 0.00226,1.640997 1.2574,2.824219 2.929687,2.824219 1.6721581,0 3.0899041,-1.226283 3.0585941,-2.802734 v -0.0078 l -0.03125,-9.966797 8.019531,7.335938 V 28.5 h 5 v -1 c 0,-1.646814 1.354617,-2.987749 2.992191,-3 h 0.0039 1.00391 v -5 H 23.06055 l -7.339844,-8.005859 9.816407,0.02734 c 1.59897,0.0044 2.927731,-1.4114 2.927731,-3.0507809 0,-1.6304051 -1.318586,-2.9256616 -2.960934,-2.9296875 z m 47.1425761,0 -17.07422,0.041016 c -1.64233,0.004 -2.96093,1.2992796 -2.96093,2.9296875 0,1.6393815 1.32681,3.0551885 2.92578,3.0507805 l 9.81836,-0.02734 L 40.939454,19.5 h -5.43945 v 5 h 1.00391 0.0039 c 1.63762,0.01219 2.99219,1.353189 2.99219,3 v 1 h 5 v -5.441406 l 8.01758,-7.335938 -0.0293,9.966797 v 0.0078 c -0.0313,1.576472 1.38644,2.802747 3.05859,2.802747 1.67229,0 2.92743,-1.183219 2.92969,-2.824219 L 58.500004,8.4257812 C 58.502274,6.7874684 57.212254,5.5 55.572264,5.5 Z m -36.070311,30 v 6.357422 c 0,0.895845 0.240848,1.489112 0.626953,1.898437 0.384922,0.408071 0.969226,0.683812 1.861329,0.744141 h 6.511719 v -5 h -1 c -1.646973,2.36e-4 -3.000001,-1.353204 -3.000001,-3 v -1 z m 20.000001,0 v 1 c 0,1.646811 -1.35462,2.987749 -2.99219,3 h -0.0039 -1.00391 v 5 h 5.43945 l 7.33985,8.005859 -9.81836,-0.02734 c -1.59897,-0.0044 -2.92578,1.4114 -2.92578,3.050781 0,1.630408 1.31858,2.925662 2.96093,2.929687 L 55.570314,58.5 h 0.002 c 1.63994,0 2.92996,-1.287471 2.92769,-2.925781 l -0.02344,-17.25 C 58.474234,36.683198 57.219164,35.5 55.546874,35.5 c -1.67215,0 -3.08989,1.22628 -3.05859,2.802734 v 0.0078 l 0.0293,9.966797 -8.01758,-7.335925 V 35.5 Z" />
</svg>
