<?xml version="1.0" encoding="UTF-8" standalone="no"?>
<svg
   xmlns:dc="http://purl.org/dc/elements/1.1/"
   xmlns:cc="http://creativecommons.org/ns#"
   xmlns:rdf="http://www.w3.org/1999/02/22-rdf-syntax-ns#"
   xmlns:svg="http://www.w3.org/2000/svg"
   xmlns="http://www.w3.org/2000/svg"
   xmlns:xlink="http://www.w3.org/1999/xlink"
   xmlns:sodipodi="http://sodipodi.sourceforge.net/DTD/sodipodi-0.dtd"
   xmlns:inkscape="http://www.inkscape.org/namespaces/inkscape"
   id="svg3143"
   height="16"
   width="16"
   version="1.1"
   inkscape:version="1.0.2 (e86c870879, 2021-01-15)"
   sodipodi:docname="vmware-player_16.svg">
  <sodipodi:namedview
     pagecolor="#ffffff"
     bordercolor="#666666"
     borderopacity="1"
     objecttolerance="10"
     gridtolerance="10"
     guidetolerance="10"
     inkscape:pageopacity="0"
     inkscape:pageshadow="2"
     inkscape:window-width="1366"
     inkscape:window-height="705"
     id="namedview50"
     showgrid="true"
     inkscape:zoom="4.7944482"
     inkscape:cx="3.7597982"
     inkscape:cy="12.3286"
     inkscape:window-x="0"
     inkscape:window-y="30"
     inkscape:window-maximized="1"
     inkscape:current-layer="svg3143"
     inkscape:document-rotation="0">
    <inkscape:grid
       type="xygrid"
       id="grid912" />
  </sodipodi:namedview>
  <defs
     id="defs3145">
    <linearGradient
       id="linearGradient1086">
      <stop
         offset="0"
         style="stop-color:#ffffff;stop-opacity:1"
         id="stop1078" />
      <stop
         offset="0.07403614"
         style="stop-color:#ffffff;stop-opacity:0.23529412"
         id="stop1080" />
      <stop
         offset="0.9285714"
         style="stop-color:#ffffff;stop-opacity:0.15686275"
         id="stop1082" />
      <stop
         offset="1"
         style="stop-color:#ffffff;stop-opacity:0.39215687"
         id="stop1084" />
    </linearGradient>
    <linearGradient
       id="linearGradient1085">
      <stop
         offset="0"
         style="stop-color:#ffffff;stop-opacity:1"
         id="stop1077" />
      <stop
         offset="0.07412969"
         style="stop-color:#ffffff;stop-opacity:0.23529412"
         id="stop1079" />
      <stop
         offset="0.9285714"
         style="stop-color:#ffffff;stop-opacity:0.15686275"
         id="stop1081" />
      <stop
         offset="1"
         style="stop-color:#ffffff;stop-opacity:0.39215687"
         id="stop1083" />
    </linearGradient>
    <radialGradient
       id="radialGradient3030"
       gradientUnits="userSpaceOnUse"
       cy="43.5"
       cx="4.993"
       gradientTransform="matrix(2.0038 0 0 1.4 27.988 -17.4)"
       r="2.5">
      <stop
         id="stop2883"
         stop-color="#181818"
         offset="0" />
      <stop
         id="stop2885"
         stop-color="#181818"
         stop-opacity="0"
         offset="1" />
    </radialGradient>
    <radialGradient
       id="radialGradient3032"
       gradientUnits="userSpaceOnUse"
       cy="43.5"
       cx="4.993"
       gradientTransform="matrix(2.0038 0 0 1.4 -20.012 -104.4)"
       r="2.5">
      <stop
         id="stop2889"
         stop-color="#181818"
         offset="0" />
      <stop
         id="stop2891"
         stop-color="#181818"
         stop-opacity="0"
         offset="1" />
    </radialGradient>
    <linearGradient
       id="linearGradient3034"
       y2="39.999"
       gradientUnits="userSpaceOnUse"
       x2="25.058"
       y1="47.028"
       x1="25.058">
      <stop
         id="stop2895"
         stop-color="#181818"
         stop-opacity="0"
         offset="0" />
      <stop
         id="stop2897"
         stop-color="#181818"
         offset=".5" />
      <stop
         id="stop2899"
         stop-color="#181818"
         stop-opacity="0"
         offset="1" />
    </linearGradient>
    <linearGradient
       id="linearGradient3044"
       y2="43"
       gradientUnits="userSpaceOnUse"
       x2="24"
       gradientTransform="translate(48.997719,0.36200872)"
       y1="5"
       x1="24">
      <stop
         id="stop3926-7"
         stop-color="#fff"
         offset="0" />
      <stop
         id="stop3928-3"
         stop-color="#fff"
         stop-opacity=".23529"
         offset=".063165" />
      <stop
         id="stop3930-7"
         stop-color="#fff"
         stop-opacity=".15686"
         offset=".95056" />
      <stop
         id="stop3932-1"
         stop-color="#fff"
         stop-opacity=".39216"
         offset="1" />
    </linearGradient>
    <radialGradient
       id="radialGradient3053"
       gradientUnits="userSpaceOnUse"
       cy="9.9941"
       cx="8.2761"
       gradientTransform="matrix(0,6.6678,-8.1859,0,154.87772,-60.100992)"
       r="12.672">
      <stop
         id="stop3244"
         stop-color="#7ec1f8"
         offset="0" />
      <stop
         id="stop3246"
         stop-color="#4f97e3"
         offset=".26238" />
      <stop
         id="stop3248"
         stop-color="#2674c6"
         offset=".66094" />
      <stop
         id="stop3250"
         stop-color="#0b4169"
         offset="1" />
    </radialGradient>
    <clipPath
       id="clipPath-929888831">
      <g
         id="g17"
         transform="translate(0 -1004.4)">
        <path
           id="path19"
           d="m-24 13c0 1.105-0.672 2-1.5 2s-1.5-0.895-1.5-2 0.672-2 1.5-2 1.5 0.895 1.5 2z"
           transform="matrix(15.333 0 0 11.5 415 878.86)"
           fill="#1890d0" />
      </g>
    </clipPath>
    <radialGradient
       gradientTransform="matrix(2.003784,0,0,1.4,27.98813,-17.4)"
       gradientUnits="userSpaceOnUse"
       xlink:href="#linearGradient3688-166-749-2-324"
       id="radialGradient3013-896"
       fy="43.5"
       fx="4.9929786"
       r="2.5"
       cy="43.5"
       cx="4.9929786" />
    <linearGradient
       id="linearGradient3688-166-749-2-324">
      <stop
         offset="0"
         style="stop-color:#181818;stop-opacity:1"
         id="stop3216" />
      <stop
         offset="1"
         style="stop-color:#181818;stop-opacity:0"
         id="stop3218" />
    </linearGradient>
    <radialGradient
       gradientTransform="matrix(2.003784,0,0,1.4,-20.01187,-104.4)"
       gradientUnits="userSpaceOnUse"
       xlink:href="#linearGradient3688-166-749-2-324"
       id="radialGradient3015-826"
       fy="43.5"
       fx="4.9929786"
       r="2.5"
       cy="43.5"
       cx="4.9929786" />
    <linearGradient
       gradientUnits="userSpaceOnUse"
       xlink:href="#linearGradient3702-501-757-6-946"
       id="linearGradient4395"
       y2="39.999443"
       x2="25.058096"
       y1="47.027729"
       x1="25.058096" />
    <linearGradient
       id="linearGradient3702-501-757-6-946">
      <stop
         offset="0"
         style="stop-color:#181818;stop-opacity:0"
         id="stop3228" />
      <stop
         offset="0.5"
         style="stop-color:#181818;stop-opacity:1"
         id="stop3230" />
      <stop
         offset="1"
         style="stop-color:#181818;stop-opacity:0"
         id="stop3232" />
    </linearGradient>
    <radialGradient
       gradientTransform="matrix(0,9.4975523,-11.65996,0,140.93055,-79.160972)"
       gradientUnits="userSpaceOnUse"
       xlink:href="#linearGradient2867-449-88-871-390-598-476-591-434-148-57-177-8-3-3-6-4-8-8-8-5"
       id="radialGradient4144"
       fy="9.9571075"
       fx="6.2001843"
       r="12.671875"
       cy="9.9571075"
       cx="6.7304144" />
    <linearGradient
       id="linearGradient2867-449-88-871-390-598-476-591-434-148-57-177-8-3-3-6-4-8-8-8-5">
      <stop
         offset="0"
         style="stop-color:#919caf;stop-opacity:1"
         id="stop3750-1-0-7-6-6-1-3-9-3" />
      <stop
         offset="0.26238"
         style="stop-color:#68758e;stop-opacity:1"
         id="stop3752-3-7-4-0-32-8-923-0-7" />
      <stop
         offset="0.704952"
         style="stop-color:#485a6c;stop-opacity:1"
         id="stop3754-1-8-5-2-7-6-7-1-9" />
      <stop
         offset="1"
         style="stop-color:#444c5c;stop-opacity:1"
         id="stop3756-1-6-2-6-6-1-96-6-0" />
    </linearGradient>
    <linearGradient
       gradientTransform="matrix(0.35,0,0,0.35,18.039393,0.12481644)"
       gradientUnits="userSpaceOnUse"
       xlink:href="#linearGradient4187"
       id="linearGradient3153"
       y2="41.890972"
       x2="23.99999"
       y1="6.1111298"
       x1="23.99999" />
    <linearGradient
       id="linearGradient4187">
      <stop
         offset="0"
         style="stop-color:#ffffff;stop-opacity:1"
         id="stop4189" />
      <stop
         offset="0.02099473"
         style="stop-color:#ffffff;stop-opacity:0.23529412"
         id="stop4191" />
      <stop
         offset="0.97696"
         style="stop-color:#ffffff;stop-opacity:0.15686275"
         id="stop4193" />
      <stop
         offset="1"
         style="stop-color:#ffffff;stop-opacity:0.39215687"
         id="stop4195" />
    </linearGradient>
    <linearGradient
       gradientTransform="matrix(1.0521608,0,0,-1.0532519,-1.2521612,51.339874)"
       gradientUnits="userSpaceOnUse"
       xlink:href="#linearGradient4311"
       id="linearGradient3143"
       y2="25.361452"
       x2="30.212982"
       y1="21.416878"
       x1="30.212982" />
    <linearGradient
       id="linearGradient4311">
      <stop
         offset="0"
         style="stop-color:#000000;stop-opacity:1"
         id="stop4313" />
      <stop
         offset="1"
         style="stop-color:#000000;stop-opacity:0"
         id="stop4315" />
    </linearGradient>
    <radialGradient
       gradientTransform="matrix(2.003784,0,0,1.4,27.98813,-17.4)"
       gradientUnits="userSpaceOnUse"
       xlink:href="#linearGradient3688-166-749-2-324"
       id="radialGradient3013-896-3"
       fy="43.5"
       fx="4.9929786"
       r="2.5"
       cy="43.5"
       cx="4.9929786" />
    <radialGradient
       gradientTransform="matrix(2.003784,0,0,1.4,-20.01187,-104.4)"
       gradientUnits="userSpaceOnUse"
       xlink:href="#linearGradient3688-166-749-2-324"
       id="radialGradient3015-826-5"
       fy="43.5"
       fx="4.9929786"
       r="2.5"
       cy="43.5"
       cx="4.9929786" />
    <radialGradient
       gradientTransform="matrix(0,3.3241433,-4.080986,0,67.365082,-27.931527)"
       gradientUnits="userSpaceOnUse"
       xlink:href="#radialGradient3053"
       id="radialGradient4144-2"
       fy="9.9571075"
       fx="6.2001843"
       r="12.671875"
       cy="9.9571075"
       cx="6.7304144" />
    <radialGradient
       cx="6.7304144"
       cy="9.9571075"
       r="12.671875"
       fx="6.2001843"
       fy="9.9571075"
       id="radialGradient4370"
       xlink:href="#radialGradient3053"
       gradientUnits="userSpaceOnUse"
       gradientTransform="matrix(0,3.1658508,-3.8866533,0,46.976839,-26.720326)" />
    <linearGradient
       x1="23.99999"
       y1="4.999989"
       x2="23.99999"
       y2="43"
       id="linearGradient3304"
       xlink:href="#linearGradient3924-4-8"
       gradientUnits="userSpaceOnUse"
       gradientTransform="matrix(0.2972973,0,0,0.2972973,0.86486906,0.8648672)" />
    <linearGradient
       id="linearGradient3924-4-8">
      <stop
         id="stop3926-0-4"
         style="stop-color:#ffffff;stop-opacity:1"
         offset="0" />
      <stop
         id="stop3928-6-8"
         style="stop-color:#ffffff;stop-opacity:0.23529412"
         offset="0.06316455" />
      <stop
         id="stop3930-2-1"
         style="stop-color:#ffffff;stop-opacity:0.15686275"
         offset="0.95056331" />
      <stop
         id="stop3932-9-0"
         style="stop-color:#ffffff;stop-opacity:0.39215687"
         offset="1" />
    </linearGradient>
    <radialGradient
       gradientTransform="matrix(2.003784,0,0,1.4,27.98813,-17.4)"
       gradientUnits="userSpaceOnUse"
       xlink:href="#linearGradient3688-166-749-2-324"
       id="radialGradient3013-896-3-3"
       fy="43.5"
       fx="4.9929786"
       r="2.5"
       cy="43.5"
       cx="4.9929786" />
    <radialGradient
       gradientTransform="matrix(2.003784,0,0,1.4,-20.01187,-104.4)"
       gradientUnits="userSpaceOnUse"
       xlink:href="#linearGradient3688-166-749-2-324"
       id="radialGradient3015-826-5-2"
       fy="43.5"
       fx="4.9929786"
       r="2.5"
       cy="43.5"
       cx="4.9929786" />
    <linearGradient
       gradientUnits="userSpaceOnUse"
       xlink:href="#linearGradient3702-501-757-6-946"
       id="linearGradient4395-6"
       y2="39.999443"
       x2="25.058096"
       y1="47.027729"
       x1="25.058096" />
    <radialGradient
       gradientTransform="matrix(2.003784,0,0,1.4,27.98813,-17.4)"
       gradientUnits="userSpaceOnUse"
       xlink:href="#linearGradient3688-166-749-2-324"
       id="radialGradient3013-896-3-0"
       fy="43.5"
       fx="4.9929786"
       r="2.5"
       cy="43.5"
       cx="4.9929786" />
    <radialGradient
       gradientTransform="matrix(2.003784,0,0,1.4,-20.01187,-104.4)"
       gradientUnits="userSpaceOnUse"
       xlink:href="#linearGradient3688-166-749-2-324"
       id="radialGradient3015-826-5-7"
       fy="43.5"
       fx="4.9929786"
       r="2.5"
       cy="43.5"
       cx="4.9929786" />
    <linearGradient
       inkscape:collect="always"
       id="linearGradient4206">
      <stop
         style="stop-color:#ffe16b;stop-opacity:1"
         offset="0"
         id="stop4208" />
      <stop
         style="stop-color:#f9c440;stop-opacity:1"
         offset="1"
         id="stop4210-6" />
    </linearGradient>
    <linearGradient
       id="linearGradient1136">
      <stop
         offset="0"
         style="stop-color:#ffffff;stop-opacity:1"
         id="stop1128" />
      <stop
         offset="0.025"
         style="stop-color:#ffffff;stop-opacity:0.23529412"
         id="stop1130" />
      <stop
         offset="0.97500002"
         style="stop-color:#ffffff;stop-opacity:0.15686275"
         id="stop1132" />
      <stop
         offset="1"
         style="stop-color:#ffffff;stop-opacity:0.39215687"
         id="stop1134" />
    </linearGradient>
    <linearGradient
       inkscape:collect="always"
       xlink:href="#linearGradient4206"
       id="linearGradient1027"
       x1="8"
       y1="1.5226567"
       x2="8"
       y2="14.506916"
       gradientUnits="userSpaceOnUse" />
    <linearGradient
       inkscape:collect="always"
       xlink:href="#linearGradient1086"
       id="linearGradient1061"
       gradientUnits="userSpaceOnUse"
       x1="8"
       y1="1"
       x2="8"
       y2="15" />
  </defs>
  <metadata
     id="metadata3148">
    <rdf:RDF>
      <cc:Work
         rdf:about="">
        <dc:format>image/svg+xml</dc:format>
        <dc:type
           rdf:resource="http://purl.org/dc/dcmitype/StillImage" />
        <dc:title />
      </cc:Work>
    </rdf:RDF>
  </metadata>
  <g
     id="g4224"
     fill="#ffc239"
     transform="matrix(1.0826 0 0 -1.0785 -1.975 50.826)">
    <g
       id="g4226"
       fill="#ffc239"
       clip-path="url(#clipPath-929888831)">
      <!-- color: #dfdfdf -->
    </g>
  </g>
  <g
     id="g4232"
     fill="#ffc239"
     transform="matrix(-1.0826 0 0 -1.0785 49.975 50.826)">
    <g
       id="g4234"
       fill="#ffc239"
       clip-path="url(#clipPath-929888831)">
      <!-- color: #dfdfdf -->
    </g>
  </g>
  <g
     id="g4294"
     stroke-linejoin="round"
     opacity=".15"
     transform="matrix(.99936 0 0 .99553 .022037 .46841)"
     stroke="#fff"
     stroke-linecap="round"
     stroke-width="1.8509"
     fill="none">
    <g
       id="g4296"
       transform="matrix(1.0833 0 0 1.0833 -2 -1.3)">
      <g
         id="g4298"
         stroke-linejoin="round"
         clip-path="url(#clipPath-929888831)"
         stroke="#fff"
         stroke-linecap="round"
         stroke-width="1.8509"
         fill="none">
        <!-- color: #dfdfdf -->
      </g>
    </g>
    <g
       id="g4304"
       transform="matrix(1.0833 0 0 -1.0833 -1.9983 50.583)">
      <g
         id="g4306"
         stroke-linejoin="round"
         clip-path="url(#clipPath-929888831)"
         stroke="#fff"
         stroke-linecap="round"
         stroke-width="1.8509"
         fill="none">
        <!-- color: #dfdfdf -->
      </g>
    </g>
    <g
       id="g4310"
       transform="matrix(-1.0833 0 0 -1.0833 49.985 50.583)">
      <g
         id="g4312"
         stroke-linejoin="round"
         clip-path="url(#clipPath-929888831)"
         stroke="#fff"
         stroke-linecap="round"
         stroke-width="1.8509"
         fill="none">
        <!-- color: #dfdfdf -->
      </g>
    </g>
  </g>
  <path
     id="path923-3-6"
     style="color:#000000;font-style:normal;font-variant:normal;font-weight:normal;font-stretch:normal;font-size:medium;line-height:normal;font-family:sans-serif;font-variant-ligatures:normal;font-variant-position:normal;font-variant-caps:normal;font-variant-numeric:normal;font-variant-alternates:normal;font-variant-east-asian:normal;font-feature-settings:normal;font-variation-settings:normal;text-indent:0;text-align:start;text-decoration:none;text-decoration-line:none;text-decoration-style:solid;text-decoration-color:#000000;letter-spacing:normal;word-spacing:normal;text-transform:none;writing-mode:lr-tb;direction:ltr;text-orientation:mixed;dominant-baseline:auto;baseline-shift:baseline;text-anchor:start;white-space:normal;shape-padding:0;shape-margin:0;inline-size:0;clip-rule:nonzero;display:inline;overflow:visible;visibility:visible;isolation:auto;mix-blend-mode:normal;color-interpolation:sRGB;color-interpolation-filters:linearRGB;solid-color:#000000;solid-opacity:1;vector-effect:none;fill:url(#linearGradient1027);fill-opacity:1;fill-rule:nonzero;stroke:none;stroke-linecap:butt;stroke-linejoin:miter;stroke-miterlimit:4;stroke-dasharray:none;stroke-dashoffset:0;stroke-opacity:1;color-rendering:auto;image-rendering:auto;shape-rendering:auto;text-rendering:auto;enable-background:accumulate;stop-color:#000000"
     d="m 13.572301,14.5 c 0.514428,0 0.927735,-0.413306 0.927735,-0.927734 V 9.392578 c 0,-0.514429 -0.485572,-0.892578 -1,-0.892578 -0.514429,0 -1.037698,0.379532 -1,0.892578 v 1.693359 l -1,-1 V 8.5 h -2 V 9 c 0,0.257214 -0.242786,0.5 -0.5,0.5 H 8.5000358 v 2 h 1.5859372 l 1,1 H 9.500036 c -0.514429,0 -1.0048612,0.38511 -1.0000002,1 0.0049,0.61489 0.4855712,1 1.0000002,1 h 4.070312 z m 0,-13 c 0.514428,0 0.927735,0.4133064 0.927735,0.9277344 v 4.1796875 c 0,0.514429 -0.485572,0.8925781 -1,0.8925781 -0.514429,0 -1.037698,-0.3795322 -1,-0.8925781 V 4.9140625 l -1,1 V 7.5 H 9.5000358 V 7 c 0,-0.257214 -0.242786,-0.5 -0.5,-0.5 h -0.5 v -2 h 1.5859372 l 1,-1 H 9.5000358 c -0.514429,0 -1.004861,-0.3851098 -1,-1 0.0049,-0.6148902 0.485571,-1 1,-1 H 13.570348 Z M 4.5,8.5 v 1.821427 C 4.5,11 5,11.5 5.5,11.5 h 2 v -2 H 7 C 6.742786,9.5 6.5,9.257214 6.5,9 V 8.5 Z M 2.4277344,1.5 C 1.9133064,1.5 1.5,1.9133064 1.5,2.4277344 V 6.6074219 C 1.5,7.1218509 1.985572,7.5 2.5,7.5 3.014429,7.5 3.5376979,7.1204678 3.5,6.6074219 V 4.9140625 l 1,1 V 7.5 h 2 V 7 C 6.5,6.742786 6.742786,6.5 7,6.5 h 0.5 v -2 H 5.9140625 l -1,-1 H 6.5 c 0.514429,0 1.0048608,-0.3851098 1,-1 -0.00486,-0.6148902 -0.485571,-1 -1,-1 H 2.4296875 Z" />
  <path
     id="path1029"
     style="color:#000000;font-style:normal;font-variant:normal;font-weight:normal;font-stretch:normal;font-size:medium;line-height:normal;font-family:sans-serif;font-variant-ligatures:normal;font-variant-position:normal;font-variant-caps:normal;font-variant-numeric:normal;font-variant-alternates:normal;font-variant-east-asian:normal;font-feature-settings:normal;font-variation-settings:normal;text-indent:0;text-align:start;text-decoration:none;text-decoration-line:none;text-decoration-style:solid;text-decoration-color:#000000;letter-spacing:normal;word-spacing:normal;text-transform:none;writing-mode:lr-tb;direction:ltr;text-orientation:mixed;dominant-baseline:auto;baseline-shift:baseline;text-anchor:start;white-space:normal;shape-padding:0;shape-margin:0;inline-size:0;clip-rule:nonzero;display:inline;overflow:visible;visibility:visible;isolation:auto;mix-blend-mode:normal;color-interpolation:sRGB;color-interpolation-filters:linearRGB;solid-color:#000000;solid-opacity:1;vector-effect:none;fill:none;fill-opacity:1;fill-rule:nonzero;stroke:#ad5f00;stroke-linecap:butt;stroke-linejoin:miter;stroke-miterlimit:4;stroke-dasharray:none;stroke-dashoffset:0;stroke-opacity:1;color-rendering:auto;image-rendering:auto;shape-rendering:auto;text-rendering:auto;enable-background:accumulate;stop-color:#000000;opacity:0.4"
     d="m 13.572301,14.5 c 0.514428,0 0.927735,-0.413306 0.927735,-0.927734 V 9.392578 c 0,-0.514429 -0.485572,-0.892578 -1,-0.892578 -0.514429,0 -1.037698,0.379532 -1,0.892578 v 1.693359 l -1,-1 V 8.5 h -2 V 9 c 0,0.257214 -0.242786,0.5 -0.5,0.5 H 8.5000358 v 2 h 1.5859372 l 1,1 H 9.500036 c -0.514429,0 -1.0048612,0.38511 -1.0000002,1 0.0049,0.61489 0.4855712,1 1.0000002,1 h 4.070312 z m 0,-13 c 0.514428,0 0.927735,0.4133064 0.927735,0.9277344 v 4.1796875 c 0,0.514429 -0.485572,0.8925781 -1,0.8925781 -0.514429,0 -1.037698,-0.3795322 -1,-0.8925781 V 4.9140625 l -1,1 V 7.5 H 9.5000358 V 7 c 0,-0.257214 -0.242786,-0.5 -0.5,-0.5 h -0.5 v -2 h 1.5859372 l 1,-1 H 9.5000358 c -0.514429,0 -1.004861,-0.3851098 -1,-1 0.0049,-0.6148902 0.485571,-1 1,-1 H 13.570348 Z M 4.5,8.5 v 1.821427 C 4.5,11 5,11.5 5.5,11.5 h 2 v -2 H 7 C 6.742786,9.5 6.5,9.257214 6.5,9 V 8.5 Z M 2.4277344,1.5 C 1.9133064,1.5 1.5,1.9133064 1.5,2.4277344 V 6.6074219 C 1.5,7.1218509 1.985572,7.5 2.5,7.5 3.014429,7.5 3.5376979,7.1204678 3.5,6.6074219 V 4.9140625 l 1,1 V 7.5 h 2 V 7 C 6.5,6.742786 6.742786,6.5 7,6.5 h 0.5 v -2 H 5.9140625 l -1,-1 H 6.5 c 0.514429,0 1.0048608,-0.3851098 1,-1 -0.00486,-0.6148902 -0.485571,-1 -1,-1 H 2.4296875 Z" />
  <path
     id="path923-3-6-2"
     style="color:#000000;font-style:normal;font-variant:normal;font-weight:normal;font-stretch:normal;font-size:medium;line-height:normal;font-family:sans-serif;font-variant-ligatures:normal;font-variant-position:normal;font-variant-caps:normal;font-variant-numeric:normal;font-variant-alternates:normal;font-variant-east-asian:normal;font-feature-settings:normal;font-variation-settings:normal;text-indent:0;text-align:start;text-decoration:none;text-decoration-line:none;text-decoration-style:solid;text-decoration-color:#000000;letter-spacing:normal;word-spacing:normal;text-transform:none;writing-mode:lr-tb;direction:ltr;text-orientation:mixed;dominant-baseline:auto;baseline-shift:baseline;text-anchor:start;white-space:normal;shape-padding:0;shape-margin:0;inline-size:0;clip-rule:nonzero;display:inline;overflow:visible;visibility:visible;isolation:auto;mix-blend-mode:normal;color-interpolation:sRGB;color-interpolation-filters:linearRGB;solid-color:#000000;solid-opacity:1;vector-effect:none;fill:url(#linearGradient1061);fill-opacity:1;fill-rule:nonzero;stroke:none;stroke-linecap:butt;stroke-linejoin:miter;stroke-miterlimit:4;stroke-dasharray:none;stroke-dashoffset:0;stroke-opacity:1;color-rendering:auto;image-rendering:auto;shape-rendering:auto;text-rendering:auto;enable-background:accumulate;stop-color:#000000"
     d="M 2.427734,2 C 2.181116,2 2,2.1811158 2,2.4277344 V 6.6074219 C 2,6.8072161 2.230601,7 2.5,7 2.634252,7 2.792701,6.941797 2.886719,6.8632812 2.980736,6.7847657 3.007752,6.7234476 3.001953,6.6445312 L 3,6.625 V 3.7070312 l 2,2 V 7 H 6 C 6,6.4281505 6.42815,6 7,6 V 5 H 5.707031 l -2,-2 H 6.5 C 6.76489,3 7.002746,2.8513068 7,2.5039062 6.997163,2.1479005 6.76489,2 6.5,2 H 2.429688 Z M 9.5,2 C 9.23511,2 9.002837,2.1479006 9,2.5039062 8.997254,2.8513069 9.23511,3 9.5,3 h 2.792969 l -2,2 H 9 v 1 c 0.57185,0 1,0.4281505 1,1 h 1 V 5.7070312 l 2,-2 V 6.625 l -0.002,0.019531 c -0.0058,0.078916 0.02122,0.1402345 0.115234,0.21875 C 13.207299,6.941797 13.365748,7 13.5,7 13.769399,7 14,6.8072161 14,6.6074219 V 2.4277344 C 14,2.1811164 13.818884,2 13.572266,2 h -0.002 z M 5,9 v 1.322266 C 5,10.755225 5.333333,11 5.5,11 H 7 V 10 C 6.42815,10 6,9.57185 6,9 Z m 5,0 c 0,0.57185 -0.42815,1 -1,1 v 1 h 1.292969 l 2,2 H 9.5 C 9.23511,13 8.997254,13.148693 9,13.496094 9.002837,13.852099 9.23511,14 9.5,14 h 4.070312 0.002 C 13.818884,14 14,13.818884 14,13.572266 V 9.392578 C 14,9.192784 13.769399,9 13.5,9 13.365748,9 13.207299,9.058203 13.113281,9.136719 13.019264,9.215234 12.992248,9.276553 12.998047,9.355469 L 13,9.375 v 2.917969 l -2,-2 V 9 Z" />
</svg>
