<?xml version="1.0" encoding="UTF-8" standalone="no"?>
<svg
   xmlns:dc="http://purl.org/dc/elements/1.1/"
   xmlns:cc="http://creativecommons.org/ns#"
   xmlns:rdf="http://www.w3.org/1999/02/22-rdf-syntax-ns#"
   xmlns:svg="http://www.w3.org/2000/svg"
   xmlns="http://www.w3.org/2000/svg"
   xmlns:xlink="http://www.w3.org/1999/xlink"
   xmlns:sodipodi="http://sodipodi.sourceforge.net/DTD/sodipodi-0.dtd"
   xmlns:inkscape="http://www.inkscape.org/namespaces/inkscape"
   width="64"
   height="64"
   viewBox="0 0 64 64"
   id="svg2"
   version="1.1"
   inkscape:version="1.0.1 (1.0.1+r75)"
   sodipodi:docname="teams_64.svg">
  <defs
     id="defs4">
    <linearGradient
       id="linearGradient4644-104-3-3-6-2-3-4-1">
      <stop
         offset="0"
         style="stop-color:#ff4035;stop-opacity:1;"
         id="stop5237-6-5-1-7-5-2-4" />
      <stop
         offset="1"
         style="stop-color:#dc311a;stop-opacity:1;"
         id="stop5239-4-6-4-8-4-8-9" />
    </linearGradient>
    <radialGradient
       gradientTransform="matrix(0,5.0000024,-5.2894057,-1.3609237e-7,68.694364,986.37271)"
       gradientUnits="userSpaceOnUse"
       xlink:href="#linearGradient2867-449-88-871-390-598-476-591-434-148-57-177-3-8-8-9"
       id="radialGradient3328"
       fy="8.4497671"
       fx="1.1978998"
       r="19.99999"
       cy="8.4497671"
       cx="1.1978998" />
    <linearGradient
       id="linearGradient2867-449-88-871-390-598-476-591-434-148-57-177-3-8-8-9">
      <stop
         offset="0"
         style="stop-color:#90dbec;stop-opacity:1"
         id="stop3750-8-9-0" />
      <stop
         offset="0.26238"
         style="stop-color:#42baea;stop-opacity:1"
         id="stop3752-3-2-2" />
      <stop
         offset="0.704952"
         style="stop-color:#3689e6;stop-opacity:1"
         id="stop3754-7-2-2" />
      <stop
         offset="1"
         style="stop-color:#2b63a0;stop-opacity:1"
         id="stop3756-9-3-05" />
    </linearGradient>
    <linearGradient
       gradientTransform="matrix(1.5712555,0,0,1.1746645,-3260.5055,-2786.4137)"
       gradientUnits="userSpaceOnUse"
       xlink:href="#linearGradient947"
       id="linearGradient11527-6-5"
       y2="3241.9966"
       x2="2035.1652"
       y1="3208.0737"
       x1="2035.1652" />
    <linearGradient
       id="linearGradient947">
      <stop
         id="stop943"
         style="stop-color:#64baff;stop-opacity:1"
         offset="0" />
      <stop
         id="stop945"
         style="stop-color:#3689e6;stop-opacity:1"
         offset="1" />
    </linearGradient>
    <radialGradient
       xlink:href="#linearGradient3820-7-2"
       id="radialGradient3300-8"
       gradientUnits="userSpaceOnUse"
       gradientTransform="matrix(0.3823536,7.5555777e-8,-1.8372241e-8,0.1115198,-5.9254271,36.335849)"
       cx="99.189415"
       cy="185.29727"
       fx="99.189415"
       fy="185.29727"
       r="62.769119" />
    <linearGradient
       id="linearGradient3820-7-2">
      <stop
         id="stop3822-2-6"
         style="stop-color:#000000;stop-opacity:1"
         offset="0" />
      <stop
         id="stop3824-1-2"
         style="stop-color:#000000;stop-opacity:0"
         offset="1" />
    </linearGradient>
    <radialGradient
       xlink:href="#linearGradient3820-7-2"
       id="radialGradient4192-6"
       gradientUnits="userSpaceOnUse"
       gradientTransform="matrix(0.2549024,5.3967361e-8,-1.2248161e-8,0.07965545,6.7163816,44.240666)"
       cx="99.189415"
       cy="185.29727"
       fx="99.189415"
       fy="185.29727"
       r="62.769119" />
    <radialGradient
       r="62.769119"
       fy="185.29727"
       fx="99.189415"
       cy="185.29727"
       cx="99.189415"
       gradientTransform="matrix(0.3823536,7.5555777e-8,-1.8372241e-8,0.1115198,-5.9254271,36.335849)"
       gradientUnits="userSpaceOnUse"
       id="radialGradient3300"
       xlink:href="#linearGradient3820-7-2" />
    <radialGradient
       r="62.769119"
       fy="185.29727"
       fx="99.189415"
       cy="185.29727"
       cx="99.189415"
       gradientTransform="matrix(0.2549024,5.3967361e-8,-1.2248161e-8,0.07965545,6.7163816,44.240666)"
       gradientUnits="userSpaceOnUse"
       id="radialGradient4192"
       xlink:href="#linearGradient3820-7-2" />
    <linearGradient
       id="a"
       x1="8.3929996"
       y1="1.1059999"
       x2="6.0834856"
       y2="5.9485741"
       gradientUnits="userSpaceOnUse"
       gradientTransform="matrix(2.018503,0,0,2.018503,-0.018499,1004.3437)">
      <stop
         offset="1"
         stop-color="#0078d4"
         id="stop8"
         style="stop-color:#64baff;stop-opacity:1" />
    </linearGradient>
    <linearGradient
       id="b"
       x1="21.834949"
       y1="30.768084"
       x2="29.546"
       y2="17.889"
       gradientUnits="userSpaceOnUse"
       gradientTransform="matrix(1.9401964,0,0,1.9466385,1.8874704,1005.5164)">
      <stop
         offset="0"
         stop-color="#0078d4"
         id="stop11"
         style="stop-color:#3689e6;stop-opacity:1" />
      <stop
         offset="1"
         stop-color="#00bcf2"
         id="stop21"
         style="stop-color:#64baff;stop-opacity:1" />
    </linearGradient>
    <linearGradient
       id="c"
       x1="15.862497"
       y1="2.235914"
       x2="15.862497"
       y2="29.892433"
       gradientUnits="userSpaceOnUse"
       gradientTransform="matrix(1.9822676,0,0,1.9888598,0.5533116,1004.4112)">
      <stop
         offset="0"
         stop-color="#00b7f0"
         id="stop24"
         style="stop-color:#64baff;stop-opacity:1" />
      <stop
         offset="1"
         stop-color="#007cc1"
         id="stop26"
         style="stop-color:#3689e6;stop-opacity:1" />
    </linearGradient>
    <linearGradient
       id="c-5"
       x1="15.862497"
       y1="2.235914"
       x2="15.862497"
       y2="29.892433"
       gradientUnits="userSpaceOnUse"
       gradientTransform="matrix(1.9822676,0,0,1.9888598,85.553312,1033.9112)">
      <stop
         offset="0"
         stop-color="#00b7f0"
         id="stop24-3"
         style="stop-color:#64baff;stop-opacity:1" />
      <stop
         offset="1"
         stop-color="#007cc1"
         id="stop26-5"
         style="stop-color:#3689e6;stop-opacity:1" />
    </linearGradient>
    <linearGradient
       id="b-6"
       x1="21.834949"
       y1="30.768084"
       x2="29.546"
       y2="17.889"
       gradientUnits="userSpaceOnUse"
       gradientTransform="matrix(1.9401964,0,0,1.9466385,86.38747,31.1542)">
      <stop
         offset="0"
         stop-color="#0078d4"
         id="stop11-2"
         style="stop-color:#3689e6;stop-opacity:1" />
      <stop
         offset="1"
         stop-color="#00bcf2"
         id="stop21-9"
         style="stop-color:#64baff;stop-opacity:1" />
    </linearGradient>
    <linearGradient
       id="b-6-3"
       x1="21.834949"
       y1="30.768084"
       x2="29.546"
       y2="17.889"
       gradientUnits="userSpaceOnUse"
       gradientTransform="matrix(1.9401964,0,0,1.9466385,66.38747,960.5164)">
      <stop
         offset="0"
         stop-color="#0078d4"
         id="stop11-2-6"
         style="stop-color:#3689e6;stop-opacity:1" />
      <stop
         offset="1"
         stop-color="#00bcf2"
         id="stop21-9-1"
         style="stop-color:#64baff;stop-opacity:1" />
    </linearGradient>
    <linearGradient
       id="c-5-2"
       x1="15.862497"
       y1="2.235914"
       x2="15.862497"
       y2="29.892433"
       gradientUnits="userSpaceOnUse"
       gradientTransform="matrix(1.9822676,0,0,1.9888598,65.553312,958.9112)">
      <stop
         offset="0"
         stop-color="#00b7f0"
         id="stop24-3-9"
         style="stop-color:#64baff;stop-opacity:1" />
      <stop
         offset="1"
         stop-color="#007cc1"
         id="stop26-5-3"
         style="stop-color:#3689e6;stop-opacity:1" />
    </linearGradient>
    <linearGradient
       id="linearGradient4214">
      <stop
         style="stop-color:#ffffff;stop-opacity:1;"
         offset="0"
         id="stop4216" />
      <stop
         id="stop4218"
         offset="0.28571552"
         style="stop-color:#ffffff;stop-opacity:0.23529412" />
      <stop
         style="stop-color:#ffffff;stop-opacity:0.15686275"
         offset="0.71428698"
         id="stop4220" />
      <stop
         style="stop-color:#ffffff;stop-opacity:0.39215687"
         offset="1"
         id="stop4222" />
    </linearGradient>
    <radialGradient
       r="62.769119"
       fy="185.29727"
       fx="99.189415"
       cy="185.29727"
       cx="99.189415"
       gradientTransform="matrix(0.3823536,7.5555777e-8,-1.8372241e-8,0.1115198,-5.9254271,36.335849)"
       gradientUnits="userSpaceOnUse"
       id="radialGradient3300-6"
       xlink:href="#linearGradient3820-7-2" />
    <radialGradient
       r="62.769119"
       fy="185.29727"
       fx="99.189415"
       cy="185.29727"
       cx="99.189415"
       gradientTransform="matrix(0.2549024,5.3967361e-8,-1.2248161e-8,0.07965545,6.7163816,44.240666)"
       gradientUnits="userSpaceOnUse"
       id="radialGradient4192-63"
       xlink:href="#linearGradient3820-7-2" />
    <linearGradient
       id="b-1"
       x1="21.834949"
       y1="30.768084"
       x2="29.546"
       y2="17.889"
       gradientUnits="userSpaceOnUse"
       gradientTransform="matrix(1.9401964,0,0,1.9466385,86.88747,1035.5164)">
      <stop
         offset="0"
         stop-color="#0078d4"
         id="stop11-5"
         style="stop-color:#3689e6;stop-opacity:1" />
      <stop
         offset="1"
         stop-color="#00bcf2"
         id="stop21-5"
         style="stop-color:#64baff;stop-opacity:1" />
    </linearGradient>
    <linearGradient
       id="c-4"
       x1="15.862497"
       y1="2.235914"
       x2="15.862497"
       y2="29.892433"
       gradientUnits="userSpaceOnUse"
       gradientTransform="matrix(1.9822676,0,0,1.9888598,85.553312,1033.9112)">
      <stop
         offset="0"
         stop-color="#00b7f0"
         id="stop24-7"
         style="stop-color:#64baff;stop-opacity:1" />
      <stop
         offset="1"
         stop-color="#007cc1"
         id="stop26-6"
         style="stop-color:#3689e6;stop-opacity:1" />
    </linearGradient>
    <linearGradient
       id="c-4-5"
       x1="15.862497"
       y1="2.235914"
       x2="15.862497"
       y2="29.892433"
       gradientUnits="userSpaceOnUse"
       gradientTransform="matrix(1.9822676,0,0,1.9888598,135.55331,993.9112)">
      <stop
         offset="0"
         stop-color="#00b7f0"
         id="stop24-7-4"
         style="stop-color:#64baff;stop-opacity:1" />
      <stop
         offset="1"
         stop-color="#007cc1"
         id="stop26-6-7"
         style="stop-color:#3689e6;stop-opacity:1" />
    </linearGradient>
    <linearGradient
       id="b-14"
       x1="21.834949"
       y1="30.768084"
       x2="29.546"
       y2="17.889"
       gradientUnits="userSpaceOnUse"
       gradientTransform="matrix(1.9401964,0,0,1.9466385,133.38747,1045.5164)">
      <stop
         offset="0"
         stop-color="#0078d4"
         id="stop11-9"
         style="stop-color:#3689e6;stop-opacity:1" />
      <stop
         offset="1"
         stop-color="#00bcf2"
         id="stop21-2"
         style="stop-color:#64baff;stop-opacity:1" />
    </linearGradient>
    <linearGradient
       id="c-0"
       x1="15.862497"
       y1="2.235914"
       x2="15.862497"
       y2="29.892433"
       gradientUnits="userSpaceOnUse"
       gradientTransform="matrix(1.9822676,0,0,1.9888598,132.05331,1043.9112)">
      <stop
         offset="0"
         stop-color="#00b7f0"
         id="stop24-6"
         style="stop-color:#64baff;stop-opacity:1" />
      <stop
         offset="1"
         stop-color="#007cc1"
         id="stop26-8"
         style="stop-color:#3689e6;stop-opacity:1" />
    </linearGradient>
    <linearGradient
       id="b-2"
       x1="21.834949"
       y1="30.768084"
       x2="29.546"
       y2="17.889"
       gradientUnits="userSpaceOnUse"
       gradientTransform="matrix(1.9401964,0,0,1.9466385,114.13725,1046.702)">
      <stop
         offset="0"
         stop-color="#0078d4"
         id="stop11-7"
         style="stop-color:#3689e6;stop-opacity:1" />
      <stop
         offset="1"
         stop-color="#00bcf2"
         id="stop21-22"
         style="stop-color:#64baff;stop-opacity:1" />
    </linearGradient>
    <linearGradient
       id="c-6"
       x1="15.862497"
       y1="2.235914"
       x2="15.862497"
       y2="29.892433"
       gradientUnits="userSpaceOnUse"
       gradientTransform="matrix(1.9822676,0,0,1.9888598,112.80309,1045.5968)">
      <stop
         offset="0"
         stop-color="#00b7f0"
         id="stop24-1"
         style="stop-color:#64baff;stop-opacity:1" />
      <stop
         offset="1"
         stop-color="#007cc1"
         id="stop26-0"
         style="stop-color:#3689e6;stop-opacity:1" />
    </linearGradient>
    <radialGradient
       r="27.5"
       fy="4.3419166"
       fx="31.999998"
       cy="4.3419166"
       cx="31.999998"
       gradientTransform="matrix(1.8994991e-8,4.3639556,-4.363968,1.8994936e-8,146.5596,844.31155)"
       gradientUnits="userSpaceOnUse"
       id="radialGradient3044"
       xlink:href="#linearGradient4632-92-3-0-8-1-9" />
    <linearGradient
       id="linearGradient4632-92-3-0-8-1-9">
      <stop
         offset="0"
         style="stop-color:#fafafa;stop-opacity:1"
         id="stop4634-68-8-0-2-9-4" />
      <stop
         offset="1"
         style="stop-color:#e1e1e1;stop-opacity:1"
         id="stop4636-8-21-7-1-4-8" />
    </linearGradient>
    <linearGradient
       inkscape:collect="always"
       xlink:href="#linearGradient944"
       id="linearGradient1676"
       x1="50"
       y1="50"
       x2="50"
       y2="68"
       gradientUnits="userSpaceOnUse"
       gradientTransform="matrix(1.4615386,0,0,1.4444442,-21.000008,956.64004)" />
    <linearGradient
       inkscape:collect="always"
       id="linearGradient944">
      <stop
         style="stop-color:#a56de2;stop-opacity:1"
         offset="0"
         id="stop940" />
      <stop
         style="stop-color:#7239b3;stop-opacity:1"
         offset="1"
         id="stop942" />
    </linearGradient>
    <linearGradient
       id="linearGradient3026"
       y2="40.495998"
       gradientUnits="userSpaceOnUse"
       x2="71.204002"
       gradientTransform="matrix(1.617,0,0,1.617,-141.207,-20.06)"
       y1="15.369"
       x1="71.204002">
      <stop
         id="stop4808-4"
         stop-color="#fff"
         offset="0" />
      <stop
         id="stop4810-0"
         stop-color="#fff"
         stop-opacity=".23529"
         offset=".42448" />
      <stop
         id="stop4812-8"
         stop-color="#fff"
         stop-opacity=".15686"
         offset=".82090" />
      <stop
         id="stop4814-0"
         stop-color="#fff"
         stop-opacity=".39216"
         offset="1" />
    </linearGradient>
    <linearGradient
       inkscape:collect="always"
       xlink:href="#linearGradient944"
       id="linearGradient1755"
       x1="35"
       y1="13"
       x2="44"
       y2="13"
       gradientUnits="userSpaceOnUse"
       gradientTransform="matrix(1.4444444,0,0,1.4444446,961.30678,-70.777782)" />
    <linearGradient
       inkscape:collect="always"
       xlink:href="#linearGradient950"
       id="linearGradient1511"
       x1="19.5"
       y1="12"
       x2="30.5"
       y2="12"
       gradientUnits="userSpaceOnUse"
       gradientTransform="matrix(1.4545454,0,0,1.4545454,980.49869,-50.95456)" />
    <linearGradient
       inkscape:collect="always"
       id="linearGradient950">
      <stop
         style="stop-color:#cd9ef7;stop-opacity:1"
         offset="0"
         id="stop946" />
      <stop
         style="stop-color:#a56de2;stop-opacity:1"
         offset="1"
         id="stop948" />
    </linearGradient>
    <linearGradient
       inkscape:collect="always"
       xlink:href="#linearGradient950"
       id="linearGradient1525"
       x1="25"
       y1="20.549143"
       x2="25"
       y2="44.505257"
       gradientUnits="userSpaceOnUse"
       gradientTransform="matrix(1.428572,0,0,1.4166663,-2.2142949,999.82062)" />
    <linearGradient
       inkscape:collect="always"
       xlink:href="#linearGradient3026"
       id="linearGradient1556"
       x1="15.000001"
       y1="2.3798671"
       x2="24.999998"
       y2="2.3798671"
       gradientUnits="userSpaceOnUse"
       gradientTransform="matrix(1.5555557,0,0,1.5555556,985.75115,-37.202033)" />
    <linearGradient
       inkscape:collect="always"
       xlink:href="#linearGradient944"
       id="linearGradient1179"
       x1="10"
       y1="-14.996301"
       x2="10"
       y2="5.0505505"
       gradientUnits="userSpaceOnUse"
       gradientTransform="matrix(1.5,0,0,1.5,2.4999956,1044.3623)" />
    <linearGradient
       inkscape:collect="always"
       xlink:href="#linearGradient3026"
       id="linearGradient1556-2"
       x1="15.000001"
       y1="2.3798671"
       x2="24.999998"
       y2="2.3798671"
       gradientUnits="userSpaceOnUse"
       gradientTransform="matrix(1.222222,0,0,1.2222222,993.91778,-54.908732)" />
    <linearGradient
       inkscape:collect="always"
       xlink:href="#linearGradient3026"
       id="linearGradient1089"
       x1="3.0000005"
       y1="1038.8622"
       x2="32"
       y2="1038.8622"
       gradientUnits="userSpaceOnUse"
       gradientTransform="rotate(90,18.499991,1037.8622)" />
    <linearGradient
       inkscape:collect="always"
       xlink:href="#linearGradient3026"
       id="linearGradient1144"
       gradientUnits="userSpaceOnUse"
       gradientTransform="translate(-33.500222,-4.1551446)"
       x1="66.866898"
       y1="1033.5555"
       x2="66.861259"
       y2="1066.5002" />
    <linearGradient
       inkscape:collect="always"
       xlink:href="#linearGradient3026"
       id="linearGradient1208"
       x1="85.371201"
       y1="35.348083"
       x2="85.375359"
       y2="60.319126"
       gradientUnits="userSpaceOnUse"
       gradientTransform="translate(-33.357422,994.0302)" />
    <radialGradient
       gradientTransform="matrix(3.7102089,0,0,0.95427648,-99.392668,0.92810054)"
       gradientUnits="userSpaceOnUse"
       xlink:href="#linearGradient3820-7-2"
       id="radialGradient4284-8"
       fy="44.129044"
       fx="23.668133"
       r="6.0999999"
       cy="44.129044"
       cx="23.668133" />
    <radialGradient
       gradientTransform="matrix(1.3962496,0,0,0.46382834,-44.625568,23.672677)"
       gradientUnits="userSpaceOnUse"
       xlink:href="#linearGradient3820-7-2"
       id="radialGradient4284"
       fy="44.129044"
       fx="23.668133"
       r="6.0999999"
       cy="44.129044"
       cx="23.668133" />
  </defs>
  <sodipodi:namedview
     id="base"
     pagecolor="#ffffff"
     bordercolor="#666666"
     borderopacity="1.0"
     inkscape:pageopacity="0.0"
     inkscape:pageshadow="2"
     inkscape:zoom="11.645165"
     inkscape:cx="31.696395"
     inkscape:cy="54.119246"
     inkscape:document-units="px"
     inkscape:current-layer="layer1"
     showgrid="true"
     units="px"
     inkscape:window-width="1366"
     inkscape:window-height="705"
     inkscape:window-x="0"
     inkscape:window-y="30"
     inkscape:window-maximized="1"
     inkscape:document-rotation="0"
     inkscape:snap-global="true"
     inkscape:snap-bbox="true"
     inkscape:snap-nodes="true"
     inkscape:bbox-nodes="true"
     inkscape:object-paths="true"
     inkscape:snap-intersection-paths="true"
     inkscape:snap-smooth-nodes="true"
     inkscape:snap-midpoints="true">
    <inkscape:grid
       type="xygrid"
       id="grid4184" />
  </sodipodi:namedview>
  <metadata
     id="metadata7">
    <rdf:RDF>
      <cc:Work
         rdf:about="">
        <dc:format>image/svg+xml</dc:format>
        <dc:type
           rdf:resource="http://purl.org/dc/dcmitype/StillImage" />
        <dc:title />
      </cc:Work>
    </rdf:RDF>
  </metadata>
  <g
     inkscape:label="Livello 1"
     inkscape:groupmode="layer"
     id="layer1"
     transform="translate(0,-1004.3622)">
    <g
       id="g4270"
       transform="matrix(1.3255406,0,0,1.2884192,49.058573,1005.4116)"
       style="stroke-width:1.0143">
      <path
         style="color:#000000;display:inline;overflow:visible;visibility:visible;opacity:0.15;fill:url(#radialGradient4284-8);fill-opacity:1;fill-rule:nonzero;stroke:none;stroke-width:1.0143;marker:none;enable-background:accumulate"
         id="path3964-9"
         d="m 11.053328,43.039409 a 22.632276,5.8210869 0 0 1 -45.26455,0 22.632276,5.8210869 0 1 1 45.26455,0 z"
         inkscape:connector-curvature="0" />
      <path
         style="color:#000000;display:inline;overflow:visible;visibility:visible;opacity:0.3;fill:url(#radialGradient4284);fill-opacity:1;fill-rule:nonzero;stroke:none;stroke-width:1.0143;marker:none;enable-background:accumulate"
         id="path3964"
         d="m -3.0618251,44.140976 a 8.517123,2.8293529 0 0 1 -17.0342439,0 8.517123,2.8293529 0 1 1 17.0342439,0 z"
         inkscape:connector-curvature="0" />
    </g>
    <path
       id="rect1616-0"
       style="fill:url(#linearGradient1676);fill-opacity:1;stroke:none;stroke-width:2.00001;stroke-linecap:square;stroke-miterlimit:4;stroke-dasharray:none;stroke-opacity:1"
       d="m 45.499999,1028.8622 c -1.619385,0 -2.923077,1.2884 -2.923077,2.8889 v 13.7223 a 9.500001,9.388887 0 0 0 9.5,9.3888 9.500001,9.388887 0 0 0 9.500001,-9.3888 v -13.7223 c 0,-1.6005 -1.303691,-2.8889 -2.923077,-2.8889 z" />
    <path
       id="rect1616-0-3"
       style="opacity:0.3;fill:none;fill-opacity:1;stroke:url(#linearGradient1208);stroke-width:1;stroke-linecap:square;stroke-miterlimit:4;stroke-dasharray:none;stroke-opacity:1"
       d="m 45.423828,1029.8622 c -1.088978,0 -1.923828,0.8313 -1.923828,1.8887 v 13.7227 c 4.2e-5,4.6385 3.787444,8.3886 8.5,8.3886 4.712555,0 8.499955,-3.7501 8.5,-8.3886 v -13.7227 c 0,-1.0574 -0.834849,-1.8887 -1.923829,-1.8887 z" />
    <circle
       fill="#5059c9"
       cx="1018.3622"
       cy="-52"
       id="circle6-0-7"
       style="fill:url(#linearGradient1755);fill-opacity:1;stroke:none;stroke-width:54.3616"
       transform="rotate(90)"
       r="6.5" />
    <ellipse
       fill="#5059c9"
       cx="52"
       cy="1018.3622"
       id="circle1693"
       style="fill:none;stroke-width:54.3616"
       rx="6.3947377"
       ry="6.3947444" />
    <ellipse
       fill="#5059c9"
       cx="52"
       cy="1018.3622"
       id="circle1695"
       style="opacity:0.5;fill:none;stroke:#452981;stroke-width:0.999999;stroke-miterlimit:4;stroke-dasharray:none;stroke-opacity:1"
       rx="6.5"
       ry="6.5000005" />
    <path
       id="path1705"
       style="opacity:0.5;fill:none;fill-opacity:1;stroke:#452981;stroke-width:0.999999;stroke-linecap:square;stroke-miterlimit:4;stroke-dasharray:none;stroke-opacity:1"
       d="m 45.423076,1028.8622 c -1.619385,0 -2.923077,1.2884 -2.923077,2.8889 v 13.7223 a 9.500001,9.388887 0 0 0 9.5,9.3888 9.500001,9.388887 0 0 0 9.500001,-9.3888 v -13.7223 c 0,-1.6005 -1.303691,-2.8889 -2.923077,-2.8889 z" />
    <path
       id="path1372-4"
       style="fill:url(#linearGradient1525);fill-opacity:1;stroke:none;stroke-width:1;stroke-linecap:square;stroke-miterlimit:4;stroke-dasharray:none;stroke-opacity:1"
       d="m 21.357144,1028.8622 c -1.582857,0 -2.857144,1.2636 -2.857144,2.8333 v 17 a 15.016767,14.874996 0 0 0 0.02233,0.3846 15.016767,14.874996 0 0 0 0.03627,0.3846 15.016767,14.874996 0 0 0 0.04186,0.3846 15.016767,14.874996 0 0 0 0.05302,0.3819 15.016767,14.874996 0 0 0 0.06417,0.3791 15.016767,14.874996 0 0 0 0.07533,0.3789 15.016767,14.874996 0 0 0 0.0837,0.3791 15.016767,14.874996 0 0 0 0.09207,0.3736 15.016767,14.874996 0 0 0 0.103243,0.3736 15.016767,14.874996 0 0 0 0.1144,0.3678 15.016767,14.874996 0 0 0 0.122772,0.3653 15.016767,14.874996 0 0 0 0.131143,0.3654 15.016767,14.874996 0 0 0 0.142299,0.3597 15.016767,14.874996 0 0 0 0.150671,0.3541 15.016767,14.874996 0 0 0 0.159039,0.3514 15.016767,14.874996 0 0 0 0.170202,0.3486 15.016767,14.874996 0 0 0 0.178572,0.3431 15.016767,14.874996 0 0 0 0.186941,0.3376 15.016767,14.874996 0 0 0 0.195313,0.3347 15.016767,14.874996 0 0 0 0.206473,0.3266 15.016767,14.874996 0 0 0 0.212055,0.3237 15.016767,14.874996 0 0 0 0.223214,0.3182 15.016767,14.874996 0 0 0 0.228794,0.3098 15.016767,14.874996 0 0 0 0.237166,0.3072 15.016767,14.874996 0 0 0 0.245536,0.2989 15.016767,14.874996 0 0 0 0.253906,0.2932 15.016767,14.874996 0 0 0 0.262277,0.285 15.016767,14.874996 0 0 0 0.267857,0.2795 15.016767,14.874996 0 0 0 0.231573,0.2268 15.016767,14.874996 0 0 0 10.507817,4.2501 15.016767,14.874996 0 0 0 10.510605,-4.2501 15.016767,14.874996 0 0 0 0.03343,-0.032 15.016767,14.874996 0 0 0 0.273443,-0.274 15.016767,14.874996 0 0 0 0.265058,-0.2822 15.016767,14.874996 0 0 0 0.259485,-0.2877 15.016767,14.874996 0 0 0 0.251114,-0.2934 15.016767,14.874996 0 0 0 0.245544,-0.3016 15.016767,14.874996 0 0 0 0.234371,-0.3071 15.016767,14.874996 0 0 0 0.2288,-0.3127 15.016767,14.874996 0 0 0 0.217628,-0.3209 15.016767,14.874996 0 0 0 0.212058,-0.3237 15.016767,14.874996 0 0 0 0.200886,-0.3294 15.016767,14.874996 0 0 0 0.195314,-0.3347 15.016767,14.874996 0 0 0 0.184158,-0.3403 15.016767,14.874996 0 0 0 0.175785,-0.3431 15.016767,14.874996 0 0 0 0.1674,-0.3486 15.016767,14.874996 0 0 0 0.156258,-0.3542 15.016767,14.874996 0 0 0 0.147871,-0.3571 15.016767,14.874996 0 0 0 0.139572,-0.3596 15.016767,14.874996 0 0 0 0.128285,-0.3652 15.016767,14.874996 0 0 0 0.120001,-0.3652 15.016767,14.874996 0 0 0 0.111571,-0.3708 15.016767,14.874996 0 0 0 0.100428,-0.3736 15.016767,14.874996 0 0 0 0.08929,-0.3762 15.016767,14.874996 0 0 0 0.08086,-0.3764 15.016767,14.874996 0 0 0 0.07257,-0.379 15.016767,14.874996 0 0 0 0.05857,-0.3818 15.016767,14.874996 0 0 0 0.053,-0.382 15.016767,14.874996 0 0 0 0.03914,-0.3846 15.016767,14.874996 0 0 0 0.03072,-0.3845 15.016767,14.874996 0 0 0 0.0168,-0.2739 v -17 c 0,-1.5697 -1.274287,-2.8333 -2.857144,-2.8333 z" />
    <path
       id="path1372-2-4"
       style="opacity:0.5;fill:none;fill-opacity:1;stroke:#452981;stroke-width:1;stroke-linecap:square;stroke-miterlimit:4;stroke-dasharray:none;stroke-opacity:1"
       d="m 21.357144,1028.8622 c -1.582857,0 -2.857144,1.2636 -2.857144,2.8333 v 17 a 15.016767,14.874996 0 0 0 0.02233,0.3846 15.016767,14.874996 0 0 0 0.03627,0.3846 15.016767,14.874996 0 0 0 0.04186,0.3846 15.016767,14.874996 0 0 0 0.05302,0.3819 15.016767,14.874996 0 0 0 0.06417,0.3791 15.016767,14.874996 0 0 0 0.07533,0.3789 15.016767,14.874996 0 0 0 0.0837,0.3791 15.016767,14.874996 0 0 0 0.09207,0.3736 15.016767,14.874996 0 0 0 0.103243,0.3736 15.016767,14.874996 0 0 0 0.1144,0.3678 15.016767,14.874996 0 0 0 0.122772,0.3653 15.016767,14.874996 0 0 0 0.131143,0.3654 15.016767,14.874996 0 0 0 0.142299,0.3597 15.016767,14.874996 0 0 0 0.150671,0.3541 15.016767,14.874996 0 0 0 0.159039,0.3514 15.016767,14.874996 0 0 0 0.170202,0.3486 15.016767,14.874996 0 0 0 0.178572,0.3431 15.016767,14.874996 0 0 0 0.186941,0.3376 15.016767,14.874996 0 0 0 0.195313,0.3347 15.016767,14.874996 0 0 0 0.206473,0.3266 15.016767,14.874996 0 0 0 0.212055,0.3237 15.016767,14.874996 0 0 0 0.223214,0.3182 15.016767,14.874996 0 0 0 0.228794,0.3098 15.016767,14.874996 0 0 0 0.237166,0.3072 15.016767,14.874996 0 0 0 0.245536,0.2989 15.016767,14.874996 0 0 0 0.253906,0.2932 15.016767,14.874996 0 0 0 0.262277,0.285 15.016767,14.874996 0 0 0 0.267857,0.2795 15.016767,14.874996 0 0 0 0.231573,0.2268 15.016767,14.874996 0 0 0 10.507817,4.2501 15.016767,14.874996 0 0 0 10.510605,-4.2501 15.016767,14.874996 0 0 0 0.03343,-0.032 15.016767,14.874996 0 0 0 0.273443,-0.274 15.016767,14.874996 0 0 0 0.265058,-0.2822 15.016767,14.874996 0 0 0 0.259485,-0.2877 15.016767,14.874996 0 0 0 0.251114,-0.2934 15.016767,14.874996 0 0 0 0.245544,-0.3016 15.016767,14.874996 0 0 0 0.234371,-0.3071 15.016767,14.874996 0 0 0 0.2288,-0.3127 15.016767,14.874996 0 0 0 0.217628,-0.3209 15.016767,14.874996 0 0 0 0.212058,-0.3237 15.016767,14.874996 0 0 0 0.200886,-0.3294 15.016767,14.874996 0 0 0 0.195314,-0.3347 15.016767,14.874996 0 0 0 0.184158,-0.3403 15.016767,14.874996 0 0 0 0.175785,-0.3431 15.016767,14.874996 0 0 0 0.1674,-0.3486 15.016767,14.874996 0 0 0 0.156258,-0.3542 15.016767,14.874996 0 0 0 0.147871,-0.3571 15.016767,14.874996 0 0 0 0.139572,-0.3596 15.016767,14.874996 0 0 0 0.128285,-0.3652 15.016767,14.874996 0 0 0 0.120001,-0.3652 15.016767,14.874996 0 0 0 0.111571,-0.3708 15.016767,14.874996 0 0 0 0.100428,-0.3736 15.016767,14.874996 0 0 0 0.08929,-0.3762 15.016767,14.874996 0 0 0 0.08086,-0.3764 15.016767,14.874996 0 0 0 0.07257,-0.379 15.016767,14.874996 0 0 0 0.05857,-0.3818 15.016767,14.874996 0 0 0 0.053,-0.382 15.016767,14.874996 0 0 0 0.03914,-0.3846 15.016767,14.874996 0 0 0 0.03072,-0.3845 15.016767,14.874996 0 0 0 0.0168,-0.2739 v -17 c 0,-1.5697 -1.274287,-2.8333 -2.857144,-2.8333 z" />
    <circle
       style="fill:url(#linearGradient1511);fill-opacity:1;stroke:none;stroke-width:0.999999;stroke-linecap:square;stroke-miterlimit:4;stroke-dasharray:none;stroke-opacity:1"
       id="path1331-5"
       cx="1016.8622"
       cy="-33.500015"
       transform="rotate(90)"
       r="8" />
    <circle
       style="opacity:0.5;fill:none;fill-opacity:1;stroke:#452981;stroke-width:0.999999;stroke-linecap:square;stroke-miterlimit:4;stroke-dasharray:none;stroke-opacity:1"
       id="path1331-5-9"
       cx="33.500015"
       cy="1016.8622"
       r="8.000001" />
    <ellipse
       style="opacity:0.3;fill:none;fill-opacity:1;stroke:url(#linearGradient1556);stroke-width:0.999999;stroke-linecap:square;stroke-miterlimit:4;stroke-dasharray:none;stroke-opacity:1"
       id="path1331-5-9-8"
       cx="1016.8622"
       cy="-33.500015"
       transform="rotate(90)"
       rx="7.000001"
       ry="7.0000005" />
    <ellipse
       style="opacity:0.3;fill:none;fill-opacity:1;stroke:url(#linearGradient1556-2);stroke-width:1;stroke-linecap:square;stroke-miterlimit:4;stroke-dasharray:none;stroke-opacity:1"
       id="path1331-5-9-8-9"
       cx="1018.3622"
       cy="-52"
       transform="rotate(90)"
       rx="5.4999995"
       ry="5.5" />
    <path
       id="path1372-4-1"
       style="opacity:0.3;fill:none;fill-opacity:1;stroke:url(#linearGradient1144);stroke-width:1;stroke-linecap:square;stroke-miterlimit:4;stroke-dasharray:none;stroke-opacity:1"
       d="m 21.3572,1029.8789 c -1.050655,0 -1.857422,0.8055 -1.857422,1.834 v 16.9882 0.012 c 0.0049,0.1014 0.01239,0.2033 0.01953,0.3046 v 0.01 c 0.0095,0.1164 0.02072,0.2316 0.0332,0.3477 v 0.01 l 0.002,0.01 c 0.01144,0.1197 0.02449,0.2401 0.03906,0.3594 h -0.002 c 0.01492,0.1189 0.03276,0.2369 0.05078,0.3554 h -0.002 c 0.0183,0.1174 0.0392,0.2327 0.06055,0.3496 v 0 c 0.02176,0.1174 0.0455,0.2348 0.07031,0.3516 v 0 0 c 0.02446,0.1181 0.05057,0.2361 0.07813,0.3535 h 0.002 c 0.02695,0.1158 0.05404,0.2306 0.08398,0.3457 v 0 c 0.02989,0.1139 0.06289,0.2267 0.0957,0.3398 l 0.002,0.01 c 0.03352,0.1128 0.06711,0.226 0.103516,0.3379 h 0.002 v 0 c 0.03667,0.114 0.07364,0.2267 0.113281,0.3398 h 0.002 v 0 c 0.03859,0.1122 0.07961,0.2229 0.121094,0.334 l 0.002,0.01 c 0.04208,0.1104 0.08595,0.2207 0.130859,0.3301 0.04539,0.1106 0.09236,0.2207 0.140626,0.3301 v 0 h 0.002 c 0.04742,0.1086 0.09628,0.2169 0.146484,0.3242 h 0.002 c 0.05089,0.1077 0.102577,0.216 0.15625,0.3223 0.05411,0.1074 0.109111,0.2144 0.166016,0.3203 h 0.002 c 0.05674,0.1057 0.114346,0.2102 0.173829,0.3144 v 0 h 0.002 c 0.05748,0.1015 0.11574,0.2027 0.175781,0.3027 7.57e-4,0 0.0012,0 0.002,0 l 0.0039,0.01 c 0.06096,0.099 0.124048,0.1974 0.1875,0.2949 h 0.002 l 0.0039,0.01 c 0.06363,0.1 0.127163,0.1986 0.193359,0.2969 h 0.0039 c 0.06711,0.098 0.135435,0.1965 0.205078,0.293 0.06988,0.097 0.14245,0.1937 0.214844,0.2891 v 0 h 0.002 c 0.07163,0.095 0.144668,0.1897 0.21875,0.2832 h 0.002 c 0.07428,0.093 0.14991,0.1845 0.226562,0.2754 0.07658,0.091 0.155475,0.1807 0.234375,0.2695 h 0.0039 c 0.07922,0.088 0.160716,0.1775 0.242187,0.2637 h 0.002 0.002 c 0.08058,0.086 0.16137,0.1697 0.24414,0.2539 0.07125,0.071 0.142045,0.1432 0.214844,0.2129 h 0.002 0.0039 c 2.618976,2.5419 6.140327,3.9664 9.810548,3.9668 3.67112,3e-4 7.194829,-1.4243 9.81445,-3.9668 h 0.002 0.0039 c 0.0084,-0.01 0.01702,-0.015 0.02539,-0.023 0.0855,-0.083 0.16865,-0.1682 0.25196,-0.2539 0.08358,-0.087 0.16676,-0.1729 0.24804,-0.2617 h 0.002 0.0019 c 0.08187,-0.088 0.16071,-0.1771 0.24023,-0.2676 0.07929,-0.09 0.15748,-0.1811 0.23438,-0.2734 h 0.002 v 0 c 0.07641,-0.091 0.1506,-0.184 0.22461,-0.2773 0.07412,-0.095 0.14713,-0.1888 0.21875,-0.2852 h 0.0019 0.002 c 0.07241,-0.096 0.14303,-0.1929 0.21289,-0.291 0.06726,-0.097 0.13446,-0.1929 0.19922,-0.2911 h 0.0019 0.0019 c 0.06594,-0.098 0.13191,-0.1973 0.19532,-0.2968 0.06378,-0.1016 0.12639,-0.2054 0.1875,-0.3086 h 0.0019 0.002 c 0.06209,-0.1032 0.12229,-0.2057 0.18164,-0.3105 h -0.0039 c 0.05863,-0.105 0.11601,-0.2099 0.17187,-0.3164 h 0.0019 v 0 c 0.05604,-0.106 0.11082,-0.213 0.16407,-0.3203 0.05254,-0.1059 0.1045,-0.2111 0.15429,-0.3183 0.05001,-0.1094 0.09742,-0.2193 0.14453,-0.3301 h 0.002 v 0 c 0.04741,-0.1104 0.09417,-0.2204 0.13867,-0.332 v 0 0 c 0.04407,-0.1093 0.08766,-0.2197 0.12891,-0.3301 0.04135,-0.113 0.08076,-0.2259 0.11914,-0.3399 v 0 h 0.0019 c 0.03877,-0.113 0.07552,-0.226 0.11133,-0.3399 v 0 c 0.03575,-0.1134 0.07072,-0.2275 0.10351,-0.3418 0.03256,-0.1151 0.06421,-0.2298 0.09375,-0.3457 0.02929,-0.1165 0.05582,-0.2323 0.08204,-0.3496 h 0.0019 v 0 c 0.02666,-0.1167 0.05061,-0.2323 0.07422,-0.3496 h 0.0019 v 0 c 0.0241,-0.1174 0.04539,-0.2354 0.06641,-0.3535 v 0.01 c 0.01976,-0.1184 0.03803,-0.2365 0.05468,-0.3554 v -0.01 -0.01 c 0.01753,-0.1152 0.03425,-0.2302 0.04883,-0.3458 0.01372,-0.1193 0.02653,-0.2378 0.03711,-0.3574 v 0 0 c 0.0111,-0.1193 0.02132,-0.2379 0.0293,-0.3575 v 0 0 c 0.0053,-0.075 0.0096,-0.1499 0.01367,-0.2246 v -17.0059 c 0,-1.0285 -0.80676,-1.834 -1.85742,-1.834 z" />
    <rect
       style="fill:url(#linearGradient1179);fill-opacity:1;stroke:none;stroke-width:0.99999;stroke-linecap:square;stroke-miterlimit:4;stroke-dasharray:none;stroke-opacity:1"
       id="rect1139"
       width="30"
       height="30"
       x="2.5000005"
       y="1021.8622"
       rx="2"
       ry="1.9999999" />
    <rect
       style="opacity:0.5;fill:none;fill-opacity:1;stroke:#452981;stroke-width:0.999991;stroke-linecap:square;stroke-miterlimit:4;stroke-dasharray:none;stroke-opacity:1"
       id="rect1139-6"
       width="30.000002"
       height="30.000006"
       x="2.4999995"
       y="1021.8622"
       rx="2"
       ry="1.9999998" />
    <path
       id="path37-3"
       style="opacity:0.3;fill:#452981;fill-opacity:1;stroke-width:54.3616"
       d="m 9,1028.3622 v 5 h 6 v 14 h 4.857422 l 0.132812,-14 H 26 v -1 -4 z" />
    <path
       fill="#ffffff"
       d="M 24.999999,1032.3622 H 19 l -0.13253,14 H 16 v -14 h -6 v -3 h 15 z"
       id="path1042"
       style="opacity:0.5;fill:#452981;fill-opacity:1;stroke-width:54.3616"
       sodipodi:nodetypes="ccccccccc" />
    <path
       fill="#ffffff"
       d="m 25,1031.3622 h -6 l -0.13253,14 H 16 v -14 h -6 v -3 h 15 z"
       id="path37"
       style="stroke-width:54.3616"
       sodipodi:nodetypes="ccccccccc" />
    <path
       id="rect1139-3"
       style="opacity:0.3;fill:none;fill-opacity:1;stroke:url(#linearGradient1089);stroke-width:1;stroke-linecap:square;stroke-miterlimit:4;stroke-dasharray:none;stroke-opacity:1"
       d="m 31.5,1023.8622 c 0,-0.5713 -0.4287,-1 -1,-1 H 4.5000003 c -0.5713,0 -1,0.4287 -1,1 v 26 c 0,0.5713 0.4287,1 1,1 H 30.5 c 0.5713,0 1,-0.4287 1,-1 z" />
  </g>
</svg>
