<?xml version="1.0" encoding="UTF-8" standalone="no"?>
<svg
   xmlns:dc="http://purl.org/dc/elements/1.1/"
   xmlns:cc="http://creativecommons.org/ns#"
   xmlns:rdf="http://www.w3.org/1999/02/22-rdf-syntax-ns#"
   xmlns:svg="http://www.w3.org/2000/svg"
   xmlns="http://www.w3.org/2000/svg"
   xmlns:xlink="http://www.w3.org/1999/xlink"
   xmlns:sodipodi="http://sodipodi.sourceforge.net/DTD/sodipodi-0.dtd"
   xmlns:inkscape="http://www.inkscape.org/namespaces/inkscape"
   id="svg4061"
   height="32"
   width="32"
   version="1.1"
   inkscape:version="1.0.1 (1.0.1+r73)"
   sodipodi:docname="ca.desrt.dconf-editor_32.svg">
  <sodipodi:namedview
     pagecolor="#ffffff"
     bordercolor="#666666"
     borderopacity="1"
     objecttolerance="10"
     gridtolerance="10"
     guidetolerance="10"
     inkscape:pageopacity="0"
     inkscape:pageshadow="2"
     inkscape:window-width="1366"
     inkscape:window-height="705"
     id="namedview40"
     showgrid="true"
     inkscape:zoom="13.292889"
     inkscape:cx="9.874739"
     inkscape:cy="11.19862"
     inkscape:window-x="0"
     inkscape:window-y="30"
     inkscape:window-maximized="1"
     inkscape:current-layer="svg4061"
     inkscape:document-rotation="0"
     inkscape:snap-intersection-paths="true"
     inkscape:snap-smooth-nodes="true"
     inkscape:object-paths="true"
     inkscape:snap-bbox="false"
     inkscape:snap-nodes="true"
     inkscape:bbox-nodes="true"
     inkscape:bbox-paths="true">
    <inkscape:grid
       type="xygrid"
       id="grid906" />
  </sodipodi:namedview>
  <defs
     id="defs4063">
    <linearGradient
       id="linearGradient3026"
       y2="40.496"
       gradientUnits="userSpaceOnUse"
       x2="71.204"
       gradientTransform="matrix(1.1437317,0,0,1.1437329,-65.829761,-10.982002)"
       y1="15.369"
       x1="71.204">
      <stop
         id="stop4808-4"
         stop-color="#fff"
         offset="0" />
      <stop
         id="stop4810-0"
         stop-color="#fff"
         stop-opacity=".23529"
         offset=".42448" />
      <stop
         id="stop4812-8"
         stop-color="#fff"
         stop-opacity=".15686"
         offset=".82090" />
      <stop
         id="stop4814-0"
         stop-color="#fff"
         stop-opacity=".39216"
         offset="1" />
    </linearGradient>
    <radialGradient
       id="radialGradient3029"
       fx="4.459"
       fy="8.5089"
       gradientUnits="userSpaceOnUse"
       cy="8.6258"
       cx="15.026"
       gradientTransform="matrix(-2.4737e-8,1.3336477,-1.256478,-3.8706551e-8,26.70878,-6.6294448)"
       r="20">
      <stop
         id="stop4170"
         stop-color="#c24251"
         offset="0" />
      <stop
         id="stop4172"
         stop-color="#c24251"
         offset=".26238" />
      <stop
         id="stop4174"
         stop-color="#a63643"
         offset=".66094" />
      <stop
         id="stop4176"
         stop-color="#a63643"
         offset="1" />
    </radialGradient>
    <radialGradient
       id="radialGradient3032"
       gradientUnits="userSpaceOnUse"
       cy="3.99"
       cx="23.896"
       gradientTransform="matrix(0,2.0430874,-2.6968585,0,26.760415,-47.623321)"
       r="20.397">
      <stop
         id="stop3244-9-33-7-0-9"
         stop-color="#fff"
         offset="0" />
      <stop
         id="stop3246-3-5-0-8-5"
         stop-color="#ddd"
         offset=".26238" />
      <stop
         id="stop3248-1-7-8-8-1"
         stop-color="#abacae"
         offset=".66094" />
      <stop
         id="stop3250-9-3-0-5-1"
         stop-color="#89898b"
         offset="1" />
    </radialGradient>
    <radialGradient
       id="radialGradient3035"
       gradientUnits="userSpaceOnUse"
       cy="186.17"
       cx="99.157"
       gradientTransform="matrix(0.27083,0,0,0.087623,-2.8551,25.187)"
       r="62.769">
      <stop
         id="stop3822-2-6-3"
         stop-color="#3d3d3d"
         offset="0" />
      <stop
         id="stop3864-8-7-7"
         stop-color="#686868"
         stop-opacity=".49804"
         offset=".5" />
      <stop
         id="stop3824-1-2-5"
         stop-color="#686868"
         stop-opacity="0"
         offset="1" />
    </radialGradient>
    <linearGradient
       id="linearGradient4433"
       y2="25.611"
       gradientUnits="userSpaceOnUse"
       x2="23.078"
       gradientTransform="matrix(1,0,0,1.0521,0,-0.90547)"
       y1="13.035"
       x1="22.759">
      <stop
         id="stop6305-1-0-2"
         stop-color="#fff"
         offset="0" />
      <stop
         id="stop6307-5-0-6"
         stop-color="#fff"
         stop-opacity="0"
         offset="1" />
    </linearGradient>
    <radialGradient
       gradientTransform="matrix(0.27083381,0,0,0.08762273,-2.8550719,25.186634)"
       gradientUnits="userSpaceOnUse"
       xlink:href="#linearGradient3820-7-2-1"
       id="radialGradient3025"
       fy="186.17059"
       fx="99.157013"
       r="62.769119"
       cy="186.17059"
       cx="99.157013" />
    <linearGradient
       id="linearGradient3820-7-2-1">
      <stop
         offset="0"
         style="stop-color:#3d3d3d;stop-opacity:1"
         id="stop3822-2-6-3-3" />
      <stop
         offset="0.5"
         style="stop-color:#686868;stop-opacity:0.49803922"
         id="stop3864-8-7-7-6" />
      <stop
         offset="1"
         style="stop-color:#686868;stop-opacity:0"
         id="stop3824-1-2-5-7" />
    </linearGradient>
    <linearGradient
       gradientTransform="matrix(1.1022033,0,0,1.1022038,-63.55275,-14.715001)"
       gradientUnits="userSpaceOnUse"
       xlink:href="#linearGradient4806-9"
       id="linearGradient3024"
       y2="40.495617"
       x2="71.204407"
       y1="15.369057"
       x1="71.204407" />
    <linearGradient
       id="linearGradient4806-9">
      <stop
         offset="0"
         style="stop-color:#ffffff;stop-opacity:1"
         id="stop4808-49" />
      <stop
         offset="0.42447853"
         style="stop-color:#ffffff;stop-opacity:0.23529412"
         id="stop4810-05" />
      <stop
         offset="0.82089913"
         style="stop-color:#ffffff;stop-opacity:0.15686275"
         id="stop4812-6" />
      <stop
         offset="1"
         style="stop-color:#ffffff;stop-opacity:0.39215687"
         id="stop4814-7" />
    </linearGradient>
    <radialGradient
       gradientTransform="matrix(0.17524541,0,0,0.05575992,-1.3768109,18.118812)"
       gradientUnits="userSpaceOnUse"
       xlink:href="#linearGradient3820-7-2-1"
       id="radialGradient3034"
       fy="186.17059"
       fx="99.157013"
       r="62.769119"
       cy="186.17059"
       cx="99.157013" />
    <linearGradient
       inkscape:collect="always"
       xlink:href="#radialGradient3029-3"
       id="linearGradient863"
       x1="3.5"
       y1="24"
       x2="44.5"
       y2="24"
       gradientUnits="userSpaceOnUse"
       gradientTransform="matrix(0,0.70731708,-0.70731708,0,32.97561,-0.97560979)" />
    <radialGradient
       id="radialGradient3029-3"
       fx="4.4590001"
       fy="8.5088997"
       gradientUnits="userSpaceOnUse"
       cy="8.6258001"
       cx="15.026"
       gradientTransform="matrix(-3.4973e-8,1.8855,-1.7764,-5.4723e-8,39.14,-7.9932)"
       r="20">
      <stop
         id="stop4170-6"
         stop-color="#c24251"
         offset="0"
         style="stop-color:#c6262e;stop-opacity:1" />
      <stop
         id="stop4176-7"
         stop-color="#a63643"
         offset="1"
         style="stop-color:#a10705;stop-opacity:1" />
    </radialGradient>
  </defs>
  <metadata
     id="metadata4066">
    <rdf:RDF>
      <cc:Work
         rdf:about="">
        <dc:format>image/svg+xml</dc:format>
        <dc:type
           rdf:resource="http://purl.org/dc/dcmitype/StillImage" />
        <dc:title />
      </cc:Work>
    </rdf:RDF>
  </metadata>
  <path
     inkscape:connector-curvature="0"
     style="fill:url(#radialGradient3034);fill-opacity:1;stroke:none"
     id="path3818-0-2"
     d="m 27,28.499666 a 11,3.4999999 0 1 1 -21.9999999,0 11,3.4999999 0 1 1 21.9999999,0 z" />
  <path
     inkscape:connector-curvature="0"
     d="M 30.5,16 C 30.5,7.9995366 24.000463,1.5 16,1.5 7.999537,1.5 1.5,7.9995366 1.5,16 c 0,8.000464 6.499537,14.5 14.5,14.5 8.000463,0 14.5,-6.499536 14.5,-14.5 z"
     style="color:#000000;fill:url(#linearGradient863);fill-opacity:1;stroke-width:0.999998"
     id="path2555-7-65-5" />
  <path
     inkscape:connector-curvature="0"
     d="M 16,1.4999707 C 7.9995365,1.4999707 1.5,7.9993725 1.5,15.999985 1.5,24.000598 7.9993951,30.5 16,30.5 24.000605,30.5 30.5,24.000598 30.5,15.999985 30.5,7.9993725 24.000463,1.4999707 16,1.4999707 Z"
     style="color:#000000;opacity:0.5;fill:none;stroke:#7e2934;stroke-width:1;stroke-linecap:round;stroke-linejoin:round"
     id="path2555-7-1-7" />
  <g
     style="fill:none;stroke:#000000;stroke-width:1.41379;stroke-linecap:round;stroke-linejoin:round"
     transform="matrix(0.70745853,0,0,0.70760072,-50.133153,-24.31914)"
     id="g4317">
    <path
       inkscape:connector-curvature="0"
       d="m 21,12 c -4.4064,0 -8,3.5937 -8,8.0002 0,4.4065 3.5936,8.0002 8,8.0002 1.4791,0 2.862,-0.41252 4.0527,-1.1172 l 8.7461,8.967 a 0.50005,0.50006 0 0 0 0.76172,-0.05664 l 1.3438,-1.8497 a 0.50005,0.50006 0 0 0 -0.061,-0.655 l -8.68,-8.196 c 1.147,-1.385 1.836,-3.16 1.836,-5.092 0,-4.406 -3.594,-8 -8,-8 z m 0,2 c 3.3255,0 6,2.6746 6,6.0001 0,3.3256 -2.6745,6.0001 -6,6.0001 -3.3255,0 -6,-2.6746 -6,-6.0001 C 15,16.6745 17.6745,14 21,14 Z"
       style="color:#000000;text-indent:0;text-decoration:none;text-decoration-line:none;text-decoration-style:solid;text-decoration-color:#000000;text-transform:none;white-space:normal;opacity:0.15;isolation:auto;mix-blend-mode:normal;solid-color:#000000;stroke-width:2.82758;color-rendering:auto;image-rendering:auto;shape-rendering:auto"
       id="path4238" />
    <path
       inkscape:connector-curvature="0"
       d="m 21,12 c -4.4064,0 -8,3.5937 -8,8.0002 0,4.4065 3.5936,8.0002 8,8.0002 1.4791,0 2.862,-0.41252 4.0527,-1.1172 l 8.7461,8.967 a 0.50005,0.50006 0 0 0 0.76172,-0.05664 l 1.3438,-1.8497 a 0.50005,0.50006 0 0 0 -0.061,-0.655 l -8.68,-8.196 c 1.147,-1.385 1.836,-3.16 1.836,-5.092 0,-4.406 -3.594,-8 -8,-8 z m 0,2 c 3.3255,0 6,2.6746 6,6.0001 0,3.3256 -2.6745,6.0001 -6,6.0001 -3.3255,0 -6,-2.6746 -6,-6.0001 C 15,16.6745 17.6745,14 21,14 Z"
       style="color:#000000;text-indent:0;text-decoration:none;text-decoration-line:none;text-decoration-style:solid;text-decoration-color:#000000;text-transform:none;white-space:normal;opacity:0.15;isolation:auto;mix-blend-mode:normal;solid-color:#000000;stroke-width:1.41379;color-rendering:auto;image-rendering:auto;shape-rendering:auto"
       id="path4240" />
  </g>
  <path
     inkscape:connector-curvature="0"
     d="m -35.278221,-15.827755 c -3.116722,0 -5.658537,2.541888 -5.658537,5.658684 0,3.1167957 2.541815,5.6586837 5.658537,5.6586837 1.046192,0 2.024341,-0.291783 2.866544,-0.790216 l 6.186265,6.342519 a 0.3536939,0.35370133 0 0 0 0.538778,-0.04006 l 0.950493,-1.30832604 a 0.3536939,0.35370133 0 0 0 -0.04283,-0.464192 l -6.139513,-5.79646896 c 0.811293,-0.979635 1.298635,-2.235124 1.298635,-3.6016617 0,-3.116442 -2.542098,-5.658543 -5.658537,-5.658543 z m 0,1.414635 c 2.352183,0 4.243902,1.891793 4.243902,4.243978 0,2.3522557 -1.891719,4.2439777 -4.243902,4.2439777 -2.352183,0 -4.243903,-1.891792 -4.243903,-4.2439777 0,-2.352256 1.89172,-4.243978 4.243903,-4.243978 z"
     style="color:#000000;text-indent:0;text-decoration:none;text-decoration-line:none;text-decoration-style:solid;text-decoration-color:#000000;text-transform:none;white-space:normal;isolation:auto;mix-blend-mode:normal;solid-color:#000000;fill:#ffffff;fill-rule:evenodd;color-rendering:auto;image-rendering:auto;shape-rendering:auto"
     id="path11112" />
  <path
     id="path933-2"
     style="color:#000000;font-style:normal;font-variant:normal;font-weight:normal;font-stretch:normal;font-size:medium;line-height:normal;font-family:sans-serif;font-variant-ligatures:normal;font-variant-position:normal;font-variant-caps:normal;font-variant-numeric:normal;font-variant-alternates:normal;font-variant-east-asian:normal;font-feature-settings:normal;font-variation-settings:normal;text-indent:0;text-align:start;text-decoration:none;text-decoration-line:none;text-decoration-style:solid;text-decoration-color:#000000;letter-spacing:normal;word-spacing:normal;text-transform:none;writing-mode:lr-tb;direction:ltr;text-orientation:mixed;dominant-baseline:auto;baseline-shift:baseline;text-anchor:start;white-space:normal;shape-padding:0;shape-margin:0;inline-size:0;clip-rule:nonzero;display:inline;overflow:visible;visibility:visible;opacity:0.15;isolation:auto;mix-blend-mode:normal;color-interpolation:sRGB;color-interpolation-filters:linearRGB;solid-color:#000000;solid-opacity:1;vector-effect:none;fill:#000000;fill-opacity:1;fill-rule:nonzero;stroke:none;stroke-width:2;stroke-linecap:round;stroke-linejoin:round;stroke-miterlimit:4;stroke-dasharray:none;stroke-dashoffset:0;stroke-opacity:1;color-rendering:auto;image-rendering:auto;shape-rendering:auto;text-rendering:auto;enable-background:accumulate;stop-color:#000000"
     d="m 13.997429,8.0024053 c -1.794878,0 -3.589228,0.679071 -4.9492181,2.0390617 -2.719982,2.719981 -2.719982,7.180409 0,9.900391 2.2191041,2.219106 5.5523541,2.531463 8.1992181,1.126953 l 5.236329,5.236328 a 1.0001,1.0001 0 0 0 1.414062,0 l 1.414062,-1.414062 a 1.0001,1.0001 0 0 0 0,-1.414063 l -5.236328,-5.236328 c 1.403873,-2.646711 1.089919,-5.980395 -1.128906,-8.199219 -1.359991,-1.3599897 -3.15434,-2.0390617 -4.949219,-2.0390617 z m 0,3.9726557 c 0.762441,0 1.524656,0.298093 2.121094,0.894531 1.192877,1.192877 1.192877,3.051265 0,4.244141 -1.192876,1.192876 -3.049311,1.192876 -4.242187,0 -1.192877,-1.192876 -1.192877,-3.051264 0,-4.244141 0.596438,-0.596438 1.358652,-0.894531 2.121093,-0.894531 z" />
  <path
     id="path957"
     style="color:#000000;font-style:normal;font-variant:normal;font-weight:normal;font-stretch:normal;font-size:medium;line-height:normal;font-family:sans-serif;font-variant-ligatures:normal;font-variant-position:normal;font-variant-caps:normal;font-variant-numeric:normal;font-variant-alternates:normal;font-variant-east-asian:normal;font-feature-settings:normal;font-variation-settings:normal;text-indent:0;text-align:start;text-decoration:none;text-decoration-line:none;text-decoration-style:solid;text-decoration-color:#000000;letter-spacing:normal;word-spacing:normal;text-transform:none;writing-mode:lr-tb;direction:ltr;text-orientation:mixed;dominant-baseline:auto;baseline-shift:baseline;text-anchor:start;white-space:normal;shape-padding:0;shape-margin:0;inline-size:0;clip-rule:nonzero;display:inline;overflow:visible;visibility:visible;opacity:0.3;isolation:auto;mix-blend-mode:normal;color-interpolation:sRGB;color-interpolation-filters:linearRGB;solid-color:#000000;solid-opacity:1;vector-effect:none;fill:#000000;fill-opacity:1;fill-rule:nonzero;stroke:none;stroke-width:2;stroke-linecap:round;stroke-linejoin:round;stroke-miterlimit:4;stroke-dasharray:none;stroke-dashoffset:0;stroke-opacity:1;color-rendering:auto;image-rendering:auto;shape-rendering:auto;text-rendering:auto;enable-background:accumulate;stop-color:#000000"
     d="m 9.7573599,10.751078 c -2.334771,2.33477 -2.334771,6.15051 0,8.485281 2.0933071,2.093308 5.3737151,2.302525 7.7132631,0.642196 l 5.721765,5.721765 1.414214,-1.414214 -5.721765,-5.721765 c 1.660329,-2.339548 1.451112,-5.619956 -0.642196,-7.713263 -2.334771,-2.3347708 -6.150511,-2.3347708 -8.4852811,0 z m 1.4142131,1.414213 c 1.570473,-1.570473 4.086381,-1.570473 5.656854,0 1.570473,1.570473 1.570473,4.086381 0,5.656854 -1.570473,1.570473 -4.086381,1.570473 -5.656854,0 -1.5704731,-1.570473 -1.5704731,-4.086381 0,-5.656854 z" />
  <path
     id="path933"
     style="color:#000000;font-style:normal;font-variant:normal;font-weight:normal;font-stretch:normal;font-size:medium;line-height:normal;font-family:sans-serif;font-variant-ligatures:normal;font-variant-position:normal;font-variant-caps:normal;font-variant-numeric:normal;font-variant-alternates:normal;font-variant-east-asian:normal;font-feature-settings:normal;font-variation-settings:normal;text-indent:0;text-align:start;text-decoration:none;text-decoration-line:none;text-decoration-style:solid;text-decoration-color:#000000;letter-spacing:normal;word-spacing:normal;text-transform:none;writing-mode:lr-tb;direction:ltr;text-orientation:mixed;dominant-baseline:auto;baseline-shift:baseline;text-anchor:start;white-space:normal;shape-padding:0;shape-margin:0;inline-size:0;clip-rule:nonzero;display:inline;overflow:visible;visibility:visible;isolation:auto;mix-blend-mode:normal;color-interpolation:sRGB;color-interpolation-filters:linearRGB;solid-color:#000000;solid-opacity:1;vector-effect:none;fill:#ffffff;fill-opacity:1;fill-rule:nonzero;stroke:none;stroke-width:2;stroke-linecap:round;stroke-linejoin:round;stroke-miterlimit:4;stroke-dasharray:none;stroke-dashoffset:0;stroke-opacity:1;color-rendering:auto;image-rendering:auto;shape-rendering:auto;text-rendering:auto;enable-background:accumulate;stop-color:#000000"
     d="m 9.7573594,9.7513228 c -2.3347704,2.3347702 -2.3347704,6.1505102 0,8.4852812 2.0933076,2.093308 5.3737156,2.302525 7.7132636,0.642196 l 5.721765,5.721765 1.414214,-1.414214 -5.721765,-5.721765 c 1.660329,-2.339548 1.451112,-5.619956 -0.642196,-7.7132633 -2.334771,-2.3347704 -6.150511,-2.3347704 -8.4852816,1e-7 z m 1.4142136,1.4142132 c 1.570473,-1.5704725 4.086381,-1.5704725 5.656854,0 1.570473,1.570473 1.570473,4.086381 0,5.656854 -1.570473,1.570473 -4.086381,1.570473 -5.656854,0 -1.5704729,-1.570473 -1.5704729,-4.086381 0,-5.656854 z" />
  <g
     transform="matrix(0.35621596,0,0,0.3544501,5.4666924,5.4891652)"
     id="g4489"
     style="stroke-width:1.08577">
    <path
       style="opacity:0.15;fill:#4998ff;stroke:#000000;stroke-width:1.57342;stroke-linecap:round;stroke-linejoin:round"
       inkscape:connector-curvature="0"
       d="M 34.487,24 A 10.487,10.487 0 0 1 24,34.487 10.487,10.487 0 0 1 13.513,24 10.487,10.487 0 0 1 24,13.513 10.487,10.487 0 0 1 34.487,24 Z"
       id="path4435" />
    <path
       inkscape:connector-curvature="0"
       style="opacity:0.3;fill:url(#linearGradient4433);stroke-width:1.08577"
       d="m 34.866,22.457 c 0,-0.81127 0.23346,0.6914 0.08466,-0.0736 -1.0547,-5.4818 -6.274,-9.3078 -10.943,-9.3833 -5.5267,0.44071 -9.8748,3.9983 -10.943,9.3832 -0.1488,0.76498 0.0067,-0.7377 0.0067,0.07358 0,6.49 4.8452,-1.49 11.014,-1.49 6.1684,0 10.78,7.9802 10.78,1.49 z"
       id="path4264" />
  </g>
  <path
     inkscape:connector-curvature="0"
     style="color:#000000;display:inline;overflow:visible;visibility:visible;opacity:0.3;fill:none;stroke:url(#linearGradient3024);stroke-width:0.99999994;stroke-linecap:round;stroke-linejoin:round;stroke-miterlimit:4;stroke-dasharray:none;stroke-dashoffset:0;stroke-opacity:1;marker:none;enable-background:accumulate"
     id="path3421"
     d="M 29.5,16 C 29.5,23.455845 23.45583,29.5 16,29.5 8.54417,29.5 2.5,23.455845 2.5,16 2.5,8.544157 8.54417,2.5 16,2.5 23.45583,2.5 29.5,8.544157 29.5,16 Z" />
</svg>
