<?xml version="1.0" encoding="UTF-8" standalone="no"?>
<svg
   id="svg3946"
   height="24"
   width="24"
   version="1.1"
   sodipodi:docname="microsoft-edge-beta_24.svg"
   inkscape:version="1.1 (c68e22c387, 2021-05-23)"
   xmlns:inkscape="http://www.inkscape.org/namespaces/inkscape"
   xmlns:sodipodi="http://sodipodi.sourceforge.net/DTD/sodipodi-0.dtd"
   xmlns:xlink="http://www.w3.org/1999/xlink"
   xmlns="http://www.w3.org/2000/svg"
   xmlns:svg="http://www.w3.org/2000/svg"
   xmlns:rdf="http://www.w3.org/1999/02/22-rdf-syntax-ns#"
   xmlns:cc="http://creativecommons.org/ns#"
   xmlns:dc="http://purl.org/dc/elements/1.1/">
  <sodipodi:namedview
     pagecolor="#ffffff"
     bordercolor="#666666"
     borderopacity="1"
     objecttolerance="10"
     gridtolerance="10"
     guidetolerance="10"
     inkscape:pageopacity="0"
     inkscape:pageshadow="2"
     inkscape:window-width="1366"
     inkscape:window-height="707"
     id="namedview33"
     showgrid="true"
     inkscape:zoom="29.227082"
     inkscape:cx="16.71395"
     inkscape:cy="18.869485"
     inkscape:window-x="0"
     inkscape:window-y="30"
     inkscape:window-maximized="1"
     inkscape:current-layer="svg3946"
     inkscape:document-rotation="0"
     inkscape:pagecheckerboard="0">
    <inkscape:grid
       type="xygrid"
       id="grid883" />
  </sodipodi:namedview>
  <defs
     id="defs3948">
    <inkscape:path-effect
       effect="fillet_chamfer"
       id="path-effect1794"
       is_visible="true"
       lpeversion="1"
       satellites_param="F,0,0,1,0,1,0,1 @ F,0,0,1,0,1,0,1 @ F,0,0,1,0,1,0,1 @ F,0,0,1,0,1,0,1 @ F,0,0,1,0,1,0,1 @ F,0,0,1,0,1,0,1 @ F,0,0,1,0,1,0,1 @ F,0,0,1,0,1,0,1 @ F,0,0,1,0,1,0,1 @ F,0,0,1,0,1,0,1 @ F,0,0,1,0,1,0,1 @ F,0,0,1,0,1,0,1"
       unit="px"
       method="auto"
       mode="F"
       radius="1"
       chamfer_steps="1"
       flexible="false"
       use_knot_distance="true"
       apply_no_radius="true"
       apply_with_radius="true"
       only_selected="false"
       hide_knots="false" />
    <linearGradient
       id="linearGradient8838">
      <stop
         offset="0"
         style="stop-color:#000000;stop-opacity:1"
         id="stop8840" />
      <stop
         offset="1"
         style="stop-color:#000000;stop-opacity:0"
         id="stop8842" />
    </linearGradient>
    <linearGradient
       id="linearGradient2867-449-88-871-390-598-476-591-434-148-57-177-3-8-9">
      <stop
         id="stop3750-8-9-6"
         style="stop-color:#8cd5ff;stop-opacity:1"
         offset="0" />
      <stop
         id="stop3752-3-2-9"
         style="stop-color:#64baff;stop-opacity:1"
         offset="0.26238" />
      <stop
         id="stop3754-7-2-5"
         style="stop-color:#3689e6;stop-opacity:1"
         offset="0.704952" />
      <stop
         id="stop3756-9-3-0"
         style="stop-color:#0d52bf;stop-opacity:1"
         offset="1" />
    </linearGradient>
    <radialGradient
       r="10.625"
       fy="4.625"
       fx="62.625"
       cy="4.625"
       cx="62.625"
       gradientTransform="matrix(1.1294118,0,0,0.2823525,-58.729414,19.694118)"
       gradientUnits="userSpaceOnUse"
       id="radialGradient3090"
       xlink:href="#linearGradient8838" />
    <radialGradient
       r="19.99999"
       fy="8.4497671"
       fx="3.9722471"
       cy="8.4497671"
       cx="3.9722471"
       gradientTransform="matrix(0,1.2798909,-1.3539719,-3.4836662e-8,-3.910191,-11.774097)"
       gradientUnits="userSpaceOnUse"
       id="radialGradient3100"
       xlink:href="#linearGradient2867-449-88-871-390-598-476-591-434-148-57-177-3-8-9" />
    <linearGradient
       x1="71.204407"
       y1="15.369057"
       x2="71.204407"
       y2="40.495617"
       id="linearGradient4338-5-6"
       xlink:href="#linearGradient4806-2-9-2"
       gradientUnits="userSpaceOnUse"
       gradientTransform="matrix(0.78775976,0,0,0.7877599,-72.208436,-15.195065)" />
    <linearGradient
       id="linearGradient4806-2-9-2">
      <stop
         id="stop4808-4-6-7"
         style="stop-color:#ffffff;stop-opacity:1"
         offset="0" />
      <stop
         id="stop4810-0-9-3"
         style="stop-color:#ffffff;stop-opacity:0.23529412"
         offset="0.42447853" />
      <stop
         id="stop4812-8-7-9"
         style="stop-color:#ffffff;stop-opacity:0.15686275"
         offset="0.82089913" />
      <stop
         id="stop4814-0-7-4"
         style="stop-color:#ffffff;stop-opacity:0.39215687"
         offset="1" />
    </linearGradient>
    <radialGradient
       cx="-1.2645766"
       cy="8.449769"
       r="19.99999"
       fx="0.66680855"
       fy="8.449769"
       id="radialGradient3126-7-25-24-9"
       xlink:href="#linearGradient4223"
       gradientUnits="userSpaceOnUse"
       gradientTransform="matrix(0,2.0117098,-1.584131,-2.2840856e-8,-1.465396,-6.3752519)" />
    <linearGradient
       id="linearGradient4223">
      <stop
         id="stop4225"
         style="stop-color:#d1ff82;stop-opacity:1"
         offset="0" />
      <stop
         id="stop4227"
         style="stop-color:#9bdb4d;stop-opacity:1"
         offset="0.26238" />
      <stop
         id="stop4229"
         style="stop-color:#68b723;stop-opacity:1"
         offset="0.66093999" />
      <stop
         id="stop4231"
         style="stop-color:#3a9104;stop-opacity:1"
         offset="1" />
    </linearGradient>
    <linearGradient
       id="linearGradient4214">
      <stop
         style="stop-color:#ffffff;stop-opacity:1;"
         offset="0"
         id="stop4216" />
      <stop
         id="stop4218"
         offset="0.28571552"
         style="stop-color:#ffffff;stop-opacity:0.23529412" />
      <stop
         style="stop-color:#ffffff;stop-opacity:0.15686275"
         offset="0.71428698"
         id="stop4220" />
      <stop
         style="stop-color:#ffffff;stop-opacity:0.39215687"
         offset="1"
         id="stop4222" />
    </linearGradient>
    <linearGradient
       id="linearGradient4747">
      <stop
         id="stop4749"
         offset="0"
         style="stop-color:#ffffff;stop-opacity:1;" />
      <stop
         style="stop-color:#ffffff;stop-opacity:0.23529412"
         offset="0.23694834"
         id="stop4755" />
      <stop
         id="stop4757"
         offset="0.76410484"
         style="stop-color:#ffffff;stop-opacity:0.15686275" />
      <stop
         id="stop4751"
         offset="1"
         style="stop-color:#ffffff;stop-opacity:0.39215687" />
    </linearGradient>
    <radialGradient
       gradientUnits="userSpaceOnUse"
       gradientTransform="matrix(1,0,0,0.32352941,21.961941,-311.51057)"
       r="17"
       fy="1045.8622"
       fx="24"
       cy="1045.8622"
       cx="24"
       id="radialGradient4329"
       xlink:href="#linearGradient8838" />
    <radialGradient
       id="radialGradient1209"
       cx="113.37"
       cy="570.21002"
       r="202.42999"
       gradientTransform="matrix(-0.01126182,0.28154544,0.59969179,0.02252364,-256.27986,-48.334136)"
       gradientUnits="userSpaceOnUse">
      <stop
         offset="0"
         stop-color="#35c1f1"
         id="stop1203" />
      <stop
         offset="0.44249097"
         stop-color="#2bc3d2"
         id="stop1205"
         style="stop-color:#8cd5ff;stop-opacity:1" />
      <stop
         offset="0.70484996"
         stop-color="#36c752"
         id="stop1207"
         style="stop-color:#9bdb4d;stop-opacity:1" />
    </radialGradient>
    <linearGradient
       id="linearGradient4747-3">
      <stop
         id="stop4749-6"
         offset="0"
         style="stop-color:#ffffff;stop-opacity:1;" />
      <stop
         style="stop-color:#ffffff;stop-opacity:0.23529412"
         offset="0.23694834"
         id="stop4755-7" />
      <stop
         id="stop4757-5"
         offset="0.58626026"
         style="stop-color:#ffffff;stop-opacity:0.15686275" />
      <stop
         id="stop4751-3"
         offset="1"
         style="stop-color:#ffffff;stop-opacity:0.39215687" />
    </linearGradient>
    <radialGradient
       inkscape:collect="always"
       xlink:href="#radialGradient1209"
       id="radialGradient3573"
       cx="4"
       cy="8.0717211"
       fx="4"
       fy="8.0717211"
       r="10.135071"
       gradientTransform="matrix(2.0719595,0,-1.6035645e-8,1.2826415,-4.2879024,-2.3532934)"
       gradientUnits="userSpaceOnUse" />
    <radialGradient
       id="radialGradient1209-2"
       cx="113.37"
       cy="570.21002"
       r="202.42999"
       gradientTransform="matrix(-0.01126182,0.28154544,0.59969179,0.02252364,-256.27986,-48.334136)"
       gradientUnits="userSpaceOnUse">
      <stop
         offset="0"
         stop-color="#35c1f1"
         id="stop1203-9" />
      <stop
         offset="0.44249097"
         stop-color="#2bc3d2"
         id="stop1205-1"
         style="stop-color:#8cd5ff;stop-opacity:1" />
      <stop
         offset="0.70484996"
         stop-color="#36c752"
         id="stop1207-2"
         style="stop-color:#9bdb4d;stop-opacity:1" />
    </radialGradient>
    <linearGradient
       inkscape:collect="always"
       xlink:href="#linearGradient4747-3"
       id="linearGradient4099"
       x1="12"
       y1="2"
       x2="12"
       y2="22"
       gradientUnits="userSpaceOnUse" />
    <linearGradient
       inkscape:collect="always"
       xlink:href="#linearGradient4747"
       id="linearGradient969"
       x1="35.5"
       y1="15.5"
       x2="35.5"
       y2="22.5"
       gradientUnits="userSpaceOnUse"
       gradientTransform="translate(-20.5,0.50000047)" />
  </defs>
  <metadata
     id="metadata3951">
    <rdf:RDF>
      <cc:Work
         rdf:about="">
        <dc:format>image/svg+xml</dc:format>
        <dc:type
           rdf:resource="http://purl.org/dc/dcmitype/StillImage" />
        <dc:title />
      </cc:Work>
    </rdf:RDF>
  </metadata>
  <path
     d="m 24,21 c 0,1.656854 -5.372583,3 -12,3 C 5.3725827,24 -2.5e-7,22.656854 -2.5e-7,21 -2.5e-7,19.343146 5.3725827,18 12,18 c 6.627417,0 12,1.343146 12,3 l 0,0 z"
     id="path8836"
     style="opacity:0.3;fill:url(#radialGradient3090);fill-opacity:1;fill-rule:evenodd;stroke:none;stroke-width:0.99999988;marker:none;visibility:visible;display:inline;overflow:visible" />
  <path
     id="path910"
     style="fill:#0d52bf;fill-opacity:1;stroke:none;stroke-width:2;stroke-linejoin:round"
     d="m 10.880616,9.7615046 c -0.04323,0.022951 -0.0862,0.046389 -0.128903,0.07031 -0.327577,0.1893754 -0.637993,0.4069934 -0.92771,0.6503734 -0.2903856,0.243029 -0.5589784,0.510969 -0.8027136,0.800761 -0.242705,0.289794 -0.4596676,0.600208 -0.6484207,0.927711 -0.1891071,0.327854 -0.3492166,0.671599 -0.4785033,1.027317 -0.1299467,0.355295 -0.2286261,0.721259 -0.2949142,1.093721 -0.065351,0.372733 -0.098026,0.75046 -0.097654,1.128878 -3.722e-4,0.378417 0.032303,0.756144 0.097654,1.128876 0.066288,0.372462 0.1649675,0.738425 0.2949142,1.093721 0.1292866,0.355718 0.2893962,0.699463 0.4785033,1.027318 0.1887532,0.327503 0.4057158,0.637916 0.6484207,0.92771 0.2436485,0.29047 0.5122438,0.559064 0.8027136,0.802714 0.289794,0.242705 0.600207,0.459668 0.92771,0.64842 0.327855,0.189107 0.6716,0.349216 1.027317,0.478503 0.355297,0.129946 0.72126,0.228626 1.093722,0.294914 0.372732,0.06535 0.750459,0.09803 1.128877,0.09765 0.378417,3.72e-4 0.756144,-0.0323 1.128877,-0.09765 0.372461,-0.06629 0.738425,-0.164968 1.093721,-0.294914 0.318035,-0.118928 0.626262,-0.262592 0.921851,-0.429676 0.166742,-0.09477 0.330047,-0.189874 0.486316,-0.287102 0.169094,-0.105206 0.327764,-0.208671 0.45702,-0.300773 1.528909,-1.089439 2.737358,-2.56954 3.499909,-4.285045 0.224202,-0.504385 0.02529,-0.633624 -0.435536,-0.330069 -0.132462,0.08726 -0.405709,0.250489 -0.712872,0.412097 -0.186157,0.09794 -0.382289,0.19458 -0.574203,0.275384 -2.301853,0.969158 -4.878773,0.773177 -6.978335,-0.382803 -0.956204,-0.526466 -1.812747,-1.251731 -2.499935,-2.158146 -0.333376,-0.439728 -0.8017033,-1.229067 -0.8691187,-1.773391 -0.079764,-0.644029 0.095245,-1.298483 0.4863147,-1.816359 0.187979,-0.248931 0.531344,-0.5081268 0.892556,-0.6972487 z"
     sodipodi:nodetypes="ccccccccccccccccccccssssscsssscc" />
  <path
     id="path3146"
     style="fill:#3689e6;fill-opacity:1;stroke:none;stroke-width:2;stroke-linejoin:round"
     d="M 7.9998315,5.4998963 C 7.5742431,5.499964 7.1496902,5.5418305 6.7322862,5.624893 6.3142797,5.7076269 5.9054219,5.8312655 5.5116148,5.9940241 5.1184805,6.1572817 4.7423349,6.3587649 4.388597,6.595571 4.034797,6.8322146 3.7050975,7.1030392 3.4042475,7.4041438 3.1031429,7.7049938 2.8323184,8.0346932 2.5956747,8.3884933 2.3588686,8.7422312 2.1573855,9.1183767 1.9941278,9.5115111 1.8313692,9.9053181 1.7077306,10.314176 1.6249968,10.732183 1.5424417,11.147027 1.5005776,11.568938 1.5,11.991916 c -1.06e-5,0.0065 0.00195,0.01303 0.00195,0.01953 3.28e-4,1.466096 0.3057349,2.949031 0.9472411,4.349497 0.2298697,0.501827 0.6783576,1.27848 0.9980209,1.728471 2.9090735,4.095106 8.346846,5.552781 12.913728,3.460847 0.22418,-0.102689 0.504827,-0.252781 0.785135,-0.412098 -0.295589,0.167083 -0.603816,0.310749 -0.921851,0.429676 -0.355297,0.129946 -0.72126,0.228626 -1.093721,0.294914 -0.372733,0.06535 -0.75046,0.09803 -1.128877,0.09766 -0.378417,3.72e-4 -0.756145,-0.0323 -1.128877,-0.09766 -0.372461,-0.06629 -0.738425,-0.164968 -1.093722,-0.294914 C 11.423313,21.438552 11.079568,21.278443 10.751713,21.089336 10.42421,20.900583 10.113797,20.68362 9.824003,20.440915 9.5335332,20.197266 9.2649379,19.928671 9.0212894,19.638202 8.7785845,19.348408 8.5616219,19.037995 8.3728687,18.710492 8.1837616,18.382637 8.023652,18.038892 7.8943654,17.683174 7.7644187,17.327878 7.6657393,16.961914 7.5994512,16.589453 c -0.06535,-0.372733 -0.098025,-0.75046 -0.097653,-1.128877 -3.723e-4,-0.378418 0.032303,-0.756145 0.097653,-1.128878 0.066288,-0.372461 0.1649675,-0.738425 0.2949142,-1.093721 0.1292867,-0.355717 0.2893962,-0.699462 0.4785033,-1.027317 0.1887531,-0.327503 0.4057158,-0.637917 0.6484207,-0.927711 0.2437352,-0.289792 0.512328,-0.557731 0.8027136,-0.80076 0.289717,-0.243381 0.615758,-0.429749 0.943336,-0.619125 0.04336,-0.02328 0.08698,-0.046068 0.130855,-0.068357 v 0 c 0.273977,-0.1434484 0.558168,-0.2463048 0.792952,-0.2753833 0.644028,-0.079763 1.298482,0.095245 1.816359,0.4863143 0.437742,0.330558 0.905622,1.141118 0.972631,1.685504 0.0087,0.0707 0.01298,0.141873 0.01563,0.212885 -4.6e-4,-0.110088 -0.0037,-0.220146 -0.0098,-0.330069 -0.0091,-0.14103 -0.02276,-0.281726 -0.04102,-0.421864 -0.01884,-0.140701 -0.04229,-0.280746 -0.07031,-0.419911 -0.02738,-0.139024 -0.0593,-0.277115 -0.0957,-0.414053 -0.03719,-0.137396 -0.07888,-0.273534 -0.124997,-0.4081914 -0.0451,-0.1343925 -0.0946,-0.2672725 -0.14841,-0.3984273 C 13.951171,9.3807274 13.892548,9.2517557 13.829758,9.1248023 13.804959,9.0769635 13.77957,9.0294348 13.75359,8.9822279 13.7135,8.903918 13.671825,8.8264301 13.628592,8.749812 13.557686,8.6269539 13.482778,8.5064497 13.403988,8.3884933 13.325102,8.2705859 13.242379,8.1552928 13.155948,8.0427991 13.069704,7.9305207 12.979814,7.8210903 12.886424,7.7146826 12.792836,7.6080209 12.695782,7.5044525 12.595415,7.4041438 12.495107,7.3037774 12.391539,7.2067226 12.284876,7.1131356 12.178469,7.0197448 12.069038,6.9298554 11.95676,6.8436114 11.844266,6.757181 11.728973,6.6744565 11.611066,6.595571 11.49311,6.5167805 11.372605,6.4418725 11.249747,6.3709675 11.126979,6.299837 11.001916,6.2327456 10.874757,6.1698008 10.747803,6.1070109 10.618832,6.0483875 10.488048,5.9940241 10.356893,5.9402145 10.224014,5.8907101 10.089621,5.8455904 9.9549624,5.7994666 9.8188247,5.7577785 9.6814285,5.7205937 9.5444912,5.6841889 9.4064002,5.6522716 9.2673767,5.624893 9.1282117,5.596877 8.9881662,5.5734275 8.8474657,5.5545824 8.7073276,5.5363283 8.5666315,5.5226495 8.4256016,5.5135678 8.2838657,5.5043599 8.1418661,5.4998003 7.9998315,5.4998963 Z"
     sodipodi:nodetypes="ccccccccscssscccccccccccccccccccccssscccccccccccccccccccccccccc" />
  <path
     id="path2268"
     style="fill:#000000;fill-opacity:1;stroke:none;stroke-width:2;stroke-linejoin:round"
     d="m 14.495757,12.038789 c 0.0013,-0.01302 0.0026,-0.02604 0.0039,-0.03906 -0.0011,-0.03191 -0.0024,-0.06381 -0.0039,-0.0957 0.0017,0.04495 7.52e-4,0.08982 0,0.134762 z"
     sodipodi:nodetypes="cccc" />
  <path
     id="path2266"
     style="fill:url(#radialGradient3573);fill-opacity:1;stroke:none;stroke-width:2;stroke-linejoin:round"
     d="M 12.071992,1.5 C 10.578624,1.4884037 9.0656638,1.7954647 7.6385127,2.4491942 7.1366858,2.6790639 6.3600323,3.1275518 5.9100418,3.4472151 3.0762978,5.4602442 1.5054135,8.6839395 1.5,11.991916 1.5005776,11.568938 1.5424417,11.147026 1.6249968,10.732183 1.7077306,10.314176 1.8313692,9.9053182 1.9941278,9.5115111 2.1573855,9.1183768 2.3588687,8.7422312 2.5956747,8.3884933 2.8323184,8.0346933 3.103143,7.7049938 3.4042475,7.4041438 3.7050975,7.1030392 4.034797,6.8322147 4.388597,6.595571 4.742335,6.3587649 5.1184805,6.1572818 5.5116148,5.9940241 5.9054219,5.8312655 6.3142797,5.7076269 6.7322862,5.624893 7.1496902,5.5418305 7.5742431,5.499964 7.9998315,5.4998963 c 0.1420346,-9.6e-5 0.2840342,0.00446 0.4257701,0.013672 0.1410299,0.00908 0.281726,0.022761 0.4218641,0.041015 0.1407006,0.018845 0.280746,0.042295 0.419911,0.070311 0.1390235,0.027379 0.2771145,0.059296 0.4140518,0.095701 0.1373962,0.037185 0.2735338,0.078873 0.4081925,0.1249967 0.134392,0.04512 0.267272,0.094624 0.398427,0.1484337 0.130784,0.054363 0.259755,0.1129869 0.386709,0.1757767 0.127159,0.062945 0.252223,0.1300363 0.37499,0.2011667 0.122858,0.070905 0.243362,0.145813 0.361319,0.2246035 0.117907,0.078886 0.2332,0.1616099 0.345694,0.2480404 0.112278,0.086244 0.221709,0.1761333 0.328116,0.2695242 0.106662,0.093587 0.210231,0.1906418 0.310539,0.2910082 0.100367,0.1003087 0.197422,0.2038771 0.291009,0.3105388 0.09339,0.1064077 0.18328,0.2158382 0.269524,0.3281165 0.08643,0.1124937 0.169155,0.2277869 0.24804,0.3456942 0.07879,0.1179564 0.153699,0.2384605 0.224604,0.3613187 0.07113,0.1227676 0.138222,0.2478314 0.201166,0.3749903 0.06279,0.1269534 0.121413,0.2559252 0.175777,0.3867088 0.05381,0.1311547 0.103314,0.2640348 0.148434,0.398427 0.04612,0.1346593 0.08781,0.2707963 0.124997,0.4081923 0.0364,0.136938 0.06832,0.275029 0.0957,0.414053 0.02802,0.139165 0.05147,0.27921 0.07031,0.419911 0.01825,0.140138 0.03193,0.280834 0.04101,0.421864 0.0061,0.109922 0.0093,0.219981 0.0098,0.330069 0.0015,0.03189 0.0028,0.06379 0.0039,0.0957 -0.0013,0.01302 -0.0026,0.02604 -0.0039,0.03906 -0.0023,0.136155 -0.01464,0.272026 -0.03906,0.406239 -0.0057,0.03145 -0.01064,0.0625 -0.01758,0.09375 -0.03614,0.162845 -0.04937,0.334586 -0.04101,0.499987 0.01911,0.37848 0.166847,0.725728 0.523423,0.867165 1.075015,0.426404 2.288898,0.474132 3.431552,0.08594 0.521983,-0.177342 1.305979,-0.628889 1.720658,-0.992162 1.449646,-1.269981 2.02846,-3.2524689 1.507741,-5.0916711 C 21.43133,7.3775893 21.163032,6.8741136 21.091289,6.7498639 L 20.55224,5.9100418 C 18.552252,3.0946563 15.357401,1.5255119 12.071992,1.5 Z"
     sodipodi:nodetypes="ssscccccccccccccccccccccccccccccccccccscccccsccs" />
  <path
     id="path2266-9"
     style="opacity:0.4;fill:none;fill-opacity:1;stroke:#002e99;stroke-width:1;stroke-linejoin:round;stroke-miterlimit:4;stroke-dasharray:none;stroke-opacity:1"
     d="m 12.072012,1.5003162 c -1.493368,-0.0116 -3.006328,0.295465 -4.433479,0.949194 -0.501827,0.22987 -1.278481,0.678358 -1.728471,0.998021 -2.833744,2.013029 -4.4046285,5.236724 -4.410042,8.5447008 5.776e-4,-0.422978 0.042442,-0.84489 0.1249968,-1.259733 0.082734,-0.418007 0.2063724,-0.8268648 0.369131,-1.2206718 0.1632577,-0.393134 0.3647409,-0.76928 0.6015469,-1.123018 0.2366437,-0.3538 0.5074683,-0.683499 0.8085733,-0.984349 0.30085,-0.301105 0.630549,-0.571929 0.984349,-0.808573 0.353738,-0.236806 0.729884,-0.438289 1.123018,-0.601547 0.393807,-0.162758 0.802665,-0.286397 1.220671,-0.369131 0.417404,-0.08306 0.841957,-0.124929 1.267545,-0.124997 0.142035,-9.6e-5 0.284035,0.0045 0.425771,0.01367 0.14103,0.0091 0.281726,0.02276 0.421864,0.04101 0.1407,0.01884 0.280746,0.04229 0.419911,0.07031 0.139023,0.02738 0.277114,0.0593 0.414052,0.0957 0.137396,0.03718 0.273533,0.07887 0.408192,0.124997 0.134392,0.04512 0.267272,0.09462 0.398427,0.148434 0.130784,0.05436 0.259755,0.112987 0.386709,0.175776 0.127159,0.06294 0.252223,0.130037 0.37499,0.201167 0.122858,0.0709 0.243362,0.145813 0.361319,0.224604 0.117907,0.07889 0.2332,0.161609 0.345694,0.24804 0.112278,0.08624 0.221709,0.176133 0.328116,0.269524 0.106662,0.09359 0.210231,0.190642 0.310539,0.291008 0.100367,0.100309 0.197422,0.203878 0.291009,0.310539 0.09339,0.106408 0.18328,0.215838 0.269524,0.328117 0.08643,0.112493 0.169155,0.227787 0.24804,0.345694 0.07879,0.117956 0.153699,0.23846 0.224604,0.361319 0.07113,0.122767 0.138222,0.247831 0.201166,0.37499 0.06279,0.126953 0.121413,0.255925 0.175777,0.386709 0.05381,0.131154 0.103314,0.264034 0.148434,0.398427 0.04612,0.1346588 0.08781,0.2707958 0.124997,0.4081918 0.0364,0.136938 0.06832,0.275029 0.0957,0.414053 0.02802,0.139165 0.05147,0.27921 0.07031,0.419911 0.01825,0.140138 0.03193,0.280834 0.04101,0.421864 0.0061,0.109922 0.0093,0.219981 0.0098,0.330069 0.0015,0.03189 0.0028,0.06379 0.0039,0.0957 -0.0013,0.01302 -0.0026,0.02604 -0.0039,0.03906 -0.0023,0.136155 -0.01464,0.272026 -0.03906,0.406239 -0.0057,0.03145 -0.01064,0.0625 -0.01758,0.09375 -0.03614,0.162845 -0.04937,0.334586 -0.04101,0.499987 0.01911,0.37848 0.166847,0.725728 0.523423,0.867165 1.075015,0.426404 2.288898,0.474132 3.431552,0.08594 0.521983,-0.177342 1.305979,-0.628889 1.720658,-0.992162 1.449646,-1.269981 2.02846,-3.2524688 1.507741,-5.0916708 -0.15018,-0.530448 -0.418478,-1.033923 -0.490221,-1.158173 L 20.55226,5.9103492 c -1.999988,-2.815386 -5.194839,-4.38453 -8.480248,-4.410042 z m -4.072161,3.999896 c -0.425588,6.8e-5 -0.850141,0.04193 -1.267545,0.124997 -0.418006,0.08273 -0.826864,0.206373 -1.220671,0.369131 -0.393134,0.163258 -0.76928,0.364741 -1.123018,0.601547 -0.3538,0.236644 -0.683499,0.507468 -0.984349,0.808573 -0.301105,0.30085 -0.5719296,0.630549 -0.8085733,0.984349 -0.2368061,0.353738 -0.4382892,0.729884 -0.6015469,1.123018 -0.1627586,0.393807 -0.2863972,0.8026648 -0.369131,1.2206718 -0.082555,0.414844 -0.1244192,0.836755 -0.1249968,1.259733 -1.06e-5,0.0065 0.00195,0.01303 0.00195,0.01953 3.28e-4,1.466096 0.3057349,2.949031 0.9472411,4.349497 0.2298697,0.501827 0.6783579,1.27848 0.9980209,1.728471 2.909073,4.095106 8.346846,5.552781 12.913728,3.460847 0.22418,-0.102689 0.504827,-0.252781 0.785135,-0.412098 -0.295589,0.167083 -0.603816,0.310749 -0.921851,0.429676 -0.355297,0.129946 -0.72126,0.228626 -1.093721,0.294914 -0.372733,0.06535 -0.75046,0.09803 -1.128877,0.09766 -0.378417,3.72e-4 -0.756145,-0.0323 -1.128877,-0.09766 -0.372461,-0.06629 -0.738425,-0.164968 -1.093722,-0.294914 C 11.423333,21.438868 11.079588,21.278759 10.751733,21.089652 10.42423,20.900899 10.113817,20.683936 9.824023,20.441231 9.533553,20.197582 9.264958,19.928987 9.021309,19.638518 8.778604,19.348724 8.561642,19.038311 8.372889,18.710808 8.183782,18.382953 8.023672,18.039208 7.894385,17.68349 7.764439,17.328194 7.665759,16.96223 7.599471,16.589769 c -0.06535,-0.372733 -0.09802,-0.75046 -0.09765,-1.128877 -3.72e-4,-0.378418 0.0323,-0.756145 0.09765,-1.128878 0.06629,-0.372461 0.164968,-0.738425 0.294914,-1.093721 0.129287,-0.355717 0.289397,-0.699462 0.478504,-1.027317 0.188753,-0.327503 0.405715,-0.637917 0.64842,-0.927711 0.243736,-0.289792 0.512328,-0.557731 0.802714,-0.80076 0.289717,-0.243381 0.615758,-0.429749 0.943336,-0.6191248 0.04336,-0.02328 0.08698,-0.04607 0.130855,-0.06836 v 0 c 0.273977,-0.143448 0.558168,-0.246305 0.792952,-0.275383 0.644028,-0.07976 1.298482,0.09525 1.816359,0.4863138 0.437742,0.330558 0.905622,1.141118 0.972631,1.685504 0.0087,0.0707 0.01298,0.141873 0.01563,0.212885 -4.6e-4,-0.110088 -0.0037,-0.220146 -0.0098,-0.330069 -0.0091,-0.14103 -0.02276,-0.281726 -0.04102,-0.421864 -0.01884,-0.140701 -0.04229,-0.280746 -0.07031,-0.419911 -0.02738,-0.139024 -0.0593,-0.277115 -0.0957,-0.414053 -0.03719,-0.137396 -0.07888,-0.273534 -0.124997,-0.4081908 -0.0451,-0.134393 -0.0946,-0.267273 -0.14841,-0.398428 -0.05436,-0.130784 -0.112981,-0.259755 -0.175771,-0.386709 -0.0248,-0.04784 -0.05019,-0.09537 -0.07617,-0.142574 -0.04009,-0.07831 -0.08177,-0.155798 -0.124998,-0.232416 -0.07091,-0.122858 -0.145814,-0.243362 -0.224604,-0.361319 -0.07889,-0.117907 -0.161609,-0.2332 -0.24804,-0.345694 -0.08624,-0.112278 -0.176134,-0.221709 -0.269524,-0.328116 -0.09359,-0.106662 -0.190642,-0.210231 -0.291009,-0.310539 -0.100308,-0.100367 -0.203876,-0.197421 -0.310539,-0.291008 -0.106407,-0.09339 -0.215838,-0.183281 -0.328116,-0.269525 -0.112494,-0.08643 -0.227787,-0.169154 -0.345694,-0.24804 -0.117956,-0.07879 -0.238461,-0.153699 -0.361319,-0.224604 -0.122768,-0.07113 -0.247831,-0.138221 -0.37499,-0.201166 -0.126954,-0.06279 -0.255925,-0.121413 -0.386709,-0.175777 -0.131155,-0.05381 -0.264034,-0.103314 -0.398427,-0.148434 C 9.95498,5.7997832 9.818843,5.7580932 9.681447,5.7209072 9.544509,5.6844972 9.406418,5.6525872 9.267395,5.6252072 9.12823,5.5971872 8.988184,5.5737372 8.847484,5.5548972 8.707346,5.5366472 8.56665,5.5229672 8.42562,5.5138872 8.283884,5.5046872 8.141884,5.5001172 7.999849,5.5002172 Z m 2.880785,4.261609 c -0.04323,0.02295 -0.0862,0.04639 -0.128903,0.07031 -0.327577,0.1893748 -0.637993,0.4069928 -0.92771,0.6503728 -0.290386,0.243029 -0.558978,0.510969 -0.802714,0.800761 -0.242705,0.289794 -0.459667,0.600208 -0.64842,0.927711 -0.189107,0.327854 -0.349217,0.671599 -0.478504,1.027317 -0.129946,0.355295 -0.228626,0.721259 -0.294914,1.093721 -0.06535,0.372733 -0.09803,0.75046 -0.09765,1.128878 -3.72e-4,0.378417 0.0323,0.756144 0.09765,1.128876 0.06629,0.372462 0.164968,0.738425 0.294914,1.093721 0.129287,0.355718 0.289397,0.699463 0.478504,1.027318 0.188753,0.327503 0.405716,0.637916 0.64842,0.92771 0.243649,0.29047 0.512244,0.559064 0.802714,0.802714 0.289794,0.242705 0.600207,0.459668 0.92771,0.64842 0.327855,0.189107 0.6716,0.349216 1.027317,0.478503 0.355297,0.129946 0.72126,0.228626 1.093722,0.294914 0.372732,0.06535 0.750459,0.09803 1.128877,0.09765 0.378417,3.72e-4 0.756144,-0.0323 1.128877,-0.09765 0.372461,-0.06629 0.738425,-0.164968 1.093721,-0.294914 0.318035,-0.118928 0.626262,-0.262592 0.921851,-0.429676 0.166742,-0.09477 0.330047,-0.189874 0.486316,-0.287102 0.169094,-0.105206 0.327764,-0.208671 0.45702,-0.300773 1.528909,-1.089439 2.737358,-2.56954 3.499909,-4.285045 0.224202,-0.504385 0.02529,-0.633624 -0.435536,-0.330069 -0.132462,0.08726 -0.405709,0.250489 -0.712872,0.412097 -0.186157,0.09794 -0.382289,0.19458 -0.574203,0.275384 -2.301853,0.969158 -4.878773,0.773177 -6.978335,-0.382803 -0.956204,-0.526466 -1.812747,-1.251731 -2.499935,-2.158146 -0.333376,-0.439728 -0.801703,-1.229067 -0.869119,-1.773391 -0.07976,-0.644029 0.09525,-1.298483 0.486315,-1.816359 0.187979,-0.248931 0.531344,-0.5081268 0.892556,-0.6972488 z" />
  <path
     id="path910-5-3"
     style="fill:none;fill-opacity:1;stroke:url(#linearGradient4099);stroke-width:1;stroke-linejoin:round;stroke-miterlimit:4;stroke-dasharray:none;stroke-opacity:1;opacity:0.4"
     d="m 11.865693,2.5008997 c -0.202711,0.0028 -0.40641,0.01143 -0.609375,0.027344 -1.083382,0.084946 -2.1655298,0.358534 -3.1992188,0.832032 -0.409353,0.187509 -1.201291,0.643539 -1.568359,0.904296 -3.707619,2.633811 -5.022897,7.5488413 -3.128906,11.6835943 0.18751,0.409352 0.643537,1.199335 0.904297,1.566406 2.633809,3.707617 7.5488398,5.024851 11.6835928,3.13086 0.409139,-0.187412 1.198851,-0.643784 1.564454,-0.904297 0.787832,-0.561376 1.448327,-1.260659 2.027343,-2.025391 -3.605616,1.171716 -7.626777,0.03538 -9.9472648,-3.02539 -0.409389,-0.539991 -0.942115,-1.268068 -1.064454,-2.25586 -0.111888,-0.903412 0.13306,-1.814561 0.681641,-2.5410153 0.299027,-0.395986 0.662709,-0.660927 1.0605468,-0.890625 0.397838,-0.229699 0.808362,-0.41362 1.300781,-0.47461 0.903412,-0.11189 1.814561,0.133058 2.541016,0.681641 0.396469,0.299392 0.659316,0.664406 0.888672,1.0625003 0.229355,0.398093 0.414019,0.808593 0.474609,1.300781 0.04875,0.395986 0.02981,0.797988 -0.05664,1.1875 -0.0234,0.105276 -0.01587,0.183561 -0.0098,0.244141 0.831061,0.301468 1.749,0.342531 2.625,0.04492 0.320063,-0.108739 1.130243,-0.575857 1.384766,-0.798829 1.161358,-1.017387 1.62161,-2.5971473 1.205078,-4.0683593 -0.109567,-0.387115 -0.361404,-0.871439 -0.392544,-0.925779 L 19.734834,6.4852757 C 17.882475,3.8826387 14.90636,2.4589727 11.865693,2.5008997 Z" />
  <rect
     style="opacity:1;fill:#8cd5ff;fill-opacity:1;stroke:none;stroke-width:2;stroke-linecap:square;stroke-miterlimit:4;stroke-dasharray:none;stroke-opacity:1"
     id="rect1245"
     width="18"
     height="8"
     x="5.5"
     y="15.500001"
     rx="1.9999996"
     ry="2" />
  <path
     style="color:#000000;opacity:0.15;fill:#000000;stroke-linecap:square;-inkscape-stroke:none"
     d="m 6,17 v 1 1 3 2 H 8 8.5 C 9.083416,24 9.572734,23.713175 10,23.373047 V 24 h 2 3 3 2 1 2 v -4.5 c 0,-0.04192 -0.0017,-0.08439 -0.0039,-0.126953 v -0.002 c -0.0022,-0.04262 -0.0054,-0.08511 -0.0098,-0.126953 -0.0049,-0.04769 -0.01037,-0.08893 -0.01563,-0.123047 -0.0073,-0.04734 -0.01611,-0.08777 -0.02344,-0.123047 v -0.0039 c -0.0023,-0.01162 -0.0093,-0.04982 -0.02734,-0.119141 h 0.002 c -0.01833,-0.07061 -0.0324,-0.106866 -0.03516,-0.115234 l -0.002,-0.0039 c -0.0088,-0.02811 -0.02071,-0.06556 -0.03906,-0.115234 v -0.002 c -0.01513,-0.04079 -0.03011,-0.07854 -0.04492,-0.113281 v -0.002 c -0.0055,-0.01293 -0.02115,-0.05019 -0.04883,-0.107421 v -0.002 c -0.0172,-0.0354 -0.03748,-0.0704 -0.05664,-0.105468 -0.03059,-0.05599 -0.05181,-0.09116 -0.06055,-0.105469 -0.02163,-0.03543 -0.04299,-0.06797 -0.06445,-0.09961 -0.01218,-0.01795 -0.03408,-0.05195 -0.06836,-0.09766 H 22.5 c -0.02771,-0.03693 -0.0509,-0.06791 -0.07227,-0.09375 -0.04457,-0.05393 -0.07255,-0.08352 -0.08008,-0.0918 -0.0067,-0.0074 -0.03315,-0.03706 -0.08203,-0.08594 -0.04842,-0.04845 -0.07798,-0.07484 -0.08594,-0.08203 h -0.002 c -0.009,-0.0082 -0.03673,-0.03618 -0.08984,-0.08008 -0.0257,-0.02126 -0.05654,-0.04631 -0.09375,-0.07422 -0.0457,-0.03428 -0.07971,-0.05618 -0.09766,-0.06836 -0.03164,-0.02146 -0.06418,-0.04282 -0.09961,-0.06445 -0.01431,-0.0087 -0.04947,-0.02995 -0.105469,-0.06055 -0.03557,-0.01944 -0.07151,-0.03922 -0.107422,-0.05664 -0.05652,-0.02743 -0.09363,-0.04132 -0.111328,-0.04883 -0.03242,-0.01375 -0.06934,-0.02935 -0.111328,-0.04492 l -0.0039,-0.002 h -0.002 c -0.140453,-0.05107 -0.145551,-0.05291 -0.01172,-0.0039 h -0.0039 l -0.002,-0.002 C 21.079236,17.053622 20.795648,17 20.5,17 c -0.295636,0 -0.579343,0.05374 -0.837891,0.146484 h -0.002 l -0.002,0.002 c 0.131653,-0.04787 0.126947,-0.04829 -0.01563,0.0039 l -0.002,0.002 h -0.002 c -0.04103,0.01522 -0.079,0.03032 -0.113281,0.04492 -0.01803,0.0076 -0.05563,0.0218 -0.111328,0.04883 -0.03552,0.01725 -0.07224,0.03741 -0.107422,0.05664 -0.05461,0.02993 -0.0894,0.05193 -0.103516,0.06055 -0.03555,0.02171 -0.06822,0.04317 -0.09961,0.06445 -0.01782,0.01209 -0.0517,0.03387 -0.09766,0.06836 -0.0022,0.0016 -0.0037,0.0023 -0.0059,0.0039 V 17 h -2 -1 -1 -1 -2 -2 v 0.626953 C 9.572734,17.286825 9.083416,17 8.5,17 H 8 Z m 8,3 h 1 v 1 h -1 z"
     id="rect1115-6-2-9-3-5" />
  <path
     id="rect1115-6-2-9-3"
     style="opacity:0.3;fill:#1a1a1a;fill-opacity:1;stroke-linecap:square"
     d="m 15,18 v 1 h 1 v 4 h 1 v -4 h 1 v -1 h -1 -1 z m -4,0 v 5 h 1 2 v -1 h -2 v -1 h 1 v -1 h -1 v -1 h 2 v -1 h -2 z m -4,0 v 1 3 1 H 8 8.5 C 9.322351,23 10,22.322351 10,21.5 10,21.117423 9.85295,20.766278 9.613281,20.5 9.85295,20.233722 10,19.882577 10,19.5 10,18.677649 9.322351,18 8.5,18 H 8 Z m 1,1 H 8.5 9 V 19.5 20 H 8.5 8 v -0.5 z m 0,2 H 8.5 9 V 21.5 22 H 8.5 8 v -0.5 z m 12.5,-3 c -0.174964,0 -0.34327,0.03167 -0.5,0.08789 -0.0044,0.0016 -0.0093,0.0023 -0.01367,0.0039 -0.02292,0.0085 -0.04596,0.0178 -0.06836,0.02734 -0.0224,0.0095 -0.04457,0.0187 -0.06641,0.0293 -0.02184,0.01059 -0.04321,0.02159 -0.06445,0.0332 -0.02125,0.01161 -0.04188,0.02452 -0.0625,0.03711 -0.02062,0.01259 -0.04058,0.02552 -0.06055,0.03906 -0.01996,0.01354 -0.03932,0.02656 -0.05859,0.04102 -0.01928,0.01446 -0.03809,0.02958 -0.05664,0.04492 -0.01855,0.01534 -0.03689,0.03263 -0.05469,0.04883 -0.0178,0.01619 -0.03572,0.03181 -0.05273,0.04883 -0.01701,0.01701 -0.03263,0.03494 -0.04883,0.05273 -0.01619,0.0178 -0.03349,0.03613 -0.04883,0.05469 -0.01534,0.01855 -0.03046,0.03737 -0.04492,0.05664 -0.01446,0.01928 -0.02747,0.03863 -0.04102,0.05859 -0.01354,0.01996 -0.02647,0.03993 -0.03906,0.06055 -0.01259,0.02062 -0.0255,0.04125 -0.03711,0.0625 -0.01161,0.02125 -0.02261,0.04262 -0.0332,0.06445 -0.01059,0.02184 -0.01975,0.04401 -0.0293,0.06641 -0.0095,0.0224 -0.01888,0.04544 -0.02734,0.06836 -0.0085,0.02292 -0.01608,0.04689 -0.02344,0.07031 -0.0074,0.02342 -0.01527,0.04643 -0.02148,0.07031 -0.0062,0.02388 -0.01059,0.04796 -0.01563,0.07227 -0.005,0.02431 -0.0099,0.04951 -0.01367,0.07422 -0.0038,0.0247 -0.0072,0.04915 -0.0098,0.07422 -0.0026,0.02507 -0.0046,0.05077 -0.0059,0.07617 -0.0012,0.02541 -0.0019,0.05048 -0.0019,0.07618 V 23 h 1 v -1.044922 h 1 V 23 h 1 v -3.5 c 0,-0.0257 -6.5e-4,-0.05076 -0.002,-0.07617 -0.0013,-0.0254 -0.0033,-0.0511 -0.0059,-0.07617 -0.0026,-0.02507 -0.006,-0.04952 -0.0098,-0.07422 -0.0038,-0.02471 -0.0086,-0.04991 -0.01367,-0.07422 -0.005,-0.02431 -0.0094,-0.04839 -0.01563,-0.07227 -0.0062,-0.02388 -0.01412,-0.04689 -0.02148,-0.07031 -0.0073,-0.02342 -0.01497,-0.04739 -0.02344,-0.07031 -0.0085,-0.02292 -0.01779,-0.04596 -0.02734,-0.06836 -0.0096,-0.0224 -0.0187,-0.04457 -0.0293,-0.06641 -0.01059,-0.02183 -0.02159,-0.0432 -0.0332,-0.06445 -0.01161,-0.02125 -0.02452,-0.04188 -0.03711,-0.0625 -0.01259,-0.02062 -0.02552,-0.04059 -0.03906,-0.06055 -0.01354,-0.01996 -0.02656,-0.03931 -0.04102,-0.05859 -0.01446,-0.01927 -0.02958,-0.03809 -0.04492,-0.05664 -0.01534,-0.01856 -0.03264,-0.03689 -0.04883,-0.05469 -0.01619,-0.01779 -0.03182,-0.03572 -0.04883,-0.05273 -0.01701,-0.01702 -0.03493,-0.03264 -0.05273,-0.04883 -0.0178,-0.0162 -0.03613,-0.03349 -0.05469,-0.04883 -0.01855,-0.01534 -0.03736,-0.03046 -0.05664,-0.04492 -0.01928,-0.01446 -0.03863,-0.02748 -0.05859,-0.04102 -0.01996,-0.01354 -0.03993,-0.02647 -0.06055,-0.03906 -0.02062,-0.01259 -0.04125,-0.0255 -0.0625,-0.03711 -0.02125,-0.01161 -0.04262,-0.02261 -0.06445,-0.0332 -0.02184,-0.0106 -0.04401,-0.0198 -0.06641,-0.0293 -0.0224,-0.0095 -0.04544,-0.01884 -0.06836,-0.02734 -0.0044,-0.0016 -0.0093,-0.0023 -0.01367,-0.0039 C 20.84325,18.03167 20.674944,18 20.49998,18 Z m -0.02734,1 c 0.0088,-4.14e-4 0.01842,0 0.02734,0 0.276722,0 0.487157,0.200387 0.5,0.472656 V 19.5 v 1.412109 0.04297 H 20 V 20.912109 19.5 19.47266 c 0.01243,-0.263486 0.20917,-0.460227 0.472656,-0.472656 z" />
  <g
     id="g1753"
     transform="translate(17,-3)">
    <path
       id="path128-7"
       style="color:#000000;opacity:1;fill:#1a1a1a;fill-opacity:1;stroke-linecap:square;-inkscape-stroke:none"
       d="m 3.5,20 c -0.174964,0 -0.34327,0.03167 -0.5,0.08789 -0.00441,0.0016 -0.00928,0.0023 -0.013672,0.0039 -0.022923,0.0085 -0.045963,0.0178 -0.068359,0.02734 -0.022397,0.0095 -0.044569,0.0187 -0.066406,0.0293 -0.021838,0.01059 -0.043207,0.02159 -0.064453,0.0332 -0.021246,0.01161 -0.041878,0.02452 -0.0625,0.03711 -0.020622,0.01259 -0.040582,0.02552 -0.060547,0.03906 -0.019965,0.01354 -0.039318,0.02656 -0.058594,0.04102 -0.019276,0.01446 -0.038087,0.02958 -0.056641,0.04492 -0.018554,0.01534 -0.036888,0.03263 -0.054687,0.04883 -0.0178,0.01619 -0.035721,0.03181 -0.052734,0.04883 -0.017013,0.01701 -0.032634,0.03494 -0.048828,0.05273 -0.016193,0.0178 -0.033486,0.03613 -0.048828,0.05469 -0.015342,0.01855 -0.030465,0.03737 -0.044922,0.05664 -0.014457,0.01928 -0.027475,0.03863 -0.041016,0.05859 -0.01354,0.01996 -0.026472,0.03993 -0.039063,0.06055 -0.012591,0.02062 -0.025501,0.04125 -0.037109,0.0625 -0.011609,0.02125 -0.022609,0.04262 -0.033203,0.06445 -0.010594,0.02184 -0.01975,0.04401 -0.029297,0.06641 -0.00955,0.0224 -0.018876,0.04544 -0.027344,0.06836 -0.00847,0.02292 -0.016082,0.04689 -0.023437,0.07031 -0.00736,0.02342 -0.015273,0.04643 -0.021484,0.07031 -0.00621,0.02388 -0.010591,0.04796 -0.015625,0.07227 -0.00503,0.02431 -0.00985,0.04951 -0.013672,0.07422 -0.00382,0.0247 -0.00718,0.04915 -0.00977,0.07422 -0.00258,0.02507 -0.00455,0.05077 -0.00586,0.07617 C 2.0006459,21.449228 2,21.474302 2,21.5 V 25 H 3 V 23.955078 H 4 V 25 H 5 V 21.5 C 5,21.4743 4.99935,21.44924 4.99805,21.42383 4.99674,21.39843 4.99477,21.37273 4.99219,21.34766 4.9896,21.32259 4.98624,21.29814 4.98242,21.27344 4.9786,21.24873 4.97378,21.22353 4.968748,21.19922 4.963718,21.17491 4.959338,21.15083 4.953123,21.12695 4.946913,21.10307 4.938999,21.08006 4.931639,21.05664 4.924289,21.03322 4.916671,21.00925 4.908202,20.98633 4.899732,20.96341 4.890408,20.94037 4.880858,20.91797 4.871308,20.89557 4.862155,20.8734 4.851561,20.85156 4.840967,20.82973 4.829967,20.80836 4.818358,20.78711 4.80675,20.76586 4.79384,20.74523 4.781249,20.72461 4.768658,20.70399 4.755726,20.68402 4.742186,20.66406 4.728645,20.6441 4.715627,20.62475 4.70117,20.60547 4.686713,20.5862 4.67159,20.56738 4.656248,20.54883 4.640906,20.53027 4.623613,20.51194 4.60742,20.49414 4.591226,20.47635 4.575605,20.45842 4.558592,20.44141 4.541579,20.42439 4.523658,20.40877 4.505858,20.39258 4.488059,20.37638 4.469724,20.35909 4.451171,20.34375 4.432617,20.32841 4.413806,20.31329 4.39453,20.29883 4.375254,20.28437 4.355901,20.27135 4.335936,20.25781 4.315971,20.24427 4.296011,20.23134 4.275389,20.21875 4.254767,20.20616 4.234135,20.19325 4.212889,20.18164 4.191643,20.17003 4.170274,20.15903 4.148436,20.14844 4.126599,20.13784 4.104427,20.12864 4.08203,20.11914 4.059634,20.10964 4.036594,20.1003 4.013671,20.0918 4.0092799,20.090197 4.00441,20.089491 4,20.087891 3.84327,20.031673 3.674964,20 3.5,20 Z M 3.472656,21 C 3.481436,20.999586 3.491073,21 3.5,21 3.7767215,21 3.987157,21.200387 4,21.472656 V 21.5 v 1.412109 0.04297 H 3 V 22.912109 21.5 21.472656 C 3.0124287,21.20917 3.2091697,21.012429 3.472656,21 Z" />
    <path
       id="rect960"
       style="color:#000000;opacity:1;fill:#1a1a1a;fill-opacity:1;stroke-linecap:square;-inkscape-stroke:none"
       d="m -10,20 v 1 3 1 h 1 0.5 c 0.8223506,0 1.5,-0.677649 1.5,-1.5 0,-0.382577 -0.1470496,-0.733722 -0.3867188,-1 C -7.1470497,22.233722 -7,21.882577 -7,21.5 -7,20.677649 -7.6776494,20 -8.5,20 H -9 Z m 1,1 H -8.5 -8 V 21.5 22 H -8.5 -9 v -0.5 z m 0,2 H -8.5 -8 V 23.5 24 H -8.5 -9 v -0.5 z" />
    <path
       id="rect1115-6"
       style="opacity:1;fill:#1a1a1a;fill-opacity:1;stroke-linecap:square"
       d="m -6,20 v 5 h 1 2 v -1 h -2 v -1 h 1 v -1 h -1 v -1 h 2 v -1 h -2 z" />
    <path
       id="rect1115-6-2-9"
       style="opacity:1;fill:#1a1a1a;fill-opacity:1;stroke-linecap:square"
       d="m -2,20 v 1 h 1 v 4 H 0 V 21 H 1 V 20 H 0 -1 Z" />
  </g>
  <rect
     style="opacity:0.4;fill:none;fill-opacity:1;stroke:#002e99;stroke-width:1;stroke-linecap:square;stroke-miterlimit:4;stroke-dasharray:none;stroke-opacity:1"
     id="rect1540"
     width="18"
     height="8"
     x="5.5"
     y="15.5"
     rx="1.9999998"
     ry="2" />
  <path
     id="rect1245-3"
     style="fill:none;fill-opacity:1;stroke:url(#linearGradient969);stroke-width:1;stroke-linecap:square;stroke-miterlimit:4;stroke-dasharray:none;stroke-opacity:1;opacity:0.4"
     d="m 7.5,16.5 c -0.571296,0 -1,0.428703 -1,1 v 4 c 0,0.571297 0.428704,1 1,1 h 14 c 0.571296,0 1,-0.428703 1,-1 v -4 c 0,-0.571297 -0.428704,-1 -1,-1 z" />
</svg>
