<?xml version="1.0" encoding="UTF-8" standalone="no"?>
<svg
   id="svg4061"
   height="16"
   width="16"
   version="1.1"
   inkscape:version="1.1 (c68e22c387, 2021-05-23)"
   sodipodi:docname="microsoft-edge-beta_16.svg"
   xmlns:inkscape="http://www.inkscape.org/namespaces/inkscape"
   xmlns:sodipodi="http://sodipodi.sourceforge.net/DTD/sodipodi-0.dtd"
   xmlns:xlink="http://www.w3.org/1999/xlink"
   xmlns="http://www.w3.org/2000/svg"
   xmlns:svg="http://www.w3.org/2000/svg"
   xmlns:rdf="http://www.w3.org/1999/02/22-rdf-syntax-ns#"
   xmlns:cc="http://creativecommons.org/ns#"
   xmlns:dc="http://purl.org/dc/elements/1.1/">
  <sodipodi:namedview
     pagecolor="#ffffff"
     bordercolor="#666666"
     borderopacity="1"
     objecttolerance="10"
     gridtolerance="10"
     guidetolerance="10"
     inkscape:pageopacity="0"
     inkscape:pageshadow="2"
     inkscape:window-width="1366"
     inkscape:window-height="707"
     id="namedview40"
     showgrid="true"
     inkscape:zoom="32.000001"
     inkscape:cx="2.0468749"
     inkscape:cy="9.9218747"
     inkscape:window-x="0"
     inkscape:window-y="30"
     inkscape:window-maximized="1"
     inkscape:current-layer="svg4061"
     inkscape:document-rotation="0"
     inkscape:snap-global="true"
     inkscape:snap-bbox="true"
     inkscape:object-paths="true"
     inkscape:snap-intersection-paths="true"
     inkscape:snap-smooth-nodes="true"
     inkscape:snap-others="false"
     inkscape:snap-midpoints="true"
     inkscape:pagecheckerboard="0"
     inkscape:bbox-paths="true"
     inkscape:bbox-nodes="true"
     inkscape:snap-bbox-edge-midpoints="true"
     inkscape:snap-bbox-midpoints="true">
    <inkscape:grid
       type="xygrid"
       id="grid897" />
  </sodipodi:namedview>
  <defs
     id="defs4063">
    <inkscape:path-effect
       effect="fillet_chamfer"
       id="path-effect1878"
       is_visible="true"
       lpeversion="1"
       satellites_param="F,0,0,1,0,0,0,1 @ F,0,0,1,0,0,0,1 @ F,0,0,1,0,0,0,1 @ F,0,0,1,0,0,0,1 @ F,0,0,1,0,0,0,1 @ F,0,0,1,0,0,0,1 @ F,0,0,1,0,0,0,1 @ F,0,0,1,0,0,0,1 @ F,0,0,1,0,0,0,1 @ F,0,0,1,0,0,0,1 @ F,0,0,1,0,0,0,1 @ F,0,0,1,0,0,0,1 @ F,0,0,1,0,0,0,1 @ F,0,0,1,0,0,0,1"
       unit="px"
       method="auto"
       mode="F"
       radius="0"
       chamfer_steps="1"
       flexible="false"
       use_knot_distance="true"
       apply_no_radius="true"
       apply_with_radius="true"
       only_selected="false"
       hide_knots="false" />
    <inkscape:path-effect
       effect="fillet_chamfer"
       id="path-effect1761"
       is_visible="true"
       lpeversion="1"
       satellites_param="F,0,0,1,0,1,0,1 @ F,0,0,1,0,1,0,1 @ F,0,0,1,0,1,0,1 @ F,0,0,1,0,1,0,1 @ F,0,0,1,0,1,0,1 @ F,0,0,1,0,1,0,1 @ F,0,0,1,0,1,0,1 @ F,0,0,1,0,1,0,1 @ F,0,0,1,0,1,0,1 @ F,0,0,1,0,1,0,1 @ F,0,0,1,0,1,0,1 @ F,0,0,1,0,1,0,1 @ F,0,0,1,0,1,0,1"
       unit="px"
       method="auto"
       mode="F"
       radius="1"
       chamfer_steps="1"
       flexible="false"
       use_knot_distance="true"
       apply_no_radius="true"
       apply_with_radius="true"
       only_selected="false"
       hide_knots="false" />
    <inkscape:path-effect
       effect="fillet_chamfer"
       id="path-effect4084"
       is_visible="true"
       lpeversion="1"
       satellites_param="F,0,0,1,0,0,0,1 @ F,0,0,1,0,0,0,1 @ F,0,0,1,0,0,0,1 @ F,0,0,1,0,0,0,1 @ F,0,0,1,0,0,0,1 @ F,0,0,1,0,0,0,1 @ F,0,0,1,0,0,0,1 @ F,0,0,1,0,0,0,1 @ F,0,0,1,0,0,0,1 @ F,0,0,1,0,0,0,1 @ F,0,0,1,0,0,0,1 @ F,0,0,1,0,0,0,1"
       unit="px"
       method="auto"
       mode="F"
       radius="0"
       chamfer_steps="1"
       flexible="false"
       use_knot_distance="true"
       apply_no_radius="true"
       apply_with_radius="true"
       only_selected="false"
       hide_knots="false" />
    <inkscape:path-effect
       effect="fillet_chamfer"
       id="path-effect2895"
       is_visible="true"
       lpeversion="1"
       satellites_param="F,0,0,1,0,2,0,1 @ F,0,0,1,0,2,0,1 @ F,0,0,1,0,2,0,1 @ F,0,0,1,0,2,0,1 @ F,0,0,1,0,2,0,1"
       unit="px"
       method="auto"
       mode="F"
       radius="2"
       chamfer_steps="1"
       flexible="false"
       use_knot_distance="true"
       apply_no_radius="true"
       apply_with_radius="true"
       only_selected="false"
       hide_knots="false" />
    <inkscape:path-effect
       effect="fillet_chamfer"
       id="path-effect1990"
       is_visible="true"
       lpeversion="1"
       satellites_param="F,0,0,1,0,0,0,1 @ F,0,0,1,0,0,0,1 @ F,0,0,1,0,0,0,1 @ F,0,0,1,0,0,0,1 @ F,0,0,1,0,0,0,1 @ F,0,0,1,0,0,0,1 @ F,0,0,1,0,0,0,1 @ F,0,0,1,0,0,0,1"
       unit="px"
       method="auto"
       mode="F"
       radius="2"
       chamfer_steps="1"
       flexible="false"
       use_knot_distance="true"
       apply_no_radius="true"
       apply_with_radius="true"
       only_selected="false"
       hide_knots="false" />
    <inkscape:path-effect
       effect="fillet_chamfer"
       id="path-effect1851"
       is_visible="true"
       lpeversion="1"
       satellites_param="F,0,0,1,0,2,0,1 @ F,0,0,1,0,2,0,1 @ F,0,0,1,0,2,0,1 @ F,0,0,1,0,2,0,1 @ F,0,0,1,0,2,0,1 @ F,0,0,1,0,2,0,1 @ F,0,0,1,0,2,0,1 @ F,0,0,1,0,2,0,1"
       unit="px"
       method="auto"
       mode="F"
       radius="2"
       chamfer_steps="1"
       flexible="false"
       use_knot_distance="true"
       apply_no_radius="true"
       apply_with_radius="true"
       only_selected="false"
       hide_knots="false" />
    <inkscape:path-effect
       effect="fillet_chamfer"
       id="path-effect1545"
       is_visible="true"
       lpeversion="1"
       satellites_param="F,0,0,1,0,0,0,1 @ F,0,0,1,0,0,0,1 @ F,0,0,1,0,0,0,1 @ F,0,0,1,0,0,0,1 @ F,0,0,1,0,0,0,1 @ F,0,0,1,0,0,0,1 @ F,0,0,1,0,0,0,1 @ F,0,0,1,0,0,0,1"
       unit="px"
       method="auto"
       mode="F"
       radius="2"
       chamfer_steps="1"
       flexible="false"
       use_knot_distance="true"
       apply_no_radius="true"
       apply_with_radius="true"
       only_selected="false"
       hide_knots="false" />
    <inkscape:path-effect
       effect="fillet_chamfer"
       id="path-effect1066"
       is_visible="true"
       lpeversion="1"
       satellites_param="F,0,0,1,0,0,0,1 @ F,0,0,1,0,0,0,1 @ F,0,0,1,0,0,0,1 @ F,0,0,1,0,0,0,1 @ F,0,0,1,0,0,0,1 @ F,0,0,1,0,0,0,1 @ F,0,0,1,0,0,0,1 @ F,0,0,1,0,0,0,1"
       unit="px"
       method="auto"
       mode="F"
       radius="2"
       chamfer_steps="1"
       flexible="false"
       use_knot_distance="true"
       apply_no_radius="true"
       apply_with_radius="true"
       only_selected="false"
       hide_knots="false" />
    <inkscape:path-effect
       effect="fillet_chamfer"
       id="path-effect1026"
       is_visible="true"
       lpeversion="1"
       satellites_param="F,0,0,1,0,0,0,1 @ F,0,0,1,0,0,0,1 @ F,0,0,1,0,0,0,1 @ F,0,0,1,0,0,0,1 @ F,0,0,1,0,0,0,1 @ F,0,0,1,0,0,0,1 @ F,0,0,1,0,0,0,1 @ F,0,0,1,0,0,0,1"
       unit="px"
       method="auto"
       mode="F"
       radius="2"
       chamfer_steps="1"
       flexible="false"
       use_knot_distance="true"
       apply_no_radius="true"
       apply_with_radius="true"
       only_selected="false"
       hide_knots="false" />
    <radialGradient
       id="radialGradient1209"
       cx="113.37"
       cy="570.21002"
       r="202.42999"
       gradientTransform="matrix(-0.01126182,0.28154544,0.59969179,0.02252364,-256.27986,-48.334136)"
       gradientUnits="userSpaceOnUse">
      <stop
         offset="0"
         stop-color="#35c1f1"
         id="stop1203" />
      <stop
         offset="0.44249097"
         stop-color="#2bc3d2"
         id="stop1205"
         style="stop-color:#8cd5ff;stop-opacity:1" />
      <stop
         offset="0.70484996"
         stop-color="#36c752"
         id="stop1207"
         style="stop-color:#9bdb4d;stop-opacity:1" />
    </radialGradient>
    <linearGradient
       id="linearGradient3026"
       y2="40.496"
       gradientUnits="userSpaceOnUse"
       x2="71.204"
       gradientTransform="matrix(1.1437317,0,0,1.1437329,-65.829761,-10.982002)"
       y1="15.369"
       x1="71.204">
      <stop
         id="stop4808-4"
         stop-color="#fff"
         offset="0" />
      <stop
         id="stop4810-0"
         stop-color="#fff"
         stop-opacity=".23529"
         offset=".42448" />
      <stop
         id="stop4812-8"
         stop-color="#fff"
         stop-opacity=".15686"
         offset=".82090" />
      <stop
         id="stop4814-0"
         stop-color="#fff"
         stop-opacity=".39216"
         offset="1" />
    </linearGradient>
    <radialGradient
       id="radialGradient3029"
       fx="4.459"
       fy="8.5089"
       gradientUnits="userSpaceOnUse"
       cy="8.6258"
       cx="15.026"
       gradientTransform="matrix(-1.2795e-8,0.68981912,-0.64990241,-2.0020669e-8,13.539024,-3.7049227)"
       r="20">
      <stop
         id="stop4170"
         stop-color="#c24251"
         offset="0" />
      <stop
         id="stop4172"
         stop-color="#c24251"
         offset=".26238" />
      <stop
         id="stop4174"
         stop-color="#a63643"
         offset=".66094" />
      <stop
         id="stop4176"
         stop-color="#a63643"
         offset="1" />
    </radialGradient>
    <radialGradient
       id="radialGradient3032"
       gradientUnits="userSpaceOnUse"
       cy="3.99"
       cx="23.896"
       gradientTransform="matrix(0,1.0567714,-1.3949268,0,13.565732,-24.908693)"
       r="20.397">
      <stop
         id="stop3244-9-33-7-0-9"
         stop-color="#fff"
         offset="0" />
      <stop
         id="stop3246-3-5-0-8-5"
         stop-color="#ddd"
         offset=".26238" />
      <stop
         id="stop3248-1-7-8-8-1"
         stop-color="#abacae"
         offset=".66094" />
      <stop
         id="stop3250-9-3-0-5-1"
         stop-color="#89898b"
         offset="1" />
    </radialGradient>
    <radialGradient
       id="radialGradient3035"
       gradientUnits="userSpaceOnUse"
       cy="186.17"
       cx="99.157"
       gradientTransform="matrix(0.27083,0,0,0.087623,-2.8551,25.187)"
       r="62.769">
      <stop
         id="stop3822-2-6-3"
         stop-color="#3d3d3d"
         offset="0" />
      <stop
         id="stop3864-8-7-7"
         stop-color="#686868"
         stop-opacity=".49804"
         offset=".5" />
      <stop
         id="stop3824-1-2-5"
         stop-color="#686868"
         stop-opacity="0"
         offset="1" />
    </radialGradient>
    <linearGradient
       id="linearGradient4433"
       y2="25.611"
       gradientUnits="userSpaceOnUse"
       x2="23.078"
       gradientTransform="matrix(1,0,0,1.0521,0,-0.90547)"
       y1="13.035"
       x1="22.759">
      <stop
         id="stop6305-1-0-2"
         stop-color="#fff"
         offset="0" />
      <stop
         id="stop6307-5-0-6"
         stop-color="#fff"
         stop-opacity="0"
         offset="1" />
    </linearGradient>
    <radialGradient
       gradientTransform="matrix(0.27083381,0,0,0.08762273,-2.8550719,25.186634)"
       gradientUnits="userSpaceOnUse"
       xlink:href="#linearGradient3820-7-2-1"
       id="radialGradient3025"
       fy="186.17059"
       fx="99.157013"
       r="62.769119"
       cy="186.17059"
       cx="99.157013" />
    <linearGradient
       id="linearGradient3820-7-2-1">
      <stop
         offset="0"
         style="stop-color:#3d3d3d;stop-opacity:1"
         id="stop3822-2-6-3-3" />
      <stop
         offset="0.5"
         style="stop-color:#686868;stop-opacity:0.49803922"
         id="stop3864-8-7-7-6" />
      <stop
         offset="1"
         style="stop-color:#686868;stop-opacity:0"
         id="stop3824-1-2-5-7" />
    </linearGradient>
    <linearGradient
       gradientTransform="matrix(0.79814722,0,0,0.79814833,-45.607164,-10.241928)"
       gradientUnits="userSpaceOnUse"
       xlink:href="#linearGradient4806-9"
       id="linearGradient3024"
       y2="40.495617"
       x2="71.204407"
       y1="15.369057"
       x1="71.204407" />
    <linearGradient
       id="linearGradient4806-9">
      <stop
         offset="0"
         style="stop-color:#ffffff;stop-opacity:1"
         id="stop4808-49" />
      <stop
         offset="0.42447853"
         style="stop-color:#ffffff;stop-opacity:0.23529412"
         id="stop4810-05" />
      <stop
         offset="0.82089913"
         style="stop-color:#ffffff;stop-opacity:0.15686275"
         id="stop4812-6" />
      <stop
         offset="1"
         style="stop-color:#ffffff;stop-opacity:0.39215687"
         id="stop4814-7" />
    </linearGradient>
    <radialGradient
       gradientTransform="matrix(0.17524541,0,0,0.05575992,-1.3768109,18.118812)"
       gradientUnits="userSpaceOnUse"
       xlink:href="#linearGradient3820-7-2-1"
       id="radialGradient3034"
       fy="186.17059"
       fx="99.157013"
       r="62.769119"
       cy="186.17059"
       cx="99.157013" />
    <linearGradient
       y2="44.340794"
       x2="71.204407"
       y1="6.2375584"
       x1="71.204407"
       gradientTransform="matrix(0.36679536,0,0,0.36679574,-18.814885,2.0787956)"
       gradientUnits="userSpaceOnUse"
       id="linearGradient3089"
       xlink:href="#linearGradient4011-4" />
    <linearGradient
       id="linearGradient4011-4">
      <stop
         id="stop4013-8"
         style="stop-color:#ffffff;stop-opacity:1"
         offset="0" />
      <stop
         id="stop4015-5"
         style="stop-color:#ffffff;stop-opacity:0.23529412"
         offset="0.507761" />
      <stop
         id="stop4017-6"
         style="stop-color:#ffffff;stop-opacity:0.15686275"
         offset="0.83456558" />
      <stop
         id="stop4019-1"
         style="stop-color:#ffffff;stop-opacity:0.39215687"
         offset="1" />
    </linearGradient>
    <radialGradient
       xlink:href="#linearGradient3820-7-2-1"
       id="radialGradient3108"
       gradientUnits="userSpaceOnUse"
       gradientTransform="matrix(0.11151981,0,0,0.03548359,0.942029,15.166729)"
       cx="99.157013"
       cy="186.17059"
       fx="99.157013"
       fy="186.17059"
       r="62.769119" />
    <linearGradient
       xlink:href="#linearGradient4806-9"
       id="linearGradient3143"
       gradientUnits="userSpaceOnUse"
       gradientTransform="matrix(0.53069049,0,0,0.53069073,-48.303177,-7.288705)"
       x1="71.204407"
       y1="15.369057"
       x2="71.204407"
       y2="40.495617" />
    <radialGradient
       id="radialGradient3032-3"
       gradientUnits="userSpaceOnUse"
       cy="3.99"
       cx="23.896"
       gradientTransform="matrix(0,2.8885,-3.8128,0,-7.3194786,-87.848093)"
       r="20.396999">
      <stop
         id="stop3244-9-33-7-0-9-6"
         stop-color="#fff"
         offset="0" />
      <stop
         id="stop3246-3-5-0-8-5-7"
         stop-color="#ddd"
         offset=".26238" />
      <stop
         id="stop3248-1-7-8-8-1-5"
         stop-color="#abacae"
         offset=".66094" />
      <stop
         id="stop3250-9-3-0-5-1-3"
         stop-color="#89898b"
         offset="1" />
    </radialGradient>
    <radialGradient
       id="radialGradient3029-5"
       fx="4.4590001"
       fy="8.5088997"
       gradientUnits="userSpaceOnUse"
       cy="8.6258001"
       cx="15.026"
       gradientTransform="matrix(-3.4973e-8,1.8855,-1.7764,-5.4723e-8,39.14,-7.9932)"
       r="20">
      <stop
         id="stop4170-6"
         stop-color="#c24251"
         offset="0"
         style="stop-color:#c6262e;stop-opacity:1" />
      <stop
         id="stop4176-2"
         stop-color="#a63643"
         offset="1"
         style="stop-color:#a10705;stop-opacity:1" />
    </radialGradient>
    <linearGradient
       id="linearGradient3026-9"
       y2="40.495998"
       gradientUnits="userSpaceOnUse"
       x2="71.204002"
       gradientTransform="matrix(1.617,0,0,1.617,-139.23947,-42.958093)"
       y1="15.369"
       x1="71.204002">
      <stop
         id="stop4808-4-1"
         stop-color="#fff"
         offset="0" />
      <stop
         id="stop4810-0-2"
         stop-color="#fff"
         stop-opacity=".23529"
         offset=".42448" />
      <stop
         id="stop4812-8-7"
         stop-color="#fff"
         stop-opacity=".15686"
         offset=".82090" />
      <stop
         id="stop4814-0-0"
         stop-color="#fff"
         stop-opacity=".39216"
         offset="1" />
    </linearGradient>
    <radialGradient
       id="radialGradient3029-5-6"
       fx="4.4590001"
       fy="8.5088997"
       gradientUnits="userSpaceOnUse"
       cy="8.6258001"
       cx="15.026"
       gradientTransform="matrix(-3.4973e-8,1.8855,-1.7764,-5.4723e-8,39.14,-7.9932)"
       r="20">
      <stop
         id="stop4170-6-7"
         stop-color="#c24251"
         offset="0"
         style="stop-color:#c6262e;stop-opacity:1" />
      <stop
         id="stop4176-2-5"
         stop-color="#a63643"
         offset="1"
         style="stop-color:#a10705;stop-opacity:1" />
    </radialGradient>
    <radialGradient
       id="radialGradient3029-5-3"
       fx="4.4590001"
       fy="8.5088997"
       gradientUnits="userSpaceOnUse"
       cy="8.6258001"
       cx="15.026"
       gradientTransform="matrix(-3.4973e-8,1.8855,-1.7764,-5.4723e-8,39.14,-7.9932)"
       r="20">
      <stop
         id="stop4170-6-6"
         stop-color="#c24251"
         offset="0"
         style="stop-color:#c6262e;stop-opacity:1" />
      <stop
         id="stop4176-2-7"
         stop-color="#a63643"
         offset="1"
         style="stop-color:#a10705;stop-opacity:1" />
    </radialGradient>
    <radialGradient
       id="radialGradient3029-5-2"
       fx="4.4590001"
       fy="8.5088997"
       gradientUnits="userSpaceOnUse"
       cy="8.6258001"
       cx="15.026"
       gradientTransform="matrix(-3.4973e-8,1.8855,-1.7764,-5.4723e-8,39.14,-7.9932)"
       r="20">
      <stop
         id="stop4170-6-9"
         stop-color="#c24251"
         offset="0"
         style="stop-color:#c6262e;stop-opacity:1" />
      <stop
         id="stop4176-2-1"
         stop-color="#a63643"
         offset="1"
         style="stop-color:#a10705;stop-opacity:1" />
    </radialGradient>
    <radialGradient
       id="radialGradient3029-5-7"
       fx="4.4590001"
       fy="8.5088997"
       gradientUnits="userSpaceOnUse"
       cy="8.6258001"
       cx="15.026"
       gradientTransform="matrix(-3.4973e-8,1.8855,-1.7764,-5.4723e-8,39.14,-7.9932)"
       r="20">
      <stop
         id="stop4170-6-0"
         stop-color="#c24251"
         offset="0"
         style="stop-color:#c6262e;stop-opacity:1" />
      <stop
         id="stop4176-2-9"
         stop-color="#a63643"
         offset="1"
         style="stop-color:#a10705;stop-opacity:1" />
    </radialGradient>
    <radialGradient
       id="radialGradient1409"
       cx="113.37"
       cy="570.21002"
       r="202.42999"
       gradientTransform="matrix(-0.01126182,0.28154544,0.59969179,0.02252364,-256.27986,-48.334136)"
       gradientUnits="userSpaceOnUse">
      <stop
         offset="0"
         stop-color="#35c1f1"
         id="stop1399" />
      <stop
         offset="0.41450191"
         stop-color="#2bc3d2"
         id="stop1405"
         style="stop-color:#8cd5ff;stop-opacity:1" />
      <stop
         offset="0.71793836"
         stop-color="#36c752"
         id="stop1407"
         style="stop-color:#9bdb4d;stop-opacity:1" />
    </radialGradient>
    <linearGradient
       id="linearGradient4747">
      <stop
         id="stop4749"
         offset="0"
         style="stop-color:#ffffff;stop-opacity:1;" />
      <stop
         style="stop-color:#ffffff;stop-opacity:0.23529412"
         offset="0.23694834"
         id="stop4755" />
      <stop
         id="stop4757"
         offset="0.58626026"
         style="stop-color:#ffffff;stop-opacity:0.15686275" />
      <stop
         id="stop4751"
         offset="1"
         style="stop-color:#ffffff;stop-opacity:0.39215687" />
    </linearGradient>
    <radialGradient
       id="radialGradient3029-5-0"
       fx="4.4590001"
       fy="8.5088997"
       gradientUnits="userSpaceOnUse"
       cy="8.6258001"
       cx="15.026"
       gradientTransform="matrix(-3.4973e-8,1.8855,-1.7764,-5.4723e-8,39.14,-7.9932)"
       r="20">
      <stop
         id="stop4170-6-62"
         stop-color="#c24251"
         offset="0"
         style="stop-color:#c6262e;stop-opacity:1" />
      <stop
         id="stop4176-2-6"
         stop-color="#a63643"
         offset="1"
         style="stop-color:#a10705;stop-opacity:1" />
    </radialGradient>
    <radialGradient
       id="radialGradient1209-6"
       cx="113.37"
       cy="570.21002"
       r="202.42999"
       gradientTransform="matrix(-0.01126182,0.28154544,0.59969179,0.02252364,-256.27986,-48.334136)"
       gradientUnits="userSpaceOnUse">
      <stop
         offset="0"
         stop-color="#35c1f1"
         id="stop1203-7" />
      <stop
         offset="0.44249097"
         stop-color="#2bc3d2"
         id="stop1205-5"
         style="stop-color:#8cd5ff;stop-opacity:1" />
      <stop
         offset="0.70484996"
         stop-color="#36c752"
         id="stop1207-3"
         style="stop-color:#9bdb4d;stop-opacity:1" />
    </radialGradient>
    <radialGradient
       id="radialGradient1209-9"
       cx="113.37"
       cy="570.21002"
       r="202.42999"
       gradientTransform="matrix(-0.01126182,0.28154544,0.59969179,0.02252364,-256.27986,-48.334136)"
       gradientUnits="userSpaceOnUse">
      <stop
         offset="0"
         stop-color="#35c1f1"
         id="stop1203-1" />
      <stop
         offset="0.44249097"
         stop-color="#2bc3d2"
         id="stop1205-2"
         style="stop-color:#8cd5ff;stop-opacity:1" />
      <stop
         offset="0.70484996"
         stop-color="#36c752"
         id="stop1207-7"
         style="stop-color:#9bdb4d;stop-opacity:1" />
    </radialGradient>
    <radialGradient
       id="radialGradient1209-2"
       cx="113.37"
       cy="570.21002"
       r="202.42999"
       gradientTransform="matrix(-0.01126182,0.28154544,0.59969179,0.02252364,-256.27986,-48.334136)"
       gradientUnits="userSpaceOnUse">
      <stop
         offset="0"
         stop-color="#35c1f1"
         id="stop1203-6" />
      <stop
         offset="0.44249097"
         stop-color="#2bc3d2"
         id="stop1205-1"
         style="stop-color:#8cd5ff;stop-opacity:1" />
      <stop
         offset="0.70484996"
         stop-color="#36c752"
         id="stop1207-8"
         style="stop-color:#9bdb4d;stop-opacity:1" />
    </radialGradient>
    <radialGradient
       inkscape:collect="always"
       xlink:href="#radialGradient1209"
       id="radialGradient2105"
       cx="3"
       cy="4.9984603"
       fx="3"
       fy="4.9984603"
       r="7.2332878"
       gradientTransform="matrix(1.9354961,0,0,1.0935318,-2.8064884,-0.46597512)"
       gradientUnits="userSpaceOnUse" />
    <radialGradient
       id="radialGradient1209-67"
       cx="113.37"
       cy="570.21002"
       r="202.42999"
       gradientTransform="matrix(-0.01126182,0.28154544,0.59969179,0.02252364,-256.27986,-48.334136)"
       gradientUnits="userSpaceOnUse">
      <stop
         offset="0"
         stop-color="#35c1f1"
         id="stop1203-5" />
      <stop
         offset="0.44249097"
         stop-color="#2bc3d2"
         id="stop1205-3"
         style="stop-color:#8cd5ff;stop-opacity:1" />
      <stop
         offset="0.70484996"
         stop-color="#36c752"
         id="stop1207-5"
         style="stop-color:#9bdb4d;stop-opacity:1" />
    </radialGradient>
    <linearGradient
       inkscape:collect="always"
       xlink:href="#linearGradient4747"
       id="linearGradient1366"
       x1="8"
       y1="1"
       x2="8"
       y2="15"
       gradientUnits="userSpaceOnUse" />
    <linearGradient
       inkscape:collect="always"
       xlink:href="#linearGradient4747"
       id="linearGradient1029"
       x1="25"
       y1="7"
       x2="25"
       y2="14"
       gradientUnits="userSpaceOnUse"
       gradientTransform="translate(-17,1)" />
  </defs>
  <metadata
     id="metadata4066">
    <rdf:RDF>
      <cc:Work
         rdf:about="">
        <dc:format>image/svg+xml</dc:format>
        <dc:type
           rdf:resource="http://purl.org/dc/dcmitype/StillImage" />
        <dc:title />
      </cc:Work>
    </rdf:RDF>
  </metadata>
  <path
     id="path2287"
     style="opacity:0.4;fill:#000000;fill-opacity:1;stroke:none;stroke-width:1;stroke-linejoin:round"
     d="m 11.451702,9.3452216 a 4.5,4.5 0 0 0 0.01172,-0.119141 4.5,4.5 0 0 0 -0.002,-0.04883 1.4996586,1.4996586 0 0 1 -0.0098,0.128906 c 2.49e-4,0.01334 7.6e-5,0.02599 0,0.03906 z" />
  <path
     id="path953"
     style="opacity:1;fill:#0d52bf;fill-opacity:1;stroke:none;stroke-width:1;stroke-linejoin:round"
     d="m 6.6249996,7.341797 a 4.5,4.5 0 0 0 -0.228516,0.326172 4.5,4.5 0 0 0 -0.332031,0.710937 4.5,4.5 0 0 0 -0.203125,0.757813 4.5,4.5 0 0 0 -0.06836,0.78125 4.5,4.5 0 0 0 0.06836,0.78125 4.5,4.5 0 0 0 0.203125,0.757812 4.5,4.5 0 0 0 0.332031,0.710938 4.5,4.5 0 0 0 0.449219,0.642578 4.5,4.5 0 0 0 0.554688,0.554687 4.5,4.5 0 0 0 0.642578,0.449219 4.5,4.5 0 0 0 0.710937,0.332031 4.5,4.5 0 0 0 0.757813,0.203125 4.5,4.5 0 0 0 0.7812504,0.06836 4.5,4.5 0 0 0 0.78125,-0.06836 4.5,4.5 0 0 0 0.757812,-0.203125 4.5,4.5 0 0 0 0.710938,-0.332031 4.5,4.5 0 0 0 0.642578,-0.449219 4.5,4.5 0 0 0 0.09375,-0.08594 l 0.02148,0.02148 c 0.670471,-0.67116 1.20983,-1.466437 1.585938,-2.34375 0.156692,-0.365504 0.09113,-0.529021 -0.13086,-0.480469 -0.08601,0.01881 -0.194679,0.06911 -0.324218,0.152344 -0.120384,0.07735 -0.6093,0.368226 -1.128907,0.552735 C 11.718028,11.74436 9.9806756,11.534522 8.5878906,10.685547 8.1010366,10.388783 7.6567666,10.013725 7.2753906,9.566406 7.1048896,9.366424 6.9066186,9.074242 6.7539056,8.765625 A 1.4996586,1.4996586 0 0 1 6.4980466,7.931641 1.4996586,1.4996586 0 0 1 6.6249996,7.341797 Z" />
  <path
     id="path1722"
     style="opacity:1;fill:#3689e6;fill-opacity:1;stroke:none;stroke-width:1;stroke-linejoin:round"
     d="m 4.9980466,3.5 a 4.5,4.5 0 0 0 -0.876953,0.08789 4.5,4.5 0 0 0 -0.845703,0.255859 4.5,4.5 0 0 0 -0.777344,0.416016 4.5,4.5 0 0 0 -0.681641,0.558593 4.5,4.5 0 0 0 -0.560547,0.681641 4.5,4.5 0 0 0 -0.41601504,0.779297 4.5,4.5 0 0 0 -0.25586,0.84375 4.5,4.5 0 0 0 -0.08398,0.857422 c -5e-5,0.01303 -1.8e-5,0.02603 0,0.03906 0.0013,0.952947 0.183083,1.914956 0.56250004,2.833985 0.210552,0.509999 0.661647,1.291167 0.998047,1.728515 2.056577,2.67371 5.673113,3.640733 8.7910154,2.353516 0.510003,-0.210552 1.287806,-0.660954 1.72461,-0.998047 0.255797,-0.197404 0.497654,-0.40953 0.724609,-0.636719 l -0.02539,-0.02539 a 4.5,4.5 0 0 1 -0.08984,0.08984 4.5,4.5 0 0 1 -0.642578,0.449219 4.5,4.5 0 0 1 -0.710938,0.332031 4.5,4.5 0 0 1 -0.757812,0.203125 4.5,4.5 0 0 1 -0.78125,0.06836 4.5,4.5 0 0 1 -0.7812544,-0.06836 4.5,4.5 0 0 1 -0.757813,-0.203125 4.5,4.5 0 0 1 -0.710937,-0.332031 4.5,4.5 0 0 1 -0.642578,-0.449219 4.5,4.5 0 0 1 -0.554688,-0.554687 4.5,4.5 0 0 1 -0.449219,-0.642578 4.5,4.5 0 0 1 -0.332031,-0.710938 4.5,4.5 0 0 1 -0.203125,-0.757812 4.5,4.5 0 0 1 -0.06836,-0.78125 4.5,4.5 0 0 1 0.06836,-0.78125 A 4.5,4.5 0 0 1 6.0644566,8.3789 4.5,4.5 0 0 1 6.3964876,7.667963 4.5,4.5 0 0 1 6.6250036,7.341791 1.4996586,1.4996586 0 0 1 6.9160196,6.91601 L 5.0000036,4.999994 6.9160196,6.91601 a 1.4996586,1.4996586 0 0 1 0.28125,-0.242188 1.4996586,1.4996586 0 0 1 0.800781,-0.242187 1.4996586,1.4996586 0 0 1 1.494141,1.371093 4.5,4.5 0 0 0 -0.0039,-0.0957 4.5,4.5 0 0 0 -0.0293,-0.292968 4.5,4.5 0 0 0 -0.04687,-0.291016 4.5,4.5 0 0 0 -0.06836,-0.287109 4.5,4.5 0 0 0 -0.08398,-0.28125 A 4.5,4.5 0 0 0 9.1562656,6.279294 4.5,4.5 0 0 0 9.0332186,6.009763 4.5,4.5 0 0 0 8.8945466,5.749997 4.5,4.5 0 0 0 8.8418166,5.666017 4.5,4.5 0 0 0 8.7402536,5.500001 4.5,4.5 0 0 0 8.5683786,5.26172 4.5,4.5 0 0 0 8.3808786,5.033204 4.5,4.5 0 0 0 8.1797076,4.81836 4.5,4.5 0 0 0 7.9648636,4.617189 a 4.5,4.5 0 0 0 -0.226563,-0.1875 4.5,4.5 0 0 0 -0.240234,-0.169922 4.5,4.5 0 0 0 -0.25,-0.15625 4.5,4.5 0 0 0 -0.259766,-0.138672 4.5,4.5 0 0 0 -0.267578,-0.121094 4.5,4.5 0 0 0 -0.27539,-0.103516 4.5,4.5 0 0 0 -0.283204,-0.08594 4.5,4.5 0 0 0 -0.287109,-0.06641 4.5,4.5 0 0 0 -0.289062,-0.04883 4.5,4.5 0 0 0 -0.292969,-0.0293 4.5,4.5 0 0 0 -0.294922,-0.0098 z" />
  <path
     id="path2285"
     style="opacity:1;fill:url(#radialGradient2105);fill-opacity:1;stroke:none;stroke-width:1;stroke-linejoin:round"
     d="m 7.8476826,0.50135728 c -0.910037,0.017343 -1.826215,0.2024236 -2.703125,0.56445322 -0.51,0.210552 -1.287263,0.659694 -1.724609,0.9960937 C 1.5451166,3.503996 0.50872256,5.713511 0.50002656,7.979873 a 4.5,4.5 0 0 1 0.08398,-0.857422 4.5,4.5 0 0 1 0.255859,-0.84375 4.5,4.5 0 0 1 0.41601504,-0.779297 4.5,4.5 0 0 1 0.560547,-0.68164 4.5,4.5 0 0 1 0.681646,-0.558594 4.5,4.5 0 0 1 0.777344,-0.416016 4.5,4.5 0 0 1 0.845703,-0.255859 4.5,4.5 0 0 1 0.876953,-0.08789 4.5,4.5 0 0 1 0.294922,0.0098 4.5,4.5 0 0 1 0.292969,0.0293 4.5,4.5 0 0 1 0.289062,0.04883 4.5,4.5 0 0 1 0.287109,0.06641 4.5,4.5 0 0 1 0.283204,0.08594 4.5,4.5 0 0 1 0.27539,0.103515 4.5,4.5 0 0 1 0.267578,0.121094 4.5,4.5 0 0 1 0.259766,0.138672 4.5,4.5 0 0 1 0.25,0.15625 4.5,4.5 0 0 1 0.240234,0.169922 4.5,4.5 0 0 1 0.226563,0.1875 4.5,4.5 0 0 1 0.214844,0.201172 4.5,4.5 0 0 1 0.201171,0.214844 4.5,4.5 0 0 1 0.1875,0.228515 4.5,4.5 0 0 1 0.171876,0.238281 4.5,4.5 0 0 1 0.154296,0.25 4.5,4.5 0 0 1 0.138672,0.259766 4.5,4.5 0 0 1 0.123047,0.269531 4.5,4.5 0 0 1 0.103516,0.275391 4.5,4.5 0 0 1 0.08398,0.28125 4.5,4.5 0 0 1 0.06836,0.287109 4.5,4.5 0 0 1 0.04688,0.291016 4.5,4.5 0 0 1 0.0293,0.292969 4.5,4.5 0 0 1 0.0039,0.0957 1.4996586,1.4996586 0 0 1 0,0.0059 1.4996586,1.4996586 0 0 1 0.0059,0.123047 1.4996586,1.4996586 0 0 1 -0.002,0.01953 4.5,4.5 0 0 1 0.002,0.04883 4.5,4.5 0 0 1 -0.01172,0.11914 c -1.89e-4,0.03267 -0.0014,0.06503 -0.0059,0.0957 -0.0453,0.311119 0.163459,0.833375 0.6738284,1.039063 0.667542,0.269031 1.411235,0.327818 2.130859,0.15039 C 12.819554,9.272038 13.614781,8.814245 13.996121,8.417451 14.780575,7.601207 15.116329,6.455452 14.904324,5.351045 14.800579,4.810598 14.540422,4.338313 14.490261,4.251435 L 13.935574,3.421279 C 12.457409,1.4995495 10.173334,0.45703728 7.8476826,0.50135728 Z" />
  <path
     id="path2285-1"
     style="opacity:0.4;fill:none;fill-opacity:1;stroke:#002e99;stroke-width:1;stroke-linejoin:round;stroke-opacity:1"
     d="m 7.8477066,0.50135698 c -0.910037,0.017343 -1.826215,0.2024235 -2.703125,0.56445322 -0.51,0.210552 -1.287263,0.659694 -1.724609,0.9960937 C 1.5451406,3.503995 0.50874656,5.713511 0.50005056,7.979873 a 4.5,4.5 0 0 1 0.08398,-0.857422 4.5,4.5 0 0 1 0.255859,-0.84375 4.5,4.5 0 0 1 0.41601504,-0.779297 4.5,4.5 0 0 1 0.560547,-0.681641 4.5,4.5 0 0 1 0.681646,-0.558593 4.5,4.5 0 0 1 0.777344,-0.416016 4.5,4.5 0 0 1 0.845703,-0.255859 4.5,4.5 0 0 1 0.876953,-0.08789 4.5,4.5 0 0 1 0.294922,0.0098 4.5,4.5 0 0 1 0.292969,0.0293 4.5,4.5 0 0 1 0.289062,0.04883 4.5,4.5 0 0 1 0.287109,0.06641 4.5,4.5 0 0 1 0.283204,0.08594 4.5,4.5 0 0 1 0.27539,0.103515 4.5,4.5 0 0 1 0.267578,0.121094 4.5,4.5 0 0 1 0.259766,0.138672 4.5,4.5 0 0 1 0.25,0.15625 4.5,4.5 0 0 1 0.240234,0.169922 4.5,4.5 0 0 1 0.226563,0.1875 4.5,4.5 0 0 1 0.214844,0.201172 4.5,4.5 0 0 1 0.201171,0.214843 4.5,4.5 0 0 1 0.1875,0.228516 4.5,4.5 0 0 1 0.171876,0.238281 4.5,4.5 0 0 1 0.154296,0.25 4.5,4.5 0 0 1 0.138672,0.259766 4.5,4.5 0 0 1 0.123047,0.269531 4.5,4.5 0 0 1 0.103516,0.275391 4.5,4.5 0 0 1 0.08398,0.28125 4.5,4.5 0 0 1 0.06836,0.287109 4.5,4.5 0 0 1 0.04688,0.291016 4.5,4.5 0 0 1 0.0293,0.292968 4.5,4.5 0 0 1 0.0039,0.0957 1.4996586,1.4996586 0 0 1 0,0.0059 1.4996586,1.4996586 0 0 1 0.0059,0.123047 1.4996586,1.4996586 0 0 1 -0.002,0.01953 4.5,4.5 0 0 1 0.002,0.04883 4.5,4.5 0 0 1 -0.01172,0.119141 c -1.89e-4,0.03267 -0.0014,0.06503 -0.0059,0.0957 -0.0453,0.311119 0.163459,0.833375 0.6738284,1.039063 0.667542,0.269032 1.411235,0.327818 2.130859,0.150391 C 12.819578,9.272039 13.614805,8.814245 13.996145,8.417451 14.780599,7.601207 15.116353,6.455452 14.904348,5.351044 14.800603,4.810598 14.540446,4.338313 14.490285,4.251435 L 13.935598,3.421279 C 12.457433,1.4995492 10.173358,0.45703688 7.8477066,0.50135698 Z M 4.9980706,3.5 c -0.294489,5.31e-4 -0.588215,0.02997 -0.876953,0.08789 -0.289612,0.05734 -0.572878,0.143037 -0.845703,0.255859 -0.272107,0.112893 -0.532471,0.252233 -0.777344,0.416016 -0.244943,0.163447 -0.473251,0.350542 -0.681641,0.558594 -0.208732,0.208298 -0.396483,0.436609 -0.560547,0.68164 -0.163895,0.245493 -0.30323804,0.506516 -0.41601504,0.779297 -0.1127,0.272197 -0.198398,0.554803 -0.25586,0.84375 -0.05535,0.282464 -0.08348,0.569586 -0.08398,0.857422 -5e-5,0.01303 -1.8e-5,0.02603 0,0.03906 0.0013,0.952947 0.183083,1.914957 0.56250004,2.833985 0.210552,0.509999 0.661647,1.291167 0.998047,1.728515 2.056577,2.67371 5.673113,3.640733 8.7910154,2.353516 0.510003,-0.210552 1.287806,-0.660954 1.72461,-0.998047 0.255797,-0.197404 0.497654,-0.40953 0.724609,-0.636719 l -0.02539,-0.02539 c -0.02952,0.03037 -0.05947,0.06032 -0.08984,0.08984 -0.200715,0.168149 -0.415724,0.318459 -0.642578,0.449219 -0.22686,0.131166 -0.464743,0.242265 -0.710938,0.332031 -0.246209,0.08964 -0.499776,0.157608 -0.757812,0.203125 -0.257931,0.04548 -0.51934,0.06835 -0.78125,0.06836 -0.261911,-8e-6 -0.5233224,-0.02288 -0.7812544,-0.06836 -0.258036,-0.04552 -0.511604,-0.113483 -0.757813,-0.203125 -0.246195,-0.08977 -0.484078,-0.200865 -0.710937,-0.332031 -0.226854,-0.13076 -0.441863,-0.28107 -0.642578,-0.449219 -0.20069,-0.168397 -0.386291,-0.353997 -0.554688,-0.554687 -0.168149,-0.200712 -0.318459,-0.415721 -0.449219,-0.642575 -0.131166,-0.22686 -0.242265,-0.464743 -0.332031,-0.710938 -0.08964,-0.246209 -0.157608,-0.499776 -0.203125,-0.757812 -0.04548,-0.257931 -0.06835,-0.519341 -0.06836,-0.78125 8e-6,-0.26191 0.02288,-0.523319 0.06836,-0.78125 0.04552,-0.258036 0.113484,-0.511602 0.203125,-0.75781 0.08977,-0.246195 0.200865,-0.484078 0.332031,-0.710937 0.07132,-0.112043 0.147568,-0.220874 0.228516,-0.326172 0.07169,-0.157668 0.170151,-0.301725 0.291016,-0.425782 -2.123154,-2.123153 -2.123154,-2.123153 0,0 0.08336,-0.09206 0.177833,-0.173415 0.28125,-0.242187 0.238549,-0.155057 0.516284,-0.239055 0.800781,-0.242188 0.778405,-1e-6 1.427408,0.595554 1.49414,1.371094 -9.6e-4,-0.03191 -0.0023,-0.06382 -0.0039,-0.0957 -0.0066,-0.09795 -0.01634,-0.195658 -0.0293,-0.292969 -0.01244,-0.09749 -0.02807,-0.194548 -0.04687,-0.291015 -0.01964,-0.09642 -0.04244,-0.19218 -0.06836,-0.28711 -0.02493,-0.09464 -0.05294,-0.188438 -0.08398,-0.28125 -0.0315,-0.0929 -0.06603,-0.184746 -0.103527,-0.27539 -0.03805,-0.09117 -0.07908,-0.181063 -0.123047,-0.269532 -0.04338,-0.08808 -0.08963,-0.174713 -0.138672,-0.259765 -0.01727,-0.02819 -0.03485,-0.05618 -0.05273,-0.08398 -0.03265,-0.05606 -0.06652,-0.111416 -0.101563,-0.166016 -0.05468,-0.08128 -0.112005,-0.160746 -0.171875,-0.238281 -0.05998,-0.07821 -0.122514,-0.154418 -0.1875,-0.228516 -0.0647,-0.07379 -0.13179,-0.145442 -0.201172,-0.214843 -0.0694,-0.06938 -0.141054,-0.136476 -0.214843,-0.201172 -0.07346,-0.06495 -0.149019,-0.127485 -0.226563,-0.1875 -0.0782,-0.05924 -0.158325,-0.115916 -0.240234,-0.169922 -0.0816,-0.0548 -0.164982,-0.106911 -0.25,-0.15625 -0.08505,-0.04904 -0.171688,-0.09529 -0.259766,-0.138672 -0.08785,-0.04326 -0.177091,-0.08365 -0.267578,-0.121094 -0.09064,-0.0375 -0.18249,-0.07202 -0.275391,-0.103515 -0.09343,-0.03174 -0.187885,-0.0604 -0.283203,-0.08594 -0.09495,-0.02526 -0.190707,-0.04741 -0.287109,-0.06641 -0.0958,-0.01941 -0.192204,-0.0357 -0.289063,-0.04883 -0.09731,-0.01296 -0.195019,-0.02273 -0.292968,-0.0293 -0.09817,-0.0065 -0.196534,-0.0097 -0.294922,-0.0098 z m 1.626953,3.841797 a 4.5,4.5 0 0 0 -0.228516,0.326172 4.5,4.5 0 0 0 -0.332031,0.710937 4.5,4.5 0 0 0 -0.203125,0.757813 4.5,4.5 0 0 0 -0.06836,0.78125 4.5,4.5 0 0 0 0.06836,0.78125 4.5,4.5 0 0 0 0.203125,0.757812 4.5,4.5 0 0 0 0.332031,0.710938 4.5,4.5 0 0 0 0.449219,0.642578 4.5,4.5 0 0 0 0.554688,0.554687 4.5,4.5 0 0 0 0.642578,0.449219 4.5,4.5 0 0 0 0.710937,0.332031 4.5,4.5 0 0 0 0.757813,0.203125 4.5,4.5 0 0 0 0.7812504,0.06836 4.5,4.5 0 0 0 0.78125,-0.06836 4.5,4.5 0 0 0 0.757812,-0.203125 4.5,4.5 0 0 0 0.710938,-0.332031 4.5,4.5 0 0 0 0.642578,-0.449219 4.5,4.5 0 0 0 0.09375,-0.08594 l 0.02148,0.02148 c 0.670471,-0.67116 1.20983,-1.466437 1.585938,-2.34375 0.156692,-0.365504 0.09113,-0.529021 -0.13086,-0.480469 -0.08601,0.01881 -0.194679,0.06911 -0.324218,0.152344 -0.120384,0.07735 -0.6093,0.368226 -1.128907,0.552735 C 11.718052,11.74436 9.9806996,11.534522 8.5879146,10.685547 8.1010606,10.388782 7.6567906,10.013724 7.2754146,9.566406 7.1049136,9.366424 6.9066426,9.074243 6.7539296,8.765625 A 1.4996586,1.4996586 0 0 1 6.4980706,7.93164 1.4996586,1.4996586 0 0 1 6.6250236,7.341797 Z" />
  <path
     id="path953-6-3"
     style="opacity:0.4;fill:none;fill-opacity:1;stroke:url(#linearGradient1366);stroke-width:1;stroke-linejoin:round;stroke-opacity:1"
     d="m 7.8714736,1.5011755 c -0.787606,0.01501 -1.580584,0.174017 -2.341797,0.488282 -0.378616,0.15631 -1.174578,0.6164265 -1.498047,0.8652335 -2.317933,1.782918 -3.15874504,4.916502 -2.042969,7.619141 0.155824,0.377436 0.618119,1.176191 0.867188,1.5 1.782774,2.317746 4.916172,3.156928 7.6191404,2.041015 0.377549,-0.15587 1.173752,-0.616475 1.496094,-0.865234 0.28095,-0.216816 0.402251,-0.57022 0.642578,-0.828125 C 10.36699,12.72355 8.0293856,11.988783 6.5179576,10.216019 6.3047056,9.965894 6.1024236,9.648441 5.9203016,9.300004 5.6533036,8.894132 5.5036326,8.420969 5.5023326,7.934769 a 1.0001,1.0001 0 0 0 0,-0.002 c 0,-1.368866 1.131134,-2.5 2.5,-2.5 1.368866,0 2.5000004,1.131134 2.5000004,2.5 a 1.0001,1.0001 0 0 0 0,0.002 1.0001,1.0001 0 0 0 0,0.002 1.0001,1.0001 0 0 0 0,0.002 1.0001,1.0001 0 0 0 0,0.002 1.0001,1.0001 0 0 0 0,0.002 1.0001,1.0001 0 0 0 0,0.002 1.0001,1.0001 0 0 1 0,0.0059 1.0001,1.0001 0 0 0 0,0.002 1.0001,1.0001 0 0 0 0,0.002 1.0001,1.0001 0 0 0 0,0.002 1.0001,1.0001 0 0 0 0,0.002 1.0001,1.0001 0 0 0 0,0.002 1.0001,1.0001 0 0 0 0,0.002 c -0.0024,0.08209 -0.0091,0.164634 -0.01953,0.246094 v 0.002 c -0.0017,0.04972 0.0022,0.08233 -0.0078,0.15039 0.02036,-0.1399 -0.0045,-0.0999 0.0078,-0.07813 0.01231,0.02177 0.02182,0.03403 0.04883,0.04492 0.475203,0.191512 1.005346,0.234197 1.519531,0.107422 0.235762,-0.05812 1.063973,-0.535744 1.230466,-0.708984 0.559584,-0.582266 0.797584,-1.39646 0.646484,-2.183594 C 13.863224,5.204771 13.651985,4.79398 13.635145,4.76349 L 13.142958,4.026566 C 11.861429,2.3643405 9.8843586,1.4628155 7.8714736,1.5011755 Z" />
  <rect
     style="opacity:1;fill:#8cd5ff;fill-opacity:1;stroke:none;stroke-width:2;stroke-linecap:square"
     id="rect2037"
     width="15"
     height="8.000001"
     x="0.5"
     y="7.4999981"
     rx="1.9999999"
     ry="1.9999998" />
  <path
     style="color:#000000;opacity:0.15;fill:#1a1a1a;fill-opacity:1;stroke-width:0.999997;stroke-linecap:square;-inkscape-stroke:none"
     d="m 1,9.0000015 v 0.9936245 0.993623 2.980871 1.987247 h 2 0.5 c 0.194472,0 0.317835,-0.165088 0.5,-0.20765 v 0.20765 h 2 2 1 1 v 0.04463 h 2 1 2 V 11.52869 c 0,-0.03985 -0.0016,-0.08223 -0.0039,-0.126144 v -0.0039 c -0.0022,-0.04167 -0.0055,-0.08327 -0.0098,-0.124203 -0.0049,-0.04739 -0.01037,-0.08835 -0.01563,-0.122261 -0.0073,-0.04704 -0.01611,-0.08721 -0.02344,-0.122263 v -0.0039 c -0.0023,-0.01155 -0.0093,-0.0495 -0.02734,-0.11838 h 0.002 c -0.01833,-0.07016 -0.0324,-0.106185 -0.03516,-0.114501 l -0.002,-0.0039 c -0.0088,-0.02793 -0.02071,-0.06514 -0.03906,-0.1145 v -0.002 c -0.01513,-0.04053 -0.03011,-0.07804 -0.04492,-0.112559 v -0.002 c -0.0055,-0.01285 -0.02115,-0.04987 -0.04883,-0.106738 v -0.002 c -0.0172,-0.03517 -0.03748,-0.06995 -0.05664,-0.104796 -0.03059,-0.05564 -0.05181,-0.09058 -0.06055,-0.104796 -0.02163,-0.0352 -0.04299,-0.06754 -0.06445,-0.09897 -0.01218,-0.01784 -0.03408,-0.05162 -0.06836,-0.09704 h -0.0019 c -0.02771,-0.0367 -0.0509,-0.06748 -0.07227,-0.09315 -0.04457,-0.05359 -0.07255,-0.08299 -0.08008,-0.09121 -0.0067,-0.0074 -0.03315,-0.03682 -0.08203,-0.08539 -0.04842,-0.04814 -0.07784,-0.07424 -0.08594,-0.08151 h -0.002 c -0.009,-0.0081 -0.03673,-0.03595 -0.08984,-0.07957 -0.02571,-0.02112 -0.05655,-0.04601 -0.09375,-0.07375 -0.0457,-0.03406 -0.07971,-0.05582 -0.09766,-0.06792 -0.03163,-0.02132 -0.06418,-0.04255 -0.09961,-0.06404 -0.01431,-0.0086 -0.04947,-0.02976 -0.105469,-0.06016 -0.03557,-0.01932 -0.07151,-0.03897 -0.107422,-0.05628 -0.05652,-0.02725 -0.09363,-0.04106 -0.111328,-0.04852 -0.03242,-0.01366 -0.06934,-0.02916 -0.111328,-0.04463 l -0.0039,-0.002 h -0.002 c -0.140453,-0.05074 -0.145551,-0.05257 -0.01172,-0.0039 h -0.0039 l -0.002,-0.002 c -0.258726,-0.09213 -0.542155,-0.14533 -0.837753,-0.14533 -0.0269,0 -0.04949,0.01271 -0.07617,0.01358 -0.148376,0.0049 -0.28393,0.04411 -0.42383,0.07375 V 9 h -2 -1 -1 -2 -2 V 9.207651 C 3.817835,9.16509 3.694472,9.0000015 3.5,9.0000015 H 3 Z"
     id="path128-7-6-7-6" />
  <path
     id="path128-7-6-7"
     style="color:#000000;opacity:0.4;fill:#1a1a1a;fill-opacity:1;stroke-width:0.999998;stroke-linecap:square;-inkscape-stroke:none"
     d="m 2.00006,10 v 0.991096 2.973286 0.991097 h 1 0.5 c 0.822351,0 1.5,-0.671615 1.5,-1.486644 0,-0.37917 -0.14705,-0.727188 -0.386719,-0.991096 C 4.85301,12.213832 5.00006,11.865814 5.00006,11.486644 5.00006,10.671616 4.322411,10 3.50006,10 h -0.5 z m 3,1.486644 v 1.982192 1.486643 h 1 2 v -0.991096 h -2 v -0.991095 h 1 v -0.991096 h -1 v -0.991095 h 2 1 v 3.964382 h 1 v -3.964382 h 1 V 10 h -1 -1 -1 -2 -1 z m 7.5,-1.442122 c -0.174964,0 -0.34327,0.03139 -0.5,0.08711 -0.0044,0.0016 -0.0093,0.0023 -0.01367,0.0039 -0.02292,0.0084 -0.04596,0.01764 -0.06836,0.0271 -0.0224,0.0094 -0.04457,0.01853 -0.06641,0.02904 -0.02184,0.0105 -0.04321,0.0214 -0.06445,0.0329 -0.02125,0.01151 -0.04188,0.0243 -0.0625,0.03678 -0.02062,0.01248 -0.04058,0.02529 -0.06055,0.03871 -0.01996,0.01342 -0.03932,0.02632 -0.05859,0.04066 -0.01928,0.01433 -0.03809,0.02932 -0.05664,0.04452 -0.01855,0.0152 -0.03689,0.03234 -0.05469,0.0484 -0.0178,0.01605 -0.03573,0.03153 -0.05274,0.0484 -0.01701,0.01686 -0.03263,0.03464 -0.04883,0.05226 -0.01619,0.01764 -0.03349,0.03581 -0.04883,0.0542 -0.01534,0.01838 -0.03046,0.03704 -0.04492,0.05614 -0.01446,0.01911 -0.02748,0.03829 -0.04101,0.05807 -0.01354,0.01978 -0.02647,0.03957 -0.03906,0.06001 -0.01259,0.02044 -0.0255,0.04088 -0.03711,0.06194 -0.01161,0.02106 -0.02261,0.04224 -0.0332,0.06388 -0.01059,0.02165 -0.01975,0.04362 -0.0293,0.06582 -0.0095,0.0222 -0.01888,0.04503 -0.02734,0.06775 -0.0085,0.02272 -0.01608,0.04647 -0.02344,0.06968 -0.0074,0.02321 -0.01527,0.04602 -0.02148,0.06968 -0.0062,0.02367 -0.01059,0.04753 -0.01563,0.07163 -0.005,0.02409 -0.0099,0.04907 -0.01367,0.07356 -0.0038,0.02448 -0.0072,0.04871 -0.0098,0.07356 -0.0026,0.02485 -0.0046,0.05032 -0.0059,0.07549 -0.0012,0.02518 -0.002,0.05002 -0.002,0.07549 v 3.468835 h 1 v -1.035608 h 1 V 15 h 1 v -3.468835 c 0,-0.02547 -6.03e-4,-0.05031 -0.002,-0.07549 -0.0013,-0.02517 -0.0033,-0.05064 -0.0059,-0.07549 -0.0026,-0.02485 -0.006,-0.04908 -0.0098,-0.07356 -0.0038,-0.02449 -0.0086,-0.04947 -0.01367,-0.07356 -0.005,-0.02409 -0.0094,-0.04796 -0.01563,-0.07163 -0.0062,-0.02367 -0.01412,-0.04647 -0.02148,-0.06968 -0.0073,-0.02321 -0.01497,-0.04697 -0.02344,-0.06968 -0.0085,-0.02272 -0.01779,-0.04555 -0.02734,-0.06775 -0.0096,-0.0222 -0.0187,-0.04417 -0.0293,-0.06582 -0.01059,-0.02163 -0.02159,-0.04282 -0.0332,-0.06388 -0.01161,-0.02106 -0.02452,-0.04151 -0.03711,-0.06194 -0.01259,-0.02044 -0.02552,-0.04023 -0.03906,-0.06001 -0.01354,-0.01978 -0.02656,-0.03896 -0.04102,-0.05807 -0.01446,-0.0191 -0.02958,-0.03775 -0.04492,-0.05614 -0.01534,-0.01839 -0.03264,-0.03656 -0.04883,-0.0542 -0.01619,-0.01763 -0.03182,-0.0354 -0.04883,-0.05226 -0.01701,-0.01687 -0.03493,-0.03235 -0.05274,-0.04839 -0.0178,-0.01606 -0.03613,-0.03319 -0.05469,-0.04839 -0.01855,-0.0152 -0.03736,-0.03019 -0.05664,-0.04452 -0.01928,-0.01433 -0.03863,-0.02724 -0.05859,-0.04066 -0.01996,-0.01342 -0.03993,-0.02623 -0.06055,-0.03871 -0.02062,-0.01248 -0.04125,-0.02527 -0.0625,-0.03678 -0.02125,-0.01151 -0.04262,-0.02241 -0.06445,-0.0329 -0.02184,-0.0105 -0.04401,-0.01962 -0.06641,-0.02904 -0.0224,-0.0094 -0.04544,-0.01867 -0.06836,-0.0271 -0.0044,-0.0016 -0.0093,-0.0023 -0.01367,-0.0039 -0.15661,-0.05573 -0.325036,-0.08711 -0.5,-0.08711 z m -9.5,0.946574 h 0.5 0.5 v 0.495548 0.495547 h -0.5 -0.5 v -0.495547 z m 9.472656,0.04452 c 0.0088,-4.11e-4 0.01842,0 0.02734,0 0.276721,0 0.487157,0.198601 0.5,0.468446 v 0.0271 1.399535 0.04259 h -1 v -0.04259 -1.399535 -0.0271 c 0.01243,-0.261139 0.20917,-0.456129 0.472656,-0.468446 z M 3.00006,12.973287 h 0.5 0.5 v 0.495547 0.495547 h -0.5 -0.5 v -0.495547 z" />
  <g
     id="g2123"
     transform="translate(-2,-2.044922)">
    <path
       id="path128-7-6"
       style="color:#000000;fill:#1a1a1a;fill-opacity:1;stroke-linecap:square;-inkscape-stroke:none"
       d="m 14.50002,11.044922 c -0.174964,0 -0.34327,0.03167 -0.5,0.08789 -0.0044,0.0016 -0.0093,0.0023 -0.01367,0.0039 -0.02292,0.0085 -0.04596,0.0178 -0.06836,0.02734 -0.0224,0.0095 -0.04457,0.0187 -0.06641,0.0293 -0.02184,0.01059 -0.04321,0.02159 -0.06445,0.0332 -0.02125,0.01161 -0.04188,0.02452 -0.0625,0.03711 -0.02062,0.01259 -0.04058,0.02552 -0.06055,0.03906 -0.01996,0.01354 -0.03932,0.02656 -0.05859,0.04102 -0.01928,0.01446 -0.03809,0.02958 -0.05664,0.04492 -0.01855,0.01534 -0.03689,0.03263 -0.05469,0.04883 -0.0178,0.01619 -0.03572,0.03181 -0.05273,0.04883 -0.01701,0.01701 -0.03263,0.03494 -0.04883,0.05273 -0.01619,0.0178 -0.03349,0.03613 -0.04883,0.05469 -0.01534,0.01855 -0.03046,0.03737 -0.04492,0.05664 -0.01446,0.01928 -0.02748,0.03863 -0.04102,0.05859 -0.01354,0.01996 -0.02647,0.03993 -0.03906,0.06055 -0.01259,0.02062 -0.0255,0.04125 -0.03711,0.0625 -0.01161,0.02125 -0.02261,0.04262 -0.0332,0.06445 -0.01059,0.02184 -0.01975,0.04401 -0.0293,0.06641 -0.0095,0.0224 -0.01888,0.04544 -0.02734,0.06836 -0.0085,0.02292 -0.01608,0.04689 -0.02344,0.07031 -0.0074,0.02342 -0.01527,0.04643 -0.02148,0.07031 -0.0062,0.02388 -0.01059,0.04796 -0.01563,0.07227 -0.005,0.02431 -0.0099,0.04951 -0.01367,0.07422 -0.0038,0.0247 -0.0072,0.04915 -0.0098,0.07422 -0.0026,0.02507 -0.0046,0.05077 -0.0059,0.07617 C 13.0007,12.494152 13,12.519222 13,12.544922 v 3.5 h 1 V 15 h 1 v 1.044922 h 1 v -3.5 c 0,-0.0257 -6.5e-4,-0.05076 -0.002,-0.07617 -0.0013,-0.0254 -0.0033,-0.0511 -0.0059,-0.07617 -0.0026,-0.02507 -0.006,-0.04952 -0.0098,-0.07422 -0.0038,-0.02471 -0.0086,-0.04991 -0.01367,-0.07422 -0.005,-0.02431 -0.0094,-0.04839 -0.01563,-0.07227 -0.0062,-0.02388 -0.01412,-0.04689 -0.02148,-0.07031 -0.0073,-0.02342 -0.01497,-0.04739 -0.02344,-0.07031 -0.0085,-0.02292 -0.01779,-0.04596 -0.02734,-0.06836 -0.0096,-0.0224 -0.0187,-0.04457 -0.0293,-0.06641 -0.01059,-0.02183 -0.02159,-0.0432 -0.0332,-0.06445 -0.01161,-0.02125 -0.02452,-0.04188 -0.03711,-0.0625 -0.01259,-0.02062 -0.02552,-0.04059 -0.03906,-0.06055 -0.01354,-0.01996 -0.02656,-0.03931 -0.04102,-0.05859 -0.01446,-0.01927 -0.02958,-0.03809 -0.04492,-0.05664 -0.01534,-0.01856 -0.03264,-0.03689 -0.04883,-0.05469 -0.01619,-0.01779 -0.03182,-0.03572 -0.04883,-0.05273 -0.01701,-0.01702 -0.03493,-0.03264 -0.05273,-0.04883 -0.0178,-0.0162 -0.03613,-0.03349 -0.05469,-0.04883 -0.01855,-0.01534 -0.03736,-0.03046 -0.05664,-0.04492 -0.01928,-0.01446 -0.03863,-0.02748 -0.05859,-0.04102 -0.01996,-0.01354 -0.03993,-0.02647 -0.06055,-0.03906 -0.02062,-0.01259 -0.04125,-0.0255 -0.0625,-0.03711 -0.02125,-0.01161 -0.04262,-0.02261 -0.06445,-0.0332 -0.02184,-0.0106 -0.04401,-0.0198 -0.06641,-0.0293 -0.0224,-0.0095 -0.04544,-0.01884 -0.06836,-0.02734 -0.0044,-0.0016 -0.0093,-0.0023 -0.01367,-0.0039 -0.15661,-0.05623 -0.324916,-0.0879 -0.49988,-0.0879 z m -0.02734,1 c 0.0088,-4.14e-4 0.01842,0 0.02734,0 0.276721,0 0.487157,0.200387 0.5,0.472656 v 0.02734 1.412109 0.04297 h -1 v -0.04297 -1.412109 -0.02734 c 0.01243,-0.263486 0.20917,-0.460227 0.472656,-0.472656 z" />
    <path
       id="rect960-2"
       style="color:#000000;fill:#1a1a1a;fill-opacity:1;stroke-linecap:square;-inkscape-stroke:none"
       d="m 4,11 v 1 3 1 H 5 5.5 C 6.322351,16 7,15.322351 7,14.5 7,14.117423 6.85295,13.766278 6.613281,13.5 6.85295,13.233722 7,12.882577 7,12.5 7,11.677649 6.322351,11 5.5,11 H 5 Z m 1,1 H 5.5 6 V 12.5 13 H 5.5 5 v -0.5 z m 0,2 H 5.5 6 V 14.5 15 H 5.5 5 v -0.5 z" />
    <path
       id="rect1115-6-9"
       style="fill:#1a1a1a;fill-opacity:1;stroke-linecap:square"
       d="m 7,11 v 5 h 1 2 V 15 H 8 V 14 H 9 V 13 H 8 v -1 h 2 V 11 H 8 Z" />
    <path
       id="rect1115-6-2-9-1"
       style="fill:#1a1a1a;fill-opacity:1;stroke-linecap:square"
       d="m 10,11 v 1 h 1 v 4 h 1 v -4 h 1 v -1 h -1 -1 z" />
  </g>
  <rect
     style="opacity:0.4;fill:none;fill-opacity:1;stroke:#002e99;stroke-width:1;stroke-linecap:square;stroke-miterlimit:4;stroke-dasharray:none;stroke-opacity:1"
     id="rect964"
     width="15"
     height="7.9999995"
     x="0.5"
     y="7.4999995"
     rx="1.9999999"
     ry="1.9999996" />
  <path
     id="rect2037-3"
     style="opacity:0.3;fill:none;fill-opacity:1;stroke:url(#linearGradient1029);stroke-width:1;stroke-linecap:square;stroke-miterlimit:4;stroke-dasharray:none;stroke-opacity:1"
     d="m 2.5,8.5 c -0.571297,0 -1,0.4287036 -1,1 v 4 c 0,0.571296 0.428703,1 1,1 h 11 c 0.571297,0 1,-0.428704 1,-1 v -4 c 0,-0.5712964 -0.428703,-1 -1,-1 z" />
</svg>
