<?xml version="1.0" encoding="UTF-8" standalone="no"?>
<!-- Created with Inkscape (http://www.inkscape.org/) -->

<svg
   xmlns:dc="http://purl.org/dc/elements/1.1/"
   xmlns:cc="http://creativecommons.org/ns#"
   xmlns:rdf="http://www.w3.org/1999/02/22-rdf-syntax-ns#"
   xmlns:svg="http://www.w3.org/2000/svg"
   xmlns="http://www.w3.org/2000/svg"
   xmlns:xlink="http://www.w3.org/1999/xlink"
   xmlns:sodipodi="http://sodipodi.sourceforge.net/DTD/sodipodi-0.dtd"
   xmlns:inkscape="http://www.inkscape.org/namespaces/inkscape"
   id="svg4951"
   height="128"
   width="128"
   version="1.1"
   inkscape:version="0.92.3 (2405546, 2018-03-11)"
   sodipodi:docname="gitkraken_128.svg">
  <sodipodi:namedview
     pagecolor="#ffffff"
     bordercolor="#666666"
     borderopacity="1"
     objecttolerance="10"
     gridtolerance="10"
     guidetolerance="10"
     inkscape:pageopacity="0"
     inkscape:pageshadow="2"
     inkscape:window-width="1366"
     inkscape:window-height="705"
     id="namedview24"
     showgrid="false"
     inkscape:zoom="1.8685297"
     inkscape:cx="45.964376"
     inkscape:cy="16.777709"
     inkscape:window-x="0"
     inkscape:window-y="30"
     inkscape:window-maximized="1"
     inkscape:current-layer="svg4951" />
  <defs
     id="defs4953">
    <linearGradient
       inkscape:collect="always"
       id="linearGradient4156">
      <stop
         style="stop-color:#3fb2ab;stop-opacity:1;"
         offset="0"
         id="stop4158" />
      <stop
         style="stop-color:#308983;stop-opacity:1"
         offset="1"
         id="stop4160" />
    </linearGradient>
    <radialGradient
       id="radialGradient4448"
       gradientUnits="userSpaceOnUse"
       cy="-17.681"
       cx="14.892"
       gradientTransform="matrix(-3.6465695,9.654145e-8,-7.1800945e-8,-2.712052,118.15554,-31.326507)"
       r="25.571">
      <stop
         id="stop3750-1-0-7-6-6-1-3-9-3"
         stop-color="#5f5f5f"
         offset="0" />
      <stop
         id="stop3752-3-7-4-0-32-8-923-0-7"
         stop-color="#515151"
         offset=".26238" />
      <stop
         id="stop3754-1-8-5-2-7-6-7-1-9"
         stop-color="#404040"
         offset=".70495" />
      <stop
         id="stop3756-1-6-2-6-6-1-96-6-0"
         stop-color="#343434"
         offset="1" />
    </radialGradient>
    <linearGradient
       id="linearGradient4450"
       y2="32.568"
       gradientUnits="userSpaceOnUse"
       x2="15.124"
       gradientTransform="matrix(1.0992404,0,0,1.0992404,-45.078699,21.271724)"
       y1="-18.801"
       x1="15.124">
      <stop
         id="stop4413"
         stop-color="#fff"
         offset="0" />
      <stop
         id="stop4415"
         stop-color="#fff"
         stop-opacity="0"
         offset="1" />
    </linearGradient>
    <radialGradient
       xlink:href="#linearGradient3820-7-2"
       id="radialGradient3300-8"
       gradientUnits="userSpaceOnUse"
       gradientTransform="matrix(0.3823536,7.5555777e-8,-1.8372241e-8,0.1115198,-5.9254271,36.335849)"
       cx="99.189415"
       cy="185.29727"
       fx="99.189415"
       fy="185.29727"
       r="62.769119" />
    <linearGradient
       id="linearGradient3820-7-2">
      <stop
         id="stop3822-2-6"
         style="stop-color:#000000;stop-opacity:1"
         offset="0" />
      <stop
         id="stop3824-1-2"
         style="stop-color:#000000;stop-opacity:0"
         offset="1" />
    </linearGradient>
    <radialGradient
       xlink:href="#linearGradient3820-7-2"
       id="radialGradient4192-6"
       gradientUnits="userSpaceOnUse"
       gradientTransform="matrix(0.2549024,5.3967361e-8,-1.2248161e-8,0.07965545,6.7163816,44.240666)"
       cx="99.189415"
       cy="185.29727"
       fx="99.189415"
       fy="185.29727"
       r="62.769119" />
    <linearGradient
       inkscape:collect="always"
       xlink:href="#linearGradient4156"
       id="linearGradient850"
       x1="-43.230652"
       y1="14.611153"
       x2="-43.183392"
       y2="42.52816"
       gradientUnits="userSpaceOnUse"
       gradientTransform="matrix(2.5346281,0,0,2.5346281,173.98489,-0.85891477)" />
    <radialGradient
       r="62.769119"
       fy="185.29727"
       fx="99.189415"
       cy="185.29727"
       cx="99.189415"
       gradientTransform="matrix(0.3823536,7.5555777e-8,-1.8372241e-8,0.1115198,-5.9254271,36.335849)"
       gradientUnits="userSpaceOnUse"
       id="radialGradient3300"
       xlink:href="#linearGradient3820-7-2" />
    <radialGradient
       r="62.769119"
       fy="185.29727"
       fx="99.189415"
       cy="185.29727"
       cx="99.189415"
       gradientTransform="matrix(0.2549024,5.3967361e-8,-1.2248161e-8,0.07965545,6.7163816,44.240666)"
       gradientUnits="userSpaceOnUse"
       id="radialGradient4192"
       xlink:href="#linearGradient3820-7-2" />
    <linearGradient
       y2="40.495617"
       x2="71.204407"
       y1="15.369057"
       x1="71.204407"
       gradientTransform="matrix(4.1000601,0,0,4.1000601,-323.00631,-14.075736)"
       gradientUnits="userSpaceOnUse"
       id="linearGradient3293"
       xlink:href="#linearGradient4806" />
    <linearGradient
       id="linearGradient4806">
      <stop
         offset="0"
         style="stop-color:#ffffff;stop-opacity:1"
         id="stop4808" />
      <stop
         offset="0.42447853"
         style="stop-color:#ffffff;stop-opacity:0.23529412"
         id="stop4810" />
      <stop
         offset="0.82089913"
         style="stop-color:#ffffff;stop-opacity:0.15686275"
         id="stop4812" />
      <stop
         offset="1"
         style="stop-color:#ffffff;stop-opacity:0.39215687"
         id="stop4814" />
    </linearGradient>
    <radialGradient
       xlink:href="#linearGradient3820-7-2-8-6"
       id="radialGradient3163"
       gradientUnits="userSpaceOnUse"
       gradientTransform="matrix(0.6869404,0,0,0.21461693,-3.9963152,68.573341)"
       cx="99.157013"
       cy="186.17059"
       fx="99.157013"
       fy="186.17059"
       r="62.769119" />
    <linearGradient
       id="linearGradient3820-7-2-8-6">
      <stop
         id="stop3822-2-6-5-0"
         style="stop-color:#3d3d3d;stop-opacity:1"
         offset="0" />
      <stop
         id="stop3864-8-7-4-1"
         style="stop-color:#686868;stop-opacity:0.49803922"
         offset="0.5" />
      <stop
         id="stop3824-1-2-6-7"
         style="stop-color:#686868;stop-opacity:0"
         offset="1" />
    </linearGradient>
    <linearGradient
       gradientTransform="matrix(2.756758,0,0,2.7567581,-133.25196,-3.4037739)"
       gradientUnits="userSpaceOnUse"
       xlink:href="#linearGradient4011"
       id="linearGradient12398-3"
       y2="44.340794"
       x2="71.204407"
       y1="6.2375584"
       x1="71.204407" />
    <linearGradient
       id="linearGradient4011">
      <stop
         id="stop4013"
         style="stop-color:#ffffff;stop-opacity:1"
         offset="0" />
      <stop
         id="stop4015"
         style="stop-color:#ffffff;stop-opacity:0.23529412"
         offset="0.507761" />
      <stop
         id="stop4017"
         style="stop-color:#ffffff;stop-opacity:0.15686275"
         offset="0.83456558" />
      <stop
         id="stop4019"
         style="stop-color:#ffffff;stop-opacity:0.39215687"
         offset="1" />
    </linearGradient>
  </defs>
  <metadata
     id="metadata4956">
    <rdf:RDF>
      <cc:Work
         rdf:about="">
        <dc:format>image/svg+xml</dc:format>
        <dc:type
           rdf:resource="http://purl.org/dc/dcmitype/StillImage" />
        <dc:title />
      </cc:Work>
    </rdf:RDF>
  </metadata>
  <path
     inkscape:connector-curvature="0"
     style="fill:url(#radialGradient3163);fill-opacity:1;stroke:none"
     id="path3818-0-5-0"
     d="m 107.23729,108.52869 a 43.118645,13.471312 0 1 1 -86.237289,0 43.118645,13.471312 0 1 1 86.237289,0 z" />
  <circle
     style="fill:url(#radialGradient4448);stroke-width:0.69518918"
     id="path2985-6"
     cy="66.5"
     cx="64.5"
     r="52.025776" />
  <circle
     style="opacity:0.6;fill:none;stroke:#242424;stroke-width:0.94844997"
     id="path3755-9"
     cy="66.5"
     cx="64.5"
     r="52.025776" />
  <path
     inkscape:connector-curvature="0"
     d="M 115.5,66.498151 C 115.5,94.665628 92.6648,117.5 64.500613,117.5 36.33383,117.5 13.5,94.66536 13.5,66.498151 13.5,38.332017 36.33383,15.49995 64.500613,15.49995 92.6648,15.49995 115.5,38.332017 115.5,66.498151 Z"
     id="path8655-6-0-9-5-0"
     style="color:#000000;display:inline;overflow:visible;visibility:visible;opacity:0.5;fill:none;stroke:url(#linearGradient12398-3);stroke-width:1;stroke-linecap:round;stroke-linejoin:round;stroke-miterlimit:4;stroke-dasharray:none;stroke-dashoffset:0;stroke-opacity:1;marker:none;enable-background:accumulate" />
  <g
     id="g984"
     transform="translate(88.065399,-55.89397)">
    <path
       d="m -24.158035,92.240234 c -1.921134,0.139888 -3.838463,1.463751 -5.884766,3.302735 -2.046303,1.838984 -4.167684,4.261871 -6.107421,6.839841 -1.939738,2.57798 -3.693027,5.30556 -4.976563,7.75977 -1.283536,2.4542 -2.138672,4.56191 -2.138672,6.28515 v 2.08399 c 0,1.12977 0.549796,2.03803 1.191406,2.55273 0.641611,0.51471 1.280552,0.79938 1.894532,1.27735 1.191748,0.92773 2.527697,2.611 3.11914,7.68359 -1.404173,1.09558 -2.375,2.69711 -2.375,4.5957 0,2.39261 1.469151,4.37676 3.492188,5.32422 v 10.78711 c -10.411525,-4.71949 -17.685547,-15.1359 -17.685547,-27.33398 0,-11.3325 6.269726,-21.19216 15.523437,-26.330081 1.213047,-0.67391 1.679958,-2.207493 1.074219,-3.441406 -0.652024,-1.3265 -2.318478,-1.856291 -3.61914,-1.138672 h -0.002 c -10.869932,6.014688 -18.228516,17.614639 -18.228516,30.910159 0,16.61154 11.47467,30.54803 26.939453,34.3164 l 1.236328,0.30078 v -14.61328 c 0.409204,0.11694 0.821387,0.23475 1.240235,0.33399 v 15.4082 c -17.222163,-2.8245 -30.416016,-17.69289 -30.416016,-35.74609 0,-4.49671 0.822941,-8.81172 2.316406,-12.78516 l -0.002,0.002 c 0.495383,-1.30602 -0.152619,-2.78698 -1.429688,-3.32812 -1.360098,-0.58543 -2.964072,0.10614 -3.482422,1.49609 -2.17e-4,5.9e-4 2.2e-4,0.001 0,0.002 -3.46e-4,9.3e-4 -0.0016,10e-4 -0.002,0.002 -1.701485,4.54353 -2.63867,9.46444 -2.63867,14.61133 0,22.36702 17.696382,40.63112 39.865234,41.52539 l 1.041016,0.043 v -20.58789 c 0.417649,0.0103 0.843471,0.009 1.29492,0 v 20.57226 l 1.039063,-0.041 c 22.16923518,-0.87985 39.867187,-19.1447 39.867187,-41.51172 0,-5.1484 -0.93867,-10.06916 -2.640625,-14.62696 v -0.002 -0.002 c -0.51999,-1.37907 -2.112417,-2.08385 -3.482422,-1.49414 -1.286189,0.54497 -1.9314221,2.02903 -1.427734,3.33398 l -0.0039,-0.008 c 1.49347,3.97346 2.316406,8.28846 2.316406,12.78516 0,18.05392 -13.18072704,32.9218 -30.416015,35.74609 V 143.7207 c 0.419914,-0.0964 0.830085,-0.21583 1.240235,-0.33398 V 158 l 1.234374,-0.29883 c 15.46608044,-3.75419 26.941407,-17.70484 26.941407,-34.3164 0,-13.29456 -7.3598853,-24.893125 -18.228516,-30.908208 -1.2982692,-0.726077 -2.9656901,-0.196725 -3.621094,1.136719 -0.612164,1.24699 -0.139569,2.777071 1.0781253,3.44336 9.25062432,5.124349 15.5195312,14.982659 15.5195312,26.328129 0,12.18366 -7.27390755,22.59991 -17.6855475,27.33203 v -10.78711 c 2.0243695,-0.9467 3.50586,-2.92611 3.50586,-5.32227 0,-1.90387 -0.9783531,-3.50355 -2.375,-4.59765 0.5978804,-5.06417 1.9340427,-6.748 3.125,-7.67774 0.6136871,-0.47908 1.2523929,-0.76513 1.8925781,-1.28125 0.6401853,-0.51612 1.1875,-1.42362 1.1875,-2.55273 v -2.07032 c 0,-1.72324 -0.8554017,-3.8299 -2.1386718,-6.28515 -1.2832702,-2.45526 -3.0357808,-5.18483 -4.9746103,-7.76367 -1.938828,-2.578851 -4.05912,-5.003373 -6.103514,-6.841801 -2.042336,-1.836575 -3.952854,-3.159136 -5.871094,-3.296875 -0.401749,-0.03199 -0.807054,-0.03143 -1.21875,0 z m 16.7050776,1.980469 0.00195,0.002 0.00391,0.002 c 10.2519697,5.672769 17.1972656,16.602467 17.1972656,29.160157 0,15.23168 -10.2384068,27.98489 -24.1757812,31.96093 v -14.66601 l -1.328125,0.46093 c -1.016014,0.35223 -2.037825,0.63276 -3.097656,0.83399 l -0.814454,0.1543 v 19.38671 l 1.13086,-0.14843 c 18.78173567,-2.45797 33.285156,-18.53225 33.285156,-37.98242 0,-4.7406 -0.867119,-9.29656 -2.443359,-13.49024 l -0.002,-0.004 -0.002,-0.004 c -0.115202,-0.29847 0.02636,-0.64062 0.341797,-0.77344 l 0.0059,-0.002 0.0039,-0.002 c 0.317808,-0.13772 0.69255,0.0277 0.820313,0.36328 1.620791,4.34105 2.513671,9.02081 2.513671,13.92578 0,20.95322 -16.29205995,38.0002 -36.90625,39.36914 v -20.44922 l -1.058593,0.0644 c -1.136286,0.0677 -2.257416,0.0541 -3.177735,0 l -1.058593,-0.0625 V 162.781 c -20.613676,-1.38295 -36.90625,-18.43023 -36.90625,-39.38281 0,-4.90563 0.892939,-9.58752 2.513671,-13.91406 v -0.002 c 0.130352,-0.35138 0.493287,-0.50108 0.820313,-0.35937 l 0.0039,0.002 0.0059,0.002 c 0.324576,0.13667 0.463338,0.45372 0.339843,0.7793 l -0.002,0.002 v 0.002 c -1.576235,4.19365 -2.443359,8.74767 -2.443359,13.48828 0,19.45065 14.517253,35.52439 33.285156,37.98242 l 1.130859,0.14844 v -19.375 l -0.802662,-0.16201 c -1.066262,-0.21595 -2.082422,-0.50079 -3.125,-0.84375 l -1.3125,-0.43164 v 14.64062 c -13.937646,-3.98862 -24.175781,-16.72794 -24.175781,-31.95898 0,-12.55768 6.945298,-23.487411 17.197265,-29.160159 0.332758,-0.183593 0.692726,-0.06553 0.857422,0.269531 0.154661,0.31505 0.05773,0.641539 -0.25,0.8125 -9.868629,5.479338 -16.552734,16.007558 -16.552734,28.078128 0,13.56517 8.413522,25.17222 20.320312,29.85351 l 1.365235,0.53711 v -14.95312 c 0.183465,0.0239 0.345176,0.10937 0.535156,0.10937 2.399138,0 4.337891,-1.96887 4.337891,-4.33789 0,-2.38409 -1.953807,-4.33789 -4.337891,-4.33789 -0.553287,0 -1.072462,0.12822 -1.558594,0.31836 l -0.03711,-0.36328 c -0.593667,-5.76289 -2.330807,-8.20258 -3.947266,-9.46094 -0.808229,-0.62918 -1.518215,-0.97473 -1.871094,-1.25781 -0.352878,-0.28308 -0.443359,-0.34263 -0.443359,-0.99414 v -2.08399 c 0,-0.95219 0.691628,-3.02751 1.910156,-5.35742 1.218529,-2.3299 2.922929,-4.98605 4.802735,-7.48437 1.879805,-2.49832 3.941525,-4.84363 5.847656,-6.556643 1.906131,-1.713014 3.7118,-2.723592 4.691406,-2.794922 h 0.002 0.002 c 0.317168,-0.02444 0.614919,-0.02397 0.914063,0 h 0.0039 0.0059 c 0.973511,0.06869 2.777561,1.076814 4.68164,2.789063 1.904079,1.712248 3.962843,4.057432 5.841797,6.556642 1.878954,2.49921 3.5824264,5.15723 4.8007809,7.48828 1.2183544,2.33105 1.9101562,4.40718 1.9101562,5.35937 v 2.07032 c 0,0.65216 -0.089301,0.71222 -0.4414062,0.99609 -0.352105,0.28387 -1.0623784,0.63191 -1.8691406,1.26172 -1.6135245,1.25963 -3.3483133,3.69749 -3.9492183,9.45312 l -0.04102,0.39454 c -0.490379,-0.19333 -1.015959,-0.31836 -1.570312,-0.31836 -2.384095,0 -4.337891,1.95186 -4.337891,4.33593 0,2.39913 1.968862,4.33789 4.337891,4.33789 0.189504,0 0.351861,-0.0855 0.535156,-0.10937 v 14.92773 l 1.367188,-0.53906 C 0.08570764,148.5428 8.4982145,136.9363 8.4982145,123.38477 c 0,-12.0842 -6.6850159,-22.61469 -16.5546875,-28.080082 l -0.00195,-0.002 h -0.00195 c -0.2748617,-0.150397 -0.3923655,-0.506657 -0.2441406,-0.808593 0.1606684,-0.326886 0.5450897,-0.445489 0.8515625,-0.273438 z M -33.408035,132.26953 c 1.305216,0 2.337891,1.03268 2.337891,2.33789 0,1.2921 -1.019569,2.33789 -2.337891,2.33789 -1.318322,0 -2.337891,-1.04579 -2.337891,-2.33789 0,-1.29208 1.019566,-2.33789 2.337891,-2.33789 z m 19.685547,0.0156 c 1.292098,0 2.337891,1.01761 2.33789,2.33593 0,1.30521 -1.032691,2.33789 -2.33789,2.33789 -1.292111,0 -2.337891,-1.01956 -2.337891,-2.33789 0,-1.30518 1.032686,-2.33593 2.337891,-2.33593 z m 28.134264,-23.14151 c -0.32388,-0.85897 -1.30956,-1.29548 -2.15444,-0.92936 -0.802629,0.33795 -1.196916,1.25322 -0.887115,2.05585 1.534855,4.08357 2.379725,8.51917 2.379725,13.13782 0,18.95339 -14.1235005,34.59767 -32.415066,36.99149 V 142.9809 c 1.11241,-0.21121 2.18258,-0.50692 3.238679,-0.87304 v 14.64452 c 15.0247145,-3.64706 26.177079,-17.19322 26.177079,-33.34445 0,-12.9266 -7.1532775,-24.191607 -17.7142275,-30.035345 -0.802633,-0.450592 -1.830577,-0.126726 -2.238922,0.704068 -0.380195,0.774463 -0.08447,1.717921 0.661808,2.126264 9.561193,5.294573 16.03857,15.489403 16.03857,27.205013 0,13.13782 -8.153054,24.37467 -19.6856075,28.92293 v -12.98292 c 1.99953,-0.63366 3.5062325,-2.49239 3.5062325,-4.71724 0,-1.84465 -0.957532,-3.43582 -2.4360625,-4.29479 1.1687485,-11.1946 6.2661715,-8.25162 6.2661715,-11.81417 v -2.06995 c 0,-5.35088 -12.3774305,-22.7835 -18.1648315,-23.191844 -0.352049,-0.02821 -0.70407,-0.02821 -1.07019,0 -5.801479,0.422437 -18.17891,17.840964 -18.17891,23.191844 v 2.08403 c 0,3.56255 5.1115,0.60549 6.26617,11.81419 -1.49262,0.85895 -2.436059,2.45014 -2.436059,4.29477 0,2.22485 1.49261,4.08357 3.492159,4.71723 v 12.98292 c -11.53256,-4.53416 -19.685609,-15.77101 -19.685609,-28.92291 0,-11.70153 6.477379,-21.89638 16.03855,-27.20501 0.76039,-0.422436 1.04202,-1.351801 0.66182,-2.126282 -0.40836,-0.830782 -1.42221,-1.154656 -2.23892,-0.70405 -10.56095,5.843718 -17.71423,17.108742 -17.71423,30.035342 0,16.15121 11.152369,29.6833 26.17707,33.34444 v -14.64453 c 1.07019,0.35205 2.12628,0.64775 3.2387,0.87305 v 17.41851 c -18.27749,-2.3938 -32.41507,-18.03809 -32.41507,-36.99147 0,-4.61866 0.84487,-9.05426 2.37972,-13.13782 0.30979,-0.81672 -0.0845,-1.71792 -0.887121,-2.05587 -0.84487,-0.36612 -1.83055,0.0563 -2.154429,0.92936 -1.66158,4.4356 -2.57687,9.23732 -2.57687,14.26433 0,21.84005 17.263639,39.65283 38.90654,40.52588 v -20.54456 c 0.95751,0.0563 2.112189,0.0705 3.29502,0 v 20.53047 c 21.6428955,-0.85896 38.906537,-18.67174 38.906537,-40.51179 0,-5.02701 -0.91529,-9.82873 -2.576871,-14.2784 z m -28.134377,22.1639 c 1.83056,0 3.337264,1.47853 3.337264,3.33726 0,1.84465 -1.492624,3.33726 -3.337264,3.33726 -1.83057,0 -3.33726,-1.47853 -3.33726,-3.33726 0,-1.84463 1.49261,-3.33726 3.33726,-3.33726 z m -19.68561,6.66045 c -1.85873,0 -3.33726,-1.50671 -3.33726,-3.33727 0,-1.83055 1.47853,-3.33725 3.33726,-3.33725 1.844651,0 3.33726,1.4926 3.33726,3.33725 0,1.83056 -1.47853,3.33727 -3.33726,3.33727 z"
       style="color:#000000;font-style:normal;font-variant:normal;font-weight:normal;font-stretch:normal;font-size:medium;line-height:normal;font-family:sans-serif;font-variant-ligatures:normal;font-variant-position:normal;font-variant-caps:normal;font-variant-numeric:normal;font-variant-alternates:normal;font-feature-settings:normal;text-indent:0;text-align:start;text-decoration:none;text-decoration-line:none;text-decoration-style:solid;text-decoration-color:#000000;letter-spacing:normal;word-spacing:normal;text-transform:none;writing-mode:lr-tb;direction:ltr;text-orientation:mixed;dominant-baseline:auto;baseline-shift:baseline;text-anchor:start;white-space:normal;shape-padding:0;clip-rule:nonzero;display:inline;overflow:visible;visibility:visible;opacity:0.15;isolation:auto;mix-blend-mode:normal;color-interpolation:sRGB;color-interpolation-filters:linearRGB;solid-color:#000000;solid-opacity:1;vector-effect:none;fill:#000000;fill-opacity:1;fill-rule:nonzero;stroke:none;stroke-width:2;stroke-linecap:butt;stroke-linejoin:miter;stroke-miterlimit:4;stroke-dasharray:none;stroke-dashoffset:0;stroke-opacity:1;color-rendering:auto;image-rendering:auto;shape-rendering:auto;text-rendering:auto;enable-background:accumulate"
       id="path2-0-9"
       inkscape:connector-curvature="0" />
    <path
       style="opacity:0.3;fill:#000000;fill-opacity:1;stroke-width:0.99999994"
       inkscape:connector-curvature="0"
       id="path2-5"
       d="m 14.411774,109.14362 c -0.32388,-0.85897 -1.30956,-1.29549 -2.15444,-0.92937 -0.802629,0.33795 -1.196916,1.25322 -0.887115,2.05586 1.534855,4.08357 2.379725,8.51917 2.379725,13.13782 0,18.95339 -14.123501,34.59767 -32.415079,36.99149 V 142.9809 c 1.11242,-0.21121 2.182594,-0.50692 3.238684,-0.87304 v 14.64452 c 15.024722,-3.64706 26.177087,-17.19323 26.177087,-33.34445 0,-12.92661 -7.153278,-24.19161 -17.714227,-30.03534 -0.80263,-0.4506 -1.83058,-0.12673 -2.23892,0.70406 -0.3802,0.77447 -0.0845,1.71793 0.6618,2.12627 9.561198,5.29457 16.038575,15.4894 16.038575,27.20501 0,13.13782 -8.153054,24.37467 -19.685615,28.92293 v -12.98292 c 1.99954,-0.63366 3.50624,-2.49239 3.50624,-4.71724 0,-1.84465 -0.95753,-3.43582 -2.43607,-4.29479 1.16876,-11.19461 6.26618,-8.25162 6.26618,-11.81417 v -2.06995 c 0,-5.35088 -12.377434,-22.7835 -18.164844,-23.19184 -0.35204,-0.0282 -0.70407,-0.0282 -1.07018,0 -5.80148,0.42243 -18.17891,17.84096 -18.17891,23.19184 v 2.08402 c 0,3.56256 5.11149,0.60549 6.26617,11.81419 -1.49263,0.85895 -2.43606,2.45014 -2.43606,4.29478 0,2.22485 1.49261,4.08357 3.49216,4.71723 v 12.98292 c -11.53256,-4.53416 -19.68562,-15.77101 -19.68562,-28.92291 0,-11.70153 6.47738,-21.89638 16.03856,-27.20501 0.76039,-0.42243 1.04202,-1.3518 0.66182,-2.12628 -0.40836,-0.83078 -1.42221,-1.15466 -2.23892,-0.70405 -10.56095,5.84372 -17.71423,17.10874 -17.71423,30.03534 0,16.15121 11.15237,29.6833 26.17707,33.34444 v -14.64453 c 1.07018,0.35205 2.12628,0.64775 3.23869,0.87305 v 17.41851 c -18.27749,-2.3938 -32.41507,-18.03809 -32.41507,-36.99147 0,-4.61867 0.84488,-9.05427 2.37973,-13.13782 0.30978,-0.81673 -0.0845,-1.71792 -0.88712,-2.05587 -0.84487,-0.36612 -1.83056,0.0563 -2.15443,0.92936 -1.66159,4.4356 -2.57688,9.23732 -2.57688,14.26433 0,21.84005 17.26364,39.65283 38.90655,40.52588 v -20.54456 c 0.95751,0.0563 2.11219,0.0705 3.29501,0 v 20.53047 c 21.642908,-0.85896 38.906549,-18.67174 38.906549,-40.51179 0,-5.02701 -0.91529,-9.82873 -2.57687,-14.2784 z m -28.134375,22.1639 c 1.83056,0 3.33726,1.47853 3.33726,3.33726 0,1.84465 -1.49263,3.33726 -3.33726,3.33726 -1.83058,0 -3.337264,-1.47853 -3.337264,-3.33726 0,-1.84464 1.492614,-3.33726 3.337264,-3.33726 z m -19.685614,6.66044 c -1.85873,0 -3.33726,-1.5067 -3.33726,-3.33726 0,-1.83056 1.47853,-3.33726 3.33726,-3.33726 1.84465,0 3.33726,1.49261 3.33726,3.33726 0,1.83056 -1.47853,3.33726 -3.33726,3.33726 z" />
  </g>
  <path
     d="m 102.47718,52.249763 c -0.32388,-0.858967 -1.30956,-1.295483 -2.15444,-0.929363 -0.802629,0.33795 -1.196916,1.25322 -0.887115,2.055853 1.534855,4.083572 2.379725,8.519172 2.379725,13.13782 0,18.953392 -14.123501,34.597677 -32.41507,36.991497 V 86.087048 c 1.112417,-0.211211 2.182587,-0.506925 3.238679,-0.873045 v 14.644523 c 15.024718,-3.647058 26.177083,-17.193225 26.177083,-33.344453 0,-12.926602 -7.153278,-24.191601 -17.714228,-30.035339 -0.802633,-0.450592 -1.830577,-0.126726 -2.238922,0.704068 -0.380195,0.774463 -0.08447,1.717921 0.661808,2.126264 9.561193,5.29457 16.03857,15.4894 16.03857,27.205007 0,13.137826 -8.153054,24.374675 -19.685612,28.922932 V 82.454083 c 1.999535,-0.633659 3.506237,-2.492388 3.506237,-4.717234 0,-1.84465 -0.957532,-3.435822 -2.436067,-4.29479 1.168753,-11.194607 6.266176,-8.251619 6.266176,-11.814173 v -2.069947 c 0,-5.350886 -12.377433,-22.7835 -18.164836,-23.191844 -0.352042,-0.02821 -0.704069,-0.02821 -1.070185,0 -5.801477,0.422437 -18.178911,17.840958 -18.178911,23.191844 v 2.084023 c 0,3.562555 5.111498,0.60549 6.266174,11.81419 -1.492626,0.85895 -2.436064,2.450139 -2.436064,4.294776 0,2.224846 1.49261,4.083572 3.49216,4.717228 V 95.45108 C 41.589783,90.916916 33.436729,79.680065 33.436729,66.528166 c 0,-11.70153 6.47738,-21.89638 16.038554,-27.205007 0.760389,-0.422436 1.042019,-1.351801 0.661824,-2.126282 -0.408361,-0.830782 -1.422213,-1.154656 -2.238921,-0.70405 -10.560951,5.843718 -17.714229,17.108737 -17.714229,30.035339 0,16.151208 11.152365,29.683302 26.177065,33.344437 V 85.22808 c 1.070187,0.352043 2.126284,0.64775 3.238697,0.873043 v 17.418517 c -18.27749,-2.3938 -32.415071,-18.038096 -32.415071,-36.991474 0,-4.618664 0.844877,-9.054264 2.379728,-13.13782 0.309782,-0.816726 -0.08447,-1.717921 -0.88712,-2.055871 -0.844874,-0.366119 -1.830558,0.05626 -2.154432,0.929362 -1.661584,4.4356 -2.576874,9.237318 -2.576874,14.264329 0,21.840048 17.26364,39.652834 38.906543,40.525884 V 86.509486 c 0.957513,0.05626 2.112189,0.07046 3.295017,0 v 20.530474 c 21.642899,-0.85896 38.90654,-18.671746 38.90654,-40.511794 0,-5.027011 -0.91529,-9.828729 -2.57687,-14.278403 z M 74.342805,74.413666 c 1.83056,0 3.337262,1.478533 3.337262,3.337262 0,1.844651 -1.492627,3.337259 -3.337262,3.337259 -1.830575,0 -3.33726,-1.478533 -3.33726,-3.337259 0,-1.844637 1.492609,-3.337262 3.33726,-3.337262 z m -19.685611,6.660446 c -1.858728,0 -3.337259,-1.506703 -3.337259,-3.337263 0,-1.830558 1.478531,-3.337258 3.337259,-3.337258 1.84465,0 3.33726,1.492608 3.33726,3.337258 0,1.83056 -1.478533,3.337263 -3.33726,3.337263 z"
     id="path2"
     inkscape:connector-curvature="0"
     style="fill:url(#linearGradient850);fill-opacity:1;stroke-width:0.99999994" />
</svg>
