<?xml version="1.0" encoding="UTF-8" standalone="no"?>
<!-- Created with Inkscape (http://www.inkscape.org/) -->

<svg
   xmlns:dc="http://purl.org/dc/elements/1.1/"
   xmlns:cc="http://creativecommons.org/ns#"
   xmlns:rdf="http://www.w3.org/1999/02/22-rdf-syntax-ns#"
   xmlns:svg="http://www.w3.org/2000/svg"
   xmlns="http://www.w3.org/2000/svg"
   xmlns:xlink="http://www.w3.org/1999/xlink"
   xmlns:sodipodi="http://sodipodi.sourceforge.net/DTD/sodipodi-0.dtd"
   xmlns:inkscape="http://www.inkscape.org/namespaces/inkscape"
   id="svg4951"
   height="16"
   width="16"
   version="1.1"
   inkscape:version="0.92.3 (2405546, 2018-03-11)"
   sodipodi:docname="gitkraken_16.svg">
  <sodipodi:namedview
     pagecolor="#ffffff"
     bordercolor="#666666"
     borderopacity="1"
     objecttolerance="10"
     gridtolerance="10"
     guidetolerance="10"
     inkscape:pageopacity="0"
     inkscape:pageshadow="2"
     inkscape:window-width="1366"
     inkscape:window-height="705"
     id="namedview24"
     showgrid="false"
     inkscape:zoom="2.6424999"
     inkscape:cx="11.720983"
     inkscape:cy="-5.7992089"
     inkscape:window-x="0"
     inkscape:window-y="30"
     inkscape:window-maximized="1"
     inkscape:current-layer="svg4951" />
  <defs
     id="defs4953">
    <linearGradient
       inkscape:collect="always"
       id="linearGradient4156">
      <stop
         style="stop-color:#3fb2ab;stop-opacity:1;"
         offset="0"
         id="stop4158" />
      <stop
         style="stop-color:#308983;stop-opacity:1"
         offset="1"
         id="stop4160" />
    </linearGradient>
    <radialGradient
       id="radialGradient4448"
       gradientUnits="userSpaceOnUse"
       cy="-17.681"
       cx="14.892"
       gradientTransform="matrix(-0.52749357,1.3965179e-8,-1.0386347e-8,-0.3923112,15.761529,-6.1510682)"
       r="25.571">
      <stop
         id="stop3750-1-0-7-6-6-1-3-9-3"
         stop-color="#5f5f5f"
         offset="0" />
      <stop
         id="stop3752-3-7-4-0-32-8-923-0-7"
         stop-color="#515151"
         offset=".26238" />
      <stop
         id="stop3754-1-8-5-2-7-6-7-1-9"
         stop-color="#404040"
         offset=".70495" />
      <stop
         id="stop3756-1-6-2-6-6-1-96-6-0"
         stop-color="#343434"
         offset="1" />
    </radialGradient>
    <linearGradient
       id="linearGradient4450"
       y2="32.568"
       gradientUnits="userSpaceOnUse"
       x2="15.124"
       gradientTransform="matrix(0.28018352,0,0,0.28018352,-12.260646,-0.43698444)"
       y1="-18.801"
       x1="15.124">
      <stop
         id="stop4413"
         stop-color="#fff"
         offset="0" />
      <stop
         id="stop4415"
         stop-color="#fff"
         stop-opacity="0"
         offset="1" />
    </linearGradient>
    <radialGradient
       xlink:href="#linearGradient3820-7-2"
       id="radialGradient3300-8"
       gradientUnits="userSpaceOnUse"
       gradientTransform="matrix(0.3823536,7.5555777e-8,-1.8372241e-8,0.1115198,-5.9254271,36.335849)"
       cx="99.189415"
       cy="185.29727"
       fx="99.189415"
       fy="185.29727"
       r="62.769119" />
    <linearGradient
       id="linearGradient3820-7-2">
      <stop
         id="stop3822-2-6"
         style="stop-color:#000000;stop-opacity:1"
         offset="0" />
      <stop
         id="stop3824-1-2"
         style="stop-color:#000000;stop-opacity:0"
         offset="1" />
    </linearGradient>
    <radialGradient
       xlink:href="#linearGradient3820-7-2"
       id="radialGradient4192-6"
       gradientUnits="userSpaceOnUse"
       gradientTransform="matrix(0.2549024,5.3967361e-8,-1.2248161e-8,0.07965545,6.7163816,44.240666)"
       cx="99.189415"
       cy="185.29727"
       fx="99.189415"
       fy="185.29727"
       r="62.769119" />
    <linearGradient
       inkscape:collect="always"
       xlink:href="#linearGradient4156"
       id="linearGradient850"
       x1="-43.230652"
       y1="14.611153"
       x2="-43.183392"
       y2="42.52816"
       gradientUnits="userSpaceOnUse"
       gradientTransform="matrix(0.37499997,0,0,0.37499997,8.9192725,11.84688)" />
    <linearGradient
       x1="71.204407"
       y1="6.2375584"
       x2="71.204407"
       y2="44.340794"
       id="linearGradient3071"
       xlink:href="#linearGradient4011"
       gradientUnits="userSpaceOnUse"
       gradientTransform="matrix(0.35135136,0,0,0.35135136,-17.203671,-0.90643062)" />
    <linearGradient
       id="linearGradient4011">
      <stop
         id="stop4013"
         style="stop-color:#ffffff;stop-opacity:1"
         offset="0" />
      <stop
         id="stop4015"
         style="stop-color:#ffffff;stop-opacity:0.23529412"
         offset="0.507761" />
      <stop
         id="stop4017"
         style="stop-color:#ffffff;stop-opacity:0.15686275"
         offset="0.83456558" />
      <stop
         id="stop4019"
         style="stop-color:#ffffff;stop-opacity:0.39215687"
         offset="1" />
    </linearGradient>
    <linearGradient
       inkscape:collect="always"
       xlink:href="#linearGradient4156"
       id="linearGradient4162-6"
       x1="23.894039"
       y1="14.030275"
       x2="23.916746"
       y2="39.006622"
       gradientUnits="userSpaceOnUse"
       gradientTransform="matrix(0.375,0,0,0.375,1.6906338,17.030038)" />
    <linearGradient
       inkscape:collect="always"
       xlink:href="#linearGradient4156"
       id="linearGradient906-0"
       gradientUnits="userSpaceOnUse"
       gradientTransform="matrix(0.37499997,0,0,0.37499997,-19.998936,19.279915)"
       x1="-43.230652"
       y1="14.611153"
       x2="-43.183392"
       y2="42.52816" />
    <linearGradient
       inkscape:collect="always"
       xlink:href="#linearGradient4156"
       id="linearGradient906-0-0"
       gradientUnits="userSpaceOnUse"
       gradientTransform="matrix(0.37499997,0,0,0.37499997,-19.998936,19.279915)"
       x1="-43.230652"
       y1="14.611153"
       x2="-43.183392"
       y2="42.52816" />
    <linearGradient
       inkscape:collect="always"
       xlink:href="#linearGradient4156"
       id="linearGradient1163-1"
       gradientUnits="userSpaceOnUse"
       gradientTransform="matrix(0.37499997,0,0,0.37499997,16.201997,17.714545)"
       x1="-43.230652"
       y1="14.611153"
       x2="-43.183392"
       y2="42.52816" />
    <linearGradient
       inkscape:collect="always"
       xlink:href="#linearGradient4156"
       id="linearGradient931"
       x1="24.496094"
       y1="-0.2734375"
       x2="24.617935"
       y2="11.04375"
       gradientUnits="userSpaceOnUse"
       gradientTransform="translate(-16.600459,2.5380855)" />
  </defs>
  <metadata
     id="metadata4956">
    <rdf:RDF>
      <cc:Work
         rdf:about="">
        <dc:format>image/svg+xml</dc:format>
        <dc:type
           rdf:resource="http://purl.org/dc/dcmitype/StillImage" />
        <dc:title />
      </cc:Work>
    </rdf:RDF>
  </metadata>
  <circle
     style="fill:url(#radialGradient4448);stroke-width:2.72742653"
     id="path2985-6"
     cy="8"
     cx="8"
     r="7.525775" />
  <circle
     style="opacity:0.6;fill:none;stroke:#242424;stroke-width:0.94844997"
     id="path3755-9"
     cy="8"
     cx="8"
     r="7.525775" />
  <g
     id="g991"
     transform="translate(-38.734952,-7.137954)">
    <path
       inkscape:connector-curvature="0"
       id="path1305-2"
       d="m 46.630181,9.3574219 -0.07227,0.00391 c -0.688356,0.050123 -1.025371,0.3954425 -1.371094,0.7285161 -0.345722,0.333072 -0.658015,0.730491 -0.943359,1.148437 -0.285345,0.417946 -0.538564,0.852955 -0.732422,1.267578 -0.154066,0.329516 -0.235327,0.651038 -0.285156,1.021485 -0.366035,0.06534 -0.783552,0.05972 -0.958984,0.273437 -0.280162,0.341309 -0.325948,0.63866 -0.347657,0.716797 -0.02587,0.0931 -0.02715,0.258886 -0.05078,0.369141 -0.197944,-0.0985 -0.382521,-0.228871 -0.603515,-0.232422 -0.35272,-0.0057 -0.742772,0.143474 -0.986329,0.365234 -0.243558,0.22176 -0.35535,0.465967 -0.419921,0.660157 -0.129144,0.388377 -0.09961,0.705078 -0.09961,0.705078 v 0.01953 l 0.002,0.01953 c 0.279067,3.401762 2.989466,6.116006 6.390625,6.402344 l 0.08398,0.0078 v 0.08398 l 0.5,-0.04297 0.5,0.04297 v -0.08398 l 0.08203,-0.0078 c 3.40204,-0.285285 6.113352,-2.999802 6.392578,-6.402344 l 0.002,-0.02734 v -0.02734 c 0,0 0.02277,-0.313366 -0.113281,-0.6875 -0.06803,-0.187067 -0.184932,-0.419921 -0.416016,-0.626953 -0.231085,-0.207035 -0.584166,-0.352092 -0.919922,-0.363282 -0.237461,-0.0079 -0.449206,0.1186 -0.662109,0.222656 -0.02358,-0.118121 -0.01935,-0.244157 -0.05078,-0.359374 -0.0032,-0.02145 -0.04307,-0.317087 -0.289063,-0.65625 -0.127353,-0.175585 -0.334036,-0.386033 -0.648437,-0.507813 -0.129388,-0.05012 -0.273912,0.006 -0.417969,-0.002 -0.07161,-0.319491 -0.137603,-0.632059 -0.289063,-0.921875 -0.217508,-0.4162 -0.498192,-0.85206 -0.810546,-1.267578 -0.312438,-0.41548 -0.651427,-0.807018 -1.013672,-1.132813 -0.36233,-0.3257562 -0.691514,-0.6565346 -1.378992,-0.7050399 z m -0.515625,6.8105471 c 0.02301,0.01668 0.03457,0.03457 0.05469,0.05469 -0.0074,0.03361 -0.03402,0.05745 -0.03906,0.0918 z m 1.232422,0.03711 -0.0078,0.07813 c -0.0027,-0.01833 -0.01806,-0.0307 -0.02148,-0.04883 0.01125,-0.01028 0.01723,-0.02001 0.0293,-0.0293 z"
       style="opacity:0.15;fill:#000000;fill-opacity:1;stroke:none;stroke-width:1;stroke-linejoin:miter;stroke-miterlimit:4;stroke-dasharray:none;stroke-opacity:1" />
    <path
       inkscape:connector-curvature="0"
       id="path1305-6"
       d="m 46.630545,10.402336 c -0.858332,0.0625 -2.480469,2.639973 -2.480469,3.43164 v 0.308594 c 0,0.527084 0.754945,0.08776 0.925781,1.746094 -0.220836,0.127082 -0.359375,0.363803 -0.359375,0.636719 0,0.329166 0.21979,0.603515 0.515625,0.697265 v 0.314453 0.953126 c -0.925512,-0.535272 -1.496211,-1.522646 -1.498047,-2.591798 1.07e-4,-0.246995 0.05998,-0.609659 0.08984,-0.728515 0.02986,-0.118856 0.137627,-0.666053 -0.320312,-0.806641 -0.457938,-0.140588 -0.572854,0.291215 -0.621094,0.464844 -0.04824,0.173629 -0.148527,0.706231 -0.148438,1.070312 0.0017,1.627652 0.989494,3.091962 2.498047,3.703126 v 1.054688 c -1.876614,-0.593594 -3.273019,-2.248588 -3.470699,-4.271485 0,0 0.0068,-0.679138 -0.513672,-0.6875 -0.520459,-0.0084 -0.490234,0.6875 -0.490234,0.6875 0.23968,2.921645 2.555436,5.242357 5.476562,5.488282 v -1 c -6.46e-4,-6.6e-5 -0.0013,6.5e-5 -0.002,0 v -1.011719 c 0.166373,0.0229 0.334022,0.03529 0.501953,0.03711 0.166626,-0.002 0.332967,-0.01438 0.498047,-0.03711 v 1.521484 h 0.002 v 0.490235 c 2.921889,-0.245021 5.2387,-2.565963 5.478517,-5.488282 0,0 0.01743,-0.633667 -0.484375,-0.650391 -0.501805,-0.01672 -0.519531,0.650391 -0.519531,0.650391 -0.200202,2.023008 -1.59846,3.678572 -3.476564,4.269531 v -1.050781 c 1.510748,-0.6102 2.500401,-2.075755 2.501954,-3.705079 -9.54e-4,-0.366489 -0.05558,-0.729041 -0.154297,-1.078125 0,0 -0.127754,-0.630973 -0.654296,-0.447265 -0.526542,0.183707 -0.285157,0.789062 -0.285157,0.789062 0.06106,0.239717 0.0934,0.487021 0.09375,0.736328 -0.002,1.070655 -0.574336,2.059122 -1.501954,2.593751 v -1.271485 c 0.295833,-0.09375 0.519532,-0.368099 0.519533,-0.697266 0,-0.272917 -0.142579,-0.509633 -0.36133,-0.636718 0.172923,-1.65625 0.927736,-1.220965 0.927736,-1.748047 v -0.304688 c 0,-0.791668 -1.831251,-3.371227 -2.687501,-3.43164 z m -0.712891,5.613281 c 0.276143,0 0.5,0.223858 0.5,0.5 0,0.276142 -0.223857,0.5 -0.5,0.5 -0.276142,0 -0.5,-0.223858 -0.5,-0.5 0,-0.276142 0.223858,-0.5 0.5,-0.5 z m 1.632813,0.02734 c 0.276142,0 0.5,0.223858 0.5,0.5 0,0.276142 -0.223858,0.5 -0.5,0.5 -0.276142,0 -0.5,-0.223858 -0.5,-0.5 0,-0.276142 0.223858,-0.5 0.5,-0.5 z"
       style="opacity:0.3;fill:#000000;fill-opacity:1;stroke:none;stroke-width:1;stroke-linejoin:miter;stroke-miterlimit:4;stroke-dasharray:none;stroke-opacity:1" />
  </g>
  <path
     style="opacity:1;fill:url(#linearGradient931);fill-opacity:1;stroke:none;stroke-width:1;stroke-linejoin:miter;stroke-miterlimit:4;stroke-dasharray:none;stroke-opacity:1"
     d="m 7.8956347,2.264648 c -0.858332,0.0625 -2.480469,2.6399736 -2.480469,3.4316406 v 0.3085938 c 0,0.527084 0.754945,0.08776 0.925781,1.7460937 -0.220836,0.127082 -0.359375,0.3638028 -0.359375,0.6367188 0,0.329166 0.21979,0.6035155 0.515625,0.6972656 V 9.3994136 10.352539 C 5.5716847,9.8172676 5.0009857,8.8298929 4.9991497,7.7607417 c 1.07e-4,-0.246995 0.059984,-0.6096597 0.089844,-0.7285156 0.02986,-0.1188559 0.137627,-0.6660525 -0.320312,-0.8066406 -0.457938,-0.1405881 -0.572854,0.291215 -0.621094,0.4648438 -0.04824,0.1736288 -0.148527,0.7062312 -0.148438,1.0703124 0.0017,1.6276521 0.989494,3.0919613 2.498047,3.7031253 v 1.054688 c -1.876618,-0.593594 -3.273023,-2.248588 -3.470703,-4.2714851 0,0 0.00681,-0.6791378 -0.513672,-0.6875 -0.520459,-0.00836 -0.490234,0.6875 -0.490234,0.6875 0.23968,2.9216451 2.555436,5.2423571 5.476562,5.4882821 v -1 c -6.46e-4,-6.6e-5 -0.00131,6.5e-5 -0.00195,0 v -1.011719 c 0.166373,0.0229 0.334022,0.03529 0.501953,0.03711 0.166626,-0.002 0.332967,-0.01438 0.498047,-0.03711 v 1.521484 h 0.00195 v 0.490235 c 2.9218883,-0.245021 5.2386993,-2.565963 5.4785163,-5.4882821 0,0 0.01743,-0.6336663 -0.484375,-0.6503906 C 12.991486,7.5799553 12.97376,8.2470699 12.97376,8.2470699 12.773558,10.270078 11.3753,11.925642 9.4971967,12.516601 V 11.46582 C 11.007944,10.85562 11.997597,9.3900658 11.99915,7.7607417 11.998196,7.3942519 11.94357,7.0317008 11.844853,6.6826167 c 0,0 -0.127754,-0.6309732 -0.654296,-0.4472656 C 10.664015,6.4190588 10.9054,7.0244136 10.9054,7.0244136 10.96646,7.26413 10.9988,7.5114338 10.99915,7.7607417 10.99715,8.8313958 10.424814,9.8198628 9.4971967,10.354492 V 9.0830074 C 9.7930297,8.9892574 10.016728,8.7149087 10.016729,8.3857417 10.016729,8.1128248 9.8741507,7.876108 9.6553997,7.749023 9.8283227,6.092773 10.583135,6.5280581 10.583135,6.0009761 V 5.6962886 c 0,-0.791668 -1.8312503,-3.3712276 -2.6875003,-3.4316406 z m -0.712891,5.6132813 c 0.276143,0 0.5,0.2238579 0.5,0.5 0,0.276142 -0.223857,0.5 -0.5,0.5 -0.276142,0 -0.5,-0.223858 -0.5,-0.5 0,-0.2761421 0.223858,-0.5 0.5,-0.5 z m 1.632813,0.027344 c 0.276142,0 0.5,0.223858 0.5,0.5 0,0.276142 -0.223858,0.5 -0.5,0.5 -0.276142,0 -0.5,-0.223858 -0.5,-0.5 0,-0.276142 0.223858,-0.5 0.5,-0.5 z"
     id="path1305"
     inkscape:connector-curvature="0" />
  <path
     inkscape:connector-curvature="0"
     style="color:#000000;display:inline;overflow:visible;visibility:visible;opacity:0.5;fill:none;stroke:url(#linearGradient3071);stroke-width:0.99999994;stroke-linecap:round;stroke-linejoin:round;stroke-miterlimit:4;stroke-dasharray:none;stroke-dashoffset:0;stroke-opacity:1;marker:none;enable-background:accumulate"
     id="path8655-6"
     d="m 14.5,8.0026384 c 0,3.5899676 -2.910364,6.5002306 -6.4999176,6.5002306 -3.5898831,0 -6.5000826,-2.910297 -6.5000826,-6.5002306 0,-3.589799 2.9101995,-6.4997687 6.5000826,-6.4997687 3.5895536,0 6.4999176,2.9099697 6.4999176,6.4997687 z" />
</svg>
