<?xml version="1.0" encoding="UTF-8" standalone="no"?>
<svg
   xmlns:dc="http://purl.org/dc/elements/1.1/"
   xmlns:cc="http://creativecommons.org/ns#"
   xmlns:rdf="http://www.w3.org/1999/02/22-rdf-syntax-ns#"
   xmlns:svg="http://www.w3.org/2000/svg"
   xmlns="http://www.w3.org/2000/svg"
   xmlns:xlink="http://www.w3.org/1999/xlink"
   xmlns:sodipodi="http://sodipodi.sourceforge.net/DTD/sodipodi-0.dtd"
   xmlns:inkscape="http://www.inkscape.org/namespaces/inkscape"
   id="svg4121"
   height="32"
   width="32"
   version="1.1"
   sodipodi:docname="gitkraken_32.svg"
   inkscape:version="0.92.3 (2405546, 2018-03-11)">
  <sodipodi:namedview
     pagecolor="#ffffff"
     bordercolor="#666666"
     borderopacity="1"
     objecttolerance="10"
     gridtolerance="10"
     guidetolerance="10"
     inkscape:pageopacity="0"
     inkscape:pageshadow="2"
     inkscape:window-width="1366"
     inkscape:window-height="705"
     id="namedview37"
     showgrid="false"
     inkscape:zoom="7.375"
     inkscape:cx="20.26261"
     inkscape:cy="-7.9150928"
     inkscape:window-x="0"
     inkscape:window-y="30"
     inkscape:window-maximized="1"
     inkscape:current-layer="svg4121" />
  <defs
     id="defs4123">
    <linearGradient
       id="linearGradient4806-9">
      <stop
         offset="0"
         style="stop-color:#ffffff;stop-opacity:1"
         id="stop4808-49" />
      <stop
         offset="0.42447853"
         style="stop-color:#ffffff;stop-opacity:0.23529412"
         id="stop4810-05" />
      <stop
         offset="0.82089913"
         style="stop-color:#ffffff;stop-opacity:0.15686275"
         id="stop4812-6" />
      <stop
         offset="1"
         style="stop-color:#ffffff;stop-opacity:0.39215687"
         id="stop4814-7" />
    </linearGradient>
    <linearGradient
       id="linearGradient3820-7-2-2">
      <stop
         offset="0"
         style="stop-color:#3d3d3d;stop-opacity:1"
         id="stop3822-2-6-36" />
      <stop
         offset="0.5"
         style="stop-color:#686868;stop-opacity:0.49803922"
         id="stop3864-8-7-6" />
      <stop
         offset="1"
         style="stop-color:#686868;stop-opacity:0"
         id="stop3824-1-2-4" />
    </linearGradient>
    <linearGradient
       gradientTransform="matrix(1.1022033,0,0,1.1022038,-63.55275,-14.715001)"
       gradientUnits="userSpaceOnUse"
       xlink:href="#linearGradient4806-9"
       id="linearGradient3024"
       y2="40.495617"
       x2="71.204407"
       y1="15.369057"
       x1="71.204407" />
    <radialGradient
       gradientTransform="matrix(0.17524541,0,0,0.05575992,-1.37681,18.119145)"
       gradientUnits="userSpaceOnUse"
       xlink:href="#linearGradient3820-7-2-2"
       id="radialGradient3034"
       fy="186.17059"
       fx="99.157013"
       r="62.769119"
       cy="186.17059"
       cx="99.157013" />
    <radialGradient
       gradientTransform="matrix(0,2.0431009,-2.6968569,0,26.760726,-47.62282)"
       gradientUnits="userSpaceOnUse"
       xlink:href="#linearGradient2867-449-88-871-390-598-476-591-434-148-57-177-8-3-3-6-4-8-8-8-5"
       id="radialGradient3412"
       fy="3.99"
       fx="23.896"
       r="20.396999"
       cy="3.99"
       cx="23.896" />
    <clipPath
       id="clipPath8125"
       clipPathUnits="userSpaceOnUse">
      <path
         d="m 15,7.9999995 c -0.277,0 -0.5,0.223 -0.5,0.5 l 0,1.6875005 c -0.548639,0.140741 -1.055018,0.37601 -1.53125,0.65625 L 11.75,9.625 c -0.195869,-0.19587 -0.491631,-0.19587 -0.6875,0 L 9.625,11.0625 c -0.1958686,0.195869 -0.1958686,0.491631 0,0.6875 l 1.21875,1.21875 C 10.56351,13.444982 10.328241,13.951361 10.1875,14.5 L 8.5,14.5 C 8.223,14.5 8,14.723 8,15 l 0,2 c 0,0.277 0.223,0.5 0.5,0.5 l 1.6875,0 c 0.140741,0.548639 0.37601,1.055018 0.65625,1.53125 L 9.625,20.25 c -0.1958686,0.195869 -0.1958686,0.491631 0,0.6875 l 1.4375,1.4375 c 0.195869,0.195869 0.491631,0.195869 0.6875,0 l 1.21875,-1.21875 c 0.476232,0.28024 0.982611,0.515509 1.53125,0.65625 l 0,1.6875 c 0,0.277 0.223,0.5 0.5,0.5 l 2,0 c 0.277,0 0.5,-0.223 0.5,-0.5 l 0,-1.6875 c 0.548639,-0.140741 1.055018,-0.37601 1.53125,-0.65625 L 20.25,22.375 c 0.195869,0.195869 0.491631,0.195869 0.6875,0 l 1.4375,-1.4375 c 0.195869,-0.195869 0.195869,-0.491631 0,-0.6875 L 21.15625,19.03125 C 21.43649,18.555018 21.671759,18.048639 21.8125,17.5 l 1.6875,0 c 0.277,0 0.5,-0.223 0.5,-0.5 l 0,-2 c 0,-0.277 -0.223,-0.5 -0.5,-0.5 l -1.6875,0 C 21.671759,13.951361 21.43649,13.444982 21.15625,12.96875 L 22.375,11.75 c 0.195869,-0.19587 0.195869,-0.491631 0,-0.6875 L 20.9375,9.625 c -0.195869,-0.19587 -0.491631,-0.19587 -0.6875,0 l -1.21875,1.21875 C 18.555018,10.56351 18.048639,10.328241 17.5,10.1875 l 0,-1.6875005 c 0,-0.277 -0.223,-0.5 -0.5,-0.5 l -2,0 z M 16,13 c 1.656854,0 3,1.343146 3,3 0,1.656854 -1.343146,3 -3,3 -1.656854,0 -3,-1.343146 -3,-3 0,-1.656854 1.343146,-3 3,-3 z"
         id="path8127"
         style="color:#000000;display:inline;overflow:visible;visibility:visible;fill:#000000;fill-opacity:1;fill-rule:nonzero;stroke:none;stroke-width:2;stroke-miterlimit:4;stroke-dasharray:none;stroke-opacity:1;marker:none;enable-background:accumulate" />
    </clipPath>
    <linearGradient
       gradientTransform="matrix(1,0,0,-1,0,33.003591)"
       gradientUnits="userSpaceOnUse"
       xlink:href="#linearGradient4687"
       id="linearGradient3453"
       y2="17.313972"
       x2="19.868132"
       y1="13.067885"
       x1="19.868132" />
    <linearGradient
       id="linearGradient4687">
      <stop
         offset="0"
         style="stop-color:#000000;stop-opacity:1"
         id="stop4689" />
      <stop
         offset="1"
         style="stop-color:#000000;stop-opacity:0"
         id="stop4691" />
    </linearGradient>
    <linearGradient
       id="linearGradient2867-449-88-871-390-598-476-591-434-148-57-177-8-3-3-6-4-8-8-8-5">
      <stop
         offset="0"
         style="stop-color:#919caf;stop-opacity:1"
         id="stop3750-1-0-7-6-6-1-3-9-3" />
      <stop
         offset="0.26238"
         style="stop-color:#68758e;stop-opacity:1"
         id="stop3752-3-7-4-0-32-8-923-0-7" />
      <stop
         offset="0.704952"
         style="stop-color:#485a6c;stop-opacity:1"
         id="stop3754-1-8-5-2-7-6-7-1-9" />
      <stop
         offset="1"
         style="stop-color:#444c5c;stop-opacity:1"
         id="stop3756-1-6-2-6-6-1-96-6-0" />
    </linearGradient>
    <linearGradient
       inkscape:collect="always"
       xlink:href="#linearGradient4156"
       id="linearGradient850"
       x1="-43.230652"
       y1="14.611153"
       x2="-43.183392"
       y2="42.52816"
       gradientUnits="userSpaceOnUse"
       gradientTransform="matrix(0.78125002,0,0,0.78125002,49.746596,-4.7620825)" />
    <linearGradient
       inkscape:collect="always"
       id="linearGradient4156">
      <stop
         style="stop-color:#3fb2ab;stop-opacity:1;"
         offset="0"
         id="stop4158" />
      <stop
         style="stop-color:#308983;stop-opacity:1"
         offset="1"
         id="stop4160" />
    </linearGradient>
    <linearGradient
       id="linearGradient4450"
       y2="32.568001"
       gradientUnits="userSpaceOnUse"
       x2="15.124"
       gradientTransform="matrix(0.54079252,0,0,0.54079252,-22.225552,-12.953627)"
       y1="-18.801001"
       x1="15.124">
      <stop
         id="stop4413"
         stop-color="#fff"
         offset="0" />
      <stop
         id="stop4415"
         stop-color="#fff"
         stop-opacity="0"
         offset="1" />
    </linearGradient>
    <radialGradient
       id="radialGradient4448"
       gradientUnits="userSpaceOnUse"
       cy="-17.681"
       cx="14.892"
       gradientTransform="matrix(-1.0181347,2.6954705e-8,-2.0047071e-8,-0.75721426,30.980813,-11.313497)"
       r="25.570999">
      <stop
         id="stop3750-1-0-7-6-6-1-3-9-3-3"
         stop-color="#5f5f5f"
         offset="0" />
      <stop
         id="stop3752-3-7-4-0-32-8-923-0-7-6"
         stop-color="#515151"
         offset=".26238" />
      <stop
         id="stop3754-1-8-5-2-7-6-7-1-9-7"
         stop-color="#404040"
         offset=".70495" />
      <stop
         id="stop3756-1-6-2-6-6-1-96-6-0-5"
         stop-color="#343434"
         offset="1" />
    </radialGradient>
    <radialGradient
       xlink:href="#linearGradient4687"
       id="radialGradient3300-8"
       gradientUnits="userSpaceOnUse"
       gradientTransform="matrix(0.3823536,7.5555777e-8,-1.8372241e-8,0.1115198,-5.9254271,36.335849)"
       cx="99.189415"
       cy="185.29727"
       fx="99.189415"
       fy="185.29727"
       r="62.769119" />
    <radialGradient
       xlink:href="#linearGradient4687"
       id="radialGradient4192-6"
       gradientUnits="userSpaceOnUse"
       gradientTransform="matrix(0.2549024,5.3967361e-8,-1.2248161e-8,0.07965545,6.7163816,44.240666)"
       cx="99.189415"
       cy="185.29727"
       fx="99.189415"
       fy="185.29727"
       r="62.769119" />
  </defs>
  <metadata
     id="metadata4126">
    <rdf:RDF>
      <cc:Work
         rdf:about="">
        <dc:format>image/svg+xml</dc:format>
        <dc:type
           rdf:resource="http://purl.org/dc/dcmitype/StillImage" />
        <dc:title />
      </cc:Work>
    </rdf:RDF>
  </metadata>
  <path
     style="fill:url(#radialGradient3034);fill-opacity:1;stroke:none"
     id="path3818-0-2"
     d="m 27.000001,28.499999 a 11,3.4999999 0 1 1 -21.9999996,0 11,3.4999999 0 1 1 21.9999996,0 z" />
  <circle
     style="fill:url(#radialGradient4448);stroke-width:1"
     id="path2985-6"
     cy="16"
     cx="16"
     r="14.525775" />
  <circle
     style="opacity:0.6;fill:none;stroke:#242424;stroke-width:0.94845003"
     id="path3755-9"
     cy="16"
     cx="16"
     r="14.525775" />
  <g
     id="g907"
     transform="translate(-19.435763,-67.026966)">
    <path
       inkscape:connector-curvature="0"
       id="path2-9"
       d="m 40.453341,73.699219 c -0.600459,-0.05372 -1.208585,0.259079 -1.488282,0.828125 -0.349147,0.711213 -0.07842,1.588856 0.623047,1.972656 l -0.0059,-0.002 c 2.638589,1.461135 4.429687,4.267277 4.429687,7.509765 0,3.068759 -1.654592,5.680616 -4.068359,7.197266 v -1.824219 c 0.608029,-0.459079 1.080078,-1.087315 1.080078,-1.912109 0,-0.624774 -0.285217,-1.159783 -0.671875,-1.609375 0.17293,-1.094374 0.423147,-1.462178 0.636719,-1.628906 0.122375,-0.09553 0.294829,-0.162927 0.591797,-0.402344 0.296967,-0.239417 0.625,-0.813177 0.625,-1.326172 v -0.636719 c 0,-0.797852 -0.320285,-1.46002 -0.738282,-2.259765 -0.417996,-0.799745 -0.975434,-1.663902 -1.59375,-2.486328 -0.618316,-0.822427 -1.292024,-1.598681 -1.970703,-2.208985 -0.678679,-0.610304 -1.30726,-1.126543 -2.226562,-1.191406 -0.156984,-0.01207 -0.315352,-0.01193 -0.472656,0 h -0.0039 c -0.915619,0.06805 -1.544436,0.583852 -2.222656,1.193359 -0.679216,0.610403 -1.35404,1.384871 -1.972656,2.207032 -0.618616,0.82216 -1.17564,1.688826 -1.59375,2.488281 -0.418111,0.799454 -0.738282,1.45996 -0.738281,2.257812 v 0.642578 c 0,0.513655 0.32932,1.087408 0.626953,1.326172 0.297632,0.238764 0.469736,0.303419 0.591797,0.398438 0.213197,0.165968 0.463215,0.535042 0.634765,1.632812 -0.387424,0.451249 -0.671875,0.986533 -0.671875,1.607422 0,0.82141 0.469762,1.451975 1.076172,1.91211 v 1.826172 c -2.414124,-1.51378 -4.068359,-4.123706 -4.068359,-7.197266 0,-3.237736 1.7901,-6.046147 4.429687,-7.511719 0.687031,-0.381683 0.957963,-1.27255 0.615234,-1.970703 -0.369533,-0.751789 -1.334623,-1.058248 -2.070312,-0.652344 v 0.002 h -0.002 c -2.021127,1.118357 -3.600066,2.866186 -4.650391,4.929688 -0.132984,-0.137187 -0.214212,-0.320816 -0.396484,-0.398438 -0.777041,-0.332746 -1.70152,0.06858 -1.994141,0.857422 -0.552162,1.475251 -0.857422,3.074611 -0.857422,4.744141 0,7.258743 5.756167,13.199919 12.953125,13.490234 l 0.05469,0.002 v 0.03516 l 0.443359,-0.01758 0.541016,0.02148 v -0.04297 l 0.05664,-0.002 c 7.197344,-0.285644 12.951171,-6.227585 12.951171,-13.486328 0,-1.670861 -0.304898,-3.272306 -0.857421,-4.751953 v -0.002 c -0.295944,-0.784875 -1.20666,-1.188005 -1.992188,-0.851563 -0.18388,0.07828 -0.264873,0.259981 -0.398438,0.396485 -1.049793,-2.062495 -2.62853,-3.807465 -4.648437,-4.925782 -0.18576,-0.103591 -0.385785,-0.161779 -0.585937,-0.179687 z m -8.050782,13.740234 c 0.02914,0 0.0293,1.53e-4 0.0293,0.0293 0,0.02577 0.0032,0.02734 -0.0293,0.02734 -0.03251,0 -0.0293,-0.0016 -0.0293,-0.02734 0,-0.02577 -0.0032,-0.0293 0.0293,-0.0293 z m 6.06836,0.0039 c 0.02577,0 0.02734,-0.0032 0.02734,0.0293 0,0.02913 0.0018,0.02734 -0.02734,0.02734 -0.02578,0 -0.0293,0.0052 -0.0293,-0.02734 0,-0.02913 1.57e-4,-0.0293 0.0293,-0.0293 z"
       style="opacity:0.15;fill:#000000;fill-opacity:1;stroke-width:1" />
    <path
       sodipodi:nodetypes="cccsccccscccsccscssccsscsccscccsccccscccsccccscssssssssss"
       style="opacity:0.3;fill:#000000;fill-opacity:1;stroke-width:1"
       inkscape:connector-curvature="0"
       id="path2-5"
       d="m 47.141492,79.634898 c -0.09983,-0.26476 -0.403647,-0.399307 -0.664063,-0.286458 -0.247395,0.104166 -0.368927,0.386281 -0.273438,0.633677 0.47309,1.258682 0.733507,2.62587 0.733507,4.049479 0,5.842016 -4.353298,10.664063 -9.991319,11.401911 v -5.368922 c 0.342881,-0.0651 0.672741,-0.156249 0.998261,-0.269099 v 4.513891 c 4.631078,-1.124135 8.068151,-5.299479 8.068151,-10.277781 0,-3.984375 -2.204433,-7.456594 -5.45964,-9.257813 -0.247397,-0.138886 -0.564239,-0.03906 -0.690105,0.217016 -0.117189,0.238713 -0.02605,0.529515 0.203989,0.655379 2.947054,1.631949 4.943756,4.774307 4.943756,8.385418 0,4.049479 -2.513198,7.513021 -6.067887,8.914933 v -4.001735 c 0.61632,-0.195312 1.080733,-0.768229 1.080733,-1.453995 0,-0.568578 -0.295142,-1.059026 -0.750871,-1.323786 0.360244,-3.45052 1.931426,-2.543401 1.931426,-3.641491 v -0.63802 c 0,-1.649307 -3.815102,-7.022574 -5.598958,-7.148438 -0.108508,-0.0087 -0.217015,-0.0087 -0.329864,0 -1.788193,0.130208 -5.603298,5.499131 -5.603298,7.148438 v 0.642359 c 0,1.098089 1.575522,0.186632 1.931427,3.641495 -0.460072,0.264755 -0.750869,0.755209 -0.750869,1.323783 0,0.685764 0.460067,1.258681 1.076392,1.453993 v 4.001735 c -3.55469,-1.397568 -6.067711,-4.861109 -6.067711,-8.914928 0,-3.606769 1.996527,-6.749135 4.943574,-8.385417 0.234375,-0.130208 0.321183,-0.416667 0.203995,-0.655385 -0.12587,-0.256073 -0.43837,-0.355901 -0.690104,-0.21701 -3.255209,1.801214 -5.460069,5.273437 -5.460069,9.257812 0,4.978298 3.4375,9.149303 8.068574,10.277777 v -4.513891 c 0.329863,0.108509 0.655387,0.199657 0.998265,0.269098 v 5.368922 c -5.633682,-0.737842 -9.991317,-5.559895 -9.991317,-11.401906 0,-1.423614 0.260416,-2.7908 0.733505,-4.049479 0.09548,-0.251739 -0.02604,-0.529515 -0.273438,-0.633682 -0.260416,-0.112849 -0.564234,0.01734 -0.664062,0.286458 -0.512151,1.367187 -0.794272,2.847225 -0.794272,4.396703 0,6.731771 5.321182,12.22222 11.992188,12.491319 v -6.332464 c 0.295135,0.01734 0.651042,0.02172 1.015625,0 v 6.32812 c 6.671005,-0.264755 11.992188,-5.755204 11.992188,-12.486975 0,-1.549478 -0.282121,-3.029516 -0.794271,-4.401041 z m -8.671875,6.831595 c 0.564234,0 1.028646,0.455728 1.028646,1.028646 0,0.568577 -0.460074,1.028645 -1.028646,1.028645 -0.56424,0 -1.028646,-0.455731 -1.028646,-1.028645 0,-0.568574 0.460068,-1.028646 1.028646,-1.028646 z m -6.067708,2.052952 c -0.572916,0 -1.028645,-0.464411 -1.028645,-1.028646 0,-0.564234 0.455729,-1.028647 1.028645,-1.028647 0.568577,0 1.028645,0.460069 1.028645,1.028647 0,0.564235 -0.455729,1.028646 -1.028645,1.028646 z" />
  </g>
  <path
     d="m 27.70573,11.60764 c -0.09983,-0.26476 -0.403647,-0.399307 -0.664063,-0.286458 -0.247395,0.104166 -0.368927,0.386281 -0.273438,0.633677 0.47309,1.258682 0.733507,2.62587 0.733507,4.049479 0,5.842016 -4.353298,10.664063 -9.991319,11.401911 v -5.368922 c 0.34288,-0.0651 0.672741,-0.156249 0.998261,-0.269099 v 4.513891 c 4.631078,-1.124135 8.068151,-5.299479 8.068151,-10.277781 0,-3.984375 -2.204433,-7.456594 -5.45964,-9.2578135 -0.247397,-0.1388852 -0.564239,-0.039058 -0.690105,0.2170162 -0.117189,0.2387136 -0.02605,0.5295154 0.203989,0.6553795 2.947054,1.6319488 4.943756,4.7743068 4.943756,8.3854178 0,4.049479 -2.513198,7.513021 -6.067887,8.914933 v -4.001735 c 0.616319,-0.195312 1.080732,-0.768229 1.080732,-1.453995 0,-0.568578 -0.295142,-1.059026 -0.750871,-1.323786 0.360245,-3.45052 1.931426,-2.543401 1.931426,-3.641491 v -0.63802 c 0,-1.649307 -3.815102,-7.022574 -5.598958,-7.1484381 -0.108508,-0.00872 -0.217015,-0.00872 -0.329864,0 -1.788193,0.1302082 -5.603298,5.4991311 -5.603298,7.1484381 v 0.642359 c 0,1.098089 1.575522,0.186632 1.931427,3.641495 -0.460072,0.264755 -0.750869,0.755209 -0.750869,1.323783 0,0.685764 0.460067,1.258681 1.076392,1.453993 v 4.001735 C 8.9383693,23.526041 6.4253482,20.0625 6.4253482,16.008681 c 0,-3.606769 1.9965271,-6.749135 4.9435738,-8.3854167 0.234375,-0.1302082 0.321183,-0.416667 0.203995,-0.655385 C 11.447047,6.7118059 11.134547,6.6119778 10.882813,6.7508687 7.6276039,8.552083 5.4227442,12.024306 5.4227442,16.008681 c 0,4.978298 3.4375001,9.149303 8.0685738,10.277777 v -4.513891 c 0.329864,0.108509 0.655387,0.199657 0.998266,0.269098 v 5.368922 C 8.8559013,26.672745 4.4982658,21.850692 4.4982658,16.008681 c 0,-1.423614 0.2604164,-2.7908 0.7335049,-4.049479 0.095482,-0.251739 -0.026043,-0.529515 -0.2734377,-0.633682 -0.2604164,-0.112849 -0.564234,0.01734 -0.6640622,0.286458 -0.5121511,1.367187 -0.7942713,2.847225 -0.7942713,4.396703 0,6.731771 5.3211819,12.22222 11.9921885,12.491319 v -6.332464 c 0.295135,0.01734 0.651042,0.02172 1.015625,0 v 6.32812 c 6.671005,-0.264755 11.992188,-5.755204 11.992188,-12.486975 0,-1.549478 -0.282121,-3.029516 -0.794271,-4.401041 z m -8.671875,6.831595 c 0.564234,0 1.028646,0.455728 1.028646,1.028646 0,0.568577 -0.460074,1.028645 -1.028646,1.028645 -0.56424,0 -1.028646,-0.455731 -1.028646,-1.028645 0,-0.568574 0.460068,-1.028646 1.028646,-1.028646 z m -6.067709,2.052952 c -0.572916,0 -1.028645,-0.464411 -1.028645,-1.028646 0,-0.564234 0.455729,-1.028647 1.028645,-1.028647 0.568578,0 1.028646,0.460069 1.028646,1.028647 0,0.564235 -0.455729,1.028646 -1.028646,1.028646 z"
     id="path2"
     inkscape:connector-curvature="0"
     style="fill:url(#linearGradient850);fill-opacity:1;stroke-width:1"
     sodipodi:nodetypes="cccsccccscccsccscssccsscsccscccsccccscccsccccscssssssssss" />
  <path
     style="opacity:0.3;color:#000000;fill:none;stroke:url(#linearGradient3024);stroke-width:0.99999994;stroke-linecap:round;stroke-linejoin:round;stroke-miterlimit:4;stroke-opacity:1;stroke-dasharray:none;stroke-dashoffset:0;marker:none;visibility:visible;display:inline;overflow:visible;enable-background:accumulate"
     id="path3421"
     d="M 29.5,16 C 29.5,23.455845 23.45583,29.5 16,29.5 8.54417,29.5 2.5,23.455845 2.5,16 2.5,8.544157 8.54417,2.5 16,2.5 23.45583,2.5 29.5,8.544157 29.5,16 z" />
</svg>
