<?xml version="1.0" encoding="UTF-8" standalone="no"?>
<!-- Created with Inkscape (http://www.inkscape.org/) -->

<svg
   xmlns:dc="http://purl.org/dc/elements/1.1/"
   xmlns:cc="http://creativecommons.org/ns#"
   xmlns:rdf="http://www.w3.org/1999/02/22-rdf-syntax-ns#"
   xmlns:svg="http://www.w3.org/2000/svg"
   xmlns="http://www.w3.org/2000/svg"
   xmlns:xlink="http://www.w3.org/1999/xlink"
   xmlns:sodipodi="http://sodipodi.sourceforge.net/DTD/sodipodi-0.dtd"
   xmlns:inkscape="http://www.inkscape.org/namespaces/inkscape"
   width="32"
   height="32"
   id="svg8120"
   version="1.1"
   inkscape:version="0.91 r13725"
   sodipodi:docname="amule_32.svg">
  <defs
     id="defs8122">
    <radialGradient
       inkscape:collect="always"
       xlink:href="#linearGradient6945-2"
       id="radialGradient7496"
       gradientUnits="userSpaceOnUse"
       gradientTransform="matrix(0.68850665,0,0,0.26065127,213.4551,367.33436)"
       cx="170.58949"
       cy="50.677525"
       fx="170.58949"
       fy="50.677525"
       r="7.4246206" />
    <linearGradient
       inkscape:collect="always"
       id="linearGradient6945-2">
      <stop
         style="stop-color:#000000;stop-opacity:1;"
         offset="0"
         id="stop6947-7" />
      <stop
         style="stop-color:#000000;stop-opacity:0;"
         offset="1"
         id="stop6949-6" />
    </linearGradient>
    <linearGradient
       inkscape:collect="always"
       xlink:href="#linearGradient7343-2"
       id="linearGradient7498"
       gradientUnits="userSpaceOnUse"
       gradientTransform="matrix(0.66585645,0,0,0.66639176,217.1039,348.51267)"
       x1="157.5466"
       y1="42.738346"
       x2="157.5466"
       y2="8.2586107" />
    <linearGradient
       id="linearGradient7343-2">
      <stop
         id="stop7345-3"
         offset="0"
         style="stop-color:#388ccc;stop-opacity:1;" />
      <stop
         id="stop7347-8"
         offset="1"
         style="stop-color:#78b1dc;stop-opacity:1;" />
    </linearGradient>
    <linearGradient
       inkscape:collect="always"
       xlink:href="#linearGradient6977-69"
       id="linearGradient7500"
       gradientUnits="userSpaceOnUse"
       x1="156.71875"
       y1="-10.294855"
       x2="156.71875"
       y2="51.989662" />
    <linearGradient
       inkscape:collect="always"
       id="linearGradient6977-69">
      <stop
         style="stop-color:#ffffff;stop-opacity:1;"
         offset="0"
         id="stop6979-4" />
      <stop
         style="stop-color:#ffffff;stop-opacity:0;"
         offset="1"
         id="stop6981-9" />
    </linearGradient>
    <radialGradient
       inkscape:collect="always"
       xlink:href="#linearGradient6945-7-2"
       id="radialGradient7502"
       gradientUnits="userSpaceOnUse"
       gradientTransform="matrix(1.2954585,0,0,0.26065127,97.040078,367.33436)"
       cx="170.58949"
       cy="50.677525"
       fx="170.58949"
       fy="50.677525"
       r="7.4246206" />
    <linearGradient
       inkscape:collect="always"
       id="linearGradient6945-7-2">
      <stop
         style="stop-color:#000000;stop-opacity:1;"
         offset="0"
         id="stop6947-5-2" />
      <stop
         style="stop-color:#000000;stop-opacity:0;"
         offset="1"
         id="stop6949-9-6" />
    </linearGradient>
  </defs>
  <sodipodi:namedview
     id="base"
     pagecolor="#ffffff"
     bordercolor="#666666"
     borderopacity="1.0"
     inkscape:pageopacity="0.0"
     inkscape:pageshadow="2"
     inkscape:zoom="15.839192"
     inkscape:cx="2.1825109"
     inkscape:cy="7.1314115"
     inkscape:document-units="px"
     inkscape:current-layer="layer1"
     showgrid="false"
     fit-margin-top="0"
     fit-margin-left="0"
     fit-margin-right="0"
     fit-margin-bottom="0"
     inkscape:window-width="1366"
     inkscape:window-height="705"
     inkscape:window-x="0"
     inkscape:window-y="30"
     inkscape:window-maximized="1" />
  <metadata
     id="metadata8125">
    <rdf:RDF>
      <cc:Work
         rdf:about="">
        <dc:format>image/svg+xml</dc:format>
        <dc:type
           rdf:resource="http://purl.org/dc/dcmitype/StillImage" />
        <dc:title />
      </cc:Work>
    </rdf:RDF>
  </metadata>
  <g
     inkscape:label="Capa 1"
     inkscape:groupmode="layer"
     id="layer1"
     transform="translate(-306.23865,-351.47876)">
    <ellipse
       ry="1.9352368"
       rx="5.1119008"
       cy="380.54352"
       cx="330.9071"
       style="color:#000000;display:inline;overflow:visible;visibility:visible;opacity:0.3;fill:url(#radialGradient7496);fill-opacity:1;fill-rule:nonzero;stroke:none;stroke-width:1;marker:none;enable-background:accumulate"
       id="path6943-6" />
    <path
       style="color:#000000;display:inline;overflow:visible;visibility:visible;opacity:1;fill:url(#linearGradient7498);fill-opacity:1;fill-rule:nonzero;stroke:none;stroke-width:1;stroke-linecap:round;stroke-linejoin:round;stroke-miterlimit:4;stroke-dasharray:none;stroke-dashoffset:0;stroke-opacity:1;marker:none;enable-background:accumulate"
       d="m 328.11465,353.15659 c -2.16047,0 -3.9119,1.75282 -3.9119,3.91505 0,0.69855 0.17904,1.34808 0.49939,1.91587 l -4.28645,4.2899 c -0.77348,-0.31465 -1.61057,-0.49979 -2.49696,-0.49979 -1.14919,0 -2.24016,0.29922 -3.18363,0.81216 l -1.12363,-4.18577 c 0.3445,-0.38828 0.56181,-0.89762 0.56181,-1.45773 0,-1.21453 -0.9921,-2.1866 -2.20564,-2.1866 -1.21355,0 -2.18485,0.97207 -2.18485,2.1866 0,1.0842 0.77873,1.9849 1.8103,2.16577 l 1.33171,4.93546 c -1.03448,1.17438 -1.66463,2.70537 -1.66463,4.39402 0,3.68038 2.98113,6.66392 6.65856,6.66392 2.03727,0 3.85576,-0.91064 5.07715,-2.35319 l 3.3709,1.95752 c -0.0888,0.35961 -0.12485,0.73748 -0.12485,1.12454 0,2.57626 2.0868,4.66474 4.661,4.66474 2.57419,0 4.66099,-2.08848 4.66099,-4.66474 0,-2.57627 -2.0868,-4.66475 -4.66099,-4.66475 -1.42093,0 -2.70325,0.64168 -3.55817,1.64516 l -3.24605,-1.87423 c 0.30975,-0.76917 0.47858,-1.6188 0.47858,-2.49897 0,-2.01128 -0.90197,-3.7969 -2.30969,-5.01876 l 3.93272,-3.93588 c 0.56382,0.31532 1.22257,0.4998 1.91433,0.4998 2.16049,0 3.91191,-1.75283 3.91191,-3.91505 0,-2.16223 -1.75142,-3.91505 -3.91191,-3.91505 z"
       id="path6667-4"
       inkscape:connector-curvature="0" />
    <path
       sodipodi:type="inkscape:offset"
       inkscape:radius="-1.4245325"
       inkscape:original="M 166.71875 6.96875 C 163.47408 6.96875 160.84375 9.599077 160.84375 12.84375 C 160.84375 13.89201 161.11265 14.866714 161.59375 15.71875 L 155.15625 22.15625 C 153.99461 21.684079 152.73745 21.40625 151.40625 21.40625 C 149.68036 21.40625 148.04193 21.855276 146.625 22.625 L 144.9375 16.34375 C 145.45489 15.761092 145.78125 14.996762 145.78125 14.15625 C 145.78125 12.33371 144.29129 10.875 142.46875 10.875 C 140.64621 10.875 139.1875 12.33371 139.1875 14.15625 C 139.1875 15.783225 140.35702 17.134839 141.90625 17.40625 L 143.90625 24.8125 C 142.35262 26.574792 141.40625 28.872217 141.40625 31.40625 C 141.40625 36.929097 145.8834 41.40625 151.40625 41.40625 C 154.46588 41.40625 157.19693 40.039729 159.03125 37.875 L 164.09375 40.8125 C 163.96041 41.352137 163.90625 41.919172 163.90625 42.5 C 163.90625 46.365993 167.04026 49.5 170.90625 49.5 C 174.77224 49.5 177.90625 46.365993 177.90625 42.5 C 177.90625 38.634007 174.77224 35.5 170.90625 35.5 C 168.77226 35.5 166.84644 36.462915 165.5625 37.96875 L 160.6875 35.15625 C 161.15269 34.002007 161.40625 32.72704 161.40625 31.40625 C 161.40625 28.388079 160.05165 25.708536 157.9375 23.875 L 163.84375 17.96875 C 164.69052 18.44191 165.67983 18.71875 166.71875 18.71875 C 169.96342 18.71875 172.59375 16.088423 172.59375 12.84375 C 172.59375 9.599077 169.96342 6.96875 166.71875 6.96875 z "
       style="color:#000000;display:inline;overflow:visible;visibility:visible;opacity:0.6;fill:none;stroke:url(#linearGradient7500);stroke-width:1.50122178;stroke-linecap:round;stroke-linejoin:round;stroke-miterlimit:4;stroke-dasharray:none;stroke-dashoffset:0;stroke-opacity:1;marker:none;enable-background:accumulate"
       id="path6975-3"
       d="m 166.71875,8.3925781 c -2.47479,0 -4.45117,1.9763739 -4.45117,4.4511719 0,0.804646 0.20227,1.528932 0.5664,2.173828 a 1.424675,1.424675 0 0 1 -0.23242,1.708984 l -6.4375,6.4375 a 1.424675,1.424675 0 0 1 -1.54492,0.3125 c -1.01009,-0.410568 -2.0799,-0.646484 -3.21289,-0.646484 -1.47881,0 -2.88519,0.386101 -4.10156,1.046875 A 1.424675,1.424675 0 0 1 145.25,22.994141 l -1.6875,-6.28125 a 1.424675,1.424675 0 0 1 0.31055,-1.314453 c 0.30418,-0.342551 0.48437,-0.770428 0.48437,-1.242188 0,-1.046152 -0.82623,-1.857422 -1.88867,-1.857422 -1.06244,0 -1.85742,0.794986 -1.85742,1.857422 0,0.94431 0.66357,1.693936 1.54101,1.847656 a 1.424675,1.424675 0 0 1 1.12891,1.03125 l 2,7.40625 a 1.424675,1.424675 0 0 1 -0.30664,1.3125 c -1.33726,1.516862 -2.14453,3.472985 -2.14453,5.652344 0,4.752973 3.82319,8.576172 8.57617,8.576172 2.63547,0 4.96444,-1.171039 6.53906,-3.029297 a 1.424675,1.424675 0 0 1 1.80078,-0.310547 l 5.0625,2.9375 a 1.424675,1.424675 0 0 1 0.66797,1.574219 c -0.0991,0.401243 -0.14648,0.85343 -0.14648,1.345703 0,3.096118 2.48006,5.576172 5.57617,5.576172 3.09611,0 5.57617,-2.480054 5.57617,-5.576172 0,-3.096118 -2.48006,-5.576172 -5.57617,-5.576172 -1.70546,0 -3.23759,0.769922 -4.25977,1.96875 a 1.424675,1.424675 0 0 1 -1.79492,0.310547 l -4.875,-2.8125 a 1.424675,1.424675 0 0 1 -0.60937,-1.767578 c 0.39632,-0.983367 0.61523,-2.078324 0.61523,-3.216797 0,-2.591937 -1.1558,-4.874298 -2.97851,-6.455078 a 1.424675,1.424675 0 0 1 -0.0742,-2.083984 l 5.90625,-5.90625 a 1.424675,1.424675 0 0 1 1.70312,-0.236329 c 0.64087,0.358107 1.39383,0.570313 2.17969,0.570313 2.47479,0 4.45117,-1.976374 4.45117,-4.451172 0,-2.474798 -1.97638,-4.4511719 -4.45117,-4.4511719 z"
       transform="matrix(0.66585644,0,0,0.66639177,44.553021,51.033908)" />
    <ellipse
       ry="1.9352368"
       rx="9.618288"
       cy="380.54352"
       cx="318.03168"
       style="color:#000000;display:inline;overflow:visible;visibility:visible;opacity:0.15;fill:url(#radialGradient7502);fill-opacity:1;fill-rule:nonzero;stroke:none;stroke-width:1;marker:none;enable-background:accumulate"
       id="path6943-0-0" />
    <path
       style="color:#000000;display:inline;overflow:visible;visibility:visible;opacity:0.6;fill:none;fill-opacity:1;fill-rule:nonzero;stroke:#255f8f;stroke-width:1;stroke-linecap:round;stroke-linejoin:round;stroke-miterlimit:4;stroke-dasharray:none;stroke-dashoffset:0;stroke-opacity:1;marker:none;enable-background:accumulate"
       d="m 328.11451,353.1563 c -2.16047,0 -3.9119,1.75283 -3.9119,3.91505 0,0.69855 0.17904,1.34809 0.49939,1.91587 l -4.28645,4.2899 c -0.77348,-0.31465 -1.61057,-0.49979 -2.49696,-0.49979 -1.14919,0 -2.24016,0.29922 -3.18363,0.81216 l -1.12363,-4.18577 c 0.3445,-0.38828 0.56181,-0.89762 0.56181,-1.45773 0,-1.21453 -0.9921,-2.1866 -2.20564,-2.1866 -1.21355,0 -2.18485,0.97207 -2.18485,2.1866 0,1.0842 0.77873,1.98491 1.8103,2.16577 l 1.33171,4.93546 c -1.03448,1.17438 -1.66501,2.70536 -1.66501,4.39401 0,3.68039 2.98151,6.66393 6.65894,6.66393 2.03727,0 3.85576,-0.91064 5.07715,-2.35319 l 3.3709,1.95752 c -0.0888,0.35961 -0.12485,0.73748 -0.12485,1.12453 0,2.57627 2.0868,4.66474 4.661,4.66474 2.57419,0 4.66099,-2.08847 4.66099,-4.66474 0,-2.57626 -2.0868,-4.66473 -4.66099,-4.66473 -1.42093,0 -2.70325,0.64167 -3.55817,1.64514 l -3.24605,-1.87422 c 0.30975,-0.76917 0.47908,-1.6188 0.47908,-2.49898 0,-2.01127 -0.90247,-3.79689 -2.31019,-5.01875 l 3.93272,-3.93587 c 0.56382,0.31531 1.22257,0.49979 1.91433,0.49979 2.16049,0 3.91191,-1.75283 3.91191,-3.91505 0,-2.16222 -1.75142,-3.91505 -3.91191,-3.91505 z"
       id="path6667-4-5"
       inkscape:connector-curvature="0"
       sodipodi:nodetypes="ssccsccsssccssccssssccsccsss" />
    <g
       id="g4170"
       transform="translate(0.05827514,0.26127)">
      <path
         style="font-style:normal;font-variant:normal;font-weight:bold;font-stretch:normal;font-size:11.87787437px;line-height:125%;font-family:'Droid Sans';-inkscape-font-specification:'Droid Sans Bold';letter-spacing:0px;word-spacing:0px;display:inline;opacity:0.1;fill:#000000;fill-opacity:1;stroke:none;enable-background:new"
         d="m 317.82902,365.77309 c -0.49142,0 -0.98425,0.0322 -1.47461,0.0957 -0.48471,0.0589 -0.96623,0.14693 -1.44531,0.26367 l -0.76367,0.18555 0,3.43164 c -0.33522,0.51129 -0.56836,1.09292 -0.56836,1.72851 0,0.84893 0.32998,1.68175 0.93945,2.25782 l 0.004,0.004 0.004,0.002 c 0.6158,0.57105 1.45246,0.85351 2.31836,0.85351 0.43277,0 0.81863,-0.13958 1.20898,-0.26367 l 0,0.0957 4.0918,0 0,-4.70898 c 0,-1.20619 -0.31759,-2.28847 -1.11719,-2.9961 -0.79658,-0.71187 -1.89602,-0.94922 -3.19727,-0.94922 z"
         id="text6939-04-3-6"
         inkscape:connector-curvature="0" />
      <text
         transform="scale(0.99959827,1.0004019)"
         sodipodi:linespacing="125%"
         id="text6939-04-3"
         y="373.27756"
         x="314.19211"
         style="font-style:normal;font-variant:normal;font-weight:bold;font-stretch:normal;font-size:11.87787437px;line-height:125%;font-family:'Droid Sans';-inkscape-font-specification:'Droid Sans Bold';letter-spacing:0px;word-spacing:0px;display:inline;opacity:0.2;fill:#000000;fill-opacity:1;stroke:none;enable-background:new"
         xml:space="preserve"><tspan
           y="373.27756"
           x="314.19211"
           id="tspan6941-6-5"
           sodipodi:role="line">a</tspan></text>
      <text
         transform="scale(0.99959827,1.0004019)"
         sodipodi:linespacing="125%"
         id="text6939-04"
         y="372.27832"
         x="314.19211"
         style="font-style:normal;font-variant:normal;font-weight:bold;font-stretch:normal;font-size:11.87787437px;line-height:125%;font-family:'Droid Sans';-inkscape-font-specification:'Droid Sans Bold';letter-spacing:0px;word-spacing:0px;display:inline;fill:#ffffff;fill-opacity:1;stroke:none;enable-background:new"
         xml:space="preserve"><tspan
           y="372.27832"
           x="314.19211"
           id="tspan6941-6"
           sodipodi:role="line">a</tspan></text>
    </g>
  </g>
</svg>
