<?xml version="1.0" encoding="UTF-8" standalone="no"?>
<svg
   xmlns:osb="http://www.openswatchbook.org/uri/2009/osb"
   xmlns:dc="http://purl.org/dc/elements/1.1/"
   xmlns:cc="http://creativecommons.org/ns#"
   xmlns:rdf="http://www.w3.org/1999/02/22-rdf-syntax-ns#"
   xmlns:svg="http://www.w3.org/2000/svg"
   xmlns="http://www.w3.org/2000/svg"
   xmlns:xlink="http://www.w3.org/1999/xlink"
   xmlns:sodipodi="http://sodipodi.sourceforge.net/DTD/sodipodi-0.dtd"
   xmlns:inkscape="http://www.inkscape.org/namespaces/inkscape"
   version="1.1"
   width="32"
   height="32"
   id="svg4505"
   sodipodi:docname="skypeforlinux_32.svg"
   inkscape:version="1.0.1 (1.0.1+r75)">
  <sodipodi:namedview
     pagecolor="#ffffff"
     bordercolor="#666666"
     borderopacity="1"
     objecttolerance="10"
     gridtolerance="10"
     guidetolerance="10"
     inkscape:pageopacity="0"
     inkscape:pageshadow="2"
     inkscape:window-width="1366"
     inkscape:window-height="705"
     id="namedview39"
     showgrid="true"
     inkscape:zoom="43.84062"
     inkscape:cx="24.80067"
     inkscape:cy="24.563737"
     inkscape:window-x="0"
     inkscape:window-y="30"
     inkscape:window-maximized="1"
     inkscape:current-layer="svg4505"
     inkscape:snap-bbox="true"
     inkscape:snap-nodes="false"
     inkscape:bbox-nodes="true">
    <inkscape:grid
       type="xygrid"
       id="grid1000" />
  </sodipodi:namedview>
  <defs
     id="defs4507">
    <linearGradient
       id="linearGradient3820-7-2-2">
      <stop
         id="stop3822-2-6-36"
         style="stop-color:#3d3d3d;stop-opacity:1"
         offset="0" />
      <stop
         id="stop3864-8-7-6"
         style="stop-color:#686868;stop-opacity:0.49803922"
         offset="0.5" />
      <stop
         id="stop3824-1-2-4"
         style="stop-color:#686868;stop-opacity:0"
         offset="1" />
    </linearGradient>
    <radialGradient
       cx="99.157013"
       cy="186.17059"
       r="62.769119"
       fx="99.157013"
       fy="186.17059"
       id="radialGradient3043"
       xlink:href="#linearGradient3820-7-2-2"
       gradientUnits="userSpaceOnUse"
       gradientTransform="matrix(0.17524541,0,0,0.05575992,-1.37681,18.119145)" />
    <linearGradient
       id="linearGradient2867-449-88-871-390-598-476-591-434-148-57-177-3-8">
      <stop
         id="stop3750-8-9"
         style="stop-color:#8cd5ff;stop-opacity:1"
         offset="0" />
      <stop
         id="stop3752-3-2"
         style="stop-color:#64baff;stop-opacity:1"
         offset="0.26238" />
      <stop
         id="stop3754-7-2"
         style="stop-color:#3689e6;stop-opacity:1"
         offset="0.704952" />
      <stop
         id="stop3756-9-3"
         style="stop-color:#0d52bf;stop-opacity:1"
         offset="1" />
    </linearGradient>
    <radialGradient
       xlink:href="#linearGradient2867-449-88-871-390-598-476-591-434-148-57-177-3-8"
       id="radialGradient3146"
       gradientUnits="userSpaceOnUse"
       gradientTransform="matrix(0,1.7674684,-1.8697707,-4.8107771e-8,31.79921,-9.5910627)"
       cx="3.9722471"
       cy="8.4497671"
       fx="3.9722471"
       fy="8.4497671"
       r="19.99999" />
    <linearGradient
       id="linearGradient4806-9">
      <stop
         offset="0"
         style="stop-color:#ffffff;stop-opacity:1"
         id="stop4808-49" />
      <stop
         offset="0.42447853"
         style="stop-color:#ffffff;stop-opacity:0.23529412"
         id="stop4810-05" />
      <stop
         offset="0.82089913"
         style="stop-color:#ffffff;stop-opacity:0.15686275"
         id="stop4812-6" />
      <stop
         offset="1"
         style="stop-color:#ffffff;stop-opacity:0.39215687"
         id="stop4814-7" />
    </linearGradient>
    <linearGradient
       gradientTransform="matrix(1.1194481,0,0,1.1219958,-64.797413,-15.266546)"
       gradientUnits="userSpaceOnUse"
       xlink:href="#linearGradient4806-9"
       id="linearGradient4338-5-6"
       y2="40.495617"
       x2="71.204407"
       y1="15.369057"
       x1="71.204407" />
    <radialGradient
       gradientTransform="matrix(0,2.7757648,-2.1876957,-3.1515899e-8,34.375085,-2.0762385)"
       gradientUnits="userSpaceOnUse"
       xlink:href="#linearGradient4223"
       id="radialGradient3126-7-25-24"
       fy="8.449769"
       fx="0.66680855"
       r="19.99999"
       cy="8.449769"
       cx="-1.2645766" />
    <linearGradient
       id="linearGradient4526"
       osb:paint="solid">
      <stop
         style="stop-color:#ffffff;stop-opacity:1;"
         offset="0"
         id="stop4528" />
    </linearGradient>
    <linearGradient
       id="linearGradient4223">
      <stop
         offset="0"
         style="stop-color:#d1ff82;stop-opacity:1"
         id="stop4225" />
      <stop
         offset="0.26238"
         style="stop-color:#9bdb4d;stop-opacity:1"
         id="stop4227" />
      <stop
         offset="0.66093999"
         style="stop-color:#68b723;stop-opacity:1"
         id="stop4229" />
      <stop
         offset="1"
         style="stop-color:#3a9104;stop-opacity:1"
         id="stop4231" />
    </linearGradient>
    <linearGradient
       inkscape:collect="always"
       xlink:href="#linearGradient947"
       id="linearGradient929"
       x1="19.288254"
       y1="1006.3339"
       x2="4.1306152"
       y2="1032.0963"
       gradientUnits="userSpaceOnUse"
       gradientTransform="matrix(0.45248697,0,0,0.45398978,0.5950249,-455.37814)" />
    <linearGradient
       id="linearGradient947">
      <stop
         id="stop943"
         style="stop-color:#64baff;stop-opacity:1"
         offset="0" />
      <stop
         id="stop945"
         style="stop-color:#3689e6;stop-opacity:1"
         offset="1" />
    </linearGradient>
    <linearGradient
       id="b"
       x1="21.834949"
       y1="30.768084"
       x2="29.546"
       y2="17.889"
       gradientUnits="userSpaceOnUse"
       gradientTransform="matrix(0.91303357,0,0,0.91606518,2.4470447,2.101947)">
      <stop
         offset="0"
         stop-color="#0078d4"
         id="stop11"
         style="stop-color:#3689e6;stop-opacity:1" />
      <stop
         offset="1"
         stop-color="#00bcf2"
         id="stop21"
         style="stop-color:#64baff;stop-opacity:1" />
    </linearGradient>
    <linearGradient
       id="c"
       x1="15.862497"
       y1="2.235914"
       x2="15.862497"
       y2="29.892433"
       gradientUnits="userSpaceOnUse"
       gradientTransform="matrix(0.97311054,0,0,0.97634673,0.62351518,0.37597546)">
      <stop
         offset="0"
         stop-color="#00b7f0"
         id="stop24"
         style="stop-color:#64baff;stop-opacity:1" />
      <stop
         offset="1"
         stop-color="#007cc1"
         id="stop26"
         style="stop-color:#3689e6;stop-opacity:1" />
    </linearGradient>
    <linearGradient
       id="linearGradient4214">
      <stop
         style="stop-color:#ffffff;stop-opacity:1;"
         offset="0"
         id="stop4216" />
      <stop
         id="stop4218"
         offset="0.28571552"
         style="stop-color:#ffffff;stop-opacity:0.23529412" />
      <stop
         style="stop-color:#ffffff;stop-opacity:0.15686275"
         offset="0.71428698"
         id="stop4220" />
      <stop
         style="stop-color:#ffffff;stop-opacity:0.39215687"
         offset="1"
         id="stop4222" />
    </linearGradient>
    <linearGradient
       inkscape:collect="always"
       xlink:href="#linearGradient4214"
       id="linearGradient1180"
       x1="5.5000019"
       y1="1028.3623"
       x2="42.499996"
       y2="1028.3623"
       gradientUnits="userSpaceOnUse"
       gradientTransform="matrix(0,0.69444449,-0.69444447,0,730.1405,-0.66667344)" />
    <linearGradient
       inkscape:collect="always"
       xlink:href="#linearGradient4632-92-3-0-8-1-9"
       id="linearGradient936"
       x1="24"
       y1="1017.3622"
       x2="24"
       y2="1039.3586"
       gradientUnits="userSpaceOnUse"
       gradientTransform="matrix(0.72726828,0,0,0.7272683,-1.4544409,-731.89525)" />
    <linearGradient
       id="linearGradient4632-92-3-0-8-1-9">
      <stop
         offset="0"
         style="stop-color:#fafafa;stop-opacity:1"
         id="stop4634-68-8-0-2-9-4" />
      <stop
         offset="1"
         style="stop-color:#e1e1e1;stop-opacity:1"
         id="stop4636-8-21-7-1-4-8" />
    </linearGradient>
    <linearGradient
       id="b-3"
       x1="21.834949"
       y1="30.768084"
       x2="29.546"
       y2="17.889"
       gradientUnits="userSpaceOnUse"
       gradientTransform="matrix(0.91303357,0,0,0.91606518,9.4147871,64.295493)">
      <stop
         offset="0"
         stop-color="#0078d4"
         id="stop11-6"
         style="stop-color:#3689e6;stop-opacity:1" />
      <stop
         offset="1"
         stop-color="#00bcf2"
         id="stop21-1"
         style="stop-color:#64baff;stop-opacity:1" />
    </linearGradient>
    <linearGradient
       id="b-8"
       x1="21.834949"
       y1="30.768084"
       x2="29.546"
       y2="17.889"
       gradientUnits="userSpaceOnUse"
       gradientTransform="matrix(0.91303357,0,0,0.91606518,26.947045,-7.3980526)">
      <stop
         offset="0"
         stop-color="#0078d4"
         id="stop11-7"
         style="stop-color:#3689e6;stop-opacity:1" />
      <stop
         offset="1"
         stop-color="#00bcf2"
         id="stop21-17"
         style="stop-color:#64baff;stop-opacity:1" />
    </linearGradient>
    <linearGradient
       inkscape:collect="always"
       xlink:href="#c"
       id="linearGradient1214"
       gradientUnits="userSpaceOnUse"
       gradientTransform="matrix(0.97311054,0,0,0.97634673,0.56257773,0.31499526)"
       x1="15.862497"
       y1="2.235914"
       x2="15.862497"
       y2="29.892433" />
    <linearGradient
       inkscape:collect="always"
       xlink:href="#linearGradient4214"
       id="linearGradient1245"
       x1="6.5332236"
       y1="1.977417"
       x2="6.5332236"
       y2="11.224134"
       gradientUnits="userSpaceOnUse" />
    <linearGradient
       inkscape:collect="always"
       xlink:href="#linearGradient4214"
       id="linearGradient1255"
       x1="25.491238"
       y1="20.744221"
       x2="25.491238"
       y2="29.974268"
       gradientUnits="userSpaceOnUse" />
  </defs>
  <metadata
     id="metadata4510">
    <rdf:RDF>
      <cc:Work
         rdf:about="">
        <dc:format>image/svg+xml</dc:format>
        <dc:type
           rdf:resource="http://purl.org/dc/dcmitype/StillImage" />
        <dc:title />
      </cc:Work>
    </rdf:RDF>
  </metadata>
  <path
     d="m 27.000001,28.499999 a 11,3.4999999 0 1 1 -21.9999996,0 11,3.4999999 0 1 1 21.9999996,0 z"
     id="path3818-0-2"
     style="fill:url(#radialGradient3043);fill-opacity:1;stroke:none" />
  <path
     d="M 17.499999,9.4999354 A 8.0000002,7.9999949 0 0 1 9.5000012,17.500005 8.0000002,7.9999949 0 0 1 1.499999,9.4999354 8.0000002,7.9999949 0 0 1 9.5000012,1.5000046 8.0000002,7.9999949 0 0 1 17.499999,9.4999354"
     style="fill:url(#linearGradient929);fill-opacity:1;stroke:none;stroke-width:33.3333"
     id="path31" />
  <path
     d="M 30.5,22.499931 A 8.0000004,7.9999972 0 0 1 22.499999,30.5 8.0000004,7.9999972 0 0 1 14.5,22.499931 8.0000004,7.9999972 0 0 1 22.499999,14.5 8.0000004,7.9999972 0 0 1 30.5,22.499931"
     style="fill:url(#b);stroke-width:33.3333"
     id="path33" />
  <path
     d="M 29.499964,16.000036 A 13.499962,13.499947 0 0 1 16.000003,29.5 13.499962,13.499947 0 0 1 2.5000365,16.000036 13.499962,13.499947 0 0 1 16.000003,2.5000002 13.499962,13.499947 0 0 1 29.499964,16.000036"
     style="fill:url(#linearGradient1214);stroke-width:33.3333"
     id="path47" />
  <path
     d="M 28.500001,15.999999 A 12.499999,12.499953 0 0 1 15.999999,28.500001 12.499999,12.499953 0 0 1 3.4999994,15.999999 12.499999,12.499953 0 0 1 15.999999,3.4999989 12.499999,12.499953 0 0 1 28.500001,15.999999"
     style="fill:none;stroke:url(#linearGradient1180);stroke-width:0.999994;stroke-miterlimit:4;stroke-dasharray:none;stroke-opacity:0.392157"
     id="path47-2" />
  <path
     id="path47-1"
     style="fill:none;stroke:#002e99;stroke-width:1;stroke-miterlimit:4;stroke-dasharray:none;stroke-opacity:1;opacity:0.4"
     d="M 29.500909,16.000223 A 13.499962,13.499947 0 0 1 16.000948,29.500187 13.499962,13.499947 0 0 1 2.500982,16.000223 13.499962,13.499947 0 0 1 16.000948,2.500187 13.499962,13.499947 0 0 1 29.500909,16.000223 m -0.196222,2.290793 A 13.499962,13.499947 0 0 1 18.294922,29.304688 8.0000004,7.9999972 0 0 0 22.5,30.5 a 8.0000004,7.9999972 0 0 0 8,-8 8.0000004,7.9999972 0 0 0 -1.195313,-4.208984 z M 9.5000001,1.5 A 8.0000002,7.9999949 0 0 0 1.5,9.5000004 8.0000002,7.9999949 0 0 0 2.6972656,13.708985 13.499962,13.499947 0 0 1 13.707031,2.697266 8.0000002,7.9999949 0 0 0 9.5000001,1.5 Z" />
  <path
     id="path49-5-5"
     style="opacity:0.2;fill:#002e99;fill-opacity:1;stroke:none;stroke-width:33.3333"
     d="m 16.263187,8.0043647 c -0.810729,0.02321 -1.615095,0.137944 -2.392578,0.332031 -2.051574,0.482985 -4.156639,2.0593433 -4.34375,4.5000003 -0.209589,1.842836 0.641344,3.686543 2.22461,4.697266 l -0.0098,0.01367 c 0.01378,0.0098 0.02526,0.0098 0.03906,0.01953 0.0061,0.0038 0.0075,0.01183 0.01367,0.01563 l 0.0039,-0.0059 c 1.851294,1.292516 3.868973,1.682881 5.207032,2.677734 l 0.02734,0.01953 0.0293,0.01953 c 0.231535,0.148584 0.295258,0.617996 0.13086,0.841797 -0.198742,0.221402 -0.457817,0.349354 -0.855469,0.404297 -0.40757,0.05631 -0.918417,0.01388 -1.388672,-0.07813 l -0.02539,-0.0039 -0.02344,-0.0039 c -0.307438,-0.04473 -0.702436,-0.242895 -1.224563,-0.499992 -0.515719,-0.253941 -1.194718,-0.559292 -2.03125,-0.519531 -1.443188,0.03737 -2.398706,1.444741 -2.046875,2.785156 0.268925,1.0566 1.119947,1.702884 1.890625,2.027344 0.773181,0.325514 1.550034,0.448596 2.074218,0.580078 l 0.05273,0.01367 0.05273,0.0078 c 2.068953,0.288766 4.461119,0.287077 6.509766,-0.925781 l 0.0039,-0.002 0.002,-0.0019 c 1.724093,-1.038813 2.49952,-3.041282 2.287078,-4.919926 -0.156862,-2.127111 -1.768664,-3.622785 -3.408204,-4.3984 -1.535043,-0.848994 -3.070781,-1.203503 -4.126953,-1.958985 l -0.02344,-0.01758 -0.02539,-0.01563 c -0.213152,-0.133875 -0.218726,-0.655166 -0.01758,-0.800781 0.911211,-0.593359 2.301599,-0.388185 3.535156,0.138672 0.502628,0.290263 1.070243,0.415179 1.660157,0.332031 0.641569,-0.09043 1.344746,-0.528255 1.652343,-1.253906 0.62852,-1.373045 -0.200232,-2.8402602 -1.46289,-3.3281252 -1.019555,-0.409947 -2.096298,-0.631592 -3.177735,-0.683593 -0.270693,-0.01302 -0.542257,-0.01555 -0.8125,-0.0078 z" />
  <path
     id="path1104"
     style="opacity:0.4;fill:#002e99;fill-opacity:1;stroke:none;stroke-width:33.3333"
     d="m 12.320729,16.731886 c -1.275767,-0.789159 -1.979997,-2.316496 -1.804527,-3.799031 0.132921,-1.887626 1.857447,-3.2196181 3.589262,-3.6253611 1.891653,-0.473597 3.968422,-0.414907 5.786145,0.318762 0.772673,0.29658 1.29133,1.2083561 0.920543,1.9960601 -0.319502,0.805377 -1.37726,0.833813 -2.014879,0.404652 -1.390156,-0.593741 -3.14955,-0.939267 -4.494543,-0.04946 -0.830737,0.569668 -0.804544,1.940133 0.05094,2.477439 1.292872,0.924794 2.896562,1.26901 4.273277,2.04246 1.427368,0.672432 2.74381,1.94057 2.854279,3.596778 0.178813,1.524937 -0.470262,3.158235 -1.813717,3.967685 -1.74671,1.034103 -3.903542,1.069448 -5.861213,0.796214 -1.16789,-0.292944 -2.895931,-0.496943 -3.244442,-1.889444 -0.19273,-0.725522 0.344214,-1.526681 1.115197,-1.540935 1.132717,-0.06546 1.990464,0.857303 3.079006,1.015703 1.077218,0.210761 2.434127,0.242543 3.216103,-0.663633 0.568307,-0.703269 0.396754,-1.836353 -0.369573,-2.328131 -1.600959,-1.19032 -3.655225,-1.563773 -5.281851,-2.719402" />
  <path
     id="path49-5"
     style="fill:url(#linearGradient936);fill-opacity:1;stroke:none;stroke-width:33.3333"
     d="m 12.320729,15.72887 c -1.275767,-0.789159 -1.979997,-2.316496 -1.804527,-3.799031 0.132921,-1.887626 1.857447,-3.2196176 3.589262,-3.6253606 1.891653,-0.4735972 3.968422,-0.4149067 5.786145,0.3187617 0.772673,0.29658 1.29133,1.2083562 0.920543,1.9960599 -0.319502,0.805377 -1.37726,0.833813 -2.014879,0.404652 -1.390156,-0.593741 -3.14955,-0.939267 -4.494543,-0.04946 -0.830737,0.569668 -0.804544,1.940133 0.05094,2.477439 1.292872,0.924794 2.896562,1.26901 4.273277,2.04246 1.427368,0.672432 2.74381,1.94057 2.854279,3.596778 0.178813,1.524937 -0.470262,3.158235 -1.813717,3.967685 -1.74671,1.034103 -3.903542,1.069448 -5.861213,0.796214 -1.16789,-0.292944 -2.895931,-0.496943 -3.244442,-1.889444 -0.19273,-0.725522 0.344214,-1.526681 1.115197,-1.540935 1.132717,-0.06546 1.990464,0.857303 3.079006,1.015703 1.077218,0.210761 2.434127,0.242543 3.216103,-0.663633 0.568307,-0.703269 0.396754,-1.836353 -0.369573,-2.328131 -1.600959,-1.19032 -3.655225,-1.563773 -5.281851,-2.719402" />
  <path
     id="path31-2"
     style="fill:none;fill-opacity:1;stroke:url(#linearGradient1245);stroke-width:1;stroke-linejoin:round;stroke-miterlimit:4;stroke-dasharray:none;stroke-opacity:1;opacity:0.4"
     d="m 9.5,2.5 c -3.87784,10e-8 -7.000002,3.122164 -7,6.9999998 4.4e-5,0.410238 0.09711,0.8064332 0.167969,1.2070312 C 4.139619,7.008342 7.008655,4.1405306 10.707031,2.6679688 10.306587,2.5972328 9.91006,2.4999825 9.5,2.5 Z" />
  <path
     id="path33-7"
     style="fill:none;stroke:url(#linearGradient1255);stroke-width:1;stroke-linejoin:round;stroke-miterlimit:4;stroke-dasharray:none;stroke-opacity:1;opacity:0.4"
     d="m 29.42619,21.278179 c -1.47165,3.698689 -4.551375,6.698899 -8.249751,8.171461 0.400444,0.07074 0.913501,0.05038 1.323561,0.05036 3.877839,0 7.000001,-3.122163 7,-7 -4.4e-5,-0.410238 -0.003,-0.821223 -0.07381,-1.221821 z"
     sodipodi:nodetypes="ccccc" />
</svg>
