<?xml version="1.0" encoding="UTF-8" standalone="no"?>
<!-- Created with Inkscape (http://www.inkscape.org/) -->

<svg
   xmlns:dc="http://purl.org/dc/elements/1.1/"
   xmlns:cc="http://creativecommons.org/ns#"
   xmlns:rdf="http://www.w3.org/1999/02/22-rdf-syntax-ns#"
   xmlns:svg="http://www.w3.org/2000/svg"
   xmlns="http://www.w3.org/2000/svg"
   xmlns:xlink="http://www.w3.org/1999/xlink"
   xmlns:sodipodi="http://sodipodi.sourceforge.net/DTD/sodipodi-0.dtd"
   xmlns:inkscape="http://www.inkscape.org/namespaces/inkscape"
   id="svg4061"
   height="64"
   width="64"
   version="1.1"
   inkscape:version="0.91 r13725"
   sodipodi:docname="dconf-editor_64.svg">
  <sodipodi:namedview
     pagecolor="#ffffff"
     bordercolor="#666666"
     borderopacity="1"
     objecttolerance="10"
     gridtolerance="10"
     guidetolerance="10"
     inkscape:pageopacity="0"
     inkscape:pageshadow="2"
     inkscape:window-width="1366"
     inkscape:window-height="705"
     id="namedview40"
     showgrid="false"
     inkscape:zoom="4.9166667"
     inkscape:cx="5.4763401"
     inkscape:cy="32.135593"
     inkscape:window-x="0"
     inkscape:window-y="30"
     inkscape:window-maximized="1"
     inkscape:current-layer="svg4061" />
  <defs
     id="defs4063">
    <linearGradient
       id="linearGradient3026"
       y2="40.496"
       gradientUnits="userSpaceOnUse"
       x2="71.204"
       gradientTransform="matrix(2.3269025,0,0,2.3269007,-138.99507,-27.350987)"
       y1="15.369"
       x1="71.204">
      <stop
         id="stop4808-4"
         stop-color="#fff"
         offset="0" />
      <stop
         id="stop4810-0"
         stop-color="#fff"
         stop-opacity=".23529"
         offset=".42448" />
      <stop
         id="stop4812-8"
         stop-color="#fff"
         stop-opacity=".15686"
         offset=".82090" />
      <stop
         id="stop4814-0"
         stop-color="#fff"
         stop-opacity=".39216"
         offset="1" />
    </linearGradient>
    <radialGradient
       id="radialGradient3029"
       fx="4.459"
       fy="8.5089"
       gradientUnits="userSpaceOnUse"
       cy="8.6258"
       cx="15.026"
       gradientTransform="matrix(-5.0327e-8,2.7132784,-2.5562829,-7.8747672e-8,53.78683,-14.039083)"
       r="20">
      <stop
         id="stop4170"
         stop-color="#c24251"
         offset="0" />
      <stop
         id="stop4172"
         stop-color="#c24251"
         offset=".26238" />
      <stop
         id="stop4174"
         stop-color="#a63643"
         offset=".66094" />
      <stop
         id="stop4176"
         stop-color="#a63643"
         offset="1" />
    </radialGradient>
    <radialGradient
       id="radialGradient3032"
       gradientUnits="userSpaceOnUse"
       cy="3.99"
       cx="23.896"
       gradientTransform="matrix(0,4.1566188,-5.4867122,0,53.891878,-97.440268)"
       r="20.397">
      <stop
         id="stop3244-9-33-7-0-9"
         stop-color="#fff"
         offset="0" />
      <stop
         id="stop3246-3-5-0-8-5"
         stop-color="#ddd"
         offset=".26238" />
      <stop
         id="stop3248-1-7-8-8-1"
         stop-color="#abacae"
         offset=".66094" />
      <stop
         id="stop3250-9-3-0-5-1"
         stop-color="#89898b"
         offset="1" />
    </radialGradient>
    <radialGradient
       id="radialGradient3035"
       gradientUnits="userSpaceOnUse"
       cy="186.17"
       cx="99.157"
       gradientTransform="matrix(0.27083,0,0,0.087623,-2.8551,25.187)"
       r="62.769">
      <stop
         id="stop3822-2-6-3"
         stop-color="#3d3d3d"
         offset="0" />
      <stop
         id="stop3864-8-7-7"
         stop-color="#686868"
         stop-opacity=".49804"
         offset=".5" />
      <stop
         id="stop3824-1-2-5"
         stop-color="#686868"
         stop-opacity="0"
         offset="1" />
    </radialGradient>
    <linearGradient
       id="linearGradient4433"
       y2="25.611"
       gradientUnits="userSpaceOnUse"
       x2="23.078"
       gradientTransform="matrix(1,0,0,1.0521,0,-0.90547)"
       y1="13.035"
       x1="22.759">
      <stop
         id="stop6305-1-0-2"
         stop-color="#fff"
         offset="0" />
      <stop
         id="stop6307-5-0-6"
         stop-color="#fff"
         stop-opacity="0"
         offset="1" />
    </linearGradient>
    <radialGradient
       gradientTransform="matrix(0.27083381,0,0,0.08762273,-2.8550719,25.186634)"
       gradientUnits="userSpaceOnUse"
       xlink:href="#linearGradient3820-7-2-1"
       id="radialGradient3025"
       fy="186.17059"
       fx="99.157013"
       r="62.769119"
       cy="186.17059"
       cx="99.157013" />
    <linearGradient
       id="linearGradient3820-7-2-1">
      <stop
         offset="0"
         style="stop-color:#3d3d3d;stop-opacity:1"
         id="stop3822-2-6-3-3" />
      <stop
         offset="0.5"
         style="stop-color:#686868;stop-opacity:0.49803922"
         id="stop3864-8-7-7-6" />
      <stop
         offset="1"
         style="stop-color:#686868;stop-opacity:0"
         id="stop3824-1-2-5-7" />
    </linearGradient>
    <linearGradient
       y2="40.495617"
       x2="71.204407"
       y1="15.369057"
       x1="71.204407"
       gradientTransform="matrix(2.3268746,0,0,2.3268746,-135.94475,-32.842781)"
       gradientUnits="userSpaceOnUse"
       id="linearGradient3293"
       xlink:href="#linearGradient4806" />
    <linearGradient
       id="linearGradient4806">
      <stop
         offset="0"
         style="stop-color:#ffffff;stop-opacity:1"
         id="stop4808" />
      <stop
         offset="0.42447853"
         style="stop-color:#ffffff;stop-opacity:0.23529412"
         id="stop4810" />
      <stop
         offset="0.82089913"
         style="stop-color:#ffffff;stop-opacity:0.15686275"
         id="stop4812" />
      <stop
         offset="1"
         style="stop-color:#ffffff;stop-opacity:0.39215687"
         id="stop4814" />
    </linearGradient>
    <radialGradient
       r="62.769119"
       fy="185.29727"
       fx="99.189415"
       cy="185.29727"
       cx="99.189415"
       gradientTransform="matrix(0.3823536,7.5555777e-8,-1.8372241e-8,0.1115198,-5.9254271,36.335849)"
       gradientUnits="userSpaceOnUse"
       id="radialGradient3300"
       xlink:href="#linearGradient3820-7-2" />
    <linearGradient
       id="linearGradient3820-7-2">
      <stop
         offset="0"
         style="stop-color:#000000;stop-opacity:1"
         id="stop3822-2-6" />
      <stop
         offset="1"
         style="stop-color:#000000;stop-opacity:0"
         id="stop3824-1-2" />
    </linearGradient>
    <radialGradient
       r="62.769119"
       fy="185.29727"
       fx="99.189415"
       cy="185.29727"
       cx="99.189415"
       gradientTransform="matrix(0.2549024,5.3967361e-8,-1.2248161e-8,0.07965545,6.7163816,44.240666)"
       gradientUnits="userSpaceOnUse"
       id="radialGradient4192"
       xlink:href="#linearGradient3820-7-2" />
  </defs>
  <metadata
     id="metadata4066">
    <rdf:RDF>
      <cc:Work
         rdf:about="">
        <dc:format>image/svg+xml</dc:format>
        <dc:type
           rdf:resource="http://purl.org/dc/dcmitype/StillImage" />
        <dc:title />
      </cc:Work>
    </rdf:RDF>
  </metadata>
  <g
     transform="translate(1.55e-6,1.6807946e-4)"
     id="g4198">
    <path
       inkscape:connector-curvature="0"
       style="opacity:0.2;fill:url(#radialGradient3300);fill-opacity:1;stroke:none"
       id="path3818-0"
       d="m 55.999998,57.0017 a 24,6.9985714 0 1 1 -47.9999991,0 24,6.9985714 0 1 1 47.9999991,0 z" />
    <path
       inkscape:connector-curvature="0"
       d="m 47.999998,59.0017 a 16,4.9988822 0 1 1 -31.999999,0 16,4.9988822 0 1 1 31.999999,0 z"
       id="path4190"
       style="opacity:0.4;fill:url(#radialGradient4192);fill-opacity:1;stroke:none" />
  </g>
  <path
     inkscape:connector-curvature="0"
     d="m 32,2.4998999 c -16.276805,0 -29.5,13.2231851 -29.5,29.4999781 0,16.276792 13.223195,29.499977 29.5,29.499977 16.276805,0 29.5,-13.223185 29.5,-29.499977 C 61.5,15.723085 48.276805,2.4998999 32,2.4998999 Z"
     style="color:#000000;fill:url(#radialGradient3032)"
     id="path2555-7-2" />
  <path
     inkscape:connector-curvature="0"
     d="m 32,2.4998999 c -16.276805,0 -29.5,13.2231851 -29.5,29.4999781 0,16.276792 13.223195,29.499977 29.5,29.499977 16.276805,0 29.5,-13.223185 29.5,-29.499977 C 61.5,15.723085 48.276805,2.4998999 32,2.4998999 Z"
     style="color:#000000;fill:url(#radialGradient3029)"
     id="path2555-7-65" />
  <path
     inkscape:connector-curvature="0"
     d="m 32,2.5000439 c -16.276805,0 -29.5,13.2228971 -29.5,29.4999781 0,16.27708 13.222907,29.499977 29.5,29.499977 16.277093,0 29.5,-13.222897 29.5,-29.499977 C 61.5,15.722941 48.276805,2.5000439 32,2.5000439 Z"
     style="color:#000000;opacity:0.5;fill:none;stroke:#7e2934;stroke-width:1;stroke-linecap:round;stroke-linejoin:round"
     id="path2555-7-1-7" />
  <g
     style="fill:none;stroke:#000000;stroke-width:0.69491553;stroke-linecap:round;stroke-linejoin:round"
     transform="matrix(1.4393122,0,0,1.4395989,-3.9782,-2.5439467)"
     id="g4317">
    <path
       inkscape:connector-curvature="0"
       d="m 21,12 c -4.4064,0 -8,3.5937 -8,8.0002 0,4.4065 3.5936,8.0002 8,8.0002 1.4791,0 2.862,-0.41252 4.0527,-1.1172 l 8.7461,8.967 a 0.50005,0.50006 0 0 0 0.76172,-0.05664 l 1.3438,-1.8497 a 0.50005,0.50006 0 0 0 -0.061,-0.655 l -8.68,-8.196 c 1.147,-1.385 1.836,-3.16 1.836,-5.092 0,-4.406 -3.594,-8 -8,-8 z m 0,2 c 3.3255,0 6,2.6746 6,6.0001 0,3.3256 -2.6745,6.0001 -6,6.0001 -3.3255,0 -6,-2.6746 -6,-6.0001 C 15,16.6745 17.6745,14 21,14 Z"
       style="color:#000000;text-indent:0;text-decoration:none;text-decoration-line:none;text-decoration-style:solid;text-decoration-color:#000000;text-transform:none;block-progression:tb;white-space:normal;opacity:0.15;isolation:auto;mix-blend-mode:normal;solid-color:#000000;stroke-width:1.38983107;color-rendering:auto;image-rendering:auto;shape-rendering:auto"
       id="path4238" />
    <path
       inkscape:connector-curvature="0"
       d="m 21,12 c -4.4064,0 -8,3.5937 -8,8.0002 0,4.4065 3.5936,8.0002 8,8.0002 1.4791,0 2.862,-0.41252 4.0527,-1.1172 l 8.7461,8.967 a 0.50005,0.50006 0 0 0 0.76172,-0.05664 l 1.3438,-1.8497 a 0.50005,0.50006 0 0 0 -0.061,-0.655 l -8.68,-8.196 c 1.147,-1.385 1.836,-3.16 1.836,-5.092 0,-4.406 -3.594,-8 -8,-8 z m 0,2 c 3.3255,0 6,2.6746 6,6.0001 0,3.3256 -2.6745,6.0001 -6,6.0001 -3.3255,0 -6,-2.6746 -6,-6.0001 C 15,16.6745 17.6745,14 21,14 Z"
       style="color:#000000;text-indent:0;text-decoration:none;text-decoration-line:none;text-decoration-style:solid;text-decoration-color:#000000;text-transform:none;block-progression:tb;white-space:normal;opacity:0.15;isolation:auto;mix-blend-mode:normal;solid-color:#000000;stroke-width:0.69491553;color-rendering:auto;image-rendering:auto;shape-rendering:auto"
       id="path4240" />
  </g>
  <path
     inkscape:connector-curvature="0"
     d="m 26.243903,14.731598 c -6.340918,0 -11.512196,5.171418 -11.512196,11.512474 0,6.341056 5.171278,11.512474 11.512196,11.512474 2.128461,0 4.118487,-0.593625 5.831934,-1.607676 l 12.585851,12.903722 a 0.71958415,0.71959799 0 0 0 1.096134,-0.08151 l 1.933761,-2.661761 A 0.71958415,0.71959799 0 0 0 47.60445,45.364936 L 35.113718,33.57214 c 1.650561,-1.993047 2.642049,-4.547314 2.642049,-7.327507 0,-6.340336 -5.171854,-11.512186 -11.512195,-11.512186 z m 0,2.878047 c 4.785475,0 8.634146,3.848811 8.634146,8.634283 0,4.785616 -3.848671,8.634284 -8.634146,8.634284 -4.785476,0 -8.634147,-3.848812 -8.634147,-8.634284 0,-4.785616 3.848671,-8.634283 8.634147,-8.634283 z"
     style="color:#000000;text-indent:0;text-decoration:none;text-decoration-line:none;text-decoration-style:solid;text-decoration-color:#000000;text-transform:none;block-progression:tb;white-space:normal;isolation:auto;mix-blend-mode:normal;solid-color:#000000;fill:#ffffff;fill-rule:evenodd;color-rendering:auto;image-rendering:auto;shape-rendering:auto"
     id="path11112" />
  <g
     transform="matrix(0.78491586,0,0,0.78491526,7.4057781,7.261772)"
     id="g4489">
    <path
       style="opacity:0.15;fill:#4998ff;stroke:#000000;stroke-width:0.71228838;stroke-linecap:round;stroke-linejoin:round"
       inkscape:connector-curvature="0"
       d="M 34.487,24 A 10.487,10.487 0 0 1 24,34.487 10.487,10.487 0 0 1 13.513,24 10.487,10.487 0 0 1 24,13.513 10.487,10.487 0 0 1 34.487,24 Z"
       id="path4435" />
    <path
       inkscape:connector-curvature="0"
       style="opacity:0.3;fill:url(#linearGradient4433)"
       d="m 34.866,22.457 c 0,-0.81127 0.23346,0.6914 0.08466,-0.0736 -1.0547,-5.4818 -6.274,-9.3078 -10.943,-9.3833 -5.5267,0.44071 -9.8748,3.9983 -10.943,9.3832 -0.1488,0.76498 0.0067,-0.7377 0.0067,0.07358 0,6.49 4.8452,-1.49 11.014,-1.49 6.1684,0 10.78,7.9802 10.78,1.49 z"
       id="path4264" />
  </g>
  <path
     inkscape:connector-curvature="0"
     d="M 60.500011,32.000001 C 60.500011,47.740116 47.740111,60.5 31.999991,60.5 16.259892,60.5 3.5,47.740116 3.5,32.000001 3.5,16.259885 16.259892,3.5 31.999991,3.5 c 15.74012,0 28.50002,12.759885 28.50002,28.500001 z"
     id="path3019"
     style="color:#000000;display:inline;overflow:visible;visibility:visible;opacity:0.5;fill:none;stroke:url(#linearGradient3293);stroke-width:1;stroke-linecap:round;stroke-linejoin:round;stroke-miterlimit:4;stroke-dasharray:none;stroke-dashoffset:0;stroke-opacity:1;marker:none;enable-background:accumulate" />
</svg>
