<?xml version="1.0" encoding="UTF-8" standalone="no"?>
<!-- Created with Inkscape (http://www.inkscape.org/) -->

<svg
   xmlns:dc="http://purl.org/dc/elements/1.1/"
   xmlns:cc="http://creativecommons.org/ns#"
   xmlns:rdf="http://www.w3.org/1999/02/22-rdf-syntax-ns#"
   xmlns:svg="http://www.w3.org/2000/svg"
   xmlns="http://www.w3.org/2000/svg"
   xmlns:xlink="http://www.w3.org/1999/xlink"
   xmlns:sodipodi="http://sodipodi.sourceforge.net/DTD/sodipodi-0.dtd"
   xmlns:inkscape="http://www.inkscape.org/namespaces/inkscape"
   id="svg4061"
   height="24"
   width="24"
   version="1.1"
   inkscape:version="0.91 r13725"
   sodipodi:docname="dconf-editor_24.svg">
  <sodipodi:namedview
     pagecolor="#ffffff"
     bordercolor="#666666"
     borderopacity="1"
     objecttolerance="10"
     gridtolerance="10"
     guidetolerance="10"
     inkscape:pageopacity="0"
     inkscape:pageshadow="2"
     inkscape:window-width="1366"
     inkscape:window-height="705"
     id="namedview40"
     showgrid="false"
     inkscape:zoom="13.906433"
     inkscape:cx="9.3630742"
     inkscape:cy="7.7288135"
     inkscape:window-x="0"
     inkscape:window-y="30"
     inkscape:window-maximized="1"
     inkscape:current-layer="svg4061" />
  <defs
     id="defs4063">
    <linearGradient
       id="linearGradient3026"
       y2="40.496"
       gradientUnits="userSpaceOnUse"
       x2="71.204"
       gradientTransform="matrix(1.1437317,0,0,1.1437329,-65.829761,-10.982002)"
       y1="15.369"
       x1="71.204">
      <stop
         id="stop4808-4"
         stop-color="#fff"
         offset="0" />
      <stop
         id="stop4810-0"
         stop-color="#fff"
         stop-opacity=".23529"
         offset=".42448" />
      <stop
         id="stop4812-8"
         stop-color="#fff"
         stop-opacity=".15686"
         offset=".82090" />
      <stop
         id="stop4814-0"
         stop-color="#fff"
         stop-opacity=".39216"
         offset="1" />
    </linearGradient>
    <radialGradient
       id="radialGradient3029"
       fx="4.459"
       fy="8.5089"
       gradientUnits="userSpaceOnUse"
       cy="8.6258"
       cx="15.026"
       gradientTransform="matrix(-1.7913e-8,0.96574579,-0.90986338,-2.8028908e-8,19.754634,-4.3868646)"
       r="20">
      <stop
         id="stop4170"
         stop-color="#c24251"
         offset="0" />
      <stop
         id="stop4172"
         stop-color="#c24251"
         offset=".26238" />
      <stop
         id="stop4174"
         stop-color="#a63643"
         offset=".66094" />
      <stop
         id="stop4176"
         stop-color="#a63643"
         offset="1" />
    </radialGradient>
    <radialGradient
       id="radialGradient3032"
       gradientUnits="userSpaceOnUse"
       cy="3.99"
       cx="23.896"
       gradientTransform="matrix(0,1.4794785,-1.9528975,0,19.792025,-34.072113)"
       r="20.397">
      <stop
         id="stop3244-9-33-7-0-9"
         stop-color="#fff"
         offset="0" />
      <stop
         id="stop3246-3-5-0-8-5"
         stop-color="#ddd"
         offset=".26238" />
      <stop
         id="stop3248-1-7-8-8-1"
         stop-color="#abacae"
         offset=".66094" />
      <stop
         id="stop3250-9-3-0-5-1"
         stop-color="#89898b"
         offset="1" />
    </radialGradient>
    <radialGradient
       id="radialGradient3035"
       gradientUnits="userSpaceOnUse"
       cy="186.17"
       cx="99.157"
       gradientTransform="matrix(0.27083,0,0,0.087623,-2.8551,25.187)"
       r="62.769">
      <stop
         id="stop3822-2-6-3"
         stop-color="#3d3d3d"
         offset="0" />
      <stop
         id="stop3864-8-7-7"
         stop-color="#686868"
         stop-opacity=".49804"
         offset=".5" />
      <stop
         id="stop3824-1-2-5"
         stop-color="#686868"
         stop-opacity="0"
         offset="1" />
    </radialGradient>
    <linearGradient
       id="linearGradient4433"
       y2="25.611"
       gradientUnits="userSpaceOnUse"
       x2="23.078"
       gradientTransform="matrix(1,0,0,1.0521,0,-0.90547)"
       y1="13.035"
       x1="22.759">
      <stop
         id="stop6305-1-0-2"
         stop-color="#fff"
         offset="0" />
      <stop
         id="stop6307-5-0-6"
         stop-color="#fff"
         stop-opacity="0"
         offset="1" />
    </linearGradient>
    <radialGradient
       gradientTransform="matrix(0.27083381,0,0,0.08762273,-2.8550719,25.186634)"
       gradientUnits="userSpaceOnUse"
       xlink:href="#linearGradient3820-7-2-1"
       id="radialGradient3025"
       fy="186.17059"
       fx="99.157013"
       r="62.769119"
       cy="186.17059"
       cx="99.157013" />
    <linearGradient
       id="linearGradient3820-7-2-1">
      <stop
         offset="0"
         style="stop-color:#3d3d3d;stop-opacity:1"
         id="stop3822-2-6-3-3" />
      <stop
         offset="0.5"
         style="stop-color:#686868;stop-opacity:0.49803922"
         id="stop3864-8-7-7-6" />
      <stop
         offset="1"
         style="stop-color:#686868;stop-opacity:0"
         id="stop3824-1-2-5-7" />
    </linearGradient>
    <linearGradient
       gradientTransform="matrix(0.79814722,0,0,0.79814833,-45.607164,-10.241928)"
       gradientUnits="userSpaceOnUse"
       xlink:href="#linearGradient4806-9"
       id="linearGradient3024"
       y2="40.495617"
       x2="71.204407"
       y1="15.369057"
       x1="71.204407" />
    <linearGradient
       id="linearGradient4806-9">
      <stop
         offset="0"
         style="stop-color:#ffffff;stop-opacity:1"
         id="stop4808-49" />
      <stop
         offset="0.42447853"
         style="stop-color:#ffffff;stop-opacity:0.23529412"
         id="stop4810-05" />
      <stop
         offset="0.82089913"
         style="stop-color:#ffffff;stop-opacity:0.15686275"
         id="stop4812-6" />
      <stop
         offset="1"
         style="stop-color:#ffffff;stop-opacity:0.39215687"
         id="stop4814-7" />
    </linearGradient>
    <radialGradient
       gradientTransform="matrix(0.17524541,0,0,0.05575992,-1.3768109,18.118812)"
       gradientUnits="userSpaceOnUse"
       xlink:href="#linearGradient3820-7-2-1"
       id="radialGradient3034"
       fy="186.17059"
       fx="99.157013"
       r="62.769119"
       cy="186.17059"
       cx="99.157013" />
    <linearGradient
       y2="44.340794"
       x2="71.204407"
       y1="6.2375584"
       x1="71.204407"
       gradientTransform="matrix(0.51351351,0,0,0.51351351,-24.836129,-1.0212855)"
       gradientUnits="userSpaceOnUse"
       id="linearGradient3089"
       xlink:href="#linearGradient4011-4" />
    <linearGradient
       id="linearGradient4011-4">
      <stop
         id="stop4013-8"
         style="stop-color:#ffffff;stop-opacity:1"
         offset="0" />
      <stop
         id="stop4015-5"
         style="stop-color:#ffffff;stop-opacity:0.23529412"
         offset="0.507761" />
      <stop
         id="stop4017-6"
         style="stop-color:#ffffff;stop-opacity:0.15686275"
         offset="0.83456558" />
      <stop
         id="stop4019-1"
         style="stop-color:#ffffff;stop-opacity:0.39215687"
         offset="1" />
    </linearGradient>
    <radialGradient
       xlink:href="#linearGradient3820-7-2-1"
       id="radialGradient3108"
       gradientUnits="userSpaceOnUse"
       gradientTransform="matrix(0.11151981,0,0,0.03548359,0.942029,15.166729)"
       cx="99.157013"
       cy="186.17059"
       fx="99.157013"
       fy="186.17059"
       r="62.769119" />
  </defs>
  <metadata
     id="metadata4066">
    <rdf:RDF>
      <cc:Work
         rdf:about="">
        <dc:format>image/svg+xml</dc:format>
        <dc:type
           rdf:resource="http://purl.org/dc/dcmitype/StillImage" />
        <dc:title />
      </cc:Work>
    </rdf:RDF>
  </metadata>
  <path
     inkscape:connector-curvature="0"
     style="fill:url(#radialGradient3108);fill-opacity:1;stroke:none"
     id="path3818-0-2"
     d="m 19.000001,21.772727 a 7.0000005,2.2272729 0 0 1 -14.000001,0 7.0000002,2.2272728 0 1 1 14,0 z" />
  <path
     inkscape:connector-curvature="0"
     d="m 12,1.4999078 c -5.7934391,0 -10.5,4.7065702 -10.5,10.5000212 0,5.793449 4.7065609,10.50002 10.5,10.50002 5.793439,0 10.5,-4.706571 10.5,-10.50002 C 22.5,6.206478 17.793439,1.4999078 12,1.4999078 Z"
     style="color:#000000;fill:url(#radialGradient3032)"
     id="path2555-7-2" />
  <path
     inkscape:connector-curvature="0"
     d="m 12,1.4999078 c -5.7934391,0 -10.5,4.7065702 -10.5,10.5000212 0,5.793449 4.7065609,10.50002 10.5,10.50002 5.793439,0 10.5,-4.706571 10.5,-10.50002 C 22.5,6.206478 17.793439,1.4999078 12,1.4999078 Z"
     style="color:#000000;fill:url(#radialGradient3029)"
     id="path2555-7-65" />
  <path
     inkscape:connector-curvature="0"
     d="m 12,1.499959 c -5.7934391,0 -10.5,4.7064678 -10.5,10.50002 C 1.5,17.793532 6.2064585,22.5 12,22.5 17.793542,22.5 22.5,17.793532 22.5,11.999979 22.5,6.2064268 17.793439,1.499959 12,1.499959 Z"
     style="color:#000000;opacity:0.5;fill:none;stroke:#7e2934;stroke-width:1;stroke-linecap:round;stroke-linejoin:round"
     id="path2555-7-1-7" />
  <g
     style="fill:none;stroke:#000000;stroke-width:1.95237899;stroke-linecap:round;stroke-linejoin:round"
     transform="matrix(0.51229756,0,0,0.512401,-0.8058,-0.29536447)"
     id="g4317">
    <path
       inkscape:connector-curvature="0"
       d="m 21,12 c -4.4064,0 -8,3.5937 -8,8.0002 0,4.4065 3.5936,8.0002 8,8.0002 1.4791,0 2.862,-0.41252 4.0527,-1.1172 l 8.7461,8.967 a 0.50005,0.50006 0 0 0 0.76172,-0.05664 l 1.3438,-1.8497 a 0.50005,0.50006 0 0 0 -0.061,-0.655 l -8.68,-8.196 c 1.147,-1.385 1.836,-3.16 1.836,-5.092 0,-4.406 -3.594,-8 -8,-8 z m 0,2 c 3.3255,0 6,2.6746 6,6.0001 0,3.3256 -2.6745,6.0001 -6,6.0001 -3.3255,0 -6,-2.6746 -6,-6.0001 C 15,16.6745 17.6745,14 21,14 Z"
       style="color:#000000;text-indent:0;text-decoration:none;text-decoration-line:none;text-decoration-style:solid;text-decoration-color:#000000;text-transform:none;block-progression:tb;white-space:normal;opacity:0.15;isolation:auto;mix-blend-mode:normal;solid-color:#000000;stroke-width:3.90475798;color-rendering:auto;image-rendering:auto;shape-rendering:auto"
       id="path4238" />
    <path
       inkscape:connector-curvature="0"
       d="m 21,12 c -4.4064,0 -8,3.5937 -8,8.0002 0,4.4065 3.5936,8.0002 8,8.0002 1.4791,0 2.862,-0.41252 4.0527,-1.1172 l 8.7461,8.967 a 0.50005,0.50006 0 0 0 0.76172,-0.05664 l 1.3438,-1.8497 a 0.50005,0.50006 0 0 0 -0.061,-0.655 l -8.68,-8.196 c 1.147,-1.385 1.836,-3.16 1.836,-5.092 0,-4.406 -3.594,-8 -8,-8 z m 0,2 c 3.3255,0 6,2.6746 6,6.0001 0,3.3256 -2.6745,6.0001 -6,6.0001 -3.3255,0 -6,-2.6746 -6,-6.0001 C 15,16.6745 17.6745,14 21,14 Z"
       style="color:#000000;text-indent:0;text-decoration:none;text-decoration-line:none;text-decoration-style:solid;text-decoration-color:#000000;text-transform:none;block-progression:tb;white-space:normal;opacity:0.15;isolation:auto;mix-blend-mode:normal;solid-color:#000000;stroke-width:1.95237899;color-rendering:auto;image-rendering:auto;shape-rendering:auto"
       id="path4240" />
  </g>
  <path
     inkscape:connector-curvature="0"
     d="m 9.9512197,5.8535748 c -2.2569366,0 -4.0975612,1.8406791 -4.0975612,4.0976715 0,2.2569927 1.8406246,4.0976717 4.0975612,4.0976717 0.7575873,0 1.4659023,-0.211292 2.0757733,-0.572226 l 4.479709,4.592863 a 0.25612317,0.25612879 0 0 0 0.39015,-0.02901 l 0.688288,-0.94741 a 0.25612317,0.25612879 0 0 0 -0.03102,-0.336139 L 13.108271,12.55955 c 0.587488,-0.709391 0.94039,-1.61854 0.94039,-2.6081024 0,-2.256736 -1.840829,-4.0975691 -4.0975608,-4.0975691 z m 0,1.0243923 c 1.7033053,0 3.0731703,1.3699198 3.0731703,3.0732277 0,1.7033592 -1.369865,3.0732282 -3.0731703,3.0732282 -1.7033049,0 -3.073171,-1.369919 -3.073171,-3.0732282 0,-1.7033594 1.3698661,-3.0732277 3.073171,-3.0732277 z"
     style="color:#000000;text-indent:0;text-decoration:none;text-decoration-line:none;text-decoration-style:solid;text-decoration-color:#000000;text-transform:none;block-progression:tb;white-space:normal;isolation:auto;mix-blend-mode:normal;solid-color:#000000;fill:#ffffff;fill-rule:evenodd;color-rendering:auto;image-rendering:auto;shape-rendering:auto"
     id="path11112" />
  <g
     transform="matrix(0.27937683,0,0,0.27937738,3.2461244,3.194816)"
     id="g4489">
    <path
       style="opacity:0.15;fill:#4998ff;stroke:#000000;stroke-width:2.00118852;stroke-linecap:round;stroke-linejoin:round"
       inkscape:connector-curvature="0"
       d="M 34.487,24 A 10.487,10.487 0 0 1 24,34.487 10.487,10.487 0 0 1 13.513,24 10.487,10.487 0 0 1 24,13.513 10.487,10.487 0 0 1 34.487,24 Z"
       id="path4435" />
    <path
       inkscape:connector-curvature="0"
       style="opacity:0.3;fill:url(#linearGradient4433)"
       d="m 34.866,22.457 c 0,-0.81127 0.23346,0.6914 0.08466,-0.0736 -1.0547,-5.4818 -6.274,-9.3078 -10.943,-9.3833 -5.5267,0.44071 -9.8748,3.9983 -10.943,9.3832 -0.1488,0.76498 0.0067,-0.7377 0.0067,0.07358 0,6.49 4.8452,-1.49 11.014,-1.49 6.1684,0 10.78,7.9802 10.78,1.49 z"
       id="path4264" />
  </g>
  <path
     inkscape:connector-curvature="0"
     d="M 21.5,11.999664 C 21.5,17.246538 17.246393,21.5 12.000121,21.5 c -5.2467526,0 -9.5001209,-4.25351 -9.5001209,-9.500336 0,-5.2466333 4.2533683,-9.4996646 9.5001209,-9.4996646 5.246272,0 9.499879,4.2530313 9.499879,9.4996646 l 0,0 z"
     id="path8655"
     style="color:#000000;display:inline;overflow:visible;visibility:visible;opacity:0.5;fill:none;stroke:url(#linearGradient3089);stroke-width:1.00000012;stroke-linecap:round;stroke-linejoin:round;stroke-miterlimit:4;stroke-dasharray:none;stroke-dashoffset:0;stroke-opacity:1;marker:none;enable-background:accumulate" />
</svg>
