<?xml version="1.0" encoding="UTF-8" standalone="no"?>
<!-- Created with Inkscape (http://www.inkscape.org/) -->

<svg
   xmlns:dc="http://purl.org/dc/elements/1.1/"
   xmlns:cc="http://creativecommons.org/ns#"
   xmlns:rdf="http://www.w3.org/1999/02/22-rdf-syntax-ns#"
   xmlns:svg="http://www.w3.org/2000/svg"
   xmlns="http://www.w3.org/2000/svg"
   xmlns:xlink="http://www.w3.org/1999/xlink"
   xmlns:sodipodi="http://sodipodi.sourceforge.net/DTD/sodipodi-0.dtd"
   xmlns:inkscape="http://www.inkscape.org/namespaces/inkscape"
   id="svg4061"
   height="128"
   width="128"
   version="1.1"
   inkscape:version="0.91 r13725"
   sodipodi:docname="dconf-editor_128.svg">
  <sodipodi:namedview
     pagecolor="#ffffff"
     bordercolor="#666666"
     borderopacity="1"
     objecttolerance="10"
     gridtolerance="10"
     guidetolerance="10"
     inkscape:pageopacity="0"
     inkscape:pageshadow="2"
     inkscape:window-width="1366"
     inkscape:window-height="705"
     id="namedview40"
     showgrid="false"
     inkscape:zoom="4.9166667"
     inkscape:cx="76.155779"
     inkscape:cy="32.135593"
     inkscape:window-x="0"
     inkscape:window-y="30"
     inkscape:window-maximized="1"
     inkscape:current-layer="svg4061" />
  <defs
     id="defs4063">
    <linearGradient
       id="linearGradient3026"
       y2="40.496"
       gradientUnits="userSpaceOnUse"
       x2="71.204"
       gradientTransform="matrix(2.3269025,0,0,2.3269007,-138.99507,-27.350987)"
       y1="15.369"
       x1="71.204">
      <stop
         id="stop4808-4"
         stop-color="#fff"
         offset="0" />
      <stop
         id="stop4810-0"
         stop-color="#fff"
         stop-opacity=".23529"
         offset=".42448" />
      <stop
         id="stop4812-8"
         stop-color="#fff"
         stop-opacity=".15686"
         offset=".82090" />
      <stop
         id="stop4814-0"
         stop-color="#fff"
         stop-opacity=".39216"
         offset="1" />
    </linearGradient>
    <radialGradient
       id="radialGradient3029"
       fx="4.459"
       fy="8.5089"
       gradientUnits="userSpaceOnUse"
       cy="8.6258"
       cx="15.026"
       gradientTransform="matrix(-8.8712002e-8,4.782723,-4.5059903,-1.3880931e-7,102.90391,-14.653496)"
       r="20">
      <stop
         id="stop4170"
         stop-color="#c24251"
         offset="0" />
      <stop
         id="stop4172"
         stop-color="#c24251"
         offset=".26238" />
      <stop
         id="stop4174"
         stop-color="#a63643"
         offset=".66094" />
      <stop
         id="stop4176"
         stop-color="#a63643"
         offset="1" />
    </radialGradient>
    <radialGradient
       id="radialGradient3032"
       gradientUnits="userSpaceOnUse"
       cy="3.99"
       cx="23.896"
       gradientTransform="matrix(0,7.3269135,-9.6714929,0,103.08907,-161.6656)"
       r="20.397">
      <stop
         id="stop3244-9-33-7-0-9"
         stop-color="#fff"
         offset="0" />
      <stop
         id="stop3246-3-5-0-8-5"
         stop-color="#ddd"
         offset=".26238" />
      <stop
         id="stop3248-1-7-8-8-1"
         stop-color="#abacae"
         offset=".66094" />
      <stop
         id="stop3250-9-3-0-5-1"
         stop-color="#89898b"
         offset="1" />
    </radialGradient>
    <radialGradient
       id="radialGradient3035"
       gradientUnits="userSpaceOnUse"
       cy="186.17"
       cx="99.157"
       gradientTransform="matrix(0.27083,0,0,0.087623,-2.8551,25.187)"
       r="62.769">
      <stop
         id="stop3822-2-6-3"
         stop-color="#3d3d3d"
         offset="0" />
      <stop
         id="stop3864-8-7-7"
         stop-color="#686868"
         stop-opacity=".49804"
         offset=".5" />
      <stop
         id="stop3824-1-2-5"
         stop-color="#686868"
         stop-opacity="0"
         offset="1" />
    </radialGradient>
    <linearGradient
       id="linearGradient4433"
       y2="25.611"
       gradientUnits="userSpaceOnUse"
       x2="23.078"
       gradientTransform="matrix(1,0,0,1.0521,0,-0.90547)"
       y1="13.035"
       x1="22.759">
      <stop
         id="stop6305-1-0-2"
         stop-color="#fff"
         offset="0" />
      <stop
         id="stop6307-5-0-6"
         stop-color="#fff"
         stop-opacity="0"
         offset="1" />
    </linearGradient>
    <radialGradient
       gradientTransform="matrix(0.27083381,0,0,0.08762273,-2.8550719,25.186634)"
       gradientUnits="userSpaceOnUse"
       xlink:href="#linearGradient3820-7-2-1"
       id="radialGradient3025"
       fy="186.17059"
       fx="99.157013"
       r="62.769119"
       cy="186.17059"
       cx="99.157013" />
    <linearGradient
       id="linearGradient3820-7-2-1">
      <stop
         offset="0"
         style="stop-color:#3d3d3d;stop-opacity:1"
         id="stop3822-2-6-3-3" />
      <stop
         offset="0.5"
         style="stop-color:#686868;stop-opacity:0.49803922"
         id="stop3864-8-7-7-6" />
      <stop
         offset="1"
         style="stop-color:#686868;stop-opacity:0"
         id="stop3824-1-2-5-7" />
    </linearGradient>
    <linearGradient
       y2="40.495617"
       x2="71.204407"
       y1="15.369057"
       x1="71.204407"
       gradientTransform="matrix(4.1016095,0,0,4.1016051,-235.60601,-43.934555)"
       gradientUnits="userSpaceOnUse"
       id="linearGradient3293"
       xlink:href="#linearGradient4806" />
    <linearGradient
       id="linearGradient4806">
      <stop
         offset="0"
         style="stop-color:#ffffff;stop-opacity:1"
         id="stop4808" />
      <stop
         offset="0.42447853"
         style="stop-color:#ffffff;stop-opacity:0.23529412"
         id="stop4810" />
      <stop
         offset="0.82089913"
         style="stop-color:#ffffff;stop-opacity:0.15686275"
         id="stop4812" />
      <stop
         offset="1"
         style="stop-color:#ffffff;stop-opacity:0.39215687"
         id="stop4814" />
    </linearGradient>
    <radialGradient
       r="62.769119"
       fy="185.29727"
       fx="99.189415"
       cy="185.29727"
       cx="99.189415"
       gradientTransform="matrix(0.3823536,7.5555777e-8,-1.8372241e-8,0.1115198,-5.9254271,36.335849)"
       gradientUnits="userSpaceOnUse"
       id="radialGradient3300"
       xlink:href="#linearGradient3820-7-2" />
    <linearGradient
       id="linearGradient3820-7-2">
      <stop
         offset="0"
         style="stop-color:#000000;stop-opacity:1"
         id="stop3822-2-6" />
      <stop
         offset="1"
         style="stop-color:#000000;stop-opacity:0"
         id="stop3824-1-2" />
    </linearGradient>
    <radialGradient
       r="62.769119"
       fy="185.29727"
       fx="99.189415"
       cy="185.29727"
       cx="99.189415"
       gradientTransform="matrix(0.2549024,5.3967361e-8,-1.2248161e-8,0.07965545,6.7163816,44.240666)"
       gradientUnits="userSpaceOnUse"
       id="radialGradient4192"
       xlink:href="#linearGradient3820-7-2" />
    <linearGradient
       gradientTransform="matrix(2.756758,0,0,2.7567581,-133.25196,-3.4037739)"
       gradientUnits="userSpaceOnUse"
       xlink:href="#linearGradient4011"
       id="linearGradient12398-3"
       y2="44.340794"
       x2="71.204407"
       y1="6.2375584"
       x1="71.204407" />
    <linearGradient
       id="linearGradient4011">
      <stop
         id="stop4013"
         style="stop-color:#ffffff;stop-opacity:1"
         offset="0" />
      <stop
         id="stop4015"
         style="stop-color:#ffffff;stop-opacity:0.23529412"
         offset="0.507761" />
      <stop
         id="stop4017"
         style="stop-color:#ffffff;stop-opacity:0.15686275"
         offset="0.83456558" />
      <stop
         id="stop4019"
         style="stop-color:#ffffff;stop-opacity:0.39215687"
         offset="1" />
    </linearGradient>
    <radialGradient
       xlink:href="#linearGradient3820-7-2-1"
       id="radialGradient3163"
       gradientUnits="userSpaceOnUse"
       gradientTransform="matrix(0.6869404,0,0,0.21461693,-4.021314,68.576342)"
       cx="99.157013"
       cy="186.17059"
       fx="99.157013"
       fy="186.17059"
       r="62.769119" />
  </defs>
  <metadata
     id="metadata4066">
    <rdf:RDF>
      <cc:Work
         rdf:about="">
        <dc:format>image/svg+xml</dc:format>
        <dc:type
           rdf:resource="http://purl.org/dc/dcmitype/StillImage" />
        <dc:title />
      </cc:Work>
    </rdf:RDF>
  </metadata>
  <path
     inkscape:connector-curvature="0"
     style="fill:url(#radialGradient3163);fill-opacity:1;stroke:none"
     id="path3818-0-5-0"
     d="m 107.21229,108.53169 a 43.118645,13.471312 0 0 1 -86.23729,0 43.118645,13.471312 0 1 1 86.23729,0 z" />
  <path
     inkscape:connector-curvature="0"
     d="M 64.500001,14.499935 C 35.808683,14.499935 12.5,37.808575 12.5,66.499841 12.5,95.191105 35.808683,118.49975 64.500001,118.49975 93.191319,118.49975 116.5,95.191105 116.5,66.499841 116.5,37.808575 93.191319,14.499935 64.500001,14.499935 Z"
     style="color:#000000;fill:url(#radialGradient3032)"
     id="path2555-7-2" />
  <path
     inkscape:connector-curvature="0"
     d="M 64.500001,14.499935 C 35.808683,14.499935 12.5,37.808575 12.5,66.499841 12.5,95.191105 35.808683,118.49975 64.500001,118.49975 93.191319,118.49975 116.5,95.191105 116.5,66.499841 116.5,37.808575 93.191319,14.499935 64.500001,14.499935 Z"
     style="color:#000000;fill:url(#radialGradient3029)"
     id="path2555-7-65" />
  <path
     inkscape:connector-curvature="0"
     d="M 64.500001,14.500188 C 35.808683,14.500188 12.5,37.808321 12.5,66.500095 12.5,95.191866 35.808176,118.5 64.500001,118.5 93.191827,118.5 116.5,95.191866 116.5,66.500095 116.5,37.808321 93.191319,14.500188 64.500001,14.500188 Z"
     style="color:#000000;opacity:0.5;fill:none;stroke:#7e2934;stroke-width:1;stroke-linecap:round;stroke-linejoin:round"
     id="path2555-7-1-7" />
  <g
     style="fill:none;stroke:#000000;stroke-width:0.39423114;stroke-linecap:round;stroke-linejoin:round"
     transform="matrix(2.5370927,0,0,2.5375954,1.0807998,5.6090957)"
     id="g4317">
    <path
       inkscape:connector-curvature="0"
       d="m 21,12 c -4.4064,0 -8,3.5937 -8,8.0002 0,4.4065 3.5936,8.0002 8,8.0002 1.4791,0 2.862,-0.41252 4.0527,-1.1172 l 8.7461,8.967 a 0.50005,0.50006 0 0 0 0.76172,-0.05664 l 1.3438,-1.8497 a 0.50005,0.50006 0 0 0 -0.061,-0.655 l -8.68,-8.196 c 1.147,-1.385 1.836,-3.16 1.836,-5.092 0,-4.406 -3.594,-8 -8,-8 z m 0,2 c 3.3255,0 6,2.6746 6,6.0001 0,3.3256 -2.6745,6.0001 -6,6.0001 -3.3255,0 -6,-2.6746 -6,-6.0001 C 15,16.6745 17.6745,14 21,14 Z"
       style="color:#000000;text-indent:0;text-decoration:none;text-decoration-line:none;text-decoration-style:solid;text-decoration-color:#000000;text-transform:none;block-progression:tb;white-space:normal;opacity:0.15;isolation:auto;mix-blend-mode:normal;solid-color:#000000;stroke-width:0.78846228;color-rendering:auto;image-rendering:auto;shape-rendering:auto"
       id="path4238" />
    <path
       inkscape:connector-curvature="0"
       d="m 21,12 c -4.4064,0 -8,3.5937 -8,8.0002 0,4.4065 3.5936,8.0002 8,8.0002 1.4791,0 2.862,-0.41252 4.0527,-1.1172 l 8.7461,8.967 a 0.50005,0.50006 0 0 0 0.76172,-0.05664 l 1.3438,-1.8497 a 0.50005,0.50006 0 0 0 -0.061,-0.655 l -8.68,-8.196 c 1.147,-1.385 1.836,-3.16 1.836,-5.092 0,-4.406 -3.594,-8 -8,-8 z m 0,2 c 3.3255,0 6,2.6746 6,6.0001 0,3.3256 -2.6745,6.0001 -6,6.0001 -3.3255,0 -6,-2.6746 -6,-6.0001 C 15,16.6745 17.6745,14 21,14 Z"
       style="color:#000000;text-indent:0;text-decoration:none;text-decoration-line:none;text-decoration-style:solid;text-decoration-color:#000000;text-transform:none;block-progression:tb;white-space:normal;opacity:0.15;isolation:auto;mix-blend-mode:normal;solid-color:#000000;stroke-width:0.39423114;color-rendering:auto;image-rendering:auto;shape-rendering:auto"
       id="path4240" />
  </g>
  <path
     inkscape:connector-curvature="0"
     d="m 54.35366,36.060871 c -11.177211,0 -20.292684,9.11571 -20.292684,20.293153 0,11.177443 9.115473,20.293153 20.292684,20.293153 3.751864,0 7.259706,-1.046389 10.28002,-2.833866 L 86.818909,96.55883 a 1.2684195,1.2684426 0 0 0 1.932169,-0.143678 l 3.408663,-4.691913 a 1.2684195,1.2684426 0 0 0 -0.15359,-1.664677 L 69.988589,69.271283 c 2.909463,-3.513164 4.657171,-8.015596 4.657171,-12.91627 0,-11.176174 -9.116489,-20.292645 -20.292683,-20.292645 z m 0,5.073162 c 8.435414,0 15.219512,6.784338 15.219512,15.219737 0,8.435654 -6.784098,15.219739 -15.219512,15.219739 -8.435415,0 -15.219513,-6.784339 -15.219513,-15.219739 0,-8.435653 6.784098,-15.219737 15.219513,-15.219737 z"
     style="color:#000000;text-indent:0;text-decoration:none;text-decoration-line:none;text-decoration-style:solid;text-decoration-color:#000000;text-transform:none;block-progression:tb;white-space:normal;isolation:auto;mix-blend-mode:normal;solid-color:#000000;fill:#ffffff;fill-rule:evenodd;color-rendering:auto;image-rendering:auto;shape-rendering:auto"
     id="path11112" />
  <g
     transform="matrix(1.3835805,0,0,1.383578,21.147473,22.893734)"
     id="g4489">
    <path
       style="opacity:0.15;fill:#4998ff;stroke:#000000;stroke-width:0.40408689;stroke-linecap:round;stroke-linejoin:round"
       inkscape:connector-curvature="0"
       d="M 34.487,24 A 10.487,10.487 0 0 1 24,34.487 10.487,10.487 0 0 1 13.513,24 10.487,10.487 0 0 1 24,13.513 10.487,10.487 0 0 1 34.487,24 Z"
       id="path4435" />
    <path
       inkscape:connector-curvature="0"
       style="opacity:0.3;fill:url(#linearGradient4433)"
       d="m 34.866,22.457 c 0,-0.81127 0.23346,0.6914 0.08466,-0.0736 -1.0547,-5.4818 -6.274,-9.3078 -10.943,-9.3833 -5.5267,0.44071 -9.8748,3.9983 -10.943,9.3832 -0.1488,0.76498 0.0067,-0.7377 0.0067,0.07358 0,6.49 4.8452,-1.49 11.014,-1.49 6.1684,0 10.78,7.9802 10.78,1.49 z"
       id="path4264" />
  </g>
  <path
     inkscape:connector-curvature="0"
     d="M 115.5,66.498151 C 115.5,94.665628 92.664804,117.5 64.500617,117.5 36.333834,117.5 13.5,94.66536 13.5,66.498151 13.5,38.332017 36.333834,15.49995 64.500617,15.49995 92.664804,15.49995 115.5,38.332017 115.5,66.498151 Z"
     id="path8655-6-0-9-5-0"
     style="color:#000000;display:inline;overflow:visible;visibility:visible;opacity:0.5;fill:none;stroke:url(#linearGradient12398-3);stroke-width:0.99999988;stroke-linecap:round;stroke-linejoin:round;stroke-miterlimit:4;stroke-dasharray:none;stroke-dashoffset:0;stroke-opacity:1;marker:none;enable-background:accumulate" />
</svg>
