<?xml version="1.0" encoding="UTF-8" standalone="no"?>
<!-- Created with Inkscape (http://www.inkscape.org/) -->

<svg
   xmlns:dc="http://purl.org/dc/elements/1.1/"
   xmlns:cc="http://creativecommons.org/ns#"
   xmlns:rdf="http://www.w3.org/1999/02/22-rdf-syntax-ns#"
   xmlns:svg="http://www.w3.org/2000/svg"
   xmlns="http://www.w3.org/2000/svg"
   xmlns:xlink="http://www.w3.org/1999/xlink"
   xmlns:sodipodi="http://sodipodi.sourceforge.net/DTD/sodipodi-0.dtd"
   xmlns:inkscape="http://www.inkscape.org/namespaces/inkscape"
   width="16"
   height="16"
   viewBox="0 0 16 16"
   id="svg2"
   version="1.1"
   inkscape:version="0.91 r13725"
   sodipodi:docname="inkscape_16.svg">
  <defs
     id="defs4">
    <linearGradient
       inkscape:collect="always"
       id="linearGradient4153">
      <stop
         style="stop-color:#ffffff;stop-opacity:1;"
         offset="0"
         id="stop4155" />
      <stop
         id="stop4161"
         offset="0.23552504"
         style="stop-color:#ffffff;stop-opacity:0.23529412" />
      <stop
         style="stop-color:#ffffff;stop-opacity:0.15686275"
         offset="0.74930149"
         id="stop4163" />
      <stop
         style="stop-color:#ffffff;stop-opacity:0.39215687"
         offset="1"
         id="stop4157" />
    </linearGradient>
    <radialGradient
       inkscape:collect="always"
       xlink:href="#radialGradient3045"
       id="radialGradient4149"
       cx="5.3689308"
       cy="1040.6259"
       fx="5.3689308"
       fy="1040.6259"
       r="6.5"
       gradientUnits="userSpaceOnUse"
       gradientTransform="matrix(0,2.4313187,-1.4395604,0,1506.1778,1022.5586)" />
    <linearGradient
       inkscape:collect="always"
       xlink:href="#linearGradient4153"
       id="linearGradient4159"
       x1="6.1517863"
       y1="1038.38"
       x2="6.1517863"
       y2="1050.2997"
       gradientUnits="userSpaceOnUse" />
    <radialGradient
       id="radialGradient3045"
       gradientUnits="userSpaceOnUse"
       cy="8.4497995"
       cx="11.546"
       gradientTransform="matrix(0,0.81795003,-0.86530505,-1.50696e-8,-3.3995217,1031.4783)"
       r="20">
      <stop
         id="stop3750-6-3-7-0-5-3-5-7"
         stop-color="#a0a0a0"
         offset="0" />
      <stop
         id="stop3752-3-7-7-6-4-4-3-4"
         stop-color="#a0a0a0"
         offset=".26238" />
      <stop
         id="stop3754-1-7-4-6-36-7-7-2-4"
         stop-color="#8e8e8e"
         offset=".70495" />
      <stop
         id="stop3756-7-5-7-1-4-3-1-7"
         stop-color="#666"
         offset="1" />
    </radialGradient>
    <linearGradient
       id="linearGradient3037"
       y2="43"
       gradientUnits="userSpaceOnUse"
       x2="24"
       gradientTransform="matrix(0.35000001,0,0,0.35000001,-19.111021,1035.8305)"
       y1="5"
       x1="24">
      <stop
         id="stop3926-2-0"
         stop-color="#fff"
         offset="0" />
      <stop
         id="stop3928-2-0"
         stop-color="#fff"
         stop-opacity=".23529"
         offset=".063165" />
      <stop
         id="stop3930-6-1"
         stop-color="#fff"
         stop-opacity=".15686"
         offset=".95056" />
      <stop
         id="stop3932-1-6"
         stop-color="#fff"
         stop-opacity=".39216"
         offset="1" />
    </linearGradient>
    <radialGradient
       cx="4.9929786"
       cy="43.5"
       r="2.5"
       fx="4.9929786"
       fy="43.5"
       id="radialGradient2976"
       xlink:href="#linearGradient3688-166-749-6"
       gradientUnits="userSpaceOnUse"
       gradientTransform="matrix(2.003784,0,0,1.4,27.98813,-17.4)" />
    <linearGradient
       id="linearGradient3688-166-749-6">
      <stop
         id="stop2883-8"
         style="stop-color:#181818;stop-opacity:1"
         offset="0" />
      <stop
         id="stop2885-3"
         style="stop-color:#181818;stop-opacity:0"
         offset="1" />
    </linearGradient>
    <radialGradient
       cx="4.9929786"
       cy="43.5"
       r="2.5"
       fx="4.9929786"
       fy="43.5"
       id="radialGradient2978"
       xlink:href="#linearGradient3688-166-749-6"
       gradientUnits="userSpaceOnUse"
       gradientTransform="matrix(2.003784,0,0,1.4,-20.01187,-104.4)" />
    <linearGradient
       x1="25.058096"
       y1="47.027729"
       x2="25.058096"
       y2="39.999443"
       id="linearGradient2980"
       xlink:href="#linearGradient3702-501-757-3"
       gradientUnits="userSpaceOnUse" />
    <linearGradient
       id="linearGradient3702-501-757-3">
      <stop
         id="stop2895-3"
         style="stop-color:#181818;stop-opacity:0"
         offset="0" />
      <stop
         id="stop2897-28"
         style="stop-color:#181818;stop-opacity:1"
         offset="0.5" />
      <stop
         id="stop2899-8"
         style="stop-color:#181818;stop-opacity:0"
         offset="1" />
    </linearGradient>
    <radialGradient
       id="radialGradient3045-5"
       gradientUnits="userSpaceOnUse"
       cy="8.4497995"
       cx="11.546"
       gradientTransform="matrix(0,0.81795003,-0.86530505,-1.50696e-8,-3.3995217,1031.4783)"
       r="20">
      <stop
         id="stop3750-6-3-7-0-5-3-5-7-3"
         stop-color="#a0a0a0"
         offset="0" />
      <stop
         id="stop3752-3-7-7-6-4-4-3-4-5"
         stop-color="#a0a0a0"
         offset=".26238" />
      <stop
         id="stop3754-1-7-4-6-36-7-7-2-4-6"
         stop-color="#8e8e8e"
         offset=".70495" />
      <stop
         id="stop3756-7-5-7-1-4-3-1-7-2"
         stop-color="#666"
         offset="1" />
    </radialGradient>
  </defs>
  <sodipodi:namedview
     id="base"
     pagecolor="#ffffff"
     bordercolor="#666666"
     borderopacity="1.0"
     inkscape:pageopacity="0.0"
     inkscape:pageshadow="2"
     inkscape:zoom="33.25"
     inkscape:cx="7.9699248"
     inkscape:cy="8"
     inkscape:document-units="px"
     inkscape:current-layer="layer1"
     showgrid="false"
     units="px"
     inkscape:window-width="1366"
     inkscape:window-height="705"
     inkscape:window-x="0"
     inkscape:window-y="30"
     inkscape:window-maximized="1"
     showguides="true"
     inkscape:guide-bbox="true" />
  <metadata
     id="metadata7">
    <rdf:RDF>
      <cc:Work
         rdf:about="">
        <dc:format>image/svg+xml</dc:format>
        <dc:type
           rdf:resource="http://purl.org/dc/dcmitype/StillImage" />
        <dc:title />
      </cc:Work>
    </rdf:RDF>
  </metadata>
  <g
     inkscape:label="Livello 1"
     inkscape:groupmode="layer"
     id="layer1"
     transform="translate(0,-1036.3622)">
    <rect
       style="opacity:1;fill:url(#radialGradient4149);fill-opacity:1.0;stroke:none;stroke-width:1;stroke-linejoin:round;stroke-miterlimit:4;stroke-dasharray:none;stroke-opacity:0.39215686"
       id="rect4136"
       width="13"
       height="13"
       x="1.5000002"
       y="1037.8622"
       rx="1"
       ry="1" />
    <path
       style="color:#000000;font-style:normal;font-variant:normal;font-weight:normal;font-stretch:normal;font-size:medium;line-height:normal;font-family:sans-serif;text-indent:0;text-align:start;text-decoration:none;text-decoration-line:none;text-decoration-style:solid;text-decoration-color:#000000;letter-spacing:normal;word-spacing:normal;text-transform:none;direction:ltr;block-progression:tb;writing-mode:lr-tb;baseline-shift:baseline;text-anchor:start;white-space:normal;clip-rule:nonzero;display:inline;overflow:visible;visibility:visible;opacity:0.1;isolation:auto;mix-blend-mode:normal;color-interpolation:sRGB;color-interpolation-filters:linearRGB;solid-color:#000000;solid-opacity:1;fill:#ffffff;fill-opacity:1;fill-rule:evenodd;stroke:none;stroke-width:0.99999994px;stroke-linecap:butt;stroke-linejoin:miter;stroke-miterlimit:4;stroke-dasharray:none;stroke-dashoffset:0;stroke-opacity:1;color-rendering:auto;image-rendering:auto;shape-rendering:auto;text-rendering:auto;enable-background:accumulate"
       d="m 5.0000004,1040.3622 0,1 -1,0 0,1 1,0 0,4 -1,0 0,1 1,0 0,1 1,0 0,-1 3.9999996,0 0,1 1,0 0,-1 1,0 0,-1 -1,0 0,-4 1,0 0,-1 -1,0 0,-1 -1,0 0,1 -3.9999996,0 0,-1 -1,0 z m 1,2 3.9999996,0 0,4 -3.9999996,0 0,-4 z"
       id="path4171-3-6"
       inkscape:connector-curvature="0" />
    <path
       style="opacity:0.4;fill:#000000;fill-opacity:1;stroke:none;stroke-width:1;stroke-linejoin:round;stroke-miterlimit:4;stroke-dasharray:none;stroke-opacity:0.39215686"
       d="m 2.5,1037.3622 c -0.831,0 -1.5,0.669 -1.5,1.5 l 0,11 c 0,0.831 0.669,1.5 1.5,1.5 l 11.000001,0 c 0.831,0 1.5,-0.669 1.5,-1.5 l 0,-11 c 0,-0.831 -0.669,-1.5 -1.5,-1.5 l -11.000001,0 z m 0,1 11.000001,0 c 0.277,0 0.5,0.223 0.5,0.5 l 0,11 c 0,0.277 -0.223,0.5 -0.5,0.5 l -11.000001,0 c -0.277,0 -0.5,-0.223 -0.5,-0.5 l 0,-11 c 0,-0.277 0.223,-0.5 0.5,-0.5 z"
       id="rect4138"
       inkscape:connector-curvature="0" />
    <rect
       style="opacity:0.30000001;fill:none;fill-opacity:1;stroke:url(#linearGradient4159);stroke-width:1;stroke-linejoin:round;stroke-miterlimit:4;stroke-dasharray:none;stroke-opacity:1"
       id="rect4151"
       width="11"
       height="11"
       x="2.5000005"
       y="1038.8622" />
    <g
       id="g4170"
       transform="translate(18.556392,0.92155635)">
      <g
         transform="translate(-11.11963,15.18945)"
         id="g4316">
        <path
           style="color:#000000;font-style:normal;font-variant:normal;font-weight:normal;font-stretch:normal;font-size:medium;line-height:normal;font-family:sans-serif;text-indent:0;text-align:start;text-decoration:none;text-decoration-line:none;text-decoration-style:solid;text-decoration-color:#000000;letter-spacing:normal;word-spacing:normal;text-transform:none;direction:ltr;block-progression:tb;writing-mode:lr-tb;baseline-shift:baseline;text-anchor:start;white-space:normal;clip-rule:nonzero;display:inline;overflow:visible;visibility:visible;opacity:0.1;isolation:auto;mix-blend-mode:normal;color-interpolation:sRGB;color-interpolation-filters:linearRGB;solid-color:#000000;solid-opacity:1;fill:#000000;fill-opacity:1;fill-rule:nonzero;stroke:none;stroke-width:2;stroke-linecap:butt;stroke-linejoin:miter;stroke-miterlimit:4;stroke-dasharray:none;stroke-dashoffset:0;stroke-opacity:1;color-rendering:auto;image-rendering:auto;shape-rendering:auto;text-rendering:auto;enable-background:accumulate"
           d="m 0.49416594,1023.3513 0,0.01 c -0.51746,0 -1.05804,0.1862 -1.462891,0.5996 l -3.32031204,3.3985 -0.03125,0.037 c -0.357762,0.443 -0.654811,0.925 -0.544922,1.5723 0.109889,0.6472 0.646129,1.0021 0.996094,1.1503 0.04735,0.02 0.05079,0.01 0.09766,0.025 -0.05548,0.3608 0.07777,0.808 0.259765,0.9942 0.224554,0.2295 0.37329,0.2595 0.535157,0.3222 -0.04434,0.109 -0.142594,0.142 -0.152344,0.2793 -0.03112,0.4382 0.219895,0.84 0.458984,1.0469 0.351326,0.3037 0.792711,0.3121 1.181641,0.2383 0.25752,0.1355 0.44049,0.2019 0.58593804,0.2578 0.17017,0.3971 0.555567,0.7096 0.857421,0.7969 0.35564,0.1029 0.635533,0.075 0.904297,0.031 0.53752896,-0.087 1.02466196,-0.2786 1.46874996,-0.6035 l 0.06641,-0.049 0.05859,-0.059 c 0.118027,-0.1208 0.270591,-0.3028 0.328125,-0.6133 0.0047,-0.025 -0.01992,-0.042 -0.01758,-0.068 0.468118,0.3409 1.051384,0.369 1.523438,0.092 l 0.115234,-0.066 0.0918,-0.094 c 0.130217,-0.1326 0.09581,-0.259 0.142578,-0.3965 0.06574,-0.011 0.114633,0 0.1875,-0.022 0.13886,-0.038 0.301502,-0.088 0.5,-0.2461 0.198498,-0.1584 0.429686,-0.5161 0.429688,-0.8808 l 0,-0.168 -0.05469,-0.1602 c -0.110741,-0.3205 -0.338058,-0.5135 -0.572266,-0.6796 l 0,-0.01 c 0.292078,-0.1787 0.612618,-0.2946 0.789063,-0.7402 0.130812,-0.3304 0.129408,-0.7508 0.0098,-1.084 -0.119676,-0.3333 -0.318393,-0.5919 -0.55664,-0.8301 l -3.41211,-3.4883 -0.01172,-0.012 c -0.408488,-0.392 -0.934684,-0.577 -1.45117196,-0.5781 z"
           id="path5-6"
           inkscape:connector-curvature="0"
           sodipodi:nodetypes="ccccccccccsccccccccccccccccsccccccccccc" />
        <path
           style="opacity:0.3;fill:#000000;fill-opacity:1"
           d="m 0.48720994,1024.3561 c -0.275393,-5e-4 -0.548467,0.099 -0.746094,0.3008 l -3.28710904,3.3653 c -1.110865,1.3757 0.75633,1.215 1.55664,1.6113 0.287077,0.2934 -1.09957,0.511 -0.8125,0.8047 0.287077,0.2934 1.735878,0.564 2.02343804,0.8574 0.287077,0.2934 -0.58785804,0.605 -0.30078204,0.8984 0.28707804,0.2934 0.94989904,0.015 1.07421904,0.6934 0.0886,0.4841 1.19644696,0.209 1.73828096,-0.1875 0.287078,-0.2937 -0.548788,-0.2671 -0.261718,-0.5606 0.713895,-0.73 1.378782,-0.2645 1.623047,-0.996 0.120656,-0.3615 -1.051232,-0.5582 -0.763672,-0.8516 0.826,-0.4824 3.680882,-0.7958 2.326172,-2.1504 l -3.408203,-3.4844 c -0.20839,-0.2 -0.48632596,-0.3002 -0.76171896,-0.3008 z m 3.63476596,6.3848 c -0.26738,0.01 -0.530821,0.1465 -0.603516,0.4024 0,0.1669 1.230469,0.2762 1.230469,-0.039 -0.08762,-0.2536 -0.359574,-0.3725 -0.626953,-0.3633 z m -5.587891,0.7246 c -0.394445,-0.03 -0.901608,0.2644 -0.554688,0.5645 0.291239,0.2518 0.740145,-0.063 0.875,-0.4141 -0.07055,-0.094 -0.188831,-0.1404 -0.320312,-0.1504 z m 4.830078,0.02 c -0.375445,0.3368 0.04207,0.6785 0.412109,0.4609 0.08248,-0.084 -0.0022,-0.3772 -0.412109,-0.4609 z"
           id="path5-6-5"
           inkscape:connector-curvature="0" />
      </g>
      <g
         transform="matrix(0.35000001,0,0,0.35000001,-18.956463,1034.5406)"
         id="g3824">
        <path
           d="m 21.653,12.306 -9.3938,9.6126 c -3.1739,3.9305 2.16,3.4732 4.4466,4.6053 0.82022,0.83841 -3.1438,1.4572 -2.3236,2.2964 0.82022,0.8384 4.9598,1.6153 5.7814,2.4537 0.82022,0.8384 -1.6789,1.7279 -0.85868,2.5663 0.82022,0.8384 2.7173,0.04405 3.0725,1.9796 0.25313,1.3831 3.4187,0.59437 4.9668,-0.53842 0.82022,-0.8391 -1.5691,-0.76009 -0.7489,-1.5985 2.0397,-2.0859 3.9389,-0.75799 4.6368,-2.8481 0.34473,-1.0328 -3.0026,-1.5922 -2.181,-2.4306 2.36,-1.3782 10.517,-2.2754 6.6464,-6.1457 l -9.7371,-9.9525 c -1.1908,-1.1433 -3.1781,-1.1559 -4.3074,0 z m 10.79,18.529 c 0,0.47689 3.5138,0.78946 3.5138,-0.11258 -0.50067,-1.4489 -3.0984,-1.351 -3.5138,0.11258 z m -15.828,2.5341 c 0.83211,0.71953 2.1173,-0.17901 2.5026,-1.1831 -0.80624,-1.0713 -3.8242,0.03846 -2.5026,1.1831 z m 15.388,-1.5544 c -1.0727,0.96217 0.12027,1.9383 1.1775,1.3167 0.23565,-0.23914 -0.0063,-1.0776 -1.1775,-1.3167 z"
           id="path5"
           inkscape:connector-curvature="0"
           style="fill:#fcfcfc" />
        <path
           d="m 19.405,27.044 c 0.25103,0.15593 4.048,0.92721 4.9759,1.081 0.32166,0.06783 0.0937,0.39927 -0.34963,0.62304 -0.99993,0.26572 -5.85,-1.7041 -4.6263,-1.7041 z"
           id="path7"
           inkscape:connector-curvature="0"
           style="fill:#a0a0a0" />
        <path
           d="m 25.392,12.98 3.7165,3.7746 c 0.35242,0.36012 0.34753,1.058 0.15034,1.2587 l -1.8453,-1.4761 -0.36291,2.1859 -1.5419,-0.81393 -2.4691,1.56 -0.81743,-3.2886 -1.3265,2.295 -2.0278,0 c -0.82652,0 -0.92371,-1.0489 -0.17272,-1.7999 1.3118,-1.416 2.8173,-2.8592 3.6354,-3.6956 0.82232,-0.8405 2.2551,-0.81673 3.0613,0 z"
           id="path9"
           inkscape:connector-curvature="0"
           style="fill:#a0a0a0" />
      </g>
    </g>
  </g>
</svg>
