<?xml version="1.0" encoding="UTF-8" standalone="no"?>
<svg
   xmlns:dc="http://purl.org/dc/elements/1.1/"
   xmlns:cc="http://creativecommons.org/ns#"
   xmlns:rdf="http://www.w3.org/1999/02/22-rdf-syntax-ns#"
   xmlns:svg="http://www.w3.org/2000/svg"
   xmlns="http://www.w3.org/2000/svg"
   xmlns:xlink="http://www.w3.org/1999/xlink"
   xmlns:sodipodi="http://sodipodi.sourceforge.net/DTD/sodipodi-0.dtd"
   xmlns:inkscape="http://www.inkscape.org/namespaces/inkscape"
   id="svg11300"
   height="128"
   width="128"
   version="1.0"
   viewBox="0 0 128 128"
   sodipodi:docname="com.github.djaler.formatter_128.svg"
   inkscape:version="1.0.1 (1.0.1+r75)">
  <sodipodi:namedview
     pagecolor="#ffffff"
     bordercolor="#666666"
     borderopacity="1"
     objecttolerance="10"
     gridtolerance="10"
     guidetolerance="10"
     inkscape:pageopacity="0"
     inkscape:pageshadow="2"
     inkscape:window-width="1366"
     inkscape:window-height="705"
     id="namedview45"
     showgrid="true"
     inkscape:zoom="7.75"
     inkscape:cx="63.677419"
     inkscape:cy="109.88241"
     inkscape:window-x="0"
     inkscape:window-y="30"
     inkscape:window-maximized="1"
     inkscape:current-layer="svg11300"
     inkscape:document-rotation="0">
    <inkscape:grid
       type="xygrid"
       id="grid938" />
  </sodipodi:namedview>
  <metadata
     id="metadata49">
    <rdf:RDF>
      <cc:Work
         rdf:about="">
        <dc:format>image/svg+xml</dc:format>
        <dc:type
           rdf:resource="http://purl.org/dc/dcmitype/StillImage" />
        <dc:title />
      </cc:Work>
    </rdf:RDF>
  </metadata>
  <defs
     id="defs3">
    <linearGradient
       id="linearGradient4614">
      <stop
         id="stop4606"
         style="stop-color:#ffffff;stop-opacity:1"
         offset="0" />
      <stop
         id="stop4608"
         style="stop-color:#ffffff;stop-opacity:0.23529412"
         offset="0.03153139" />
      <stop
         id="stop4610"
         style="stop-color:#ffffff;stop-opacity:0.15686275"
         offset="0.9812181" />
      <stop
         id="stop4612"
         style="stop-color:#ffffff;stop-opacity:0.39215687"
         offset="1" />
    </linearGradient>
    <linearGradient
       id="linearGradient3742">
      <stop
         offset="0"
         style="stop-color:#ffffff;stop-opacity:1"
         id="stop3734" />
      <stop
         offset="0.01900466"
         style="stop-color:#ffffff;stop-opacity:0.23529412"
         id="stop3736" />
      <stop
         offset="0.9812181"
         style="stop-color:#ffffff;stop-opacity:0.15686275"
         id="stop3738" />
      <stop
         offset="1"
         style="stop-color:#ffffff;stop-opacity:0.39215687"
         id="stop3740" />
    </linearGradient>
    <radialGradient
       id="radialGradient7374"
       gradientUnits="userSpaceOnUse"
       cy="41.636002"
       cx="23.334999"
       gradientTransform="matrix(1.2482815,0,0,0.28244155,34.872276,104.84673)"
       r="22.627001">
      <stop
         id="stop23421"
         offset="0" />
      <stop
         id="stop23423"
         style="stop-opacity:0"
         offset="1" />
    </radialGradient>
    <linearGradient
       id="linearGradient3600-8">
      <stop
         offset="0"
         style="stop-color:#f4f4f4;stop-opacity:1"
         id="stop3602-2" />
      <stop
         offset="1"
         style="stop-color:#dbdbdb;stop-opacity:1"
         id="stop3604-5" />
    </linearGradient>
    <linearGradient
       gradientTransform="matrix(2.4795045,0,0,2.1356709,46.78552,-3.8194946)"
       gradientUnits="userSpaceOnUse"
       xlink:href="#linearGradient3600-8"
       id="linearGradient5466-8-3"
       y2="45.68882"
       x2="11.098394"
       y1="5.9702148"
       x1="11.098394" />
    <linearGradient
       xlink:href="#linearGradient3742"
       id="linearGradient3730"
       gradientUnits="userSpaceOnUse"
       gradientTransform="matrix(1.7339903,0,0,3.0819181,-118.98873,-4.5238907)"
       x1="118.57409"
       y1="3.7037382"
       x2="118.79462"
       y2="32.292839" />
    <linearGradient
       xlink:href="#linearGradient4614"
       id="linearGradient4604"
       gradientUnits="userSpaceOnUse"
       gradientTransform="matrix(1.769231,0,0,3.1538457,-122.7077,3.1651316)"
       x1="116.83477"
       y1="-38.101143"
       x2="116.7913"
       y2="-26.979191" />
    <linearGradient
       id="linearGradient7056">
      <stop
         offset="0"
         style="stop-color:#e6e6e6;stop-opacity:1"
         id="stop7064" />
      <stop
         offset="1"
         style="stop-color:#c8c8c8;stop-opacity:1"
         id="stop7060" />
    </linearGradient>
    <linearGradient
       gradientTransform="matrix(2.5999998,0,0,2.6000002,1.6000049,-2.7999916)"
       xlink:href="#linearGradient7056"
       id="linearGradient4763"
       x1="25"
       y1="-35"
       x2="25"
       y2="-44.395805"
       gradientUnits="userSpaceOnUse" />
    <radialGradient
       gradientTransform="matrix(2.6352942,0,0,0.75294,-69.035318,116.51765)"
       gradientUnits="userSpaceOnUse"
       xlink:href="#linearGradient8838"
       id="radialGradient3384"
       fy="4.625"
       fx="62.625"
       r="10.625"
       cy="4.625"
       cx="62.625" />
    <linearGradient
       id="linearGradient8838">
      <stop
         offset="0"
         style="stop-color:#000000;stop-opacity:1"
         id="stop8840" />
      <stop
         offset="1"
         style="stop-color:#000000;stop-opacity:0"
         id="stop8842" />
    </linearGradient>
    <linearGradient
       gradientTransform="matrix(2.2686859,0,0,2.3424235,312.3659,-11.770498)"
       gradientUnits="userSpaceOnUse"
       xlink:href="#linearGradient3104-8-8-97-4-6-2-0-1-4-0-5-8-3-9-1"
       id="linearGradient3315"
       y2="5.1757793"
       x2="-95.837799"
       y1="54.199703"
       x1="-95.837799" />
    <linearGradient
       id="linearGradient3104-8-8-97-4-6-2-0-1-4-0-5-8-3-9-1">
      <stop
         offset="0"
         style="stop-color:#000000;stop-opacity:0.32173914"
         id="stop3106-5-4-3-5-0-1-61-9-2-7-3-3-2-6-9" />
      <stop
         offset="1"
         style="stop-color:#000000;stop-opacity:0.27826086"
         id="stop3108-4-3-7-8-2-4-01-9-9-0-6-4-3-7-7" />
    </linearGradient>
    <radialGradient
       gradientTransform="matrix(0,3.595884,-3.8040163,-9.7874427e-8,128.1432,43.935424)"
       gradientUnits="userSpaceOnUse"
       xlink:href="#linearGradient4632-92-3-0-8-1-6-6"
       id="radialGradient3399"
       fy="8.4497671"
       fx="6.2751122"
       r="19.99999"
       cy="8.4497671"
       cx="6.2751122" />
    <linearGradient
       id="linearGradient4632-92-3-0-8-1-6-6">
      <stop
         offset="0"
         style="stop-color:#fafafa;stop-opacity:1"
         id="stop4634-68-8-0-2-9-1-1" />
      <stop
         offset="1"
         style="stop-color:#e1e1e1;stop-opacity:1"
         id="stop4636-8-21-7-1-4-9-4" />
    </linearGradient>
    <linearGradient
       gradientTransform="matrix(1.5405404,0,0,1.5405404,-14.508404,56.936147)"
       gradientUnits="userSpaceOnUse"
       xlink:href="#linearGradient4011-7-0"
       id="linearGradient3306"
       y2="42.883553"
       x2="71.204407"
       y1="7.8309216"
       x1="71.204407" />
    <linearGradient
       id="linearGradient4011-7-0">
      <stop
         offset="0"
         style="stop-color:#ffffff;stop-opacity:1"
         id="stop4013-4" />
      <stop
         offset="0.507761"
         style="stop-color:#ffffff;stop-opacity:0.23529412"
         id="stop4015-61" />
      <stop
         offset="0.83456558"
         style="stop-color:#ffffff;stop-opacity:0.15686275"
         id="stop4017-2" />
      <stop
         offset="1"
         style="stop-color:#ffffff;stop-opacity:0.39215687"
         id="stop4019-2" />
    </linearGradient>
    <radialGradient
       gradientTransform="matrix(0,7.1951256,-7.6115837,-1.9584024e-7,160.31624,35.576086)"
       gradientUnits="userSpaceOnUse"
       xlink:href="#linearGradient2867-449-88-871-390-598-476-591-434-148-57-177-3-8-8"
       id="radialGradient3386"
       fy="8.4497671"
       fx="1.1978998"
       r="19.99999"
       cy="8.4497671"
       cx="1.1978998" />
    <linearGradient
       id="linearGradient2867-449-88-871-390-598-476-591-434-148-57-177-3-8-8">
      <stop
         offset="0"
         style="stop-color:#90dbec;stop-opacity:1"
         id="stop3750-8-9-0" />
      <stop
         offset="0.26238"
         style="stop-color:#42baea;stop-opacity:1"
         id="stop3752-3-2-2" />
      <stop
         offset="0.704952"
         style="stop-color:#3689e6;stop-opacity:1"
         id="stop3754-7-2-2-9" />
      <stop
         offset="1"
         style="stop-color:#2b63a0;stop-opacity:1"
         id="stop3756-9-3-05" />
    </linearGradient>
    <linearGradient
       gradientTransform="matrix(1.2304737,0,0,1.270467,273.851,47.548205)"
       gradientUnits="userSpaceOnUse"
       xlink:href="#linearGradient3104-8-8-97-4-6-2-0-1-4-0-5-8-3-9-1"
       id="linearGradient3315-3"
       y2="5.1757793"
       x2="-95.837799"
       y1="54.199703"
       x1="-95.837799" />
  </defs>
  <path
     style="display:inline;overflow:visible;visibility:visible;opacity:0.3;fill:url(#radialGradient3384);fill-opacity:1;fill-rule:evenodd;stroke:none;stroke-width:1;marker:none"
     id="path8836"
     d="m 124,120 c 0,4.41828 -12.53604,8 -27.999999,8 -15.463978,0 -28,-3.58172 -28,-8 0,-4.41828 12.536022,-8 28,-8 C 111.46396,112 124,115.58172 124,120 Z" />
  <path
     id="path23417"
     style="opacity:0.3;fill:url(#radialGradient7374);fill-rule:evenodd;stroke-width:1"
     d="m 92.245596,116.60691 a 28.245597,6.3908297 0 1 1 -56.491192,0 28.245597,6.3908297 0 1 1 56.491192,0 z" />
  <rect
     id="rect3448"
     style="fill:url(#linearGradient4763);fill-opacity:1;stroke:#000000;stroke-width:1.00000012;stroke-opacity:0.29302326"
     transform="scale(1,-1)"
     rx="1.0000001"
     ry="1.0000001"
     height="39"
     width="39"
     y="-118.5"
     x="44.5" />
  <path
     style="opacity:0.1;fill:none;fill-rule:evenodd;stroke:#000000;stroke-width:3;stroke-linecap:butt;stroke-linejoin:miter;stroke-miterlimit:4;stroke-dasharray:none;stroke-opacity:1"
     d="M 45,95 H 83"
     id="path4538" />
  <path
     style="opacity:0.35;fill:#000000;fill-opacity:0.33598848;stroke:#000000;stroke-width:0.99999994;stroke-linecap:butt;stroke-linejoin:round;stroke-miterlimit:4;stroke-dasharray:none;stroke-dashoffset:0;stroke-opacity:0.67441861"
     d="m 50.5,103.5 v 7 h 9 v -7 z"
     id="rect3450" />
  <rect
     id="rect3458"
     style="opacity:0.4;fill:none;fill-opacity:1;stroke:url(#linearGradient4604);stroke-width:0.99999988;stroke-linecap:round;stroke-linejoin:round;stroke-miterlimit:4;stroke-dasharray:none;stroke-dashoffset:0;stroke-opacity:1;marker:none"
     transform="scale(1,-1)"
     height="37"
     width="37"
     y="-117.5"
     x="45.5" />
  <rect
     ry="2.5"
     id="rect5391"
     style="opacity:1;fill:url(#linearGradient5466-8-3);fill-opacity:1;stroke:none;stroke-width:0.99992192;stroke-linecap:butt;stroke-linejoin:round;stroke-miterlimit:4;stroke-dasharray:none;stroke-dashoffset:0;stroke-opacity:1;marker:none"
     rx="2.5000002"
     height="90"
     width="54"
     y="5"
     x="37" />
  <rect
     ry="3"
     id="rect5391-2"
     style="opacity:0.3;fill:none;fill-opacity:1;stroke:#000000;stroke-width:0.99992198;stroke-linecap:butt;stroke-linejoin:round;stroke-miterlimit:4;stroke-dasharray:none;stroke-dashoffset:0;stroke-opacity:1;marker:none"
     rx="2.9999998"
     height="91.000076"
     width="55.000076"
     y="4.4999609"
     x="36.499962" />
  <rect
     rx="2.0000002"
     id="rect5391-2-0"
     style="opacity:1;fill:none;fill-opacity:1;stroke:url(#linearGradient3730);stroke-width:0.99999994;stroke-linecap:round;stroke-linejoin:round;stroke-miterlimit:4;stroke-dasharray:none;stroke-dashoffset:0;stroke-opacity:1;marker:none"
     ry="2"
     height="89"
     width="53"
     y="5.5"
     x="37.5" />
  <path
     style="fill:#ffffff;fill-opacity:1;stroke-width:1"
     d="M 63.751369,16.001953 59.132228,24 h 3.294922 v 40.880859 l -8.410156,-7.958984 c -0.543003,-0.677435 -0.924212,-1.56479 -0.945312,-2.476563 0,-3.688487 5.5e-5,-5.879274 -0.002,-6.685546 C 54.626806,47.213247 55.74937,45.745219 55.74937,44 c 0,-2.207818 -1.791383,-3.998047 -4,-3.998047 -2.209577,0 -4,1.790069 -4,3.998047 0,1.745219 1.123888,3.213247 2.679688,3.759766 l -0.002,6.607422 c 0,1.790615 0.983061,3.667104 2.134766,4.861328 v 0.002 c 0.02845,0.02526 8.921875,8.445312 8.921875,8.445312 0.542204,0.675996 0.92162,1.561522 0.943359,2.472657 v 7.029296 A 5,5 0 0 0 58.749416,82 a 5,5 0 0 0 5,5 5,5 0 0 0 5,-5 5,5 0 0 0 -3.681641,-4.818359 v -6.953125 c 0,-0.01164 6.39e-4,-0.02334 0,-0.03516 V 60.144531 c 0.02317,-0.909374 0.40247,-1.795346 0.945313,-2.470703 0,0 8.893103,-8.417303 8.921875,-8.443359 1.151544,-1.194222 2.134766,-3.072347 2.134765,-4.863281 L 77.067775,38 h 2.681641 v -8 h -8 v 8 h 2.677734 c 0,0 -0.002,1.677211 -0.002,6.445312 -0.02093,0.911933 -0.402309,1.799448 -0.945312,2.476563 l -8.41211,7.960937 V 24 h 3.300782 z"
     id="path4696" />
  <path
     id="path1334"
     d="M 63.751369,15.001953 59.132228,23 h 3.294922 v 40.880859 l -8.410156,-7.958984 c -0.543003,-0.677435 -0.924212,-1.56479 -0.945312,-2.476563 0,-3.688487 5.5e-5,-5.879274 -0.002,-6.685546 C 54.626806,46.213247 55.74937,44.745219 55.74937,43 c 0,-2.207818 -1.791383,-3.998047 -4,-3.998047 -2.209577,0 -4,1.790069 -4,3.998047 0,1.745219 1.123888,3.213247 2.679688,3.759766 l -0.002,6.607422 c 0,1.790615 0.983061,3.667104 2.134766,4.861328 v 0.002 c 0.02845,0.02526 8.921875,8.445312 8.921875,8.445312 0.542204,0.675996 0.92162,1.561522 0.943359,2.472657 v 7.029296 A 5,5 0 0 0 58.749416,81 a 5,5 0 0 0 5,5 5,5 0 0 0 5,-5 5,5 0 0 0 -3.681641,-4.818359 v -6.953125 c 0,-0.01164 6.39e-4,-0.02334 0,-0.03516 V 59.144531 c 0.02317,-0.909374 0.40247,-1.795346 0.945313,-2.470703 0,0 8.893103,-8.417303 8.921875,-8.443359 1.151544,-1.194222 2.134766,-3.072347 2.134765,-4.863281 L 77.067775,37 h 2.681641 v -8 h -8 v 8 h 2.677734 c 0,0 -0.002,1.677211 -0.002,6.445312 -0.02093,0.911933 -0.402309,1.799448 -0.945312,2.476563 l -8.41211,7.960937 V 23 h 3.300782 z"
     style="fill:#aaaaaa;fill-opacity:1;stroke-width:1" />
  <path
     id="path4655"
     d="m 66.5,101.5 v 7 h 9 v -7 z"
     style="opacity:0.35;fill:#000000;fill-opacity:0.335988;stroke:#000000;stroke-width:1;stroke-linecap:butt;stroke-linejoin:round;stroke-miterlimit:4;stroke-dasharray:none;stroke-dashoffset:0;stroke-opacity:0.674419" />
  <path
     id="path4661"
     d="M 50,111.5 H 60"
     style="opacity:0.2;fill:none;fill-rule:evenodd;stroke:#ffffff;stroke-width:1px;stroke-linecap:butt;stroke-linejoin:miter;stroke-opacity:1" />
  <path
     style="opacity:0.2;fill:none;fill-rule:evenodd;stroke:#ffffff;stroke-width:1px;stroke-linecap:butt;stroke-linejoin:miter;stroke-opacity:1"
     d="M 66,109.5 H 76"
     id="path4663" />
  <rect
     rx="0.5"
     ry="0.5"
     y="99"
     x="54"
     height="1"
     width="2"
     id="rect4665"
     style="opacity:0.2;fill:#000000;fill-opacity:1;stroke:none;stroke-width:3;stroke-linecap:round;stroke-linejoin:round;stroke-miterlimit:4;stroke-dasharray:none;stroke-dashoffset:0;stroke-opacity:1" />
  <rect
     rx="0.5"
     style="opacity:0.2;fill:#000000;fill-opacity:1;stroke:none;stroke-width:3;stroke-linecap:round;stroke-linejoin:round;stroke-miterlimit:4;stroke-dasharray:none;stroke-dashoffset:0;stroke-opacity:1"
     id="rect4667"
     width="2"
     height="1"
     x="70"
     y="97"
     ry="0.5" />
  <rect
     rx="0.5"
     style="opacity:0.4;fill:#ffffff;fill-opacity:1;stroke:none;stroke-width:3;stroke-linecap:round;stroke-linejoin:round;stroke-miterlimit:4;stroke-dasharray:none;stroke-dashoffset:0;stroke-opacity:1"
     id="rect4669"
     width="2"
     height="1"
     x="54"
     y="100"
     ry="0.5" />
  <rect
     ry="0.5"
     y="98"
     x="70"
     height="1"
     width="2"
     id="rect4671"
     style="opacity:0.4;fill:#ffffff;fill-opacity:1;stroke:none;stroke-width:3;stroke-linecap:round;stroke-linejoin:round;stroke-miterlimit:4;stroke-dasharray:none;stroke-dashoffset:0;stroke-opacity:1"
     rx="0.5" />
  <path
     d="M 96,66.5 C 79.72291,66.5 66.5,79.722917 66.5,95.999997 66.5,112.27708 79.72291,125.50001 96,125.5 c 16.27709,0 29.5,-13.22292 29.5,-29.500003 C 125.5,79.722917 112.27709,66.5 96,66.5 Z"
     id="path2555-72"
     style="color:#000000;display:inline;overflow:visible;visibility:visible;fill:url(#radialGradient3386);fill-opacity:1;fill-rule:nonzero;stroke:none;stroke-width:0.999999;marker:none;enable-background:accumulate" />
  <path
     style="color:#000000;display:inline;overflow:visible;visibility:visible;fill:none;stroke:url(#linearGradient3306);stroke-width:0.999999;stroke-linecap:round;stroke-linejoin:round;stroke-miterlimit:4;stroke-dasharray:none;stroke-dashoffset:0;stroke-opacity:1;marker:none;enable-background:accumulate;opacity:0.5"
     id="path8655-6-4"
     d="M 124.5,95.998986 C 124.5,111.73961 111.73915,124.5 96.000364,124.5 c -15.740273,0 -28.500363,-12.76054 -28.500363,-28.501014 0,-15.739889 12.760091,-28.498984 28.500363,-28.498984 15.738786,0 28.499636,12.759095 28.499636,28.498984 z" />
  <path
     style="color:#000000;display:inline;overflow:visible;visibility:visible;opacity:0.8;fill:none;stroke:url(#linearGradient3315);stroke-width:0.999999;stroke-linecap:butt;stroke-linejoin:miter;stroke-miterlimit:4;stroke-dasharray:none;stroke-dashoffset:0;stroke-opacity:1;marker:none;enable-background:accumulate"
     id="path2555-6-4"
     d="m 96.000002,66.499999 c -16.27708,0 -29.5,13.222916 -29.5,29.500001 0,16.27708 13.22292,29.50001 29.5,29.5 C 112.27706,125.5 125.5,112.27708 125.5,96 125.5,79.722915 112.27706,66.499999 96.000002,66.499999 Z" />
  <path
     id="path974"
     style="color:#000000;font-style:normal;font-variant:normal;font-weight:normal;font-stretch:normal;font-size:medium;line-height:normal;font-family:sans-serif;font-variant-ligatures:normal;font-variant-position:normal;font-variant-caps:normal;font-variant-numeric:normal;font-variant-alternates:normal;font-variant-east-asian:normal;font-feature-settings:normal;font-variation-settings:normal;text-indent:0;text-align:start;text-decoration:none;text-decoration-line:none;text-decoration-style:solid;text-decoration-color:#000000;letter-spacing:normal;word-spacing:normal;text-transform:none;writing-mode:lr-tb;direction:ltr;text-orientation:mixed;dominant-baseline:auto;baseline-shift:baseline;text-anchor:start;white-space:normal;shape-padding:0;shape-margin:0;inline-size:0;clip-rule:nonzero;display:inline;overflow:visible;visibility:visible;opacity:0.05;isolation:auto;mix-blend-mode:normal;color-interpolation:sRGB;color-interpolation-filters:linearRGB;solid-color:#000000;solid-opacity:1;vector-effect:none;fill:#002e99;fill-opacity:1;fill-rule:nonzero;stroke:none;stroke-width:2;stroke-linecap:butt;stroke-linejoin:miter;stroke-miterlimit:4;stroke-dasharray:none;stroke-dashoffset:0;stroke-opacity:1;marker:none;color-rendering:auto;image-rendering:auto;shape-rendering:auto;text-rendering:auto;enable-background:accumulate;stop-color:#000000;stop-opacity:1"
     d="m 95,68.92 v 2.080078 5.101562 c -11.08847,0.53644 -20,9.682028 -20,20.898438 0,11.558742 9.44125,21.000012 21,21.000002 11.55873,0 21,-9.44125 21,-21.000002 v -1 h -6 v 1 c 0,8.309832 -6.69018,15.000002 -15,15.000002 -8.30984,1e-5 -15,-6.69016 -15,-15.000002 0,-7.967167 6.16916,-14.379657 14,-14.900391 v 6.980469 l 12.60156,-10.080078 z" />
  <path
     id="path955"
     style="color:#000000;font-style:normal;font-variant:normal;font-weight:normal;font-stretch:normal;font-size:medium;line-height:normal;font-family:sans-serif;font-variant-ligatures:normal;font-variant-position:normal;font-variant-caps:normal;font-variant-numeric:normal;font-variant-alternates:normal;font-variant-east-asian:normal;font-feature-settings:normal;font-variation-settings:normal;text-indent:0;text-align:start;text-decoration:none;text-decoration-line:none;text-decoration-style:solid;text-decoration-color:#000000;letter-spacing:normal;word-spacing:normal;text-transform:none;writing-mode:lr-tb;direction:ltr;text-orientation:mixed;dominant-baseline:auto;baseline-shift:baseline;text-anchor:start;white-space:normal;shape-padding:0;shape-margin:0;inline-size:0;clip-rule:nonzero;display:inline;overflow:visible;visibility:visible;opacity:0.15;isolation:auto;mix-blend-mode:normal;color-interpolation:sRGB;color-interpolation-filters:linearRGB;solid-color:#000000;solid-opacity:1;vector-effect:none;fill:#002e99;fill-opacity:1;fill-rule:nonzero;stroke:none;stroke-width:4;stroke-linecap:butt;stroke-linejoin:miter;stroke-miterlimit:4;stroke-dasharray:none;stroke-dashoffset:0;stroke-opacity:1;marker:none;color-rendering:auto;image-rendering:auto;shape-rendering:auto;text-rendering:auto;enable-background:accumulate;stop-color:#000000;stop-opacity:1"
     d="m 96,71.000078 v 6 c -11.01493,0 -20,8.98507 -20,20 0,11.014932 8.98506,20.000012 20,20.000002 11.01492,0 20,-8.98506 20,-20.000002 h -4 c 0,8.848632 -7.15139,16.000002 -16,16.000002 -8.84863,1e-5 -16,-7.15137 -16,-16.000002 0,-8.84862 7.15137,-16 16,-16 v 6 l 10,-8 z" />
  <path
     id="path932"
     style="color:#000000;font-style:normal;font-variant:normal;font-weight:normal;font-stretch:normal;font-size:medium;line-height:normal;font-family:sans-serif;font-variant-ligatures:normal;font-variant-position:normal;font-variant-caps:normal;font-variant-numeric:normal;font-variant-alternates:normal;font-variant-east-asian:normal;font-feature-settings:normal;font-variation-settings:normal;text-indent:0;text-align:start;text-decoration:none;text-decoration-line:none;text-decoration-style:solid;text-decoration-color:#000000;letter-spacing:normal;word-spacing:normal;text-transform:none;writing-mode:lr-tb;direction:ltr;text-orientation:mixed;dominant-baseline:auto;baseline-shift:baseline;text-anchor:start;white-space:normal;shape-padding:0;shape-margin:0;inline-size:0;clip-rule:nonzero;display:inline;overflow:visible;visibility:visible;isolation:auto;mix-blend-mode:normal;color-interpolation:sRGB;color-interpolation-filters:linearRGB;solid-color:#000000;solid-opacity:1;vector-effect:none;fill:#ffffff;fill-opacity:1;fill-rule:nonzero;stroke:none;stroke-width:4;stroke-linecap:butt;stroke-linejoin:miter;stroke-miterlimit:4;stroke-dasharray:none;stroke-dashoffset:0;stroke-opacity:1;marker:none;color-rendering:auto;image-rendering:auto;shape-rendering:auto;text-rendering:auto;enable-background:accumulate;stop-color:#000000;stop-opacity:1;opacity:1"
     d="M 96 70 L 96 76 C 84.985067 76 76 84.985071 76 96 C 76 107.01493 84.985065 116.00001 96 116 C 107.01492 116 116 107.01494 116 96 L 112 96 C 112 104.84863 104.84861 112 96 112 C 87.151373 112.00001 80 104.84863 80 96 C 80 87.151375 87.151371 80 96 80 L 96 86 L 106 78 L 96 70 z " />
</svg>
