<?xml version="1.0" encoding="UTF-8" standalone="no"?>
<svg
   xmlns:dc="http://purl.org/dc/elements/1.1/"
   xmlns:cc="http://creativecommons.org/ns#"
   xmlns:rdf="http://www.w3.org/1999/02/22-rdf-syntax-ns#"
   xmlns:svg="http://www.w3.org/2000/svg"
   xmlns="http://www.w3.org/2000/svg"
   xmlns:xlink="http://www.w3.org/1999/xlink"
   xmlns:sodipodi="http://sodipodi.sourceforge.net/DTD/sodipodi-0.dtd"
   xmlns:inkscape="http://www.inkscape.org/namespaces/inkscape"
   version="1.1"
   width="48"
   height="48"
   id="svg4041"
   inkscape:version="0.91 r13725"
   sodipodi:docname="document-page-setup.svg">
  <sodipodi:namedview
     pagecolor="#ffffff"
     bordercolor="#666666"
     borderopacity="1"
     objecttolerance="10"
     gridtolerance="10"
     guidetolerance="10"
     inkscape:pageopacity="0"
     inkscape:pageshadow="2"
     inkscape:window-width="1366"
     inkscape:window-height="705"
     id="namedview56"
     showgrid="false"
     inkscape:zoom="4.9166667"
     inkscape:cx="24"
     inkscape:cy="24"
     inkscape:window-x="0"
     inkscape:window-y="30"
     inkscape:window-maximized="1"
     inkscape:current-layer="svg4041" />
  <defs
     id="defs4043">
    <linearGradient
       x1="182"
       y1="33"
       x2="182"
       y2="24.519934"
       id="linearGradient4278"
       xlink:href="#linearGradient3985-6-635-120-628-965"
       gradientUnits="userSpaceOnUse"
       gradientTransform="matrix(1.5999999,0,0,1.5999999,-278.73173,-17.468267)" />
    <linearGradient
       id="linearGradient3985-6-635-120-628-965">
      <stop
         id="stop7116"
         style="stop-color:#ffffff;stop-opacity:1"
         offset="0" />
      <stop
         id="stop7118"
         style="stop-color:#ffffff;stop-opacity:0"
         offset="1" />
    </linearGradient>
    <linearGradient
       x1="188"
       y1="17"
       x2="188"
       y2="36.026299"
       id="linearGradient4276"
       xlink:href="#linearGradient3985-746-156-539-972"
       gradientUnits="userSpaceOnUse"
       gradientTransform="matrix(1.696113,0,0,1.696113,-295.84269,-20.733282)" />
    <linearGradient
       id="linearGradient3985-746-156-539-972">
      <stop
         id="stop7110"
         style="stop-color:#ffffff;stop-opacity:1"
         offset="0" />
      <stop
         id="stop7112"
         style="stop-color:#ffffff;stop-opacity:0"
         offset="1" />
    </linearGradient>
    <linearGradient
       x1="22.004084"
       y1="47.813133"
       x2="22.004084"
       y2="3.3638515"
       id="linearGradient8896"
       xlink:href="#linearGradient3104-5"
       gradientUnits="userSpaceOnUse"
       gradientTransform="translate(-1.982096,-3.0470739)" />
    <linearGradient
       id="linearGradient3104-5">
      <stop
         id="stop3106-2"
         style="stop-color:#aaaaaa;stop-opacity:1"
         offset="0" />
      <stop
         id="stop3108-5"
         style="stop-color:#c8c8c8;stop-opacity:1"
         offset="1" />
    </linearGradient>
    <linearGradient
       x1="23.99999"
       y1="5.5641499"
       x2="23.99999"
       y2="43"
       id="linearGradient3988"
       xlink:href="#linearGradient3977"
       gradientUnits="userSpaceOnUse"
       gradientTransform="matrix(0.89189189,0,0,1.1351351,2.5945999,-4.7432314)" />
    <linearGradient
       id="linearGradient3977">
      <stop
         id="stop3979"
         style="stop-color:#ffffff;stop-opacity:1"
         offset="0" />
      <stop
         id="stop3981"
         style="stop-color:#ffffff;stop-opacity:0.23529412"
         offset="0.03626217" />
      <stop
         id="stop3983"
         style="stop-color:#ffffff;stop-opacity:0.15686275"
         offset="0.95056331" />
      <stop
         id="stop3985"
         style="stop-color:#ffffff;stop-opacity:0.39215687"
         offset="1" />
    </linearGradient>
    <linearGradient
       x1="25.132275"
       y1="0.98520643"
       x2="25.132275"
       y2="47.013336"
       id="linearGradient3322"
       xlink:href="#linearGradient3600"
       gradientUnits="userSpaceOnUse"
       gradientTransform="matrix(1,0,0,0.9561695,-1e-7,-1.9149218)" />
    <linearGradient
       id="linearGradient3600">
      <stop
         id="stop3602"
         style="stop-color:#f4f4f4;stop-opacity:1"
         offset="0" />
      <stop
         id="stop3604"
         style="stop-color:#dbdbdb;stop-opacity:1"
         offset="1" />
    </linearGradient>
    <linearGradient
       x1="-51.786404"
       y1="50.786446"
       x2="-51.786404"
       y2="2.9062471"
       id="linearGradient3324"
       xlink:href="#linearGradient3104"
       gradientUnits="userSpaceOnUse"
       gradientTransform="matrix(0.8074968,0,0,0.8948322,59.410232,-2.9805531)" />
    <linearGradient
       id="linearGradient3104">
      <stop
         id="stop3106"
         style="stop-color:#a0a0a0;stop-opacity:1"
         offset="0" />
      <stop
         id="stop3108"
         style="stop-color:#bebebe;stop-opacity:1"
         offset="1" />
    </linearGradient>
    <radialGradient
       cx="605.71429"
       cy="486.64789"
       r="117.14286"
       fx="605.71429"
       fy="486.64789"
       id="radialGradient3327"
       xlink:href="#linearGradient5060"
       gradientUnits="userSpaceOnUse"
       gradientTransform="matrix(0.02303995,0,0,0.01470022,26.360882,37.040176)" />
    <linearGradient
       id="linearGradient5060">
      <stop
         id="stop5062"
         style="stop-color:#000000;stop-opacity:1"
         offset="0" />
      <stop
         id="stop5064"
         style="stop-color:#000000;stop-opacity:0"
         offset="1" />
    </linearGradient>
    <radialGradient
       cx="605.71429"
       cy="486.64789"
       r="117.14286"
       fx="605.71429"
       fy="486.64789"
       id="radialGradient3330"
       xlink:href="#linearGradient5060"
       gradientUnits="userSpaceOnUse"
       gradientTransform="matrix(-0.02303994,0,0,0.01470022,21.62311,37.040176)" />
    <linearGradient
       id="linearGradient5048">
      <stop
         id="stop5050"
         style="stop-color:#000000;stop-opacity:0"
         offset="0" />
      <stop
         id="stop5056"
         style="stop-color:#000000;stop-opacity:1"
         offset="0.5" />
      <stop
         id="stop5052"
         style="stop-color:#000000;stop-opacity:0"
         offset="1" />
    </linearGradient>
    <linearGradient
       x1="302.85715"
       y1="366.64789"
       x2="302.85715"
       y2="609.50507"
       id="linearGradient4039"
       xlink:href="#linearGradient5048"
       gradientUnits="userSpaceOnUse"
       gradientTransform="matrix(0.06732488,0,0,0.01470022,-0.3411391,37.040146)" />
    <linearGradient
       x1="25.132275"
       y1="0.98520643"
       x2="25.132275"
       y2="47.013336"
       id="linearGradient3322-3"
       xlink:href="#linearGradient3600"
       gradientUnits="userSpaceOnUse"
       gradientTransform="matrix(1,0,0,0.9561695,-1.0064697e-7,-1.914922)" />
    <linearGradient
       x1="-51.786404"
       y1="50.786446"
       x2="-51.786404"
       y2="2.9062471"
       id="linearGradient3324-5"
       xlink:href="#linearGradient3104-5"
       gradientUnits="userSpaceOnUse"
       gradientTransform="matrix(0.8074968,0,0,0.8948322,59.410232,-2.9805533)" />
    <linearGradient
       x1="24"
       y1="1.9999999"
       x2="24"
       y2="46.01725"
       id="linearGradient3316"
       xlink:href="#linearGradient3985-6-635-120-628-965"
       gradientUnits="userSpaceOnUse"
       gradientTransform="matrix(1,0,0,0.9777778,0,-0.9666693)" />
    <linearGradient
       y2="0.25937599"
       x2="18.38633"
       y1="44.960533"
       x1="18.38633"
       gradientUnits="userSpaceOnUse"
       id="linearGradient3090"
       xlink:href="#linearGradient3104-5"
       inkscape:collect="always" />
    <linearGradient
       y2="0.25937599"
       x2="18.38633"
       y1="44.960533"
       x1="18.38633"
       gradientUnits="userSpaceOnUse"
       id="linearGradient3092"
       xlink:href="#linearGradient3104-5"
       inkscape:collect="always" />
    <linearGradient
       y2="0.25937599"
       x2="18.38633"
       y1="44.960533"
       x1="18.38633"
       gradientUnits="userSpaceOnUse"
       id="linearGradient3094"
       xlink:href="#linearGradient3104-5"
       inkscape:collect="always" />
    <linearGradient
       x1="83.239876"
       y1="42.457047"
       x2="83.239876"
       y2="57.609871"
       id="linearGradient3805"
       xlink:href="#linearGradient3623-623"
       gradientUnits="userSpaceOnUse"
       gradientTransform="matrix(0.403936,0,0,0.4256678,-1.4432358,-4.7929841)" />
    <linearGradient
       id="linearGradient3623-623">
      <stop
         id="stop3127"
         style="stop-color:#ffffff;stop-opacity:1"
         offset="0" />
      <stop
         id="stop3129"
         style="stop-color:#e1e1e1;stop-opacity:1"
         offset="1" />
    </linearGradient>
    <linearGradient
       x1="25.498058"
       y1="44.637547"
       x2="25.498058"
       y2="0.27636921"
       id="linearGradient3843"
       xlink:href="#linearGradient3104-5"
       gradientUnits="userSpaceOnUse" />
  </defs>
  <metadata
     id="metadata4046">
    <rdf:RDF>
      <cc:Work
         rdf:about="">
        <dc:format>image/svg+xml</dc:format>
        <dc:type
           rdf:resource="http://purl.org/dc/dcmitype/StillImage" />
        <dc:title />
      </cc:Work>
    </rdf:RDF>
  </metadata>
  <g
     transform="matrix(0.99951105,0,0,0.99993472,0.00306927,0.00303525)"
     id="g4204">
    <path
       sodipodi:nodetypes="cccccc"
       inkscape:connector-curvature="0"
       style="display:inline;fill:url(#linearGradient3322-3);fill-opacity:1;stroke:url(#linearGradient3324-5);stroke-width:1.00019908;stroke-linecap:butt;stroke-linejoin:round;stroke-miterlimit:4;stroke-dasharray:none;stroke-dashoffset:0;stroke-opacity:1"
       id="path4160-9"
       d="m 6.4999609,0.49719878 c 8.0202951,0 26.9909281,-0.003347 35.0112241,-0.003347 0.02762,1.68844622 -0.05384,5.44417212 -0.01114,9.62975322 0,11.459733 0,22.919465 0,34.379198 -11.666694,0 -23.333387,0 -35.0000811,0 0,-14.668535 0,-29.33707 0,-44.00560444 z" />
    <path
       sodipodi:nodetypes="ccccc"
       inkscape:connector-curvature="0"
       style="display:inline;opacity:0.6;fill:none;stroke:url(#linearGradient3316);stroke-width:1.00019896;stroke-linecap:butt;stroke-linejoin:round;stroke-miterlimit:4;stroke-dasharray:none;stroke-dashoffset:0;stroke-opacity:1"
       id="path2435"
       d="m 40.514669,1.1346952 c 0,10.9490368 -0.01463,31.4385258 -0.01463,42.3875628 -11.000026,0 -22.000052,0 -33.0000781,0 0,-14.014841 0.048766,-28.044311 0.048766,-42.0591511 7.5619931,0 25.8963061,0.039013 33.4583001,0.039013" />
    <path
       style="display:inline;overflow:visible;visibility:visible;fill:#ffffff;fill-opacity:1;fill-rule:evenodd;stroke:url(#linearGradient3090);stroke-width:1.00027728;stroke-linecap:round;stroke-linejoin:round;stroke-miterlimit:4;stroke-dashoffset:0;stroke-opacity:1;marker:none;enable-background:accumulate"
       id="path3835"
       d="m 11.5,30.5 8.000001,0 0,8 -8.000001,0 0,-8 z"
       inkscape:connector-curvature="0" />
    <path
       style="display:inline;overflow:visible;visibility:visible;fill:#ffffff;fill-opacity:1;fill-rule:evenodd;stroke:url(#linearGradient3092);stroke-width:1.00027728;stroke-linecap:round;stroke-linejoin:round;stroke-miterlimit:4;stroke-dashoffset:0;stroke-opacity:1;marker:none;enable-background:accumulate"
       id="path3833"
       d="m 36.500001,34.499998 c 0,2.208 -1.792,4 -4,4 -2.208,0 -3.999999,-1.792 -3.999999,-4 0,-2.208 1.791999,-4 3.999999,-4 2.208,0 4,1.792 4,4 z"
       inkscape:connector-curvature="0" />
    <path
       style="display:inline;overflow:visible;visibility:visible;fill:#ffffff;fill-opacity:1;fill-rule:evenodd;stroke:url(#linearGradient3094);stroke-width:1.00027728;stroke-linecap:round;stroke-linejoin:round;stroke-miterlimit:4;stroke-dashoffset:0;stroke-opacity:1;marker:none;enable-background:accumulate"
       id="path3831"
       d="m 12.868935,12.50151 22.276189,0 c 0.75449,0 1.361895,0.662838 1.361895,1.486185 l 0,5.02612 c 0,0.823346 -0.607405,1.486185 -1.361895,1.486185 l -22.276189,0 c -0.754491,0 -1.361896,-0.662839 -1.361896,-1.486185 l 0,-5.02612 c 0,-0.823347 0.607405,-1.486185 1.361896,-1.486185 z"
       inkscape:connector-curvature="0" />
    <path
       style="display:inline;overflow:visible;visibility:visible;fill:#4d4d4d;fill-opacity:1;fill-rule:evenodd;stroke:none;stroke-width:1;marker:none;enable-background:accumulate"
       id="rect2257"
       d="m 34.500004,34.499997 c 0,1.104 -0.896,2.000002 -2.000003,2.000002 -1.104002,0 -2.000002,-0.896002 -2.000002,-2.000002 0,-1.104 0.896,-2 2.000002,-2 1.104003,0 2.000003,0.896 2.000003,2 z"
       inkscape:connector-curvature="0" />
    <path
       style="display:inline;overflow:visible;visibility:visible;fill:url(#linearGradient3805);fill-opacity:1;fill-rule:evenodd;stroke:url(#linearGradient3843);stroke-width:1.00027716;stroke-linecap:round;stroke-linejoin:round;stroke-miterlimit:4;stroke-dasharray:none;stroke-dashoffset:0;stroke-opacity:1;marker:none;enable-background:accumulate"
       id="rect3618"
       d="m 28.460656,12.499772 0,7.994575 6.286254,0 c 0.976146,0 1.754599,-0.820332 1.754598,-1.848996 l 0,-4.283282 c 0,-1.028663 -0.77845,-1.862297 -1.754598,-1.862297 l -6.286254,0 z"
       inkscape:connector-curvature="0" />
    <path
       style="fill:none;stroke:#4d4d4d;stroke-width:1.00027716;stroke-linecap:round;stroke-linejoin:round;stroke-miterlimit:4;stroke-dasharray:none;stroke-opacity:1"
       id="path3631"
       d="m 31.110032,15.736799 1.394439,1.551705 1.436514,-1.567293"
       inkscape:connector-curvature="0" />
    <path
       style="fill:none;stroke:#4d4d4d;stroke-width:1.00027728;stroke-linecap:round;stroke-linejoin:round;stroke-miterlimit:4;stroke-dasharray:none;stroke-opacity:1"
       id="path2259"
       d="m 13.256097,35.18292 1.951216,1.560978 2.731708,-3.707316"
       inkscape:connector-curvature="0" />
  </g>
  <rect
     style="display:inline;overflow:visible;visibility:visible;opacity:0.3;fill:url(#linearGradient4039);fill-opacity:1;fill-rule:nonzero;stroke:none;stroke-width:1;marker:none"
     id="rect2879"
     y="42.429947"
     x="7.7378473"
     height="3.5700529"
     width="32.508301" />
  <path
     inkscape:connector-curvature="0"
     style="display:inline;overflow:visible;visibility:visible;opacity:0.3;fill:url(#radialGradient3330);fill-opacity:1;fill-rule:nonzero;stroke:none;stroke-width:1;marker:none"
     id="path2881"
     d="m 7.7378475,42.430102 c 0,0 0,3.569856 0,3.569856 -1.1865002,0.0067 -2.8683795,-0.799823 -2.8683795,-1.785158 0,-0.985333 1.3240446,-1.784697 2.8683795,-1.784698 z" />
  <path
     inkscape:connector-curvature="0"
     style="display:inline;overflow:visible;visibility:visible;opacity:0.3;fill:url(#radialGradient3327);fill-opacity:1;fill-rule:nonzero;stroke:none;stroke-width:1;marker:none"
     id="path2883"
     d="m 40.246148,42.430102 c 0,0 0,3.569856 0,3.569856 1.1865,0.0067 2.86838,-0.799823 2.86838,-1.785158 0,-0.985333 -1.324045,-1.784697 -2.86838,-1.784698 z" />
  <path
     inkscape:connector-curvature="0"
     style="fill:none;stroke:url(#linearGradient3988);stroke-width:1;stroke-linecap:round;stroke-linejoin:round;stroke-miterlimit:4;stroke-dasharray:none;stroke-dashoffset:0;stroke-opacity:1"
     id="rect6741-1"
     d="m 40.5,43.5 -33,0 0,-41.9999998 33,0 z" />
  <path
     inkscape:connector-curvature="0"
     style="color:#000000;display:inline;overflow:visible;visibility:visible;fill:#81d72c;fill-opacity:0.58823529;fill-rule:evenodd;stroke:#4e9a06;stroke-width:1;stroke-linecap:butt;stroke-linejoin:round;stroke-miterlimit:4;stroke-dasharray:none;stroke-dashoffset:0;stroke-opacity:1;marker:none;enable-background:accumulate"
     id="path3410"
     d="M 2.5,7.50003 35.499973,40.5 2.5,40.5 2.5,7.50003 Z m 6.9682588,18.031701 0,8 8.0000002,0 -8.0000002,-8 z" />
  <path
     inkscape:connector-curvature="0"
     style="opacity:0.5;fill:none;stroke:url(#linearGradient4276);stroke-width:1px;stroke-linecap:butt;stroke-linejoin:miter;stroke-opacity:1"
     id="path3981"
     d="m 3.4682589,10 c 0,10 0,19.531733 0,29.531733 9.9999951,0 19.5317461,0 29.5317411,0 C 33,39.531733 3.4682589,10 3.4682589,10 Z" />
  <path
     inkscape:connector-curvature="0"
     style="opacity:0.5;fill:none;stroke:url(#linearGradient4278);stroke-width:0.99999994px;stroke-linecap:butt;stroke-linejoin:miter;stroke-opacity:1"
     id="path3981-5"
     d="m 8.4682586,22.53173 c 0,0 0,12 0,12 0,0 11.0000004,0 11.0000004,0" />
  <path
     inkscape:connector-curvature="0"
     style="color:#000000;display:inline;overflow:visible;visibility:visible;opacity:0.15;fill:#000000;fill-opacity:1;stroke:none;stroke-width:2;marker:none;enable-background:accumulate"
     id="rect4034-50"
     d="m 2.9682588,12.03173 2,0 0,1 -2,0 0,-1 z m 0,3.000001 2,0 0,1 -2,0 0,-1 z m 0,3 2,0 0,1 -2,0 0,-1 z m 0,3 2,0 0,1 -2,0 0,-1 z m 0,3 2,0 0,1 -2,0 0,-1 z m 0,3 2,0 0,1 -2,0 0,-1 z m 0,3 2,0 0,1 -2,0 0,-1 z m 0,3 2,0 0,1 -2,0 0,-1 z m 0,3 2,0 0,1 -2,0 0,-1 z" />
  <path
     inkscape:connector-curvature="0"
     style="color:#000000;display:inline;overflow:visible;visibility:visible;opacity:0.15;fill:#ffffff;fill-opacity:1;stroke:none;stroke-width:2;marker:none;enable-background:accumulate"
     id="rect4034-50-3"
     d="m 2.9682588,13.032 2,0 0,1 -2,0 0,-1 z m 0,3 2,0 0,1 -2,0 0,-1 z m 0,3 2,0 0,1 -2,0 0,-1 z m 0,3 2,0 0,1 -2,0 0,-1 z m 0,3 2,0 0,1 -2,0 0,-1 z m 0,3 2,0 0,1 -2,0 0,-1 z m 0,3 2,0 0,1 -2,0 0,-1 z m 0,3 2,0 0,1 -2,0 0,-1 z m 0,3 2,0 0,1 -2,0 0,-1 z" />
  <path
     inkscape:connector-curvature="0"
     style="color:#000000;display:inline;overflow:visible;visibility:visible;opacity:0.15;fill:#000000;fill-opacity:1;stroke:none;stroke-width:2;marker:none;enable-background:accumulate"
     id="rect4034-50-5"
     d="m 30.968393,38.031866 0,2 -1,0 0,-2 1,0 z m -3,0 0,2 -1,0 0,-2 1,0 z m -3,0 0,2 -1,0 0,-2 1,0 z m -3,0 0,2 -1,0 0,-2 1,0 z m -3,0 0,2 -1,0 0,-2 1,0 z m -3,0 0,2 -1,0 0,-2 1,0 z m -3,0 0,2 -1,0 0,-2 1,0 z m -3,0 0,2 -1,0 0,-2 1,0 z m -3,0 0,2 -1,0 0,-2 1,0 z" />
  <path
     inkscape:connector-curvature="0"
     style="color:#000000;display:inline;overflow:visible;visibility:visible;opacity:0.15;fill:#ffffff;fill-opacity:1;stroke:none;stroke-width:2;marker:none;enable-background:accumulate"
     id="rect4034-50-3-7"
     d="m 29.968124,38.031866 0,2 -1,0 0,-2 1,0 z m -3,0 0,2 -1,0 0,-2 1,0 z m -3,0 0,2 -1,0 0,-2 1,0 z m -3,0 0,2 -1,0 0,-2 1,0 z m -3,0 0,2 -1,0 0,-2 1,0 z m -3,0 0,2 -1,0 0,-2 1,0 z m -3,0 0,2 -1,0 0,-2 1,0 z m -3,0 0,2 -1,0 0,-2 1,0 z m -3,0 0,2 -1,0 0,-2 1,0 z" />
  <path
     inkscape:connector-curvature="0"
     style="opacity:0.3;fill:none;stroke:#85f619;stroke-width:1px;stroke-linecap:square;stroke-linejoin:miter;stroke-opacity:1"
     id="path3853"
     d="m 6.5,41.5 28.99998,0" />
</svg>
