<?xml version="1.0" encoding="UTF-8" standalone="no"?>
<svg
   xmlns:dc="http://purl.org/dc/elements/1.1/"
   xmlns:cc="http://creativecommons.org/ns#"
   xmlns:rdf="http://www.w3.org/1999/02/22-rdf-syntax-ns#"
   xmlns:svg="http://www.w3.org/2000/svg"
   xmlns="http://www.w3.org/2000/svg"
   xmlns:xlink="http://www.w3.org/1999/xlink"
   xmlns:sodipodi="http://sodipodi.sourceforge.net/DTD/sodipodi-0.dtd"
   xmlns:inkscape="http://www.inkscape.org/namespaces/inkscape"
   version="1.1"
   width="32"
   height="32"
   id="svg4042"
   inkscape:version="0.91 r13725"
   sodipodi:docname="glade_32.svg">
  <sodipodi:namedview
     pagecolor="#ffffff"
     bordercolor="#666666"
     borderopacity="1"
     objecttolerance="10"
     gridtolerance="10"
     guidetolerance="10"
     inkscape:pageopacity="0"
     inkscape:pageshadow="2"
     inkscape:window-width="1366"
     inkscape:window-height="705"
     id="namedview57"
     showgrid="false"
     inkscape:zoom="7.375"
     inkscape:cx="16"
     inkscape:cy="16"
     inkscape:window-x="0"
     inkscape:window-y="30"
     inkscape:window-maximized="1"
     inkscape:current-layer="svg4042" />
  <defs
     id="defs4044">
    <linearGradient
       x1="182"
       y1="33"
       x2="182"
       y2="24.519934"
       id="linearGradient3164"
       xlink:href="#linearGradient3985-6-635-120-628-965"
       gradientUnits="userSpaceOnUse"
       gradientTransform="matrix(1.0666675,0,0,1.0666676,-185.98796,-12.145548)" />
    <linearGradient
       id="linearGradient3985-6-635-120-628-965">
      <stop
         id="stop7116"
         style="stop-color:#ffffff;stop-opacity:1"
         offset="0" />
      <stop
         id="stop7118"
         style="stop-color:#ffffff;stop-opacity:0"
         offset="1" />
    </linearGradient>
    <linearGradient
       x1="188"
       y1="17"
       x2="188"
       y2="36.026299"
       id="linearGradient3167"
       xlink:href="#linearGradient3985-746-156-539-972"
       gradientUnits="userSpaceOnUse"
       gradientTransform="matrix(1.0698189,0,0,1.0698191,-186.28965,-12.512006)" />
    <linearGradient
       id="linearGradient3985-746-156-539-972">
      <stop
         id="stop7110"
         style="stop-color:#ffffff;stop-opacity:1"
         offset="0" />
      <stop
         id="stop7112"
         style="stop-color:#ffffff;stop-opacity:0"
         offset="1" />
    </linearGradient>
    <linearGradient
       x1="302.85715"
       y1="366.64789"
       x2="302.85715"
       y2="609.50507"
       id="linearGradient3161"
       xlink:href="#linearGradient5048"
       gradientUnits="userSpaceOnUse"
       gradientTransform="matrix(0.04576928,0,0,0.00823529,-0.5423243,25.980548)" />
    <linearGradient
       id="linearGradient5048">
      <stop
         id="stop5050"
         style="stop-color:#000000;stop-opacity:0"
         offset="0" />
      <stop
         id="stop5056"
         style="stop-color:#000000;stop-opacity:1"
         offset="0.5" />
      <stop
         id="stop5052"
         style="stop-color:#000000;stop-opacity:0"
         offset="1" />
    </linearGradient>
    <radialGradient
       cx="605.71429"
       cy="486.64789"
       r="117.14286"
       fx="605.71429"
       fy="486.64789"
       id="radialGradient3048"
       xlink:href="#linearGradient5060"
       gradientUnits="userSpaceOnUse"
       gradientTransform="matrix(-0.01566318,0,0,0.00823529,14.389566,25.980565)" />
    <linearGradient
       id="linearGradient5060">
      <stop
         id="stop5062"
         style="stop-color:#000000;stop-opacity:1"
         offset="0" />
      <stop
         id="stop5064"
         style="stop-color:#000000;stop-opacity:0"
         offset="1" />
    </linearGradient>
    <radialGradient
       cx="605.71429"
       cy="486.64789"
       r="117.14286"
       fx="605.71429"
       fy="486.64789"
       id="radialGradient3045"
       xlink:href="#linearGradient5060"
       gradientUnits="userSpaceOnUse"
       gradientTransform="matrix(0.01566318,0,0,0.00823529,17.610433,25.980565)" />
    <linearGradient
       x1="25.132275"
       y1="0.98520643"
       x2="25.132275"
       y2="47.013336"
       id="linearGradient3122"
       xlink:href="#linearGradient3600-4"
       gradientUnits="userSpaceOnUse"
       gradientTransform="matrix(0.65714319,0,0,0.63012397,0.228556,-1.0896478)" />
    <linearGradient
       id="linearGradient3600-4">
      <stop
         id="stop3602-7"
         style="stop-color:#f4f4f4;stop-opacity:1"
         offset="0" />
      <stop
         id="stop3604-6"
         style="stop-color:#dbdbdb;stop-opacity:1"
         offset="1" />
    </linearGradient>
    <linearGradient
       x1="-51.786404"
       y1="50.786446"
       x2="-51.786404"
       y2="2.9062471"
       id="linearGradient3124"
       xlink:href="#linearGradient3104-5"
       gradientUnits="userSpaceOnUse"
       gradientTransform="matrix(0.53064102,0,0,0.58970216,39.269585,-1.7919079)" />
    <linearGradient
       id="linearGradient3104-5">
      <stop
         id="stop3106-6"
         style="stop-color:#a0a0a0;stop-opacity:1"
         offset="0" />
      <stop
         id="stop3108-9"
         style="stop-color:#bebebe;stop-opacity:1"
         offset="1" />
    </linearGradient>
    <linearGradient
       x1="23.99999"
       y1="5.5641499"
       x2="23.99999"
       y2="43"
       id="linearGradient3119"
       xlink:href="#linearGradient3977"
       gradientUnits="userSpaceOnUse"
       gradientTransform="matrix(0.56756757,0,0,0.72972971,33.658838,-1.6014816)" />
    <linearGradient
       id="linearGradient3977">
      <stop
         id="stop3979"
         style="stop-color:#ffffff;stop-opacity:1"
         offset="0" />
      <stop
         id="stop3981"
         style="stop-color:#ffffff;stop-opacity:0.23529412"
         offset="0.03626217" />
      <stop
         id="stop3983"
         style="stop-color:#ffffff;stop-opacity:0.15686275"
         offset="0.95056331" />
      <stop
         id="stop3985"
         style="stop-color:#ffffff;stop-opacity:0.39215687"
         offset="1" />
    </linearGradient>
    <linearGradient
       id="linearGradient3104-5-4">
      <stop
         id="stop3106-2"
         style="stop-color:#aaaaaa;stop-opacity:1"
         offset="0" />
      <stop
         id="stop3108-5"
         style="stop-color:#c8c8c8;stop-opacity:1"
         offset="1" />
    </linearGradient>
    <linearGradient
       x1="22.004084"
       y1="47.813133"
       x2="22.004084"
       y2="3.3638515"
       id="linearGradient4040"
       xlink:href="#linearGradient3104-5-4"
       gradientUnits="userSpaceOnUse"
       gradientTransform="matrix(0.72361808,0,0,0.66666603,-2.3940795,-2.198042)" />
    <linearGradient
       x1="25.132275"
       y1="0.98520643"
       x2="25.132275"
       y2="47.013336"
       id="linearGradient3322"
       xlink:href="#linearGradient3600-4"
       gradientUnits="userSpaceOnUse"
       gradientTransform="matrix(0.65687102,0,0,0.63004076,31.509913,-0.17438811)" />
    <linearGradient
       x1="-51.786404"
       y1="50.786446"
       x2="-51.786404"
       y2="2.9062471"
       id="linearGradient3324"
       xlink:href="#linearGradient3104-5-4"
       gradientUnits="userSpaceOnUse"
       gradientTransform="matrix(0.53042125,0,0,0.58962428,70.534773,-0.87655561)" />
    <linearGradient
       x1="24"
       y1="1.9999999"
       x2="24"
       y2="46.01725"
       id="linearGradient3316"
       xlink:href="#linearGradient3985-6-635-120-628-965"
       gradientUnits="userSpaceOnUse"
       gradientTransform="matrix(0.65687102,0,0,0.64427893,31.509913,0.4504361)" />
    <linearGradient
       y2="0.25937599"
       x2="18.38633"
       y1="44.960533"
       x1="18.38633"
       gradientUnits="userSpaceOnUse"
       id="linearGradient3090"
       xlink:href="#linearGradient3104-5-4"
       inkscape:collect="always"
       gradientTransform="matrix(0.65687102,0,0,0.65892162,31.509913,1.0873954)" />
    <linearGradient
       y2="0.25937599"
       x2="18.38633"
       y1="44.960533"
       x1="18.38633"
       gradientUnits="userSpaceOnUse"
       id="linearGradient3092"
       xlink:href="#linearGradient3104-5-4"
       inkscape:collect="always"
       gradientTransform="matrix(0.65687102,0,0,0.65892162,31.509913,1.0873954)" />
    <linearGradient
       y2="0.25937599"
       x2="18.38633"
       y1="44.960533"
       x1="18.38633"
       gradientUnits="userSpaceOnUse"
       id="linearGradient3094"
       xlink:href="#linearGradient3104-5-4"
       inkscape:collect="always"
       gradientTransform="matrix(0.65687102,0,0,0.65892162,31.509913,1.0873954)" />
    <linearGradient
       x1="83.239876"
       y1="42.457047"
       x2="83.239876"
       y2="57.609871"
       id="linearGradient3805"
       xlink:href="#linearGradient3623-623"
       gradientUnits="userSpaceOnUse"
       gradientTransform="matrix(0.26533385,0,0,0.28048172,30.561893,-2.0708054)" />
    <linearGradient
       id="linearGradient3623-623">
      <stop
         id="stop3127"
         style="stop-color:#ffffff;stop-opacity:1"
         offset="0" />
      <stop
         id="stop3129"
         style="stop-color:#e1e1e1;stop-opacity:1"
         offset="1" />
    </linearGradient>
    <linearGradient
       x1="25.498058"
       y1="44.637547"
       x2="25.498058"
       y2="0.27636921"
       id="linearGradient3843"
       xlink:href="#linearGradient3104-5-4"
       gradientUnits="userSpaceOnUse"
       gradientTransform="matrix(0.65687102,0,0,0.65892162,31.509913,1.0873954)" />
  </defs>
  <metadata
     id="metadata4047">
    <rdf:RDF>
      <cc:Work
         rdf:about="">
        <dc:format>image/svg+xml</dc:format>
        <dc:type
           rdf:resource="http://purl.org/dc/dcmitype/StillImage" />
        <dc:title />
      </cc:Work>
    </rdf:RDF>
  </metadata>
  <rect
     width="22.100021"
     height="2"
     x="4.9499893"
     y="29"
     id="rect2879"
     style="display:inline;overflow:visible;visibility:visible;opacity:0.15;fill:url(#linearGradient3161);fill-opacity:1;fill-rule:nonzero;stroke:none;stroke-width:1;marker:none" />
  <path
     d="m 4.9499887,29.000086 c 0,0 0,1.99989 0,1.99989 -0.806615,0.0038 -1.950002,-0.448074 -1.950002,-1.000074 0,-0.552 0.900121,-0.999816 1.950002,-0.999816 z"
     id="path2881"
     style="display:inline;overflow:visible;visibility:visible;opacity:0.15;fill:url(#radialGradient3048);fill-opacity:1;fill-rule:nonzero;stroke:none;stroke-width:1;marker:none"
     inkscape:connector-curvature="0" />
  <path
     d="m 27.050011,29.000086 c 0,0 0,1.99989 0,1.99989 0.806614,0.0038 1.950002,-0.448074 1.950002,-1.000074 0,-0.552 -0.900122,-0.999816 -1.950002,-0.999816 z"
     id="path2883"
     style="display:inline;overflow:visible;visibility:visible;opacity:0.15;fill:url(#radialGradient3045);fill-opacity:1;fill-rule:nonzero;stroke:none;stroke-width:1;marker:none"
     inkscape:connector-curvature="0" />
  <g
     id="g4307"
     transform="matrix(0.99992623,0,0,1.0000549,-31.276967,-0.9128802)">
    <g
       id="g4297">
      <path
         d="m 35.779549,1.4150104 c 5.268299,0 17.729558,-0.00221 22.997858,-0.00221 0.01814,1.1125537 -0.03537,3.5872827 -0.0073,6.3452526 0,7.551065 0,15.102131 0,22.653196 -7.663513,0 -15.327026,0 -22.990539,0 0,-9.665414 0,-19.330829 0,-28.9962433 z"
         id="path4160"
         style="display:inline;fill:url(#linearGradient3322);fill-opacity:1;stroke:url(#linearGradient3324);stroke-width:0.99993122;stroke-linecap:butt;stroke-linejoin:round;stroke-miterlimit:4;stroke-dasharray:none;stroke-dashoffset:0;stroke-opacity:1"
         inkscape:connector-curvature="0"
         sodipodi:nodetypes="cccccc" />
      <path
         inkscape:connector-curvature="0"
         d="m 39.06393,21.184505 5.254969,0 0,5.271373 -5.254969,0 0,-5.271373 z"
         id="path3835"
         style="display:inline;overflow:visible;visibility:visible;fill:#ffffff;fill-opacity:1;fill-rule:evenodd;stroke:url(#linearGradient3090);stroke-width:1.00000942;stroke-linecap:round;stroke-linejoin:round;stroke-miterlimit:4;stroke-dashoffset:0;stroke-opacity:1;marker:none;enable-background:accumulate" />
      <path
         inkscape:connector-curvature="0"
         d="m 55.485706,23.82019 c 0,1.454899 -1.177113,2.635686 -2.627484,2.635686 -1.450371,0 -2.627484,-1.180787 -2.627484,-2.635686 0,-1.454899 1.177113,-2.635687 2.627484,-2.635687 1.450371,0 2.627484,1.180788 2.627484,2.635687 z"
         id="path3833"
         style="display:inline;overflow:visible;visibility:visible;fill:#ffffff;fill-opacity:1;fill-rule:evenodd;stroke:url(#linearGradient3092);stroke-width:1.00000942;stroke-linecap:round;stroke-linejoin:round;stroke-miterlimit:4;stroke-dashoffset:0;stroke-opacity:1;marker:none;enable-background:accumulate" />
      <path
         inkscape:connector-curvature="0"
         d="m 39.963143,9.3249106 14.632583,0 c 0.495603,0 0.89459,0.4367583 0.89459,0.9792794 l 0,3.311819 c 0,0.542521 -0.398987,0.97928 -0.89459,0.97928 l -14.632583,0 c -0.495603,0 -0.89459,-0.436759 -0.89459,-0.97928 l 0,-3.311819 c 0,-0.5425211 0.398987,-0.9792794 0.89459,-0.9792794 z"
         id="path3831"
         style="display:inline;overflow:visible;visibility:visible;fill:#ffffff;fill-opacity:1;fill-rule:evenodd;stroke:url(#linearGradient3094);stroke-width:1.00000942;stroke-linecap:round;stroke-linejoin:round;stroke-miterlimit:4;stroke-dashoffset:0;stroke-opacity:1;marker:none;enable-background:accumulate" />
      <path
         inkscape:connector-curvature="0"
         d="m 54.171966,23.820189 c 0,0.72745 -0.588557,1.317845 -1.313744,1.317845 -0.725187,0 -1.313744,-0.590395 -1.313744,-1.317845 0,-0.727449 0.588557,-1.317843 1.313744,-1.317843 0.725187,0 1.313744,0.590394 1.313744,1.317843 z"
         id="rect2257"
         style="display:inline;overflow:visible;visibility:visible;fill:#4d4d4d;fill-opacity:1;fill-rule:evenodd;stroke:none;stroke-width:1;marker:none;enable-background:accumulate" />
      <path
         inkscape:connector-curvature="0"
         d="m 50.204893,9.3237654 0,5.2677986 4.129258,0 c 0.641202,0 1.152545,-0.540535 1.152545,-1.218344 l 0,-2.822347 c 0,-0.6778081 -0.511341,-1.2271076 -1.152545,-1.2271076 l -4.129258,0 z"
         id="rect3618"
         style="display:inline;overflow:visible;visibility:visible;fill:url(#linearGradient3805);fill-opacity:1;fill-rule:evenodd;stroke:url(#linearGradient3843);stroke-width:1.0000093;stroke-linecap:round;stroke-linejoin:round;stroke-miterlimit:4;stroke-dasharray:none;stroke-dashoffset:0;stroke-opacity:1;marker:none;enable-background:accumulate" />
      <path
         inkscape:connector-curvature="0"
         d="m 51.945191,11.456712 0.915967,1.022452 0.943604,-1.032723"
         id="path3631"
         style="fill:none;stroke:#4d4d4d;stroke-width:1.0000093;stroke-linecap:round;stroke-linejoin:round;stroke-miterlimit:4;stroke-dasharray:none;stroke-opacity:1" />
      <path
         inkscape:connector-curvature="0"
         d="m 40.217459,24.270182 1.281697,1.028562 1.79438,-2.44283"
         id="path2259"
         style="fill:none;stroke:#4d4d4d;stroke-width:1.00000942;stroke-linecap:round;stroke-linejoin:round;stroke-miterlimit:4;stroke-dasharray:none;stroke-opacity:1" />
    </g>
    <path
       inkscape:connector-curvature="0"
       style="fill:none;stroke:url(#linearGradient3119);stroke-width:1.00000942;stroke-linecap:round;stroke-linejoin:round;stroke-miterlimit:4;stroke-dasharray:none;stroke-dashoffset:0;stroke-opacity:1"
       id="rect6741-1"
       d="m 57.780456,29.412025 -21,0 0,-27.0000002 21,0 z" />
  </g>
  <path
     inkscape:connector-curvature="0"
     style="color:#000000;display:inline;overflow:visible;visibility:visible;fill:#81d72c;fill-opacity:0.58823529;fill-rule:evenodd;stroke:#4e9a06;stroke-width:1;stroke-linecap:butt;stroke-linejoin:round;stroke-miterlimit:4;stroke-dasharray:none;stroke-dashoffset:0;stroke-opacity:1;marker:none;enable-background:accumulate"
     id="path3410"
     d="M 1.4999999,4.4999989 23.5,26.499998 l -22.0000001,0 z m 4.999959,12.0211451 0,4.978856 4.9788891,0 z" />
  <path
     inkscape:connector-curvature="0"
     style="opacity:0.5;fill:none;stroke:url(#linearGradient3167);stroke-width:1px;stroke-linecap:butt;stroke-linejoin:miter;stroke-opacity:1"
     id="path3981"
     d="m 2.4999589,6.8729342 c 0,6.3074758 0,12.3195918 0,18.6270658 6.307471,0 12.3195981,0 18.6270701,0 0,0 -18.6270701,-18.6270658 -18.6270701,-18.6270658 z" />
  <path
     inkscape:connector-curvature="0"
     style="opacity:0.5;fill:none;stroke:url(#linearGradient3164);stroke-width:0.99999988px;stroke-linecap:butt;stroke-linejoin:miter;stroke-opacity:1"
     id="path3981-5"
     d="m 5.4999589,14.521141 0,8.000007 7.3122231,0" />
  <path
     inkscape:connector-curvature="0"
     style="color:#000000;display:inline;overflow:visible;visibility:visible;opacity:0.15;fill:#000000;fill-opacity:1;stroke:none;stroke-width:2;marker:none;enable-background:accumulate"
     id="rect4034-50"
     d="m 1.9999589,7.0000001 1,0 0,0.6799992 -1,0 0,-0.6799992 z m 0,2.0399997 1,0 0,0.6800002 -1,0 0,-0.6800002 z m 0,2.0400002 1,0 0,0.679999 -1,0 0,-0.679999 z m 0,2.04 1,0 0,0.68 -1,0 0,-0.68 z m 0,2.039999 1,0 0,0.680001 -1,0 0,-0.680001 z m 0,2.040002 1,0 0,0.68 -1,0 0,-0.68 z m 0,2.039999 1,0 0,0.68 -1,0 0,-0.68 z m 0,2.040001 1,0 0,0.679999 -1,0 0,-0.679999 z m 0,2.039999 1,0 0,0.68 -1,0 0,-0.68 z" />
  <path
     inkscape:connector-curvature="0"
     style="color:#000000;display:inline;overflow:visible;visibility:visible;opacity:0.15;fill:#ffffff;fill-opacity:1;stroke:none;stroke-width:2;marker:none;enable-background:accumulate"
     id="rect4034-50-3"
     d="m 1.9999589,8.0000001 1,0 0,0.6800003 -1,0 0,-0.6800003 z m 0,2.0399999 1,0 0,0.68 -1,0 0,-0.68 z m 0,2.04 1,0 0,0.679999 -1,0 0,-0.679999 z m 0,2.04 1,0 0,0.680001 -1,0 0,-0.680001 z m 0,2.04 1,0 0,0.68 -1,0 0,-0.68 z m 0,2.04 1,0 0,0.68 -1,0 0,-0.68 z m 0,2.04 1,0 0,0.68 -1,0 0,-0.68 z m 0,2.04 1,0 0,0.68 -1,0 0,-0.68 z m 0,2.039999 1,0 0,0.680001 -1,0 0,-0.680001 z" />
  <path
     inkscape:connector-curvature="0"
     style="color:#000000;display:inline;overflow:visible;visibility:visible;opacity:0.15;fill:#000000;fill-opacity:1;stroke:none;stroke-width:2;marker:none;enable-background:accumulate"
     id="rect4034-50-5"
     d="m 19.999959,25 0,1 -0.653839,0 0,-1 0.653839,0 z m -1.961518,0 0,1 -0.653839,0 0,-1 0.653839,0 z m -1.961517,0 0,1 -0.65384,0 0,-1 0.65384,0 z m -1.961519,0 0,1 -0.653839,0 0,-1 0.653839,0 z m -1.961519,0 0,1 -0.653839,0 0,-1 0.653839,0 z m -1.961518,0 0,1 -0.6538389,0 0,-1 0.6538389,0 z m -1.9615174,0 0,1 -0.6538393,0 0,-1 0.6538393,0 z m -1.9615189,0 0,1 -0.6538392,0 0,-1 0.6538392,0 z m -1.9615178,0 0,1 -0.6538393,0 0,-1 0.6538393,0 z" />
  <path
     inkscape:connector-curvature="0"
     style="color:#000000;display:inline;overflow:visible;visibility:visible;opacity:0.15;fill:#ffffff;fill-opacity:1;stroke:none;stroke-width:2;marker:none;enable-background:accumulate"
     id="rect4034-50-3-7"
     d="m 19.345944,25 0,1 -0.653839,0 0,-1 0.653839,0 z m -1.961518,0 0,1 -0.65384,0 0,-1 0.65384,0 z m -1.961518,0 0,1 -0.653839,0 0,-1 0.653839,0 z m -1.961518,0 0,1 -0.65384,0 0,-1 0.65384,0 z m -1.961519,0 0,1 -0.65384,0 0,-1 0.65384,0 z m -1.9615173,0 0,1 -0.6538393,0 0,-1 0.6538393,0 z m -1.9615188,0 0,1 -0.6538393,0 0,-1 0.6538393,0 z m -1.9615179,0 0,1 -0.6538393,0 0,-1 0.6538393,0 z m -1.9615189,0 0,1 -0.6538392,0 0,-1 0.6538392,0 z" />
  <path
     inkscape:connector-curvature="0"
     style="opacity:0.3;fill:none;stroke:#85f619;stroke-width:1px;stroke-linecap:square;stroke-linejoin:miter;stroke-opacity:1"
     id="path3853"
     d="m 4.5,27.5 18.999958,0" />
</svg>
