<?xml version="1.0" encoding="UTF-8" standalone="no"?>
<!-- Created with Inkscape (http://www.inkscape.org/) -->

<svg
   xmlns:dc="http://purl.org/dc/elements/1.1/"
   xmlns:cc="http://creativecommons.org/ns#"
   xmlns:rdf="http://www.w3.org/1999/02/22-rdf-syntax-ns#"
   xmlns:svg="http://www.w3.org/2000/svg"
   xmlns="http://www.w3.org/2000/svg"
   xmlns:xlink="http://www.w3.org/1999/xlink"
   xmlns:sodipodi="http://sodipodi.sourceforge.net/DTD/sodipodi-0.dtd"
   xmlns:inkscape="http://www.inkscape.org/namespaces/inkscape"
   width="128"
   height="128"
   id="svg7725"
   version="1.1"
   inkscape:version="0.91 r13725"
   sodipodi:docname="amule_128.svg">
  <defs
     id="defs7727">
    <radialGradient
       inkscape:collect="always"
       xlink:href="#linearGradient6945-74-9"
       id="radialGradient7157-4"
       gradientUnits="userSpaceOnUse"
       gradientTransform="matrix(2.752045,0,0,1.0404795,-46.159969,582.33666)"
       cx="170.58949"
       cy="50.677525"
       fx="170.58949"
       fy="50.677525"
       r="7.4246206" />
    <linearGradient
       inkscape:collect="always"
       id="linearGradient6945-74-9">
      <stop
         style="stop-color:#000000;stop-opacity:1;"
         offset="0"
         id="stop6947-2-3" />
      <stop
         style="stop-color:#000000;stop-opacity:0;"
         offset="1"
         id="stop6949-7-5" />
    </linearGradient>
    <linearGradient
       inkscape:collect="always"
       xlink:href="#linearGradient7343"
       id="linearGradient7159-7"
       gradientUnits="userSpaceOnUse"
       gradientTransform="matrix(2.6615094,0,0,2.6601328,-31.575266,505.23643)"
       x1="157.5466"
       y1="40.948475"
       x2="157.5466"
       y2="8.2586107" />
    <linearGradient
       id="linearGradient7343">
      <stop
         id="stop7345"
         offset="0"
         style="stop-color:#388ccc;stop-opacity:1;" />
      <stop
         id="stop7347"
         offset="1"
         style="stop-color:#78b1dc;stop-opacity:1;" />
    </linearGradient>
    <linearGradient
       inkscape:collect="always"
       xlink:href="#linearGradient6977-6-16"
       id="linearGradient7161-24"
       gradientUnits="userSpaceOnUse"
       x1="156.71875"
       y1="-10.294855"
       x2="156.71875"
       y2="51.989662" />
    <linearGradient
       inkscape:collect="always"
       id="linearGradient6977-6-16">
      <stop
         style="stop-color:#ffffff;stop-opacity:1;"
         offset="0"
         id="stop6979-0-2" />
      <stop
         style="stop-color:#ffffff;stop-opacity:0;"
         offset="1"
         id="stop6981-0-9" />
    </linearGradient>
    <radialGradient
       r="7.4246206"
       fy="50.677525"
       fx="170.58949"
       cy="50.677525"
       cx="170.58949"
       gradientTransform="matrix(5.1781057,0,0,1.0404795,-511.485,582.33666)"
       gradientUnits="userSpaceOnUse"
       id="radialGradient7286"
       xlink:href="#linearGradient6945-7-7-7"
       inkscape:collect="always" />
    <linearGradient
       inkscape:collect="always"
       id="linearGradient6945-7-7-7">
      <stop
         style="stop-color:#000000;stop-opacity:1;"
         offset="0"
         id="stop6947-5-6-7" />
      <stop
         style="stop-color:#000000;stop-opacity:0;"
         offset="1"
         id="stop6949-9-2-2" />
    </linearGradient>
    <linearGradient
       inkscape:collect="always"
       xlink:href="#linearGradient6977-6-16"
       id="linearGradient4276"
       x1="244.21265"
       y1="535.44897"
       x2="244.24641"
       y2="649.73474"
       gradientUnits="userSpaceOnUse"
       gradientTransform="translate(146.1692,-12.368515)" />
  </defs>
  <sodipodi:namedview
     id="base"
     pagecolor="#ffffff"
     bordercolor="#666666"
     borderopacity="1.0"
     inkscape:pageopacity="0"
     inkscape:pageshadow="2"
     inkscape:zoom="4.1562501"
     inkscape:cx="-7.1022039"
     inkscape:cy="50.506902"
     inkscape:document-units="px"
     inkscape:current-layer="layer1"
     showgrid="false"
     fit-margin-top="0"
     fit-margin-left="0"
     fit-margin-right="0"
     fit-margin-bottom="0"
     inkscape:window-width="1366"
     inkscape:window-height="705"
     inkscape:window-x="0"
     inkscape:window-y="30"
     inkscape:window-maximized="1" />
  <metadata
     id="metadata7730">
    <rdf:RDF>
      <cc:Work
         rdf:about="">
        <dc:format>image/svg+xml</dc:format>
        <dc:type
           rdf:resource="http://purl.org/dc/dcmitype/StillImage" />
        <dc:title />
      </cc:Work>
    </rdf:RDF>
  </metadata>
  <g
     inkscape:label="Capa 1"
     inkscape:groupmode="layer"
     id="layer1"
     transform="translate(-324.57144,-519.79077)">
    <path
       sodipodi:type="inkscape:offset"
       inkscape:radius="-0.45353532"
       inkscape:original="M 166.71875 6.96875 C 163.47408 6.96875 160.84375 9.599077 160.84375 12.84375 C 160.84375 13.89201 161.11265 14.866714 161.59375 15.71875 L 155.15625 22.15625 C 153.99461 21.684079 152.73745 21.40625 151.40625 21.40625 C 149.68036 21.40625 148.04193 21.855276 146.625 22.625 L 144.9375 16.34375 C 145.45489 15.761092 145.78125 14.996762 145.78125 14.15625 C 145.78125 12.33371 144.29129 10.875 142.46875 10.875 C 140.64621 10.875 139.1875 12.33371 139.1875 14.15625 C 139.1875 15.783225 140.35702 17.134839 141.90625 17.40625 L 143.90625 24.8125 C 142.35262 26.574792 141.40625 28.872217 141.40625 31.40625 C 141.40625 36.929097 145.8834 41.40625 151.40625 41.40625 C 154.46588 41.40625 157.19693 40.039729 159.03125 37.875 L 164.09375 40.8125 C 163.96041 41.352137 163.90625 41.919172 163.90625 42.5 C 163.90625 46.365993 167.04026 49.5 170.90625 49.5 C 174.77224 49.5 177.90625 46.365993 177.90625 42.5 C 177.90625 38.634007 174.77224 35.5 170.90625 35.5 C 168.77226 35.5 166.84644 36.462915 165.5625 37.96875 L 160.6875 35.15625 C 161.15269 34.002007 161.40625 32.72704 161.40625 31.40625 C 161.40625 28.388079 160.05165 25.708536 157.9375 23.875 L 163.84375 17.96875 C 164.69052 18.44191 165.67983 18.71875 166.71875 18.71875 C 169.96342 18.71875 172.59375 16.088423 172.59375 12.84375 C 172.59375 9.599077 169.96342 6.96875 166.71875 6.96875 z "
       style="color:#000000;display:inline;overflow:visible;visibility:visible;opacity:0.98999999;fill:none;stroke:url(#linearGradient7161-24);stroke-width:0.37582383;stroke-linecap:round;stroke-linejoin:round;stroke-miterlimit:4;stroke-dasharray:none;stroke-dashoffset:0;stroke-opacity:1;marker:none;enable-background:accumulate"
       id="path6975-5-2"
       d="m 166.71875,7.421875 c -2.99956,0 -5.42187,2.4223109 -5.42187,5.421875 0,0.970699 0.24754,1.866256 0.6914,2.652344 a 0.45358067,0.45358067 0 0 1 -0.0742,0.542968 l -6.4375,6.4375 a 0.45358067,0.45358067 0 0 1 -0.49023,0.09961 c -1.11339,-0.452559 -2.31198,-0.716797 -3.58008,-0.716797 -1.64723,0 -3.21138,0.429025 -4.56445,1.164063 a 0.45358067,0.45358067 0 0 1 -0.6543,-0.28125 L 144.5,16.460938 a 0.45358067,0.45358067 0 0 1 0.0977,-0.417969 c 0.44951,-0.506214 0.73046,-1.163608 0.73046,-1.886719 0,-1.575358 -1.27883,-2.828125 -2.85937,-2.828125 -1.58054,0 -2.82813,1.247583 -2.82813,2.828125 0,1.409632 1.0084,2.568793 2.34376,2.802734 a 0.45358067,0.45358067 0 0 1 0.35937,0.328125 l 2,7.40625 a 0.45358067,0.45358067 0 0 1 -0.0977,0.419922 c -1.48474,1.684153 -2.38671,3.871855 -2.38671,6.292969 0,5.277738 4.26913,9.546875 9.54687,9.546875 2.92459,0 5.52766,-1.303937 7.2793,-3.371094 a 0.45358067,0.45358067 0 0 1 0.57422,-0.09961 l 5.0625,2.9375 a 0.45358067,0.45358067 0 0 1 0.21093,0.501953 c -0.12245,0.495576 -0.17383,1.025491 -0.17382,1.578125 0,3.620884 2.92599,6.546875 6.54687,6.546875 3.62088,0 6.54687,-2.925991 6.54687,-6.546875 0,-3.620884 -2.92599,-6.546875 -6.54687,-6.546875 -1.99756,0 -3.79745,0.902455 -4.99805,2.310547 a 0.45358067,0.45358067 0 0 1 -0.57226,0.09766 l -4.875,-2.8125 a 0.45358067,0.45358067 0 0 1 -0.19336,-0.5625 c 0.44326,-1.09984 0.68554,-2.317333 0.68554,-3.580078 0,-2.882469 -1.29113,-5.436388 -3.3125,-7.189453 a 0.45358067,0.45358067 0 0 1 -0.0234,-0.662109 l 5.90625,-5.90625 a 0.45358067,0.45358067 0 0 1 0.54101,-0.07617 c 0.78122,0.43653 1.69595,0.693359 2.6543,0.693359 2.99956,0 5.42187,-2.422311 5.42187,-5.421875 0,-2.9995641 -2.42231,-5.421875 -5.42187,-5.421875 z"
       transform="matrix(1.402446,0,0,1.4017206,-187.77429,129.27208)" />
    <ellipse
       ry="7.7251658"
       rx="20.43289"
       cy="635.06561"
       cx="423.31"
       style="color:#000000;display:inline;overflow:visible;visibility:visible;opacity:0.3;fill:url(#radialGradient7157-4);fill-opacity:1;fill-rule:nonzero;stroke:none;stroke-width:1;marker:none;enable-background:accumulate"
       id="path6943-2-0" />
    <path
       style="color:#000000;display:inline;overflow:visible;visibility:visible;opacity:1;fill:url(#linearGradient7159-7);fill-opacity:1;fill-rule:nonzero;stroke:none;stroke-width:1;stroke-linecap:round;stroke-linejoin:round;stroke-miterlimit:4;stroke-dasharray:none;stroke-dashoffset:0;stroke-opacity:1;marker:none;enable-background:accumulate"
       d="m 412.14826,523.77423 c -8.63569,0 -15.63637,6.99701 -15.63637,15.62826 0,2.78853 0.71567,5.38137 1.99615,7.64791 l -17.13348,17.12459 c -3.0917,-1.25602 -6.43765,-1.9951 -9.98065,-1.9951 -4.59346,0 -8.95418,1.19447 -12.72536,3.24204 l -4.49128,-16.70896 c 1.37702,-1.54994 2.24564,-3.58315 2.24564,-5.81903 0,-4.84822 -3.96554,-8.72855 -8.81624,-8.72855 -4.8507,0 -8.73309,3.88033 -8.73309,8.72855 0,4.32798 3.11267,7.92342 7.236,8.64542 l 5.323,19.70161 c -4.13498,4.68794 -6.65414,10.79938 -6.65414,17.54026 0,14.69151 11.91635,26.60154 26.61547,26.60154 8.14324,0 15.41195,-3.63533 20.29398,-9.39381 l 13.47391,7.81415 c -0.35486,1.43551 -0.49902,2.94389 -0.49902,4.48897 0,10.28405 8.34118,18.62092 18.63055,18.62092 10.28938,0 18.63056,-8.33687 18.63056,-18.62092 0,-10.28407 -8.34118,-18.62094 -18.63056,-18.62094 -5.67963,0 -10.80522,2.56148 -14.22244,6.5672 l -12.97485,-7.48162 c 1.23812,-3.07043 1.9134,-6.46201 1.9134,-9.97549 0,-8.02874 -3.60573,-15.15669 -9.23256,-20.03411 l 15.71955,-15.71143 c 2.25366,1.25866 4.88675,1.99512 7.65183,1.99512 8.63573,0 15.63637,-6.99703 15.63637,-15.62832 0,-8.63125 -7.00064,-15.62826 -15.63637,-15.62826 z"
       id="path6667-7-7"
       inkscape:connector-curvature="0"
       sodipodi:nodetypes="ssccsccsssccssccssssccsccsss" />
    <ellipse
       ry="7.7251658"
       rx="38.445469"
       cy="635.06561"
       cx="371.84543"
       style="color:#000000;display:inline;overflow:visible;visibility:visible;opacity:0.15;fill:url(#radialGradient7286);fill-opacity:1;fill-rule:nonzero;stroke:none;stroke-width:1;marker:none;enable-background:accumulate"
       id="path6943-0-8-3" />
    <path
       style="color:#000000;display:inline;overflow:visible;visibility:visible;opacity:0.6;fill:none;fill-opacity:1;fill-rule:nonzero;stroke:#255f8f;stroke-width:1;stroke-linecap:round;stroke-linejoin:round;stroke-miterlimit:4;stroke-dasharray:none;stroke-dashoffset:0;stroke-opacity:1;marker:none;enable-background:accumulate"
       d="m 412.14812,523.774 c -8.63569,0 -15.63637,6.99701 -15.63637,15.62826 0,2.78853 0.71567,5.38137 1.99615,7.64791 l -17.13348,17.12459 c -3.0917,-1.25602 -6.43765,-1.9951 -9.98065,-1.9951 -4.59346,0 -8.95418,1.19447 -12.72536,3.24204 l -4.49128,-16.70896 c 1.37702,-1.54994 2.24564,-3.58315 2.24564,-5.81903 0,-4.84822 -3.96554,-8.72855 -8.81624,-8.72855 -4.8507,0 -8.73309,3.88033 -8.73309,8.72855 0,4.32798 3.11267,7.92342 7.236,8.64542 l 5.323,19.70161 c -4.13498,4.68794 -6.65375,10.79938 -6.65375,17.54026 0,14.69151 11.91596,26.60131 26.61508,26.60131 8.14324,0 15.41195,-3.6351 20.29398,-9.39358 l 13.47391,7.81415 c -0.35486,1.43551 -0.49902,2.94389 -0.49902,4.48897 0,10.28405 8.34118,18.62092 18.63055,18.62092 10.28938,0 18.63056,-8.33687 18.63056,-18.62092 0,-10.28407 -8.34118,-18.62094 -18.63056,-18.62094 -5.67963,0 -10.80522,2.56148 -14.22244,6.5672 l -12.97485,-7.48162 c 1.23812,-3.07043 1.91296,-6.46201 1.91296,-9.97549 0,-8.02874 -3.60529,-15.15669 -9.23212,-20.03411 l 15.71955,-15.71143 c 2.25366,1.25866 4.88675,1.99512 7.65183,1.99512 8.63573,0 15.63637,-6.99703 15.63637,-15.62832 0,-8.63125 -7.00064,-15.62826 -15.63637,-15.62826 z"
       id="path6667-7-7-2"
       inkscape:connector-curvature="0" />
    <path
       style="color:#000000;display:inline;overflow:visible;visibility:visible;opacity:0.6;fill:none;fill-opacity:1;fill-rule:nonzero;stroke:url(#linearGradient4276);stroke-width:1;stroke-linecap:round;stroke-linejoin:round;stroke-miterlimit:4;stroke-dasharray:none;stroke-dashoffset:0;stroke-opacity:1;marker:none;enable-background:accumulate"
       d="m 412.14776,524.77428 c -8.09552,0 -14.63672,6.53838 -14.63672,14.62891 1e-5,2.61743 0.66888,5.03514 1.86719,7.15625 a 1.0001,1.0001 0 0 1 -0.16407,1.19922 l -17.13281,17.125 a 1.0001,1.0001 0 0 1 -1.08398,0.21875 c -2.98534,-1.21282 -6.19959,-1.92188 -9.60352,-1.92188 -4.4201,0 -8.61764,1.14996 -12.24805,3.1211 a 1.0001,1.0001 0 0 1 -1.44336,-0.61914 l -4.49023,-16.70899 a 1.0001,1.0001 0 0 1 0.2168,-0.92383 c 1.2273,-1.38142 1.99414,-3.17741 1.99414,-5.15429 0,-4.30293 -3.49901,-7.72852 -7.81641,-7.72852 -4.31741,0 -7.73242,3.41415 -7.73242,7.72852 0,3.84851 2.75621,7.02069 6.4082,7.66015 a 1.0001,1.0001 0 0 1 0.79297,0.72266 l 5.32227,19.70312 a 1.0001,1.0001 0 0 1 -0.21485,0.92188 c -3.98304,4.51568 -6.40429,10.38712 -6.40429,16.8789 0,14.15079 11.45627,25.60157 25.61523,25.60157 7.84564,0 14.83159,-3.49765 19.53125,-9.04102 a 1.0001,1.0001 0 0 1 1.26367,-0.21875 l 13.47461,7.81445 a 1.0001,1.0001 0 0 1 0.46875,1.10547 c -0.33084,1.33834 -0.46875,2.76517 -0.46875,4.24805 0,9.74333 7.8797,17.62109 17.62891,17.62109 9.74921,0 17.63086,-7.87776 17.63086,-17.62109 0,-9.74335 -7.88165,-17.62109 -17.63086,-17.62109 -5.37897,0 -10.22755,2.42656 -13.46094,6.21679 a 1.0001,1.0001 0 0 1 -1.25977,0.2168 l -12.9746,-7.48047 a 1.0001,1.0001 0 0 1 -0.42774,-1.24023 c 1.18973,-2.95044 1.83984,-6.21614 1.83984,-9.60157 0,-7.72938 -3.4645,-14.57924 -8.88671,-19.27929 a 1.0001,1.0001 0 0 1 -0.0527,-1.46289 l 15.72071,-15.71094 a 1.0001,1.0001 0 0 1 1.19335,-0.16602 c 2.10914,1.17795 4.57656,1.86914 7.16407,1.86914 8.09557,0 14.63672,-6.53833 14.63672,-14.6289 0,-8.09053 -6.54115,-14.62891 -14.63672,-14.62891 z"
       id="path6667-7-7-6"
       inkscape:connector-curvature="0" />
    <text
       xml:space="preserve"
       style="font-style:normal;font-variant:normal;font-weight:bold;font-stretch:normal;font-size:47.44596481px;line-height:125%;font-family:'Droid Sans';-inkscape-font-specification:'Droid Sans Bold';letter-spacing:0px;word-spacing:0px;display:inline;fill:#ffffff;fill-opacity:1;stroke:none;enable-background:new"
       x="356.13629"
       y="601.86835"
       id="text6939-0-1"
       sodipodi:linespacing="125%"
       transform="scale(1.0002554,0.99974471)"><tspan
         sodipodi:role="line"
         id="tspan6941-1-5"
         x="356.13629"
         y="601.86835">a</tspan></text>
  </g>
</svg>
