<?xml version="1.0" encoding="UTF-8" standalone="no"?>
<svg
   xmlns:dc="http://purl.org/dc/elements/1.1/"
   xmlns:cc="http://creativecommons.org/ns#"
   xmlns:rdf="http://www.w3.org/1999/02/22-rdf-syntax-ns#"
   xmlns:svg="http://www.w3.org/2000/svg"
   xmlns="http://www.w3.org/2000/svg"
   xmlns:xlink="http://www.w3.org/1999/xlink"
   xmlns:sodipodi="http://sodipodi.sourceforge.net/DTD/sodipodi-0.dtd"
   xmlns:inkscape="http://www.inkscape.org/namespaces/inkscape"
   version="1.1"
   width="128"
   height="128"
   id="svg6649"
   inkscape:version="1.0.1 (1.0.1+r75)"
   sodipodi:docname="inkscape_128.svg"
   inkscape:export-filename="/home/francisco/Documents/brackets.png"
   inkscape:export-xdpi="90"
   inkscape:export-ydpi="90">
  <sodipodi:namedview
     pagecolor="#ffffff"
     bordercolor="#666666"
     borderopacity="1"
     objecttolerance="10"
     gridtolerance="10"
     guidetolerance="10"
     inkscape:pageopacity="0"
     inkscape:pageshadow="2"
     inkscape:window-width="1366"
     inkscape:window-height="705"
     id="namedview108"
     showgrid="true"
     showguides="false"
     inkscape:guide-bbox="true"
     inkscape:zoom="15.6742"
     inkscape:cx="65.929758"
     inkscape:cy="10.48804"
     inkscape:window-x="0"
     inkscape:window-y="30"
     inkscape:window-maximized="1"
     inkscape:current-layer="g999"
     inkscape:document-rotation="0"
     inkscape:snap-intersection-paths="true"
     inkscape:snap-bbox="true"
     inkscape:snap-global="true"
     inkscape:bbox-nodes="true"
     inkscape:object-paths="true"
     inkscape:snap-smooth-nodes="true"
     inkscape:snap-midpoints="true">
    <sodipodi:guide
       position="14.418599,-16.332572"
       orientation="1,0"
       id="guide4198"
       inkscape:locked="false" />
    <sodipodi:guide
       position="23.246135,43.045125"
       orientation="0,1"
       id="guide4200"
       inkscape:locked="false" />
    <sodipodi:guide
       position="28.107495,3.0052038"
       orientation="0,1"
       id="guide4202"
       inkscape:locked="false" />
    <sodipodi:guide
       position="44.017397,15.291184"
       orientation="1,0"
       id="guide4204"
       inkscape:locked="false" />
    <inkscape:grid
       type="xygrid"
       id="grid1016" />
  </sodipodi:namedview>
  <defs
     id="defs6651">
    <linearGradient
       id="linearGradient1293">
      <stop
         offset="0"
         style="stop-color:#ffffff;stop-opacity:1"
         id="stop1285" />
      <stop
         offset="0.32808125"
         style="stop-color:#ffffff;stop-opacity:0.23529412"
         id="stop1287" />
      <stop
         offset="0.85133189"
         style="stop-color:#ffffff;stop-opacity:0.15686275"
         id="stop1289" />
      <stop
         offset="1"
         style="stop-color:#ffffff;stop-opacity:0.39215687"
         id="stop1291" />
    </linearGradient>
    <linearGradient
       x1="23.99999"
       y1="4.999989"
       x2="23.99999"
       y2="43"
       id="linearGradient3058"
       xlink:href="#linearGradient3924-1"
       gradientUnits="userSpaceOnUse"
       gradientTransform="translate(4e-6,1.000006)" />
    <linearGradient
       id="linearGradient3924-1">
      <stop
         id="stop3926-3"
         style="stop-color:#ffffff;stop-opacity:1"
         offset="0" />
      <stop
         id="stop3928-91"
         style="stop-color:#ffffff;stop-opacity:0.23529412"
         offset="0.06316455" />
      <stop
         id="stop3930-6"
         style="stop-color:#ffffff;stop-opacity:0.15686275"
         offset="0.95056331" />
      <stop
         id="stop3932-6"
         style="stop-color:#ffffff;stop-opacity:0.39215687"
         offset="1" />
    </linearGradient>
    <radialGradient
       cx="6.7304144"
       cy="9.9571075"
       r="12.671875"
       fx="6.2001843"
       fy="9.9571075"
       id="radialGradient5521-1"
       xlink:href="#linearGradient2867-449-88-871-390-598-476-591-434-148-57-177-8-3-3-6-4-8-8-8"
       gradientUnits="userSpaceOnUse"
       gradientTransform="matrix(0,9.4975523,-11.65996,0,140.93055,-79.160978)" />
    <linearGradient
       id="linearGradient2867-449-88-871-390-598-476-591-434-148-57-177-8-3-3-6-4-8-8-8">
      <stop
         id="stop3750-1-0-7-6-6-1-3-9"
         style="stop-color:#29abe2;stop-opacity:1"
         offset="0" />
      <stop
         id="stop3752-3-7-4-0-32-8-923-0"
         style="stop-color:#28aae1;stop-opacity:1"
         offset="0.26238" />
      <stop
         id="stop3754-1-8-5-2-7-6-7-1"
         style="stop-color:#1d99d6;stop-opacity:1"
         offset="0.704952" />
      <stop
         id="stop3756-1-6-2-6-6-1-96-6"
         style="stop-color:#0274bd;stop-opacity:1"
         offset="1" />
    </linearGradient>
    <radialGradient
       cx="4.9929786"
       cy="43.5"
       r="2.5"
       fx="4.9929786"
       fy="43.5"
       id="radialGradient3013"
       xlink:href="#linearGradient3688-166-749"
       gradientUnits="userSpaceOnUse"
       gradientTransform="matrix(2.003784,0,0,1.4,27.98813,-17.4)" />
    <linearGradient
       id="linearGradient3688-166-749">
      <stop
         id="stop2883"
         style="stop-color:#181818;stop-opacity:1"
         offset="0" />
      <stop
         id="stop2885"
         style="stop-color:#181818;stop-opacity:0"
         offset="1" />
    </linearGradient>
    <radialGradient
       cx="4.9929786"
       cy="43.5"
       r="2.5"
       fx="4.9929786"
       fy="43.5"
       id="radialGradient3015"
       xlink:href="#linearGradient3688-464-309"
       gradientUnits="userSpaceOnUse"
       gradientTransform="matrix(2.003784,0,0,1.4,-20.01187,-104.4)" />
    <linearGradient
       id="linearGradient3688-464-309">
      <stop
         id="stop2889"
         style="stop-color:#181818;stop-opacity:1"
         offset="0" />
      <stop
         id="stop2891"
         style="stop-color:#181818;stop-opacity:0"
         offset="1" />
    </linearGradient>
    <linearGradient
       id="linearGradient3702-501-757">
      <stop
         id="stop2895"
         style="stop-color:#181818;stop-opacity:0"
         offset="0" />
      <stop
         id="stop2897"
         style="stop-color:#181818;stop-opacity:1"
         offset="0.5" />
      <stop
         id="stop2899"
         style="stop-color:#181818;stop-opacity:0"
         offset="1" />
    </linearGradient>
    <linearGradient
       x1="25.058096"
       y1="47.027729"
       x2="25.058096"
       y2="39.999443"
       id="linearGradient6647"
       xlink:href="#linearGradient3702-501-757"
       gradientUnits="userSpaceOnUse" />
    <radialGradient
       id="radialGradient3045"
       gradientUnits="userSpaceOnUse"
       cy="8.4497995"
       cx="11.546"
       gradientTransform="matrix(1.9428e-8,2.337,-2.4723,-4.3056e-8,-1.9838257,-17.370857)"
       r="20">
      <stop
         id="stop3750-6-3-7-0-5-3-5-7"
         stop-color="#a0a0a0"
         offset="0" />
      <stop
         id="stop3752-3-7-7-6-4-4-3-4"
         stop-color="#a0a0a0"
         offset=".26238" />
      <stop
         id="stop3754-1-7-4-6-36-7-7-2-4"
         stop-color="#8e8e8e"
         offset=".70495" />
      <stop
         id="stop3756-7-5-7-1-4-3-1-7"
         stop-color="#666"
         offset="1" />
    </radialGradient>
    <linearGradient
       id="linearGradient3037"
       y2="43"
       gradientUnits="userSpaceOnUse"
       x2="24"
       gradientTransform="translate(-46.873822,-4.9358576)"
       y1="5"
       x1="24">
      <stop
         id="stop3926-2-0"
         stop-color="#fff"
         offset="0" />
      <stop
         id="stop3928-2-0"
         stop-color="#fff"
         stop-opacity=".23529"
         offset=".063165" />
      <stop
         id="stop3930-6-1"
         stop-color="#fff"
         stop-opacity=".15686"
         offset=".95056" />
      <stop
         id="stop3932-1-6"
         stop-color="#fff"
         stop-opacity=".39216"
         offset="1" />
    </linearGradient>
    <radialGradient
       gradientTransform="matrix(2.003784,0,0,1.4,27.98813,-17.4)"
       gradientUnits="userSpaceOnUse"
       xlink:href="#linearGradient3688-166-749"
       id="radialGradient3013-896"
       fy="43.5"
       fx="4.9929786"
       r="2.5"
       cy="43.5"
       cx="4.9929786" />
    <radialGradient
       gradientTransform="matrix(2.003784,0,0,1.4,-20.01187,-104.4)"
       gradientUnits="userSpaceOnUse"
       xlink:href="#linearGradient3688-166-749"
       id="radialGradient3015-826"
       fy="43.5"
       fx="4.9929786"
       r="2.5"
       cy="43.5"
       cx="4.9929786" />
    <radialGradient
       gradientTransform="matrix(0,9.4975523,-11.65996,0,140.93055,-79.160972)"
       gradientUnits="userSpaceOnUse"
       xlink:href="#radialGradient3045"
       id="radialGradient4144"
       fy="9.9571075"
       fx="6.2001843"
       r="12.671875"
       cy="9.9571075"
       cx="6.7304144" />
    <linearGradient
       id="linearGradient2867-449-88-871-390-598-476-591-434-148-57-177-8-3-3-6-4-8-8-8-5">
      <stop
         offset="0"
         style="stop-color:#919caf;stop-opacity:1"
         id="stop3750-1-0-7-6-6-1-3-9-3" />
      <stop
         offset="0.26238"
         style="stop-color:#68758e;stop-opacity:1"
         id="stop3752-3-7-4-0-32-8-923-0-7" />
      <stop
         offset="0.704952"
         style="stop-color:#485a6c;stop-opacity:1"
         id="stop3754-1-8-5-2-7-6-7-1-9" />
      <stop
         offset="1"
         style="stop-color:#444c5c;stop-opacity:1"
         id="stop3756-1-6-2-6-6-1-96-6-0" />
    </linearGradient>
    <linearGradient
       gradientTransform="translate(1.17e-5,1.00001)"
       gradientUnits="userSpaceOnUse"
       xlink:href="#linearGradient4187"
       id="linearGradient3153"
       y2="41.890972"
       x2="23.99999"
       y1="6.1111298"
       x1="23.99999" />
    <linearGradient
       id="linearGradient4187">
      <stop
         offset="0"
         style="stop-color:#ffffff;stop-opacity:1"
         id="stop4189" />
      <stop
         offset="0.02099473"
         style="stop-color:#ffffff;stop-opacity:0.23529412"
         id="stop4191" />
      <stop
         offset="0.97696"
         style="stop-color:#ffffff;stop-opacity:0.15686275"
         id="stop4193" />
      <stop
         offset="1"
         style="stop-color:#ffffff;stop-opacity:0.39215687"
         id="stop4195" />
    </linearGradient>
    <radialGradient
       xlink:href="#linearGradient4632-92-3-0-8-1-6"
       id="radialGradient3857-4"
       gradientUnits="userSpaceOnUse"
       gradientTransform="matrix(0,1.3556539,-1.3556538,0,-3.5195225,32.66473)"
       cx="31.999998"
       cy="4.3419166"
       fx="31.999998"
       fy="4.3419166"
       r="27.5" />
    <linearGradient
       id="linearGradient4632-92-3-0-8-1-6">
      <stop
         offset="0"
         style="stop-color:#fafafa;stop-opacity:1"
         id="stop4634-68-8-0-2-9-1" />
      <stop
         offset="1"
         style="stop-color:#e1e1e1;stop-opacity:1"
         id="stop4636-8-21-7-1-4-9" />
    </linearGradient>
    <linearGradient
       id="linearGradient4187-3">
      <stop
         id="stop4189-6"
         style="stop-color:#ffffff;stop-opacity:1"
         offset="0" />
      <stop
         id="stop4191-7"
         style="stop-color:#ffffff;stop-opacity:0.23529412"
         offset="0.39678979" />
      <stop
         id="stop4193-5"
         style="stop-color:#ffffff;stop-opacity:0.15686275"
         offset="0.80866116" />
      <stop
         id="stop4195-3"
         style="stop-color:#ffffff;stop-opacity:0.39215687"
         offset="1" />
    </linearGradient>
    <radialGradient
       cx="4.0537825"
       cy="7.2024441"
       r="12.671875"
       fx="4.0537825"
       fy="7.2024441"
       id="radialGradient4144-5"
       xlink:href="#linearGradient4223"
       gradientUnits="userSpaceOnUse"
       gradientTransform="matrix(-4.9969575,4.9737677,-6.6013951,-6.6321732,27.06578,54.925599)" />
    <linearGradient
       id="linearGradient4223">
      <stop
         offset="0"
         style="stop-color:#cdf87e;stop-opacity:1"
         id="stop4225" />
      <stop
         offset="0.26238"
         style="stop-color:#a2e34f;stop-opacity:1"
         id="stop4227" />
      <stop
         offset="0.66093999"
         style="stop-color:#68b723;stop-opacity:1"
         id="stop4229" />
      <stop
         offset="1"
         style="stop-color:#1d7e0d;stop-opacity:1"
         id="stop4231" />
    </linearGradient>
    <radialGradient
       gradientTransform="matrix(3.7102089,0,0,0.95427648,-99.392668,0.92810054)"
       gradientUnits="userSpaceOnUse"
       xlink:href="#linearGradient3966"
       id="radialGradient4284-8"
       fy="44.129044"
       fx="23.668133"
       r="6.0999999"
       cy="44.129044"
       cx="23.668133" />
    <linearGradient
       id="linearGradient3966">
      <stop
         offset="0"
         style="stop-color:#000000;stop-opacity:1"
         id="stop3968" />
      <stop
         offset="1"
         style="stop-color:#000000;stop-opacity:0"
         id="stop3970" />
    </linearGradient>
    <radialGradient
       gradientTransform="matrix(1.3962496,0,0,0.46382834,-44.625568,23.672677)"
       gradientUnits="userSpaceOnUse"
       xlink:href="#linearGradient3966"
       id="radialGradient4284"
       fy="44.129044"
       fx="23.668133"
       r="6.0999999"
       cy="44.129044"
       cx="23.668133" />
    <radialGradient
       cx="6.952919"
       cy="9.9571075"
       r="12.671875"
       fx="6.952919"
       fy="9.9571075"
       id="radialGradient3988-3"
       xlink:href="#linearGradient2867-449-88-871-390-598-476-591-434-148-57-177-8-3-3-6-4-8-8-8-5-7-8"
       gradientUnits="userSpaceOnUse"
       gradientTransform="matrix(0,5.9380335,-7.2900091,0,125.3884,-4.7238604)" />
    <linearGradient
       id="linearGradient2867-449-88-871-390-598-476-591-434-148-57-177-8-3-3-6-4-8-8-8-5-7-8">
      <stop
         id="stop3750-1-0-7-6-6-1-3-9-3-9-2"
         style="stop-color:#404648;stop-opacity:1"
         offset="0" />
      <stop
         id="stop3754-1-8-5-2-7-6-7-1-9-1-0"
         style="stop-color:#0c1011;stop-opacity:1"
         offset="1" />
    </linearGradient>
    <linearGradient
       inkscape:collect="always"
       xlink:href="#linearGradient1187"
       id="linearGradient1227"
       x1="24.547327"
       y1="3.1117997"
       x2="24.572535"
       y2="45.029667"
       gradientUnits="userSpaceOnUse"
       gradientTransform="matrix(2.4178357,0,0,2.4779943,5.1729634,6.2891495)" />
    <linearGradient
       x1="23.99999"
       y1="6.0315123"
       x2="23.99999"
       y2="41.934097"
       id="linearGradient3024"
       xlink:href="#linearGradient3895"
       gradientUnits="userSpaceOnUse"
       gradientTransform="translate(22.375933,41.864668)" />
    <linearGradient
       id="linearGradient3895">
      <stop
         id="stop3897"
         style="stop-color:#ffffff;stop-opacity:1"
         offset="0" />
      <stop
         id="stop3899"
         style="stop-color:#ffffff;stop-opacity:0.23529412"
         offset="0.03030945" />
      <stop
         id="stop3901"
         style="stop-color:#ffffff;stop-opacity:0.15686275"
         offset="0.97833663" />
      <stop
         id="stop3903"
         style="stop-color:#ffffff;stop-opacity:0.39215687"
         offset="1" />
    </linearGradient>
    <radialGradient
       gradientTransform="matrix(3.7102089,0,0,0.95427648,-99.392668,0.92810054)"
       gradientUnits="userSpaceOnUse"
       xlink:href="#linearGradient3966"
       id="radialGradient4284-8-3"
       fy="44.129044"
       fx="23.668133"
       r="6.0999999"
       cy="44.129044"
       cx="23.668133" />
    <radialGradient
       gradientTransform="matrix(1.3962496,0,0,0.46382834,-44.625568,23.672677)"
       gradientUnits="userSpaceOnUse"
       xlink:href="#linearGradient3966"
       id="radialGradient4284-5"
       fy="44.129044"
       fx="23.668133"
       r="6.0999999"
       cy="44.129044"
       cx="23.668133" />
    <radialGradient
       gradientTransform="matrix(3.7102089,0,0,0.95427648,-99.392668,0.92810054)"
       gradientUnits="userSpaceOnUse"
       xlink:href="#linearGradient3966"
       id="radialGradient4284-8-5"
       fy="44.129044"
       fx="23.668133"
       r="6.0999999"
       cy="44.129044"
       cx="23.668133" />
    <radialGradient
       gradientTransform="matrix(1.3962496,0,0,0.46382834,-44.625568,23.672677)"
       gradientUnits="userSpaceOnUse"
       xlink:href="#linearGradient3966"
       id="radialGradient4284-9"
       fy="44.129044"
       fx="23.668133"
       r="6.0999999"
       cy="44.129044"
       cx="23.668133" />
    <linearGradient
       id="linearGradient1187">
      <stop
         id="stop1183"
         style="stop-color:#7e8087;stop-opacity:1"
         offset="0" />
      <stop
         id="stop1185"
         style="stop-color:#000000;stop-opacity:1"
         offset="1" />
    </linearGradient>
    <linearGradient
       inkscape:collect="always"
       xlink:href="#linearGradient1293"
       id="linearGradient983"
       x1="-80.47657"
       y1="39.00808"
       x2="-80.47657"
       y2="142.01233"
       gradientUnits="userSpaceOnUse"
       gradientTransform="translate(145.00093,-25.007909)" />
  </defs>
  <metadata
     id="metadata6654">
    <rdf:RDF>
      <cc:Work
         rdf:about="">
        <dc:format>image/svg+xml</dc:format>
        <dc:type
           rdf:resource="http://purl.org/dc/dcmitype/StillImage" />
        <dc:title />
      </cc:Work>
    </rdf:RDF>
  </metadata>
  <g
     id="g4270"
     transform="matrix(2.5406194,0,0,2.5406194,93.417697,3.8684726)">
    <path
       style="color:#000000;display:inline;overflow:visible;visibility:visible;opacity:0.15;fill:url(#radialGradient4284-8-5);fill-opacity:1;fill-rule:nonzero;stroke:none;stroke-width:1;marker:none;enable-background:accumulate"
       id="path3964-9"
       d="m 11.053328,43.039409 a 22.632276,5.8210869 0 0 1 -45.26455,0 22.632276,5.8210869 0 1 1 45.26455,0 z"
       inkscape:connector-curvature="0" />
    <path
       style="color:#000000;display:inline;overflow:visible;visibility:visible;opacity:0.3;fill:url(#radialGradient4284-9);fill-opacity:1;fill-rule:nonzero;stroke:none;stroke-width:1;marker:none;enable-background:accumulate"
       id="path3964"
       d="m -3.0618251,44.140976 a 8.517123,2.8293529 0 0 1 -17.0342439,0 8.517123,2.8293529 0 1 1 17.0342439,0 z"
       inkscape:connector-curvature="0" />
  </g>
  <g
     id="g22"
     transform="translate(-137.22034,-35.542372)" />
  <path
     sodipodi:nodetypes="cccccccccccccccccccccccc"
     inkscape:connector-curvature="0"
     id="path4288-1"
     d="m 64.524363,14.00017 c -0.360443,-0.006 -0.706364,0.145381 -0.951347,0.416421 L 12.834381,67.716987 c -0.610366,0.673155 -0.36528,1.765163 0.470722,2.097333 l 30.839572,14.758722 -8.314395,6.388479 c -0.637829,0.49244 -0.678416,1.459145 -0.0842,2.005921 L 48.430732,104.6678 c 0.232404,0.21502 0.534178,0.33444 0.847288,0.33518 h 8.879263 v 6.50021 c 6.1e-5,0.34476 0.133726,0.67539 0.371618,0.91915 l 5.073861,5.20015 c 0.463522,0.47623 1.20492,0.51147 1.709458,0.0811 l 15.107627,-12.9039 17.624741,-9.034269 c 0.246803,-0.126114 0.446855,-0.331017 0.569814,-0.584004 l 5.073868,-10.400312 c 0.37171,-0.766444 -0.0681,-1.685531 -0.88693,-1.85357 L 94.303602,81.185712 115.70896,69.809123 c 0.82632,-0.340145 1.0625,-1.424157 0.45585,-2.092254 L 65.426161,14.416591 c -0.233249,-0.258136 -0.558607,-0.40838 -0.901798,-0.416421 z"
     style="color:#000000;font-style:normal;font-variant:normal;font-weight:normal;font-stretch:normal;font-size:medium;line-height:normal;font-family:sans-serif;text-indent:0;text-align:start;text-decoration:none;text-decoration-line:none;text-decoration-style:solid;text-decoration-color:#000000;letter-spacing:normal;word-spacing:normal;text-transform:none;writing-mode:lr-tb;direction:ltr;baseline-shift:baseline;text-anchor:start;white-space:normal;clip-rule:nonzero;display:inline;overflow:visible;visibility:visible;isolation:auto;mix-blend-mode:normal;color-interpolation:sRGB;color-interpolation-filters:linearRGB;solid-color:#000000;solid-opacity:1;fill:url(#linearGradient1227);fill-opacity:1;fill-rule:evenodd;stroke:none;stroke-width:0.999998px;stroke-linecap:round;stroke-linejoin:round;stroke-miterlimit:4;stroke-dasharray:none;stroke-dashoffset:0;stroke-opacity:1;color-rendering:auto;image-rendering:auto;shape-rendering:auto;text-rendering:auto;enable-background:accumulate" />
  <path
     sodipodi:nodetypes="cccccccccccccccccccccccc"
     inkscape:connector-curvature="0"
     id="path4288-1-9"
     d="m 64.524363,14.00017 c -0.360443,-0.006 -0.706364,0.145381 -0.951347,0.416421 L 12.834381,67.716987 c -0.610366,0.673155 -0.36528,1.765163 0.470722,2.097333 l 30.839572,14.758722 -8.314395,6.388479 c -0.637829,0.49244 -0.678416,1.459145 -0.0842,2.005921 L 48.430732,104.6678 c 0.232404,0.21502 0.534178,0.33444 0.847288,0.33518 h 8.879263 v 6.50021 c 6.1e-5,0.34476 0.133726,0.67539 0.371618,0.91915 l 5.073861,5.20015 c 0.463522,0.47623 1.20492,0.51147 1.709458,0.0811 l 15.107627,-12.9039 17.624741,-9.034269 c 0.246803,-0.126114 0.446855,-0.331017 0.569814,-0.584004 l 5.073868,-10.400312 c 0.37171,-0.766444 -0.0681,-1.685531 -0.88693,-1.85357 L 94.303602,81.185712 115.70896,69.809123 c 0.82632,-0.340145 1.0625,-1.424157 0.45585,-2.092254 L 65.426161,14.416591 c -0.233249,-0.258136 -0.558607,-0.40838 -0.901798,-0.416421 z"
     style="color:#000000;font-style:normal;font-variant:normal;font-weight:normal;font-stretch:normal;font-size:medium;line-height:normal;font-family:sans-serif;text-indent:0;text-align:start;text-decoration:none;text-decoration-line:none;text-decoration-style:solid;text-decoration-color:#000000;letter-spacing:normal;word-spacing:normal;text-transform:none;writing-mode:lr-tb;direction:ltr;baseline-shift:baseline;text-anchor:start;white-space:normal;clip-rule:nonzero;display:inline;overflow:visible;visibility:visible;opacity:0.7;isolation:auto;mix-blend-mode:normal;color-interpolation:sRGB;color-interpolation-filters:linearRGB;solid-color:#000000;solid-opacity:1;fill:none;fill-opacity:1;fill-rule:evenodd;stroke:#000000;stroke-width:0.999998;stroke-linecap:round;stroke-linejoin:round;stroke-miterlimit:4;stroke-dasharray:none;stroke-dashoffset:0;stroke-opacity:1;color-rendering:auto;image-rendering:auto;shape-rendering:auto;text-rendering:auto;enable-background:accumulate" />
  <path
     id="path4288-1-1"
     style="color:#000000;font-style:normal;font-variant:normal;font-weight:normal;font-stretch:normal;font-size:medium;line-height:normal;font-family:sans-serif;text-indent:0;text-align:start;text-decoration:none;text-decoration-line:none;text-decoration-style:solid;text-decoration-color:#000000;letter-spacing:normal;word-spacing:normal;text-transform:none;writing-mode:lr-tb;direction:ltr;baseline-shift:baseline;text-anchor:start;white-space:normal;clip-rule:nonzero;display:inline;overflow:visible;visibility:visible;isolation:auto;mix-blend-mode:normal;color-interpolation:sRGB;color-interpolation-filters:linearRGB;solid-color:#000000;solid-opacity:1;fill:none;fill-opacity:1;fill-rule:evenodd;stroke:url(#linearGradient983);stroke-width:1;stroke-linecap:round;stroke-linejoin:round;stroke-miterlimit:4;stroke-dasharray:none;stroke-dashoffset:0;stroke-opacity:1;color-rendering:auto;image-rendering:auto;shape-rendering:auto;text-rendering:auto;enable-background:accumulate;opacity:0.6"
     d="m 64.50484,14.994044 c -0.06839,5e-6 -0.135404,0.02614 -0.189453,0.08594 a 1.0001,1.0001 0 0 1 -0.01758,0.01758 L 13.575154,68.380763 c -0.1594,0.175798 -0.09979,0.416868 0.09961,0.496094 a 1.0001,1.0001 0 0 1 0.0625,0.02734 l 30.83984,14.759771 a 1.0001,1.0001 0 0 1 0.17774,1.69335 l -8.3125,6.388681 c -0.15299,0.11811 -0.16293,0.34477 -0.01758,0.47851 l 12.685545,11.701171 c 0.05113,0.0473 0.111511,0.0702 0.171875,0.0703 h 8.876953 a 1.0001,1.0001 0 0 1 1,1 v 6.5 c 1.5e-5,0.0864 0.03296,0.16642 0.08594,0.2207 l 5.074218,5.19922 a 1.0001,1.0001 0 0 0 0.002,0.002 c 0.108986,0.11197 0.227718,0.11655 0.34375,0.0176 l 15.105469,-12.9043 a 1.0001,1.0001 0 0 1 0.19336,-0.1289 l 17.625,-9.035161 a 1.0001,1.0001 0 0 0 0.002,0 c 0.05094,-0.026 0.09565,-0.0705 0.125,-0.13086 a 1.0001,1.0001 0 0 0 0,-0.002 l 5.074216,-10.398441 c 0.0977,-0.20449 -0.006,-0.39978 -0.18945,-0.4375 l -8.496094,-1.74023 a 1.0001,1.0001 0 0 1 -0.269532,-1.86329 L 115.24116,68.917872 a 1.0001,1.0001 0 0 1 0.0879,-0.04102 c 0.19679,-0.08101 0.25363,-0.322176 0.0957,-0.496094 L 64.702106,15.09756 a 1.0001,1.0001 0 0 1 -0.01758,-0.01758 c -0.05139,-0.05688 -0.11483,-0.08333 -0.179688,-0.08594 z" />
  <path
     id="path4284-7-4"
     style="color:#000000;font-style:normal;font-variant:normal;font-weight:normal;font-stretch:normal;font-size:medium;line-height:normal;font-family:sans-serif;text-indent:0;text-align:start;text-decoration:none;text-decoration-line:none;text-decoration-style:solid;text-decoration-color:#000000;letter-spacing:normal;word-spacing:normal;text-transform:none;writing-mode:lr-tb;direction:ltr;baseline-shift:baseline;text-anchor:start;white-space:normal;clip-rule:nonzero;display:inline;overflow:visible;visibility:visible;opacity:0.15;isolation:auto;mix-blend-mode:normal;color-interpolation:sRGB;color-interpolation-filters:linearRGB;solid-color:#000000;solid-opacity:1;fill:#000000;fill-opacity:1;fill-rule:evenodd;stroke:none;stroke-width:1px;stroke-linecap:round;stroke-linejoin:round;stroke-miterlimit:4;stroke-dasharray:none;stroke-dashoffset:0;stroke-opacity:1;color-rendering:auto;image-rendering:auto;shape-rendering:auto;text-rendering:auto;enable-background:accumulate"
     d="m 64.524193,16.280204 a 1.0001,1.0001 0 0 0 -0.146484,0.0078 c -0.942519,0.124238 -1.61782,0.689898 -2.097656,1.197268 -0.479836,0.507371 -0.843401,0.992227 -1.158203,1.257813 a 1.0001,1.0001 0 0 0 -0.08008,0.07422 C 54.240803,25.978567 47.375974,33.095117 40.602318,40.297782 a 1.0001,1.0001 0 0 0 -0.144531,0.201172 c -0.27265,0.4915 -0.366147,1.056064 -0.289063,1.542969 0.07709,0.486905 0.286681,0.879925 0.503906,1.208984 0.434453,0.658119 0.929011,1.154215 1.103516,1.458985 a 1.0001,1.0001 0 0 0 0.07813,0.117187 c 0.661808,0.849397 1.358573,2.363129 3.083985,2.900391 l -0.138672,-0.05469 c 1.648272,0.799352 3.297879,1.704188 5.050781,2.484375 a 1.0001,1.0001 0 0 0 0.382813,0.08594 c 2.088237,0.05101 4.212984,0.08551 6.335937,-0.01758 a 1.0001,1.0001 0 0 0 0.388672,-0.09961 c 0.860315,-0.417743 1.338756,-1.158471 1.65625,-1.796875 0.317494,-0.638404 0.531463,-1.225571 0.767578,-1.597656 a 1.0001,1.0001 0 0 0 0.05078,-0.08789 l 3.767574,-7.539061 1.697265,11.904297 a 1.0001,1.0001 0 0 0 0.01367,0.07813 c 0.150517,0.667577 0.502292,1.254254 1.029297,1.589843 0.527005,0.33559 1.138238,0.376709 1.652344,0.277344 0.968038,-0.187099 1.754462,-0.768293 2.296875,-1.529297 l -0.02344,0.02344 0.130859,-0.160157 c -0.03174,0.0487 -0.07371,0.08942 -0.107421,0.136719 l 2.910156,-2.914062 c 0.546071,0.636557 1.193396,1.392988 2.40039,1.726562 a 1.0001,1.0001 0 0 0 0.347656,0.0332 c 0.894005,-0.07206 1.590275,-0.498359 2.140626,-0.902343 0.55035,-0.403984 0.9996,-0.801003 1.386718,-1.023438 a 1.0001,1.0001 0 0 0 0.08594,-0.05664 c 1.957959,-1.412176 3.96348,-2.791836 5.93164,-4.253906 a 1.0001,1.0001 0 0 0 0.15625,-0.144531 c 0.642835,-0.734992 0.758293,-1.637532 0.75586,-2.349609 -0.0024,-0.712078 -0.08044,-1.325105 -0.03516,-1.734375 0.11776,-1.070426 -0.117719,-2.374438 -1.132813,-3.216797 l -0.002,-0.002 C 78.557175,30.016435 72.322759,23.391777 66.006615,16.842704 A 1.0001,1.0001 0 0 0 65.86599,16.723563 c -0.39391,-0.281036 -0.85757,-0.435059 -1.341797,-0.443359 z" />
  <path
     id="path1002"
     d="m 64.530155,17.2497 c -0.392394,-0.0063 -0.769185,0.153579 -1.03742,0.440223 L 41.522182,40.734176 c -0.513918,0.546724 -0.501884,1.402768 0.0272,1.934811 l 2.504083,3.390925 c 0.106427,0.106053 0.229323,0.194153 0.36391,0.260876 l 5.56185,2.782651 c 0.192258,0.09613 0.404167,0.146354 0.61909,0.146738 h 5.56185 c 0.527299,-4.79e-4 1.008968,-0.299341 1.24381,-0.77175 l 6.35485,-12.717577 2.15087,15.076305 c 0.162975,1.132658 1.546599,1.595217 2.35727,0.788058 l 4.57875,-4.581591 1.79782,1.798941 c 0.468664,0.468876 1.202885,0.541658 1.75438,0.173909 l 7.837839,-5.589403 c 0.386805,-0.258051 0.767088,-0.710905 0.767125,-1.176087 l -0.0059,-3.540275 c 2.25e-4,-0.353125 -0.133735,-0.693126 -0.37473,-0.951094 L 65.518675,17.689923 C 65.26207,17.415666 64.905536,17.25689 64.530145,17.2497 Z"
     style="color:#000000;font-style:normal;font-variant:normal;font-weight:normal;font-stretch:normal;font-size:medium;line-height:normal;font-family:sans-serif;text-indent:0;text-align:start;text-decoration:none;text-decoration-line:none;text-decoration-style:solid;text-decoration-color:#000000;letter-spacing:normal;word-spacing:normal;text-transform:none;writing-mode:lr-tb;direction:ltr;baseline-shift:baseline;text-anchor:start;white-space:normal;clip-rule:nonzero;display:inline;overflow:visible;visibility:visible;opacity:0.3;isolation:auto;mix-blend-mode:normal;color-interpolation:sRGB;color-interpolation-filters:linearRGB;solid-color:#000000;solid-opacity:1;fill:#000000;fill-opacity:1;fill-rule:evenodd;stroke:none;stroke-width:1px;stroke-linecap:round;stroke-linejoin:round;stroke-miterlimit:4;stroke-dasharray:none;stroke-dashoffset:0;stroke-opacity:1;color-rendering:auto;image-rendering:auto;shape-rendering:auto;text-rendering:auto;enable-background:accumulate"
     inkscape:connector-curvature="0"
     sodipodi:nodetypes="ccccccccccccccccccccccc" />
  <path
     id="path4284-7"
     d="m 64.530155,16.250117 c -0.392394,-0.0063 -0.769185,0.153579 -1.03742,0.440223 L 41.522182,39.734594 c -0.513918,0.546724 -0.501884,1.402768 0.0272,1.934811 l 2.504083,3.390925 c 0.106427,0.106053 0.229323,0.194153 0.36391,0.260876 l 5.56185,2.782651 c 0.192258,0.09613 0.404167,0.146354 0.61909,0.146738 h 5.56185 c 0.527299,-4.79e-4 1.008968,-0.299341 1.24381,-0.77175 l 6.35485,-12.717577 2.15087,15.076305 c 0.162975,1.132658 1.546599,1.595217 2.35727,0.788058 l 4.57875,-4.581591 1.79782,1.798941 c 0.468664,0.468876 1.202885,0.541658 1.75438,0.173909 l 7.837839,-5.589403 c 0.386805,-0.258051 0.767088,-0.710905 0.767125,-1.176087 l -0.0059,-3.540275 C 84.997204,37.358 84.863244,37.017999 84.622249,36.760031 L 65.518675,16.69034 c -0.256605,-0.274257 -0.613139,-0.433033 -0.98853,-0.440223 z"
     style="color:#000000;font-style:normal;font-variant:normal;font-weight:normal;font-stretch:normal;font-size:medium;line-height:normal;font-family:sans-serif;text-indent:0;text-align:start;text-decoration:none;text-decoration-line:none;text-decoration-style:solid;text-decoration-color:#000000;letter-spacing:normal;word-spacing:normal;text-transform:none;writing-mode:lr-tb;direction:ltr;baseline-shift:baseline;text-anchor:start;white-space:normal;clip-rule:nonzero;display:inline;overflow:visible;visibility:visible;isolation:auto;mix-blend-mode:normal;color-interpolation:sRGB;color-interpolation-filters:linearRGB;solid-color:#000000;solid-opacity:1;fill:#eceff1;fill-opacity:1;fill-rule:evenodd;stroke:none;stroke-width:1px;stroke-linecap:round;stroke-linejoin:round;stroke-miterlimit:4;stroke-dasharray:none;stroke-dashoffset:0;stroke-opacity:1;color-rendering:auto;image-rendering:auto;shape-rendering:auto;text-rendering:auto;enable-background:accumulate"
     inkscape:connector-curvature="0"
     sodipodi:nodetypes="ccccccccccccccccccccccc" />
  <g
     id="g999"
     transform="translate(0,-2)">
    <g
       id="g949">
      <path
         style="fill:#0d52bf;fill-opacity:1;stroke:none;stroke-width:2;stroke-linecap:round;stroke-linejoin:round;stroke-miterlimit:4;stroke-dasharray:none;stroke-opacity:1"
         d="M 51.000001,16 H 77 v 2 H 51.000001 Z"
         id="rect4306-6-2-5-5" />
      <path
         style="fill:#fafafa;fill-opacity:1;stroke:#7239b3;stroke-width:2;stroke-linejoin:miter;stroke-miterlimit:4;stroke-dasharray:none;stroke-opacity:1"
         d="M 61.000002,15 H 67 v 4 h -5.999998 z"
         id="rect1332-2-6" />
      <path
         style="fill:#7239b3;fill-opacity:1;stroke:none;stroke-width:2;stroke-linecap:round;stroke-miterlimit:4;stroke-dasharray:none;stroke-opacity:1"
         d="M 81.999718,17 A 2.9998589,2.9999294 0 0 1 78.999859,19.999929 2.9998589,2.9999294 0 0 1 76,17 2.9998589,2.9999294 0 0 1 78.999859,14.00007 2.9998589,2.9999294 0 0 1 81.999718,17 Z"
         id="path1026" />
      <path
         style="fill:#7239b3;fill-opacity:1;stroke:none;stroke-width:2;stroke-linecap:round;stroke-miterlimit:4;stroke-dasharray:none;stroke-opacity:1"
         d="M 51.999718,17 A 2.9998589,2.9999294 0 0 1 48.999859,19.999929 2.9998589,2.9999294 0 0 1 46,17 2.9998589,2.9999294 0 0 1 48.999859,14.00007 2.9998589,2.9999294 0 0 1 51.999718,17 Z"
         id="path1098-5-9" />
    </g>
  </g>
  <rect
     style="fill:#fafafa;fill-opacity:1;stroke:#7239b3;stroke-width:2;stroke-linecap:round;stroke-linejoin:miter;stroke-miterlimit:4;stroke-dasharray:none;stroke-opacity:1"
     id="rect1004-2-5-4-4"
     width="4.0000005"
     height="4"
     x="13"
     y="67" />
  <rect
     style="fill:#fafafa;fill-opacity:1;stroke:#7239b3;stroke-width:2;stroke-linecap:round;stroke-linejoin:miter;stroke-miterlimit:4;stroke-dasharray:none;stroke-opacity:1"
     id="rect1004-2-5-4-4-3"
     width="4.0000005"
     height="4"
     x="101"
     y="81" />
  <rect
     style="fill:#fafafa;fill-opacity:1;stroke:#7239b3;stroke-width:2;stroke-linecap:round;stroke-linejoin:miter;stroke-miterlimit:4;stroke-dasharray:none;stroke-opacity:1"
     id="rect1004-2-5-4"
     width="4.0000005"
     height="4"
     x="47"
     y="103" />
</svg>
