<?xml version="1.0" encoding="UTF-8" standalone="no"?>
<svg
   xmlns:osb="http://www.openswatchbook.org/uri/2009/osb"
   xmlns:dc="http://purl.org/dc/elements/1.1/"
   xmlns:cc="http://creativecommons.org/ns#"
   xmlns:rdf="http://www.w3.org/1999/02/22-rdf-syntax-ns#"
   xmlns:svg="http://www.w3.org/2000/svg"
   xmlns="http://www.w3.org/2000/svg"
   xmlns:xlink="http://www.w3.org/1999/xlink"
   xmlns:sodipodi="http://sodipodi.sourceforge.net/DTD/sodipodi-0.dtd"
   xmlns:inkscape="http://www.inkscape.org/namespaces/inkscape"
   version="1.1"
   width="128"
   height="128"
   id="svg5157"
   sodipodi:docname="skypeforlinux_128.svg"
   inkscape:version="1.0.1 (1.0.1+r75)">
  <sodipodi:namedview
     pagecolor="#ffffff"
     bordercolor="#666666"
     borderopacity="1"
     objecttolerance="10"
     gridtolerance="10"
     guidetolerance="10"
     inkscape:pageopacity="0"
     inkscape:pageshadow="2"
     inkscape:window-width="1366"
     inkscape:window-height="705"
     id="namedview39"
     showgrid="true"
     inkscape:zoom="7.4688154"
     inkscape:cx="71.047965"
     inkscape:cy="68.393203"
     inkscape:window-x="0"
     inkscape:window-y="30"
     inkscape:window-maximized="1"
     inkscape:current-layer="svg5157"
     showguides="true"
     inkscape:guide-bbox="true"
     inkscape:snap-global="true"
     inkscape:document-rotation="0">
    <inkscape:grid
       type="xygrid"
       id="grid964" />
  </sodipodi:namedview>
  <defs
     id="defs5159">
    <linearGradient
       id="linearGradient3820-7-2-8-6">
      <stop
         id="stop3822-2-6-5-0"
         style="stop-color:#3d3d3d;stop-opacity:1"
         offset="0" />
      <stop
         id="stop3864-8-7-4-1"
         style="stop-color:#686868;stop-opacity:0.49803922"
         offset="0.5" />
      <stop
         id="stop3824-1-2-6-7"
         style="stop-color:#686868;stop-opacity:0"
         offset="1" />
    </linearGradient>
    <linearGradient
       id="linearGradient2867-449-88-871-390-598-476-591-434-148-57-177-3-8">
      <stop
         id="stop3750-8-9"
         style="stop-color:#8cd5ff;stop-opacity:1"
         offset="0" />
      <stop
         id="stop3752-3-2"
         style="stop-color:#64baff;stop-opacity:1"
         offset="0.26238" />
      <stop
         id="stop3754-7-2"
         style="stop-color:#3689e6;stop-opacity:1"
         offset="0.704952" />
      <stop
         id="stop3756-9-3"
         style="stop-color:#0d52bf;stop-opacity:1"
         offset="1" />
    </linearGradient>
    <radialGradient
       xlink:href="#linearGradient3820-7-2-8-6"
       id="radialGradient3163"
       gradientUnits="userSpaceOnUse"
       gradientTransform="matrix(0.6869404,0,0,0.21461693,-4.02174,68.573331)"
       cx="99.157013"
       cy="186.17059"
       fx="99.157013"
       fy="186.17059"
       r="62.769119" />
    <radialGradient
       xlink:href="#linearGradient2867-449-88-871-390-598-476-591-434-148-57-177-3-8"
       id="radialGradient3197"
       gradientUnits="userSpaceOnUse"
       gradientTransform="matrix(0,6.3385076,-6.7053845,-1.7252442e-7,121.15923,-25.776663)"
       cx="3.9722471"
       cy="8.4497671"
       fx="3.9722471"
       fy="8.4497671"
       r="19.99999" />
    <linearGradient
       id="linearGradient4246">
      <stop
         offset="0"
         style="stop-color:#ffffff;stop-opacity:1"
         id="stop4248" />
      <stop
         offset="0.23521248"
         style="stop-color:#ffffff;stop-opacity:0.23529412"
         id="stop4250" />
      <stop
         offset="0.76404774"
         style="stop-color:#ffffff;stop-opacity:0.15686275"
         id="stop4252" />
      <stop
         offset="1"
         style="stop-color:#ffffff;stop-opacity:0.39215687"
         id="stop4254" />
    </linearGradient>
    <linearGradient
       gradientTransform="matrix(2.7567564,0,0,2.7567564,-133.40784,-4.0633722)"
       gradientUnits="userSpaceOnUse"
       xlink:href="#linearGradient4246"
       id="linearGradient5267"
       y2="44.00914"
       x2="71.204407"
       y1="6.8949885"
       x1="71.204407" />
    <radialGradient
       gradientTransform="matrix(0,9.9313773,-7.8452509,-1.1276038e-7,130.78939,1.4423356)"
       gradientUnits="userSpaceOnUse"
       xlink:href="#linearGradient4223"
       id="radialGradient3126-7-25-24"
       fy="8.449769"
       fx="0.66680855"
       r="19.99999"
       cy="8.449769"
       cx="-1.2645766" />
    <linearGradient
       id="linearGradient4526"
       osb:paint="solid">
      <stop
         style="stop-color:#ffffff;stop-opacity:1;"
         offset="0"
         id="stop4528" />
    </linearGradient>
    <linearGradient
       id="linearGradient4223">
      <stop
         offset="0"
         style="stop-color:#d1ff82;stop-opacity:1"
         id="stop4225" />
      <stop
         offset="0.26238"
         style="stop-color:#9bdb4d;stop-opacity:1"
         id="stop4227" />
      <stop
         offset="0.66093999"
         style="stop-color:#68b723;stop-opacity:1"
         id="stop4229" />
      <stop
         offset="1"
         style="stop-color:#3a9104;stop-opacity:1"
         id="stop4231" />
    </linearGradient>
    <linearGradient
       inkscape:collect="always"
       xlink:href="#linearGradient927"
       id="linearGradient929"
       x1="19.288254"
       y1="1006.3339"
       x2="4.1306152"
       y2="1032.0963"
       gradientUnits="userSpaceOnUse"
       gradientTransform="matrix(1.6968262,0,0,1.7024615,8.606349,-1699.793)" />
    <linearGradient
       inkscape:collect="always"
       id="linearGradient927">
      <stop
         style="stop-color:#64baff;stop-opacity:1"
         offset="0"
         id="stop923" />
      <stop
         style="stop-color:#3689e6;stop-opacity:1"
         offset="1"
         id="stop925" />
    </linearGradient>
    <linearGradient
       id="b"
       x1="21.834949"
       y1="30.768084"
       x2="29.546"
       y2="17.889"
       gradientUnits="userSpaceOnUse"
       gradientTransform="matrix(3.4238764,0,0,3.4352446,11.801416,12.007409)">
      <stop
         offset="0"
         stop-color="#0078d4"
         id="stop11"
         style="stop-color:#3689e6;stop-opacity:1" />
      <stop
         offset="1"
         stop-color="#00bcf2"
         id="stop21"
         style="stop-color:#64baff;stop-opacity:1" />
    </linearGradient>
    <linearGradient
       id="c"
       x1="15.862497"
       y1="2.235914"
       x2="15.862497"
       y2="29.892433"
       gradientUnits="userSpaceOnUse"
       gradientTransform="matrix(3.4959994,0,0,3.5076254,9.0649039,9.6754794)">
      <stop
         offset="0"
         stop-color="#00b7f0"
         id="stop24"
         style="stop-color:#64baff;stop-opacity:1" />
      <stop
         offset="1"
         stop-color="#007cc1"
         id="stop26"
         style="stop-color:#3689e6;stop-opacity:1" />
    </linearGradient>
    <linearGradient
       id="linearGradient4214">
      <stop
         style="stop-color:#ffffff;stop-opacity:1;"
         offset="0"
         id="stop4216" />
      <stop
         id="stop4218"
         offset="0.28571552"
         style="stop-color:#ffffff;stop-opacity:0.23529412" />
      <stop
         style="stop-color:#ffffff;stop-opacity:0.15686275"
         offset="0.71428698"
         id="stop4220" />
      <stop
         style="stop-color:#ffffff;stop-opacity:0.39215687"
         offset="1"
         id="stop4222" />
    </linearGradient>
    <linearGradient
       id="linearGradient4632-92-3-0-8-1-9">
      <stop
         offset="0"
         style="stop-color:#fafafa;stop-opacity:1"
         id="stop4634-68-8-0-2-9-4" />
      <stop
         offset="1"
         style="stop-color:#e1e1e1;stop-opacity:1"
         id="stop4636-8-21-7-1-4-8" />
    </linearGradient>
    <linearGradient
       id="b-9"
       x1="21.834949"
       y1="30.768084"
       x2="29.546"
       y2="17.889"
       gradientUnits="userSpaceOnUse"
       gradientTransform="matrix(3.4238764,0,0,3.4352446,-118.19858,-102.99259)">
      <stop
         offset="0"
         stop-color="#0078d4"
         id="stop11-3"
         style="stop-color:#3689e6;stop-opacity:1" />
      <stop
         offset="1"
         stop-color="#00bcf2"
         id="stop21-7"
         style="stop-color:#64baff;stop-opacity:1" />
    </linearGradient>
    <linearGradient
       id="b-7"
       x1="21.834949"
       y1="30.768084"
       x2="29.546"
       y2="17.889"
       gradientUnits="userSpaceOnUse"
       gradientTransform="matrix(3.4238764,0,0,3.4352446,-348.28842,5.962487)">
      <stop
         offset="0"
         stop-color="#0078d4"
         id="stop11-8"
         style="stop-color:#3689e6;stop-opacity:1" />
      <stop
         offset="1"
         stop-color="#00bcf2"
         id="stop21-6"
         style="stop-color:#64baff;stop-opacity:1" />
    </linearGradient>
    <linearGradient
       id="b-1"
       x1="21.834949"
       y1="30.768084"
       x2="29.546"
       y2="17.889"
       gradientUnits="userSpaceOnUse"
       gradientTransform="matrix(3.4238764,0,0,3.4352446,-211.12437,63.316)">
      <stop
         offset="0"
         stop-color="#0078d4"
         id="stop11-0"
         style="stop-color:#3689e6;stop-opacity:1" />
      <stop
         offset="1"
         stop-color="#00bcf2"
         id="stop21-61"
         style="stop-color:#64baff;stop-opacity:1" />
    </linearGradient>
    <linearGradient
       inkscape:collect="always"
       xlink:href="#linearGradient4214"
       id="linearGradient1381"
       x1="16.457127"
       y1="66.000954"
       x2="112.52767"
       y2="66.000954"
       gradientUnits="userSpaceOnUse"
       gradientTransform="rotate(90,64.492884,65.998241)" />
    <linearGradient
       inkscape:collect="always"
       xlink:href="#linearGradient4214"
       id="linearGradient1389"
       x1="96.079475"
       y1="75.033875"
       x2="96.079475"
       y2="117.79917"
       gradientUnits="userSpaceOnUse" />
    <linearGradient
       inkscape:collect="always"
       xlink:href="#linearGradient4214"
       id="linearGradient1398"
       x1="34.70282"
       y1="13.932533"
       x2="34.70282"
       y2="56.670498"
       gradientUnits="userSpaceOnUse" />
    <linearGradient
       inkscape:collect="always"
       xlink:href="#linearGradient4632-92-3-0-8-1-9"
       id="linearGradient936"
       x1="24"
       y1="1017.3622"
       x2="24"
       y2="1039.3586"
       gradientUnits="userSpaceOnUse"
       gradientTransform="matrix(2.5454386,0,0,2.5454386,3.4349563,-2551.6073)" />
  </defs>
  <metadata
     id="metadata5162">
    <rdf:RDF>
      <cc:Work
         rdf:about="">
        <dc:format>image/svg+xml</dc:format>
        <dc:type
           rdf:resource="http://purl.org/dc/dcmitype/StillImage" />
        <dc:title />
      </cc:Work>
    </rdf:RDF>
  </metadata>
  <path
     style="fill:url(#radialGradient3163);fill-opacity:1;stroke:none"
     id="path3818-0-5-0"
     d="m 107.21186,108.52868 a 43.118644,13.471312 0 1 1 -86.237286,0 43.118644,13.471312 0 1 1 86.237286,0 z" />
  <path
     d="M 72,43.499822 A 30.000002,29.999979 0 0 1 42.000009,73.499997 30.000002,29.999979 0 0 1 12,43.499822 30.000002,29.999979 0 0 1 42.000009,13.5 30.000002,29.999979 0 0 1 72,43.499822"
     style="fill:url(#linearGradient929);fill-opacity:1;stroke:none;stroke-width:33.3332"
     id="path31" />
  <path
     d="M 116.99999,88.500002 A 30.000007,29.999989 0 0 1 86.999996,118.50001 30.000007,29.999989 0 0 1 57,88.500002 30.000007,29.999989 0 0 1 86.999996,58.5 30.000007,29.999989 0 0 1 116.99999,88.500002"
     style="fill:url(#b);stroke-width:33.3332"
     id="path33" />
  <path
     d="M 113.02543,66.025601 A 48.499999,48.49994 0 0 1 64.525438,114.52542 48.499999,48.49994 0 0 1 16.025427,66.025601 48.499999,48.49994 0 0 1 64.525438,17.525425 48.499999,48.49994 0 0 1 113.02543,66.025601"
     style="fill:url(#c);stroke-width:33.3332"
     id="path47" />
  <path
     id="path47-54"
     style="opacity:0.4;fill:none;stroke:#002e99;stroke-width:1;stroke-miterlimit:4;stroke-dasharray:none;stroke-opacity:1"
     d="M 113.02543,66.025601 C 113.2688,85.288515 100.7785,103.8764 82.851725,110.92973 65.092254,118.44188 43.139052,113.88335 29.83784,99.922649 16.18748,86.303241 12.13559,64.25094 20.05533,46.669238 27.52644,28.8923 46.426761,16.829989 65.696551,17.539566 c 19.263175,0.221786 37.544109,13.157198 44.162569,31.249052 2.09013,5.490254 3.16879,11.362323 3.16631,17.236983 z m -0.47465,6.755649 c -2.44201,19.109049 -17.399547,35.77606 -36.133999,40.26374 -3.41923,0.5984 -6.83242,1.03966 -1.886604,2.74091 12.31754,5.89601 28.293173,1.88075 36.358863,-9.13889 7.45339,-9.596372 8.1424,-23.582442 1.66174,-33.86576 z M 41.855469,13.5 C 28.18786,13.322 15.36722,23.696585 12.69039,37.100686 c -1.6721,7.520808 -0.27623,15.660013 3.8057,22.194236 2.43179,-19.110353 17.38041,-35.78536 36.11246,-40.283058 2.791536,-0.670989 7.403672,-0.812671 2.359458,-2.564665 C 50.894188,14.49032 46.374752,13.47538 41.855469,13.5 Z" />
  <path
     id="path31-0"
     style="fill:none;fill-opacity:1;stroke:url(#linearGradient1398);stroke-width:1;stroke-linejoin:round;stroke-miterlimit:4;stroke-dasharray:none;stroke-opacity:1;opacity:0.4"
     d="m 41.868011,14.450406 c -9.54496,-0.12843 -18.74331,5.15919 -24.03125,13.00195 -5.75954,8.34969 -6.26095,19.77659 -1.69727,28.77149 3.64782,-19.08328 19.55596,-35.3736 38.79297,-38.76367 -4.05346,-1.97191 -8.55066,-3.04837 -13.06445,-3.00977 z" />
  <path
     id="path33-9"
     style="fill:none;stroke:url(#linearGradient1389);stroke-width:1;stroke-linejoin:round;stroke-miterlimit:4;stroke-dasharray:none;stroke-opacity:1;opacity:0.4"
     d="m 112.93798,75.664537 c -3.39842,17.834199 -17.449576,33.260493 -35.025405,37.984383 -0.783226,0.56235 -5.037545,0.30064 -2.538048,1.39797 11.818533,5.38869 27.017973,1.40733 34.738583,-9.02584 6.52046,-8.519156 7.64927,-20.779917 2.82487,-30.356513 z" />
  <path
     id="path938"
     style="color:#000000;font-style:normal;font-variant:normal;font-weight:normal;font-stretch:normal;font-size:medium;line-height:normal;font-family:sans-serif;font-variant-ligatures:normal;font-variant-position:normal;font-variant-caps:normal;font-variant-numeric:normal;font-variant-alternates:normal;font-variant-east-asian:normal;font-feature-settings:normal;font-variation-settings:normal;text-indent:0;text-align:start;text-decoration:none;text-decoration-line:none;text-decoration-style:solid;text-decoration-color:#000000;letter-spacing:normal;word-spacing:normal;text-transform:none;writing-mode:lr-tb;direction:ltr;text-orientation:mixed;dominant-baseline:auto;baseline-shift:baseline;text-anchor:start;white-space:normal;shape-padding:0;shape-margin:0;inline-size:0;clip-rule:nonzero;display:inline;overflow:visible;visibility:visible;opacity:0.2;isolation:auto;mix-blend-mode:normal;color-interpolation:sRGB;color-interpolation-filters:linearRGB;solid-color:#000000;solid-opacity:1;vector-effect:none;fill:#002e99;fill-opacity:1;fill-rule:nonzero;stroke:none;stroke-width:2;stroke-linecap:butt;stroke-linejoin:miter;stroke-miterlimit:4;stroke-dasharray:none;stroke-dashoffset:0;stroke-opacity:1;color-rendering:auto;image-rendering:auto;shape-rendering:auto;text-rendering:auto;enable-background:accumulate;stop-color:#000000;stop-opacity:1"
     d="m 66.840383,38.001731 c -3.10122,-0.03076 -6.20516,0.349076 -9.18164,1.09375 -0.002,4.92e-4 -0.004,0.0015 -0.006,0.002 -6.37575,1.498561 -12.78814,6.399306 -13.3125,13.552736 -0.65268,5.55358 1.95475,11.22655 6.73243,14.21289 l -0.004,0.006 c 0.0119,0.008 0.0252,0.0131 0.0371,0.0215 0.006,0.004 0.01,0.01 0.0156,0.0137 l 0.002,-0.004 c 5.92416,4.18669 13.07475,5.5048 18.41406,9.47461 l 0.0273,0.0195 0.0293,0.0195 c 2.14611,1.37722 2.6468,4.68185 1.06445,6.66016 -1.17688,1.35736 -2.77578,2.03012 -4.60742,2.2832 -1.83663,0.25377 -3.87073,0.0605 -5.6875,-0.29492 l -0.0234,-0.006 -0.0234,-0.002 c -1.66817,-0.24274 -3.28084,-1.1176 -5.03321,-1.98046 -1.74645,-0.85996 -3.66681,-1.70598 -5.92382,-1.58204 -3.37045,0.075 -5.66922,3.48834 -4.83399,6.64258 0.70445,2.79677 2.85755,4.43952 5.18164,5.41797 2.32708,0.97971 4.91244,1.41445 6.89649,1.91211 l 0.0527,0.0137 0.0527,0.006 c 6.96313,0.97185 14.74669,0.8821 21.16211,-2.91601 l 0.004,-0.002 0.002,-0.002 c 5.08023,-3.06089 7.48187,-9.13974 6.82617,-14.82812 -0.427,-6.26517 -5.32039,-10.92551 -10.52148,-13.38672 -4.99033,-2.79686 -10.54124,-4.00807 -14.83594,-7.08008 l -0.0254,-0.0176 -0.0254,-0.0156 c -2.35204,-1.47732 -2.42533,-5.42719 -0.14648,-6.99415 4.25749,-2.80859 10.0233,-1.754 14.72461,0.24415 1.31838,0.84752 2.95656,1.22307 4.52539,1.00195 1.60603,-0.22637 3.18054,-1.18844 3.88281,-2.92969 1.54405,-3.34043 -0.58268,-7.07941 -3.77344,-8.306639 -3.29169,-1.326954 -6.80142,-2.040991 -10.33984,-2.210938 -0.44256,-0.02126 -0.88509,-0.03467 -1.32813,-0.03906 z" />
  <path
     id="path47-7"
     style="fill:none;stroke:url(#linearGradient1381);stroke-width:1;stroke-miterlimit:4;stroke-dasharray:none;stroke-opacity:1;opacity:0.4"
     d="M 111.97572,65.137036 C 111.8388,44.827257 97.268325,25.684796 77.622205,20.291333 c -18.65883,-5.511869 -40.28863,1.761268 -51.574229,17.671875 -11.36436,15.414683 -12.1629,37.75999 -1.54295,53.767578 10.295009,16.128614 30.836679,24.976114 49.593739,20.750004 21.10632,-3.95022 37.706635,-23.929089 37.845705,-45.375004 0.0259,-0.657159 0.0357,-1.313596 0.0312,-1.96875 z" />
  <path
     id="path934"
     style="opacity:0.4;fill:#002e99;fill-opacity:1;stroke:none;stroke-width:33.3333"
     d="m 51.648063,66.05329 c -4.46521,-2.76205 -6.93001,-8.10773 -6.31587,-13.29661 0.46523,-6.60668 6.50107,-11.26865 12.56243,-12.688754 6.62078,-1.65759 13.88946,-1.452173 20.25151,1.115664 2.70435,1.03803 4.51965,4.22925 3.22188,6.98621 -1.11826,2.81882 -4.82039,2.91835 -7.05206,1.41629 -4.86555,-2.0781 -11.02343,-3.28744 -15.73091,-0.17309 -2.90758,1.99384 -2.81589,6.79046 0.17818,8.67103 4.52505,3.23678 10.13797,4.44154 14.95646,7.14861 4.99581,2.35351 9.60333,6.792 9.98998,12.58872 0.62585,5.33728 -1.6459,11.05383 -6.34801,13.8869 -6.11349,3.61936 -13.66239,3.74307 -20.51423,2.78675 -4.08762,-1.02531 -10.13576,-1.7393 -11.35556,-6.61305 -0.67454,-2.53933 1.20476,-5.34339 3.9032,-5.39328 3.9645,-0.22909 6.96662,3.00056 10.77653,3.55496 3.77025,0.73767 8.51943,0.8489 11.25633,-2.32271 1.98909,-2.46144 1.38867,-6.42724 -1.29349,-8.14846 -5.60335,-4.16612 -12.79329,-5.4732 -18.48647,-9.51791" />
  <path
     id="path49-5"
     style="fill:url(#linearGradient936);fill-opacity:1;stroke:none;stroke-width:33.3333"
     d="m 51.648058,65.076452 c -4.465208,-2.762055 -6.930008,-8.107731 -6.31587,-13.296607 0.46523,-6.606686 6.501076,-11.268657 12.562427,-12.688757 6.620788,-1.65759 13.889466,-1.452173 20.25151,1.115666 2.70435,1.038029 4.519655,4.229246 3.221889,6.98621 -1.118263,2.818819 -4.820399,2.918346 -7.052062,1.416282 -4.865555,-2.078096 -11.023429,-3.287434 -15.730912,-0.173089 -2.907578,1.993842 -2.815892,6.790466 0.178181,8.671036 4.525051,3.23678 10.137972,4.441536 14.956462,7.14861 4.995805,2.353512 9.603329,6.791994 9.989981,12.588721 0.625847,5.337276 -1.645906,11.053826 -6.348018,13.886896 -6.113482,3.61936 -13.662387,3.74307 -20.514224,2.78675 -4.087618,-1.02531 -10.135759,-1.7393 -11.355558,-6.613054 -0.674541,-2.53933 1.204756,-5.343385 3.903201,-5.393276 3.964495,-0.229089 6.966611,3.000563 10.776521,3.55496 3.770253,0.737668 8.519431,0.848904 11.256337,-2.322713 1.989082,-2.461439 1.388664,-6.427232 -1.29349,-8.148458 -5.60335,-4.166119 -12.793298,-5.473202 -18.486477,-9.517904" />
</svg>
