<?xml version="1.0" encoding="UTF-8" standalone="no"?>
<svg
   xmlns:osb="http://www.openswatchbook.org/uri/2009/osb"
   xmlns:dc="http://purl.org/dc/elements/1.1/"
   xmlns:cc="http://creativecommons.org/ns#"
   xmlns:rdf="http://www.w3.org/1999/02/22-rdf-syntax-ns#"
   xmlns:svg="http://www.w3.org/2000/svg"
   xmlns="http://www.w3.org/2000/svg"
   xmlns:xlink="http://www.w3.org/1999/xlink"
   xmlns:sodipodi="http://sodipodi.sourceforge.net/DTD/sodipodi-0.dtd"
   xmlns:inkscape="http://www.inkscape.org/namespaces/inkscape"
   version="1.1"
   width="128"
   height="128"
   id="svg4405"
   inkscape:version="0.91 r13725"
   sodipodi:docname="soapui.svg">
  <sodipodi:namedview
     pagecolor="#ffffff"
     bordercolor="#666666"
     borderopacity="1"
     objecttolerance="10"
     gridtolerance="10"
     guidetolerance="10"
     inkscape:pageopacity="0"
     inkscape:pageshadow="2"
     inkscape:window-width="1366"
     inkscape:window-height="705"
     id="namedview42"
     showgrid="false"
     inkscape:zoom="13.3"
     inkscape:cx="73.045977"
     inkscape:cy="121.47418"
     inkscape:window-x="0"
     inkscape:window-y="30"
     inkscape:window-maximized="1"
     inkscape:current-layer="svg4405"
     showguides="false" />
  <defs
     id="defs4407">
    <linearGradient
       id="linearGradient4324">
      <stop
         offset="0"
         style="stop-color:#ffffff;stop-opacity:0.23529412"
         id="stop4328" />
      <stop
         offset="0.6827991"
         style="stop-color:#ffffff;stop-opacity:0.15686275"
         id="stop4330" />
      <stop
         offset="1"
         style="stop-color:#ffffff;stop-opacity:0.39215687"
         id="stop4332" />
    </linearGradient>
    <linearGradient
       id="linearGradient4187">
      <stop
         id="stop4189"
         style="stop-color:#ffffff;stop-opacity:1"
         offset="0" />
      <stop
         id="stop4191"
         style="stop-color:#ffffff;stop-opacity:0.23529412"
         offset="0.39678979" />
      <stop
         id="stop4193"
         style="stop-color:#ffffff;stop-opacity:0.15686275"
         offset="0.80866116" />
      <stop
         id="stop4195"
         style="stop-color:#ffffff;stop-opacity:0.39215687"
         offset="1" />
    </linearGradient>
    <radialGradient
       cx="4.9929786"
       cy="43.5"
       r="2.5"
       fx="4.9929786"
       fy="43.5"
       id="radialGradient3013-896"
       xlink:href="#linearGradient3688-166-749-2-324"
       gradientUnits="userSpaceOnUse"
       gradientTransform="matrix(2.003784,0,0,1.4,27.98813,-17.4)" />
    <linearGradient
       id="linearGradient3688-166-749-2-324">
      <stop
         id="stop3216"
         style="stop-color:#181818;stop-opacity:1"
         offset="0" />
      <stop
         id="stop3218"
         style="stop-color:#181818;stop-opacity:0"
         offset="1" />
    </linearGradient>
    <radialGradient
       cx="4.9929786"
       cy="43.5"
       r="2.5"
       fx="4.9929786"
       fy="43.5"
       id="radialGradient3015-826"
       xlink:href="#linearGradient3688-464-309-8-331"
       gradientUnits="userSpaceOnUse"
       gradientTransform="matrix(2.003784,0,0,1.4,-20.01187,-104.4)" />
    <linearGradient
       id="linearGradient3688-464-309-8-331">
      <stop
         id="stop3222"
         style="stop-color:#181818;stop-opacity:1"
         offset="0" />
      <stop
         id="stop3224"
         style="stop-color:#181818;stop-opacity:0"
         offset="1" />
    </linearGradient>
    <linearGradient
       id="linearGradient3702-501-757-6-946">
      <stop
         id="stop3228"
         style="stop-color:#181818;stop-opacity:0"
         offset="0" />
      <stop
         id="stop3230"
         style="stop-color:#181818;stop-opacity:1"
         offset="0.5" />
      <stop
         id="stop3232"
         style="stop-color:#181818;stop-opacity:0"
         offset="1" />
    </linearGradient>
    <linearGradient
       x1="25.058096"
       y1="47.027729"
       x2="25.058096"
       y2="39.999443"
       id="linearGradient4395"
       xlink:href="#linearGradient3702-501-757-6-946"
       gradientUnits="userSpaceOnUse" />
    <linearGradient
       x1="42.344383"
       y1="5.322124"
       x2="5.8528481"
       y2="41.890972"
       id="linearGradient3153"
       xlink:href="#linearGradient4187"
       gradientUnits="userSpaceOnUse"
       gradientTransform="matrix(0.71877226,0,0,0.71877226,-17.250531,16.690596)" />
    <radialGradient
       cx="4.0537825"
       cy="7.2024441"
       r="12.671875"
       fx="4.0537825"
       fy="7.2024441"
       id="radialGradient4144"
       xlink:href="#linearGradient4223"
       gradientUnits="userSpaceOnUse"
       gradientTransform="matrix(-13.247871,13.18639,-17.501536,-17.583134,263.87397,79.868634)" />
    <linearGradient
       id="linearGradient4223">
      <stop
         offset="0"
         style="stop-color:#cdf87e;stop-opacity:1"
         id="stop4225" />
      <stop
         offset="0.26238"
         style="stop-color:#a2e34f;stop-opacity:1"
         id="stop4227" />
      <stop
         offset="0.66093999"
         style="stop-color:#68b723;stop-opacity:1"
         id="stop4229" />
      <stop
         offset="1"
         style="stop-color:#1d7e0d;stop-opacity:1"
         id="stop4231" />
    </linearGradient>
    <linearGradient
       id="linearGradient4526"
       osb:paint="solid">
      <stop
         style="stop-color:#ffffff;stop-opacity:1;"
         offset="0"
         id="stop4528" />
    </linearGradient>
    <linearGradient
       id="linearGradient4546">
      <stop
         offset="0"
         style="stop-color:#ffffff;stop-opacity:1"
         id="stop4548" />
      <stop
         offset="0.43313614"
         style="stop-color:#f7f7f7;stop-opacity:1"
         id="stop4550" />
      <stop
         offset="1"
         style="stop-color:#dbe0e1;stop-opacity:1"
         id="stop4552" />
    </linearGradient>
    <linearGradient
       x1="42.344383"
       y1="5.322124"
       x2="5.8528481"
       y2="41.890972"
       id="linearGradient3153-5"
       xlink:href="#linearGradient4187"
       gradientUnits="userSpaceOnUse"
       gradientTransform="matrix(0.71877226,0,0,0.71877226,-43.005217,54.877037)" />
    <linearGradient
       y2="43"
       x2="23.99999"
       y1="4.999989"
       x1="23.99999"
       gradientTransform="translate(-49.220348,-9.9660907)"
       gradientUnits="userSpaceOnUse"
       id="linearGradient3850"
       xlink:href="#linearGradient3924-1" />
    <linearGradient
       id="linearGradient3924-1">
      <stop
         offset="0"
         style="stop-color:#ffffff;stop-opacity:1"
         id="stop3926-3" />
      <stop
         offset="0.06316455"
         style="stop-color:#ffffff;stop-opacity:0.23529412"
         id="stop3928-91" />
      <stop
         offset="0.95056331"
         style="stop-color:#ffffff;stop-opacity:0.15686275"
         id="stop3930-6" />
      <stop
         offset="1"
         style="stop-color:#ffffff;stop-opacity:0.39215687"
         id="stop3932-6" />
    </linearGradient>
    <radialGradient
       r="27.5"
       fy="4.3419166"
       fx="31.999998"
       cy="4.3419166"
       cx="31.999998"
       gradientTransform="matrix(0,1.3045698,-1.3045697,0,12.540628,-33.041959)"
       gradientUnits="userSpaceOnUse"
       id="radialGradient3857"
       xlink:href="#linearGradient4632-92-3-0-8-1-6" />
    <linearGradient
       id="linearGradient4632-92-3-0-8-1-6">
      <stop
         offset="0"
         style="stop-color:#fafafa;stop-opacity:1"
         id="stop4634-68-8-0-2-9-1" />
      <stop
         offset="1"
         style="stop-color:#e1e1e1;stop-opacity:1"
         id="stop4636-8-21-7-1-4-9" />
    </linearGradient>
    <linearGradient
       inkscape:collect="always"
       xlink:href="#linearGradient4187"
       id="linearGradient4374"
       x1="32.803528"
       y1="50.297951"
       x2="32.77763"
       y2="88.128456"
       gradientUnits="userSpaceOnUse"
       gradientTransform="translate(3.2542373,-2.3389831)" />
    <linearGradient
       inkscape:collect="always"
       xlink:href="#linearGradient4187"
       id="linearGradient4435"
       gradientUnits="userSpaceOnUse"
       gradientTransform="translate(3.2542373,-2.3389831)"
       x1="32.803528"
       y1="50.297951"
       x2="32.77763"
       y2="88.128456" />
    <radialGradient
       r="27.5"
       fy="4.3419166"
       fx="31.999998"
       cy="4.3419166"
       cx="31.999998"
       gradientTransform="matrix(0,1.34953,-1.3503552,0,29.988267,-36.032447)"
       gradientUnits="userSpaceOnUse"
       id="radialGradient3857-8"
       xlink:href="#linearGradient4632-92-3-0-8-1-6" />
    <linearGradient
       x1="23.99999"
       y1="4.999989"
       x2="23.99999"
       y2="43"
       id="linearGradient5313"
       xlink:href="#linearGradient3924-1"
       gradientUnits="userSpaceOnUse"
       gradientTransform="matrix(0.71861692,0,0,0.71861692,-11.563869,22.634174)" />
    <radialGradient
       cx="4.0537825"
       cy="7.2024441"
       r="12.671875"
       fx="4.0537825"
       fy="7.2024441"
       id="radialGradient4144-3"
       xlink:href="#linearGradient4223"
       gradientUnits="userSpaceOnUse"
       gradientTransform="matrix(-4.7645917,4.7424803,-6.2944206,-6.3237675,57.768879,3.0806795)" />
    <radialGradient
       cx="4.0537825"
       cy="7.2024441"
       r="12.671875"
       fx="4.0537825"
       fy="7.2024441"
       id="radialGradient4144-6"
       xlink:href="#linearGradient4223"
       gradientUnits="userSpaceOnUse"
       gradientTransform="matrix(-4.648376,4.6268039,-6.14089,-6.1695211,47.957504,-5.3782915)" />
    <radialGradient
       cx="4.0537825"
       cy="7.2024441"
       r="12.671875"
       fx="4.0537825"
       fy="7.2024441"
       id="radialGradient4144-0"
       xlink:href="#linearGradient4223"
       gradientUnits="userSpaceOnUse"
       gradientTransform="matrix(-0.01563512,6.7225151,-8.9224064,-0.02075139,41.55964,-45.068774)" />
    <radialGradient
       gradientTransform="matrix(0.27083381,0,0,0.08762273,4.1449281,61.186316)"
       gradientUnits="userSpaceOnUse"
       xlink:href="#linearGradient3820-7-2-1"
       id="radialGradient3018"
       fy="186.17059"
       fx="99.157013"
       r="62.769119"
       cy="186.17059"
       cx="99.157013" />
    <linearGradient
       id="linearGradient3820-7-2-1">
      <stop
         offset="0"
         style="stop-color:#3d3d3d;stop-opacity:1"
         id="stop3822-2-6-3" />
      <stop
         offset="0.5"
         style="stop-color:#686868;stop-opacity:0.49803922"
         id="stop3864-8-7-7" />
      <stop
         offset="1"
         style="stop-color:#686868;stop-opacity:0"
         id="stop3824-1-2-5" />
    </linearGradient>
    <radialGradient
       gradientTransform="matrix(0.27083381,0,0,0.08762273,-2.8550717,25.186633)"
       gradientUnits="userSpaceOnUse"
       xlink:href="#linearGradient3820-7-2-1"
       id="radialGradient3018-3"
       fy="186.17059"
       fx="99.157013"
       r="62.769119"
       cy="186.17059"
       cx="99.157013" />
    <radialGradient
       gradientTransform="matrix(2.003784,0,0,1.4,27.98813,-17.4)"
       gradientUnits="userSpaceOnUse"
       xlink:href="#linearGradient3688-166-749-2-324"
       id="radialGradient2873-966-168-714"
       fy="43.5"
       fx="4.9929786"
       r="2.5"
       cy="43.5"
       cx="4.9929786" />
    <radialGradient
       gradientTransform="matrix(2.003784,0,0,1.4,-20.01187,-104.4)"
       gradientUnits="userSpaceOnUse"
       xlink:href="#linearGradient3688-166-749-2-324"
       id="radialGradient2875-742-326-419"
       fy="43.5"
       fx="4.9929786"
       r="2.5"
       cy="43.5"
       cx="4.9929786" />
    <radialGradient
       gradientTransform="matrix(1.3962496,0,0,0.46382834,-44.625568,23.672677)"
       gradientUnits="userSpaceOnUse"
       xlink:href="#linearGradient3966"
       id="radialGradient4284"
       fy="44.129044"
       fx="23.668133"
       r="6.0999999"
       cy="44.129044"
       cx="23.668133" />
    <linearGradient
       id="linearGradient3966">
      <stop
         offset="0"
         style="stop-color:#000000;stop-opacity:1"
         id="stop3968" />
      <stop
         offset="1"
         style="stop-color:#000000;stop-opacity:0"
         id="stop3970" />
    </linearGradient>
    <radialGradient
       gradientTransform="matrix(3.7102089,0,0,0.95427648,-99.392668,0.92810054)"
       gradientUnits="userSpaceOnUse"
       xlink:href="#linearGradient3966"
       id="radialGradient4284-8"
       fy="44.129044"
       fx="23.668133"
       r="6.0999999"
       cy="44.129044"
       cx="23.668133" />
    <radialGradient
       cx="4.0537825"
       cy="7.2024441"
       r="12.671875"
       fx="4.0537825"
       fy="7.2024441"
       id="radialGradient4144-9"
       xlink:href="#linearGradient4223"
       gradientUnits="userSpaceOnUse"
       gradientTransform="matrix(-0.01639766,7.0503674,-9.3575459,-0.0217634,34.386788,-39.102036)" />
    <radialGradient
       xlink:href="#linearGradient4632-92-3-0-8-1-6"
       id="radialGradient3857-4"
       gradientUnits="userSpaceOnUse"
       gradientTransform="matrix(0,1.8599863,-1.8599862,0,40.29303,-51.37316)"
       cx="31.999998"
       cy="4.3419166"
       fx="31.999998"
       fy="4.3419166"
       r="27.5" />
    <linearGradient
       inkscape:collect="always"
       xlink:href="#linearGradient4187"
       id="linearGradient4300-3-3"
       x1="13.78658"
       y1="69.213203"
       x2="51.794579"
       y2="69.213203"
       gradientUnits="userSpaceOnUse" />
    <linearGradient
       inkscape:collect="always"
       xlink:href="#linearGradient4187"
       id="linearGradient4200-5-5"
       x1="32.776943"
       y1="50.244785"
       x2="32.830795"
       y2="88.181625"
       gradientUnits="userSpaceOnUse"
       gradientTransform="translate(94.834787,38.761965)" />
    <radialGradient
       cx="4.0537825"
       cy="7.2024441"
       r="12.671875"
       fx="4.0537825"
       fy="7.2024441"
       id="radialGradient4144-09"
       xlink:href="#linearGradient4223"
       gradientUnits="userSpaceOnUse"
       gradientTransform="matrix(-0.02249936,9.6738502,-12.839543,-0.02986176,124.25357,-145.24432)" />
    <radialGradient
       r="27.5"
       fy="4.3419166"
       fx="31.999998"
       cy="4.3419166"
       cx="31.999998"
       gradientTransform="matrix(0,3.6861381,-3.6861379,0,190.82142,-211.65556)"
       gradientUnits="userSpaceOnUse"
       id="radialGradient3651"
       xlink:href="#linearGradient4632-92-3-0-8-1-6" />
    <radialGradient
       cx="4.0537825"
       cy="7.2024441"
       r="12.671875"
       fx="4.0537825"
       fy="7.2024441"
       id="radialGradient4144-36"
       xlink:href="#linearGradient4223"
       gradientUnits="userSpaceOnUse"
       gradientTransform="matrix(-0.04347363,18.691845,-24.808608,-0.0576985,244.98847,69.941367)" />
    <radialGradient
       r="27.5"
       fy="4.3419166"
       fx="31.999998"
       cy="4.3419166"
       cx="31.999998"
       gradientTransform="matrix(1.660665e-8,3.8152634,-3.8152632,1.660665e-8,80.810567,-105.42608)"
       gradientUnits="userSpaceOnUse"
       id="radialGradient3044"
       xlink:href="#linearGradient4632-92-3-0-8-1-6" />
  </defs>
  <metadata
     id="metadata4410">
    <rdf:RDF>
      <cc:Work
         rdf:about="">
        <dc:format>image/svg+xml</dc:format>
        <dc:type
           rdf:resource="http://purl.org/dc/dcmitype/StillImage" />
        <dc:title />
      </cc:Work>
    </rdf:RDF>
  </metadata>
  <g
     id="g4270"
     transform="matrix(2.5406194,0,0,2.5406194,93.417697,3.8684726)">
    <path
       style="color:#000000;display:inline;overflow:visible;visibility:visible;opacity:0.15;fill:url(#radialGradient4284-8);fill-opacity:1;fill-rule:nonzero;stroke:none;stroke-width:1;marker:none;enable-background:accumulate"
       id="path3964-9"
       d="m 11.053328,43.039409 a 22.632276,5.8210869 0 0 1 -45.26455,0 22.632276,5.8210869 0 1 1 45.26455,0 z"
       inkscape:connector-curvature="0" />
    <path
       style="color:#000000;display:inline;overflow:visible;visibility:visible;opacity:0.3;fill:url(#radialGradient4284);fill-opacity:1;fill-rule:nonzero;stroke:none;stroke-width:1;marker:none;enable-background:accumulate"
       id="path3964"
       d="m -3.0618251,44.140976 a 8.517123,2.8293529 0 0 1 -17.0342439,0 8.517123,2.8293529 0 1 1 17.0342439,0 z"
       inkscape:connector-curvature="0" />
  </g>
  <g
     transform="translate(-42.153437,-21.399265)"
     style="fill:#72ffff;fill-opacity:1;stroke:none;stroke-opacity:1"
     id="g4312-0-7">
    <g
       id="g4173-9-9"
       transform="translate(-20.853658,-3.7392766)"
       style="fill:#72ffff;fill-opacity:1;stroke:none" />
  </g>
  <g
     transform="translate(-15.637432,-13.760859)"
     style="fill:#ffffff;fill-opacity:1;stroke:none;stroke-opacity:1"
     id="g4312-0-7-9-6">
    <g
       id="g4173-9-9-2-1"
       transform="translate(-20.853658,-3.7392766)"
       style="fill:#ffffff;fill-opacity:1;stroke:none" />
  </g>
  <g
     id="g4290-6-6-1"
     style="opacity:0.6;fill:none;stroke:#ff0000;stroke-width:0.90183944;stroke-opacity:1"
     transform="matrix(1.1091755,0,0,1.1085135,6.6135455,-34.378931)">
    <g
       id="g4312-2-1-9"
       style="stroke:#ff0000;stroke-width:0.90183944;stroke-opacity:1"
       transform="translate(9.4576272,28.271187)">
      <g
         style="stroke:#ff0000;stroke-width:0.90183944;stroke-opacity:1"
         id="g4173-9-2-4">
        <g
           id="g4177-1-9-7"
           style="fill:none;stroke:#ff0000;stroke-width:0.90183944;stroke-opacity:1"
           transform="translate(-14.542373,5.3898306)" />
      </g>
    </g>
  </g>
  <g
     id="g4290-6-6"
     style="opacity:0.6;fill:#000000;stroke:none;stroke-width:0.90183944;stroke-opacity:1;fill-opacity:1"
     transform="matrix(1.1091755,0,0,1.1085135,-8.7657598,-5.6888898)">
    <g
       id="g4312-2-1"
       style="stroke:none;stroke-width:0.90183944;stroke-opacity:1;fill:#000000;fill-opacity:1"
       transform="translate(9.4576272,28.271187)">
      <g
         style="stroke:none;stroke-width:0.90183944;stroke-opacity:1;fill:#000000;fill-opacity:1"
         id="g4173-9-2">
        <g
           id="g4177-1-9"
           style="fill:#000000;stroke:none;stroke-width:0.90183944;stroke-opacity:1;fill-opacity:1"
           transform="translate(-14.542373,5.3898306)" />
      </g>
    </g>
  </g>
  <g
     id="g4290-6-62-2"
     style="opacity:0.6;fill:none;stroke:#ff0000;stroke-width:0.64643502;stroke-opacity:1"
     transform="matrix(1.5476838,0,0,1.5462071,-73.568084,-77.935178)">
    <g
       id="g4312-2-9-3"
       style="stroke:#ff0000;stroke-width:0.64643502;stroke-opacity:1"
       transform="translate(9.4576272,28.271187)">
      <g
         style="stroke:#ff0000;stroke-width:0.64643502;stroke-opacity:1"
         id="g4173-9-1-7">
        <g
           id="g4177-1-2-5"
           style="fill:none;stroke:#ff0000;stroke-width:0.64643502;stroke-opacity:1"
           transform="translate(-14.542373,5.3898306)" />
      </g>
    </g>
  </g>
  <g
     id="g4290-6-62-2-2"
     style="opacity:0.6;fill:none;stroke:#ff0000;stroke-width:0.64643502;stroke-opacity:1"
     transform="matrix(1.5476838,0,0,1.5462071,-99.983213,-80.243982)">
    <g
       id="g4312-2-9-3-2"
       style="stroke:#ff0000;stroke-width:0.64643502;stroke-opacity:1"
       transform="translate(9.4576272,28.271187)">
      <g
         style="stroke:#ff0000;stroke-width:0.64643502;stroke-opacity:1"
         id="g4173-9-1-7-8">
        <g
           id="g4177-1-2-5-9"
           style="fill:none;stroke:#ff0000;stroke-width:0.64643502;stroke-opacity:1"
           transform="translate(-14.542373,5.3898306)" />
      </g>
    </g>
  </g>
  <rect
     width="82.979561"
     height="82.979561"
     rx="4.0537057"
     ry="4.0537057"
     x="-39.722015"
     y="47.252121"
     id="rect5505-21"
     style="color:#000000;display:inline;overflow:visible;visibility:visible;fill:url(#radialGradient4144);fill-opacity:1;fill-rule:nonzero;stroke:none;stroke-width:0.99999994;marker:none;enable-background:accumulate"
     transform="matrix(0.70710678,-0.70710678,0.70710678,0.70710678,0,0)" />
  <g
     id="g4290-6-62"
     style="opacity:0.6;fill:none;stroke:url(#linearGradient4300-3-3);stroke-width:0.32685456;stroke-opacity:1"
     transform="matrix(3.0607548,0,0,3.0581726,-311.06891,-371.66285)">
    <g
       id="g4312-2-9"
       style="stroke:#009200;stroke-width:0.32685456;stroke-opacity:1"
       transform="translate(9.4576272,28.271187)">
      <g
         style="stroke-width:0.32685456"
         id="g4173-9-1">
        <g
           id="g4177-1-2"
           style="fill:none;stroke:#000000;stroke-width:0.32685456;stroke-opacity:1"
           transform="translate(-14.542373,5.3898306)">
          <path
             id="path4316-2-7"
             style="opacity:1;fill:none;fill-opacity:1;stroke:url(#linearGradient4200-5-5);stroke-width:0.32685456;stroke-miterlimit:4;stroke-dasharray:none;stroke-opacity:1"
             d="m 124.9364,122.67455 c -1.64385,-0.18291 -1.35934,0.0121 -3.82511,-2.5056 l -2.17206,-2.16502 0.054,-0.55843 c 0.62171,-1.94744 0.64279,-1.9582 2.44469,-1.34492 2.4447,0.82847 4.99477,1.22657 6.39625,0.9791 1.28558,-0.21518 2.39201,-0.90378 2.81351,-1.74301 0.4215,-0.82847 0.26344,-2.04428 -0.35827,-2.79744 -0.44258,-0.53796 -1.13805,-0.9253 -4.48897,-2.49617 -1.73868,-0.81771 -3.39307,-1.63542 -3.68812,-1.80757 -1.82298,-1.0867 -3.08748,-2.67908 -3.66704,-4.60501 -0.80363,-2.72849 0.44014,-5.567558 2.08953,-7.218677 2.44833,-2.76038 5.64919,-3.335467 8.84837,-3.121071 0.77978,0.06456 1.71761,0.161391 2.08642,0.225947 l 0.65793,0.292798 1.94414,1.938369 2.02445,2.024595 -0.49582,1.070123 c -0.26344,0.656321 -0.55849,1.248086 -0.66386,1.312646 -0.27398,0.21518 -0.56903,0.17215 -1.61224,-0.23671 -3.51952,-1.387957 -6.51216,-1.463273 -7.71343,-0.193669 -0.52688,0.570249 -0.64279,0.849989 -0.65333,1.549349 -0.0211,1.25885 0.62171,1.77529 4.32037,3.47527 4.38359,2.02276 5.45841,2.68985 6.50162,4.00249 1.15913,1.46327 1.6017,2.9373 1.5174,5.15373 -0.16416,2.73875 -0.80537,3.86283 -2.64284,5.72587 -0.72684,0.82668 -1.55696,1.65737 -2.43622,2.08543 -1.52794,0.73164 -2.65545,0.96834 -4.74187,1.01138 -0.97999,0.0215 -2.12857,0 -2.53953,-0.0538 z m 2.68969,-33.00607 c -0.25399,9.5e-5 -0.50763,0.09872 -0.70505,0.296291 l -17.29708,17.310689 c -0.39485,0.39515 -0.39548,1.01671 -6.6e-4,1.41186 l 17.29772,17.31068 c 0.39484,0.39528 1.01591,0.39451 1.41075,-6.5e-4 l 17.29644,-17.31003 c 0.39471,-0.39515 0.39547,-1.01671 6.5e-4,-1.41186 L 128.33177,89.964771 c -0.19742,-0.197636 -0.4517,-0.296389 -0.70569,-0.296291 z"
             inkscape:connector-curvature="0" />
        </g>
      </g>
    </g>
  </g>
  <path
     style="color:#000000;display:inline;overflow:visible;visibility:visible;fill:url(#radialGradient3044);fill-opacity:1;fill-rule:nonzero;stroke:none;stroke-width:0.99999994;marker:none;enable-background:accumulate"
     d="m 65.676527,16.918002 c -8.43956,0.009 -16.58748,2.236427 -23.03711,9.501947 l -0.01,0.0117 -0.01,0.0117 c -4.9346,4.93561 -8.66309,13.46034 -6.26953,21.58008 1.73786,5.76795 5.51638,10.52806 10.99609,13.79297 l 0.004,0.002 c 0.39963,0.23276 1.91204,1.00469 3.95117,2.00586 2.04113,1.00215 4.63494,2.25097 7.29297,3.5 5.13043,2.40305 8.22966,3.8994 10.23828,5.01562 2.00794,1.11585 2.95234,1.876 3.67383,2.75196 2.04427,2.47441 2.55996,6.34284 1.1582,9.09765 l 0,0.002 c -1.39848,2.78051 -4.91322,4.91603 -8.9707,5.5957 -4.48215,0.79078 -12.28764,-0.45984 -19.82422,-3.01172 l -0.002,0 c -1.37809,-0.46864 -2.40877,-0.81387 -3.16797,-0.9707 -0.7592,-0.15681 -1.19964,-0.12427 -1.52539,0.0547 -0.32575,0.17895 -0.63363,0.56909 -0.97461,1.3379 -0.33643,0.75855 -0.69398,1.86571 -1.16016,3.32421 l -0.13672,1.41407 6.48242,6.45507 0.002,0.002 c 3.77577,3.852031 5.4577,5.622961 6.71289,6.441401 0.62759,0.40922 1.14183,0.59585 1.84179,0.73047 0.69997,0.13462 1.58559,0.20301 2.85157,0.34375 -1.7e-4,0.003 0.005,9.6e-4 0.008,0.002 1.15605,0.15115 4.71362,0.22555 7.69726,0.16015 l 0.002,0 c 6.35083,-0.1309 9.67786,-0.82963 14.30469,-3.04297 2.57371,-1.25192 5.09109,-3.74671 7.30078,-6.257811 l 0.008,-0.0117 0.0117,-0.01 c 5.59376,-5.66683 7.44683,-8.88311 7.94531,-17.1875 0.25338,-6.6973 -1.05419,-11.0288 -4.53711,-15.42188 -1.57011,-1.97396 -3.12423,-3.42891 -5.98633,-5.1914 -2.8621,-1.76251 -7.02679,-3.81552 -13.73047,-6.90626 -5.66781,-2.60284 -9.00637,-4.29175 -10.98632,-5.88281 -1.97995,-1.59106 -2.56305,-3.19586 -2.5293,-5.20703 0.0331,-2.19202 0.48963,-3.29143 2.13281,-5.06836 l 0.002,-0.006 0.002,-0.002 c 1.98432,-2.09543 5.34266,-3.0111 9.51953,-2.90625 4.17639,0.10485 9.20718,1.23852 14.63476,3.37695 l 0.002,0 c 1.58565,0.62086 2.59538,0.95463 3.23828,1.04883 0.64326,0.0943 0.86513,0.0133 1.20312,-0.25195 l 0.0234,-0.0176 0.0254,-0.0156 c -0.12084,0.074 0.0461,-0.0576 0.17578,-0.26562 0.12967,-0.20801 0.29362,-0.50605 0.47266,-0.86133 0.35807,-0.71055 0.78122,-1.65459 1.17969,-2.64648 l 0.006,-0.0137 1.375,-2.9668 -5.94922,-5.94336 -5.88477,-5.86328 -1.86328,-0.828127 c -1.09097,-0.18756 -3.92952,-0.48449 -6.28906,-0.67969 -1.21344,-0.0811 -2.4252,-0.12432 -3.63086,-0.12304 z m -30.28711,31.388667 0,0.002 0.002,0 0,-0.002 -0.002,0 z"
     id="rect5505-21-3"
     inkscape:connector-curvature="0" />
  <rect
     width="82.985603"
     height="82.985603"
     rx="4.0540414"
     ry="4.0540414"
     x="-39.725037"
     y="47.2491"
     id="rect5505-21-6"
     style="color:#000000;clip-rule:nonzero;display:inline;overflow:visible;visibility:visible;opacity:0.4;isolation:auto;mix-blend-mode:normal;color-interpolation:sRGB;color-interpolation-filters:linearRGB;solid-color:#000000;solid-opacity:1;fill:none;fill-opacity:1;fill-rule:nonzero;stroke:#0a3600;stroke-width:1;stroke-linecap:round;stroke-linejoin:miter;stroke-miterlimit:4;stroke-dasharray:none;stroke-dashoffset:0;stroke-opacity:1;marker:none;color-rendering:auto;image-rendering:auto;shape-rendering:auto;text-rendering:auto;enable-background:accumulate"
     transform="matrix(0.70710678,-0.70710678,0.70710678,0.70710678,0,0)" />
</svg>
