<?xml version="1.0" encoding="UTF-8" standalone="no"?>
<!-- Created with Inkscape (http://www.inkscape.org/) -->

<svg
   xmlns:dc="http://purl.org/dc/elements/1.1/"
   xmlns:cc="http://creativecommons.org/ns#"
   xmlns:rdf="http://www.w3.org/1999/02/22-rdf-syntax-ns#"
   xmlns:svg="http://www.w3.org/2000/svg"
   xmlns="http://www.w3.org/2000/svg"
   xmlns:xlink="http://www.w3.org/1999/xlink"
   xmlns:sodipodi="http://sodipodi.sourceforge.net/DTD/sodipodi-0.dtd"
   xmlns:inkscape="http://www.inkscape.org/namespaces/inkscape"
   id="svg3143"
   height="24"
   width="24"
   version="1.1"
   inkscape:version="0.91 r13725"
   sodipodi:docname="vmware-player_24.svg">
  <sodipodi:namedview
     pagecolor="#ffffff"
     bordercolor="#666666"
     borderopacity="1"
     objecttolerance="10"
     gridtolerance="10"
     guidetolerance="10"
     inkscape:pageopacity="0"
     inkscape:pageshadow="2"
     inkscape:window-width="1366"
     inkscape:window-height="705"
     id="namedview50"
     showgrid="false"
     inkscape:zoom="22.166666"
     inkscape:cx="12.398671"
     inkscape:cy="6.7640909"
     inkscape:window-x="0"
     inkscape:window-y="30"
     inkscape:window-maximized="1"
     inkscape:current-layer="svg3143"
     showguides="true"
     inkscape:guide-bbox="true" />
  <defs
     id="defs3145">
    <linearGradient
       inkscape:collect="always"
       id="linearGradient4226">
      <stop
         style="stop-color:#fad229;stop-opacity:1"
         offset="0"
         id="stop4228" />
      <stop
         style="stop-color:#f3b500;stop-opacity:1"
         offset="1"
         id="stop4230" />
    </linearGradient>
    <radialGradient
       id="radialGradient3030"
       gradientUnits="userSpaceOnUse"
       cy="43.5"
       cx="4.993"
       gradientTransform="matrix(2.0038 0 0 1.4 27.988 -17.4)"
       r="2.5">
      <stop
         id="stop2883"
         stop-color="#181818"
         offset="0" />
      <stop
         id="stop2885"
         stop-color="#181818"
         stop-opacity="0"
         offset="1" />
    </radialGradient>
    <radialGradient
       id="radialGradient3032"
       gradientUnits="userSpaceOnUse"
       cy="43.5"
       cx="4.993"
       gradientTransform="matrix(2.0038 0 0 1.4 -20.012 -104.4)"
       r="2.5">
      <stop
         id="stop2889"
         stop-color="#181818"
         offset="0" />
      <stop
         id="stop2891"
         stop-color="#181818"
         stop-opacity="0"
         offset="1" />
    </radialGradient>
    <linearGradient
       id="linearGradient3034"
       y2="39.999"
       gradientUnits="userSpaceOnUse"
       x2="25.058"
       y1="47.028"
       x1="25.058">
      <stop
         id="stop2895"
         stop-color="#181818"
         stop-opacity="0"
         offset="0" />
      <stop
         id="stop2897"
         stop-color="#181818"
         offset=".5" />
      <stop
         id="stop2899"
         stop-color="#181818"
         stop-opacity="0"
         offset="1" />
    </linearGradient>
    <linearGradient
       id="linearGradient3044"
       y2="43"
       gradientUnits="userSpaceOnUse"
       x2="24"
       gradientTransform="translate(48.997719,0.36200872)"
       y1="5"
       x1="24">
      <stop
         id="stop3926-7"
         stop-color="#fff"
         offset="0" />
      <stop
         id="stop3928-3"
         stop-color="#fff"
         stop-opacity=".23529"
         offset=".063165" />
      <stop
         id="stop3930-7"
         stop-color="#fff"
         stop-opacity=".15686"
         offset=".95056" />
      <stop
         id="stop3932-1"
         stop-color="#fff"
         stop-opacity=".39216"
         offset="1" />
    </linearGradient>
    <radialGradient
       id="radialGradient3053"
       gradientUnits="userSpaceOnUse"
       cy="9.9941"
       cx="8.2761"
       gradientTransform="matrix(0,6.6678,-8.1859,0,154.87772,-60.100992)"
       r="12.672">
      <stop
         id="stop3244"
         stop-color="#7ec1f8"
         offset="0" />
      <stop
         id="stop3246"
         stop-color="#4f97e3"
         offset=".26238" />
      <stop
         id="stop3248"
         stop-color="#2674c6"
         offset=".66094" />
      <stop
         id="stop3250"
         stop-color="#0b4169"
         offset="1" />
    </radialGradient>
    <clipPath
       id="clipPath-929888831">
      <g
         id="g17"
         transform="translate(0 -1004.4)">
        <path
           id="path19"
           d="m-24 13c0 1.105-0.672 2-1.5 2s-1.5-0.895-1.5-2 0.672-2 1.5-2 1.5 0.895 1.5 2z"
           transform="matrix(15.333 0 0 11.5 415 878.86)"
           fill="#1890d0" />
      </g>
    </clipPath>
    <radialGradient
       gradientTransform="matrix(2.003784,0,0,1.4,27.98813,-17.4)"
       gradientUnits="userSpaceOnUse"
       xlink:href="#linearGradient3688-166-749-2-324"
       id="radialGradient3013-896"
       fy="43.5"
       fx="4.9929786"
       r="2.5"
       cy="43.5"
       cx="4.9929786" />
    <linearGradient
       id="linearGradient3688-166-749-2-324">
      <stop
         offset="0"
         style="stop-color:#181818;stop-opacity:1"
         id="stop3216" />
      <stop
         offset="1"
         style="stop-color:#181818;stop-opacity:0"
         id="stop3218" />
    </linearGradient>
    <radialGradient
       gradientTransform="matrix(2.003784,0,0,1.4,-20.01187,-104.4)"
       gradientUnits="userSpaceOnUse"
       xlink:href="#linearGradient3688-166-749-2-324"
       id="radialGradient3015-826"
       fy="43.5"
       fx="4.9929786"
       r="2.5"
       cy="43.5"
       cx="4.9929786" />
    <linearGradient
       gradientUnits="userSpaceOnUse"
       xlink:href="#linearGradient3702-501-757-6-946"
       id="linearGradient4395"
       y2="39.999443"
       x2="25.058096"
       y1="47.027729"
       x1="25.058096" />
    <linearGradient
       id="linearGradient3702-501-757-6-946">
      <stop
         offset="0"
         style="stop-color:#181818;stop-opacity:0"
         id="stop3228" />
      <stop
         offset="0.5"
         style="stop-color:#181818;stop-opacity:1"
         id="stop3230" />
      <stop
         offset="1"
         style="stop-color:#181818;stop-opacity:0"
         id="stop3232" />
    </linearGradient>
    <radialGradient
       gradientTransform="matrix(0,9.4975523,-11.65996,0,140.93055,-79.160972)"
       gradientUnits="userSpaceOnUse"
       xlink:href="#linearGradient2867-449-88-871-390-598-476-591-434-148-57-177-8-3-3-6-4-8-8-8-5"
       id="radialGradient4144"
       fy="9.9571075"
       fx="6.2001843"
       r="12.671875"
       cy="9.9571075"
       cx="6.7304144" />
    <linearGradient
       id="linearGradient2867-449-88-871-390-598-476-591-434-148-57-177-8-3-3-6-4-8-8-8-5">
      <stop
         offset="0"
         style="stop-color:#919caf;stop-opacity:1"
         id="stop3750-1-0-7-6-6-1-3-9-3" />
      <stop
         offset="0.26238"
         style="stop-color:#68758e;stop-opacity:1"
         id="stop3752-3-7-4-0-32-8-923-0-7" />
      <stop
         offset="0.704952"
         style="stop-color:#485a6c;stop-opacity:1"
         id="stop3754-1-8-5-2-7-6-7-1-9" />
      <stop
         offset="1"
         style="stop-color:#444c5c;stop-opacity:1"
         id="stop3756-1-6-2-6-6-1-96-6-0" />
    </linearGradient>
    <linearGradient
       gradientTransform="matrix(0.7,0,0,0.7,-68.815024,-4.2060077)"
       gradientUnits="userSpaceOnUse"
       xlink:href="#linearGradient4187"
       id="linearGradient3153"
       y2="41.890972"
       x2="23.99999"
       y1="6.1111298"
       x1="23.99999" />
    <linearGradient
       id="linearGradient4187">
      <stop
         offset="0"
         style="stop-color:#ffffff;stop-opacity:1"
         id="stop4189" />
      <stop
         offset="0.02099473"
         style="stop-color:#ffffff;stop-opacity:0.23529412"
         id="stop4191" />
      <stop
         offset="0.97696"
         style="stop-color:#ffffff;stop-opacity:0.15686275"
         id="stop4193" />
      <stop
         offset="1"
         style="stop-color:#ffffff;stop-opacity:0.39215687"
         id="stop4195" />
    </linearGradient>
    <linearGradient
       gradientTransform="matrix(1.0521608,0,0,-1.0532519,-1.2521612,51.339874)"
       gradientUnits="userSpaceOnUse"
       xlink:href="#linearGradient4311"
       id="linearGradient3143"
       y2="25.361452"
       x2="30.212982"
       y1="21.416878"
       x1="30.212982" />
    <linearGradient
       id="linearGradient4311">
      <stop
         offset="0"
         style="stop-color:#000000;stop-opacity:1"
         id="stop4313" />
      <stop
         offset="1"
         style="stop-color:#000000;stop-opacity:0"
         id="stop4315" />
    </linearGradient>
    <radialGradient
       gradientTransform="matrix(2.003784,0,0,1.4,27.98813,-17.4)"
       gradientUnits="userSpaceOnUse"
       xlink:href="#linearGradient3688-166-749-2-324"
       id="radialGradient3013-896-3"
       fy="43.5"
       fx="4.9929786"
       r="2.5"
       cy="43.5"
       cx="4.9929786" />
    <radialGradient
       gradientTransform="matrix(2.003784,0,0,1.4,-20.01187,-104.4)"
       gradientUnits="userSpaceOnUse"
       xlink:href="#linearGradient3688-166-749-2-324"
       id="radialGradient3015-826-5"
       fy="43.5"
       fx="4.9929786"
       r="2.5"
       cy="43.5"
       cx="4.9929786" />
    <radialGradient
       gradientTransform="matrix(0,6.6482866,-8.161972,0,29.836353,-60.318695)"
       gradientUnits="userSpaceOnUse"
       xlink:href="#radialGradient3053"
       id="radialGradient4144-2"
       fy="9.9571075"
       fx="6.2001843"
       r="12.671875"
       cy="9.9571075"
       cx="6.7304144" />
    <radialGradient
       gradientTransform="matrix(2.003784,0,0,1.4,27.98813,-17.4)"
       gradientUnits="userSpaceOnUse"
       xlink:href="#linearGradient3688-166-749-2-324"
       id="radialGradient3493"
       fy="43.5"
       fx="4.9929786"
       r="2.5"
       cy="43.5"
       cx="4.9929786" />
    <radialGradient
       gradientTransform="matrix(2.003784,0,0,1.4,-20.01187,-104.4)"
       gradientUnits="userSpaceOnUse"
       xlink:href="#linearGradient3688-166-749-2-324"
       id="radialGradient3495"
       fy="43.5"
       fx="4.9929786"
       r="2.5"
       cy="43.5"
       cx="4.9929786" />
    <radialGradient
       gradientTransform="matrix(0,4.6965918,-5.7659143,0,45.882949,-39.568323)"
       gradientUnits="userSpaceOnUse"
       xlink:href="#radialGradient3053"
       id="radialGradient4388"
       fy="9.9571075"
       fx="6.2001843"
       r="12.671875"
       cy="9.9571075"
       cx="6.7304144" />
    <linearGradient
       gradientTransform="matrix(0.48262548,0,0,0.48262548,-23.522863,0.35684565)"
       gradientUnits="userSpaceOnUse"
       xlink:href="#linearGradient3924-0"
       id="linearGradient3483"
       y2="41.679485"
       x2="38.546436"
       y1="6.3738203"
       x1="38.546436" />
    <linearGradient
       id="linearGradient3924-0">
      <stop
         offset="0"
         style="stop-color:#ffffff;stop-opacity:1"
         id="stop3926-6" />
      <stop
         offset="0.03798588"
         style="stop-color:#ffffff;stop-opacity:0.23529412"
         id="stop3928-3-3" />
      <stop
         offset="0.96200818"
         style="stop-color:#ffffff;stop-opacity:0.15686275"
         id="stop3930-2" />
      <stop
         offset="1"
         style="stop-color:#ffffff;stop-opacity:0.39215687"
         id="stop3932-62" />
    </linearGradient>
    <radialGradient
       gradientTransform="matrix(2.003784,0,0,1.4,27.98813,-17.4)"
       gradientUnits="userSpaceOnUse"
       xlink:href="#linearGradient3688-166-749-2-324"
       id="radialGradient3082-6"
       fy="43.5"
       fx="4.9929786"
       r="2.5"
       cy="43.5"
       cx="4.9929786" />
    <radialGradient
       gradientTransform="matrix(2.003784,0,0,1.4,-20.01187,-104.4)"
       gradientUnits="userSpaceOnUse"
       xlink:href="#linearGradient3688-166-749-2-324"
       id="radialGradient3084-4"
       fy="43.5"
       fx="4.9929786"
       r="2.5"
       cy="43.5"
       cx="4.9929786" />
    <linearGradient
       gradientUnits="userSpaceOnUse"
       xlink:href="#linearGradient3702-501-757-6-946"
       id="linearGradient3086-8"
       y2="39.999443"
       x2="25.058096"
       y1="47.027729"
       x1="25.058096" />
    <radialGradient
       gradientTransform="matrix(0,4.6270127,-5.6804933,0,68.966159,-38.745063)"
       gradientUnits="userSpaceOnUse"
       xlink:href="#radialGradient3053"
       id="radialGradient3215"
       fy="9.9571075"
       fx="6.2001843"
       r="12.671875"
       cy="9.9571075"
       cx="6.7304144" />
    <linearGradient
       gradientTransform="matrix(0.45945947,0,0,0.45945947,0.9742203,0.9717328)"
       gradientUnits="userSpaceOnUse"
       xlink:href="#linearGradient4095"
       id="linearGradient3233"
       y2="41.229313"
       x2="23.99999"
       y1="6.5493407"
       x1="23.99999" />
    <linearGradient
       id="linearGradient4095">
      <stop
         offset="0"
         style="stop-color:#ffffff;stop-opacity:1"
         id="stop4097" />
      <stop
         offset="0.01652508"
         style="stop-color:#ffffff;stop-opacity:0.23529412"
         id="stop4100" />
      <stop
         offset="0.98001981"
         style="stop-color:#ffffff;stop-opacity:0.15686275"
         id="stop4102" />
      <stop
         offset="1"
         style="stop-color:#ffffff;stop-opacity:0.39215687"
         id="stop4104" />
    </linearGradient>
    <linearGradient
       gradientTransform="matrix(1.0181566,0,0,-1.0195328,-0.21530444,32.481143)"
       gradientUnits="userSpaceOnUse"
       xlink:href="#linearGradient4311"
       id="linearGradient3223"
       y2="20.187275"
       x2="12.913282"
       y1="17.533852"
       x1="12.913282" />
    <linearGradient
       inkscape:collect="always"
       xlink:href="#linearGradient4226"
       id="linearGradient4212"
       x1="23.939856"
       y1="10.879699"
       x2="24.015045"
       y2="39.030075"
       gradientUnits="userSpaceOnUse"
       gradientTransform="matrix(0.67857143,0,0,0.67857143,-28.439348,-5.1588674)" />
    <radialGradient
       gradientTransform="matrix(2.003784,0,0,1.4,27.98813,-17.4)"
       gradientUnits="userSpaceOnUse"
       xlink:href="#linearGradient3688-166-749-2-324"
       id="radialGradient3013-896-3-3"
       fy="43.5"
       fx="4.9929786"
       r="2.5"
       cy="43.5"
       cx="4.9929786" />
    <radialGradient
       gradientTransform="matrix(2.003784,0,0,1.4,-20.01187,-104.4)"
       gradientUnits="userSpaceOnUse"
       xlink:href="#linearGradient3688-166-749-2-324"
       id="radialGradient3015-826-5-2"
       fy="43.5"
       fx="4.9929786"
       r="2.5"
       cy="43.5"
       cx="4.9929786" />
    <radialGradient
       gradientTransform="matrix(2.003784,0,0,1.4,27.98813,-17.4)"
       gradientUnits="userSpaceOnUse"
       xlink:href="#linearGradient3688-166-749-2-324"
       id="radialGradient3013-896-3-0"
       fy="43.5"
       fx="4.9929786"
       r="2.5"
       cy="43.5"
       cx="4.9929786" />
    <radialGradient
       gradientTransform="matrix(2.003784,0,0,1.4,-20.01187,-104.4)"
       gradientUnits="userSpaceOnUse"
       xlink:href="#linearGradient3688-166-749-2-324"
       id="radialGradient3015-826-5-7"
       fy="43.5"
       fx="4.9929786"
       r="2.5"
       cy="43.5"
       cx="4.9929786" />
    <linearGradient
       inkscape:collect="always"
       xlink:href="#linearGradient3702-501-757-6-946"
       id="linearGradient4919"
       gradientUnits="userSpaceOnUse"
       x1="25.058096"
       y1="47.027729"
       x2="25.058096"
       y2="39.999443" />
    <linearGradient
       inkscape:collect="always"
       xlink:href="#linearGradient4187"
       id="linearGradient4343"
       x1="-21.923149"
       y1="23.207211"
       x2="-21.877125"
       y2="42.118176"
       gradientUnits="userSpaceOnUse"
       gradientTransform="translate(9.791621,-20.806688)" />
  </defs>
  <metadata
     id="metadata3148">
    <rdf:RDF>
      <cc:Work
         rdf:about="">
        <dc:format>image/svg+xml</dc:format>
        <dc:type
           rdf:resource="http://purl.org/dc/dcmitype/StillImage" />
        <dc:title />
      </cc:Work>
    </rdf:RDF>
  </metadata>
  <g
     style="opacity:0.05"
     id="g3712-0-2-5"
     transform="matrix(-0.57894737,0,0,-0.4285714,25.894737,40.142856)">
    <rect
       style="fill:url(#radialGradient3013-896-3-0);fill-opacity:1;stroke:none"
       id="rect2801-4-6-9"
       y="40"
       x="38"
       height="7"
       width="5" />
    <rect
       style="fill:url(#radialGradient3015-826-5-7);fill-opacity:1;stroke:none"
       id="rect3696-8-1-7"
       transform="scale(-1,-1)"
       y="-47"
       x="-10"
       height="7"
       width="5" />
    <rect
       style="fill:url(#linearGradient4919);fill-opacity:1;stroke:none"
       id="rect3700-7-8-7"
       y="40"
       x="10"
       height="7.0000005"
       width="28" />
  </g>
  <g
     style="opacity:0.1"
     id="g3712-0-2"
     transform="matrix(-0.31110526,0,0,-0.4285714,24.555526,40.142856)">
    <rect
       style="fill:url(#radialGradient3013-896-3-3);fill-opacity:1;stroke:none"
       id="rect2801-4-6"
       y="40"
       x="38"
       height="7"
       width="5" />
    <rect
       style="fill:url(#radialGradient3015-826-5-2);fill-opacity:1;stroke:none"
       id="rect3696-8-1"
       transform="scale(-1,-1)"
       y="-47"
       x="-10"
       height="7"
       width="5" />
    <rect
       style="fill:url(#linearGradient4395);fill-opacity:1;stroke:none"
       id="rect3700-7-8"
       y="40"
       x="10"
       height="7.0000005"
       width="28" />
  </g>
  <g
     id="g4224"
     fill="#ffc239"
     transform="matrix(1.0826 0 0 -1.0785 -1.975 50.826)">
    <g
       id="g4226"
       fill="#ffc239"
       clip-path="url(#clipPath-929888831)">
      <!-- color: #dfdfdf -->
    </g>
  </g>
  <g
     id="g4232"
     fill="#ffc239"
     transform="matrix(-1.0826 0 0 -1.0785 49.975 50.826)">
    <g
       id="g4234"
       fill="#ffc239"
       clip-path="url(#clipPath-929888831)">
      <!-- color: #dfdfdf -->
    </g>
  </g>
  <g
     id="g4294"
     stroke-linejoin="round"
     opacity=".15"
     transform="matrix(.99936 0 0 .99553 .022037 .46841)"
     stroke="#fff"
     stroke-linecap="round"
     stroke-width="1.8509"
     fill="none">
    <g
       id="g4296"
       transform="matrix(1.0833 0 0 1.0833 -2 -1.3)">
      <g
         id="g4298"
         stroke-linejoin="round"
         clip-path="url(#clipPath-929888831)"
         stroke="#fff"
         stroke-linecap="round"
         stroke-width="1.8509"
         fill="none">
        <!-- color: #dfdfdf -->
      </g>
    </g>
    <g
       id="g4304"
       transform="matrix(1.0833 0 0 -1.0833 -1.9983 50.583)">
      <g
         id="g4306"
         stroke-linejoin="round"
         clip-path="url(#clipPath-929888831)"
         stroke="#fff"
         stroke-linecap="round"
         stroke-width="1.8509"
         fill="none">
        <!-- color: #dfdfdf -->
      </g>
    </g>
    <g
       id="g4310"
       transform="matrix(-1.0833 0 0 -1.0833 49.985 50.583)">
      <g
         id="g4312"
         stroke-linejoin="round"
         clip-path="url(#clipPath-929888831)"
         stroke="#fff"
         stroke-linecap="round"
         stroke-width="1.8509"
         fill="none">
        <!-- color: #dfdfdf -->
      </g>
    </g>
  </g>
  <g
     id="g4345"
     transform="translate(24.153629,0.194581)">
    <path
       sodipodi:nodetypes="sssssccccssccccssscscssccccssccccssssscccssccsscccssccccsssssssscccc"
       d="m -20.296486,2.305418 c -0.751857,0 -1.357143,0.6052851 -1.357143,1.3571426 l 0,6.1071428 c 0,0.7518566 0.605286,1.3571426 1.357143,1.3571426 0.751857,0 1.357143,-0.605286 1.357143,-1.3571426 l 0,-2.8415177 2.035714,2.0357147 0,2.1629456 2.714285,0 0,-0.678571 c 0,-0.375929 0.302643,-0.6785716 0.678572,-0.6785716 l 0.678571,0 0,-2.7142852 -2.162945,0 -2.035715,-2.035715 2.841857,0 c 0.751857,0 1.357142,-0.6052851 1.357142,-1.3571426 0,-0.7518575 -0.605285,-1.3571426 -1.357142,-1.3571426 l -6.107143,0 z m 10.178571,0 c -0.751857,0 -1.357143,0.6052851 -1.357143,1.3571426 0,0.7518575 0.605286,1.3571426 1.357143,1.3571426 l 2.8415179,0 -2.035715,2.035715 -2.1629459,0 0,2.7142852 0.678571,0 c 0.375929,0 0.678572,0.3026426 0.678572,0.6785716 l 0,0.678571 2.7142859,0 0,-2.1629456 2.035714,-2.0357147 0,2.8418577 c 0,0.7518566 0.605286,1.3571416 1.357143,1.3571416 0.751857,0 1.357143,-0.605285 1.357143,-1.3571416 l 0,-6.1071436 c 0,-0.7518568 -0.605286,-1.3571426 -1.357143,-1.3571426 l -6.1071429,0 z m -6.785714,10.178572 0,2.714286 c 0,0.751856 0.605286,1.357142 1.357143,1.357142 l 2.714285,0 0,-2.714286 -0.678571,0 c -0.375929,0 -0.678572,-0.302642 -0.678572,-0.678571 l 0,-0.678571 z m 6.785714,0 0,0.678571 c 0,0.375929 -0.302643,0.678571 -0.678572,0.678571 l -0.678571,0 0,2.714286 2.1629459,0 2.035715,2.035714 -2.8418569,0 c -0.751858,0 -1.357222,0.605287 -1.357222,1.357144 0,0.751856 0.605364,1.357143 1.357222,1.357143 l 6.1071429,0 c 0.751857,0 1.356977,-0.605287 1.356995,-1.357143 l 1.47e-4,-6.107144 c 1.8e-5,-0.751857 -0.605286,-1.357142 -1.357143,-1.357142 -0.751858,0 -1.357143,0.605285 -1.357143,1.357142 l 0,2.841519 -2.035714,-2.035715 0,-2.163286 c -0.904289,1.9e-5 -1.811105,-1.83e-4 -2.7139459,3.4e-4 z"
       style="color:#000000;fill:url(#linearGradient4212);fill-opacity:1;enable-background:new"
       id="rect3863"
       inkscape:connector-curvature="0" />
    <path
       sodipodi:nodetypes="sssssccccssccccssscscssccccssccccssssscccssccsscccssccccsssssssscccc"
       d="m -20.296487,2.305418 c -0.751857,0 -1.357142,0.6052851 -1.357142,1.3571426 l 0,6.1071428 c 0,0.7518566 0.605285,1.3571426 1.357142,1.3571426 0.751858,0 1.357143,-0.605286 1.357143,-1.3571426 l 0,-2.8415177 2.035715,2.0357147 0,2.1629456 2.714285,0 0,-0.678571 c 0,-0.375929 0.302642,-0.6785716 0.678571,-0.6785716 l 0.678572,0 0,-2.7142852 -2.162946,0 -2.035715,-2.035715 2.841857,0 c 0.751857,0 1.357143,-0.6052851 1.357143,-1.3571426 0,-0.7518575 -0.605286,-1.3571426 -1.357143,-1.3571426 l -6.107143,0 z m 10.178571,0 c -0.751857,0 -1.357143,0.6052851 -1.357143,1.3571426 0,0.7518575 0.605286,1.3571426 1.357143,1.3571426 l 2.8415179,0 -2.035714,2.035715 -2.1629469,0 0,2.7142852 0.678572,0 c 0.375928,0 0.678571,0.3026426 0.678571,0.6785716 l 0,0.678571 2.7142859,0 0,-2.1629456 2.035714,-2.0357147 0,2.8418577 c 0,0.7518566 0.605286,1.3571416 1.357143,1.3571416 0.751857,0 1.357143,-0.605285 1.357143,-1.3571416 l 0,-6.1071436 c 0,-0.7518568 -0.605286,-1.3571426 -1.357143,-1.3571426 l -6.1071429,0 z m -6.785713,10.178572 0,2.714286 c 0,0.751856 0.605286,1.357142 1.357142,1.357142 l 2.714286,0 0,-2.714286 -0.678572,0 c -0.375929,0 -0.678571,-0.302642 -0.678571,-0.678571 l 0,-0.678571 z m 6.785713,0 0,0.678571 c 0,0.375929 -0.302643,0.678571 -0.678571,0.678571 l -0.678572,0 0,2.714286 2.1629469,0 2.035714,2.035714 -2.8418569,0 c -0.751857,0 -1.357374,0.605287 -1.357374,1.357144 0,0.751856 0.605517,1.357143 1.357374,1.357143 l 6.1071429,0 c 0.751857,0 1.357525,-0.605218 1.3574831,-1.357075 l -3.401e-4,-6.107212 c -4.19e-5,-0.751857 -0.605286,-1.357142 -1.357143,-1.357142 -0.751857,0 -1.357143,0.605285 -1.357143,1.357142 l 0,2.841519 -2.035715,-2.035715 0,-2.163286 c -0.904289,1.9e-5 -1.811104,-1.83e-4 -2.7139459,3.4e-4 z"
       style="color:#000000;opacity:0.3;fill:none;fill-opacity:1;stroke:#ad5f00;stroke-width:1;stroke-opacity:1;enable-background:new"
       id="rect3863-5-1"
       inkscape:connector-curvature="0" />
    <path
       inkscape:connector-curvature="0"
       id="rect3863-9"
       d="m -20.29816,3.3054183 c -0.215155,0 -0.355469,0.142268 -0.355469,0.357422 l 0,6.1074214 c 0,0.215154 0.140315,0.3574223 0.355469,0.3574223 0.215154,0 0.357422,-0.1422683 0.357422,-0.3574223 l 0,-5.2558594 4.037109,4.035156 0,1.5781257 0.847657,0 c 0.142876,-0.6273657 0.595554,-1.0790027 1.222656,-1.2226567 l 0,-0.849609 -1.576172,0 -4.03711,-4.035157 5.25586,0 c 0.215155,0 0.357422,-0.142265 0.357422,-0.357421 0,-0.215155 -0.142267,-0.357422 -0.357422,-0.357422 l -6.105469,0 -0.002,0 z m 10.179688,0 c -0.215156,0 -0.357422,0.142268 -0.357422,0.357422 0,0.215156 0.142267,0.357421 0.357422,0.357421 l 5.255859,0 -4.035156,4.035157 -1.578125,0 0,0.849609 c 0.627101,0.143654 1.079779,0.595291 1.222656,1.2226567 l 0.849609,0 0,-1.5781257 4.035157,-4.035156 0,5.2558594 c 0,0.215154 0.142266,0.3574223 0.357421,0.3574223 0.215155,0 0.357422,-0.1422683 0.357422,-0.3574223 l 0,-6.1074214 c 0,-0.215154 -0.142268,-0.357422 -0.357422,-0.357422 l -6.107421,0 z m -5.785157,10.1777347 0,1.714844 c 0,0.215152 0.140315,0.357422 0.355469,0.357422 l 1.714844,0 0,-0.84961 c -0.627101,-0.143654 -1.07978,-0.595292 -1.222656,-1.222656 l -0.847657,0 z m 6.650391,0 c -0.142877,0.627364 -0.595556,1.079002 -1.222656,1.222656 l 0,0.84961 1.578125,0 4.035156,4.035156 -5.255859,0 c -0.215156,0 -0.357422,0.142338 -0.357422,0.357422 0,0.215083 0.142267,0.357422 0.357422,0.357422 l 6.107421,0 c 0.215153,0 0.355463,-0.14211 0.355469,-0.357422 l 0,-6.107422 c 5e-6,-0.215125 -0.140314,-0.357422 -0.355469,-0.357422 -0.215157,0 -0.357421,0.142267 -0.357421,0.357422 l 0,5.255859 -4.03711,-4.035156 0,-1.578125 c -0.282826,-5e-6 -0.565071,-4.9e-5 -0.847656,0 z"
       style="color:#000000;fill:none;fill-opacity:1;stroke:url(#linearGradient4343);stroke-opacity:1;enable-background:new" />
  </g>
</svg>
