<?xml version="1.0" encoding="UTF-8" standalone="no"?>
<!-- Created with Inkscape (http://www.inkscape.org/) -->

<svg
   xmlns:dc="http://purl.org/dc/elements/1.1/"
   xmlns:cc="http://creativecommons.org/ns#"
   xmlns:rdf="http://www.w3.org/1999/02/22-rdf-syntax-ns#"
   xmlns:svg="http://www.w3.org/2000/svg"
   xmlns="http://www.w3.org/2000/svg"
   xmlns:xlink="http://www.w3.org/1999/xlink"
   xmlns:sodipodi="http://sodipodi.sourceforge.net/DTD/sodipodi-0.dtd"
   xmlns:inkscape="http://www.inkscape.org/namespaces/inkscape"
   id="svg3143"
   height="32"
   width="32"
   version="1.1"
   inkscape:version="0.91 r13725"
   sodipodi:docname="vmware-player_32.svg">
  <sodipodi:namedview
     pagecolor="#ffffff"
     bordercolor="#666666"
     borderopacity="1"
     objecttolerance="10"
     gridtolerance="10"
     guidetolerance="10"
     inkscape:pageopacity="0"
     inkscape:pageshadow="2"
     inkscape:window-width="1366"
     inkscape:window-height="705"
     id="namedview50"
     showgrid="false"
     inkscape:zoom="2.078125"
     inkscape:cx="3.7172202"
     inkscape:cy="4.3660007"
     inkscape:window-x="0"
     inkscape:window-y="30"
     inkscape:window-maximized="1"
     inkscape:current-layer="svg3143" />
  <defs
     id="defs3145">
    <radialGradient
       id="radialGradient3030"
       gradientUnits="userSpaceOnUse"
       cy="43.5"
       cx="4.993"
       gradientTransform="matrix(2.0038 0 0 1.4 27.988 -17.4)"
       r="2.5">
      <stop
         id="stop2883"
         stop-color="#181818"
         offset="0" />
      <stop
         id="stop2885"
         stop-color="#181818"
         stop-opacity="0"
         offset="1" />
    </radialGradient>
    <radialGradient
       id="radialGradient3032"
       gradientUnits="userSpaceOnUse"
       cy="43.5"
       cx="4.993"
       gradientTransform="matrix(2.0038 0 0 1.4 -20.012 -104.4)"
       r="2.5">
      <stop
         id="stop2889"
         stop-color="#181818"
         offset="0" />
      <stop
         id="stop2891"
         stop-color="#181818"
         stop-opacity="0"
         offset="1" />
    </radialGradient>
    <linearGradient
       id="linearGradient3034"
       y2="39.999"
       gradientUnits="userSpaceOnUse"
       x2="25.058"
       y1="47.028"
       x1="25.058">
      <stop
         id="stop2895"
         stop-color="#181818"
         stop-opacity="0"
         offset="0" />
      <stop
         id="stop2897"
         stop-color="#181818"
         offset=".5" />
      <stop
         id="stop2899"
         stop-color="#181818"
         stop-opacity="0"
         offset="1" />
    </linearGradient>
    <linearGradient
       id="linearGradient3044"
       y2="43"
       gradientUnits="userSpaceOnUse"
       x2="24"
       gradientTransform="translate(48.997719,0.36200872)"
       y1="5"
       x1="24">
      <stop
         id="stop3926-7"
         stop-color="#fff"
         offset="0" />
      <stop
         id="stop3928-3"
         stop-color="#fff"
         stop-opacity=".23529"
         offset=".063165" />
      <stop
         id="stop3930-7"
         stop-color="#fff"
         stop-opacity=".15686"
         offset=".95056" />
      <stop
         id="stop3932-1"
         stop-color="#fff"
         stop-opacity=".39216"
         offset="1" />
    </linearGradient>
    <radialGradient
       id="radialGradient3053"
       gradientUnits="userSpaceOnUse"
       cy="9.9941"
       cx="8.2761"
       gradientTransform="matrix(0,6.6678,-8.1859,0,154.87772,-60.100992)"
       r="12.672">
      <stop
         id="stop3244"
         stop-color="#7ec1f8"
         offset="0" />
      <stop
         id="stop3246"
         stop-color="#4f97e3"
         offset=".26238" />
      <stop
         id="stop3248"
         stop-color="#2674c6"
         offset=".66094" />
      <stop
         id="stop3250"
         stop-color="#0b4169"
         offset="1" />
    </radialGradient>
    <clipPath
       id="clipPath-929888831">
      <g
         id="g17"
         transform="translate(0 -1004.4)">
        <path
           id="path19"
           d="m-24 13c0 1.105-0.672 2-1.5 2s-1.5-0.895-1.5-2 0.672-2 1.5-2 1.5 0.895 1.5 2z"
           transform="matrix(15.333 0 0 11.5 415 878.86)"
           fill="#1890d0" />
      </g>
    </clipPath>
    <radialGradient
       gradientTransform="matrix(2.003784,0,0,1.4,27.98813,-17.4)"
       gradientUnits="userSpaceOnUse"
       xlink:href="#linearGradient3688-166-749-2-324"
       id="radialGradient3013-896"
       fy="43.5"
       fx="4.9929786"
       r="2.5"
       cy="43.5"
       cx="4.9929786" />
    <linearGradient
       id="linearGradient3688-166-749-2-324">
      <stop
         offset="0"
         style="stop-color:#181818;stop-opacity:1"
         id="stop3216" />
      <stop
         offset="1"
         style="stop-color:#181818;stop-opacity:0"
         id="stop3218" />
    </linearGradient>
    <radialGradient
       gradientTransform="matrix(2.003784,0,0,1.4,-20.01187,-104.4)"
       gradientUnits="userSpaceOnUse"
       xlink:href="#linearGradient3688-166-749-2-324"
       id="radialGradient3015-826"
       fy="43.5"
       fx="4.9929786"
       r="2.5"
       cy="43.5"
       cx="4.9929786" />
    <linearGradient
       gradientUnits="userSpaceOnUse"
       xlink:href="#linearGradient3702-501-757-6-946"
       id="linearGradient4395"
       y2="39.999443"
       x2="25.058096"
       y1="47.027729"
       x1="25.058096" />
    <linearGradient
       id="linearGradient3702-501-757-6-946">
      <stop
         offset="0"
         style="stop-color:#181818;stop-opacity:0"
         id="stop3228" />
      <stop
         offset="0.5"
         style="stop-color:#181818;stop-opacity:1"
         id="stop3230" />
      <stop
         offset="1"
         style="stop-color:#181818;stop-opacity:0"
         id="stop3232" />
    </linearGradient>
    <radialGradient
       gradientTransform="matrix(0,9.4975523,-11.65996,0,140.93055,-79.160972)"
       gradientUnits="userSpaceOnUse"
       xlink:href="#linearGradient2867-449-88-871-390-598-476-591-434-148-57-177-8-3-3-6-4-8-8-8-5"
       id="radialGradient4144"
       fy="9.9571075"
       fx="6.2001843"
       r="12.671875"
       cy="9.9571075"
       cx="6.7304144" />
    <linearGradient
       id="linearGradient2867-449-88-871-390-598-476-591-434-148-57-177-8-3-3-6-4-8-8-8-5">
      <stop
         offset="0"
         style="stop-color:#919caf;stop-opacity:1"
         id="stop3750-1-0-7-6-6-1-3-9-3" />
      <stop
         offset="0.26238"
         style="stop-color:#68758e;stop-opacity:1"
         id="stop3752-3-7-4-0-32-8-923-0-7" />
      <stop
         offset="0.704952"
         style="stop-color:#485a6c;stop-opacity:1"
         id="stop3754-1-8-5-2-7-6-7-1-9" />
      <stop
         offset="1"
         style="stop-color:#444c5c;stop-opacity:1"
         id="stop3756-1-6-2-6-6-1-96-6-0" />
    </linearGradient>
    <linearGradient
       gradientTransform="matrix(0.7,0,0,0.7,-68.815024,-4.2060077)"
       gradientUnits="userSpaceOnUse"
       xlink:href="#linearGradient4187"
       id="linearGradient3153"
       y2="41.890972"
       x2="23.99999"
       y1="6.1111298"
       x1="23.99999" />
    <linearGradient
       id="linearGradient4187">
      <stop
         offset="0"
         style="stop-color:#ffffff;stop-opacity:1"
         id="stop4189" />
      <stop
         offset="0.02099473"
         style="stop-color:#ffffff;stop-opacity:0.23529412"
         id="stop4191" />
      <stop
         offset="0.97696"
         style="stop-color:#ffffff;stop-opacity:0.15686275"
         id="stop4193" />
      <stop
         offset="1"
         style="stop-color:#ffffff;stop-opacity:0.39215687"
         id="stop4195" />
    </linearGradient>
    <linearGradient
       gradientTransform="matrix(1.0521608,0,0,-1.0532519,-1.2521612,51.339874)"
       gradientUnits="userSpaceOnUse"
       xlink:href="#linearGradient4311"
       id="linearGradient3143"
       y2="25.361452"
       x2="30.212982"
       y1="21.416878"
       x1="30.212982" />
    <linearGradient
       id="linearGradient4311">
      <stop
         offset="0"
         style="stop-color:#000000;stop-opacity:1"
         id="stop4313" />
      <stop
         offset="1"
         style="stop-color:#000000;stop-opacity:0"
         id="stop4315" />
    </linearGradient>
    <radialGradient
       gradientTransform="matrix(2.003784,0,0,1.4,27.98813,-17.4)"
       gradientUnits="userSpaceOnUse"
       xlink:href="#linearGradient3688-166-749-2-324"
       id="radialGradient3013-896-3"
       fy="43.5"
       fx="4.9929786"
       r="2.5"
       cy="43.5"
       cx="4.9929786" />
    <radialGradient
       gradientTransform="matrix(2.003784,0,0,1.4,-20.01187,-104.4)"
       gradientUnits="userSpaceOnUse"
       xlink:href="#linearGradient3688-166-749-2-324"
       id="radialGradient3015-826-5"
       fy="43.5"
       fx="4.9929786"
       r="2.5"
       cy="43.5"
       cx="4.9929786" />
    <radialGradient
       gradientTransform="matrix(0,6.6482866,-8.161972,0,29.836353,-60.318695)"
       gradientUnits="userSpaceOnUse"
       xlink:href="#radialGradient3053"
       id="radialGradient4144-2"
       fy="9.9571075"
       fx="6.2001843"
       r="12.671875"
       cy="9.9571075"
       cx="6.7304144" />
    <radialGradient
       gradientTransform="matrix(2.003784,0,0,1.4,27.98813,-17.4)"
       gradientUnits="userSpaceOnUse"
       xlink:href="#linearGradient3688-166-749-2-324"
       id="radialGradient3493"
       fy="43.5"
       fx="4.9929786"
       r="2.5"
       cy="43.5"
       cx="4.9929786" />
    <radialGradient
       gradientTransform="matrix(2.003784,0,0,1.4,-20.01187,-104.4)"
       gradientUnits="userSpaceOnUse"
       xlink:href="#linearGradient3688-166-749-2-324"
       id="radialGradient3495"
       fy="43.5"
       fx="4.9929786"
       r="2.5"
       cy="43.5"
       cx="4.9929786" />
    <radialGradient
       gradientTransform="matrix(0,6.5752286,-8.07228,0,96.951918,-56.111442)"
       gradientUnits="userSpaceOnUse"
       xlink:href="#radialGradient3053"
       id="radialGradient4388"
       fy="9.9571075"
       fx="6.2001843"
       r="12.671875"
       cy="9.9571075"
       cx="6.7304144" />
    <linearGradient
       gradientTransform="matrix(0.67567568,0,0,0.67567568,-0.21621855,-0.2162061)"
       gradientUnits="userSpaceOnUse"
       xlink:href="#linearGradient3924-0"
       id="linearGradient3483"
       y2="41.679485"
       x2="38.546436"
       y1="6.3738203"
       x1="38.546436" />
    <linearGradient
       id="linearGradient3924-0">
      <stop
         offset="0"
         style="stop-color:#ffffff;stop-opacity:1"
         id="stop3926-6" />
      <stop
         offset="0.03798588"
         style="stop-color:#ffffff;stop-opacity:0.23529412"
         id="stop3928-3-3" />
      <stop
         offset="0.96200818"
         style="stop-color:#ffffff;stop-opacity:0.15686275"
         id="stop3930-2" />
      <stop
         offset="1"
         style="stop-color:#ffffff;stop-opacity:0.39215687"
         id="stop3932-62" />
    </linearGradient>
    <linearGradient
       inkscape:collect="always"
       xlink:href="#linearGradient4187"
       id="linearGradient4297"
       x1="40.492123"
       y1="-17.694651"
       x2="40.593815"
       y2="9.2884007"
       gradientUnits="userSpaceOnUse"
       gradientTransform="translate(-24.542969,20.203102)" />
    <linearGradient
       inkscape:collect="always"
       xlink:href="#linearGradient4206"
       id="linearGradient4212"
       x1="23.939856"
       y1="10.879699"
       x2="24.015045"
       y2="39.030075"
       gradientUnits="userSpaceOnUse"
       gradientTransform="matrix(0.96428568,0,0,0.96428568,-7.1428637,-8.1071426)" />
    <linearGradient
       inkscape:collect="always"
       id="linearGradient4206">
      <stop
         style="stop-color:#fad229;stop-opacity:1"
         offset="0"
         id="stop4208" />
      <stop
         style="stop-color:#f3b500;stop-opacity:1"
         offset="1"
         id="stop4210" />
    </linearGradient>
    <radialGradient
       gradientTransform="matrix(2.003784,0,0,1.4,27.98813,-17.4)"
       gradientUnits="userSpaceOnUse"
       xlink:href="#linearGradient3688-166-749-2-324"
       id="radialGradient3013-896-3-3"
       fy="43.5"
       fx="4.9929786"
       r="2.5"
       cy="43.5"
       cx="4.9929786" />
    <radialGradient
       gradientTransform="matrix(2.003784,0,0,1.4,-20.01187,-104.4)"
       gradientUnits="userSpaceOnUse"
       xlink:href="#linearGradient3688-166-749-2-324"
       id="radialGradient3015-826-5-2"
       fy="43.5"
       fx="4.9929786"
       r="2.5"
       cy="43.5"
       cx="4.9929786" />
    <radialGradient
       gradientTransform="matrix(2.003784,0,0,1.4,27.98813,-17.4)"
       gradientUnits="userSpaceOnUse"
       xlink:href="#linearGradient3688-166-749-2-324"
       id="radialGradient3013-896-3-0"
       fy="43.5"
       fx="4.9929786"
       r="2.5"
       cy="43.5"
       cx="4.9929786" />
    <radialGradient
       gradientTransform="matrix(2.003784,0,0,1.4,-20.01187,-104.4)"
       gradientUnits="userSpaceOnUse"
       xlink:href="#linearGradient3688-166-749-2-324"
       id="radialGradient3015-826-5-7"
       fy="43.5"
       fx="4.9929786"
       r="2.5"
       cy="43.5"
       cx="4.9929786" />
    <linearGradient
       inkscape:collect="always"
       xlink:href="#linearGradient3702-501-757-6-946"
       id="linearGradient4919"
       gradientUnits="userSpaceOnUse"
       x1="25.058096"
       y1="47.027729"
       x2="25.058096"
       y2="39.999443" />
  </defs>
  <metadata
     id="metadata3148">
    <rdf:RDF>
      <cc:Work
         rdf:about="">
        <dc:format>image/svg+xml</dc:format>
        <dc:type
           rdf:resource="http://purl.org/dc/dcmitype/StillImage" />
        <dc:title />
      </cc:Work>
    </rdf:RDF>
  </metadata>
  <g
     id="g4224"
     fill="#ffc239"
     transform="matrix(1.0826 0 0 -1.0785 -1.975 50.826)">
    <g
       id="g4226"
       fill="#ffc239"
       clip-path="url(#clipPath-929888831)">
      <!-- color: #dfdfdf -->
    </g>
  </g>
  <g
     id="g4232"
     fill="#ffc239"
     transform="matrix(-1.0826 0 0 -1.0785 49.975 50.826)">
    <g
       id="g4234"
       fill="#ffc239"
       clip-path="url(#clipPath-929888831)">
      <!-- color: #dfdfdf -->
    </g>
  </g>
  <g
     id="g4294"
     stroke-linejoin="round"
     opacity=".15"
     transform="matrix(.99936 0 0 .99553 .022037 .46841)"
     stroke="#fff"
     stroke-linecap="round"
     stroke-width="1.8509"
     fill="none">
    <g
       id="g4296"
       transform="matrix(1.0833 0 0 1.0833 -2 -1.3)">
      <g
         id="g4298"
         stroke-linejoin="round"
         clip-path="url(#clipPath-929888831)"
         stroke="#fff"
         stroke-linecap="round"
         stroke-width="1.8509"
         fill="none">
        <!-- color: #dfdfdf -->
      </g>
    </g>
    <g
       id="g4304"
       transform="matrix(1.0833 0 0 -1.0833 -1.9983 50.583)">
      <g
         id="g4306"
         stroke-linejoin="round"
         clip-path="url(#clipPath-929888831)"
         stroke="#fff"
         stroke-linecap="round"
         stroke-width="1.8509"
         fill="none">
        <!-- color: #dfdfdf -->
      </g>
    </g>
    <g
       id="g4310"
       transform="matrix(-1.0833 0 0 -1.0833 49.985 50.583)">
      <g
         id="g4312"
         stroke-linejoin="round"
         clip-path="url(#clipPath-929888831)"
         stroke="#fff"
         stroke-linecap="round"
         stroke-width="1.8509"
         fill="none">
        <!-- color: #dfdfdf -->
      </g>
    </g>
  </g>
  <g
     style="opacity:0.05"
     id="g3712-0-2-5"
     transform="matrix(-0.7368421,0,0,-0.4285714,33.68421,48.142856)">
    <rect
       style="fill:url(#radialGradient3013-896-3-0);fill-opacity:1;stroke:none"
       id="rect2801-4-6-9"
       y="40"
       x="38"
       height="7"
       width="5" />
    <rect
       style="fill:url(#radialGradient3015-826-5-7);fill-opacity:1;stroke:none"
       id="rect3696-8-1-7"
       transform="scale(-1,-1)"
       y="-47"
       x="-10"
       height="7"
       width="5" />
    <rect
       style="fill:url(#linearGradient4919);fill-opacity:1;stroke:none"
       id="rect3700-7-8-7"
       y="40"
       x="10"
       height="7.0000005"
       width="28" />
  </g>
  <g
     style="opacity:0.1"
     id="g3712-0-2"
     transform="matrix(-0.35621053,0,0,-0.4285714,31.781052,48.142856)">
    <rect
       style="fill:url(#radialGradient3013-896-3-3);fill-opacity:1;stroke:none"
       id="rect2801-4-6"
       y="40"
       x="38"
       height="7"
       width="5" />
    <rect
       style="fill:url(#radialGradient3015-826-5-2);fill-opacity:1;stroke:none"
       id="rect3696-8-1"
       transform="scale(-1,-1)"
       y="-47"
       x="-10"
       height="7"
       width="5" />
    <rect
       style="fill:url(#linearGradient4395);fill-opacity:1;stroke:none"
       id="rect3700-7-8"
       y="40"
       x="10"
       height="7.0000005"
       width="28" />
  </g>
  <path
     inkscape:connector-curvature="0"
     id="rect3863"
     style="color:#000000;fill:url(#linearGradient4212);fill-opacity:1;enable-background:new"
     d="m 4.4285713,2.499999 c -1.068428,0 -1.928571,0.860142 -1.928571,1.928571 l 0,8.678571 c 0,1.068429 0.860143,1.928572 1.928571,1.928572 1.068429,0 1.928572,-0.860143 1.928572,-1.928572 l 0,-4.037946 2.892857,2.892858 0,3.07366 3.8571427,0 0,-0.964285 c 0,-0.534215 0.430071,-0.964287 0.964286,-0.964287 l 0.964285,0 0,-3.857142 -3.07366,0 -2.8928577,-2.892858 4.0384287,0 c 1.068429,0 1.928571,-0.860142 1.928571,-1.928571 0,-1.068429 -0.860142,-1.928571 -1.928571,-1.928571 l -8.6785707,0 z m 14.4642857,0 c -1.068428,0 -1.928571,0.860142 -1.928571,1.928571 0,1.068429 0.860143,1.928571 1.928571,1.928571 l 4.037946,0 -2.892857,2.892858 -3.07366,0 0,3.857142 0.964285,0 c 0.534215,0 0.964286,0.430072 0.964286,0.964287 l 0,0.964285 3.857143,0 0,-3.07366 2.892857,-2.892858 0,4.038429 c 0,1.068429 0.860143,1.928571 1.928571,1.928571 1.068429,0 1.928572,-0.860142 1.928572,-1.928571 l 0,-8.678572 c 0,-1.068428 -0.860143,-1.928571 -1.928572,-1.928571 l -8.678571,0 z m -9.6428567,14.464286 0,3.857143 c 0,1.068428 0.8601427,1.928571 1.9285707,1.928571 l 3.857143,0 0,-3.857143 -0.964285,0 c -0.534215,0 -0.964286,-0.430071 -0.964286,-0.964285 l 0,-0.964286 z m 9.6428567,0 0,0.964286 c 0,0.534214 -0.430071,0.964285 -0.964286,0.964285 l -0.964285,0 0,3.857143 3.07366,0 2.892857,2.892857 -4.038428,0 c -1.068429,0 -1.928683,0.860144 -1.928683,1.928572 0,1.068428 0.860254,1.928572 1.928683,1.928572 l 8.678571,0 c 1.068429,0 1.928336,-0.860144 1.928362,-1.928572 l 2.09e-4,-8.678572 c 2.6e-5,-1.068428 -0.860143,-1.928571 -1.928572,-1.928571 -1.068429,0 -1.928571,0.860143 -1.928571,1.928571 l 0,4.037947 -2.892857,-2.892857 0,-3.074143 c -1.285042,2.6e-5 -2.573675,-2.61e-4 -3.85666,4.82e-4 z"
     sodipodi:nodetypes="sssssccccssccccssscscssccccssccccssssscccssccsscccssccccsssssssscccc" />
  <path
     inkscape:connector-curvature="0"
     id="rect3863-5"
     style="color:#000000;opacity:0.3;fill:none;fill-opacity:1;stroke:#ad5f00;stroke-width:1;stroke-opacity:1;enable-background:new"
     d="m 4.4285713,2.499999 c -1.068428,0 -1.928571,0.860142 -1.928571,1.928571 l 0,8.678571 c 0,1.068429 0.860143,1.928572 1.928571,1.928572 1.068429,0 1.928572,-0.860143 1.928572,-1.928572 l 0,-4.037946 2.892857,2.892857 0,3.073661 3.8571427,0 0,-0.964286 c 0,-0.534214 0.430071,-0.964286 0.964285,-0.964286 l 0.964286,0 0,-3.857142 -3.073661,0 -2.8928567,-2.892858 4.0384287,0 c 1.068428,0 1.928571,-0.860142 1.928571,-1.928571 0,-1.068429 -0.860143,-1.928571 -1.928571,-1.928571 l -8.6785717,0 z m 14.4642847,0 c -1.068428,0 -1.928571,0.860142 -1.928571,1.928571 0,1.068429 0.860143,1.928571 1.928571,1.928571 l 4.037947,0 -2.892857,2.892858 -3.073661,0 0,3.857142 0.964286,0 c 0.534214,0 0.964285,0.430072 0.964285,0.964286 l 0,0.964286 3.857144,0 0,-3.073661 2.892856,-2.892857 0,4.038429 c 0,1.068428 0.860144,1.928571 1.928572,1.928571 1.068428,0 1.928571,-0.860143 1.928571,-1.928571 l 0,-8.678572 c 0,-1.068428 -0.860143,-1.928571 -1.928571,-1.928571 l -8.678572,0 z m -9.6428557,14.464286 0,3.857143 c 0,1.068428 0.8601427,1.928571 1.9285707,1.928571 l 3.857143,0 0,-3.857143 -0.964286,0 c -0.534214,0 -0.964285,-0.430071 -0.964285,-0.964286 l 0,-0.964285 z m 9.6428557,0 0,0.964285 c 0,0.534215 -0.430071,0.964286 -0.964285,0.964286 l -0.964286,0 0,3.857143 3.073661,0 2.892857,2.892857 -4.038428,0 c -1.068429,0 -1.928375,0.860144 -1.928375,1.928572 0,1.068428 0.859946,1.928572 1.928375,1.928572 l 8.678571,0 c 1.068429,0 1.929113,-0.860047 1.929054,-1.928475 l -4.82e-4,-8.678669 c -5.9e-5,-1.068428 -0.860143,-1.928571 -1.928572,-1.928571 -1.068429,0 -1.928571,0.860143 -1.928571,1.928571 l 0,4.037947 -2.892858,-2.892858 0,-3.074142 c -1.285043,2.6e-5 -2.573675,-2.61e-4 -3.856661,4.82e-4 z"
     sodipodi:nodetypes="sssssccccssccccssscscssccccssccccssssscccssccsscccssccccsssssssscccc" />
  <path
     style="color:#000000;fill:none;fill-opacity:1;stroke:url(#linearGradient4297);stroke-opacity:1;enable-background:new"
     d="m 4.4277343,3.499976 c -0.531725,0 -0.927734,0.396008 -0.927734,0.927734 l 0,8.679688 c 0,0.531726 0.396009,0.927735 0.927734,0.927735 0.531726,0 0.929688,-0.396009 0.929688,-0.927735 l 0,-6.453125 4.8925777,4.892578 0,2.488282 1.873047,0 c 0.02221,-1.038896 0.873212,-1.889897 1.912109,-1.91211 l 0,-1.873047 -2.488281,0 -4.8925777,-4.892578 6.4531247,0 c 0.531727,0 0.927734,-0.397961 0.927734,-0.929688 0,-0.531727 -0.396007,-0.927734 -0.927734,-0.927734 l -8.6796877,0 z m 14.4648437,0 c -0.531726,0 -0.929688,0.396008 -0.929688,0.927734 0,0.531727 0.397962,0.929688 0.929688,0.929688 l 6.451172,0 -4.892578,4.892578 -2.488282,0 0,1.873047 c 1.038919,0.02219 1.891853,0.873198 1.914063,1.91211 l 1.873047,0 0,-2.488282 4.892578,-4.892578 0,6.453125 c 0,0.531726 0.396009,0.927735 0.927734,0.927735 0.531727,0 0.929688,-0.396009 0.929688,-0.927735 l 0,-8.677735 C 28.5,3.89794 28.102039,3.499976 27.570312,3.499976 l -8.677734,0 z m 2.855469,14.462891 c -0.624237,-3e-5 -1.247516,0.0018 -1.871094,0.002 -0.02321,1.038076 -0.875768,1.889936 -1.914063,1.912109 l 0,1.873047 2.488282,0 4.892578,4.892578 -6.451172,0 c -0.531726,0 -0.929688,0.396079 -0.929688,0.927734 0,0.531656 0.397962,0.929688 0.929688,0.929688 l 8.677734,0 c 0.531726,0 0.927722,-0.397803 0.927735,-0.929688 l 0,-8.677734 c 1.3e-5,-0.531696 -0.396008,-0.927734 -0.927735,-0.927734 -0.531726,0 -0.927734,0.396008 -0.927734,0.927734 l 0,6.453125 -4.894531,-4.894531 0,-2.488282 z m -11.498047,0.002 0,2.855468 c 0,0.531725 0.396009,0.929688 0.927734,0.929688 l 2.857422,0 0,-1.873047 c -1.038272,-0.0222 -1.888899,-0.87405 -1.912109,-1.912109 l -1.873047,0 z"
     id="rect3863-53"
     inkscape:connector-curvature="0" />
</svg>
