<?xml version="1.0" encoding="UTF-8" standalone="no"?>
<!-- Created with Inkscape (http://www.inkscape.org/) -->

<svg
   xmlns:dc="http://purl.org/dc/elements/1.1/"
   xmlns:cc="http://creativecommons.org/ns#"
   xmlns:rdf="http://www.w3.org/1999/02/22-rdf-syntax-ns#"
   xmlns:svg="http://www.w3.org/2000/svg"
   xmlns="http://www.w3.org/2000/svg"
   xmlns:xlink="http://www.w3.org/1999/xlink"
   xmlns:sodipodi="http://sodipodi.sourceforge.net/DTD/sodipodi-0.dtd"
   xmlns:inkscape="http://www.inkscape.org/namespaces/inkscape"
   id="svg3143"
   height="128"
   width="128"
   version="1.1"
   inkscape:version="0.91 r13725"
   sodipodi:docname="vmware-player_128.svg">
  <sodipodi:namedview
     pagecolor="#ffffff"
     bordercolor="#666666"
     borderopacity="1"
     objecttolerance="10"
     gridtolerance="10"
     guidetolerance="10"
     inkscape:pageopacity="0"
     inkscape:pageshadow="2"
     inkscape:window-width="1366"
     inkscape:window-height="705"
     id="namedview50"
     showgrid="false"
     inkscape:zoom="2.078125"
     inkscape:cx="93.136842"
     inkscape:cy="33.279702"
     inkscape:window-x="0"
     inkscape:window-y="30"
     inkscape:window-maximized="1"
     inkscape:current-layer="svg3143" />
  <defs
     id="defs3145">
    <linearGradient
       inkscape:collect="always"
       id="linearGradient4223">
      <stop
         style="stop-color:#fad229;stop-opacity:1"
         offset="0"
         id="stop4225" />
      <stop
         style="stop-color:#f3b500;stop-opacity:1"
         offset="1"
         id="stop4227" />
    </linearGradient>
    <radialGradient
       id="radialGradient3030"
       gradientUnits="userSpaceOnUse"
       cy="43.5"
       cx="4.993"
       gradientTransform="matrix(2.0038 0 0 1.4 27.988 -17.4)"
       r="2.5">
      <stop
         id="stop2883"
         stop-color="#181818"
         offset="0" />
      <stop
         id="stop2885"
         stop-color="#181818"
         stop-opacity="0"
         offset="1" />
    </radialGradient>
    <radialGradient
       id="radialGradient3032"
       gradientUnits="userSpaceOnUse"
       cy="43.5"
       cx="4.993"
       gradientTransform="matrix(2.0038 0 0 1.4 -20.012 -104.4)"
       r="2.5">
      <stop
         id="stop2889"
         stop-color="#181818"
         offset="0" />
      <stop
         id="stop2891"
         stop-color="#181818"
         stop-opacity="0"
         offset="1" />
    </radialGradient>
    <linearGradient
       id="linearGradient3034"
       y2="39.999"
       gradientUnits="userSpaceOnUse"
       x2="25.058"
       y1="47.028"
       x1="25.058">
      <stop
         id="stop2895"
         stop-color="#181818"
         stop-opacity="0"
         offset="0" />
      <stop
         id="stop2897"
         stop-color="#181818"
         offset=".5" />
      <stop
         id="stop2899"
         stop-color="#181818"
         stop-opacity="0"
         offset="1" />
    </linearGradient>
    <linearGradient
       id="linearGradient3044"
       y2="43"
       gradientUnits="userSpaceOnUse"
       x2="24"
       gradientTransform="matrix(1.4,0,0,1.4,-65.016309,-0.90541928)"
       y1="5"
       x1="24">
      <stop
         id="stop3926-7"
         stop-color="#fff"
         offset="0" />
      <stop
         id="stop3928-3"
         stop-color="#fff"
         stop-opacity=".23529"
         offset=".063165" />
      <stop
         id="stop3930-7"
         stop-color="#fff"
         stop-opacity=".15686"
         offset=".95056" />
      <stop
         id="stop3932-1"
         stop-color="#fff"
         stop-opacity=".39216"
         offset="1" />
    </linearGradient>
    <radialGradient
       id="radialGradient3053"
       gradientUnits="userSpaceOnUse"
       cy="9.9941"
       cx="8.2761"
       gradientTransform="matrix(0,9.33492,-11.46026,0,83.215688,-85.55362)"
       r="12.672">
      <stop
         id="stop3244"
         stop-color="#7ec1f8"
         offset="0" />
      <stop
         id="stop3246"
         stop-color="#4f97e3"
         offset=".26238" />
      <stop
         id="stop3248"
         stop-color="#2674c6"
         offset=".66094" />
      <stop
         id="stop3250"
         stop-color="#0b4169"
         offset="1" />
    </radialGradient>
    <clipPath
       id="clipPath-929888831">
      <g
         id="g17"
         transform="translate(0 -1004.4)">
        <path
           id="path19"
           d="m-24 13c0 1.105-0.672 2-1.5 2s-1.5-0.895-1.5-2 0.672-2 1.5-2 1.5 0.895 1.5 2z"
           transform="matrix(15.333 0 0 11.5 415 878.86)"
           fill="#1890d0" />
      </g>
    </clipPath>
    <radialGradient
       gradientTransform="matrix(2.003784,0,0,1.4,27.98813,-17.4)"
       gradientUnits="userSpaceOnUse"
       xlink:href="#linearGradient3688-166-749-2-324"
       id="radialGradient3013-896"
       fy="43.5"
       fx="4.9929786"
       r="2.5"
       cy="43.5"
       cx="4.9929786" />
    <linearGradient
       id="linearGradient3688-166-749-2-324">
      <stop
         offset="0"
         style="stop-color:#181818;stop-opacity:1"
         id="stop3216" />
      <stop
         offset="1"
         style="stop-color:#181818;stop-opacity:0"
         id="stop3218" />
    </linearGradient>
    <radialGradient
       gradientTransform="matrix(2.003784,0,0,1.4,-20.01187,-104.4)"
       gradientUnits="userSpaceOnUse"
       xlink:href="#linearGradient3688-166-749-2-324"
       id="radialGradient3015-826"
       fy="43.5"
       fx="4.9929786"
       r="2.5"
       cy="43.5"
       cx="4.9929786" />
    <linearGradient
       gradientUnits="userSpaceOnUse"
       xlink:href="#linearGradient3702-501-757-6-946"
       id="linearGradient4395"
       y2="39.999443"
       x2="25.058096"
       y1="47.027729"
       x1="25.058096" />
    <linearGradient
       id="linearGradient3702-501-757-6-946">
      <stop
         offset="0"
         style="stop-color:#181818;stop-opacity:0"
         id="stop3228" />
      <stop
         offset="0.5"
         style="stop-color:#181818;stop-opacity:1"
         id="stop3230" />
      <stop
         offset="1"
         style="stop-color:#181818;stop-opacity:0"
         id="stop3232" />
    </linearGradient>
    <radialGradient
       gradientTransform="matrix(0,9.4975523,-11.65996,0,140.93055,-79.160972)"
       gradientUnits="userSpaceOnUse"
       xlink:href="#linearGradient2867-449-88-871-390-598-476-591-434-148-57-177-8-3-3-6-4-8-8-8-5"
       id="radialGradient4144"
       fy="9.9571075"
       fx="6.2001843"
       r="12.671875"
       cy="9.9571075"
       cx="6.7304144" />
    <linearGradient
       id="linearGradient2867-449-88-871-390-598-476-591-434-148-57-177-8-3-3-6-4-8-8-8-5">
      <stop
         offset="0"
         style="stop-color:#919caf;stop-opacity:1"
         id="stop3750-1-0-7-6-6-1-3-9-3" />
      <stop
         offset="0.26238"
         style="stop-color:#68758e;stop-opacity:1"
         id="stop3752-3-7-4-0-32-8-923-0-7" />
      <stop
         offset="0.704952"
         style="stop-color:#485a6c;stop-opacity:1"
         id="stop3754-1-8-5-2-7-6-7-1-9" />
      <stop
         offset="1"
         style="stop-color:#444c5c;stop-opacity:1"
         id="stop3756-1-6-2-6-6-1-96-6-0" />
    </linearGradient>
    <linearGradient
       gradientTransform="translate(1.17e-5,1.00001)"
       gradientUnits="userSpaceOnUse"
       xlink:href="#linearGradient4187"
       id="linearGradient3153"
       y2="41.890972"
       x2="23.99999"
       y1="6.1111298"
       x1="23.99999" />
    <linearGradient
       id="linearGradient4187">
      <stop
         offset="0"
         style="stop-color:#ffffff;stop-opacity:1"
         id="stop4189" />
      <stop
         offset="0.02099473"
         style="stop-color:#ffffff;stop-opacity:0.23529412"
         id="stop4191" />
      <stop
         offset="0.97696"
         style="stop-color:#ffffff;stop-opacity:0.15686275"
         id="stop4193" />
      <stop
         offset="1"
         style="stop-color:#ffffff;stop-opacity:0.39215687"
         id="stop4195" />
    </linearGradient>
    <linearGradient
       gradientTransform="matrix(1.0521608,0,0,-1.0532519,-1.2521612,51.339874)"
       gradientUnits="userSpaceOnUse"
       xlink:href="#linearGradient4311"
       id="linearGradient3143"
       y2="25.361452"
       x2="30.212982"
       y1="21.416878"
       x1="30.212982" />
    <linearGradient
       id="linearGradient4311">
      <stop
         offset="0"
         style="stop-color:#000000;stop-opacity:1"
         id="stop4313" />
      <stop
         offset="1"
         style="stop-color:#000000;stop-opacity:0"
         id="stop4315" />
    </linearGradient>
    <radialGradient
       gradientTransform="matrix(2.003784,0,0,1.4,27.98813,-17.4)"
       gradientUnits="userSpaceOnUse"
       xlink:href="#linearGradient3688-166-749-2-324"
       id="radialGradient2873-966-168-714"
       fy="43.5"
       fx="4.9929786"
       r="2.5"
       cy="43.5"
       cx="4.9929786" />
    <radialGradient
       gradientTransform="matrix(2.003784,0,0,1.4,-20.01187,-104.4)"
       gradientUnits="userSpaceOnUse"
       xlink:href="#linearGradient3688-166-749-2-324"
       id="radialGradient2875-742-326-419"
       fy="43.5"
       fx="4.9929786"
       r="2.5"
       cy="43.5"
       cx="4.9929786" />
    <radialGradient
       r="12.671875"
       fy="9.9571075"
       fx="6.2001843"
       cy="9.9571075"
       cx="6.7304144"
       gradientTransform="matrix(0,24.874542,-30.537991,0,216.08126,-225.1033)"
       gradientUnits="userSpaceOnUse"
       id="radialGradient4147"
       xlink:href="#radialGradient3053" />
    <linearGradient
       y2="42.091705"
       x2="23.99999"
       y1="5.9093657"
       x1="23.99999"
       gradientTransform="matrix(2.6602317,0,0,2.6673831,-154.01097,-16.317921)"
       gradientUnits="userSpaceOnUse"
       id="linearGradient3904"
       xlink:href="#linearGradient4270" />
    <linearGradient
       id="linearGradient4270">
      <stop
         id="stop4272"
         style="stop-color:#ffffff;stop-opacity:1"
         offset="0" />
      <stop
         id="stop4274"
         style="stop-color:#ffffff;stop-opacity:0.23529412"
         offset="0.0348749" />
      <stop
         id="stop4276"
         style="stop-color:#ffffff;stop-opacity:0.15686275"
         offset="0.96216321" />
      <stop
         id="stop4278"
         style="stop-color:#ffffff;stop-opacity:0.39215687"
         offset="1" />
    </linearGradient>
    <radialGradient
       gradientTransform="matrix(1.5563924,0,0,0.16978827,70.270357,102.13131)"
       gradientUnits="userSpaceOnUse"
       xlink:href="#linearGradient4311"
       id="radialGradient4377"
       fy="93.467628"
       fx="-4.0287771"
       r="35.338131"
       cy="93.467628"
       cx="-4.0287771" />
    <radialGradient
       gradientTransform="matrix(2.003784,0,0,1.4,27.98813,-17.4)"
       gradientUnits="userSpaceOnUse"
       xlink:href="#linearGradient3688-166-749-2-324"
       id="radialGradient2455-1"
       fy="43.5"
       fx="4.9929786"
       r="2.5"
       cy="43.5"
       cx="4.9929786" />
    <radialGradient
       gradientTransform="matrix(2.003784,0,0,1.4,-20.01187,-104.4)"
       gradientUnits="userSpaceOnUse"
       xlink:href="#linearGradient3688-166-749-2-324"
       id="radialGradient2457-5"
       fy="43.5"
       fx="4.9929786"
       r="2.5"
       cy="43.5"
       cx="4.9929786" />
    <radialGradient
       gradientTransform="matrix(0,25.083279,-30.794253,0,372.81658,-208.09078)"
       gradientUnits="userSpaceOnUse"
       xlink:href="#radialGradient3053"
       id="radialGradient3395"
       fy="9.9571075"
       fx="6.2001843"
       r="12.671875"
       cy="9.9571075"
       cx="6.7304144" />
    <linearGradient
       gradientTransform="matrix(2.7297298,0,0,2.7297298,-1.5135132,1.4875374)"
       gradientUnits="userSpaceOnUse"
       xlink:href="#linearGradient3924-776"
       id="linearGradient3159"
       y2="43"
       x2="23.99999"
       y1="4.999989"
       x1="23.99999" />
    <linearGradient
       id="linearGradient3924-776">
      <stop
         offset="0"
         style="stop-color:#ffffff;stop-opacity:1"
         id="stop3124" />
      <stop
         offset="0.06316455"
         style="stop-color:#ffffff;stop-opacity:0.23529412"
         id="stop3126" />
      <stop
         offset="0.95056331"
         style="stop-color:#ffffff;stop-opacity:0.15686275"
         id="stop3128" />
      <stop
         offset="1"
         style="stop-color:#ffffff;stop-opacity:0.39215687"
         id="stop3130" />
    </linearGradient>
    <linearGradient
       inkscape:collect="always"
       xlink:href="#linearGradient4223"
       id="linearGradient4212-3"
       x1="23.939856"
       y1="10.879699"
       x2="24.015045"
       y2="39.030075"
       gradientUnits="userSpaceOnUse"
       gradientTransform="matrix(3.6785714,0,0,3.6785714,-24.28574,-24.964284)" />
    <radialGradient
       gradientTransform="matrix(2.003784,0,0,1.4,27.98813,-17.4)"
       gradientUnits="userSpaceOnUse"
       xlink:href="#linearGradient3688-166-749-2-324"
       id="radialGradient3013-896-3-3"
       fy="43.5"
       fx="4.9929786"
       r="2.5"
       cy="43.5"
       cx="4.9929786" />
    <radialGradient
       gradientTransform="matrix(2.003784,0,0,1.4,-20.01187,-104.4)"
       gradientUnits="userSpaceOnUse"
       xlink:href="#linearGradient3688-166-749-2-324"
       id="radialGradient3015-826-5-2"
       fy="43.5"
       fx="4.9929786"
       r="2.5"
       cy="43.5"
       cx="4.9929786" />
    <radialGradient
       gradientTransform="matrix(2.003784,0,0,1.4,27.98813,-17.4)"
       gradientUnits="userSpaceOnUse"
       xlink:href="#linearGradient3688-166-749-2-324"
       id="radialGradient3013-896-3-0"
       fy="43.5"
       fx="4.9929786"
       r="2.5"
       cy="43.5"
       cx="4.9929786" />
    <radialGradient
       gradientTransform="matrix(2.003784,0,0,1.4,-20.01187,-104.4)"
       gradientUnits="userSpaceOnUse"
       xlink:href="#linearGradient3688-166-749-2-324"
       id="radialGradient3015-826-5-7"
       fy="43.5"
       fx="4.9929786"
       r="2.5"
       cy="43.5"
       cx="4.9929786" />
    <linearGradient
       inkscape:collect="always"
       xlink:href="#linearGradient3702-501-757-6-946"
       id="linearGradient4919"
       gradientUnits="userSpaceOnUse"
       x1="25.058096"
       y1="47.027729"
       x2="25.058096"
       y2="39.999443" />
    <linearGradient
       inkscape:collect="always"
       xlink:href="#linearGradient3702-501-757-6-946"
       id="linearGradient4296"
       gradientUnits="userSpaceOnUse"
       x1="25.058096"
       y1="47.027729"
       x2="25.058096"
       y2="39.999443" />
    <linearGradient
       inkscape:collect="always"
       xlink:href="#linearGradient4187"
       id="linearGradient4342"
       x1="-58.199883"
       y1="129.58293"
       x2="-57.974316"
       y2="235.9288"
       gradientUnits="userSpaceOnUse"
       gradientTransform="translate(121.9668,-115.75591)" />
  </defs>
  <metadata
     id="metadata3148">
    <rdf:RDF>
      <cc:Work
         rdf:about="">
        <dc:format>image/svg+xml</dc:format>
        <dc:type
           rdf:resource="http://purl.org/dc/dcmitype/StillImage" />
        <dc:title />
      </cc:Work>
    </rdf:RDF>
  </metadata>
  <g
     id="g4224"
     fill="#ffc239"
     transform="matrix(1.0826 0 0 -1.0785 -1.975 50.826)">
    <g
       id="g4226"
       fill="#ffc239"
       clip-path="url(#clipPath-929888831)">
      <!-- color: #dfdfdf -->
    </g>
  </g>
  <g
     id="g4232"
     fill="#ffc239"
     transform="matrix(-1.0826 0 0 -1.0785 49.975 50.826)">
    <g
       id="g4234"
       fill="#ffc239"
       clip-path="url(#clipPath-929888831)">
      <!-- color: #dfdfdf -->
    </g>
  </g>
  <g
     id="g4294"
     stroke-linejoin="round"
     opacity=".15"
     transform="matrix(.99936 0 0 .99553 .022037 .46841)"
     stroke="#fff"
     stroke-linecap="round"
     stroke-width="1.8509"
     fill="none">
    <g
       id="g4296"
       transform="matrix(1.0833 0 0 1.0833 -2 -1.3)">
      <g
         id="g4298"
         stroke-linejoin="round"
         clip-path="url(#clipPath-929888831)"
         stroke="#fff"
         stroke-linecap="round"
         stroke-width="1.8509"
         fill="none">
        <!-- color: #dfdfdf -->
      </g>
    </g>
    <g
       id="g4304"
       transform="matrix(1.0833 0 0 -1.0833 -1.9983 50.583)">
      <g
         id="g4306"
         stroke-linejoin="round"
         clip-path="url(#clipPath-929888831)"
         stroke="#fff"
         stroke-linecap="round"
         stroke-width="1.8509"
         fill="none">
        <!-- color: #dfdfdf -->
      </g>
    </g>
    <g
       id="g4310"
       transform="matrix(-1.0833 0 0 -1.0833 49.985 50.583)">
      <g
         id="g4312"
         stroke-linejoin="round"
         clip-path="url(#clipPath-929888831)"
         stroke="#fff"
         stroke-linecap="round"
         stroke-width="1.8509"
         fill="none">
        <!-- color: #dfdfdf -->
      </g>
    </g>
  </g>
  <g
     style="opacity:0.05"
     id="g3712-0-2-5"
     transform="matrix(-2.8421053,0,0,-0.71428567,132.21053,149.57143)">
    <rect
       style="fill:url(#radialGradient3013-896-3-0);fill-opacity:1;stroke:none"
       id="rect2801-4-6-9"
       y="40"
       x="38"
       height="7"
       width="5" />
    <rect
       style="fill:url(#radialGradient3015-826-5-7);fill-opacity:1;stroke:none"
       id="rect3696-8-1-7"
       transform="scale(-1,-1)"
       y="-47"
       x="-10"
       height="7"
       width="5" />
    <rect
       style="fill:url(#linearGradient4919);fill-opacity:1;stroke:none"
       id="rect3700-7-8-7"
       y="40"
       x="10"
       height="7.0000005"
       width="28" />
  </g>
  <g
     style="opacity:0.1"
     id="g3712-0-2"
     transform="matrix(-1.3900526,0,0,-0.69334949,124.95027,148.73398)">
    <rect
       style="fill:url(#radialGradient3013-896-3-3);fill-opacity:1;stroke:none"
       id="rect2801-4-6"
       y="40"
       x="38"
       height="7"
       width="5" />
    <rect
       style="fill:url(#radialGradient3015-826-5-2);fill-opacity:1;stroke:none"
       id="rect3696-8-1"
       transform="scale(-1,-1)"
       y="-47"
       x="-10"
       height="7"
       width="5" />
    <rect
       style="fill:url(#linearGradient4296);fill-opacity:1;stroke:none"
       id="rect3700-7-8"
       y="40"
       x="10"
       height="7.0000005"
       width="28" />
  </g>
  <path
     inkscape:connector-curvature="0"
     id="rect3863-2"
     style="color:#000000;fill:url(#linearGradient4212-3);fill-opacity:1;enable-background:new"
     d="M 19.85714,15.5 C 15.78128,15.5 12.5,18.781285 12.5,22.857141 l 0,33.107142 c 0,4.075857 3.28128,7.357145 7.35714,7.357145 4.07586,0 7.35714,-3.281288 7.35714,-7.357145 l 0,-15.404013 11.03572,11.035712 0,11.725446 14.71428,0 0,-3.678572 c 0,-2.037928 1.640644,-3.678573 3.678584,-3.678573 l 3.67856,0 0,-14.71428 -11.725444,0 -11.03571,-11.035716 15.40586,0 c 4.075854,0 7.357144,-3.281288 7.357144,-7.357146 0,-4.075856 -3.28129,-7.357141 -7.357144,-7.357141 l -33.10714,0 z m 55.178584,0 c -4.07586,0 -7.35714,3.281285 -7.35714,7.357141 0,4.075858 3.28128,7.357146 7.35714,7.357146 l 15.40401,0 -11.03571,11.035716 -11.72544,0 0,14.71428 3.67856,0 c 2.03794,0 3.67858,1.640645 3.67858,3.678573 l 0,3.678572 14.71428,0 0,-11.725446 11.035716,-11.035712 0,15.405853 c 0,4.075858 3.28128,7.357142 7.35714,7.357142 4.07586,0 7.35714,-3.281284 7.35714,-7.357142 l 0,-33.107143 c 0,-4.075855 -3.28128,-7.357141 -7.35714,-7.357141 l -33.107136,0 z M 38.25,70.678572 l 0,14.714288 c 0,4.075854 3.28128,7.357142 7.35714,7.357142 l 14.714284,0 0,-14.714288 -3.67856,0 c -2.03794,0 -3.678584,-1.640642 -3.678584,-3.67857 l 0,-3.678572 z m 36.785724,0 0,3.678572 c 0,2.037928 -1.64064,3.67857 -3.67858,3.67857 l -3.67856,0 0,14.714288 11.72544,0 11.03571,11.035708 -15.40585,0 c -4.07586,0 -7.357884,3.28129 -7.357884,7.35715 0,4.07585 3.282024,7.35714 7.357884,7.35714 l 33.107136,0 c 4.07586,0 7.35696,-3.28129 7.35698,-7.35714 l 1.6e-4,-33.107146 c 2e-5,-4.075854 -3.28128,-7.357142 -7.35714,-7.357142 -4.07586,0 -7.35714,3.281288 -7.35714,7.357142 l 0,15.404021 -11.035716,-11.035716 0,-11.727284 c -4.9022,9.7e-5 -9.81809,-9.96e-4 -14.71244,0.0018 z"
     sodipodi:nodetypes="sssssccccssccccssscscssccccssccccssssscccssccsscccssccccssssssssccccc" />
  <path
     inkscape:connector-curvature="0"
     id="rect3863-5"
     style="color:#000000;opacity:0.3;fill:none;fill-opacity:1;stroke:#ad5f00;stroke-width:0.99999994;stroke-opacity:1;enable-background:new"
     d="M 19.85714,15.5 C 15.78128,15.5 12.5,18.781284 12.5,22.857143 l 0,33.10714 c 0,4.075858 3.28128,7.357146 7.35714,7.357146 4.07586,0 7.35714,-3.281288 7.35714,-7.357146 l 0,-15.404013 11.03572,11.035712 0,11.725447 14.71428,0 0,-3.678572 c 0,-2.037928 1.640644,-3.678574 3.678584,-3.678574 l 3.67856,0 0,-14.71428 -11.725454,0 -11.0357,-11.035716 15.40586,0 c 4.075844,0 7.357144,-3.281286 7.357144,-7.357144 0,-4.075859 -3.2813,-7.357143 -7.357144,-7.357143 l -33.10714,0 z m 55.178584,0 c -4.07586,0 -7.35714,3.281284 -7.35714,7.357143 0,4.075858 3.28128,7.357144 7.35714,7.357144 l 15.404,0 -11.0357,11.035716 -11.72544,0 0,14.71428 3.67856,0 c 2.03794,0 3.67858,1.640646 3.67858,3.678574 l 0,3.678572 14.71428,0 0,-11.725447 11.035716,-11.035712 0,15.405854 c 0,4.075858 3.28128,7.357142 7.35714,7.357142 4.07586,0 7.35714,-3.281284 7.35714,-7.357142 l 0,-33.107144 c 0,-4.075855 -3.28128,-7.357142 -7.35714,-7.357142 l -33.107136,0 z M 38.25,70.678573 l 0,14.714288 c 0,4.075854 3.28128,7.357142 7.35714,7.357142 l 14.714284,0 0,-14.714288 -3.67856,0 c -2.03794,0 -3.678584,-1.640642 -3.678584,-3.67857 l 0,-3.678572 z m 36.785724,0 0,3.678572 c 0,2.037928 -1.64064,3.67857 -3.67858,3.67857 l -3.67856,0 0,14.714288 11.72544,0 11.0357,11.035707 -15.40584,0 c -4.07586,0 -7.35716,3.28129 -7.35716,7.35715 0,4.07585 3.2813,7.35714 7.35716,7.35714 l 33.107136,0 c 4.07586,0 7.35714,-3.28129 7.35714,-7.35714 l 0,-33.107145 c 0,-4.075854 -3.28128,-7.357142 -7.35714,-7.357142 -4.07586,0 -7.35714,3.281288 -7.35714,7.357142 l 0,15.404021 -11.035716,-11.035716 0,-11.727284 c -4.9022,9.7e-5 -9.81809,-9.97e-4 -14.71244,0.0018 z"
     sodipodi:nodetypes="sssssccccssccccssscscssccccssccccssssscccssccsscccssccccsssssssscccc" />
  <path
     style="color:#000000;fill:none;fill-opacity:1;stroke:url(#linearGradient4342);stroke-opacity:1;enable-background:new"
     d="m 19.85742,16.499956 c -3.53916,0 -6.35742,2.81828 -6.35742,6.35742 l 0,33.10742 c 0,3.53915 2.81827,6.35742 6.35742,6.35742 3.53917,1e-5 6.35743,-2.81827 6.35743,-6.35742 l 0,-17.81836 13.03515,13.03516 0,11.14062 12.71485,0 0,-2.67968 c 0,-2.57463 2.103091,-4.67774 4.67773,-4.67774 l 2.679688,0 0,-12.71484 -11.140628,0 -13.03515,-13.03516 17.82031,0 c 3.539149,0 6.357421,-2.81826 6.357421,-6.35742 0,-3.53914 -2.818272,-6.35742 -6.357421,-6.35742 l -33.10742,0 -0.002,0 z m 55.169926,0.002 c -3.534264,0.0055 -6.347656,2.8198 -6.347656,6.35547 0,3.53916 2.818264,6.35742 6.357421,6.35742 l 17.816407,0 -13.035157,13.03516 -11.138671,0 0,12.71484 2.677734,0 c 2.574639,0 4.679687,2.10311 4.679687,4.67774 l 0,2.67968 12.712891,0 0,-11.14062 13.037108,-13.03516 0,17.82032 c 0,3.53914 2.81631,6.35742 6.35547,6.35742 3.53916,0 6.35742,-2.81827 6.35742,-6.35742 l 0,-33.10743 c 0,-3.53915 -2.81826,-6.35742 -6.35742,-6.35742 l -33.115234,0 z m 0.0078,54.17578 0,0.002 1.001953,0 -0.002,-0.002 c -0.332845,1.7e-4 -0.667342,-2e-4 -1,0 z m 13.712891,1 c -4.237294,0 -8.480041,-4e-5 -12.710938,0.002 l 0,2.67773 c 0,2.57463 -2.105045,4.67969 -4.679687,4.67969 l -2.677734,0 0,12.71289 11.138671,0 13.035157,13.037104 -17.81836,0 c -3.539157,0 -6.359375,2.81641 -6.359375,6.35547 0,3.53905 2.820218,6.35742 6.359375,6.35742 l 33.105464,0 c 3.53916,0 6.35743,-2.81827 6.35743,-6.35742 l 0,-33.105464 c 0,-3.53916 -2.81827,-6.35742 -6.35743,-6.35742 -3.53915,0 -6.35546,2.81826 -6.35546,6.35742 l 0,17.81641 -13.037113,-13.03516 0,-11.14063 z m -49.498047,0.002 0,13.71289 c 0,3.53916 2.81827,6.35742 6.35742,6.35742 l 13.714846,0 0,-12.71289 -2.679688,0 c -2.574642,0 -4.677728,-2.10506 -4.677728,-4.67969 l 0,-2.67773 -12.71485,0 z"
     id="rect3863-2-60"
     inkscape:connector-curvature="0" />
</svg>
