<?xml version="1.0" encoding="UTF-8" standalone="no"?>
<!-- Created with Inkscape (http://www.inkscape.org/) -->

<svg
   xmlns:dc="http://purl.org/dc/elements/1.1/"
   xmlns:cc="http://creativecommons.org/ns#"
   xmlns:rdf="http://www.w3.org/1999/02/22-rdf-syntax-ns#"
   xmlns:svg="http://www.w3.org/2000/svg"
   xmlns="http://www.w3.org/2000/svg"
   xmlns:xlink="http://www.w3.org/1999/xlink"
   xmlns:sodipodi="http://sodipodi.sourceforge.net/DTD/sodipodi-0.dtd"
   xmlns:inkscape="http://www.inkscape.org/namespaces/inkscape"
   id="svg3143"
   height="48"
   width="48"
   version="1.1"
   inkscape:version="0.91 r13725"
   sodipodi:docname="vmware-player_48.svg">
  <sodipodi:namedview
     pagecolor="#ffffff"
     bordercolor="#666666"
     borderopacity="1"
     objecttolerance="10"
     gridtolerance="10"
     guidetolerance="10"
     inkscape:pageopacity="0"
     inkscape:pageshadow="2"
     inkscape:window-width="1366"
     inkscape:window-height="705"
     id="namedview50"
     showgrid="false"
     inkscape:zoom="11.083333"
     inkscape:cx="-7.1278204"
     inkscape:cy="24"
     inkscape:window-x="0"
     inkscape:window-y="30"
     inkscape:window-maximized="1"
     inkscape:current-layer="svg3143" />
  <defs
     id="defs3145">
    <linearGradient
       inkscape:collect="always"
       id="linearGradient4206">
      <stop
         style="stop-color:#fad229;stop-opacity:1"
         offset="0"
         id="stop4208" />
      <stop
         style="stop-color:#f3b500;stop-opacity:1"
         offset="1"
         id="stop4210" />
    </linearGradient>
    <radialGradient
       id="radialGradient3030"
       gradientUnits="userSpaceOnUse"
       cy="43.5"
       cx="4.993"
       gradientTransform="matrix(2.0038 0 0 1.4 27.988 -17.4)"
       r="2.5">
      <stop
         id="stop2883"
         stop-color="#181818"
         offset="0" />
      <stop
         id="stop2885"
         stop-color="#181818"
         stop-opacity="0"
         offset="1" />
    </radialGradient>
    <radialGradient
       id="radialGradient3032"
       gradientUnits="userSpaceOnUse"
       cy="43.5"
       cx="4.993"
       gradientTransform="matrix(2.0038 0 0 1.4 -20.012 -104.4)"
       r="2.5">
      <stop
         id="stop2889"
         stop-color="#181818"
         offset="0" />
      <stop
         id="stop2891"
         stop-color="#181818"
         stop-opacity="0"
         offset="1" />
    </radialGradient>
    <linearGradient
       id="linearGradient3034"
       y2="39.999"
       gradientUnits="userSpaceOnUse"
       x2="25.058"
       y1="47.028"
       x1="25.058">
      <stop
         id="stop2895"
         stop-color="#181818"
         stop-opacity="0"
         offset="0" />
      <stop
         id="stop2897"
         stop-color="#181818"
         offset=".5" />
      <stop
         id="stop2899"
         stop-color="#181818"
         stop-opacity="0"
         offset="1" />
    </linearGradient>
    <linearGradient
       id="linearGradient3044"
       y2="43"
       gradientUnits="userSpaceOnUse"
       x2="24"
       gradientTransform="translate(48.997719,0.36200872)"
       y1="5"
       x1="24">
      <stop
         id="stop3926-7"
         stop-color="#fff"
         offset="0" />
      <stop
         id="stop3928-3"
         stop-color="#fff"
         stop-opacity=".23529"
         offset=".063165" />
      <stop
         id="stop3930-7"
         stop-color="#fff"
         stop-opacity=".15686"
         offset=".95056" />
      <stop
         id="stop3932-1"
         stop-color="#fff"
         stop-opacity=".39216"
         offset="1" />
    </linearGradient>
    <radialGradient
       id="radialGradient3053"
       gradientUnits="userSpaceOnUse"
       cy="9.9941"
       cx="8.2761"
       gradientTransform="matrix(0,6.6678,-8.1859,0,154.87772,-60.100992)"
       r="12.672">
      <stop
         id="stop3244"
         stop-color="#7ec1f8"
         offset="0" />
      <stop
         id="stop3246"
         stop-color="#4f97e3"
         offset=".26238" />
      <stop
         id="stop3248"
         stop-color="#2674c6"
         offset=".66094" />
      <stop
         id="stop3250"
         stop-color="#0b4169"
         offset="1" />
    </radialGradient>
    <clipPath
       id="clipPath-929888831">
      <g
         id="g17"
         transform="translate(0 -1004.4)">
        <path
           id="path19"
           d="m-24 13c0 1.105-0.672 2-1.5 2s-1.5-0.895-1.5-2 0.672-2 1.5-2 1.5 0.895 1.5 2z"
           transform="matrix(15.333 0 0 11.5 415 878.86)"
           fill="#1890d0" />
      </g>
    </clipPath>
    <radialGradient
       gradientTransform="matrix(2.003784,0,0,1.4,27.98813,-17.4)"
       gradientUnits="userSpaceOnUse"
       xlink:href="#linearGradient3688-166-749-2-324"
       id="radialGradient3013-896"
       fy="43.5"
       fx="4.9929786"
       r="2.5"
       cy="43.5"
       cx="4.9929786" />
    <linearGradient
       id="linearGradient3688-166-749-2-324">
      <stop
         offset="0"
         style="stop-color:#181818;stop-opacity:1"
         id="stop3216" />
      <stop
         offset="1"
         style="stop-color:#181818;stop-opacity:0"
         id="stop3218" />
    </linearGradient>
    <radialGradient
       gradientTransform="matrix(2.003784,0,0,1.4,-20.01187,-104.4)"
       gradientUnits="userSpaceOnUse"
       xlink:href="#linearGradient3688-166-749-2-324"
       id="radialGradient3015-826"
       fy="43.5"
       fx="4.9929786"
       r="2.5"
       cy="43.5"
       cx="4.9929786" />
    <linearGradient
       gradientUnits="userSpaceOnUse"
       xlink:href="#linearGradient3702-501-757-6-946"
       id="linearGradient4395"
       y2="39.999443"
       x2="25.058096"
       y1="47.027729"
       x1="25.058096" />
    <linearGradient
       id="linearGradient3702-501-757-6-946">
      <stop
         offset="0"
         style="stop-color:#181818;stop-opacity:0"
         id="stop3228" />
      <stop
         offset="0.5"
         style="stop-color:#181818;stop-opacity:1"
         id="stop3230" />
      <stop
         offset="1"
         style="stop-color:#181818;stop-opacity:0"
         id="stop3232" />
    </linearGradient>
    <radialGradient
       gradientTransform="matrix(0,9.4975523,-11.65996,0,140.93055,-79.160972)"
       gradientUnits="userSpaceOnUse"
       xlink:href="#linearGradient2867-449-88-871-390-598-476-591-434-148-57-177-8-3-3-6-4-8-8-8-5"
       id="radialGradient4144"
       fy="9.9571075"
       fx="6.2001843"
       r="12.671875"
       cy="9.9571075"
       cx="6.7304144" />
    <linearGradient
       id="linearGradient2867-449-88-871-390-598-476-591-434-148-57-177-8-3-3-6-4-8-8-8-5">
      <stop
         offset="0"
         style="stop-color:#919caf;stop-opacity:1"
         id="stop3750-1-0-7-6-6-1-3-9-3" />
      <stop
         offset="0.26238"
         style="stop-color:#68758e;stop-opacity:1"
         id="stop3752-3-7-4-0-32-8-923-0-7" />
      <stop
         offset="0.704952"
         style="stop-color:#485a6c;stop-opacity:1"
         id="stop3754-1-8-5-2-7-6-7-1-9" />
      <stop
         offset="1"
         style="stop-color:#444c5c;stop-opacity:1"
         id="stop3756-1-6-2-6-6-1-96-6-0" />
    </linearGradient>
    <linearGradient
       gradientTransform="translate(-46.573339,-5.6350974)"
       gradientUnits="userSpaceOnUse"
       xlink:href="#linearGradient4187"
       id="linearGradient3153"
       y2="41.890972"
       x2="23.99999"
       y1="6.1111298"
       x1="23.99999" />
    <linearGradient
       id="linearGradient4187">
      <stop
         offset="0"
         style="stop-color:#ffffff;stop-opacity:1"
         id="stop4189" />
      <stop
         offset="0.02099473"
         style="stop-color:#ffffff;stop-opacity:0.23529412"
         id="stop4191" />
      <stop
         offset="0.97696"
         style="stop-color:#ffffff;stop-opacity:0.15686275"
         id="stop4193" />
      <stop
         offset="1"
         style="stop-color:#ffffff;stop-opacity:0.39215687"
         id="stop4195" />
    </linearGradient>
    <linearGradient
       gradientTransform="matrix(1.0521608,0,0,-1.0532519,-1.2521612,51.339874)"
       gradientUnits="userSpaceOnUse"
       xlink:href="#linearGradient4311"
       id="linearGradient3143"
       y2="25.361452"
       x2="30.212982"
       y1="21.416878"
       x1="30.212982" />
    <linearGradient
       id="linearGradient4311">
      <stop
         offset="0"
         style="stop-color:#000000;stop-opacity:1"
         id="stop4313" />
      <stop
         offset="1"
         style="stop-color:#000000;stop-opacity:0"
         id="stop4315" />
    </linearGradient>
    <radialGradient
       gradientTransform="matrix(2.003784,0,0,1.4,27.98813,-17.4)"
       gradientUnits="userSpaceOnUse"
       xlink:href="#linearGradient3688-166-749-2-324"
       id="radialGradient3013-896-3"
       fy="43.5"
       fx="4.9929786"
       r="2.5"
       cy="43.5"
       cx="4.9929786" />
    <radialGradient
       gradientTransform="matrix(2.003784,0,0,1.4,-20.01187,-104.4)"
       gradientUnits="userSpaceOnUse"
       xlink:href="#linearGradient3688-166-749-2-324"
       id="radialGradient3015-826-5"
       fy="43.5"
       fx="4.9929786"
       r="2.5"
       cy="43.5"
       cx="4.9929786" />
    <radialGradient
       gradientTransform="matrix(0,9.4975523,-11.65996,0,140.93055,-79.160972)"
       gradientUnits="userSpaceOnUse"
       xlink:href="#radialGradient3053"
       id="radialGradient4144-2"
       fy="9.9571075"
       fx="6.2001843"
       r="12.671875"
       cy="9.9571075"
       cx="6.7304144" />
    <linearGradient
       inkscape:collect="always"
       xlink:href="#linearGradient4206"
       id="linearGradient4212"
       x1="23.939856"
       y1="10.879699"
       x2="24.015045"
       y2="39.030075"
       gradientUnits="userSpaceOnUse"
       gradientTransform="matrix(1.3928571,0,0,1.3928571,-9.428581,-9.821429)" />
    <radialGradient
       gradientTransform="matrix(2.003784,0,0,1.4,27.98813,-17.4)"
       gradientUnits="userSpaceOnUse"
       xlink:href="#linearGradient3688-166-749-2-324"
       id="radialGradient3013-896-3-3"
       fy="43.5"
       fx="4.9929786"
       r="2.5"
       cy="43.5"
       cx="4.9929786" />
    <radialGradient
       gradientTransform="matrix(2.003784,0,0,1.4,-20.01187,-104.4)"
       gradientUnits="userSpaceOnUse"
       xlink:href="#linearGradient3688-166-749-2-324"
       id="radialGradient3015-826-5-2"
       fy="43.5"
       fx="4.9929786"
       r="2.5"
       cy="43.5"
       cx="4.9929786" />
    <radialGradient
       gradientTransform="matrix(2.003784,0,0,1.4,27.98813,-17.4)"
       gradientUnits="userSpaceOnUse"
       xlink:href="#linearGradient3688-166-749-2-324"
       id="radialGradient3013-896-3-0"
       fy="43.5"
       fx="4.9929786"
       r="2.5"
       cy="43.5"
       cx="4.9929786" />
    <radialGradient
       gradientTransform="matrix(2.003784,0,0,1.4,-20.01187,-104.4)"
       gradientUnits="userSpaceOnUse"
       xlink:href="#linearGradient3688-166-749-2-324"
       id="radialGradient3015-826-5-7"
       fy="43.5"
       fx="4.9929786"
       r="2.5"
       cy="43.5"
       cx="4.9929786" />
    <linearGradient
       inkscape:collect="always"
       xlink:href="#linearGradient3702-501-757-6-946"
       id="linearGradient4919"
       gradientUnits="userSpaceOnUse"
       x1="25.058096"
       y1="47.027729"
       x2="25.058096"
       y2="39.999443" />
    <linearGradient
       inkscape:collect="always"
       xlink:href="#linearGradient4187"
       id="linearGradient4355"
       x1="61.570797"
       y1="56.620274"
       x2="61.495609"
       y2="95.868393"
       gradientUnits="userSpaceOnUse"
       gradientTransform="translate(-37.533203,-51.19922)" />
  </defs>
  <metadata
     id="metadata3148">
    <rdf:RDF>
      <cc:Work
         rdf:about="">
        <dc:format>image/svg+xml</dc:format>
        <dc:type
           rdf:resource="http://purl.org/dc/dcmitype/StillImage" />
        <dc:title />
      </cc:Work>
    </rdf:RDF>
  </metadata>
  <g
     style="opacity:0.05"
     id="g3712-0-2-5"
     transform="matrix(-1.1578952,0,0,-0.57142859,51.861494,68.857144)">
    <rect
       style="fill:url(#radialGradient3013-896-3-0);fill-opacity:1;stroke:none"
       id="rect2801-4-6-9"
       y="40"
       x="38"
       height="7"
       width="5" />
    <rect
       style="fill:url(#radialGradient3015-826-5-7);fill-opacity:1;stroke:none"
       id="rect3696-8-1-7"
       transform="scale(-1,-1)"
       y="-47"
       x="-10"
       height="7"
       width="5" />
    <rect
       style="fill:url(#linearGradient4919);fill-opacity:1;stroke:none"
       id="rect3700-7-8-7"
       y="40"
       x="10"
       height="7.0000005"
       width="28" />
  </g>
  <g
     style="opacity:0.1"
     id="g3712-0-2"
     transform="matrix(-0.60807895,0,0,-0.57142859,49.112413,68.857144)">
    <rect
       style="fill:url(#radialGradient3013-896-3-3);fill-opacity:1;stroke:none"
       id="rect2801-4-6"
       y="40"
       x="38"
       height="7"
       width="5" />
    <rect
       style="fill:url(#radialGradient3015-826-5-2);fill-opacity:1;stroke:none"
       id="rect3696-8-1"
       transform="scale(-1,-1)"
       y="-47"
       x="-10"
       height="7"
       width="5" />
    <rect
       style="fill:url(#linearGradient4395);fill-opacity:1;stroke:none"
       id="rect3700-7-8"
       y="40"
       x="10"
       height="7.0000005"
       width="28" />
  </g>
  <g
     id="g4224"
     fill="#ffc239"
     transform="matrix(1.0826 0 0 -1.0785 -1.975 50.826)">
    <g
       id="g4226"
       fill="#ffc239"
       clip-path="url(#clipPath-929888831)">
      <!-- color: #dfdfdf -->
    </g>
  </g>
  <g
     id="g4232"
     fill="#ffc239"
     transform="matrix(-1.0826 0 0 -1.0785 49.975 50.826)">
    <g
       id="g4234"
       fill="#ffc239"
       clip-path="url(#clipPath-929888831)">
      <!-- color: #dfdfdf -->
    </g>
  </g>
  <g
     id="g4294"
     stroke-linejoin="round"
     opacity=".15"
     transform="matrix(.99936 0 0 .99553 .022037 .46841)"
     stroke="#fff"
     stroke-linecap="round"
     stroke-width="1.8509"
     fill="none">
    <g
       id="g4296"
       transform="matrix(1.0833 0 0 1.0833 -2 -1.3)">
      <g
         id="g4298"
         stroke-linejoin="round"
         clip-path="url(#clipPath-929888831)"
         stroke="#fff"
         stroke-linecap="round"
         stroke-width="1.8509"
         fill="none">
        <!-- color: #dfdfdf -->
      </g>
    </g>
    <g
       id="g4304"
       transform="matrix(1.0833 0 0 -1.0833 -1.9983 50.583)">
      <g
         id="g4306"
         stroke-linejoin="round"
         clip-path="url(#clipPath-929888831)"
         stroke="#fff"
         stroke-linecap="round"
         stroke-width="1.8509"
         fill="none">
        <!-- color: #dfdfdf -->
      </g>
    </g>
    <g
       id="g4310"
       transform="matrix(-1.0833 0 0 -1.0833 49.985 50.583)">
      <g
         id="g4312"
         stroke-linejoin="round"
         clip-path="url(#clipPath-929888831)"
         stroke="#fff"
         stroke-linecap="round"
         stroke-width="1.8509"
         fill="none">
        <!-- color: #dfdfdf -->
      </g>
    </g>
  </g>
  <path
     inkscape:connector-curvature="0"
     id="rect3863"
     style="color:#000000;fill:url(#linearGradient4212);fill-opacity:1;enable-background:new"
     d="M 7.285714,5.499999 C 5.742429,5.499999 4.5,6.742427 4.5,8.285713 l 0,12.535713 c 0,1.543286 1.242429,2.785715 2.785714,2.785715 1.543286,0 2.785715,-1.242429 2.785715,-2.785715 l 0,-5.832588 4.178571,4.178571 0,4.439732 5.571429,0 0,-1.392857 c 0,-0.771643 0.621214,-1.392858 1.392857,-1.392858 l 1.392857,0 0,-5.571427 -4.439732,0 -4.178572,-4.178572 5.833286,0 c 1.543286,0 2.785714,-1.242428 2.785714,-2.785714 0,-1.543286 -1.242428,-2.785714 -2.785714,-2.785714 l -12.535714,0 z m 20.892857,0 c -1.543285,0 -2.785714,1.242428 -2.785714,2.785714 0,1.543286 1.242429,2.785714 2.785714,2.785714 l 5.832589,0 -4.178571,4.178572 -4.439732,0 0,5.571427 1.392857,0 c 0.771643,0 1.392857,0.621215 1.392857,1.392858 l 0,1.392857 5.571429,0 0,-4.439732 4.178571,-4.178571 0,5.833285 c 0,1.543286 1.242429,2.785714 2.785714,2.785714 1.543286,0 2.785715,-1.242428 2.785715,-2.785714 l 0,-12.535714 c 0,-1.543285 -1.242429,-2.785714 -2.785715,-2.785714 l -12.535714,0 z M 14.25,26.392856 l 0,5.571429 c 0,1.543285 1.242429,2.785714 2.785714,2.785714 l 5.571429,0 0,-5.571429 -1.392857,0 c -0.771643,0 -1.392857,-0.621214 -1.392857,-1.392857 l 0,-1.392857 z m 13.928571,0 0,1.392857 c 0,0.771643 -0.621214,1.392857 -1.392857,1.392857 l -1.392857,0 0,5.571429 4.439732,0 4.178571,4.178571 -5.833285,0 c -1.543286,0 -2.785875,1.24243 -2.785875,2.785715 0,1.543285 1.242589,2.785715 2.785875,2.785715 l 12.535714,0 c 1.543286,0 2.785374,-1.24243 2.785411,-2.785715 l 3.04e-4,-12.535715 c 3.7e-5,-1.543285 -1.242429,-2.785714 -2.785715,-2.785714 -1.543286,0 -2.785714,1.242429 -2.785714,2.785714 l 0,5.83259 -4.178572,-4.178572 0,-4.440428 c -1.856173,3.7e-5 -3.717531,-3.77e-4 -5.570732,6.96e-4 z"
     sodipodi:nodetypes="sssssccccssccccssscscssccccssccccssssscccssccsscccssccccsssssssscccc" />
  <path
     inkscape:connector-curvature="0"
     id="rect3863-5"
     style="color:#000000;opacity:0.3;fill:none;fill-opacity:1;stroke:#ad5f00;stroke-opacity:1;enable-background:new"
     d="M 7.285714,5.4999992 C 5.742429,5.4999992 4.5,6.7424272 4.5,8.2857132 l 0,12.5357128 c 0,1.543286 1.242429,2.785715 2.785714,2.785715 1.543286,0 2.785715,-1.242429 2.785715,-2.785715 l 0,-5.832588 4.178571,4.178571 0,4.439732 5.571429,0 0,-1.392857 c 0,-0.771643 0.621214,-1.392858 1.392857,-1.392858 l 1.392857,0 0,-5.571427 -4.439732,0 -4.178572,-4.178572 5.833286,0 c 1.543286,0 2.785714,-1.2424278 2.785714,-2.7857138 0,-1.543286 -1.242428,-2.785714 -2.785714,-2.785714 l -12.535714,0 z m 20.892857,0 c -1.543285,0 -2.785714,1.242428 -2.785714,2.785714 0,1.543286 1.242429,2.7857138 2.785714,2.7857138 l 5.832589,0 -4.178571,4.178572 -4.439732,0 0,5.571427 1.392857,0 c 0.771643,0 1.392857,0.621215 1.392857,1.392858 l 0,1.392857 5.571429,0 0,-4.439732 4.178571,-4.178571 0,5.833285 c 0,1.543286 1.242429,2.785714 2.785714,2.785714 1.543286,0 2.785715,-1.242428 2.785715,-2.785714 l 0,-12.5357138 c 0,-1.543285 -1.242429,-2.785714 -2.785715,-2.785714 l -12.535714,0 z M 14.25,26.392856 l 0,5.571429 c 0,1.543285 1.242429,2.785714 2.785714,2.785714 l 5.571429,0 0,-5.571429 -1.392857,0 c -0.771643,0 -1.392857,-0.621214 -1.392857,-1.392857 l 0,-1.392857 z m 13.928571,0 0,1.392857 c 0,0.771643 -0.621214,1.392857 -1.392857,1.392857 l -1.392857,0 0,5.571429 4.439732,0 4.178571,4.178571 -5.833285,0 c -1.543286,0 -2.785714,1.24243 -2.785714,2.785715 0,1.543285 1.242428,2.785715 2.785714,2.785715 l 12.535714,0 c 1.543286,0 2.785715,-1.24243 2.785715,-2.785715 l 0,-12.535715 c 0,-1.543285 -1.242429,-2.785714 -2.785715,-2.785714 -1.543286,0 -2.785714,1.242429 -2.785714,2.785714 l 0,5.83259 -4.178572,-4.178572 0,-4.440428 c -1.856173,3.7e-5 -3.717531,-3.77e-4 -5.570732,6.96e-4 z"
     sodipodi:nodetypes="sssssccccssccccssscscssccccssccccssssscccssccsscccssccccsssssssscccc" />
  <path
     style="color:#000000;fill:none;fill-opacity:1;stroke:url(#linearGradient4355);stroke-opacity:1;enable-background:new"
     d="m 7.2871092,6.4999996 c -1.006582,0 -1.787109,0.778573 -1.787109,1.785156 l 0,12.5351554 c 0,1.006583 0.780529,1.78711 1.787109,1.78711 1.006584,0 1.785157,-0.780526 1.785157,-1.78711 l 0,-8.246093 6.1777338,6.177734 0,3.855469 3.572266,0 0,-0.394532 c 0,-1.308345 1.084232,-2.392578 2.392578,-2.392578 l 0.392578,0 0,-3.570312 -3.853516,0 -6.177734,-6.179688 8.246094,0 c 1.006582,0 1.787109,-0.7785714 1.787109,-1.7851554 0,-1.006584 -0.780526,-1.785156 -1.787109,-1.785156 l -12.5351568,0 z m 20.8925788,0 c -1.006583,0 -1.78711,0.778573 -1.78711,1.785156 0,1.006583 0.780527,1.7851554 1.78711,1.7851554 l 8.246093,0 -6.177734,6.179688 -3.855469,0 0,3.570312 0.394531,0 c 1.308347,0 2.392579,1.084233 2.392579,2.392578 l 0,0.394532 3.570312,0 0,-3.855469 6.179688,-6.177734 0,8.248046 c 0,1.006584 0.778574,1.785157 1.785156,1.785157 1.006583,0 1.785156,-0.778573 1.785156,-1.785157 l 0,-12.5371084 c 0,-1.006582 -0.778573,-1.785156 -1.785156,-1.785156 l -12.535156,0 z M 15.25,27.392577 l 0,4.570312 c 0,1.006582 0.780529,1.78711 1.787109,1.78711 l 4.570313,0 0,-3.572266 -0.392578,0 c -1.308346,0 -2.392578,-1.084233 -2.392578,-2.392578 l 0,-0.392578 -3.572266,0 z m 13.929688,0 0,0.392578 c 0,1.308345 -1.084232,2.392578 -2.392579,2.392578 l -0.394531,0 0,3.572266 3.855469,0 6.177734,6.177734 -8.248046,0 c -1.006583,0 -1.785157,0.778644 -1.785157,1.785156 0,1.006513 0.778573,1.78711 1.785157,1.78711 l 12.537109,0 c 1.006583,0 1.785132,-0.780368 1.785156,-1.78711 l 0,-12.535156 c 2.4e-5,-1.006553 -0.778573,-1.785156 -1.785156,-1.785156 -1.006583,0 -1.787109,0.778574 -1.787109,1.785156 l 0,8.248047 -6.177735,-6.179688 0,-3.853515 c -1.190662,-4e-5 -2.381158,-3.86e-4 -3.570312,0 z"
     id="rect3863-3"
     inkscape:connector-curvature="0" />
</svg>
