<?xml version="1.0" encoding="UTF-8" standalone="no"?>
<svg
   xmlns:dc="http://purl.org/dc/elements/1.1/"
   xmlns:cc="http://creativecommons.org/ns#"
   xmlns:rdf="http://www.w3.org/1999/02/22-rdf-syntax-ns#"
   xmlns:svg="http://www.w3.org/2000/svg"
   xmlns="http://www.w3.org/2000/svg"
   xmlns:xlink="http://www.w3.org/1999/xlink"
   xmlns:sodipodi="http://sodipodi.sourceforge.net/DTD/sodipodi-0.dtd"
   xmlns:inkscape="http://www.inkscape.org/namespaces/inkscape"
   width="32"
   height="32"
   viewBox="0 0 48 48"
   version="1.1"
   id="svg46"
   sodipodi:docname="android-studio_32.svg"
   inkscape:version="0.92.3 (2405546, 2018-03-11)">
  <metadata
     id="metadata50">
    <rdf:RDF>
      <cc:Work
         rdf:about="">
        <dc:format>image/svg+xml</dc:format>
        <dc:type
           rdf:resource="http://purl.org/dc/dcmitype/StillImage" />
      </cc:Work>
    </rdf:RDF>
  </metadata>
  <sodipodi:namedview
     pagecolor="#ffffff"
     bordercolor="#666666"
     borderopacity="1"
     objecttolerance="10"
     gridtolerance="10"
     guidetolerance="10"
     inkscape:pageopacity="0"
     inkscape:pageshadow="2"
     inkscape:window-width="1366"
     inkscape:window-height="705"
     id="namedview48"
     showgrid="false"
     inkscape:zoom="7.6897862"
     inkscape:cx="21.197197"
     inkscape:cy="10.012358"
     inkscape:window-x="0"
     inkscape:window-y="30"
     inkscape:window-maximized="1"
     inkscape:current-layer="svg46" />
  <defs
     id="defs26">
    <linearGradient
       id="linearGradient4212">
      <stop
         style="stop-color:#000000;stop-opacity:1;"
         offset="0"
         id="stop2" />
      <stop
         style="stop-color:#000000;stop-opacity:0;"
         offset="1"
         id="stop4" />
    </linearGradient>
    <linearGradient
       id="linearGradient4198">
      <stop
         style="stop-color:#272b2d;stop-opacity:1;"
         offset="0"
         id="stop7" />
      <stop
         style="stop-color:#3e4447;stop-opacity:1"
         offset="1"
         id="stop9" />
    </linearGradient>
    <linearGradient
       id="linearGradient4185">
      <stop
         style="stop-color:#acacac;stop-opacity:1"
         offset="0"
         id="stop12" />
      <stop
         style="stop-color:#cbcbcb;stop-opacity:1"
         offset="1"
         id="stop14" />
    </linearGradient>
    <linearGradient
       id="linearGradient4144">
      <stop
         style="stop-color:#3b962d;stop-opacity:1"
         offset="0"
         id="stop17" />
      <stop
         style="stop-color:#93d169;stop-opacity:1"
         offset="1"
         id="stop19" />
    </linearGradient>
    <linearGradient
       xlink:href="#linearGradient4144"
       id="linearGradient4150"
       x1="25"
       y1="1046.362"
       x2="25"
       y2="1010.362"
       gradientUnits="userSpaceOnUse"
       gradientTransform="matrix(1.2083333,0,0,1.2083333,-4.9999993,-1218.6034)" />
    <radialGradient
       xlink:href="#linearGradient4185"
       id="radialGradient4191"
       cx="24"
       cy="1025.362"
       fx="24"
       fy="1025.362"
       r="2"
       gradientTransform="matrix(1.2083333,0,0,1.2068919,-4.9999993,-1218.7632)"
       gradientUnits="userSpaceOnUse" />
    <linearGradient
       xlink:href="#linearGradient4198"
       id="linearGradient4204"
       x1="24"
       y1="1032.362"
       x2="24"
       y2="1018.362"
       gradientUnits="userSpaceOnUse"
       gradientTransform="matrix(1.2083333,0,0,1.2070433,-4.9999993,-1218.9186)" />
    <linearGradient
       xlink:href="#linearGradient4212"
       id="linearGradient4218"
       x1="20"
       y1="17"
       x2="38"
       y2="35"
       gradientUnits="userSpaceOnUse"
       gradientTransform="translate(-46.45332,-2.1572749)" />
    <linearGradient
       x1="71.204407"
       y1="6.2375584"
       x2="71.204407"
       y2="44.340794"
       id="linearGradient3019"
       xlink:href="#linearGradient4011"
       gradientUnits="userSpaceOnUse"
       gradientTransform="matrix(1.054054,0,0,1.054054,-51.611001,-2.7278993)" />
    <linearGradient
       id="linearGradient4011">
      <stop
         id="stop4013"
         style="stop-color:#ffffff;stop-opacity:1"
         offset="0" />
      <stop
         id="stop4015"
         style="stop-color:#ffffff;stop-opacity:0.23529412"
         offset="0.507761" />
      <stop
         id="stop4017"
         style="stop-color:#ffffff;stop-opacity:0.15686275"
         offset="0.83456558" />
      <stop
         id="stop4019"
         style="stop-color:#ffffff;stop-opacity:0.39215687"
         offset="1" />
    </linearGradient>
    <radialGradient
       xlink:href="#linearGradient4185"
       id="radialGradient4191-2"
       cx="24"
       cy="1025.3621"
       fx="24"
       fy="1025.3621"
       r="2"
       gradientTransform="matrix(1.1388889,0,0,1.138746,-22.045197,-1091.085)"
       gradientUnits="userSpaceOnUse" />
    <linearGradient
       xlink:href="#linearGradient4144"
       id="linearGradient4150-2"
       x1="25"
       y1="1046.3621"
       x2="25"
       y2="1010.362"
       gradientUnits="userSpaceOnUse"
       gradientTransform="matrix(1.1388889,0,0,1.1388889,-48.994349,-1150.7231)" />
    <linearGradient
       xlink:href="#linearGradient4144"
       id="linearGradient4150-23"
       x1="25"
       y1="1046.3621"
       x2="25"
       y2="1010.362"
       gradientUnits="userSpaceOnUse"
       gradientTransform="matrix(1.1388889,0,0,1.1388889,-25.463694,-1085.9672)" />
    <radialGradient
       xlink:href="#linearGradient4185"
       id="radialGradient4191-28"
       cx="24"
       cy="1025.3621"
       fx="24"
       fy="1025.3621"
       r="2"
       gradientTransform="matrix(1.1388889,0,0,1.138746,-25.463695,-1085.8206)"
       gradientUnits="userSpaceOnUse" />
    <linearGradient
       xlink:href="#linearGradient4144"
       id="linearGradient4150-23-8"
       x1="25"
       y1="1046.3621"
       x2="25"
       y2="1010.362"
       gradientUnits="userSpaceOnUse"
       gradientTransform="matrix(1.1388889,0,0,1.1388889,45.439239,-1092.5824)" />
    <linearGradient
       xlink:href="#linearGradient4144"
       id="linearGradient4150-23-2"
       x1="25"
       y1="1046.3621"
       x2="25"
       y2="1010.362"
       gradientUnits="userSpaceOnUse"
       gradientTransform="matrix(1.1388889,0,0,1.1388889,-25.463694,-1085.9673)" />
    <radialGradient
       xlink:href="#linearGradient4185"
       id="radialGradient4191-4"
       cx="24"
       cy="1025.3621"
       fx="24"
       fy="1025.3621"
       r="2"
       gradientTransform="matrix(1.1388889,0,0,1.138746,-8.7184604,-1106.59)"
       gradientUnits="userSpaceOnUse" />
    <radialGradient
       xlink:href="#linearGradient4212"
       id="radialGradient3300-8"
       gradientUnits="userSpaceOnUse"
       gradientTransform="matrix(0.3823536,7.5555777e-8,-1.8372241e-8,0.1115198,-5.9254271,36.335849)"
       cx="99.189415"
       cy="185.29727"
       fx="99.189415"
       fy="185.29727"
       r="62.769119" />
    <radialGradient
       xlink:href="#linearGradient4212"
       id="radialGradient4192-6"
       gradientUnits="userSpaceOnUse"
       gradientTransform="matrix(0.2549024,5.3967361e-8,-1.2248161e-8,0.07965545,6.7163816,44.240666)"
       cx="99.189415"
       cy="185.29727"
       fx="99.189415"
       fy="185.29727"
       r="62.769119" />
    <radialGradient
       gradientTransform="matrix(0.6168591,0,0,0.20491803,-5.3370623,37.707954)"
       gradientUnits="userSpaceOnUse"
       xlink:href="#linearGradient4212"
       id="radialGradient4284"
       fy="44.261826"
       fx="23.557255"
       r="6.0999999"
       cy="44.261826"
       cx="23.557255" />
    <radialGradient
       gradientTransform="matrix(0.6168591,0,0,0.20491803,23.926676,37.708076)"
       gradientUnits="userSpaceOnUse"
       xlink:href="#linearGradient4212"
       id="radialGradient4284-3"
       fy="44.26123"
       fx="24.059826"
       r="6.0999999"
       cy="44.26123"
       cx="24.059826" />
    <radialGradient
       xlink:href="#linearGradient4185"
       id="radialGradient4191-3"
       cx="24"
       cy="1025.3621"
       fx="24"
       fy="1025.3621"
       r="2"
       gradientTransform="matrix(1.1388889,0,0,1.138746,-3.7401161,-1107.3222)"
       gradientUnits="userSpaceOnUse" />
    <radialGradient
       xlink:href="#linearGradient4185"
       id="radialGradient4191-35"
       cx="24"
       cy="1025.3621"
       fx="24"
       fy="1025.3621"
       r="2"
       gradientTransform="matrix(1.1388889,0,0,1.138746,-6.4710288,-1095.9498)"
       gradientUnits="userSpaceOnUse" />
    <radialGradient
       cx="4.9929786"
       cy="43.5"
       r="2.5"
       fx="4.9929786"
       fy="43.5"
       id="radialGradient3013"
       xlink:href="#linearGradient3688-166-749"
       gradientUnits="userSpaceOnUse"
       gradientTransform="matrix(2.003784,0,0,1.4,27.98813,-17.4)" />
    <linearGradient
       id="linearGradient3688-166-749">
      <stop
         id="stop2883"
         style="stop-color:#181818;stop-opacity:1"
         offset="0" />
      <stop
         id="stop2885"
         style="stop-color:#181818;stop-opacity:0"
         offset="1" />
    </linearGradient>
    <radialGradient
       cx="4.9929786"
       cy="43.5"
       r="2.5"
       fx="4.9929786"
       fy="43.5"
       id="radialGradient3015"
       xlink:href="#linearGradient3688-166-749"
       gradientUnits="userSpaceOnUse"
       gradientTransform="matrix(2.003784,0,0,1.4,-20.01187,-104.4)" />
    <linearGradient
       x1="25.058096"
       y1="47.027729"
       x2="25.058096"
       y2="39.999443"
       id="linearGradient3990"
       xlink:href="#linearGradient3702-501-757"
       gradientUnits="userSpaceOnUse" />
    <linearGradient
       id="linearGradient3702-501-757">
      <stop
         id="stop2895"
         style="stop-color:#181818;stop-opacity:0"
         offset="0" />
      <stop
         id="stop2897"
         style="stop-color:#181818;stop-opacity:1"
         offset="0.5" />
      <stop
         id="stop2899"
         style="stop-color:#181818;stop-opacity:0"
         offset="1" />
    </linearGradient>
    <linearGradient
       gradientTransform="matrix(1.0945951,0,0,1.0945951,-54.51917,-3.7559083)"
       gradientUnits="userSpaceOnUse"
       xlink:href="#linearGradient4011"
       id="linearGradient12398-3"
       y2="44.340794"
       x2="71.204407"
       y1="6.2375584"
       x1="71.204407" />
    <radialGradient
       cx="4.9929786"
       cy="43.5"
       r="2.5"
       fx="4.9929786"
       fy="43.5"
       id="radialGradient3013-3"
       xlink:href="#linearGradient3688-166-749"
       gradientUnits="userSpaceOnUse"
       gradientTransform="matrix(2.003784,0,0,1.4,27.98813,-17.4)" />
    <radialGradient
       cx="4.9929786"
       cy="43.5"
       r="2.5"
       fx="4.9929786"
       fy="43.5"
       id="radialGradient3015-2"
       xlink:href="#linearGradient3688-166-749"
       gradientUnits="userSpaceOnUse"
       gradientTransform="matrix(2.003784,0,0,1.4,-20.01187,-104.4)" />
    <radialGradient
       gradientTransform="matrix(0.6168591,0,0,0.20491803,23.926676,37.708076)"
       gradientUnits="userSpaceOnUse"
       xlink:href="#linearGradient4212"
       id="radialGradient4284-3-7"
       fy="44.26123"
       fx="24.059826"
       r="6.0999999"
       cy="44.26123"
       cx="24.059826" />
    <radialGradient
       gradientTransform="matrix(0.6168591,0,0,0.20491803,-5.3370623,37.707954)"
       gradientUnits="userSpaceOnUse"
       xlink:href="#linearGradient4212"
       id="radialGradient4284-36"
       fy="44.261826"
       fx="23.557255"
       r="6.0999999"
       cy="44.261826"
       cx="23.557255" />
    <radialGradient
       xlink:href="#linearGradient3820-7-2-2"
       id="radialGradient4048"
       gradientUnits="userSpaceOnUse"
       gradientTransform="matrix(0.26286811,0,0,0.08363988,-2.0652,27.178719)"
       cx="99.157013"
       cy="186.17059"
       fx="99.157013"
       fy="186.17059"
       r="62.769119" />
    <linearGradient
       id="linearGradient3820-7-2-2">
      <stop
         id="stop3822-2-6-36"
         style="stop-color:#3d3d3d;stop-opacity:1"
         offset="0" />
      <stop
         id="stop3864-8-7-6"
         style="stop-color:#686868;stop-opacity:0.49803922"
         offset="0.5" />
      <stop
         id="stop3824-1-2-4"
         style="stop-color:#686868;stop-opacity:0"
         offset="1" />
    </linearGradient>
    <radialGradient
       xlink:href="#linearGradient4185"
       id="radialGradient4191-26"
       cx="24"
       cy="1025.3621"
       fx="24"
       fy="1025.3621"
       r="2"
       gradientTransform="matrix(1.2083333,0,0,1.2068919,-6.5676462,-1153.9955)"
       gradientUnits="userSpaceOnUse" />
    <linearGradient
       xlink:href="#linearGradient4144"
       id="linearGradient4150-7"
       x1="25"
       y1="1046.3621"
       x2="25"
       y2="1010.362"
       gradientUnits="userSpaceOnUse"
       gradientTransform="matrix(0.80555553,0,0,0.80555553,-4.3784309,-769.2238)" />
    <linearGradient
       xlink:href="#linearGradient4144"
       id="linearGradient4150-7-7"
       x1="25"
       y1="1046.3621"
       x2="25"
       y2="1010.362"
       gradientUnits="userSpaceOnUse"
       gradientTransform="matrix(0.80555553,0,0,0.80555553,-4.3784308,-769.2238)" />
    <radialGradient
       xlink:href="#linearGradient4185"
       id="radialGradient4191-29"
       cx="24"
       cy="1025.3621"
       fx="24"
       fy="1025.3621"
       r="2"
       gradientTransform="matrix(0.80555553,0,0,0.8045946,4.4367776,-779.20787)"
       gradientUnits="userSpaceOnUse" />
    <radialGradient
       xlink:href="#linearGradient4185"
       id="radialGradient4191-47"
       cx="24"
       cy="1025.3621"
       fx="24"
       fy="1025.3621"
       r="2"
       gradientTransform="matrix(1.2083333,0,0,1.2068919,6.6551664,-1167.3122)"
       gradientUnits="userSpaceOnUse" />
    <linearGradient
       xlink:href="#linearGradient4198"
       id="linearGradient4204-0"
       x1="24"
       y1="1032.3621"
       x2="24"
       y2="1018.362"
       gradientUnits="userSpaceOnUse"
       gradientTransform="matrix(0.80555553,0,0,0.80469553,0.06935253,-775.58787)" />
    <linearGradient
       xlink:href="#linearGradient4198"
       id="linearGradient4204-0-3"
       x1="24"
       y1="1032.3621"
       x2="24"
       y2="1018.362"
       gradientUnits="userSpaceOnUse"
       gradientTransform="matrix(1.2083333,0,0,1.2070433,0.12370067,-1161.8825)" />
  </defs>
  <path
     inkscape:connector-curvature="0"
     d="m 40.5,42.75 a 16.5,5.2499998 0 1 1 -33,0 16.5,5.2499998 0 1 1 33,0 z"
     id="path3818-0-2"
     style="fill:url(#radialGradient4048);fill-opacity:1;stroke:none;stroke-width:1.5" />
  <g
     transform="matrix(1.0725269,0,0,1.1999998,-1.8488976,-9.5999858)"
     id="g966"
     style="stroke-width:1.32219839">
    <g
       style="opacity:0.1;stroke-width:1.82675195"
       id="g3712"
       transform="matrix(0.96814261,0,0,0.35714283,0.6592867,31.214287)">
      <rect
         style="fill:url(#radialGradient3013-3);fill-opacity:1;stroke:none;stroke-width:1.82675195"
         id="rect2801"
         y="40"
         x="38"
         height="7"
         width="5" />
      <rect
         style="fill:url(#radialGradient3015-2);fill-opacity:1;stroke:none;stroke-width:1.82675195"
         id="rect3696"
         transform="scale(-1)"
         y="-47"
         x="-10"
         height="7"
         width="5" />
      <rect
         style="fill:url(#linearGradient3990);fill-opacity:1;stroke:none;stroke-width:1.82675195"
         id="rect3700"
         y="40"
         x="10"
         height="7.0000005"
         width="28" />
    </g>
    <path
       style="color:#000000;display:inline;overflow:visible;visibility:visible;opacity:0.15;fill:url(#radialGradient4284-3-7);fill-opacity:1;fill-rule:nonzero;stroke:none;stroke-width:0.58414352;marker:none;enable-background:accumulate"
       id="path3964-5"
       d="m 42.289418,46.750911 a 3.7628405,1.25 0 0 1 -7.525679,0 3.7628405,1.25 0 1 1 7.525679,0 z"
       inkscape:connector-curvature="0" />
    <path
       style="color:#000000;display:inline;overflow:visible;visibility:visible;opacity:0.15;fill:url(#radialGradient4284-36);fill-opacity:1;fill-rule:nonzero;stroke:none;stroke-width:0.58414352;marker:none;enable-background:accumulate"
       id="path3964"
       d="m 13.02568,46.750789 a 3.7628405,1.25 0 0 1 -7.5256795,0 3.7628405,1.25 0 1 1 7.5256795,0 z"
       inkscape:connector-curvature="0" />
  </g>
  <circle
     id="circle28"
     cy="24.000746"
     cx="24"
     style="opacity:1;fill:url(#linearGradient4150);fill-opacity:1;stroke:none;stroke-width:4.55555582;stroke-linecap:round;stroke-linejoin:round;stroke-miterlimit:4;stroke-dasharray:none;stroke-opacity:1"
     r="21.75" />
  <path
     style="opacity:0.6;fill:#0b6926;fill-opacity:1;stroke:none;stroke-width:4.55555582;stroke-linecap:round;stroke-linejoin:round;stroke-miterlimit:4;stroke-dasharray:none;stroke-opacity:1"
     d="m 21.583335,11.038962 a 0.750075,0.750075 0 0 0 -0.75,0.75 v 0.02051 2.850587 h -0.615234 c -1.65054,0 -3.00879,1.354143 -3.00879,2.994141 v 5.909179 a 0.750075,0.750075 0 0 0 0.339844,0.626954 c 0.106829,0.180568 0.110787,0.4232 0.254883,0.565429 a 0.750075,0.750075 0 0 0 0.03223,0.0293 l 0.603516,0.533203 -9.084961,15.726563 c 1.297127,1.116196 2.716917,2.088099 4.245118,2.888672 l 4.379882,-7.576172 c 2.068846,0.946029 4.337802,1.529297 6.75879,1.529297 1.843521,0 3.818144,-0.335926 5.648437,-0.890625 l 4.013672,6.9375 c 1.528201,-0.800573 2.947989,-1.772476 4.245117,-2.888672 l -3.670903,-6.351569 c 0.604726,-0.434679 1.212075,-0.866449 1.751953,-1.394532 l 0.0029,-0.0029 c 3.057597,-2.972849 4.96875,-7.247204 4.96875,-11.838867 a 0.750075,0.750075 0 0 0 -0.74121,-0.75 c -1.252776,-0.0121 -2.566383,2.03e-4 -3.65625,-0.01172 a 0.750075,0.750075 0 0 0 -0.75879,0.75 c -0.0019,4.681251 -1.216728,5.443327 -3.008789,7.535157 -0.36256,0.41686 -0.798766,0.755701 -1.21875,1.11328 l -2.759766,-4.76953 0.609375,-0.539063 a 0.750075,0.750075 0 0 0 0.03223,-0.0293 c 0.172481,-0.170274 0.181923,-0.38922 0.28125,-0.583008 a 0.750075,0.750075 0 0 0 0.313476,-0.609375 V 17.67473 a 0.750075,0.750075 0 0 0 0,-0.01172 c -0.02594,-1.638576 -1.365092,-3.002929 -3.029297,-3.002929 h -0.594727 v -2.850587 -0.02051 a 0.750075,0.750075 0 0 0 -0.75,-0.75 H 23.99151 Z m 4.042968,17.71875 0.01172,0.01758 2.030274,3.521484 c -1.001689,0.22164 -2.036998,0.448245 -2.950195,0.448242 -1.477668,0 -2.853729,-0.364034 -4.127929,-0.902343 l 1.772459,-3.067383 0.0059,-0.01172 c 0.316825,0.305352 0.727782,0.374823 1.125,0.46875 a 0.750075,0.750075 0 0 0 0.495117,0.205077 h 0.0029 a 0.750075,0.750075 0 0 0 0.0088,0 0.750075,0.750075 0 0 0 0.0088,0 0.750075,0.750075 0 0 0 0.0029,0 0.750075,0.750075 0 0 0 0.498046,-0.210937 c 0.397764,-0.09204 0.807709,-0.160144 1.11621,-0.46875 z"
     id="circle28-0"
     inkscape:connector-curvature="0" />
  <path
     inkscape:connector-curvature="0"
     style="color:#000000;display:inline;overflow:visible;visibility:visible;opacity:0.5;fill:none;stroke:url(#linearGradient12398-3);stroke-width:1.49999976;stroke-linecap:round;stroke-linejoin:round;stroke-miterlimit:4;stroke-dasharray:none;stroke-dashoffset:0;stroke-opacity:1;marker:none;enable-background:accumulate"
     id="path8655-6-0-9-5-0"
     d="M 44.25,23.999267 C 44.25,35.18341 35.183089,44.25 24.000244,44.25 12.816376,44.25 3.7499999,35.183304 3.7499999,23.999266 3.7499999,12.815655 12.816376,3.7499818 24.000244,3.7499818 35.183089,3.7499818 44.25,12.815655 44.25,23.999267 Z" />
  <path
     style="opacity:0.6;fill:#0b6926;fill-opacity:1;stroke:none;stroke-width:4.55555582;stroke-linecap:round;stroke-linejoin:round;stroke-miterlimit:4;stroke-dasharray:none;stroke-opacity:1"
     d="m 21.583335,11.788962 v 0.02051 3.600587 h -1.365234 c -1.237803,0 -2.25879,1.021768 -2.25879,2.244141 v 5.909179 h 0.01758 c -0.01966,0.194091 0.09903,0.407028 0.354492,0.65918 l 1.066407,0.940429 -9.462891,16.371095 c 0.943557,0.758451 1.949754,1.43843 3.00879,2.039061 l 4.702146,-8.135745 c 2.128168,1.089771 4.536282,1.69922 7.092774,1.69922 1.952301,0 4.116543,-0.357893 6.017577,-1.004884 l 4.300782,7.441406 c 1.057841,-0.599954 2.063226,-1.278704 3.005859,-2.036132 l -4.060547,-7.02539 c 0.785621,-0.526711 1.536251,-1.099355 2.203125,-1.751954 2.912591,-2.830878 4.743164,-6.918873 4.743164,-11.302734 -1.242708,-0.01207 -2.554272,3.52e-4 -3.65625,-0.01172 -0.0019,4.83007 -1.440092,5.978354 -3.19043,8.021485 -0.588313,0.677128 -1.250373,1.279542 -1.971679,1.807617 l -3.530274,-6.108399 1.069336,-0.943359 c 0.255423,-0.252151 0.351563,-0.484521 0.351563,-0.659179 h 0.02051 v -5.888671 c -0.01966,-1.241687 -1.021856,-2.264649 -2.279297,-2.264649 h -1.344727 v -3.600587 -0.02051 H 23.99154 Z m 0.588867,15.817382 0.697266,0.615236 c 0.314365,0.31045 0.729121,0.465819 1.12207,0.465819 v -0.01758 l 0.01758,0.01758 c 0.412599,0 0.827355,-0.155369 1.122069,-0.465819 l 0.697266,-0.615236 3.038086,5.25879 c -1.349947,0.39835 -2.842,0.629885 -4.148437,0.629882 -1.887132,0 -3.662369,-0.472389 -5.217774,-1.265625 z"
     id="circle28-0-1"
     inkscape:connector-curvature="0" />
  <path
     d="M 24.000003,2.250678 C 11.999103,2.250678 2.25,11.999776 2.25,24.000677 c 0,12.0009 9.749103,21.750004 21.750003,21.750001 12.000895,0 21.750008,-9.749101 21.749997,-21.750001 0,-12.000901 -9.749102,-21.749999 -21.749997,-21.749999 z"
     id="path2555-6"
     style="color:#000000;clip-rule:nonzero;display:inline;overflow:visible;visibility:visible;opacity:0.5;isolation:auto;mix-blend-mode:normal;color-interpolation:sRGB;color-interpolation-filters:linearRGB;solid-color:#000000;solid-opacity:1;fill:none;fill-opacity:1;fill-rule:nonzero;stroke:#0b6926;stroke-width:1.5;stroke-linecap:round;stroke-linejoin:round;stroke-miterlimit:4;stroke-dasharray:none;stroke-dashoffset:0;stroke-opacity:1;marker:none;color-rendering:auto;image-rendering:auto;shape-rendering:auto;text-rendering:auto;enable-background:accumulate"
     inkscape:connector-curvature="0" />
  <path
     inkscape:connector-curvature="0"
     id="path34"
     style="opacity:1;fill:#dcdcdc;fill-opacity:1;stroke:none;stroke-width:4.55555582;stroke-linecap:round;stroke-linejoin:round;stroke-miterlimit:4;stroke-dasharray:none;stroke-opacity:1"
     d="M 23.151843,14.234767 20.012501,16.045331 36.325062,44.269384 39.707172,46.5 39.464404,42.458819 Z" />
  <path
     inkscape:connector-curvature="0"
     id="path36"
     d="m 37.291668,19.935029 c 0,4.838191 -1.439301,5.985848 -3.190804,8.030338 -0.905259,1.04192 -1.967964,1.926562 -3.188102,2.594902 -1.653098,0.923992 -4.166392,1.435174 -6.193407,1.435174 -2.027003,0 -3.93594,-0.530857 -5.569354,-1.435174 -1.191666,-0.958875 -3.608333,2.662254 -2.007331,3.136985 2.243488,1.258221 4.841211,1.939356 7.596368,1.939356 2.755158,0 5.957251,-0.681135 8.200726,-1.939356 1.200468,-0.66834 2.302529,-1.493957 3.266839,-2.437625 2.912591,-2.830878 4.742805,-6.920703 4.742805,-11.304564 -1.24271,-0.01207 -2.555763,0 -3.65774,-0.01207 z"
     style="fill:#c3c3c3;fill-opacity:1;stroke-width:1.13888896" />
  <path
     inkscape:connector-curvature="0"
     id="path38"
     d="M 24.846997,14.234767 27.986339,16.045331 11.673778,44.269384 8.2916674,46.5 8.534436,42.458819 Z"
     style="opacity:1;fill:#c3c3c3;fill-opacity:1;stroke:none;stroke-width:4.55555582;stroke-linecap:round;stroke-linejoin:round;stroke-miterlimit:4;stroke-dasharray:none;stroke-opacity:1" />
  <path
     inkscape:connector-curvature="0"
     id="path40"
     d="m 27.762513,13.909831 h -1.345845 v -3.602059 -0.01931 h -2.426505 -2.406828 v 0.01931 3.602059 h -1.36551 c -1.237803,0 -2.259485,1.021762 -2.259485,2.244134 v 5.909081 H 17.978 c -0.01966,0.194092 0.0982,0.407619 0.353659,0.65977 l 4.538596,3.998814 c 0.314366,0.310451 0.726968,0.465677 1.119916,0.465677 v -0.01931 l 0.01966,0.01931 c 0.4126,0 0.825201,-0.155226 1.119916,-0.465677 l 4.538597,-3.998814 c 0.255423,-0.252151 0.353658,-0.485111 0.353658,-0.65977 h 0.01966 v -5.889648 c -0.01966,-1.241685 -1.021683,-2.263567 -2.279124,-2.263567 z"
     style="fill:url(#linearGradient4204);fill-opacity:1;stroke-width:1.13888896" />
  <path
     inkscape:connector-curvature="0"
     id="path42"
     d="m 24.007886,21.15209 h -0.01575 v 0 c -1.322475,0 -2.408794,-1.074509 -2.408794,-2.398032 0,-1.323645 1.086319,-2.398155 2.408794,-2.398155 v -0.03138 l 0.01575,0.03138 c 1.322474,0.0157 2.408784,1.07451 2.408784,2.398155 0,1.323523 -1.08631,2.382462 -2.408784,2.398032 z"
     style="fill:url(#radialGradient4191);fill-opacity:1;stroke-width:1.13888896" />
  <path
     style="opacity:0.6;fill:#000000;fill-opacity:1;stroke-width:1.13888896"
     d="m 26.281352,19.525997 c -0.320624,0.948867 -1.215717,1.634031 -2.273438,1.646484 h -0.0147 c -1.059594,0 -1.960183,-0.694434 -2.279296,-1.649415 -0.0795,0.237393 -0.131835,0.486306 -0.131835,0.75 0,1.323523 1.088658,2.399415 2.411133,2.399415 h 0.0147 c 1.322473,-0.01557 2.408202,-1.075892 2.408202,-2.399415 0,-0.264003 -0.05508,-0.510312 -0.13476,-0.747069 z"
     id="path42-9"
     inkscape:connector-curvature="0" />
  <path
     id="path34-1"
     style="opacity:0.4;fill:#000000;fill-opacity:1;stroke:none;stroke-width:4.55555582;stroke-linecap:round;stroke-linejoin:round;stroke-miterlimit:4;stroke-dasharray:none;stroke-opacity:1"
     d="m 28.611926,23.655173 -2.777343,2.44629 0.580077,1.004881 2.777345,-2.446288 z m -9.208008,0 -0.568359,0.981445 2.774415,2.446289 0.568359,-0.981444 z"
     inkscape:connector-curvature="0" />
  <path
     style="opacity:0.4;fill:#000000;fill-opacity:1;stroke:none;stroke-width:4.55555582;stroke-linecap:round;stroke-linejoin:round;stroke-miterlimit:4;stroke-dasharray:none;stroke-opacity:1"
     d="m 34.00662,33.024083 c -0.350524,0.235416 -0.693021,0.482232 -1.063476,0.688476 -0.653931,0.366748 -1.400667,0.6688 -2.182617,0.93457 l 0.717773,1.239258 c 0.516807,-0.205395 1.014018,-0.429777 1.464844,-0.682617 0.589064,-0.327951 1.153461,-0.696678 1.69043,-1.095703 z"
     id="path34-15"
     inkscape:connector-curvature="0" />
</svg>
