<?xml version="1.0" encoding="UTF-8" standalone="no"?>
<svg
   id="svg4505"
   height="32"
   width="32"
   version="1.1"
   sodipodi:docname="microsoft-edge_32.svg"
   inkscape:version="1.1 (c68e22c387, 2021-05-23)"
   xmlns:inkscape="http://www.inkscape.org/namespaces/inkscape"
   xmlns:sodipodi="http://sodipodi.sourceforge.net/DTD/sodipodi-0.dtd"
   xmlns:xlink="http://www.w3.org/1999/xlink"
   xmlns="http://www.w3.org/2000/svg"
   xmlns:svg="http://www.w3.org/2000/svg"
   xmlns:rdf="http://www.w3.org/1999/02/22-rdf-syntax-ns#"
   xmlns:cc="http://creativecommons.org/ns#"
   xmlns:dc="http://purl.org/dc/elements/1.1/">
  <sodipodi:namedview
     pagecolor="#ffffff"
     bordercolor="#666666"
     borderopacity="1"
     objecttolerance="10"
     gridtolerance="10"
     guidetolerance="10"
     inkscape:pageopacity="0"
     inkscape:pageshadow="2"
     inkscape:window-width="1366"
     inkscape:window-height="707"
     id="namedview153"
     showgrid="true"
     inkscape:zoom="21.92031"
     inkscape:cx="19.913039"
     inkscape:cy="27.166586"
     inkscape:window-x="0"
     inkscape:window-y="30"
     inkscape:window-maximized="1"
     inkscape:current-layer="svg4505"
     showguides="true"
     inkscape:document-rotation="0"
     inkscape:pagecheckerboard="0">
    <inkscape:grid
       type="xygrid"
       id="grid965" />
  </sodipodi:namedview>
  <defs
     id="defs4507">
    <inkscape:path-effect
       effect="fillet_chamfer"
       id="path-effect2417"
       is_visible="true"
       lpeversion="1"
       satellites_param="F,0,0,1,0,1,0,1 @ F,0,0,1,0,1,0,1 @ F,0,0,1,0,1,0,1 @ F,0,0,1,0,1,0,1 @ F,0,0,1,0,1,0,1 @ F,0,0,1,0,1,0,1 @ F,0,0,1,0,1,0,1 @ F,0,0,1,0,1,0,1 @ F,0,0,1,0,1,0,1 @ F,0,0,1,0,1,0,1 @ F,0,0,1,0,1,0,1 @ F,0,0,1,0,1,0,1"
       unit="px"
       method="auto"
       mode="F"
       radius="1"
       chamfer_steps="1"
       flexible="false"
       use_knot_distance="true"
       apply_no_radius="true"
       apply_with_radius="true"
       only_selected="false"
       hide_knots="false" />
    <inkscape:path-effect
       effect="fillet_chamfer"
       id="path-effect1629"
       is_visible="true"
       lpeversion="1"
       satellites_param="F,0,0,1,0,2,0,1 @ F,0,0,1,0,2,0,1 @ F,0,0,1,0,2,0,1 @ F,0,0,1,0,2,0,1 @ F,0,0,1,0,2,0,1 @ F,0,0,1,0,2,0,1 @ F,0,0,1,0,2,0,1 @ F,0,0,1,0,2,0,1 @ F,0,0,1,0,2,0,1 @ F,0,0,1,0,2,0,1 @ F,0,0,1,0,2,0,1"
       unit="px"
       method="auto"
       mode="F"
       radius="2"
       chamfer_steps="1"
       flexible="false"
       use_knot_distance="true"
       apply_no_radius="true"
       apply_with_radius="true"
       only_selected="false"
       hide_knots="false" />
    <linearGradient
       id="linearGradient3820-7-2-2">
      <stop
         offset="0"
         style="stop-color:#3d3d3d;stop-opacity:1"
         id="stop3822-2-6-36" />
      <stop
         offset="0.5"
         style="stop-color:#686868;stop-opacity:0.49803922"
         id="stop3864-8-7-6" />
      <stop
         offset="1"
         style="stop-color:#686868;stop-opacity:0"
         id="stop3824-1-2-4" />
    </linearGradient>
    <radialGradient
       gradientTransform="matrix(0.17524541,0,0,0.05575992,-1.376811,18.119146)"
       gradientUnits="userSpaceOnUse"
       xlink:href="#linearGradient3820-7-2-2"
       id="radialGradient3043"
       fy="186.17059"
       fx="99.157013"
       r="62.769119"
       cy="186.17059"
       cx="99.157013" />
    <radialGradient
       cx="23.896"
       cy="3.99"
       r="20.396999"
       id="radialGradient3093-0-3-6-6-0"
       gradientUnits="userSpaceOnUse"
       gradientTransform="matrix(0,1.2316483,-1.625754,0,18.486966,-28.721977)">
      <stop
         id="stop3244-9-33-7-0-9-5"
         style="stop-color:#ffffff;stop-opacity:1"
         offset="0" />
      <stop
         id="stop3246-3-5-0-8-5-0"
         style="stop-color:#dddddd;stop-opacity:1"
         offset="0.26238" />
      <stop
         id="stop3248-1-7-8-8-1-0"
         style="stop-color:#abacae;stop-opacity:1"
         offset="0.66093999" />
      <stop
         id="stop3250-9-3-0-5-1-2"
         style="stop-color:#89898b;stop-opacity:1"
         offset="1" />
    </radialGradient>
    <linearGradient
       id="linearGradient4806-2-9">
      <stop
         id="stop4808-4-6"
         style="stop-color:#ffffff;stop-opacity:1"
         offset="0" />
      <stop
         id="stop4810-0-9"
         style="stop-color:#ffffff;stop-opacity:0.23529412"
         offset="0.42447853" />
      <stop
         id="stop4812-8-7"
         style="stop-color:#ffffff;stop-opacity:0.15686275"
         offset="0.82089913" />
      <stop
         id="stop4814-0-7"
         style="stop-color:#ffffff;stop-opacity:0.39215687"
         offset="1" />
    </linearGradient>
    <linearGradient
       id="linearGradient4164-9-2">
      <stop
         id="stop4166-3-2"
         style="stop-color:#b6b6b6;stop-opacity:1"
         offset="0" />
      <stop
         id="stop4216-6-7"
         style="stop-color:#a4a4a4;stop-opacity:1"
         offset="0.33095336" />
      <stop
         id="stop4168-0-3"
         style="stop-color:#c5c5c5;stop-opacity:1"
         offset="1" />
    </linearGradient>
    <linearGradient
       id="linearGradient4220-7-2-0">
      <stop
         id="stop4222-7-5-5"
         style="stop-color:#7a8498;stop-opacity:1"
         offset="0" />
      <stop
         id="stop4224-0-5-2"
         style="stop-color:#34405c;stop-opacity:1"
         offset="1" />
    </linearGradient>
    <linearGradient
       id="linearGradient4316-5-3-5">
      <stop
         id="stop4318-1-6-2"
         style="stop-color:#ffffff;stop-opacity:1"
         offset="0" />
      <stop
         id="stop4320-9-8-9"
         style="stop-color:#ffffff;stop-opacity:0.23529412"
         offset="0.33799788" />
      <stop
         id="stop4322-42-31-5"
         style="stop-color:#ffffff;stop-opacity:0.15686275"
         offset="0.61996669" />
      <stop
         id="stop4324-9-9-3"
         style="stop-color:#ffffff;stop-opacity:0.39215687"
         offset="1" />
    </linearGradient>
    <linearGradient
       id="linearGradient4507-6-5-9">
      <stop
         id="stop4509-3-8-8"
         style="stop-color:#2d3955;stop-opacity:1"
         offset="0" />
      <stop
         id="stop5959-4-45-4"
         style="stop-color:#2b3853;stop-opacity:1"
         offset="0.72468865" />
      <stop
         id="stop5961-1-7-2"
         style="stop-color:#192640;stop-opacity:1"
         offset="0.75" />
      <stop
         id="stop4511-1-0-8"
         style="stop-color:#08142e;stop-opacity:1"
         offset="1" />
    </linearGradient>
    <linearGradient
       id="linearGradient6042-1-7-8">
      <stop
         id="stop6044-9-6-3"
         style="stop-color:#07132d;stop-opacity:1"
         offset="0" />
      <stop
         id="stop6046-9-5-1"
         style="stop-color:#425479;stop-opacity:1"
         offset="1" />
    </linearGradient>
    <linearGradient
       x1="7.0776"
       y1="3.0816"
       x2="7.0776"
       y2="45.368999"
       id="linearGradient3087-408-5-3-7"
       gradientUnits="userSpaceOnUse"
       gradientTransform="matrix(0.22110724,0,0,0.22110728,6.6934256,6.693263)">
      <stop
         id="stop7201-5-71-3"
         style="stop-color:#170418;stop-opacity:1"
         offset="0" />
      <stop
         id="stop7203-2-8-8"
         style="stop-color:#50386b;stop-opacity:1"
         offset="1" />
    </linearGradient>
    <linearGradient
       id="linearGradient2867-449-88-871-390-598-476-591-434-148-57-177-691-4-22-1">
      <stop
         id="stop7191-4-6-8"
         style="stop-color:#612f91;stop-opacity:1"
         offset="0" />
      <stop
         id="stop7197-2-8-6"
         style="stop-color:#1a4aa2;stop-opacity:1"
         offset="1" />
    </linearGradient>
    <linearGradient
       id="linearGradient4278-3-5-5">
      <stop
         id="stop4280-6-90-6"
         style="stop-color:#000000;stop-opacity:0"
         offset="0" />
      <stop
         id="stop4286-1-9-5"
         style="stop-color:#000000;stop-opacity:0"
         offset="0.5" />
      <stop
         id="stop4282-24-4-0"
         style="stop-color:#000000;stop-opacity:1"
         offset="1" />
    </linearGradient>
    <linearGradient
       id="linearGradient4316-4-0-7-5">
      <stop
         id="stop4318-4-5-3-2"
         style="stop-color:#ffffff;stop-opacity:1"
         offset="0" />
      <stop
         id="stop4320-2-9-4-1"
         style="stop-color:#ffffff;stop-opacity:0.23529412"
         offset="0.33799788" />
      <stop
         id="stop4322-4-1-3-4"
         style="stop-color:#ffffff;stop-opacity:0.15686275"
         offset="0.61996669" />
      <stop
         id="stop4324-4-8-66-2"
         style="stop-color:#ffffff;stop-opacity:0.39215687"
         offset="1" />
    </linearGradient>
    <linearGradient
       id="linearGradient6088-74-4-8">
      <stop
         id="stop6090-5-66-7"
         style="stop-color:#ff54d2;stop-opacity:0"
         offset="0" />
      <stop
         id="stop6257-5-4-6"
         style="stop-color:#f62b68;stop-opacity:1"
         offset="0.32368398" />
      <stop
         id="stop6255-6-7-9"
         style="stop-color:#ff0105;stop-opacity:1"
         offset="0.56140333" />
      <stop
         id="stop6092-0-22-2"
         style="stop-color:#ff54d2;stop-opacity:0.47826087"
         offset="1" />
    </linearGradient>
    <linearGradient
       id="linearGradient4316-4-6-6-4-5">
      <stop
         id="stop4318-4-4-6-5-3"
         style="stop-color:#ffffff;stop-opacity:1"
         offset="0" />
      <stop
         id="stop4320-2-2-6-59-35"
         style="stop-color:#ffffff;stop-opacity:0.23529412"
         offset="0.33799788" />
      <stop
         id="stop4322-4-5-5-0-1"
         style="stop-color:#ffffff;stop-opacity:0.15686275"
         offset="0.61996669" />
      <stop
         id="stop4324-4-1-5-5-42"
         style="stop-color:#ffffff;stop-opacity:0.39215687"
         offset="1" />
    </linearGradient>
    <linearGradient
       id="linearGradient3990-3-1-7-0">
      <stop
         id="stop3992-0-0-1-0"
         style="stop-color:#ffffff;stop-opacity:1"
         offset="0" />
      <stop
         id="stop3994-2-1-8-6"
         style="stop-color:#ffffff;stop-opacity:0"
         offset="1" />
    </linearGradient>
    <linearGradient
       id="linearGradient6191-9-9-5">
      <stop
         id="stop6193-8-1-3"
         style="stop-color:#ffffff;stop-opacity:0"
         offset="0" />
      <stop
         id="stop6197-8-8-7"
         style="stop-color:#ffffff;stop-opacity:0"
         offset="0.40531859" />
      <stop
         id="stop6195-9-3-6"
         style="stop-color:#ffffff;stop-opacity:0.47826087"
         offset="1" />
    </linearGradient>
    <linearGradient
       id="linearGradient6191-7-9-4-9">
      <stop
         id="stop6193-7-3-6-0"
         style="stop-color:#ffffff;stop-opacity:0"
         offset="0" />
      <stop
         id="stop6197-2-2-0-4"
         style="stop-color:#ffffff;stop-opacity:0"
         offset="0.40531859" />
      <stop
         id="stop6195-2-1-9-1"
         style="stop-color:#ffffff;stop-opacity:0.47826087"
         offset="1" />
    </linearGradient>
    <linearGradient
       id="linearGradient6191-8-3-4-5">
      <stop
         id="stop6193-75-7-6-4"
         style="stop-color:#ffffff;stop-opacity:0"
         offset="0" />
      <stop
         id="stop6197-3-4-1-4"
         style="stop-color:#ffffff;stop-opacity:0"
         offset="0.40531859" />
      <stop
         id="stop6195-7-2-5-7"
         style="stop-color:#ffffff;stop-opacity:0.47826087"
         offset="1" />
    </linearGradient>
    <linearGradient
       id="linearGradient6088-6-1-0-06">
      <stop
         id="stop6090-2-0-4-9"
         style="stop-color:#ff54d2;stop-opacity:0"
         offset="0" />
      <stop
         id="stop6257-4-6-1-76"
         style="stop-color:#ff54d2;stop-opacity:0"
         offset="0.32368398" />
      <stop
         id="stop6255-3-6-7-23"
         style="stop-color:#ff54d2;stop-opacity:0.2521739"
         offset="0.56140333" />
      <stop
         id="stop6092-9-6-8-9"
         style="stop-color:#ff54d2;stop-opacity:0.47826087"
         offset="1" />
    </linearGradient>
    <linearGradient
       id="linearGradient6303-4-8-5">
      <stop
         id="stop6305-33-3-3"
         style="stop-color:#ffffff;stop-opacity:1"
         offset="0" />
      <stop
         id="stop6307-9-3-4"
         style="stop-color:#ffffff;stop-opacity:0"
         offset="1" />
    </linearGradient>
    <linearGradient
       id="linearGradient6303-3-2-1-4">
      <stop
         id="stop6305-3-0-9-0"
         style="stop-color:#ffffff;stop-opacity:1"
         offset="0" />
      <stop
         id="stop6307-1-0-1-2"
         style="stop-color:#ffffff;stop-opacity:0"
         offset="1" />
    </linearGradient>
    <linearGradient
       id="linearGradient6303-33-0-2-0">
      <stop
         id="stop6305-1-0-2-0"
         style="stop-color:#ffffff;stop-opacity:1"
         offset="0" />
      <stop
         id="stop6307-5-0-6-1"
         style="stop-color:#ffffff;stop-opacity:0"
         offset="1" />
    </linearGradient>
    <linearGradient
       id="linearGradient6413-0-0-0">
      <stop
         id="stop6415-1-7-3"
         style="stop-color:#feffff;stop-opacity:1"
         offset="0" />
      <stop
         id="stop6417-4-9-2"
         style="stop-color:#fe70ca;stop-opacity:1"
         offset="1" />
    </linearGradient>
    <linearGradient
       id="linearGradient6455-7-3-3">
      <stop
         id="stop6457-5-1-10"
         style="stop-color:#fbac9b;stop-opacity:1"
         offset="0" />
      <stop
         id="stop6459-8-9-7"
         style="stop-color:#fcfafc;stop-opacity:1"
         offset="1" />
    </linearGradient>
    <linearGradient
       gradientTransform="matrix(0.17122132,0,0,0.17911682,7.858532,7.6983)"
       y2="37.809635"
       x2="34.130882"
       y1="41.608219"
       x1="38.851257"
       gradientUnits="userSpaceOnUse"
       id="linearGradient4786"
       xlink:href="#linearGradient6455-7-3-3" />
    <linearGradient
       gradientTransform="matrix(0.24481963,0,0,0.25610897,4.7337,4.18163)"
       y2="37.809635"
       x2="34.130882"
       y1="41.608219"
       x1="38.851257"
       gradientUnits="userSpaceOnUse"
       id="linearGradient4789"
       xlink:href="#linearGradient6413-0-0-0" />
    <radialGradient
       gradientTransform="matrix(0.24481963,0,0,0.25610897,6.787502,5.42471)"
       r="3.1589286"
       fy="39.708927"
       fx="36.49107"
       cy="39.708927"
       cx="36.49107"
       gradientUnits="userSpaceOnUse"
       id="radialGradient4792"
       xlink:href="#linearGradient6303-33-0-2-0" />
    <radialGradient
       gradientTransform="matrix(0.85823344,-0.49549901,0.28192316,0.48830295,-29.4927,11.37068)"
       r="3.1589286"
       fy="39.708927"
       fx="36.49107"
       cy="39.708927"
       cx="36.49107"
       gradientUnits="userSpaceOnUse"
       id="radialGradient4795"
       xlink:href="#linearGradient6303-3-2-1-4" />
    <radialGradient
       gradientTransform="matrix(1.0665354,-0.61576165,0.35034877,0.60681909,-34.51548,17.42722)"
       r="3.1589286"
       fy="39.708927"
       fx="36.49107"
       cy="39.708927"
       cx="36.49107"
       gradientUnits="userSpaceOnUse"
       id="radialGradient4798"
       xlink:href="#linearGradient6303-4-8-5" />
    <radialGradient
       r="3.857446"
       fy="31.405056"
       fx="32.372566"
       cy="31.405056"
       cx="32.372566"
       gradientTransform="matrix(-0.68205696,-0.6820538,0.68205696,-0.6820538,16.659638,58.606198)"
       gradientUnits="userSpaceOnUse"
       id="radialGradient4801"
       xlink:href="#linearGradient6088-6-1-0-06" />
    <radialGradient
       r="3.857446"
       fy="31.405056"
       fx="32.372566"
       cy="31.405056"
       cx="32.372566"
       gradientTransform="matrix(0.58388843,0.8107929,-0.78273251,0.56367563,21.678898,-27.955768)"
       gradientUnits="userSpaceOnUse"
       id="radialGradient4804"
       xlink:href="#linearGradient6191-8-3-4-5" />
    <radialGradient
       r="3.857446"
       fy="31.405056"
       fx="32.372566"
       cy="31.405056"
       cx="32.372566"
       gradientTransform="matrix(0,0.99915347,-0.9645742,-2.659264e-8,46.295443,-16.350382)"
       gradientUnits="userSpaceOnUse"
       id="radialGradient4807"
       xlink:href="#linearGradient6191-7-9-4-9" />
    <radialGradient
       r="3.857446"
       fy="31.405056"
       fx="32.372566"
       cy="31.405056"
       cx="32.372566"
       gradientTransform="matrix(0.96511264,0.25859995,-0.24965018,0.9317028,-7.4076683,-21.635937)"
       gradientUnits="userSpaceOnUse"
       id="radialGradient4810"
       xlink:href="#linearGradient6191-9-9-5" />
    <linearGradient
       y2="65.922028"
       x2="68.313301"
       y1="52.925316"
       x1="68.313301"
       gradientTransform="matrix(0.07463855,0,0,0.05597866,11.005342,11.75856)"
       gradientUnits="userSpaceOnUse"
       id="linearGradient4813"
       xlink:href="#linearGradient3990-3-1-7-0" />
    <linearGradient
       gradientTransform="matrix(0.15597147,0,0,0.15597147,1.63711,10.91993)"
       y2="48.983677"
       x2="92.696327"
       y1="16.554602"
       x1="92.696327"
       gradientUnits="userSpaceOnUse"
       id="linearGradient4816"
       xlink:href="#linearGradient4316-4-6-6-4-5" />
    <radialGradient
       r="3.857446"
       fy="31.405056"
       fx="32.372566"
       cy="31.405056"
       cx="32.372566"
       gradientTransform="matrix(-0.96457422,0,0,-0.96456974,47.230008,46.297191)"
       gradientUnits="userSpaceOnUse"
       id="radialGradient4819"
       xlink:href="#linearGradient6088-74-4-8" />
    <linearGradient
       gradientTransform="matrix(0.34314468,0,0,-0.34314308,-15.59888,27.17681)"
       y2="48.983677"
       x2="92.696327"
       y1="16.554602"
       x1="92.696327"
       gradientUnits="userSpaceOnUse"
       id="linearGradient4823"
       xlink:href="#linearGradient4316-4-0-7-5" />
    <radialGradient
       r="9.4981718"
       fy="95.388451"
       fx="95.838364"
       cy="95.388451"
       cx="95.838364"
       gradientTransform="matrix(0.27003063,-4.0264969e-8,3.7832161e-8,0.25371301,-9.9213103,-8.30067)"
       gradientUnits="userSpaceOnUse"
       id="radialGradient4826"
       xlink:href="#linearGradient4278-3-5-5" />
    <radialGradient
       r="20.396999"
       cy="3.99"
       cx="23.896"
       gradientTransform="matrix(0,0.29307391,-0.38685417,0,17.543412,6.31016)"
       gradientUnits="userSpaceOnUse"
       id="radialGradient4829"
       xlink:href="#linearGradient2867-449-88-871-390-598-476-591-434-148-57-177-691-4-22-1" />
    <linearGradient
       y2="45.368999"
       x2="7.0776"
       y1="3.0816"
       x1="7.0776"
       gradientTransform="matrix(0.12279738,0,0,0.12279684,13.052712,13.05293)"
       gradientUnits="userSpaceOnUse"
       id="linearGradient4831"
       xlink:href="#linearGradient3087-408-5-3-7" />
    <radialGradient
       r="10.498171"
       fy="21.239277"
       fx="31.999998"
       cy="21.239277"
       cx="31.999998"
       gradientTransform="matrix(0,0.92987664,-2.1420157,0,61.494722,-18.73033)"
       gradientUnits="userSpaceOnUse"
       id="radialGradient4836"
       xlink:href="#linearGradient6042-1-7-8" />
    <radialGradient
       r="15.639286"
       fy="16.447752"
       fx="91.349998"
       cy="16.447752"
       cx="91.349998"
       gradientTransform="matrix(0,0.82309009,-0.82309393,0,29.537891,-65.5223)"
       gradientUnits="userSpaceOnUse"
       id="radialGradient4841"
       xlink:href="#linearGradient4507-6-5-9" />
    <linearGradient
       gradientTransform="matrix(0.53030546,0,0,0.53030301,-32.83371,-1.27258)"
       y2="48.983677"
       x2="92.696327"
       y1="16.554602"
       x1="92.696327"
       gradientUnits="userSpaceOnUse"
       id="linearGradient4844"
       xlink:href="#linearGradient4316-5-3-5" />
    <linearGradient
       gradientTransform="matrix(0.60828875,0,0,0.60828875,-40.01486,-3.81268)"
       y2="48.631081"
       x2="91.566116"
       y1="16.542858"
       x1="91.566116"
       gradientUnits="userSpaceOnUse"
       id="linearGradient4848"
       xlink:href="#linearGradient4220-7-2-0" />
    <linearGradient
       y2="56.114563"
       x2="51.199997"
       y1="8.1142893"
       x1="51.199997"
       gradientTransform="matrix(0.50000232,0,0,0.5,-9.6574103,1.500298e-4)"
       gradientUnits="userSpaceOnUse"
       id="linearGradient4852"
       xlink:href="#linearGradient4164-9-2" />
    <linearGradient
       y2="40.495617"
       x2="71.204407"
       y1="15.369057"
       x1="71.204407"
       gradientTransform="matrix(1.1194484,0,0,1.1194484,-64.797586,-15.19541)"
       gradientUnits="userSpaceOnUse"
       id="linearGradient4855"
       xlink:href="#linearGradient4806-2-9" />
    <radialGradient
       r="20.396999"
       fy="3.99"
       fx="23.896"
       cy="3.99"
       cx="23.896"
       gradientTransform="matrix(0,2.0430803,-2.6968298,0,26.760472,-47.622025)"
       gradientUnits="userSpaceOnUse"
       id="radialGradient4858"
       xlink:href="#radialGradient3093-0-3-6-6-0" />
    <linearGradient
       id="linearGradient4747">
      <stop
         id="stop4749"
         offset="0"
         style="stop-color:#ffffff;stop-opacity:1;" />
      <stop
         style="stop-color:#ffffff;stop-opacity:0.23529412"
         offset="0.23694834"
         id="stop4755" />
      <stop
         id="stop4757"
         offset="0.76410484"
         style="stop-color:#ffffff;stop-opacity:0.15686275" />
      <stop
         id="stop4751"
         offset="1"
         style="stop-color:#ffffff;stop-opacity:0.39215687" />
    </linearGradient>
    <linearGradient
       id="linearGradient4214">
      <stop
         style="stop-color:#ffffff;stop-opacity:1;"
         offset="0"
         id="stop4216" />
      <stop
         id="stop4218"
         offset="0.28571552"
         style="stop-color:#ffffff;stop-opacity:0.23529412" />
      <stop
         style="stop-color:#ffffff;stop-opacity:0.15686275"
         offset="0.71428698"
         id="stop4220" />
      <stop
         style="stop-color:#ffffff;stop-opacity:0.39215687"
         offset="1"
         id="stop4222" />
    </linearGradient>
    <radialGradient
       gradientUnits="userSpaceOnUse"
       gradientTransform="matrix(1,0,0,0.32352941,-21.559322,-354.93073)"
       r="17"
       fy="1045.8622"
       fx="24"
       cy="1045.8622"
       cx="24"
       id="radialGradient4329"
       xlink:href="#linearGradient4323" />
    <linearGradient
       id="linearGradient4323">
      <stop
         id="stop4325"
         offset="0"
         style="stop-color:#000000;stop-opacity:1;" />
      <stop
         id="stop4327"
         offset="1"
         style="stop-color:#000000;stop-opacity:0;" />
    </linearGradient>
    <radialGradient
       gradientUnits="userSpaceOnUse"
       gradientTransform="matrix(1,0,0,0.32352941,-44,-298.86717)"
       r="17"
       fy="1045.8622"
       fx="24"
       cy="1045.8622"
       cx="24"
       id="radialGradient4329-3"
       xlink:href="#linearGradient4323" />
    <radialGradient
       id="radialGradient1409-67-6"
       cx="113.37"
       cy="570.21002"
       r="202.42999"
       gradientTransform="matrix(-0.01126182,0.28154544,0.59969179,0.02252364,-256.27986,-48.334136)"
       gradientUnits="userSpaceOnUse">
      <stop
         offset="0"
         stop-color="#35c1f1"
         id="stop1399-5-75" />
      <stop
         offset="0.41450191"
         stop-color="#2bc3d2"
         id="stop1405-3-3"
         style="stop-color:#8cd5ff;stop-opacity:1" />
      <stop
         offset="0.71793836"
         stop-color="#36c752"
         id="stop1407-5-5"
         style="stop-color:#9bdb4d;stop-opacity:1" />
    </radialGradient>
    <radialGradient
       id="radialGradient1409-67-6-2"
       cx="113.37"
       cy="570.21002"
       r="202.42999"
       gradientTransform="matrix(-0.01126182,0.28154544,0.59969179,0.02252364,-256.27986,-48.334136)"
       gradientUnits="userSpaceOnUse">
      <stop
         offset="0"
         stop-color="#35c1f1"
         id="stop1399-5-75-9" />
      <stop
         offset="0.41450191"
         stop-color="#2bc3d2"
         id="stop1405-3-3-1"
         style="stop-color:#8cd5ff;stop-opacity:1" />
      <stop
         offset="0.71793836"
         stop-color="#36c752"
         id="stop1407-5-5-2"
         style="stop-color:#9bdb4d;stop-opacity:1" />
    </radialGradient>
    <radialGradient
       inkscape:collect="always"
       xlink:href="#radialGradient1409-67-6-2"
       id="radialGradient2700"
       cx="5"
       cy="9.7810068"
       fx="5"
       fy="9.7810068"
       r="14.000294"
       gradientTransform="matrix(1.7856768,-3.1729598e-8,3.3885418e-8,1.4285415,-3.9283844,-3.9725735)"
       gradientUnits="userSpaceOnUse" />
    <radialGradient
       id="radialGradient1409-67-6-2-5"
       cx="113.37"
       cy="570.21002"
       r="202.42999"
       gradientTransform="matrix(-0.01126182,0.28154544,0.59969179,0.02252364,-256.27986,-48.334136)"
       gradientUnits="userSpaceOnUse">
      <stop
         offset="0"
         stop-color="#35c1f1"
         id="stop1399-5-75-9-3" />
      <stop
         offset="0.41450191"
         stop-color="#2bc3d2"
         id="stop1405-3-3-1-5"
         style="stop-color:#8cd5ff;stop-opacity:1" />
      <stop
         offset="0.71793836"
         stop-color="#36c752"
         id="stop1407-5-5-2-6"
         style="stop-color:#9bdb4d;stop-opacity:1" />
    </radialGradient>
    <linearGradient
       inkscape:collect="always"
       xlink:href="#linearGradient4747"
       id="linearGradient3927"
       x1="16"
       y1="2"
       x2="16"
       y2="30"
       gradientUnits="userSpaceOnUse" />
    <linearGradient
       inkscape:collect="always"
       xlink:href="#linearGradient4747"
       id="linearGradient1372"
       x1="31"
       y1="33"
       x2="31"
       y2="47"
       gradientUnits="userSpaceOnUse"
       gradientTransform="matrix(0.83333333,0,0,0.84615378,-8.2500001,-8.8461522)" />
  </defs>
  <metadata
     id="metadata4510">
    <rdf:RDF>
      <cc:Work
         rdf:about="">
        <dc:format>image/svg+xml</dc:format>
        <dc:type
           rdf:resource="http://purl.org/dc/dcmitype/StillImage" />
        <dc:title />
      </cc:Work>
    </rdf:RDF>
  </metadata>
  <path
     style="fill:url(#radialGradient3043);fill-opacity:1;stroke:none"
     id="path3818-0-2"
     d="m 27,28.5 a 11,3.4999999 0 1 1 -22,0 11,3.4999999 0 1 1 22,0 z" />
  <path
     id="path1297"
     style="fill:#0d52bf;fill-opacity:1;stroke:none;stroke-width:2;stroke-linejoin:round"
     d="M 13.527344 13.527344 L 13.472656 13.472656 A 9 9 0 0 0 12.955078 13.871094 A 9 9 0 0 0 11.845703 14.980469 A 9 9 0 0 0 10.947266 16.265625 A 9 9 0 0 0 10.283203 17.6875 A 9 9 0 0 0 9.8769531 19.203125 A 9 9 0 0 0 9.7402344 20.765625 A 9 9 0 0 0 9.8769531 22.328125 A 9 9 0 0 0 10.283203 23.84375 A 9 9 0 0 0 10.947266 25.265625 A 9 9 0 0 0 11.845703 26.550781 A 9 9 0 0 0 12.955078 27.660156 A 9 9 0 0 0 14.240234 28.558594 A 9 9 0 0 0 15.662109 29.222656 A 9 9 0 0 0 17.177734 29.628906 A 9 9 0 0 0 18.740234 29.765625 A 9 9 0 0 0 20.304688 29.628906 A 9 9 0 0 0 21.818359 29.222656 A 9 9 0 0 0 23.191406 28.580078 C 23.291026 28.522928 23.385277 28.466131 23.482422 28.408203 A 9 9 0 0 0 23.703125 28.273438 C 23.84686 28.185892 23.985156 28.101143 24.097656 28.025391 C 26.49951 26.40808 28.362465 24.107397 29.445312 21.421875 C 29.651771 20.909848 29.454412 20.784235 29.009766 21.111328 C 28.952356 21.153558 28.894368 21.195078 28.835938 21.236328 C 28.530801 21.451721 28.077776 21.723642 27.660156 21.951172 C 27.460569 22.059912 27.267509 22.161455 27.105469 22.236328 C 23.88159 23.725976 20.22071 23.513111 17.242188 21.902344 C 15.792689 21.118463 14.504051 20.004064 13.507812 18.591797 C 13.189628 18.140734 12.727591 17.358977 12.597656 16.824219 C 12.31728 15.670317 12.647066 14.44313 13.466797 13.583984 C 13.48461 13.565314 13.507778 13.546237 13.527344 13.527344 z " />
  <path
     id="path2491"
     style="fill:#3689e6;fill-opacity:1;stroke:none;stroke-width:2;stroke-linejoin:round"
     d="M 10.5 7 A 9 9 0 0 0 8.7441406 7.1738281 A 9 9 0 0 0 7.0566406 7.6855469 A 9 9 0 0 0 5.5 8.5175781 A 9 9 0 0 0 4.1367188 9.6367188 A 9 9 0 0 0 3.0175781 11 A 9 9 0 0 0 2.1855469 12.556641 A 9 9 0 0 0 1.6738281 14.244141 A 9 9 0 0 0 1.5019531 15.990234 C 1.5019445 15.995434 1.5 16.000629 1.5 16.005859 C 1.49879 18.15477 1.9759148 20.329172 2.9746094 22.367188 C 3.2175462 22.862942 3.6647838 23.639384 3.9726562 24.097656 C 8.003006 30.096884 15.877189 32.205708 22.367188 29.025391 C 22.60058 28.91102 22.896034 28.749546 23.191406 28.580078 A 9 9 0 0 1 21.818359 29.222656 A 9 9 0 0 1 20.304688 29.628906 A 9 9 0 0 1 18.740234 29.765625 A 9 9 0 0 1 17.177734 29.628906 A 9 9 0 0 1 15.662109 29.222656 A 9 9 0 0 1 14.240234 28.558594 A 9 9 0 0 1 12.955078 27.660156 A 9 9 0 0 1 11.845703 26.550781 A 9 9 0 0 1 10.947266 25.265625 A 9 9 0 0 1 10.283203 23.84375 A 9 9 0 0 1 9.8769531 22.328125 A 9 9 0 0 1 9.7402344 20.765625 A 9 9 0 0 1 9.8769531 19.203125 A 9 9 0 0 1 10.283203 17.6875 A 9 9 0 0 1 10.947266 16.265625 A 9 9 0 0 1 11.845703 14.980469 A 9 9 0 0 1 12.955078 13.871094 A 9 9 0 0 1 13.472656 13.472656 L 13.527344 13.527344 C 13.925089 13.143256 14.666094 12.721499 15.175781 12.597656 C 16.329682 12.317281 17.55687 12.647066 18.416016 13.466797 C 18.814227 13.846736 19.270937 14.640911 19.400391 15.175781 C 19.468831 15.458555 19.499094 15.747244 19.496094 16.035156 A 9 9 0 0 0 19.5 16 A 9 9 0 0 0 19.480469 15.412109 A 9 9 0 0 0 19.423828 14.826172 A 9 9 0 0 0 19.326172 14.244141 A 9 9 0 0 0 19.193359 13.669922 A 9 9 0 0 0 19.021484 13.107422 A 9 9 0 0 0 18.814453 12.556641 A 9 9 0 0 0 18.572266 12.019531 A 9 9 0 0 0 18.451172 11.791016 A 9 9 0 0 0 18.294922 11.5 A 9 9 0 0 0 17.982422 11 A 9 9 0 0 0 17.640625 10.521484 A 9 9 0 0 0 17.265625 10.066406 A 9 9 0 0 0 16.863281 9.6367188 A 9 9 0 0 0 16.433594 9.234375 A 9 9 0 0 0 15.978516 8.859375 A 9 9 0 0 0 15.5 8.5175781 A 9 9 0 0 0 15 8.2050781 A 9 9 0 0 0 14.480469 7.9277344 A 9 9 0 0 0 13.943359 7.6855469 A 9 9 0 0 0 13.392578 7.4785156 A 9 9 0 0 0 12.830078 7.3066406 A 9 9 0 0 0 12.255859 7.1738281 A 9 9 0 0 0 11.673828 7.0761719 A 9 9 0 0 0 11.087891 7.0195312 A 9 9 0 0 0 10.5 7 z M 16.496094 12.052734 A 9 9 0 0 0 16.318359 12.101562 A 9 9 0 0 1 16.496094 12.052734 z M 15.005859 12.582031 A 9 9 0 0 0 14.873047 12.642578 A 9 9 0 0 1 15.005859 12.582031 z M 13.697266 13.316406 A 9 9 0 0 0 13.484375 13.464844 A 9 9 0 0 1 13.697266 13.316406 z " />
  <path
     id="path2754"
     style="fill:url(#radialGradient2700);fill-opacity:1;stroke:none;stroke-width:2;stroke-linejoin:round"
     d="M 15.962891,1.5 C 13.824165,1.5034118 11.660937,1.9807607 9.6328125,2.9746094 9.1370573,3.2175462 8.3606161,3.6647837 7.9023438,3.9726562 3.7915976,6.734302 1.5096786,11.301497 1.5019531,15.990234 a 9,9 0 0 1 0.171875,-1.746093 9,9 0 0 1 0.5117188,-1.6875 A 9,9 0 0 1 3.0175781,11 9,9 0 0 1 4.1367188,9.6367188 9,9 0 0 1 5.5,8.5175781 9,9 0 0 1 7.0566406,7.6855469 9,9 0 0 1 8.7441406,7.1738281 9,9 0 0 1 10.5,7 a 9,9 0 0 1 0.587891,0.019531 9,9 0 0 1 0.585937,0.056641 9,9 0 0 1 0.582031,0.097656 9,9 0 0 1 0.574219,0.1328125 9,9 0 0 1 0.5625,0.171875 9,9 0 0 1 0.550781,0.2070313 9,9 0 0 1 0.53711,0.2421875 A 9,9 0 0 1 15,8.2050781 a 9,9 0 0 1 0.5,0.3125 9,9 0 0 1 0.478516,0.3417969 9,9 0 0 1 0.455078,0.375 9,9 0 0 1 0.429687,0.4023438 9,9 0 0 1 0.402344,0.4296872 9,9 0 0 1 0.375,0.455078 A 9,9 0 0 1 17.982422,11 a 9,9 0 0 1 0.3125,0.5 9,9 0 0 1 0.277344,0.519531 9,9 0 0 1 0.242187,0.53711 9,9 0 0 1 0.207031,0.550781 9,9 0 0 1 0.171875,0.5625 9,9 0 0 1 0.132813,0.574219 9,9 0 0 1 0.09766,0.582031 9,9 0 0 1 0.05664,0.585937 A 9,9 0 0 1 19.5,16 9,9 0 0 1 19.4961,16.03516 c -0.0021,0.203359 -0.02127,0.405364 -0.05859,0.605469 -0.04242,0.227417 -0.105947,0.451401 -0.193359,0.667969 -0.116295,0.288125 -0.135899,0.603523 -0.04492,0.865234 0.07016,0.201825 0.204811,0.372027 0.423828,0.470703 1.691649,0.76215 3.662489,0.837305 5.472656,0.105469 0.511515,-0.206801 1.291699,-0.656513 1.726563,-0.996094 2.359632,-1.842617 3.266433,-4.961799 2.296875,-7.7656248 -0.180334,-0.52147 -0.464668,-1.0634763 -0.564465,-1.2363321 L 28.027344,7.9023438 C 25.256478,3.7778741 20.668087,1.4924939 15.962891,1.5 Z" />
  <path
     id="path995-5-6"
     style="fill:none;fill-opacity:1;stroke:url(#linearGradient3927);stroke-width:1;stroke-linejoin:round;stroke-miterlimit:4;stroke-dasharray:none;stroke-opacity:1;opacity:0.4"
     d="m 15.670701,2.5038787 c -0.298856,0.00718 -0.597416,0.023527 -0.896484,0.050781 -1.595635,0.145412 -3.187415,0.579478 -4.699219,1.320313 -0.4298261,0.210629 -1.2159531,0.662757 -1.6132811,0.929687 -5.589932,3.75538 -7.55122995,11.0797353 -4.587891,17.1269533 0.210629,0.429826 0.662758,1.215953 0.929688,1.613282 3.755379,5.58993 11.0797351,7.55123 17.1269531,4.58789 0.429764,-0.210599 1.215187,-0.664895 1.611328,-0.93164 1.532651,-1.032025 2.714018,-2.438354 3.703125,-3.978516 -5.174494,2.23357 -11.289268,0.575508 -14.552735,-4.050781 -0.369157,-0.523315 -0.858991,-1.261829 -1.064453,-2.107422 -0.361178,-1.486453 0.06121,-3.059265 1.117188,-4.166016 0.595724,-0.624372 1.358762,-1.065792 2.197265,-1.269531 1.486451,-0.361177 3.059265,0.06121 4.166016,1.117187 0.624879,0.596209 1.064536,1.35835 1.267578,2.197266 0.220928,0.912821 0.150349,1.873231 -0.201172,2.744141 -0.01617,0.03997 -0.01,0.04707 -0.01367,0.07813 1.421921,0.604136 3.051908,0.67401 4.564454,0.0625 0.371442,-0.150171 1.170525,-0.612768 1.486328,-0.859375 2.02658,-1.582539 2.800605,-4.246735 1.96875,-6.652344 C 28.0368,9.9009147 27.755852,9.3617097 27.696092,9.2577847 l -0.494141,-0.794922 c -0.0011,-0.0016 -0.0028,-0.00231 -0.0039,-0.00391 -2.64093,-3.927491 -7.044502,-6.062724 -11.52735,-5.955074 z" />
  <path
     id="path2754-1"
     style="opacity:0.4;fill:none;fill-opacity:1;stroke:#002e99;stroke-width:1;stroke-linejoin:round;stroke-miterlimit:4;stroke-dasharray:none;stroke-opacity:1"
     d="M 15.962891,1.5 C 13.824165,1.5034 11.660937,1.980761 9.632813,2.974609 9.137057,3.217546 8.360616,3.664784 7.902344,3.972656 3.791598,6.734302 1.509679,11.301497 1.501953,15.990234 A 9,9 0 0 1 1.673828,14.244141 9,9 0 0 1 2.185547,12.556641 9,9 0 0 1 3.017578,11 9,9 0 0 1 4.136719,9.636719 9,9 0 0 1 5.5,8.517578 9,9 0 0 1 7.056641,7.685547 9,9 0 0 1 8.744141,7.173828 9,9 0 0 1 10.5,7 a 9,9 0 0 1 0.587891,0.01953 9,9 0 0 1 0.585937,0.05664 9,9 0 0 1 0.582031,0.09766 9,9 0 0 1 0.574219,0.132812 9,9 0 0 1 0.5625,0.171875 9,9 0 0 1 0.550781,0.207032 9,9 0 0 1 0.53711,0.242187 A 9,9 0 0 1 15,8.20508 a 9,9 0 0 1 0.5,0.3125 9,9 0 0 1 0.478516,0.341797 9,9 0 0 1 0.455078,0.375 9,9 0 0 1 0.429687,0.402344 9,9 0 0 1 0.402344,0.429687 9,9 0 0 1 0.375,0.455078 9,9 0 0 1 0.341797,0.478516 9,9 0 0 1 0.3125,0.5 9,9 0 0 1 0.277344,0.519531 9,9 0 0 1 0.242187,0.53711 9,9 0 0 1 0.207031,0.550781 9,9 0 0 1 0.171875,0.5625 9,9 0 0 1 0.132813,0.574219 9,9 0 0 1 0.09766,0.582031 9,9 0 0 1 0.05664,0.585937 9,9 0 0 1 0.01953,0.587891 9,9 0 0 1 -0.0039,0.03516 c -0.0021,0.203359 -0.02127,0.405364 -0.05859,0.605469 -0.04242,0.227417 -0.105947,0.451401 -0.193359,0.667969 -0.116295,0.288125 -0.135899,0.603523 -0.04492,0.865234 0.07016,0.201825 0.204811,0.372027 0.423828,0.470703 1.691649,0.76215 3.662489,0.837305 5.472656,0.105469 0.511515,-0.206801 1.291699,-0.656513 1.726563,-0.996094 2.359632,-1.842617 3.266433,-4.961799 2.296875,-7.765625 C 28.938821,9.466817 28.654487,8.924811 28.55469,8.751955 L 28.027346,7.902346 C 25.25648,3.777876 20.668089,1.492496 15.962893,1.500002 Z M 10.5,7 A 9,9 0 0 0 8.744141,7.173828 9,9 0 0 0 7.056641,7.685547 9,9 0 0 0 5.5,8.517578 9,9 0 0 0 4.136719,9.636719 9,9 0 0 0 3.017578,11 a 9,9 0 0 0 -0.832031,1.556641 9,9 0 0 0 -0.511719,1.6875 9,9 0 0 0 -0.171875,1.746093 c -9e-6,0.0052 -0.0019,0.0104 -0.0019,0.01563 -0.0012,2.148911 0.475915,4.323313 1.47461,6.361329 0.242936,0.495754 0.690174,1.272196 0.998046,1.730468 4.03035,5.999228 11.904533,8.108052 18.394532,4.927735 0.233392,-0.114371 0.528846,-0.275845 0.824218,-0.445313 a 9,9 0 0 1 -1.373047,0.642578 9,9 0 0 1 -1.513671,0.40625 9,9 0 0 1 -1.564454,0.136719 9,9 0 0 1 -1.5625,-0.136719 9,9 0 0 1 -1.515625,-0.40625 9,9 0 0 1 -1.421875,-0.664062 9,9 0 0 1 -1.285156,-0.898438 9,9 0 0 1 -1.109375,-1.109375 9,9 0 0 1 -0.898437,-1.285156 9,9 0 0 1 -0.664063,-1.421875 9,9 0 0 1 -0.40625,-1.515625 9,9 0 0 1 -0.136718,-1.5625 9,9 0 0 1 0.136718,-1.5625 9,9 0 0 1 0.40625,-1.515625 9,9 0 0 1 0.664063,-1.421875 9,9 0 0 1 0.898437,-1.285156 9,9 0 0 1 1.109375,-1.109375 9,9 0 0 1 0.517578,-0.398438 l 0.05469,0.05469 c 0.397745,-0.384088 1.13875,-0.805845 1.648437,-0.929688 1.153901,-0.280375 2.381089,0.04941 3.240235,0.869141 0.398211,0.379939 0.854921,1.174114 0.984375,1.708984 0.06844,0.282774 0.0987,0.571463 0.0957,0.859375 a 9,9 0 0 0 0.0039,-0.03516 9,9 0 0 0 -0.01953,-0.587891 9,9 0 0 0 -0.05664,-0.585937 9,9 0 0 0 -0.09766,-0.582031 9,9 0 0 0 -0.132813,-0.574219 9,9 0 0 0 -0.171875,-0.5625 9,9 0 0 0 -0.207031,-0.550781 9,9 0 0 0 -0.242187,-0.53711 9,9 0 0 0 -0.121092,-0.228515 9,9 0 0 0 -0.15625,-0.291016 9,9 0 0 0 -0.3125,-0.5 9,9 0 0 0 -0.341797,-0.478516 9,9 0 0 0 -0.375,-0.455078 9,9 0 0 0 -0.402344,-0.429687 9,9 0 0 0 -0.429687,-0.402344 9,9 0 0 0 -0.455078,-0.375 9,9 0 0 0 -0.478516,-0.341797 9,9 0 0 0 -0.5,-0.3125 A 9,9 0 0 0 14.480515,7.927737 9,9 0 0 0 13.943405,7.68555 9,9 0 0 0 13.392624,7.478519 9,9 0 0 0 12.830124,7.306644 9,9 0 0 0 12.255905,7.173831 9,9 0 0 0 11.673874,7.076171 9,9 0 0 0 11.087937,7.019531 9,9 0 0 0 10.5,7 Z m 3.027344,6.527344 -0.05469,-0.05469 a 9,9 0 0 0 -0.517578,0.398438 9,9 0 0 0 -1.109375,1.109375 9,9 0 0 0 -0.898437,1.285156 9,9 0 0 0 -0.664063,1.421875 9,9 0 0 0 -0.40625,1.515625 9,9 0 0 0 -0.136719,1.5625 9,9 0 0 0 0.136719,1.5625 9,9 0 0 0 0.40625,1.515625 9,9 0 0 0 0.664063,1.421875 9,9 0 0 0 0.898437,1.285156 9,9 0 0 0 1.109375,1.109375 9,9 0 0 0 1.285156,0.898438 9,9 0 0 0 1.421875,0.664062 9,9 0 0 0 1.515625,0.40625 9,9 0 0 0 1.5625,0.136719 9,9 0 0 0 1.564454,-0.136719 9,9 0 0 0 1.513671,-0.40625 9,9 0 0 0 1.373047,-0.642578 c 0.09962,-0.05715 0.193871,-0.113947 0.291016,-0.171875 a 9,9 0 0 0 0.220703,-0.134765 c 0.143735,-0.08755 0.282031,-0.172295 0.394531,-0.248047 2.401854,-1.617311 4.264809,-3.917994 5.347656,-6.603516 0.206459,-0.512027 0.0091,-0.63764 -0.435546,-0.310547 -0.05741,0.04223 -0.115398,0.08375 -0.173828,0.125 -0.305137,0.215393 -0.758162,0.487314 -1.175782,0.714844 -0.199587,0.10874 -0.392647,0.210283 -0.554687,0.285156 -3.223879,1.489648 -6.884759,1.276783 -9.863281,-0.333984 -1.449499,-0.783881 -2.738137,-1.89828 -3.734376,-3.310547 -0.318184,-0.451063 -0.780221,-1.23282 -0.910156,-1.767578 -0.280376,-1.153902 0.04941,-2.381089 0.869141,-3.240235 0.01781,-0.01867 0.04098,-0.03775 0.06055,-0.05664 z" />
  <rect
     style="fill:#8cd5ff;fill-opacity:1;stroke:none;stroke-width:2;stroke-linejoin:round;stroke-miterlimit:4;stroke-dasharray:none"
     id="rect4008"
     width="27"
     height="13"
     x="4.5"
     y="18.499935"
     rx="1.9999999"
     ry="2" />
  <rect
     style="opacity:0.4;fill:none;fill-opacity:1;stroke:#002e99;stroke-width:1;stroke-linejoin:round;stroke-miterlimit:4;stroke-dasharray:none;stroke-opacity:1"
     id="rect5518"
     width="27"
     height="13"
     x="4.5"
     y="18.499935"
     rx="2"
     ry="2" />
  <path
     id="rect4008-3"
     style="opacity:0.4;fill:none;fill-opacity:1;stroke:url(#linearGradient1372);stroke-width:0.999999;stroke-linejoin:round;stroke-miterlimit:4;stroke-dasharray:none;stroke-opacity:1"
     d="m 6.3333325,19.499999 c -0.47608,0 -0.833333,0.362749 -0.833333,0.846154 v 9.307692 c 0,0.483405 0.357253,0.846154 0.833333,0.846154 H 29.666667 c 0.47608,0 0.833333,-0.362749 0.833333,-0.846154 v -9.307692 c 0,-0.483405 -0.357253,-0.846154 -0.833333,-0.846154 z" />
  <g
     id="g1932"
     transform="translate(28,-31.621094)">
    <g
       id="g1576"
       transform="translate(-28,15.621)">
      <path
         id="rect1313-2-7-9"
         style="color:#000000;fill:#1a1a1a;fill-opacity:1;stroke-linecap:square;-inkscape-stroke:none"
         d="m 6,36.000047 v 3 4 3 h 1 1 1 c 1.644701,0 3,-1.355299 3,-3 0,-0.765512 -0.293698,-1.467353 -0.773438,-2 C 11.706302,40.4674 12,39.765559 12,39.000047 c 0,-1.644701 -1.355299,-3 -3,-3 H 8 Z m 2,2 h 1 1 v 1 1 H 9 8 v -1 z m 0,4 h 1 1 v 1 1 H 9 8 v -1 z" />
      <path
         id="rect1637-7-61-5-3"
         style="fill:#1a1a1a;fill-opacity:1;stroke:none;stroke-width:1.99999;stroke-linecap:square;stroke-miterlimit:4;stroke-dasharray:none"
         d="m 12,36 v 2 2 2 4 h 2 4 v -2 h -4 v -2 h 3 v -2 h -3 v -2 h 4 v -2 h -4 z" />
      <path
         id="rect1637-7-6-7-7-5-6"
         style="fill:#1a1a1a;fill-opacity:1;stroke:none;stroke-width:1.99999;stroke-linecap:square;stroke-miterlimit:4;stroke-dasharray:none"
         d="m 18,36 v 2 h 2 v 8 h 2 v -8 h 2 v -2 h -2 -2 z" />
      <path
         id="rect1831-9-1-0"
         style="fill:#1a1a1a;stroke-width:1.99998;stroke-linecap:square"
         d="m 27,36 c -1.644701,0 -3,1.355299 -3,3 v 7 h 2 v -2 h 2 v 2 h 2 v -7 c 0,-1.644701 -1.355299,-3 -3,-3 z m 0,2 c 0.571297,0 1,0.428703 1,1 v 3 h -2 v -3 c 0,-0.571297 0.428703,-1 1,-1 z" />
    </g>
    <path
       id="path1646"
       style="color:#000000;opacity:0.3;fill:#1a1a1a;fill-opacity:1;stroke-linecap:square;-inkscape-stroke:none"
       d="m -22,52.621094 v 3 4 3 h 1 1 1 c 1.644701,0 3,-1.355299 3,-3 0,-0.765512 -0.293698,-1.467353 -0.773438,-2 0.479741,-0.532647 0.773438,-1.234488 0.773438,-2 0,-1.644701 -1.355299,-3 -3,-3 h -1 z m 6,3 v 1 2 1 3 h 2 4 v -2 h -4 v -2 h 3 v -2 h -3 v -2 h 4 2 v 8 h 2 v -8 h 2 v -2 h -2 -2 -2 -4 -2 v 2 z m 15,-3 c -1.644701,0 -3,1.355299 -3,3 v 7 h 2 v -2 h 2 v 2 h 2 v -7 c 0,-1.644701 -1.355299,-3 -3,-3 z m -19,2 h 1 1 v 1 1 h -1 -1 v -1 z m 19,0 c 0.571297,0 1,0.428703 1,1 v 3 h -2 v -3 c 0,-0.571297 0.428703,-1 1,-1 z m -19,4 h 1 1 v 1 1 h -1 -1 v -1 z" />
    <path
       style="color:#000000;opacity:0.15;fill:#1a1a1a;fill-opacity:1;stroke-linecap:square;-inkscape-stroke:none"
       d="m -23,51.621094 v 1 3 4 4 h 2 1 1 c 0.742382,0 1.401412,-0.262502 2,-0.621094 v 0.621094 h 3 5 4 4 4 v -8 c 0,-2.194059 -1.805941,-4 -4,-4 -0.742382,0 -1.401412,0.262502 -2,0.621094 v -0.621094 h -3 -2 -2 -4 -3 v 0.621094 c -0.598588,-0.358592 -1.257618,-0.621094 -2,-0.621094 h -1 z m 13,4 h 1 v 4 h -1 z"
       id="path1648"
       sodipodi:nodetypes="cccccccscccccccssccccccccsccccccc" />
  </g>
</svg>
