<?xml version="1.0" encoding="UTF-8" standalone="no"?>
<svg
   xmlns:osb="http://www.openswatchbook.org/uri/2009/osb"
   xmlns:dc="http://purl.org/dc/elements/1.1/"
   xmlns:cc="http://creativecommons.org/ns#"
   xmlns:rdf="http://www.w3.org/1999/02/22-rdf-syntax-ns#"
   xmlns:svg="http://www.w3.org/2000/svg"
   xmlns="http://www.w3.org/2000/svg"
   xmlns:xlink="http://www.w3.org/1999/xlink"
   xmlns:sodipodi="http://sodipodi.sourceforge.net/DTD/sodipodi-0.dtd"
   xmlns:inkscape="http://www.inkscape.org/namespaces/inkscape"
   version="1.1"
   width="32"
   height="32"
   id="svg4405"
   inkscape:version="0.91 r13725"
   sodipodi:docname="soapui_32.svg">
  <sodipodi:namedview
     pagecolor="#ffffff"
     bordercolor="#666666"
     borderopacity="1"
     objecttolerance="10"
     gridtolerance="10"
     guidetolerance="10"
     inkscape:pageopacity="0"
     inkscape:pageshadow="2"
     inkscape:window-width="1366"
     inkscape:window-height="705"
     id="namedview42"
     showgrid="false"
     inkscape:zoom="13.3"
     inkscape:cx="18.744995"
     inkscape:cy="14.134101"
     inkscape:window-x="0"
     inkscape:window-y="30"
     inkscape:window-maximized="1"
     inkscape:current-layer="svg4405"
     showguides="false" />
  <defs
     id="defs4407">
    <linearGradient
       id="linearGradient4324">
      <stop
         offset="0"
         style="stop-color:#ffffff;stop-opacity:0.23529412"
         id="stop4328" />
      <stop
         offset="0.6827991"
         style="stop-color:#ffffff;stop-opacity:0.15686275"
         id="stop4330" />
      <stop
         offset="1"
         style="stop-color:#ffffff;stop-opacity:0.39215687"
         id="stop4332" />
    </linearGradient>
    <linearGradient
       id="linearGradient4187">
      <stop
         id="stop4189"
         style="stop-color:#ffffff;stop-opacity:1"
         offset="0" />
      <stop
         id="stop4191"
         style="stop-color:#ffffff;stop-opacity:0.23529412"
         offset="0.39678979" />
      <stop
         id="stop4193"
         style="stop-color:#ffffff;stop-opacity:0.15686275"
         offset="0.80866116" />
      <stop
         id="stop4195"
         style="stop-color:#ffffff;stop-opacity:0.39215687"
         offset="1" />
    </linearGradient>
    <radialGradient
       cx="4.9929786"
       cy="43.5"
       r="2.5"
       fx="4.9929786"
       fy="43.5"
       id="radialGradient3013-896"
       xlink:href="#linearGradient3688-166-749-2-324"
       gradientUnits="userSpaceOnUse"
       gradientTransform="matrix(2.003784,0,0,1.4,27.98813,-17.4)" />
    <linearGradient
       id="linearGradient3688-166-749-2-324">
      <stop
         id="stop3216"
         style="stop-color:#181818;stop-opacity:1"
         offset="0" />
      <stop
         id="stop3218"
         style="stop-color:#181818;stop-opacity:0"
         offset="1" />
    </linearGradient>
    <radialGradient
       cx="4.9929786"
       cy="43.5"
       r="2.5"
       fx="4.9929786"
       fy="43.5"
       id="radialGradient3015-826"
       xlink:href="#linearGradient3688-464-309-8-331"
       gradientUnits="userSpaceOnUse"
       gradientTransform="matrix(2.003784,0,0,1.4,-20.01187,-104.4)" />
    <linearGradient
       id="linearGradient3688-464-309-8-331">
      <stop
         id="stop3222"
         style="stop-color:#181818;stop-opacity:1"
         offset="0" />
      <stop
         id="stop3224"
         style="stop-color:#181818;stop-opacity:0"
         offset="1" />
    </linearGradient>
    <linearGradient
       id="linearGradient3702-501-757-6-946">
      <stop
         id="stop3228"
         style="stop-color:#181818;stop-opacity:0"
         offset="0" />
      <stop
         id="stop3230"
         style="stop-color:#181818;stop-opacity:1"
         offset="0.5" />
      <stop
         id="stop3232"
         style="stop-color:#181818;stop-opacity:0"
         offset="1" />
    </linearGradient>
    <linearGradient
       x1="25.058096"
       y1="47.027729"
       x2="25.058096"
       y2="39.999443"
       id="linearGradient4395"
       xlink:href="#linearGradient3702-501-757-6-946"
       gradientUnits="userSpaceOnUse" />
    <linearGradient
       x1="42.344383"
       y1="5.322124"
       x2="5.8528481"
       y2="41.890972"
       id="linearGradient3153"
       xlink:href="#linearGradient4187"
       gradientUnits="userSpaceOnUse"
       gradientTransform="matrix(0.71877226,0,0,0.71877226,-17.250531,16.690596)" />
    <radialGradient
       cx="4.0537825"
       cy="7.2024441"
       r="12.671875"
       fx="4.0537825"
       fy="7.2024441"
       id="radialGradient4144"
       xlink:href="#linearGradient4223"
       gradientUnits="userSpaceOnUse"
       gradientTransform="matrix(-3.1379818,3.1234191,-4.1455341,-4.1648621,51.477676,31.132231)" />
    <linearGradient
       id="linearGradient4223">
      <stop
         offset="0"
         style="stop-color:#cdf87e;stop-opacity:1"
         id="stop4225" />
      <stop
         offset="0.26238"
         style="stop-color:#a2e34f;stop-opacity:1"
         id="stop4227" />
      <stop
         offset="0.66093999"
         style="stop-color:#68b723;stop-opacity:1"
         id="stop4229" />
      <stop
         offset="1"
         style="stop-color:#1d7e0d;stop-opacity:1"
         id="stop4231" />
    </linearGradient>
    <linearGradient
       id="linearGradient4526"
       osb:paint="solid">
      <stop
         style="stop-color:#ffffff;stop-opacity:1;"
         offset="0"
         id="stop4528" />
    </linearGradient>
    <linearGradient
       id="linearGradient4546">
      <stop
         offset="0"
         style="stop-color:#ffffff;stop-opacity:1"
         id="stop4548" />
      <stop
         offset="0.43313614"
         style="stop-color:#f7f7f7;stop-opacity:1"
         id="stop4550" />
      <stop
         offset="1"
         style="stop-color:#dbe0e1;stop-opacity:1"
         id="stop4552" />
    </linearGradient>
    <linearGradient
       x1="42.344383"
       y1="5.322124"
       x2="5.8528481"
       y2="41.890972"
       id="linearGradient3153-5"
       xlink:href="#linearGradient4187"
       gradientUnits="userSpaceOnUse"
       gradientTransform="matrix(0.71877226,0,0,0.71877226,-43.005217,54.877037)" />
    <linearGradient
       y2="43"
       x2="23.99999"
       y1="4.999989"
       x1="23.99999"
       gradientTransform="translate(-49.220348,-9.9660907)"
       gradientUnits="userSpaceOnUse"
       id="linearGradient3850"
       xlink:href="#linearGradient3924-1" />
    <linearGradient
       id="linearGradient3924-1">
      <stop
         offset="0"
         style="stop-color:#ffffff;stop-opacity:1"
         id="stop3926-3" />
      <stop
         offset="0.06316455"
         style="stop-color:#ffffff;stop-opacity:0.23529412"
         id="stop3928-91" />
      <stop
         offset="0.95056331"
         style="stop-color:#ffffff;stop-opacity:0.15686275"
         id="stop3930-6" />
      <stop
         offset="1"
         style="stop-color:#ffffff;stop-opacity:0.39215687"
         id="stop3932-6" />
    </linearGradient>
    <radialGradient
       r="27.5"
       fy="4.3419166"
       fx="31.999998"
       cy="4.3419166"
       cx="31.999998"
       gradientTransform="matrix(0,1.3045698,-1.3045697,0,12.540628,-33.041959)"
       gradientUnits="userSpaceOnUse"
       id="radialGradient3857"
       xlink:href="#linearGradient4632-92-3-0-8-1-6" />
    <linearGradient
       id="linearGradient4632-92-3-0-8-1-6">
      <stop
         offset="0"
         style="stop-color:#fafafa;stop-opacity:1"
         id="stop4634-68-8-0-2-9-1" />
      <stop
         offset="1"
         style="stop-color:#e1e1e1;stop-opacity:1"
         id="stop4636-8-21-7-1-4-9" />
    </linearGradient>
    <linearGradient
       inkscape:collect="always"
       xlink:href="#linearGradient4187"
       id="linearGradient4374"
       x1="32.803528"
       y1="50.297951"
       x2="32.77763"
       y2="88.128456"
       gradientUnits="userSpaceOnUse"
       gradientTransform="translate(3.2542373,-2.3389831)" />
    <linearGradient
       inkscape:collect="always"
       xlink:href="#linearGradient4187"
       id="linearGradient4435"
       gradientUnits="userSpaceOnUse"
       gradientTransform="translate(3.2542373,-2.3389831)"
       x1="32.803528"
       y1="50.297951"
       x2="32.77763"
       y2="88.128456" />
    <radialGradient
       r="27.5"
       fy="4.3419166"
       fx="31.999998"
       cy="4.3419166"
       cx="31.999998"
       gradientTransform="matrix(0,1.34953,-1.3503552,0,29.988267,-36.032447)"
       gradientUnits="userSpaceOnUse"
       id="radialGradient3857-8"
       xlink:href="#linearGradient4632-92-3-0-8-1-6" />
    <linearGradient
       x1="23.99999"
       y1="4.999989"
       x2="23.99999"
       y2="43"
       id="linearGradient5313"
       xlink:href="#linearGradient3924-1"
       gradientUnits="userSpaceOnUse"
       gradientTransform="matrix(0.71861692,0,0,0.71861692,-11.563869,22.634174)" />
    <radialGradient
       cx="4.0537825"
       cy="7.2024441"
       r="12.671875"
       fx="4.0537825"
       fy="7.2024441"
       id="radialGradient4144-3"
       xlink:href="#linearGradient4223"
       gradientUnits="userSpaceOnUse"
       gradientTransform="matrix(-4.7645917,4.7424803,-6.2944206,-6.3237675,57.768879,3.0806795)" />
    <radialGradient
       cx="4.0537825"
       cy="7.2024441"
       r="12.671875"
       fx="4.0537825"
       fy="7.2024441"
       id="radialGradient4144-6"
       xlink:href="#linearGradient4223"
       gradientUnits="userSpaceOnUse"
       gradientTransform="matrix(-4.648376,4.6268039,-6.14089,-6.1695211,47.957504,-5.3782915)" />
    <radialGradient
       cx="4.0537825"
       cy="7.2024441"
       r="12.671875"
       fx="4.0537825"
       fy="7.2024441"
       id="radialGradient4144-0"
       xlink:href="#linearGradient4223"
       gradientUnits="userSpaceOnUse"
       gradientTransform="matrix(-0.01563512,6.7225151,-8.9224064,-0.02075139,41.55964,-45.068774)" />
    <radialGradient
       gradientTransform="matrix(0.27083381,0,0,0.08762273,4.1449281,61.186316)"
       gradientUnits="userSpaceOnUse"
       xlink:href="#linearGradient3820-7-2-1"
       id="radialGradient3018"
       fy="186.17059"
       fx="99.157013"
       r="62.769119"
       cy="186.17059"
       cx="99.157013" />
    <linearGradient
       id="linearGradient3820-7-2-1">
      <stop
         offset="0"
         style="stop-color:#3d3d3d;stop-opacity:1"
         id="stop3822-2-6-3" />
      <stop
         offset="0.5"
         style="stop-color:#686868;stop-opacity:0.49803922"
         id="stop3864-8-7-7" />
      <stop
         offset="1"
         style="stop-color:#686868;stop-opacity:0"
         id="stop3824-1-2-5" />
    </linearGradient>
    <radialGradient
       gradientTransform="matrix(0.27083381,0,0,0.08762273,-2.8550717,25.186633)"
       gradientUnits="userSpaceOnUse"
       xlink:href="#linearGradient3820-7-2-1"
       id="radialGradient3018-3"
       fy="186.17059"
       fx="99.157013"
       r="62.769119"
       cy="186.17059"
       cx="99.157013" />
    <radialGradient
       gradientTransform="matrix(2.003784,0,0,1.4,27.98813,-17.4)"
       gradientUnits="userSpaceOnUse"
       xlink:href="#linearGradient3688-166-749-2-324"
       id="radialGradient2873-966-168-714"
       fy="43.5"
       fx="4.9929786"
       r="2.5"
       cy="43.5"
       cx="4.9929786" />
    <radialGradient
       gradientTransform="matrix(2.003784,0,0,1.4,-20.01187,-104.4)"
       gradientUnits="userSpaceOnUse"
       xlink:href="#linearGradient3688-166-749-2-324"
       id="radialGradient2875-742-326-419"
       fy="43.5"
       fx="4.9929786"
       r="2.5"
       cy="43.5"
       cx="4.9929786" />
    <radialGradient
       gradientTransform="matrix(1.3962496,0,0,0.46382834,-44.625568,23.672677)"
       gradientUnits="userSpaceOnUse"
       xlink:href="#linearGradient3966"
       id="radialGradient4284"
       fy="44.129044"
       fx="23.668133"
       r="6.0999999"
       cy="44.129044"
       cx="23.668133" />
    <linearGradient
       id="linearGradient3966">
      <stop
         offset="0"
         style="stop-color:#000000;stop-opacity:1"
         id="stop3968" />
      <stop
         offset="1"
         style="stop-color:#000000;stop-opacity:0"
         id="stop3970" />
    </linearGradient>
    <radialGradient
       gradientTransform="matrix(3.7102089,0,0,0.95427648,-99.392668,0.92810054)"
       gradientUnits="userSpaceOnUse"
       xlink:href="#linearGradient3966"
       id="radialGradient4284-8"
       fy="44.129044"
       fx="23.668133"
       r="6.0999999"
       cy="44.129044"
       cx="23.668133" />
    <radialGradient
       cx="4.0537825"
       cy="7.2024441"
       r="12.671875"
       fx="4.0537825"
       fy="7.2024441"
       id="radialGradient4144-9"
       xlink:href="#linearGradient4223"
       gradientUnits="userSpaceOnUse"
       gradientTransform="matrix(-0.01639766,7.0503674,-9.3575459,-0.0217634,34.386788,-39.102036)" />
    <radialGradient
       xlink:href="#linearGradient4632-92-3-0-8-1-6"
       id="radialGradient3857-4"
       gradientUnits="userSpaceOnUse"
       gradientTransform="matrix(0,0.80934379,-0.80934373,0,19.605463,-4.4024535)"
       cx="31.999998"
       cy="4.3419166"
       fx="31.999998"
       fy="4.3419166"
       r="27.5" />
    <radialGradient
       cx="4.0537825"
       cy="7.2024441"
       r="12.671875"
       fx="4.0537825"
       fy="7.2024441"
       id="radialGradient4144-36"
       xlink:href="#linearGradient4223"
       gradientUnits="userSpaceOnUse"
       gradientTransform="matrix(-0.01029754,4.4278946,-5.8764294,-0.01366824,39.756586,32.968848)" />
    <linearGradient
       inkscape:collect="always"
       xlink:href="#linearGradient4187"
       id="linearGradient4300-3-6"
       x1="13.78658"
       y1="69.213203"
       x2="51.794579"
       y2="69.213203"
       gradientUnits="userSpaceOnUse" />
    <linearGradient
       inkscape:collect="always"
       xlink:href="#linearGradient4187"
       id="linearGradient4200-5-1"
       x1="32.776943"
       y1="50.244785"
       x2="32.830795"
       y2="88.181625"
       gradientUnits="userSpaceOnUse"
       gradientTransform="translate(-36.045824,-27.368362)" />
    <linearGradient
       inkscape:collect="always"
       xlink:href="#linearGradient4187"
       id="linearGradient4399"
       x1="32.776943"
       y1="50.244785"
       x2="32.830795"
       y2="88.181625"
       gradientUnits="userSpaceOnUse"
       gradientTransform="translate(-36.045824,-27.368362)" />
    <linearGradient
       inkscape:collect="always"
       xlink:href="#linearGradient4187"
       id="linearGradient4460"
       gradientUnits="userSpaceOnUse"
       gradientTransform="translate(-36.045824,-27.368362)"
       x1="32.776943"
       y1="50.244785"
       x2="32.830795"
       y2="88.181625" />
    <radialGradient
       inkscape:collect="always"
       xlink:href="#linearGradient4632-92-3-0-8-1-6"
       id="radialGradient5188"
       cx="-20.654669"
       cy="68.509605"
       fx="-20.654669"
       fy="68.509605"
       r="8.8067188"
       gradientTransform="matrix(1,0,0,1.5899731,0,-40.418825)"
       gradientUnits="userSpaceOnUse" />
    <radialGradient
       inkscape:collect="always"
       xlink:href="#linearGradient4632-92-3-0-8-1-6"
       id="radialGradient5190"
       gradientUnits="userSpaceOnUse"
       gradientTransform="matrix(1,0,0,1.5899731,0,-40.418825)"
       cx="-20.654669"
       cy="68.509605"
       fx="-20.654669"
       fy="68.509605"
       r="8.8067188" />
    <radialGradient
       inkscape:collect="always"
       xlink:href="#linearGradient4632-92-3-0-8-1-6"
       id="radialGradient5192"
       gradientUnits="userSpaceOnUse"
       gradientTransform="matrix(1,0,0,1.5899731,0,-40.418825)"
       cx="-20.654669"
       cy="68.509605"
       fx="-20.654669"
       fy="68.509605"
       r="8.8067188" />
    <radialGradient
       inkscape:collect="always"
       xlink:href="#linearGradient4632-92-3-0-8-1-6"
       id="radialGradient5194"
       gradientUnits="userSpaceOnUse"
       gradientTransform="matrix(1,0,0,1.5899731,0,-40.418825)"
       cx="-20.654669"
       cy="68.509605"
       fx="-20.654669"
       fy="68.509605"
       r="8.8067188" />
  </defs>
  <metadata
     id="metadata4410">
    <rdf:RDF>
      <cc:Work
         rdf:about="">
        <dc:format>image/svg+xml</dc:format>
        <dc:type
           rdf:resource="http://purl.org/dc/dcmitype/StillImage" />
        <dc:title></dc:title>
      </cc:Work>
    </rdf:RDF>
  </metadata>
  <g
     id="g4270"
     transform="matrix(0.6185856,0,0,0.6185856,23.16257,1.7766712)">
    <path
       style="color:#000000;display:inline;overflow:visible;visibility:visible;opacity:0.15;fill:url(#radialGradient4284-8);fill-opacity:1;fill-rule:nonzero;stroke:none;stroke-width:1;marker:none;enable-background:accumulate"
       id="path3964-9"
       d="m 11.053328,43.039409 a 22.632276,5.8210869 0 0 1 -45.26455,0 22.632276,5.8210869 0 1 1 45.26455,0 z"
       inkscape:connector-curvature="0" />
    <path
       style="color:#000000;display:inline;overflow:visible;visibility:visible;opacity:0.3;fill:url(#radialGradient4284);fill-opacity:1;fill-rule:nonzero;stroke:none;stroke-width:1;marker:none;enable-background:accumulate"
       id="path3964"
       d="m -3.0618251,44.140976 a 8.517123,2.8293529 0 0 1 -17.0342439,0 8.517123,2.8293529 0 1 1 17.0342439,0 z"
       inkscape:connector-curvature="0" />
  </g>
  <g
     transform="translate(-42.153437,-21.399265)"
     style="fill:#72ffff;fill-opacity:1;stroke:none;stroke-opacity:1"
     id="g4312-0-7">
    <g
       id="g4173-9-9"
       transform="translate(-20.853658,-3.7392766)"
       style="fill:#72ffff;fill-opacity:1;stroke:none" />
  </g>
  <g
     transform="translate(-15.637432,-13.760859)"
     style="fill:#ffffff;fill-opacity:1;stroke:none;stroke-opacity:1"
     id="g4312-0-7-9-6">
    <g
       id="g4173-9-9-2-1"
       transform="translate(-20.853658,-3.7392766)"
       style="fill:#ffffff;fill-opacity:1;stroke:none" />
  </g>
  <g
     id="g4290-6-6-1"
     style="opacity:0.6;fill:none;stroke:#ff0000;stroke-width:0.90183944;stroke-opacity:1"
     transform="matrix(1.1091755,0,0,1.1085135,6.6135455,-34.378931)">
    <g
       id="g4312-2-1-9"
       style="stroke:#ff0000;stroke-width:0.90183944;stroke-opacity:1"
       transform="translate(9.4576272,28.271187)">
      <g
         style="stroke:#ff0000;stroke-width:0.90183944;stroke-opacity:1"
         id="g4173-9-2-4">
        <g
           id="g4177-1-9-7"
           style="fill:none;stroke:#ff0000;stroke-width:0.90183944;stroke-opacity:1"
           transform="translate(-14.542373,5.3898306)" />
      </g>
    </g>
  </g>
  <g
     id="g4290-6-6"
     style="opacity:0.6;fill:#000000;stroke:none;stroke-width:0.90183944;stroke-opacity:1;fill-opacity:1"
     transform="matrix(1.1091755,0,0,1.1085135,-8.7657598,-5.6888898)">
    <g
       id="g4312-2-1"
       style="stroke:none;stroke-width:0.90183944;stroke-opacity:1;fill:#000000;fill-opacity:1"
       transform="translate(9.4576272,28.271187)">
      <g
         style="stroke:none;stroke-width:0.90183944;stroke-opacity:1;fill:#000000;fill-opacity:1"
         id="g4173-9-2">
        <g
           id="g4177-1-9"
           style="fill:#000000;stroke:none;stroke-width:0.90183944;stroke-opacity:1;fill-opacity:1"
           transform="translate(-14.542373,5.3898306)" />
      </g>
    </g>
  </g>
  <g
     id="g4290-6-8-2-1"
     style="opacity:1;fill:url(#radialGradient5188);fill-opacity:1;stroke:none;stroke-width:1.47941411;stroke-miterlimit:4;stroke-dasharray:none;stroke-opacity:1"
     transform="matrix(0.67641016,0,0,0.67547674,63.709934,-14.52293)">
    <g
       id="g4312-2-7-8-9"
       style="fill:url(#radialGradient5194);fill-opacity:1;stroke:none;stroke-width:1.47941411;stroke-miterlimit:4;stroke-dasharray:none;stroke-opacity:1"
       transform="translate(-1.6555843,25.21001)">
      <g
         style="fill:url(#radialGradient5192);fill-opacity:1;stroke:none;stroke-width:1.47941411;stroke-miterlimit:4;stroke-dasharray:none"
         id="g4173-9-92-9-4">
        <g
           id="g4177-1-0-7-7"
           style="fill:url(#radialGradient5190);fill-opacity:1;stroke:none;stroke-width:1.47941411;stroke-miterlimit:4;stroke-dasharray:none;stroke-opacity:1"
           transform="translate(-14.542373,5.3898306)" />
      </g>
    </g>
  </g>
  <g
     id="g5271"
     transform="translate(-1.0480223e-6,-15.000001)">
    <rect
       transform="matrix(0.70710678,-0.70710678,0.70710678,0.70710678,0,0)"
       style="color:#000000;display:inline;overflow:visible;visibility:visible;fill:url(#radialGradient4144);fill-opacity:1;fill-rule:nonzero;stroke:none;stroke-width:0.99999994;marker:none;enable-background:accumulate"
       id="rect5505-21"
       y="23.406466"
       x="-20.434156"
       ry="0.96018857"
       rx="0.96018857"
       height="19.655109"
       width="19.655109" />
    <rect
       transform="matrix(0.70710678,-0.70710678,0.70710678,0.70710678,0,0)"
       style="color:#000000;clip-rule:nonzero;display:inline;overflow:visible;visibility:visible;opacity:0.4;isolation:auto;mix-blend-mode:normal;color-interpolation:sRGB;color-interpolation-filters:linearRGB;solid-color:#000000;solid-opacity:1;fill:none;fill-opacity:1;fill-rule:nonzero;stroke:#0a3600;stroke-width:1;stroke-linecap:round;stroke-linejoin:miter;stroke-miterlimit:4;stroke-dasharray:none;stroke-dashoffset:0;stroke-opacity:1;marker:none;color-rendering:auto;image-rendering:auto;shape-rendering:auto;text-rendering:auto;enable-background:accumulate"
       id="rect5505-21-6"
       y="23.404482"
       x="-20.43614"
       ry="0.960392"
       rx="0.960392"
       height="19.659077"
       width="19.659077" />
    <path
       sodipodi:nodetypes="cccccccccscsccccccsccccscccccccccccccccccsccsccccscccccccccccccccc"
       inkscape:connector-curvature="0"
       id="rect5505-21-3"
       d="m 16.380126,21.550542 c -0.218526,-6.5e-5 -0.435035,0.0085 -0.650391,0.02344 -1.509456,0.109923 -2.877492,0.633092 -4.058593,1.962891 l -0.0098,0.01172 -0.01172,0.01172 c -1.013782,1.01345 -1.8541779,2.756529 -1.380859,4.361328 0.35601,1.178853 1.121359,2.144835 2.253906,2.820313 l 0.002,0 0.0039,0.002 c 0.04886,0.02823 0.399098,0.208577 0.845703,0.427734 0.448834,0.220252 1.020255,0.496635 1.605469,0.771485 1.135563,0.531603 1.821698,0.861726 2.285157,1.11914 0.46346,0.257414 0.729884,0.465751 0.923828,0.701172 0.561741,0.679568 0.698972,1.651351 0.302734,2.431641 -0.393456,0.782313 -1.272693,1.279011 -2.267578,1.445312 -1.140835,0.200005 -2.862348,-0.104296 -4.56836,-0.68164 -0.304003,-0.103327 -0.527219,-0.174937 -0.654296,-0.201172 -0.04951,-0.01022 -0.06302,-0.01053 -0.07617,-0.01172 0.01991,-0.0128 0.01129,-0.02218 -0.04102,0.0957 -0.05067,0.114183 -0.122364,0.340544 -0.203125,0.589844 l 0.0039,0.02734 1.333985,1.333984 0.0039,0.0039 c 0.863306,0.844593 1.2449,1.276799 1.441406,1.433594 0.09848,0.07858 0.131871,0.09313 0.228516,0.119141 0.07035,0.01893 0.235072,0.04 0.396484,0.06055 0.06517,0.0068 0.09173,0.01084 0.169922,0.01953 l 0.0039,0 0.002,0 c 0.21003,0.02746 0.987656,0.04676 1.625,0.0332 0.0038,-8.2e-5 0.0059,8.4e-5 0.0098,0 0.339288,-0.0072 0.634527,-0.02123 0.900391,-0.04492 0.125065,-0.01115 0.227658,-0.03289 0.341797,-0.04883 0.134258,-0.01871 0.277548,-0.03237 0.402343,-0.05859 0.0027,-5.65e-4 0.0052,-0.0014 0.0078,-0.002 0.447462,-0.09611 0.850734,-0.246674 1.335937,-0.478516 0.445171,-0.216428 0.945746,-0.660594 1.451223,-1.234704 l 0.0098,-0.01172 0.0098,-0.0098 c 1.22471,-1.240044 1.577459,-1.83912 1.683543,-3.597327 0.05267,-1.41646 -0.198612,-2.237671 -0.917969,-3.144531 -0.326428,-0.410171 -0.616736,-0.684914 -1.220703,-1.056641 -0.603966,-0.371727 -1.516461,-0.822989 -2.99414,-1.503906 l 0,0.002 c -1.25838,-0.577579 -2.009017,-0.94938 -2.509766,-1.351563 -0.50075,-0.402183 -0.711702,-0.947671 -0.703125,-1.458984 0.0082,-0.525006 0.187623,-0.959111 0.574219,-1.376953 l 0.002,-0.002 0.002,-0.002 c 0.552236,-0.582842 1.410364,-0.788415 2.396485,-0.763672 0.986122,0.02474 2.134718,0.288071 3.367187,0.773437 0.323999,0.126806 0.510578,0.179323 0.595703,0.195313 0.01627,-0.02922 0.02827,-0.04908 0.04883,-0.08984 0.07229,-0.143362 0.163641,-0.344691 0.248047,-0.554688 l 0.002,-0.0059 0.150391,-0.345703 -1.082031,-1.078125 -1.328125,-1.330078 -0.25,-0.169922 c -3.65e-4,-5.7e-5 -0.0016,5.7e-5 -0.002,0 -0.0814,-0.01234 -0.299282,-0.03054 -0.441407,-0.04687 -0.265395,-0.0305 -0.510252,-0.06182 -0.824219,-0.08789 -0.0013,-8.8e-5 -0.0026,8.8e-5 -0.0039,0 -0.258679,-0.01724 -0.513955,-0.0273 -0.765625,-0.02734 l -0.0059,0 z"
       style="color:#000000;display:inline;overflow:visible;visibility:visible;fill:url(#radialGradient3857-4);fill-opacity:1;fill-rule:nonzero;stroke:none;stroke-width:0.99999994;marker:none;enable-background:accumulate" />
    <g
       transform="matrix(0.67641016,0,0,0.67547674,21.640868,-19.998102)"
       style="opacity:0.6;fill:none;stroke:url(#linearGradient4300-3-6);stroke-width:1.47941363;stroke-linejoin:round;stroke-opacity:1"
       id="g4290-6-8">
      <g
         transform="translate(9.4576272,28.271187)"
         style="stroke:#009200;stroke-width:1.47941363;stroke-linejoin:round;stroke-opacity:1"
         id="g4312-2-7">
        <g
           id="g4173-9-92"
           style="stroke-width:1.47941363;stroke-linejoin:round">
          <g
             transform="translate(-14.542373,5.3898306)"
             style="fill:none;stroke:#000000;stroke-width:1.47941363;stroke-linejoin:round;stroke-opacity:1"
             id="g4177-1-0">
            <path
               sodipodi:nodetypes="cccccccccccccccccccccccccccccccccc"
               inkscape:connector-curvature="0"
               d="m -5.9442124,56.544226 c -1.643847,-0.182909 -1.178704,-0.14792 -3.713948,-2.630827 l -2.1373256,-2.137191 -0.09186,-0.461032 c 0.621711,-1.947445 0.642787,-1.958205 2.4446946,-1.344921 2.444695,0.828471 4.994765,1.226568 6.39625,0.979102 1.285572,-0.215188 2.392007,-0.903787 2.813507,-1.743017 0.421498,-0.828471 0.263436,-2.044279 -0.358275,-2.797434 -0.442574,-0.537968 -1.138048,-0.925306 -4.488967,-2.496173 -1.738683,-0.817712 -3.393068,-1.635423 -3.688117,-1.807573 -1.8229826,-1.086696 -3.0874806,-2.679081 -3.6670416,-4.605008 -0.803628,-2.728486 0.579091,-5.53973 2.228472,-7.190849 2.4483326,-2.76038 5.5102466,-3.363295 8.7094306,-3.148899 0.779773,0.06456 1.717609,0.161391 2.08642,0.225947 l 0.579327,0.391184 2.014596,2.018476 1.953991,1.954327 -0.417221,0.961898 c -0.263437,0.656321 -0.558486,1.248086 -0.663861,1.312642 -0.273975,0.215187 -0.569024,0.17215 -1.612235,-0.236706 -3.519518,-1.387957 -6.512162,-1.463273 -7.713435,-0.193669 -0.526874,0.570246 -0.642786,0.84999 -0.653323,1.549349 -0.02108,1.258846 0.621711,1.775295 4.320366,3.475275 4.383592,2.02276 5.458415,2.689841 6.501625,4.002482 1.159122,1.463274 1.601697,2.937307 1.517397,5.153735 -0.164156,2.73875 -0.962569,3.82347 -2.800039,5.686517 -0.726843,0.826673 -1.399763,1.69672 -2.279026,2.124782 -1.527935,0.731637 -2.655445,0.968342 -4.741866,1.01138 -0.979986,0.02151 -2.128571,0 -2.539532,-0.0538 z M -3.2532294,23.351461 -21.716104,41.838404 -3.2561164,60.325347 15.206759,41.838404 Z"
               style="opacity:1;fill:none;fill-opacity:1;stroke:url(#linearGradient4200-5-1);stroke-width:1.47941363;stroke-linejoin:round;stroke-miterlimit:4;stroke-dasharray:none;stroke-opacity:1"
               id="path4316-2-2" />
          </g>
        </g>
      </g>
    </g>
  </g>
</svg>
