<?xml version="1.0" encoding="UTF-8" standalone="no"?>
<svg
   xmlns:dc="http://purl.org/dc/elements/1.1/"
   xmlns:cc="http://creativecommons.org/ns#"
   xmlns:rdf="http://www.w3.org/1999/02/22-rdf-syntax-ns#"
   xmlns:svg="http://www.w3.org/2000/svg"
   xmlns="http://www.w3.org/2000/svg"
   xmlns:xlink="http://www.w3.org/1999/xlink"
   xmlns:sodipodi="http://sodipodi.sourceforge.net/DTD/sodipodi-0.dtd"
   xmlns:inkscape="http://www.inkscape.org/namespaces/inkscape"
   id="svg4715"
   height="32"
   width="32"
   version="1.1"
   sodipodi:docname="veracrypt_32.svg"
   inkscape:version="0.92.3 (2405546, 2018-03-11)">
  <sodipodi:namedview
     pagecolor="#ffffff"
     bordercolor="#666666"
     borderopacity="1"
     objecttolerance="10"
     gridtolerance="10"
     guidetolerance="10"
     inkscape:pageopacity="0"
     inkscape:pageshadow="2"
     inkscape:window-width="1366"
     inkscape:window-height="705"
     id="namedview48"
     showgrid="false"
     inkscape:zoom="22.627417"
     inkscape:cx="12.607172"
     inkscape:cy="13.627119"
     inkscape:window-x="0"
     inkscape:window-y="30"
     inkscape:window-maximized="1"
     inkscape:current-layer="svg4715" />
  <defs
     id="defs4717">
    <linearGradient
       id="linearGradient909">
      <stop
         id="stop905"
         style="stop-color:#fafafa;stop-opacity:1"
         offset="0" />
      <stop
         id="stop907"
         style="stop-color:#d4d4d4;stop-opacity:1"
         offset="1" />
    </linearGradient>
    <linearGradient
       id="linearGradient3924">
      <stop
         offset="0"
         style="stop-color:#ffffff;stop-opacity:1"
         id="stop3926" />
      <stop
         offset="0.04026115"
         style="stop-color:#ffffff;stop-opacity:0.23529412"
         id="stop3928" />
      <stop
         offset="0.95833331"
         style="stop-color:#ffffff;stop-opacity:0.15686275"
         id="stop3930" />
      <stop
         offset="1"
         style="stop-color:#ffffff;stop-opacity:0.39215687"
         id="stop3932" />
    </linearGradient>
    <radialGradient
       gradientTransform="matrix(2.003784,0,0,1.4,27.98813,-17.4)"
       gradientUnits="userSpaceOnUse"
       xlink:href="#linearGradient3688-166-749"
       id="radialGradient3163"
       fy="43.5"
       fx="4.9929786"
       r="2.5"
       cy="43.5"
       cx="4.9929786" />
    <linearGradient
       id="linearGradient3688-166-749">
      <stop
         offset="0"
         style="stop-color:#181818;stop-opacity:1"
         id="stop2883" />
      <stop
         offset="1"
         style="stop-color:#181818;stop-opacity:0"
         id="stop2885" />
    </linearGradient>
    <radialGradient
       gradientTransform="matrix(2.003784,0,0,1.4,-20.01187,-104.4)"
       gradientUnits="userSpaceOnUse"
       xlink:href="#linearGradient3688-464-309"
       id="radialGradient3165"
       fy="43.5"
       fx="4.9929786"
       r="2.5"
       cy="43.5"
       cx="4.9929786" />
    <linearGradient
       id="linearGradient3688-464-309">
      <stop
         offset="0"
         style="stop-color:#181818;stop-opacity:1"
         id="stop2889" />
      <stop
         offset="1"
         style="stop-color:#181818;stop-opacity:0"
         id="stop2891" />
    </linearGradient>
    <linearGradient
       gradientUnits="userSpaceOnUse"
       xlink:href="#linearGradient3702-501-757"
       id="linearGradient3167"
       y2="39.999443"
       x2="25.058096"
       y1="47.027729"
       x1="25.058096" />
    <linearGradient
       id="linearGradient3702-501-757">
      <stop
         offset="0"
         style="stop-color:#181818;stop-opacity:0"
         id="stop2895" />
      <stop
         offset="0.5"
         style="stop-color:#181818;stop-opacity:1"
         id="stop2897" />
      <stop
         offset="1"
         style="stop-color:#181818;stop-opacity:0"
         id="stop2899" />
    </linearGradient>
    <linearGradient
       gradientTransform="matrix(0.67567568,0,0,0.67567567,-0.2162133,-0.21620877)"
       gradientUnits="userSpaceOnUse"
       xlink:href="#linearGradient3924"
       id="linearGradient3027"
       y2="41.759991"
       x2="23.999996"
       y1="6.2399888"
       x1="23.999996" />
    <linearGradient
       xlink:href="#linearGradient909"
       id="linearGradient903"
       x1="14.329722"
       y1="32.022377"
       x2="14.329722"
       y2="-0.070297658"
       gradientUnits="userSpaceOnUse"
       gradientTransform="translate(0,-32)" />
    <clipPath
       clipPathUnits="userSpaceOnUse"
       id="clipPath8125">
      <path
         style="color:#000000;display:inline;overflow:visible;visibility:visible;fill:#000000;fill-opacity:1;fill-rule:nonzero;stroke:none;stroke-width:2;stroke-miterlimit:4;stroke-dasharray:none;stroke-opacity:1;marker:none;enable-background:accumulate"
         id="path8127"
         d="m 15,7.9999995 c -0.277,0 -0.5,0.223 -0.5,0.5 V 10.1875 c -0.548639,0.140741 -1.055018,0.37601 -1.53125,0.65625 L 11.75,9.625 c -0.195869,-0.19587 -0.491631,-0.19587 -0.6875,0 L 9.625,11.0625 c -0.1958686,0.195869 -0.1958686,0.491631 0,0.6875 l 1.21875,1.21875 C 10.56351,13.444982 10.328241,13.951361 10.1875,14.5 H 8.5 C 8.223,14.5 8,14.723 8,15 v 2 c 0,0.277 0.223,0.5 0.5,0.5 h 1.6875 c 0.140741,0.548639 0.37601,1.055018 0.65625,1.53125 L 9.625,20.25 c -0.1958686,0.195869 -0.1958686,0.491631 0,0.6875 l 1.4375,1.4375 c 0.195869,0.195869 0.491631,0.195869 0.6875,0 l 1.21875,-1.21875 c 0.476232,0.28024 0.982611,0.515509 1.53125,0.65625 V 23.5 c 0,0.277 0.223,0.5 0.5,0.5 h 2 c 0.277,0 0.5,-0.223 0.5,-0.5 v -1.6875 c 0.548639,-0.140741 1.055018,-0.37601 1.53125,-0.65625 L 20.25,22.375 c 0.195869,0.195869 0.491631,0.195869 0.6875,0 l 1.4375,-1.4375 c 0.195869,-0.195869 0.195869,-0.491631 0,-0.6875 L 21.15625,19.03125 C 21.43649,18.555018 21.671759,18.048639 21.8125,17.5 H 23.5 c 0.277,0 0.5,-0.223 0.5,-0.5 v -2 c 0,-0.277 -0.223,-0.5 -0.5,-0.5 H 21.8125 C 21.671759,13.951361 21.43649,13.444982 21.15625,12.96875 L 22.375,11.75 c 0.195869,-0.19587 0.195869,-0.491631 0,-0.6875 L 20.9375,9.625 c -0.195869,-0.19587 -0.491631,-0.19587 -0.6875,0 l -1.21875,1.21875 C 18.555018,10.56351 18.048639,10.328241 17.5,10.1875 V 8.4999995 c 0,-0.277 -0.223,-0.5 -0.5,-0.5 z M 16,13 c 1.656854,0 3,1.343146 3,3 0,1.656854 -1.343146,3 -3,3 -1.656854,0 -3,-1.343146 -3,-3 0,-1.656854 1.343146,-3 3,-3 z" />
    </clipPath>
    <linearGradient
       x1="19.868132"
       y1="13.067885"
       x2="19.868132"
       y2="17.313972"
       id="linearGradient3453"
       xlink:href="#linearGradient4549"
       gradientUnits="userSpaceOnUse"
       gradientTransform="matrix(1,0,0,-1,0,33.003591)" />
    <linearGradient
       id="linearGradient4549">
      <stop
         id="stop4551"
         style="stop-color:#000000;stop-opacity:0.27205881"
         offset="0" />
      <stop
         id="stop4553"
         style="stop-color:#000000;stop-opacity:0.36764705"
         offset="1" />
    </linearGradient>
    <linearGradient
       inkscape:collect="always"
       xlink:href="#linearGradient4672"
       id="linearGradient4674"
       x1="16.500391"
       y1="11.967"
       x2="17.200392"
       y2="35.966999"
       gradientUnits="userSpaceOnUse" />
    <linearGradient
       inkscape:collect="always"
       id="linearGradient4672">
      <stop
         style="stop-color:#5dade2;stop-opacity:1"
         offset="0"
         id="stop4668" />
      <stop
         style="stop-color:#0198c4;stop-opacity:1"
         offset="1"
         id="stop4670" />
    </linearGradient>
    <linearGradient
       inkscape:collect="always"
       xlink:href="#linearGradient4680"
       id="linearGradient4682"
       x1="21.343073"
       y1="23.967001"
       x2="21.501541"
       y2="35.71973"
       gradientUnits="userSpaceOnUse" />
    <linearGradient
       inkscape:collect="always"
       id="linearGradient4680">
      <stop
         style="stop-color:#d6eaf8;stop-opacity:1"
         offset="0"
         id="stop4676" />
      <stop
         style="stop-color:#4dbac2;stop-opacity:1"
         offset="1"
         id="stop4678" />
    </linearGradient>
    <linearGradient
       inkscape:collect="always"
       xlink:href="#linearGradient4661"
       id="linearGradient4663"
       x1="29.217127"
       y1="11.742441"
       x2="29.370512"
       y2="35.903919"
       gradientUnits="userSpaceOnUse" />
    <linearGradient
       inkscape:collect="always"
       id="linearGradient4661">
      <stop
         style="stop-color:#82e0aa;stop-opacity:1"
         offset="0"
         id="stop4657" />
      <stop
         style="stop-color:#06b788;stop-opacity:1"
         offset="1"
         id="stop4659" />
    </linearGradient>
  </defs>
  <metadata
     id="metadata4720">
    <rdf:RDF>
      <cc:Work
         rdf:about="">
        <dc:format>image/svg+xml</dc:format>
        <dc:type
           rdf:resource="http://purl.org/dc/dcmitype/StillImage" />
        <dc:title />
      </cc:Work>
    </rdf:RDF>
  </metadata>
  <g
     style="display:inline"
     id="g2036"
     transform="matrix(0.6999997,0,0,0.44444486,-0.8000003,10.111104)">
    <g
       style="opacity:0.4"
       id="g3712"
       transform="matrix(1.052632,0,0,1.285713,-1.263158,-13.42854)">
      <rect
         style="fill:url(#radialGradient3163);fill-opacity:1;stroke:none"
         id="rect2801"
         y="40"
         x="38"
         height="7"
         width="5" />
      <rect
         style="fill:url(#radialGradient3165);fill-opacity:1;stroke:none"
         id="rect3696"
         transform="scale(-1,-1)"
         y="-47"
         x="-10"
         height="7"
         width="5" />
      <rect
         style="fill:url(#linearGradient3167);fill-opacity:1;stroke:none"
         id="rect3700"
         y="40"
         x="10"
         height="7.0000005"
         width="28" />
    </g>
  </g>
  <rect
     style="color:#000000;display:inline;overflow:visible;visibility:visible;fill:url(#linearGradient903);fill-opacity:1;fill-rule:nonzero;stroke:none;stroke-width:1;marker:none;enable-background:accumulate"
     id="rect5505"
     y="-29"
     x="3"
     ry="1.6154056"
     rx="1.6154056"
     height="26"
     width="26"
     transform="scale(1,-1)" />
  <g
     id="g948"
     transform="translate(42.007415,8.688204)">
    <path
       inkscape:connector-curvature="0"
       id="path10-2-9"
       d="m -36.568963,-0.68820384 0.341797,1.261719 4.53125,16.73828084 h 4.947265 0.01758 0.002 11.283203 l -2.999999,-6 h -4.169922 l -0.75,-2.9999998 0.75,-3 h 4.169922 l 2.999999,-6.00000004 h -12.054687 l -1.341797,5.05859404 c -0.386899,-1.482674 -0.808293,-3.083329 -1.119141,-4.30468804 l -0.191406,-0.753906 z"
       style="opacity:0.05;fill:#000000;fill-opacity:1;stroke-width:0.66666669" />
    <path
       inkscape:connector-curvature="0"
       id="path10-2"
       d="m -35.107049,0.31179633 4.332032,15.99999967 h 4.18164 0.01758 0.002 9.666015 l -2,-4 h -4.333984 l -1,-4.0000002 1,-3.9999995 h 4.333984 l 2,-3.99999997 h -9.667969 l -2.11914,7.99414007 c -0.730818,-2.7785232 -1.501857,-5.7222411 -2.080078,-7.99414007 z"
       style="opacity:0.1;fill:#000000;fill-opacity:1;stroke-width:0.66666669" />
  </g>
  <rect
     style="color:#000000;display:inline;overflow:visible;visibility:visible;fill:none;stroke:#555761;stroke-width:1;stroke-linecap:round;stroke-linejoin:round;stroke-miterlimit:4;stroke-dasharray:none;stroke-dashoffset:0;stroke-opacity:1;marker:none;enable-background:accumulate;opacity:0.5"
     id="rect5505-6-6"
     y="2.5"
     x="2.5"
     ry="2.1600001"
     rx="2.1600001"
     height="27"
     width="27" />
  <rect
     style="fill:none;stroke:url(#linearGradient3027);stroke-width:0.99999994;stroke-linecap:round;stroke-linejoin:round;stroke-miterlimit:4;stroke-dasharray:none;stroke-dashoffset:0;stroke-opacity:1"
     id="rect6741-7"
     y="3.4999998"
     x="3.5"
     ry="1.1904761"
     rx="1.0869565"
     height="25"
     width="25" />
  <g
     transform="matrix(0.66666667,0,0,0.66666667,-0.23320341,0.02199992)"
     id="g91">
    <path
       sodipodi:nodetypes="ccccc"
       style="fill:url(#linearGradient4674);fill-opacity:1"
       inkscape:connector-curvature="0"
       id="path10"
       d="m 10.7,11.967 h 6.5 c 1.901196,7.470021 5.113216,19.574369 6.300191,23.999999 l -6.2998,10e-7 z" />
    <path
       id="path12"
       d="m 25.792391,23.974 -5.476442,-0.007 -2.640558,10.447 -0.475,1.553 6.2707,-1.2e-5 c 2.7426,-11.892 2.3218,-11.993 2.3218,-11.993 z"
       style="fill:url(#linearGradient4682);fill-opacity:1"
       inkscape:connector-curvature="0"
       sodipodi:nodetypes="ccccccc" />
    <path
       inkscape:connector-curvature="0"
       id="path14-3"
       d="m 23.49961,11.967 -3.183661,12 3.183661,12 h 14.5 l -3,-6 h -6.5 l -1.5,-6 1.5,-6 h 6.5 l 3,-6 z"
       style="fill:url(#linearGradient4663);fill-opacity:1;stroke:none"
       sodipodi:nodetypes="ccccccccccc" />
  </g>
</svg>
