<?xml version="1.0" encoding="UTF-8" standalone="no"?>
<svg
   xmlns:dc="http://purl.org/dc/elements/1.1/"
   xmlns:cc="http://creativecommons.org/ns#"
   xmlns:rdf="http://www.w3.org/1999/02/22-rdf-syntax-ns#"
   xmlns:svg="http://www.w3.org/2000/svg"
   xmlns="http://www.w3.org/2000/svg"
   xmlns:xlink="http://www.w3.org/1999/xlink"
   xmlns:sodipodi="http://sodipodi.sourceforge.net/DTD/sodipodi-0.dtd"
   xmlns:inkscape="http://www.inkscape.org/namespaces/inkscape"
   id="svg3143"
   height="32"
   width="32"
   version="1.1"
   inkscape:version="1.0.2 (e86c870879, 2021-01-15)"
   sodipodi:docname="vmware-player_32.svg">
  <sodipodi:namedview
     pagecolor="#ffffff"
     bordercolor="#666666"
     borderopacity="1"
     objecttolerance="10"
     gridtolerance="10"
     guidetolerance="10"
     inkscape:pageopacity="0"
     inkscape:pageshadow="2"
     inkscape:window-width="1366"
     inkscape:window-height="705"
     id="namedview50"
     showgrid="true"
     inkscape:zoom="31.966196"
     inkscape:cx="16"
     inkscape:cy="23.795128"
     inkscape:window-x="0"
     inkscape:window-y="30"
     inkscape:window-maximized="1"
     inkscape:current-layer="svg3143"
     inkscape:document-rotation="0">
    <inkscape:grid
       type="xygrid"
       id="grid922" />
  </sodipodi:namedview>
  <defs
     id="defs3145">
    <linearGradient
       id="linearGradient1115">
      <stop
         offset="0"
         style="stop-color:#ffffff;stop-opacity:1"
         id="stop1107" />
      <stop
         offset="0.03571429"
         style="stop-color:#ffffff;stop-opacity:0.23529412"
         id="stop1109" />
      <stop
         offset="0.96428573"
         style="stop-color:#ffffff;stop-opacity:0.15686275"
         id="stop1111" />
      <stop
         offset="1"
         style="stop-color:#ffffff;stop-opacity:0.39215687"
         id="stop1113" />
    </linearGradient>
    <radialGradient
       id="radialGradient3030"
       gradientUnits="userSpaceOnUse"
       cy="43.5"
       cx="4.993"
       gradientTransform="matrix(2.0038 0 0 1.4 27.988 -17.4)"
       r="2.5">
      <stop
         id="stop2883"
         stop-color="#181818"
         offset="0" />
      <stop
         id="stop2885"
         stop-color="#181818"
         stop-opacity="0"
         offset="1" />
    </radialGradient>
    <radialGradient
       id="radialGradient3032"
       gradientUnits="userSpaceOnUse"
       cy="43.5"
       cx="4.993"
       gradientTransform="matrix(2.0038 0 0 1.4 -20.012 -104.4)"
       r="2.5">
      <stop
         id="stop2889"
         stop-color="#181818"
         offset="0" />
      <stop
         id="stop2891"
         stop-color="#181818"
         stop-opacity="0"
         offset="1" />
    </radialGradient>
    <linearGradient
       id="linearGradient3034"
       y2="39.999"
       gradientUnits="userSpaceOnUse"
       x2="25.058"
       y1="47.028"
       x1="25.058">
      <stop
         id="stop2895"
         stop-color="#181818"
         stop-opacity="0"
         offset="0" />
      <stop
         id="stop2897"
         stop-color="#181818"
         offset=".5" />
      <stop
         id="stop2899"
         stop-color="#181818"
         stop-opacity="0"
         offset="1" />
    </linearGradient>
    <linearGradient
       id="linearGradient3044"
       y2="43"
       gradientUnits="userSpaceOnUse"
       x2="24"
       gradientTransform="translate(48.997719,0.36200872)"
       y1="5"
       x1="24">
      <stop
         id="stop3926-7"
         stop-color="#fff"
         offset="0" />
      <stop
         id="stop3928-3"
         stop-color="#fff"
         stop-opacity=".23529"
         offset=".063165" />
      <stop
         id="stop3930-7"
         stop-color="#fff"
         stop-opacity=".15686"
         offset=".95056" />
      <stop
         id="stop3932-1"
         stop-color="#fff"
         stop-opacity=".39216"
         offset="1" />
    </linearGradient>
    <radialGradient
       id="radialGradient3053"
       gradientUnits="userSpaceOnUse"
       cy="9.9941"
       cx="8.2761"
       gradientTransform="matrix(0,6.6678,-8.1859,0,154.87772,-60.100992)"
       r="12.672">
      <stop
         id="stop3244"
         stop-color="#7ec1f8"
         offset="0" />
      <stop
         id="stop3246"
         stop-color="#4f97e3"
         offset=".26238" />
      <stop
         id="stop3248"
         stop-color="#2674c6"
         offset=".66094" />
      <stop
         id="stop3250"
         stop-color="#0b4169"
         offset="1" />
    </radialGradient>
    <clipPath
       id="clipPath-929888831">
      <g
         id="g17"
         transform="translate(0 -1004.4)">
        <path
           id="path19"
           d="m-24 13c0 1.105-0.672 2-1.5 2s-1.5-0.895-1.5-2 0.672-2 1.5-2 1.5 0.895 1.5 2z"
           transform="matrix(15.333 0 0 11.5 415 878.86)"
           fill="#1890d0" />
      </g>
    </clipPath>
    <radialGradient
       gradientTransform="matrix(2.003784,0,0,1.4,27.98813,-17.4)"
       gradientUnits="userSpaceOnUse"
       xlink:href="#linearGradient3688-166-749-2-324"
       id="radialGradient3013-896"
       fy="43.5"
       fx="4.9929786"
       r="2.5"
       cy="43.5"
       cx="4.9929786" />
    <linearGradient
       id="linearGradient3688-166-749-2-324">
      <stop
         offset="0"
         style="stop-color:#181818;stop-opacity:1"
         id="stop3216" />
      <stop
         offset="1"
         style="stop-color:#181818;stop-opacity:0"
         id="stop3218" />
    </linearGradient>
    <radialGradient
       gradientTransform="matrix(2.003784,0,0,1.4,-20.01187,-104.4)"
       gradientUnits="userSpaceOnUse"
       xlink:href="#linearGradient3688-166-749-2-324"
       id="radialGradient3015-826"
       fy="43.5"
       fx="4.9929786"
       r="2.5"
       cy="43.5"
       cx="4.9929786" />
    <linearGradient
       gradientUnits="userSpaceOnUse"
       xlink:href="#linearGradient3702-501-757-6-946"
       id="linearGradient4395"
       y2="39.999443"
       x2="25.058096"
       y1="47.027729"
       x1="25.058096" />
    <linearGradient
       id="linearGradient3702-501-757-6-946">
      <stop
         offset="0"
         style="stop-color:#181818;stop-opacity:0"
         id="stop3228" />
      <stop
         offset="0.5"
         style="stop-color:#181818;stop-opacity:1"
         id="stop3230" />
      <stop
         offset="1"
         style="stop-color:#181818;stop-opacity:0"
         id="stop3232" />
    </linearGradient>
    <radialGradient
       gradientTransform="matrix(0,9.4975523,-11.65996,0,140.93055,-79.160972)"
       gradientUnits="userSpaceOnUse"
       xlink:href="#linearGradient2867-449-88-871-390-598-476-591-434-148-57-177-8-3-3-6-4-8-8-8-5"
       id="radialGradient4144"
       fy="9.9571075"
       fx="6.2001843"
       r="12.671875"
       cy="9.9571075"
       cx="6.7304144" />
    <linearGradient
       id="linearGradient2867-449-88-871-390-598-476-591-434-148-57-177-8-3-3-6-4-8-8-8-5">
      <stop
         offset="0"
         style="stop-color:#919caf;stop-opacity:1"
         id="stop3750-1-0-7-6-6-1-3-9-3" />
      <stop
         offset="0.26238"
         style="stop-color:#68758e;stop-opacity:1"
         id="stop3752-3-7-4-0-32-8-923-0-7" />
      <stop
         offset="0.704952"
         style="stop-color:#485a6c;stop-opacity:1"
         id="stop3754-1-8-5-2-7-6-7-1-9" />
      <stop
         offset="1"
         style="stop-color:#444c5c;stop-opacity:1"
         id="stop3756-1-6-2-6-6-1-96-6-0" />
    </linearGradient>
    <linearGradient
       gradientTransform="matrix(0.7,0,0,0.7,-68.815024,-4.2060077)"
       gradientUnits="userSpaceOnUse"
       xlink:href="#linearGradient4187"
       id="linearGradient3153"
       y2="41.890972"
       x2="23.99999"
       y1="6.1111298"
       x1="23.99999" />
    <linearGradient
       id="linearGradient4187">
      <stop
         offset="0"
         style="stop-color:#ffffff;stop-opacity:1"
         id="stop4189" />
      <stop
         offset="0.02099473"
         style="stop-color:#ffffff;stop-opacity:0.23529412"
         id="stop4191" />
      <stop
         offset="0.97696"
         style="stop-color:#ffffff;stop-opacity:0.15686275"
         id="stop4193" />
      <stop
         offset="1"
         style="stop-color:#ffffff;stop-opacity:0.39215687"
         id="stop4195" />
    </linearGradient>
    <linearGradient
       gradientTransform="matrix(1.0521608,0,0,-1.0532519,-1.2521612,51.339874)"
       gradientUnits="userSpaceOnUse"
       xlink:href="#linearGradient4311"
       id="linearGradient3143"
       y2="25.361452"
       x2="30.212982"
       y1="21.416878"
       x1="30.212982" />
    <linearGradient
       id="linearGradient4311">
      <stop
         offset="0"
         style="stop-color:#000000;stop-opacity:1"
         id="stop4313" />
      <stop
         offset="1"
         style="stop-color:#000000;stop-opacity:0"
         id="stop4315" />
    </linearGradient>
    <radialGradient
       gradientTransform="matrix(2.003784,0,0,1.4,27.98813,-17.4)"
       gradientUnits="userSpaceOnUse"
       xlink:href="#linearGradient3688-166-749-2-324"
       id="radialGradient3013-896-3"
       fy="43.5"
       fx="4.9929786"
       r="2.5"
       cy="43.5"
       cx="4.9929786" />
    <radialGradient
       gradientTransform="matrix(2.003784,0,0,1.4,-20.01187,-104.4)"
       gradientUnits="userSpaceOnUse"
       xlink:href="#linearGradient3688-166-749-2-324"
       id="radialGradient3015-826-5"
       fy="43.5"
       fx="4.9929786"
       r="2.5"
       cy="43.5"
       cx="4.9929786" />
    <radialGradient
       gradientTransform="matrix(0,6.6482866,-8.161972,0,29.836353,-60.318695)"
       gradientUnits="userSpaceOnUse"
       xlink:href="#radialGradient3053"
       id="radialGradient4144-2"
       fy="9.9571075"
       fx="6.2001843"
       r="12.671875"
       cy="9.9571075"
       cx="6.7304144" />
    <radialGradient
       gradientTransform="matrix(2.003784,0,0,1.4,27.98813,-17.4)"
       gradientUnits="userSpaceOnUse"
       xlink:href="#linearGradient3688-166-749-2-324"
       id="radialGradient3493"
       fy="43.5"
       fx="4.9929786"
       r="2.5"
       cy="43.5"
       cx="4.9929786" />
    <radialGradient
       gradientTransform="matrix(2.003784,0,0,1.4,-20.01187,-104.4)"
       gradientUnits="userSpaceOnUse"
       xlink:href="#linearGradient3688-166-749-2-324"
       id="radialGradient3495"
       fy="43.5"
       fx="4.9929786"
       r="2.5"
       cy="43.5"
       cx="4.9929786" />
    <radialGradient
       gradientTransform="matrix(0,6.5752286,-8.07228,0,96.951918,-56.111442)"
       gradientUnits="userSpaceOnUse"
       xlink:href="#radialGradient3053"
       id="radialGradient4388"
       fy="9.9571075"
       fx="6.2001843"
       r="12.671875"
       cy="9.9571075"
       cx="6.7304144" />
    <linearGradient
       gradientTransform="matrix(0.67567568,0,0,0.67567568,-0.21621855,-0.2162061)"
       gradientUnits="userSpaceOnUse"
       xlink:href="#linearGradient3924-0"
       id="linearGradient3483"
       y2="41.679485"
       x2="38.546436"
       y1="6.3738203"
       x1="38.546436" />
    <linearGradient
       id="linearGradient3924-0">
      <stop
         offset="0"
         style="stop-color:#ffffff;stop-opacity:1"
         id="stop3926-6" />
      <stop
         offset="0.03798588"
         style="stop-color:#ffffff;stop-opacity:0.23529412"
         id="stop3928-3-3" />
      <stop
         offset="0.96200818"
         style="stop-color:#ffffff;stop-opacity:0.15686275"
         id="stop3930-2" />
      <stop
         offset="1"
         style="stop-color:#ffffff;stop-opacity:0.39215687"
         id="stop3932-62" />
    </linearGradient>
    <radialGradient
       gradientTransform="matrix(2.003784,0,0,1.4,27.98813,-17.4)"
       gradientUnits="userSpaceOnUse"
       xlink:href="#linearGradient3688-166-749-2-324"
       id="radialGradient3013-896-3-3"
       fy="43.5"
       fx="4.9929786"
       r="2.5"
       cy="43.5"
       cx="4.9929786" />
    <radialGradient
       gradientTransform="matrix(2.003784,0,0,1.4,-20.01187,-104.4)"
       gradientUnits="userSpaceOnUse"
       xlink:href="#linearGradient3688-166-749-2-324"
       id="radialGradient3015-826-5-2"
       fy="43.5"
       fx="4.9929786"
       r="2.5"
       cy="43.5"
       cx="4.9929786" />
    <radialGradient
       gradientTransform="matrix(2.003784,0,0,1.4,27.98813,-17.4)"
       gradientUnits="userSpaceOnUse"
       xlink:href="#linearGradient3688-166-749-2-324"
       id="radialGradient3013-896-3-0"
       fy="43.5"
       fx="4.9929786"
       r="2.5"
       cy="43.5"
       cx="4.9929786" />
    <radialGradient
       gradientTransform="matrix(2.003784,0,0,1.4,-20.01187,-104.4)"
       gradientUnits="userSpaceOnUse"
       xlink:href="#linearGradient3688-166-749-2-324"
       id="radialGradient3015-826-5-7"
       fy="43.5"
       fx="4.9929786"
       r="2.5"
       cy="43.5"
       cx="4.9929786" />
    <radialGradient
       gradientTransform="matrix(2.003784,0,0,1.4,27.98813,-17.4)"
       gradientUnits="userSpaceOnUse"
       xlink:href="#linearGradient3688-166-749-2-324"
       id="radialGradient3013-896-3-3-6"
       fy="43.5"
       fx="4.9929786"
       r="2.5"
       cy="43.5"
       cx="4.9929786" />
    <radialGradient
       gradientTransform="matrix(2.003784,0,0,1.4,-20.01187,-104.4)"
       gradientUnits="userSpaceOnUse"
       xlink:href="#linearGradient3688-166-749-2-324"
       id="radialGradient3015-826-5-2-1"
       fy="43.5"
       fx="4.9929786"
       r="2.5"
       cy="43.5"
       cx="4.9929786" />
    <linearGradient
       inkscape:collect="always"
       id="linearGradient4206-3">
      <stop
         style="stop-color:#ffe16b;stop-opacity:1"
         offset="0"
         id="stop4208-6" />
      <stop
         style="stop-color:#f9c440;stop-opacity:1"
         offset="1"
         id="stop4210-0" />
    </linearGradient>
    <linearGradient
       id="linearGradient1136">
      <stop
         offset="0"
         style="stop-color:#ffffff;stop-opacity:1"
         id="stop1128" />
      <stop
         offset="0.025"
         style="stop-color:#ffffff;stop-opacity:0.23529412"
         id="stop1130" />
      <stop
         offset="0.97500002"
         style="stop-color:#ffffff;stop-opacity:0.15686275"
         id="stop1132" />
      <stop
         offset="1"
         style="stop-color:#ffffff;stop-opacity:0.39215687"
         id="stop1134" />
    </linearGradient>
    <linearGradient
       inkscape:collect="always"
       xlink:href="#linearGradient4206-3"
       id="linearGradient1076"
       gradientUnits="userSpaceOnUse"
       gradientTransform="matrix(0.96428568,0,0,0.96428568,-7.142864,-8.107143)"
       x1="24.000008"
       y1="11.003884"
       x2="24.000008"
       y2="38.988491" />
    <linearGradient
       inkscape:collect="always"
       xlink:href="#linearGradient1115"
       id="linearGradient1142"
       x1="16"
       y1="2"
       x2="16"
       y2="30"
       gradientUnits="userSpaceOnUse" />
  </defs>
  <metadata
     id="metadata3148">
    <rdf:RDF>
      <cc:Work
         rdf:about="">
        <dc:format>image/svg+xml</dc:format>
        <dc:type
           rdf:resource="http://purl.org/dc/dcmitype/StillImage" />
        <dc:title />
      </cc:Work>
    </rdf:RDF>
  </metadata>
  <g
     id="g4224"
     fill="#ffc239"
     transform="matrix(1.0826 0 0 -1.0785 -1.975 50.826)">
    <g
       id="g4226"
       fill="#ffc239"
       clip-path="url(#clipPath-929888831)">
      <!-- color: #dfdfdf -->
    </g>
  </g>
  <g
     id="g4232"
     fill="#ffc239"
     transform="matrix(-1.0826 0 0 -1.0785 49.975 50.826)">
    <g
       id="g4234"
       fill="#ffc239"
       clip-path="url(#clipPath-929888831)">
      <!-- color: #dfdfdf -->
    </g>
  </g>
  <g
     id="g4294"
     stroke-linejoin="round"
     opacity=".15"
     transform="matrix(.99936 0 0 .99553 .022037 .46841)"
     stroke="#fff"
     stroke-linecap="round"
     stroke-width="1.8509"
     fill="none">
    <g
       id="g4296"
       transform="matrix(1.0833 0 0 1.0833 -2 -1.3)">
      <g
         id="g4298"
         stroke-linejoin="round"
         clip-path="url(#clipPath-929888831)"
         stroke="#fff"
         stroke-linecap="round"
         stroke-width="1.8509"
         fill="none">
        <!-- color: #dfdfdf -->
      </g>
    </g>
    <g
       id="g4304"
       transform="matrix(1.0833 0 0 -1.0833 -1.9983 50.583)">
      <g
         id="g4306"
         stroke-linejoin="round"
         clip-path="url(#clipPath-929888831)"
         stroke="#fff"
         stroke-linecap="round"
         stroke-width="1.8509"
         fill="none">
        <!-- color: #dfdfdf -->
      </g>
    </g>
    <g
       id="g4310"
       transform="matrix(-1.0833 0 0 -1.0833 49.985 50.583)">
      <g
         id="g4312"
         stroke-linejoin="round"
         clip-path="url(#clipPath-929888831)"
         stroke="#fff"
         stroke-linecap="round"
         stroke-width="1.8509"
         fill="none">
        <!-- color: #dfdfdf -->
      </g>
    </g>
  </g>
  <g
     style="opacity:0.2;stroke-width:1.02114;stroke-miterlimit:4;stroke-dasharray:none"
     id="g3712-0-2"
     transform="matrix(-0.34210526,0,0,-0.4285714,31.710526,48.142856)">
    <rect
       style="fill:url(#radialGradient3013-896-3-3);fill-opacity:1;stroke:none;stroke-width:1.02114;stroke-miterlimit:4;stroke-dasharray:none"
       id="rect2801-4-6"
       y="40"
       x="38"
       height="7"
       width="5" />
    <rect
       style="fill:url(#radialGradient3015-826-5-2);fill-opacity:1;stroke:none;stroke-width:1.02114;stroke-miterlimit:4;stroke-dasharray:none"
       id="rect3696-8-1"
       transform="scale(-1)"
       y="-47"
       x="-10"
       height="7"
       width="5" />
    <rect
       style="fill:url(#linearGradient4395);fill-opacity:1;stroke:none;stroke-width:1.02114;stroke-miterlimit:4;stroke-dasharray:none"
       id="rect3700-7-8"
       y="40"
       x="10"
       height="7.0000005"
       width="28" />
  </g>
  <path
     id="path941-9-7"
     style="color:#000000;fill:url(#linearGradient1076);fill-opacity:1;enable-background:new"
     d="M 27.572266,29.5 C 28.640694,29.5 29.5,28.640695 29.5,27.572266 v -8.089844 c 0,-1.068429 -0.931572,-1.964844 -2,-1.964844 -1.068429,0 -2,0.896415 -2,1.964844 v 3.189453 l -2,-2 V 17.5 h -4 v 1 c 0,0.534215 -0.465785,1 -1,1 h -1 v 4 h 3.171875 l 2,2 H 19.5 c -1.068429,0 -2,0.931571 -2,2 0,1.068429 0.931571,2 2,2 h 8.070313 z m 0,-27 C 28.640694,2.5 29.5,3.3593054 29.5,4.4277344 v 8.0898436 c 0,1.068429 -0.931572,1.964844 -2,1.964844 -1.068429,0 -2,-0.896415 -2,-1.964844 V 9.328125 l -2,2 V 14.5 h -4 v -1 c 0,-0.534215 -0.465785,-1 -1,-1 h -1 v -4 h 3.171875 l 2,-2 H 19.5 c -1.068429,0 -2,-0.931571 -2,-2 0,-1.068429 0.931571,-2 2,-2 h 8.070313 z M 8.5,17.5 V 21 c 0,1.561487 1.0176286,2.5 2.5,2.5 h 3.5 v -4 h -1 c -0.5,0 -1,-0.5 -1,-1 v -1 z M 4.4277344,2.5 C 3.3593064,2.5 2.5,3.3593054 2.5,4.4277344 v 8.0898436 c 0,1.068429 0.931572,1.964844 2,1.964844 1.068429,0 2,-0.896415 2,-1.964844 V 9.328125 l 2,2 V 14.5 h 4 v -1 c 0,-0.534215 0.465785,-1 1,-1 h 1 v -4 h -3.171875 l -2,-2 H 12.5 c 1.068429,0 2,-0.931571 2,-2 0,-1.068429 -0.931571,-2 -2,-2 H 4.4296875 Z" />
  <path
     id="path1095"
     style="color:#000000;fill:none;fill-opacity:1;enable-background:new;stroke:#ad5f00;stroke-opacity:1;opacity:0.4"
     d="M 27.572266,29.5 C 28.640694,29.5 29.5,28.640695 29.5,27.572266 v -8.089844 c 0,-1.068429 -0.931572,-1.964844 -2,-1.964844 -1.068429,0 -2,0.896415 -2,1.964844 v 3.189453 l -2,-2 V 17.5 h -4 v 1 c 0,0.534215 -0.465785,1 -1,1 h -1 v 4 h 3.171875 l 2,2 H 19.5 c -1.068429,0 -2,0.931571 -2,2 0,1.068429 0.931571,2 2,2 h 8.070313 z m 0,-27 C 28.640694,2.5 29.5,3.3593054 29.5,4.4277344 v 8.0898436 c 0,1.068429 -0.931572,1.964844 -2,1.964844 -1.068429,0 -2,-0.896415 -2,-1.964844 V 9.328125 l -2,2 V 14.5 h -4 v -1 c 0,-0.534215 -0.465785,-1 -1,-1 h -1 v -4 h 3.171875 l 2,-2 H 19.5 c -1.068429,0 -2,-0.931571 -2,-2 0,-1.068429 0.931571,-2 2,-2 h 8.070313 z M 8.5,17.5 V 21 c 0,1.561487 1.0176286,2.5 2.5,2.5 h 3.5 v -4 h -1 c -0.5,0 -1,-0.5 -1,-1 v -1 z M 4.4277344,2.5 C 3.3593064,2.5 2.5,3.3593054 2.5,4.4277344 v 8.0898436 c 0,1.068429 0.931572,1.964844 2,1.964844 1.068429,0 2,-0.896415 2,-1.964844 V 9.328125 l 2,2 V 14.5 h 4 v -1 c 0,-0.534215 0.465785,-1 1,-1 h 1 v -4 h -3.171875 l -2,-2 H 12.5 c 1.068429,0 2,-0.931571 2,-2 0,-1.068429 -0.931571,-2 -2,-2 H 4.4296875 Z" />
  <path
     id="path941-9-7-3"
     style="color:#000000;fill:none;fill-opacity:1;stroke:url(#linearGradient1142);stroke-opacity:1;enable-background:new"
     d="M 4.427734,3.5 C 3.895487,3.5 3.5,3.895486 3.5,4.427734 v 8.089844 c 0,0.487157 0.490908,0.964844 1,0.964844 0.509094,0 1,-0.477686 1,-0.964844 V 6.914063 l 4,4 V 13.5 h 2 c 0,-1.115485 0.884515,-2 2,-2 v -2 h -2.585938 l -4,-4 H 12.5 c 0.487157,0 1,-0.512843 1,-1 0,-0.487157 -0.512843,-1 -1,-1 H 4.429688 Z M 19.5,3.5 c -0.487157,0 -1,0.512843 -1,1 0,0.487157 0.512843,1 1,1 h 5.585938 l -4,4 H 18.5 v 2 c 1.115485,0 2,0.884515 2,2 h 2 v -2.585937 l 4,-4 v 5.603515 c 0,0.487158 0.490906,0.964844 1,0.964844 0.509092,0 1,-0.477687 1,-0.964844 V 4.427734 C 28.5,3.895486 28.104513,3.5 27.572266,3.5 h -0.002 z m -10,15 V 21 c 0,0.563508 0.161518,0.895231 0.392578,1.121094 C 10.123638,22.346957 10.469853,22.5 11,22.5 h 2.5 v -2 c -0.583333,0 -1.049896,-0.260834 -1.394531,-0.605469 C 11.760834,19.549896 11.5,19.083333 11.5,18.5 Z m 11,0 c 0,1.115485 -0.884515,2 -2,2 v 2 h 2.585938 l 4,4 H 19.5 c -0.487157,0 -1,0.512843 -1,1 0,0.487157 0.512843,1 1,1 h 8.070312 0.002 c 0.532251,0 0.927738,-0.395486 0.927738,-0.927734 v -8.089844 c 0,-0.487157 -0.490908,-0.964844 -1,-0.964844 -0.509094,0 -1,0.477686 -1,0.964844 v 5.603515 l -4,-4 V 18.5 Z" />
</svg>
