<?xml version="1.0" encoding="UTF-8" standalone="no"?>
<!-- Created with Inkscape (http://www.inkscape.org/) -->
<svg
   xmlns:dc="http://purl.org/dc/elements/1.1/"
   xmlns:cc="http://web.resource.org/cc/"
   xmlns:rdf="http://www.w3.org/1999/02/22-rdf-syntax-ns#"
   xmlns:svg="http://www.w3.org/2000/svg"
   xmlns="http://www.w3.org/2000/svg"
   xmlns:xlink="http://www.w3.org/1999/xlink"
   xmlns:sodipodi="http://sodipodi.sourceforge.net/DTD/sodipodi-0.dtd"
   xmlns:inkscape="http://www.inkscape.org/namespaces/inkscape"
   width="16"
   height="16"
   id="svg2108"
   sodipodi:version="0.32"
   inkscape:version="0.44.1"
   sodipodi:docbase="/home/jesusda/docs/themes/iconos/pasodoble"
   sodipodi:docname="amule_16.svg"
   inkscape:export-filename="/home/jesusda/docs/themes/iconos/pasodoble/amule_22.png"
   inkscape:export-xdpi="90"
   inkscape:export-ydpi="90"
   version="1.0">
  <defs
     id="defs3">
    <linearGradient
       id="linearGradient34648">
      <stop
         id="stop34650"
         offset="0"
         style="stop-color:white;stop-opacity:1;" />
      <stop
         id="stop34652"
         offset="1"
         style="stop-color:white;stop-opacity:0" />
    </linearGradient>
    <linearGradient
       id="linearGradient25671">
      <stop
         style="stop-color:white;stop-opacity:1;"
         offset="0"
         id="stop25673" />
      <stop
         style="stop-color:white;stop-opacity:0;"
         offset="1"
         id="stop25675" />
    </linearGradient>
    <linearGradient
       id="linearGradient19466">
      <stop
         style="stop-color:#f1f1f1;stop-opacity:1;"
         offset="0"
         id="stop19468" />
      <stop
         style="stop-color:#babdb6;stop-opacity:1;"
         offset="1"
         id="stop19470" />
    </linearGradient>
    <linearGradient
       id="linearGradient11455">
      <stop
         style="stop-color:#e7a53c;stop-opacity:1;"
         offset="0"
         id="stop11457" />
      <stop
         style="stop-color:#c17d11;stop-opacity:1;"
         offset="1"
         id="stop11459" />
    </linearGradient>
    <linearGradient
       inkscape:collect="always"
       id="linearGradient3816">
      <stop
         style="stop-color:#000000;stop-opacity:1;"
         offset="0"
         id="stop3818" />
      <stop
         style="stop-color:#000000;stop-opacity:0;"
         offset="1"
         id="stop3820" />
    </linearGradient>
    <radialGradient
       inkscape:collect="always"
       xlink:href="#linearGradient3816"
       id="radialGradient9675"
       gradientUnits="userSpaceOnUse"
       cx="31.112698"
       cy="19.008621"
       fx="31.112698"
       fy="19.008621"
       r="8.6620579" />
    <linearGradient
       inkscape:collect="always"
       xlink:href="#linearGradient11455"
       id="linearGradient11461"
       x1="13.144103"
       y1="3.7709198"
       x2="15.282922"
       y2="10.841989"
       gradientUnits="userSpaceOnUse"
       gradientTransform="matrix(0.351559,-7.606986e-2,7.606986e-2,0.351559,-2.07659,0.510222)" />
    <linearGradient
       inkscape:collect="always"
       xlink:href="#linearGradient11455"
       id="linearGradient14124"
       x1="30.288221"
       y1="9.9835567"
       x2="33.180138"
       y2="14.137809"
       gradientUnits="userSpaceOnUse"
       gradientTransform="matrix(0.328273,0,0,0.328273,-0.176333,0.246761)" />
    <radialGradient
       inkscape:collect="always"
       xlink:href="#linearGradient11455"
       id="radialGradient15914"
       cx="20.779243"
       cy="17.632784"
       fx="20.779243"
       fy="17.632784"
       r="12.684678"
       gradientTransform="matrix(6.451684e-2,9.507193e-2,-0.151752,9.042489e-2,8.045971,1.285305)"
       gradientUnits="userSpaceOnUse" />
    <linearGradient
       inkscape:collect="always"
       xlink:href="#linearGradient19466"
       id="linearGradient19472"
       x1="23.020285"
       y1="30.234846"
       x2="28.303734"
       y2="37.394302"
       gradientUnits="userSpaceOnUse"
       gradientTransform="matrix(0.328273,0,0,0.328273,-0.176333,0.246761)" />
    <linearGradient
       inkscape:collect="always"
       xlink:href="#linearGradient25671"
       id="linearGradient25677"
       x1="11.318041"
       y1="7.0598373"
       x2="16.425468"
       y2="13.332288"
       gradientUnits="userSpaceOnUse"
       gradientTransform="matrix(0.290673,-6.289533e-2,6.328032e-2,0.292452,1.149877,1.660247)" />
    <linearGradient
       inkscape:collect="always"
       xlink:href="#linearGradient25671"
       id="linearGradient27530"
       x1="9.4548607"
       y1="-2.2937856"
       x2="27.017139"
       y2="27.461781"
       gradientUnits="userSpaceOnUse"
       gradientTransform="matrix(0.342848,0,0,0.323365,0.124269,7.159248e-2)" />
    <linearGradient
       inkscape:collect="always"
       xlink:href="#linearGradient25671"
       id="linearGradient28425"
       x1="26.714243"
       y1="4.4031796"
       x2="33.140091"
       y2="13.731877"
       gradientUnits="userSpaceOnUse"
       gradientTransform="matrix(0.320254,0,0,0.274437,1.154761,0.884079)" />
    <linearGradient
       inkscape:collect="always"
       xlink:href="#linearGradient25671"
       id="linearGradient31979"
       x1="167.7552"
       y1="464.58746"
       x2="404.8714"
       y2="873.34998"
       gradientUnits="userSpaceOnUse" />
    <linearGradient
       inkscape:collect="always"
       xlink:href="#linearGradient19466"
       id="linearGradient32868"
       gradientUnits="userSpaceOnUse"
       gradientTransform="matrix(0.275583,0,0,0.293462,1.365801,1.496203)"
       x1="23.020285"
       y1="30.234846"
       x2="28.303734"
       y2="37.394302" />
    <linearGradient
       inkscape:collect="always"
       xlink:href="#linearGradient34648"
       id="linearGradient33761"
       x1="21.203966"
       y1="30.258102"
       x2="24.958433"
       y2="37.234951"
       gradientUnits="userSpaceOnUse"
       gradientTransform="matrix(0.328273,0,0,0.328273,0.972624,0.246761)" />
    <linearGradient
       inkscape:collect="always"
       xlink:href="#linearGradient34648"
       id="linearGradient35547"
       x1="35.920532"
       y1="45.451065"
       x2="34.458363"
       y2="42.953388"
       gradientUnits="userSpaceOnUse"
       gradientTransform="matrix(0.232616,0,0,0.258366,4.516417,3.434161)" />
    <linearGradient
       inkscape:collect="always"
       xlink:href="#linearGradient19466"
       id="linearGradient36440"
       x1="277.4422"
       y1="592.78882"
       x2="255.77803"
       y2="737.88422"
       gradientUnits="userSpaceOnUse" />
  </defs>
  <sodipodi:namedview
     inkscape:showpageshadow="false"
     id="base"
     pagecolor="#ffffff"
     bordercolor="#666666"
     borderopacity="1.0"
     inkscape:pageopacity="0.0"
     inkscape:pageshadow="2"
     inkscape:zoom="11.313708"
     inkscape:cx="9.7078679"
     inkscape:cy="10.050312"
     inkscape:current-layer="layer1"
     showgrid="true"
     inkscape:grid-bbox="true"
     inkscape:document-units="px"
     fill="#9db029"
     stroke="#727e0a"
     inkscape:window-width="1144"
     inkscape:window-height="785"
     inkscape:window-x="0"
     inkscape:window-y="30"
     width="16px"
     height="16px" />
  <metadata
     id="metadata4">
    <rdf:RDF>
      <cc:Work
         rdf:about="">
        <dc:format>image/svg+xml</dc:format>
        <dc:type
           rdf:resource="http://purl.org/dc/dcmitype/StillImage" />
        <dc:title>aMule</dc:title>
        <dc:creator>
          <cc:Agent>
            <dc:title>jEsuSdA 8)</dc:title>
          </cc:Agent>
        </dc:creator>
        <dc:source>http://www.jesusda.com</dc:source>
        <dc:subject>
          <rdf:Bag>
            <rdf:li>amule</rdf:li>
            <rdf:li>xmule</rdf:li>
            <rdf:li>edonkey</rdf:li>
            <rdf:li>p2p</rdf:li>
          </rdf:Bag>
        </dc:subject>
        <cc:license
           rdf:resource="http://creativecommons.org/licenses/by-sa/2.0/" />
      </cc:Work>
      <cc:License
         rdf:about="http://creativecommons.org/licenses/by-sa/2.0/">
        <cc:permits
           rdf:resource="http://web.resource.org/cc/Reproduction" />
        <cc:permits
           rdf:resource="http://web.resource.org/cc/Distribution" />
        <cc:requires
           rdf:resource="http://web.resource.org/cc/Notice" />
        <cc:requires
           rdf:resource="http://web.resource.org/cc/Attribution" />
        <cc:permits
           rdf:resource="http://web.resource.org/cc/DerivativeWorks" />
        <cc:requires
           rdf:resource="http://web.resource.org/cc/ShareAlike" />
      </cc:License>
    </rdf:RDF>
  </metadata>
  <g
     id="layer1"
     inkscape:label="cipek"
     inkscape:groupmode="layer"
     style="display:inline">
    <path
       transform="matrix(0.815117,0,0,0.212261,-16.16479,10.34754)"
       sodipodi:type="arc"
       style="opacity:0.4;color:black;fill:url(#radialGradient9675);fill-opacity:1;fill-rule:evenodd;stroke:none;stroke-width:1px;stroke-linecap:round;stroke-linejoin:round;marker:none;marker-start:none;marker-mid:none;marker-end:none;stroke-miterlimit:4;stroke-dasharray:none;stroke-dashoffset:0;stroke-opacity:1;visibility:visible;display:inline;overflow:visible"
       id="path4306"
       sodipodi:cx="31.112698"
       sodipodi:cy="19.008621"
       sodipodi:rx="8.6620579"
       sodipodi:ry="8.6620579"
       d="M 39.774755 19.008621 A 8.6620579 8.6620579 0 1 1  22.45064,19.008621 A 8.6620579 8.6620579 0 1 1  39.774755 19.008621 z" />
    <path
       style="fill:#c00;fill-opacity:1;fill-rule:evenodd;stroke:#a40000;stroke-width:1.03230286;stroke-linecap:butt;stroke-linejoin:miter;stroke-miterlimit:4;stroke-dasharray:none;stroke-opacity:1"
       d="M 10.774016,13.626535 C 10.857667,13.281873 12.107941,12.903854 12.523704,13.077731 C 12.982785,13.269723 13.503502,14.2917 13.398549,14.724141 C 13.31481,15.069172 12.318332,15.560995 11.957629,15.410145 C 11.443489,15.195127 10.668973,14.059345 10.774016,13.626535 z "
       id="path916"
       sodipodi:nodetypes="cssss" />
    <path
       style="fill:url(#linearGradient14124);fill-opacity:1;fill-rule:evenodd;stroke:#8f5902;stroke-width:1.03230286;stroke-linecap:butt;stroke-linejoin:miter;stroke-miterlimit:4;stroke-dasharray:none;stroke-opacity:1"
       d="M 9.3034824,3.3986914 C 9.9104092,3.1519461 10.918349,3.1098154 11.614794,3.3624573 C 12.787868,3.7880005 15.266112,5.2892981 14.912039,5.4332449 C 14.357322,5.6587652 10.461466,5.0414929 8.8884249,4.4708587 C 8.591946,4.3633079 9.0016201,3.521413 9.3034824,3.3986914 z "
       id="path837"
       sodipodi:nodetypes="cssss" />
    <path
       style="fill:url(#linearGradient11461);fill-opacity:1;fill-rule:evenodd;stroke:#8f5902;stroke-width:1.03230286;stroke-miterlimit:4;stroke-dasharray:none;stroke-opacity:1"
       d="M 7.0892114,4.8682499 C 7.0155973,4.1453789 6.5331302,3.1359251 5.9237084,2.5848366 C 4.8972164,1.6565992 2.1385228,0.0085594911 2.1814682,0.43027115 C 2.2487506,1.0909592 4.8779109,4.5873104 6.2543918,5.8320368 C 6.5138254,6.0666371 7.1258254,5.2277795 7.0892114,4.8682499 z "
       id="path839"
       sodipodi:nodetypes="cssss" />
    <path
       style="fill:#a76f1c;fill-opacity:1;fill-rule:evenodd;stroke:#8b580c;stroke-width:0.2511487;stroke-linecap:square;stroke-linejoin:miter;stroke-miterlimit:21;stroke-dasharray:none;stroke-opacity:1"
       d="M 7.5039656,4.5311512 L 6.402818,0.12557435 L 7.9201822,3.1317723 L 7.9871708,0.24871563 L 8.4033938,3.1556817 L 9.8744256,0.24634534 L 9.062385,4.0607028 L 7.5039656,4.5311512 z "
       id="path866"
       sodipodi:nodetypes="cccccccc" />
    <path
       sodipodi:nodetypes="cscss"
       id="path21244"
       d="M 7.3585101,5.2707287 C 7.1683314,4.7094888 6.9813425,4.3400224 6.2856357,3.7405409 C 5.7954715,3.3181728 4.8776266,2.4393358 4.0084487,2.0594502 C 4.704656,3.3468709 5.7940901,4.3817095 6.7473512,5.4508702 C 6.920953,5.6455786 7.4530992,5.5498695 7.3585101,5.2707287 z "
       style="opacity:1;fill:none;fill-opacity:1;fill-rule:evenodd;stroke:url(#linearGradient25677);stroke-width:0.47245395;stroke-miterlimit:6.19999981;stroke-dasharray:none;stroke-opacity:0.47058824" />
    <path
       sodipodi:nodetypes="cscss"
       id="path27532"
       d="M 9.5592001,4.017138 C 9.8144631,3.6671968 10.810179,3.7325653 11.471887,3.9816902 C 12.576269,4.3974758 13.282378,4.8877774 13.477384,5.0166928 C 9.7585643,4.1561592 10.213833,4.1462725 9.3100034,4.0069784 C 9.0106495,3.9608433 9.4189433,4.2094184 9.5592001,4.017138 z "
       style="fill:none;fill-opacity:1;fill-rule:evenodd;stroke:url(#linearGradient28425);stroke-width:0.49957201;stroke-linecap:butt;stroke-linejoin:miter;stroke-miterlimit:4;stroke-dasharray:none;stroke-opacity:1" />
    <path
       style="fill:url(#radialGradient15914);fill-opacity:1;fill-rule:evenodd;stroke:#8f5902;stroke-width:1.11042953;stroke-linecap:butt;stroke-linejoin:miter;stroke-miterlimit:4;stroke-dasharray:none;stroke-opacity:1"
       d="M 7.5197898,3.5642929 C 6.6132812,3.6507927 5.3576563,4.477649 5.0036443,5.2310419 C 4.4998803,6.3031347 4.9464592,7.7708476 4.9464592,9.0407502 C 4.9464592,10.310652 4.0291919,12.58367 5.0036443,12.850459 C 6.8122002,13.345613 11.85954,12.374221 13.29549,11.326576 C 14.013514,10.802718 11.933428,9.2411813 11.465565,8.1359447 C 11.375054,7.1673067 11.698803,5.6324357 10.957457,4.7734974 C 10.383544,4.1085519 8.443206,3.4761805 7.5197898,3.5642929 z "
       id="path826"
       sodipodi:nodetypes="cccccccc" />
    <path
       style="fill:none;fill-opacity:1;fill-rule:evenodd;stroke:url(#linearGradient27530);stroke-width:0.51779258;stroke-linecap:butt;stroke-linejoin:miter;stroke-miterlimit:4;stroke-dasharray:none;stroke-opacity:1"
       d="M 5.5074463,10.692993 C 5.9592533,9.1467216 5.5927583,7.7761755 5.530462,6.3853234 C 5.6644886,4.8490755 7.3052958,3.9315064 8.8037868,4.5572707 C 10.09982,5.0395071 10.541417,4.9183387 10.697407,6.727071 C 10.825975,7.5427053 11.034207,8.7477772 11.644951,9.3623417 C 11.870911,9.7412722 11.684121,10.180445 11.236427,10.237938 C 11.152519,10.272406 11.0828,10.333447 11.033584,10.405583"
       id="path26572"
       sodipodi:nodetypes="ccccccc" />
    <path
       sodipodi:type="arc"
       style="fill:url(#linearGradient36440);fill-opacity:1;fill-rule:evenodd;stroke:#2e3436;stroke-width:32.18379211;stroke-miterlimit:4;stroke-dasharray:none"
       id="path829"
       sodipodi:cx="320.64716"
       sodipodi:cy="683.87244"
       sodipodi:rx="167.95804"
       sodipodi:ry="128.25887"
       d="M 488.60519 683.87244 A 167.95804 128.25887 0 1 1  152.68912,683.87244 A 167.95804 128.25887 0 1 1  488.60519 683.87244 z"
       transform="matrix(2.729878e-2,-3.978883e-3,5.224827e-3,1.929851e-2,-3.315522,0.138695)" />
    <path
       transform="matrix(2.503528e-2,-3.612758e-3,4.791609e-3,1.752272e-2,-2.177581,1.228459)"
       d="M 473.74995 683.87244 A 153.1028 106.09241 0 1 1  167.54436,683.87244 A 153.1028 106.09241 0 1 1  473.74995 683.87244 z"
       sodipodi:ry="106.09241"
       sodipodi:rx="153.1028"
       sodipodi:cy="683.87244"
       sodipodi:cx="320.64716"
       id="path31086"
       style="fill:none;fill-opacity:1;fill-rule:evenodd;stroke:url(#linearGradient31979);stroke-width:24.3353405;stroke-miterlimit:4;stroke-dasharray:none"
       sodipodi:type="arc" />
    <path
       style="fill:#2e3436;fill-rule:evenodd;stroke:#555753;stroke-width:0.32827309;stroke-miterlimit:4;stroke-dasharray:none"
       d="M 11.031315,12.117326 C 10.915037,11.953712 11.403179,10.19325 11.700312,9.876378 C 11.832023,9.7359144 12.399302,10.472472 12.317848,10.745316 C 12.176305,11.219454 11.120882,12.243359 11.031315,12.117326 z "
       id="path850"
       sodipodi:nodetypes="csss" />
    <path
       style="fill:#2e3436;fill-rule:evenodd;stroke:#555753;stroke-width:0.32827309;stroke-miterlimit:4;stroke-dasharray:none"
       d="M 8.1360574,12.482493 C 8.1792961,12.292833 7.0188687,10.801558 6.6143977,10.599246 C 6.4351034,10.509565 6.1994917,11.377223 6.3847599,11.606516 C 6.7067111,12.004971 8.1027501,12.62859 8.1360574,12.482493 z "
       id="path851"
       sodipodi:nodetypes="csss" />
    <path
       sodipodi:type="arc"
       style="fill:#eeeeec;fill-rule:evenodd;stroke:#555753;stroke-width:9.21779442;stroke-miterlimit:4;stroke-dasharray:none"
       id="path862"
       sodipodi:cx="422.43991"
       sodipodi:cy="460.94629"
       sodipodi:rx="37.663319"
       sodipodi:ry="55.986012"
       d="M 460.10323 460.94629 A 37.663319 55.986012 0 1 1  384.77659,460.94629 A 37.663319 55.986012 0 1 1  460.10323 460.94629 z"
       transform="matrix(3.370278e-2,-4.995625e-3,6.316701e-3,3.280759e-2,-10.07964,-5.012185)" />
    <path
       sodipodi:type="arc"
       style="fill-rule:evenodd;stroke:black;stroke-width:1pt"
       id="path863"
       sodipodi:cx="297.23483"
       sodipodi:cy="487.41241"
       sodipodi:rx="24.43026"
       sodipodi:ry="23.412333"
       d="M 321.66509 487.41241 A 24.43026 23.412333 0 1 1  272.80457,487.41241 A 24.43026 23.412333 0 1 1  321.66509 487.41241 z"
       transform="matrix(3.255263e-2,-6.607383e-3,5.499284e-3,3.911196e-2,-4.955508,-8.319516)" />
    <path
       sodipodi:type="arc"
       style="fill:#eeeeec;fill-rule:evenodd;stroke:#555753;stroke-width:9.21779728;stroke-miterlimit:4;stroke-dasharray:none"
       id="path828"
       sodipodi:cx="422.43991"
       sodipodi:cy="460.94629"
       sodipodi:rx="37.663319"
       sodipodi:ry="55.986012"
       d="M 460.10323 460.94629 A 37.663319 55.986012 0 1 1  384.77659,460.94629 A 37.663319 55.986012 0 1 1  460.10323 460.94629 z"
       transform="matrix(3.280735e-2,0,0,3.056171e-2,-4.240707,-6.39845)" />
    <path
       sodipodi:type="arc"
       style="fill-rule:evenodd;stroke:black;stroke-width:1pt"
       id="path857"
       sodipodi:cx="297.23483"
       sodipodi:cy="487.41241"
       sodipodi:rx="24.43026"
       sodipodi:ry="23.412333"
       d="M 321.66509 487.41241 A 24.43026 23.412333 0 1 1  272.80457,487.41241 A 24.43026 23.412333 0 1 1  321.66509 487.41241 z"
       transform="matrix(3.303219e-2,0,0,3.569892e-2,-0.315587,-8.921552)" />
    <path
       transform="matrix(1.738048e-2,-3.647984e-3,2.936174e-3,2.1594e-2,0.632152,-1.018799)"
       d="M 321.66509 487.41241 A 24.43026 23.412333 0 1 1  272.80457,487.41241 A 24.43026 23.412333 0 1 1  321.66509 487.41241 z"
       sodipodi:ry="23.412333"
       sodipodi:rx="24.43026"
       sodipodi:cy="487.41241"
       sodipodi:cx="297.23483"
       id="path16807"
       style="fill:white;fill-opacity:1;fill-rule:evenodd;stroke:none;stroke-width:1pt"
       sodipodi:type="arc" />
    <path
       sodipodi:type="arc"
       style="fill:white;fill-opacity:1;fill-rule:evenodd;stroke:none;stroke-width:1pt"
       id="path17694"
       sodipodi:cx="297.23483"
       sodipodi:cy="487.41241"
       sodipodi:rx="24.43026"
       sodipodi:ry="23.412333"
       d="M 321.66509 487.41241 A 24.43026 23.412333 0 1 1  272.80457,487.41241 A 24.43026 23.412333 0 1 1  321.66509 487.41241 z"
       transform="matrix(1.738549e-2,-3.344854e-3,2.93702e-3,1.979964e-2,2.765879,-0.547073)" />
    <path
       style="fill:url(#linearGradient19472);fill-opacity:1;fill-rule:evenodd;stroke:#2e3436;stroke-width:0.49957201;stroke-miterlimit:1;stroke-dasharray:none"
       d="M 6.6570946,10.261532 C 7.4451216,9.6181707 10.581392,9.1038899 11.494468,9.5039439 C 12.02231,9.7352142 10.990147,11.284071 10.979854,12.155505 C 10.972994,12.736114 11.891418,13.822044 11.545929,14.096825 C 10.879346,14.626982 8.6979878,14.857865 7.9436305,14.570317 C 7.4972204,14.400155 8.2894216,13.127997 8.0980142,12.486949 C 7.8605758,11.691734 6.2272014,10.612506 6.6570946,10.261532 z "
       id="path844"
       sodipodi:nodetypes="ccccccc" />
    <path
       sodipodi:nodetypes="ccccccc"
       id="path32866"
       d="M 7.4398711,10.501326 C 8.1014109,9.9261888 10.037246,9.8152635 11.006873,9.8827383 C 11.058283,10.220054 10.505925,11.296834 10.497284,12.075859 C 10.491523,12.594899 10.979921,13.550532 11.197686,13.84033 C 10.636782,14.312625 8.828092,14.276574 8.337608,14.19801 C 8.340053,13.842783 8.7502623,12.872053 8.5895781,12.298984 C 8.3902507,11.588097 7.0789798,10.815081 7.4398711,10.501326 z "
       style="fill:url(#linearGradient32868);fill-opacity:1;fill-rule:evenodd;stroke:url(#linearGradient33761);stroke-width:0.49957201;stroke-miterlimit:1;stroke-dasharray:none" />
  </g>
  <g
     inkscape:groupmode="layer"
     id="layer2"
     inkscape:label="dalsi cipek"
     style="display:inline" />
</svg>
