<?xml version="1.0" encoding="UTF-8" standalone="no"?>
<svg
   xmlns:dc="http://purl.org/dc/elements/1.1/"
   xmlns:cc="http://creativecommons.org/ns#"
   xmlns:rdf="http://www.w3.org/1999/02/22-rdf-syntax-ns#"
   xmlns:svg="http://www.w3.org/2000/svg"
   xmlns="http://www.w3.org/2000/svg"
   xmlns:xlink="http://www.w3.org/1999/xlink"
   xmlns:sodipodi="http://sodipodi.sourceforge.net/DTD/sodipodi-0.dtd"
   xmlns:inkscape="http://www.inkscape.org/namespaces/inkscape"
   width="16"
   height="16"
   viewBox="0 0 48 48"
   version="1.1"
   id="svg46"
   sodipodi:docname="android-studio_16.svg"
   inkscape:version="0.92.3 (2405546, 2018-03-11)">
  <metadata
     id="metadata50">
    <rdf:RDF>
      <cc:Work
         rdf:about="">
        <dc:format>image/svg+xml</dc:format>
        <dc:type
           rdf:resource="http://purl.org/dc/dcmitype/StillImage" />
      </cc:Work>
    </rdf:RDF>
  </metadata>
  <sodipodi:namedview
     pagecolor="#ffffff"
     bordercolor="#666666"
     borderopacity="1"
     objecttolerance="10"
     gridtolerance="10"
     guidetolerance="10"
     inkscape:pageopacity="0"
     inkscape:pageshadow="2"
     inkscape:window-width="1366"
     inkscape:window-height="705"
     id="namedview48"
     showgrid="false"
     inkscape:zoom="15.379572"
     inkscape:cx="11.911575"
     inkscape:cy="4.0989607"
     inkscape:window-x="0"
     inkscape:window-y="30"
     inkscape:window-maximized="1"
     inkscape:current-layer="svg46" />
  <defs
     id="defs26">
    <linearGradient
       id="linearGradient4212">
      <stop
         style="stop-color:#000000;stop-opacity:1;"
         offset="0"
         id="stop2" />
      <stop
         style="stop-color:#000000;stop-opacity:0;"
         offset="1"
         id="stop4" />
    </linearGradient>
    <linearGradient
       id="linearGradient4198">
      <stop
         style="stop-color:#272b2d;stop-opacity:1;"
         offset="0"
         id="stop7" />
      <stop
         style="stop-color:#3e4447;stop-opacity:1"
         offset="1"
         id="stop9" />
    </linearGradient>
    <linearGradient
       id="linearGradient4185">
      <stop
         style="stop-color:#acacac;stop-opacity:1"
         offset="0"
         id="stop12" />
      <stop
         style="stop-color:#cbcbcb;stop-opacity:1"
         offset="1"
         id="stop14" />
    </linearGradient>
    <linearGradient
       id="linearGradient4144">
      <stop
         style="stop-color:#3b962d;stop-opacity:1"
         offset="0"
         id="stop17" />
      <stop
         style="stop-color:#93d169;stop-opacity:1"
         offset="1"
         id="stop19" />
    </linearGradient>
    <linearGradient
       xlink:href="#linearGradient4144"
       id="linearGradient4150"
       x1="25"
       y1="1046.362"
       x2="25"
       y2="1010.362"
       gradientUnits="userSpaceOnUse"
       gradientTransform="matrix(1.2268338,0,0,1.2236779,-5.4440099,-1234.8587)" />
    <radialGradient
       xlink:href="#linearGradient4185"
       id="radialGradient4191"
       cx="24"
       cy="1025.362"
       fx="24"
       fy="1025.362"
       r="2"
       gradientTransform="matrix(1.2268338,0,0,1.2235244,-5.4440099,-1234.7012)"
       gradientUnits="userSpaceOnUse" />
    <linearGradient
       xlink:href="#linearGradient4198"
       id="linearGradient4204"
       x1="24"
       y1="1032.362"
       x2="24"
       y2="1018.362"
       gradientUnits="userSpaceOnUse"
       gradientTransform="matrix(1.2268338,0,0,1.2236779,-5.4440099,-1234.8587)" />
    <linearGradient
       xlink:href="#linearGradient4212"
       id="linearGradient4218"
       x1="20"
       y1="17"
       x2="38"
       y2="35"
       gradientUnits="userSpaceOnUse"
       gradientTransform="translate(-46.45332,-2.1572749)" />
    <linearGradient
       x1="71.204407"
       y1="6.2375584"
       x2="71.204407"
       y2="44.340794"
       id="linearGradient3019"
       xlink:href="#linearGradient4011"
       gradientUnits="userSpaceOnUse"
       gradientTransform="matrix(1.1354479,0,0,1.1325272,-57.449675,-5.1925235)" />
    <linearGradient
       id="linearGradient4011">
      <stop
         id="stop4013"
         style="stop-color:#ffffff;stop-opacity:1"
         offset="0" />
      <stop
         id="stop4015"
         style="stop-color:#ffffff;stop-opacity:0.23529412"
         offset="0.507761" />
      <stop
         id="stop4017"
         style="stop-color:#ffffff;stop-opacity:0.15686275"
         offset="0.83456558" />
      <stop
         id="stop4019"
         style="stop-color:#ffffff;stop-opacity:0.39215687"
         offset="1" />
    </linearGradient>
    <radialGradient
       xlink:href="#linearGradient4185"
       id="radialGradient4191-2"
       cx="24"
       cy="1025.3621"
       fx="24"
       fy="1025.3621"
       r="2"
       gradientTransform="matrix(1.1388889,0,0,1.138746,-22.045197,-1091.085)"
       gradientUnits="userSpaceOnUse" />
    <linearGradient
       xlink:href="#linearGradient4144"
       id="linearGradient4150-2"
       x1="25"
       y1="1046.3621"
       x2="25"
       y2="1010.362"
       gradientUnits="userSpaceOnUse"
       gradientTransform="matrix(1.1388889,0,0,1.1388889,-48.994349,-1150.7231)" />
    <linearGradient
       xlink:href="#linearGradient4144"
       id="linearGradient4150-23"
       x1="25"
       y1="1046.3621"
       x2="25"
       y2="1010.362"
       gradientUnits="userSpaceOnUse"
       gradientTransform="matrix(1.1388889,0,0,1.1388889,-25.463694,-1085.9672)" />
    <radialGradient
       xlink:href="#linearGradient4185"
       id="radialGradient4191-28"
       cx="24"
       cy="1025.3621"
       fx="24"
       fy="1025.3621"
       r="2"
       gradientTransform="matrix(1.1388889,0,0,1.138746,-25.463695,-1085.8206)"
       gradientUnits="userSpaceOnUse" />
    <linearGradient
       xlink:href="#linearGradient4144"
       id="linearGradient4150-23-8"
       x1="25"
       y1="1046.3621"
       x2="25"
       y2="1010.362"
       gradientUnits="userSpaceOnUse"
       gradientTransform="matrix(1.1388889,0,0,1.1388889,45.439239,-1092.5824)" />
    <linearGradient
       xlink:href="#linearGradient4144"
       id="linearGradient4150-23-2"
       x1="25"
       y1="1046.3621"
       x2="25"
       y2="1010.362"
       gradientUnits="userSpaceOnUse"
       gradientTransform="matrix(1.1388889,0,0,1.1388889,-25.463694,-1085.9673)" />
    <radialGradient
       xlink:href="#linearGradient4185"
       id="radialGradient4191-4"
       cx="24"
       cy="1025.3621"
       fx="24"
       fy="1025.3621"
       r="2"
       gradientTransform="matrix(1.1388889,0,0,1.138746,-8.7184604,-1106.59)"
       gradientUnits="userSpaceOnUse" />
    <radialGradient
       xlink:href="#linearGradient4212"
       id="radialGradient3300-8"
       gradientUnits="userSpaceOnUse"
       gradientTransform="matrix(0.3823536,7.5555777e-8,-1.8372241e-8,0.1115198,-5.9254271,36.335849)"
       cx="99.189415"
       cy="185.29727"
       fx="99.189415"
       fy="185.29727"
       r="62.769119" />
    <radialGradient
       xlink:href="#linearGradient4212"
       id="radialGradient4192-6"
       gradientUnits="userSpaceOnUse"
       gradientTransform="matrix(0.2549024,5.3967361e-8,-1.2248161e-8,0.07965545,6.7163816,44.240666)"
       cx="99.189415"
       cy="185.29727"
       fx="99.189415"
       fy="185.29727"
       r="62.769119" />
    <radialGradient
       gradientTransform="matrix(0.6168591,0,0,0.20491803,-5.3370623,37.707954)"
       gradientUnits="userSpaceOnUse"
       xlink:href="#linearGradient4212"
       id="radialGradient4284"
       fy="44.261826"
       fx="23.557255"
       r="6.0999999"
       cy="44.261826"
       cx="23.557255" />
    <radialGradient
       gradientTransform="matrix(0.6168591,0,0,0.20491803,23.926676,37.708076)"
       gradientUnits="userSpaceOnUse"
       xlink:href="#linearGradient4212"
       id="radialGradient4284-3"
       fy="44.26123"
       fx="24.059826"
       r="6.0999999"
       cy="44.26123"
       cx="24.059826" />
    <radialGradient
       xlink:href="#linearGradient4185"
       id="radialGradient4191-3"
       cx="24"
       cy="1025.3621"
       fx="24"
       fy="1025.3621"
       r="2"
       gradientTransform="matrix(1.1388889,0,0,1.138746,-3.7401161,-1107.3222)"
       gradientUnits="userSpaceOnUse" />
    <radialGradient
       xlink:href="#linearGradient4185"
       id="radialGradient4191-35"
       cx="24"
       cy="1025.3621"
       fx="24"
       fy="1025.3621"
       r="2"
       gradientTransform="matrix(1.1388889,0,0,1.138746,-6.4710288,-1095.9498)"
       gradientUnits="userSpaceOnUse" />
    <radialGradient
       cx="4.9929786"
       cy="43.5"
       r="2.5"
       fx="4.9929786"
       fy="43.5"
       id="radialGradient3013"
       xlink:href="#linearGradient3688-166-749"
       gradientUnits="userSpaceOnUse"
       gradientTransform="matrix(2.003784,0,0,1.4,27.98813,-17.4)" />
    <linearGradient
       id="linearGradient3688-166-749">
      <stop
         id="stop2883"
         style="stop-color:#181818;stop-opacity:1"
         offset="0" />
      <stop
         id="stop2885"
         style="stop-color:#181818;stop-opacity:0"
         offset="1" />
    </linearGradient>
    <radialGradient
       cx="4.9929786"
       cy="43.5"
       r="2.5"
       fx="4.9929786"
       fy="43.5"
       id="radialGradient3015"
       xlink:href="#linearGradient3688-166-749"
       gradientUnits="userSpaceOnUse"
       gradientTransform="matrix(2.003784,0,0,1.4,-20.01187,-104.4)" />
    <linearGradient
       x1="25.058096"
       y1="47.027729"
       x2="25.058096"
       y2="39.999443"
       id="linearGradient3990"
       xlink:href="#linearGradient3702-501-757"
       gradientUnits="userSpaceOnUse" />
    <linearGradient
       id="linearGradient3702-501-757">
      <stop
         id="stop2895"
         style="stop-color:#181818;stop-opacity:0"
         offset="0" />
      <stop
         id="stop2897"
         style="stop-color:#181818;stop-opacity:1"
         offset="0.5" />
      <stop
         id="stop2899"
         style="stop-color:#181818;stop-opacity:0"
         offset="1" />
    </linearGradient>
    <linearGradient
       x1="71.204407"
       y1="15.369057"
       x2="71.204407"
       y2="40.495617"
       id="linearGradient3143"
       xlink:href="#linearGradient4806-9"
       gradientUnits="userSpaceOnUse"
       gradientTransform="matrix(1.5920715,0,0,1.5920722,-136.5647,-21.607494)" />
    <linearGradient
       id="linearGradient4806-9">
      <stop
         id="stop4808-49"
         style="stop-color:#ffffff;stop-opacity:1"
         offset="0" />
      <stop
         id="stop4810-05"
         style="stop-color:#ffffff;stop-opacity:0.23529412"
         offset="0.42447853" />
      <stop
         id="stop4812-6"
         style="stop-color:#ffffff;stop-opacity:0.15686275"
         offset="0.82089913" />
      <stop
         id="stop4814-7"
         style="stop-color:#ffffff;stop-opacity:0.39215687"
         offset="1" />
    </linearGradient>
    <linearGradient
       xlink:href="#linearGradient4144"
       id="linearGradient4150-3"
       x1="25"
       y1="1046.3621"
       x2="25"
       y2="1010.362"
       gradientUnits="userSpaceOnUse"
       gradientTransform="matrix(0.4089446,0,0,0.40789263,-2.73421,-391.4613)" />
    <linearGradient
       inkscape:collect="always"
       xlink:href="#linearGradient4806-9"
       id="linearGradient954"
       x1="-2.7920258"
       y1="73.241379"
       x2="38.375942"
       y2="73.241379"
       gradientUnits="userSpaceOnUse"
       gradientTransform="rotate(90,45.754015,51.487365)" />
    <linearGradient
       xlink:href="#linearGradient3688-166-749"
       id="linearGradient4150-5"
       x1="25"
       y1="1046.3621"
       x2="25"
       y2="1010.362"
       gradientUnits="userSpaceOnUse"
       gradientTransform="matrix(0.4089446,0,0,0.40789263,-0.89512963,-392.99853)" />
    <radialGradient
       xlink:href="#linearGradient4185"
       id="radialGradient4191-9"
       cx="24"
       cy="1025.3621"
       fx="24"
       fy="1025.3621"
       r="2"
       gradientTransform="matrix(1.2268338,0,0,1.2235244,-2.6853889,-1178.8381)"
       gradientUnits="userSpaceOnUse" />
    <linearGradient
       xlink:href="#linearGradient4198"
       id="linearGradient4204-7"
       x1="24"
       y1="1032.3621"
       x2="24"
       y2="1018.362"
       gradientUnits="userSpaceOnUse"
       gradientTransform="matrix(1.2268338,0,0,1.2236779,-2.6853889,-1178.9956)" />
    <linearGradient
       xlink:href="#linearGradient4144"
       id="linearGradient4150-5-9"
       x1="25"
       y1="1046.3621"
       x2="25"
       y2="1010.362"
       gradientUnits="userSpaceOnUse"
       gradientTransform="matrix(0.4089446,0,0,0.40789263,-0.89512977,-392.99853)" />
    <radialGradient
       xlink:href="#linearGradient4185"
       id="radialGradient4191-37"
       cx="24"
       cy="1025.3621"
       fx="24"
       fy="1025.3621"
       r="2"
       gradientTransform="matrix(1.2268338,0,0,1.2235244,-3.5129779,-1194.2801)"
       gradientUnits="userSpaceOnUse" />
    <radialGradient
       xlink:href="#linearGradient4185"
       id="radialGradient4191-289"
       cx="24"
       cy="1025.3621"
       fx="24"
       fy="1025.3621"
       r="2"
       gradientTransform="matrix(1.2268338,0,0,1.2235244,-9.0302194,-1188.66)"
       gradientUnits="userSpaceOnUse" />
    <linearGradient
       xlink:href="#linearGradient4198"
       id="linearGradient4204-1"
       x1="24"
       y1="1032.3621"
       x2="24"
       y2="1018.362"
       gradientUnits="userSpaceOnUse"
       gradientTransform="matrix(0.4089446,0,0,0.40789263,7.932653,-398.78817)" />
    <linearGradient
       xlink:href="#linearGradient4198"
       id="linearGradient4204-1-4"
       x1="24"
       y1="1032.3621"
       x2="24"
       y2="1018.362"
       gradientUnits="userSpaceOnUse"
       gradientTransform="matrix(1.2268338,0,0,1.2236779,23.797959,-1193.3639)" />
  </defs>
  <ellipse
     id="circle28"
     cy="23.525309"
     cx="24"
     style="opacity:1;fill:url(#linearGradient4150);fill-opacity:1;stroke:none;stroke-width:4.55555582;stroke-linecap:round;stroke-linejoin:round;stroke-miterlimit:4;stroke-dasharray:none;stroke-opacity:1"
     rx="22.083008"
     ry="22.026203" />
  <g
     id="g1085"
     transform="translate(0.687112,-42.760825)">
    <path
       inkscape:connector-curvature="0"
       id="circle28-3"
       d="m 20.87399,55.55085 a 1.50015,1.50015 0 0 0 -1.5,1.5 v 0.01758 2.173827 c -2.026032,0.06281 -3.679688,1.715526 -3.679688,3.75 v 5.994141 a 1.50015,1.50015 0 0 0 0.199219,0.738282 c 0.161786,0.415053 0.388698,0.761271 0.626953,0.996093 a 1.50015,1.50015 0 0 0 0.06445,0.0586 l 0.158204,0.140622 -8.0039069,13.822266 c 1.7464619,1.375428 3.6845829,2.508117 5.7773439,3.351564 l 3.029297,-5.232423 c 2.030819,0.832083 4.208234,1.382814 6.533203,1.382814 1.75913,0 3.601058,-0.313101 5.367188,-0.791016 l 2.683593,4.634766 c 2.093508,-0.846231 4.031133,-1.98456 5.777343,-3.363282 l -2.478516,-4.277343 c 0.450531,-0.347316 0.917661,-0.652197 1.335939,-1.060548 l 0.0059,-0.0059 c 3.248763,-3.153897 5.267577,-7.67157 5.267577,-12.533202 a 1.50015,1.50015 0 0 0 -1.488279,-1.5 c -1.282203,-0.0125 -2.614617,2.34e-4 -3.708984,-0.01172 a 1.50015,1.50015 0 0 0 -1.51758,1.5 c -0.0012,4.601235 -1.015278,4.984476 -2.876952,7.154298 -0.139848,0.160263 -0.342744,0.293208 -0.498048,0.445314 l -2.033202,-3.515628 0.158202,-0.140622 a 1.50015,1.50015 0 0 0 0.06445,-0.0586 c 0.147057,-0.144963 0.140607,-0.391566 0.257814,-0.5625 a 1.50015,1.50015 0 0 0 0.568359,-1.171875 v -5.970702 a 1.50015,1.50015 0 0 0 0,-0.02344 c -0.03157,-2.007222 -1.656111,-3.668007 -3.679686,-3.744138 v -2.179689 -0.01758 a 1.50015,1.50015 0 0 0 -1.500001,-1.5 h -2.466797 z m 1.142578,19.59375 c 0.151272,0.07419 0.29256,0.139377 0.451172,0.1875 l -0.05273,0.02344 0.02344,0.01758 a 1.50015,1.50015 0 0 0 0.878906,0.304686 1.50015,1.50015 0 0 0 0.0059,0 1.50015,1.50015 0 0 0 0.01758,0 h 0.0059 a 1.50015,1.50015 0 0 0 0.492187,-0.09375 c 0.310344,-0.04937 0.605797,-0.134664 0.896485,-0.28125 l 1.142578,1.974609 c -0.623189,0.09167 -1.27064,0.275391 -1.822265,0.275391 -1.098104,0 -2.129364,-0.231864 -3.117188,-0.556641 z"
       style="opacity:0.4;fill:#0b6926;fill-opacity:1;stroke:none;stroke-width:4.55555582;stroke-linecap:round;stroke-linejoin:round;stroke-miterlimit:4;stroke-dasharray:none;stroke-opacity:1" />
    <path
       inkscape:connector-curvature="0"
       id="circle28-3-2"
       d="m 20.856412,57.05085 v 0.01758 3.650391 H 19.46774 c -1.256754,0 -2.291016,1.03422 -2.291016,2.273436 v 5.994141 h 0.01758 c -0.01995,0.196767 0.103919,0.412344 0.363281,0.667971 l 1.083985,0.955077 -8.7011721,15.029295 c 1.0068141,0.694587 2.0762111,1.299849 3.1875001,1.833987 l 3.732422,-6.451173 c 2.161163,1.105344 4.60486,1.722657 7.201172,1.722657 1.980586,0 4.176438,-0.358797 6.105468,-1.013673 l 3.322266,5.742189 c 1.113018,-0.53466 2.185104,-1.138407 3.193359,-1.833987 L 33.46579,80.084055 c 0.797448,-0.533883 1.561341,-1.113945 2.238279,-1.775391 2.957184,-2.86989 4.816407,-7.016661 4.816407,-11.460936 -1.261737,-0.01224 -2.595996,5.19e-4 -3.714843,-0.01172 -0.0013,4.899447 -1.462695,6.061056 -3.240234,8.132814 -0.595857,0.684774 -1.285407,1.270239 -2.015625,1.804686 l -3.568362,-6.164061 1.083987,-0.955077 c 0.259335,-0.255633 0.35742,-0.490905 0.35742,-0.667971 h 0.02344 v -5.970702 c -0.01995,-1.258797 -1.03776,-2.296875 -2.314455,-2.296875 h -1.365233 v -3.650391 -0.01758 h -2.466797 z m 0.597656,16.037109 0.708984,0.621093 c 0.319179,0.314727 0.737755,0.46875 1.136719,0.46875 v -0.01758 l 0.02344,0.01758 c 0.418917,0 0.837492,-0.154023 1.136719,-0.46875 l 0.708985,-0.621093 3.08203,5.32617 c -1.370049,0.403419 -2.887164,0.638673 -4.21289,0.638673 -1.916008,0 -3.717667,-0.479052 -5.296875,-1.283202 z"
       style="opacity:0.6;fill:#0b6926;fill-opacity:1;stroke:none;stroke-width:4.55555582;stroke-linecap:round;stroke-linejoin:round;stroke-miterlimit:4;stroke-dasharray:none;stroke-opacity:1" />
  </g>
  <path
     style="opacity:0.5;fill:none;fill-opacity:1;stroke:url(#linearGradient954);stroke-width:3;stroke-linecap:round;stroke-linejoin:round;stroke-miterlimit:4;stroke-dasharray:none;stroke-opacity:1"
     d="M 43.025391,23.525309 C 43.025391,12.961215 34.524381,4.4413244 24,4.4413244 c -10.524381,0 -19.0254001,8.5198936 -19.0253911,19.0839846 0,10.564086 8.5010131,19.083996 19.0253911,19.083984 10.524381,0 19.025391,-8.519898 19.025391,-19.083984 z"
     id="circle28-5"
     inkscape:connector-curvature="0" />
  <path
     inkscape:connector-curvature="0"
     d="m 45.005788,23.524497 c 0,11.571707 -9.405304,20.952495 -21.005522,20.952495 -11.601279,0 -21.0060539,-9.380894 -21.0060539,-20.952495 0,-11.571172 9.4047749,-20.9510101 21.0060539,-20.9510101 11.600218,0 21.005522,9.3798381 21.005522,20.9510101 z"
     id="path8655"
     style="color:#000000;display:inline;overflow:visible;visibility:visible;opacity:0.5;fill:none;stroke:url(#linearGradient3019);stroke-width:0;stroke-linecap:round;stroke-linejoin:round;stroke-miterlimit:4;stroke-dasharray:none;stroke-dashoffset:0;stroke-opacity:1;marker:none;enable-background:accumulate" />
  <path
     d="m 24.000003,1.499034 c -12.184642,0 -22.083011,9.872902 -22.083011,22.026202 0,12.1533 9.898369,22.026208 22.083011,22.026205 12.184637,0 22.083017,-9.872905 22.083005,-22.026205 0,-12.1533 -9.898368,-22.026202 -22.083005,-22.026202 z"
     id="path2555-6"
     style="color:#000000;clip-rule:nonzero;display:inline;overflow:visible;visibility:visible;opacity:0.5;isolation:auto;mix-blend-mode:normal;color-interpolation:sRGB;color-interpolation-filters:linearRGB;solid-color:#000000;solid-opacity:1;fill:none;fill-opacity:1;fill-rule:nonzero;stroke:#0b6926;stroke-width:3;stroke-linecap:round;stroke-linejoin:round;stroke-miterlimit:4;stroke-dasharray:none;stroke-dashoffset:0;stroke-opacity:1;marker:none;color-rendering:auto;image-rendering:auto;shape-rendering:auto;text-rendering:auto;enable-background:accumulate"
     inkscape:connector-curvature="0" />
  <path
     inkscape:connector-curvature="0"
     id="path34"
     style="opacity:1;fill:#dcdcdc;fill-opacity:1;stroke:none;stroke-width:4.55555582;stroke-linecap:round;stroke-linejoin:round;stroke-miterlimit:4;stroke-dasharray:none;stroke-opacity:1"
     d="m 23.138858,15.289146 -3.187408,1.835517 16.562317,28.613016 3.433893,2.261357 -0.246485,-4.096874 z" />
  <path
     inkscape:connector-curvature="0"
     id="path36"
     d="m 37.495173,21.067965 c 0,4.904868 -1.461337,6.068342 -3.239657,8.141007 -0.91912,1.056279 -1.998095,1.953112 -3.236914,2.630663 -1.678408,0.936726 -4.230183,1.454953 -6.288233,1.454953 -2.058038,0 -3.996202,-0.538173 -5.654624,-1.454953 -1.209912,-0.97209 -3.66358,2.698943 -2.038066,3.180217 2.277838,1.275561 4.915334,1.966082 7.712675,1.966082 2.797341,0 6.04846,-0.690521 8.326285,-1.966082 1.218847,-0.677551 2.337781,-1.514547 3.316856,-2.471219 2.957185,-2.869891 4.81542,-7.016079 4.81542,-11.460355 -1.261736,-0.01224 -2.594893,0 -3.713742,-0.01224 z"
     style="fill:#c3c3c3;fill-opacity:1;stroke-width:1.13888896" />
  <path
     inkscape:connector-curvature="0"
     id="path38"
     d="m 24.859965,15.289146 3.187408,1.835517 -16.562318,28.613016 -3.4338933,2.261357 0.2464856,-4.096874 z"
     style="opacity:1;fill:#c3c3c3;fill-opacity:1;stroke:none;stroke-width:4.55555582;stroke-linecap:round;stroke-linejoin:round;stroke-miterlimit:4;stroke-dasharray:none;stroke-opacity:1" />
  <path
     inkscape:connector-curvature="0"
     id="path40"
     d="m 27.82012,14.959732 h -1.366451 v -3.6517 -0.01958 h -2.463657 -2.443678 v 0.01958 3.6517 h -1.386417 c -1.256754,0 -2.294079,1.035844 -2.294079,2.275062 v 5.990515 h 0.01996 c -0.01996,0.196767 0.09971,0.413237 0.359074,0.668863 l 4.608085,4.053923 c 0.319179,0.314729 0.738098,0.472094 1.137063,0.472094 v -0.01958 l 0.01996,0.01958 c 0.418916,0 0.837835,-0.157365 1.137062,-0.472094 l 4.608086,-4.053923 c 0.259335,-0.255626 0.359073,-0.491797 0.359073,-0.668863 h 0.01996 v -5.970814 c -0.01996,-1.258798 -1.037325,-2.294763 -2.314019,-2.294763 z"
     style="fill:url(#linearGradient4204);fill-opacity:1;stroke-width:1.13888896" />
  <path
     inkscape:connector-curvature="0"
     id="path42"
     d="m 24.008007,22.301799 h -0.016 v 0 c -1.342722,0 -2.445673,-1.089317 -2.445673,-2.43108 0,-1.341886 1.102951,-2.431204 2.445673,-2.431204 V 17.4077 l 0.016,0.03182 c 1.342722,0.01591 2.445664,1.089318 2.445664,2.431204 0,1.341763 -1.102942,2.415295 -2.445664,2.43108 z"
     style="fill:url(#radialGradient4191);fill-opacity:1;stroke-width:1.13888896" />
  <path
     style="opacity:0.6;fill:#000000;fill-opacity:1;stroke-width:1.13888896"
     d="m 25.897145,21.417307 c -0.449736,0.548352 -1.111071,0.922659 -1.875,0.931641 h -0.01173 c -0.76567,0 -1.425317,-0.37839 -1.875,-0.931641 -0.339419,0.417138 -0.574219,0.922821 -0.574219,1.5 0,1.341762 1.106496,2.431641 2.449219,2.431641 h 0.01173 c 1.342722,-0.0159 2.449219,-1.089879 2.449219,-2.431641 0,-0.578433 -0.233475,-1.084536 -0.574219,-1.5 z"
     id="path42-2"
     inkscape:connector-curvature="0" />
  <path
     style="opacity:0.4;fill:#000000;fill-opacity:1;stroke:none;stroke-width:4.55555582;stroke-linecap:round;stroke-linejoin:round;stroke-miterlimit:4;stroke-dasharray:none;stroke-opacity:1"
     d="m 19.326806,24.835621 -1.142577,1.974609 c 0.0243,0.0261 0.0312,0.04917 0.05859,0.07617 l 2.748048,2.414061 1.148436,-1.992186 z m 9.345705,0 -2.818362,2.478516 1.154298,1.992189 2.748048,-2.419923 c 0.0273,-0.027 0.03477,-0.04971 0.05859,-0.07617 z"
     id="path34-3"
     inkscape:connector-curvature="0"
     sodipodi:nodetypes="cccccccccccc" />
  <path
     style="opacity:0.4;fill:#000000;fill-opacity:1;stroke:none;stroke-width:4.55555582;stroke-linecap:round;stroke-linejoin:round;stroke-miterlimit:4;stroke-dasharray:none;stroke-opacity:1"
     d="m 34.151134,34.327446 c -0.355866,0.23847 -0.701994,0.488178 -1.078122,0.697266 -0.663177,0.371373 -1.421901,0.674157 -2.214846,0.943359 l 1.394532,2.419923 c 0.27132,-0.12561 0.570525,-0.22926 0.820314,-0.369141 0.821499,-0.456669 1.572654,-1.009827 2.291013,-1.599609 z"
     id="path34-5"
     inkscape:connector-curvature="0" />
</svg>
