<?xml version="1.0" encoding="UTF-8" standalone="no"?>
<svg
   xmlns:osb="http://www.openswatchbook.org/uri/2009/osb"
   xmlns:dc="http://purl.org/dc/elements/1.1/"
   xmlns:cc="http://creativecommons.org/ns#"
   xmlns:rdf="http://www.w3.org/1999/02/22-rdf-syntax-ns#"
   xmlns:svg="http://www.w3.org/2000/svg"
   xmlns="http://www.w3.org/2000/svg"
   xmlns:xlink="http://www.w3.org/1999/xlink"
   xmlns:sodipodi="http://sodipodi.sourceforge.net/DTD/sodipodi-0.dtd"
   xmlns:inkscape="http://www.inkscape.org/namespaces/inkscape"
   id="svg4031"
   height="16"
   width="16"
   version="1.1"
   inkscape:version="0.91 r13725"
   sodipodi:docname="firefox_16.svg">
  <sodipodi:namedview
     pagecolor="#ffffff"
     bordercolor="#666666"
     borderopacity="1"
     objecttolerance="10"
     gridtolerance="10"
     guidetolerance="10"
     inkscape:pageopacity="0"
     inkscape:pageshadow="2"
     inkscape:window-width="1366"
     inkscape:window-height="705"
     id="namedview37"
     showgrid="false"
     inkscape:zoom="32"
     inkscape:cx="5.089064"
     inkscape:cy="8.3545678"
     inkscape:window-x="0"
     inkscape:window-y="30"
     inkscape:window-maximized="1"
     inkscape:current-layer="svg4031" />
  <defs
     id="defs4033">
    <linearGradient
       id="linearGradient4424">
      <stop
         offset="0"
         style="stop-color:#ffffff;stop-opacity:1"
         id="stop4426" />
      <stop
         offset="0.41302004"
         style="stop-color:#ffffff;stop-opacity:0.23529412"
         id="stop4428" />
      <stop
         offset="0.85573757"
         style="stop-color:#ffffff;stop-opacity:0.15686275"
         id="stop4430" />
      <stop
         offset="1"
         style="stop-color:#ffffff;stop-opacity:0.39215687"
         id="stop4432" />
    </linearGradient>
    <linearGradient
       id="linearGradient4322">
      <stop
         offset="0"
         style="stop-color:#ffffff;stop-opacity:1"
         id="stop4324" />
      <stop
         offset="0.4760069"
         style="stop-color:#ffffff;stop-opacity:0.23529412"
         id="stop4326" />
      <stop
         offset="0.84599608"
         style="stop-color:#ffffff;stop-opacity:0.15686275"
         id="stop4328" />
      <stop
         offset="1"
         style="stop-color:#ffffff;stop-opacity:0.39215687"
         id="stop4330" />
    </linearGradient>
    <linearGradient
       id="linearGradient4211">
      <stop
         offset="0"
         style="stop-color:#ffffff;stop-opacity:1"
         id="stop4213" />
      <stop
         offset="0.48019233"
         style="stop-color:#ffffff;stop-opacity:0.23529412"
         id="stop4215" />
      <stop
         offset="0.85520977"
         style="stop-color:#ffffff;stop-opacity:0.15686275"
         id="stop4217" />
      <stop
         offset="1"
         style="stop-color:#ffffff;stop-opacity:0.39215687"
         id="stop4219" />
    </linearGradient>
    <linearGradient
       inkscape:collect="always"
       id="linearGradient4268">
      <stop
         style="stop-color:#ff780a;stop-opacity:1"
         offset="0"
         id="stop4270" />
      <stop
         style="stop-color:#ffbe3c;stop-opacity:1"
         offset="1"
         id="stop4272" />
    </linearGradient>
    <linearGradient
       id="linearGradient4250">
      <stop
         id="stop4252"
         offset="0"
         style="stop-color:#0d52bf;stop-opacity:1" />
      <stop
         id="stop4258"
         offset="1"
         style="stop-color:#64baff;stop-opacity:1" />
    </linearGradient>
    <linearGradient
       id="linearGradient2867-449-88-871-390-598-476-591-434-148-57-177-3-8">
      <stop
         offset="0"
         style="stop-color:#90dbec;stop-opacity:1"
         id="stop3750-8-9" />
      <stop
         offset="0.26238"
         style="stop-color:#42baea;stop-opacity:1"
         id="stop3752-3-2" />
      <stop
         offset="0.704952"
         style="stop-color:#3689e6;stop-opacity:1"
         id="stop3754-7-2" />
      <stop
         offset="1"
         style="stop-color:#2b63a0;stop-opacity:1"
         id="stop3756-9-3" />
    </linearGradient>
    <linearGradient
       id="linearGradient3820-7-2-1">
      <stop
         offset="0"
         style="stop-color:#3d3d3d;stop-opacity:1"
         id="stop3822-2-6-3" />
      <stop
         offset="0.5"
         style="stop-color:#686868;stop-opacity:0.49803922"
         id="stop3864-8-7-7" />
      <stop
         offset="1"
         style="stop-color:#686868;stop-opacity:0"
         id="stop3824-1-2-5" />
    </linearGradient>
    <radialGradient
       gradientTransform="matrix(0,2.4988347,-2.6434689,-6.8014435e-8,46.336814,-12.180468)"
       gradientUnits="userSpaceOnUse"
       xlink:href="#linearGradient2867-449-88-871-390-598-476-591-434-148-57-177-3-8"
       id="radialGradient3015"
       fy="8.4497671"
       fx="3.9722471"
       r="19.99999"
       cy="8.4497671"
       cx="3.9722471" />
    <radialGradient
       gradientTransform="matrix(0.27083381,0,0,0.08762273,-2.855072,25.187228)"
       gradientUnits="userSpaceOnUse"
       xlink:href="#linearGradient3820-7-2-1"
       id="radialGradient3018"
       fy="186.17059"
       fx="99.157013"
       r="62.769119"
       cy="186.17059"
       cx="99.157013" />
    <linearGradient
       gradientTransform="matrix(1.6169806,0,0,1.6169806,-92.70737,-21.060237)"
       gradientUnits="userSpaceOnUse"
       xlink:href="#linearGradient4806-2"
       id="linearGradient4338-5-6"
       y2="40.495617"
       x2="71.204407"
       y1="15.369057"
       x1="71.204407" />
    <linearGradient
       id="linearGradient4806-2">
      <stop
         offset="0"
         style="stop-color:#ffffff;stop-opacity:1"
         id="stop4808-4" />
      <stop
         offset="0.42447853"
         style="stop-color:#ffffff;stop-opacity:0.23529412"
         id="stop4810-0" />
      <stop
         offset="0.82089913"
         style="stop-color:#ffffff;stop-opacity:0.15686275"
         id="stop4812-8" />
      <stop
         offset="1"
         style="stop-color:#ffffff;stop-opacity:0.39215687"
         id="stop4814-0" />
    </linearGradient>
    <radialGradient
       gradientTransform="matrix(0,3.9153034,-3.0928272,-4.4454166e-8,49.977542,-1.450216)"
       gradientUnits="userSpaceOnUse"
       xlink:href="#linearGradient4223"
       id="radialGradient3126-7-25-24"
       fy="8.449769"
       fx="0.66680855"
       r="19.99999"
       cy="8.449769"
       cx="-1.2645766" />
    <linearGradient
       id="linearGradient4526"
       osb:paint="solid">
      <stop
         style="stop-color:#ffffff;stop-opacity:1;"
         offset="0"
         id="stop4528" />
    </linearGradient>
    <linearGradient
       id="linearGradient4223">
      <stop
         offset="0"
         style="stop-color:#cdf87e;stop-opacity:1"
         id="stop4225" />
      <stop
         offset="0.26238"
         style="stop-color:#a2e34f;stop-opacity:1"
         id="stop4227" />
      <stop
         offset="0.66093999"
         style="stop-color:#68b723;stop-opacity:1"
         id="stop4229" />
      <stop
         offset="1"
         style="stop-color:#1d7e0d;stop-opacity:1"
         id="stop4231" />
    </linearGradient>
    <linearGradient
       id="linearGradient4029-0">
      <stop
         style="stop-color:#87accd;stop-opacity:1;"
         offset="0"
         id="stop4031-7" />
      <stop
         id="stop4062-3-8"
         offset="0.28728491"
         style="stop-color:#6b96c1;stop-opacity:1;" />
      <stop
         id="stop4060-0-2"
         offset="0.59072286"
         style="stop-color:#477ba9;stop-opacity:1;" />
      <stop
         style="stop-color:#325978;stop-opacity:1;"
         offset="1"
         id="stop4033-0" />
    </linearGradient>
    <linearGradient
       id="linearGradient4037-1">
      <stop
         style="stop-color:#e67263;stop-opacity:1;"
         offset="0"
         id="stop4039-4" />
      <stop
         style="stop-color:#dc252a;stop-opacity:1;"
         offset="1"
         id="stop4041-6" />
    </linearGradient>
    <linearGradient
       id="linearGradient4064-1">
      <stop
         style="stop-color:#f0d550;stop-opacity:1;"
         offset="0"
         id="stop4066-2" />
      <stop
         style="stop-color:#dca023;stop-opacity:1;"
         offset="1"
         id="stop4068-8" />
    </linearGradient>
    <linearGradient
       id="linearGradient4072-7">
      <stop
         style="stop-color:#50b54c;stop-opacity:1;"
         offset="0"
         id="stop4074-1" />
      <stop
         style="stop-color:#32783b;stop-opacity:1;"
         offset="1"
         id="stop4076-0" />
    </linearGradient>
    <linearGradient
       inkscape:collect="always"
       xlink:href="#linearGradient4250"
       id="linearGradient4248"
       x1="-36.789829"
       y1="23.871187"
       x2="2.01017"
       y2="23.871187"
       gradientUnits="userSpaceOnUse"
       gradientTransform="matrix(0.32809922,0,0,0.33693375,-2.8065316,-0.22030589)" />
    <linearGradient
       id="c"
       y2="40.495998"
       gradientUnits="userSpaceOnUse"
       x2="71.204002"
       gradientTransform="matrix(1.4614589,0,0,1.4614589,-129.26231,-15.45283)"
       y1="15.369"
       x1="71.204002">
      <stop
         stop-color="#fff"
         offset="0"
         id="stop7" />
      <stop
         stop-color="#fff"
         stop-opacity=".23529"
         offset=".42448"
         id="stop9" />
      <stop
         stop-color="#fff"
         stop-opacity=".15686"
         offset=".82090"
         id="stop11" />
      <stop
         stop-color="#fff"
         stop-opacity=".39216"
         offset="1"
         id="stop13" />
    </linearGradient>
    <linearGradient
       inkscape:collect="always"
       xlink:href="#linearGradient3767"
       id="linearGradient3814"
       x1="26.386984"
       y1="3.548188"
       x2="26.386984"
       y2="60.501682"
       gradientUnits="userSpaceOnUse"
       gradientTransform="matrix(0.19874057,0,0,0.19348745,1.4417085,2.3205141)" />
    <linearGradient
       id="linearGradient3767">
      <stop
         style="stop-color:#ffffff;stop-opacity:1;"
         offset="0"
         id="stop3769" />
      <stop
         id="stop3777"
         offset="0.08994294"
         style="stop-color:#ffffff;stop-opacity:0.23529412;" />
      <stop
         id="stop3775"
         offset="0.87385589"
         style="stop-color:#ffffff;stop-opacity:0.15686275;" />
      <stop
         style="stop-color:#ffffff;stop-opacity:0.39215687;"
         offset="1"
         id="stop3771" />
    </linearGradient>
    <radialGradient
       gradientUnits="userSpaceOnUse"
       gradientTransform="matrix(1,0,0,0.32352941,-1.9644775e-7,-296.86717)"
       r="17"
       fy="1045.8622"
       fx="24"
       cy="1045.8622"
       cx="24"
       id="radialGradient4329"
       xlink:href="#linearGradient4323" />
    <linearGradient
       id="linearGradient4323">
      <stop
         id="stop4325"
         offset="0"
         style="stop-color:#000000;stop-opacity:1;" />
      <stop
         id="stop4327"
         offset="1"
         style="stop-color:#000000;stop-opacity:0;" />
    </linearGradient>
    <linearGradient
       inkscape:collect="always"
       xlink:href="#linearGradient4268"
       id="linearGradient4274-2-0"
       x1="-32.915249"
       y1="35.796612"
       x2="-0.23728631"
       y2="15.355933"
       gradientUnits="userSpaceOnUse"
       gradientTransform="matrix(0.36682744,0,0,0.35714376,14.379102,0.04578884)" />
    <linearGradient
       x1="23.99999"
       y1="4.999989"
       x2="23.99999"
       y2="43"
       id="linearGradient3058"
       xlink:href="#linearGradient3924-1"
       gradientUnits="userSpaceOnUse"
       gradientTransform="translate(-1.2203471,7.5254347)" />
    <linearGradient
       id="linearGradient3924-1">
      <stop
         id="stop3926-3"
         style="stop-color:#ffffff;stop-opacity:1"
         offset="0" />
      <stop
         id="stop3928-91"
         style="stop-color:#ffffff;stop-opacity:0.23529412"
         offset="0.06316455" />
      <stop
         id="stop3930-6"
         style="stop-color:#ffffff;stop-opacity:0.15686275"
         offset="0.95056331" />
      <stop
         id="stop3932-6"
         style="stop-color:#ffffff;stop-opacity:0.39215687"
         offset="1" />
    </linearGradient>
    <linearGradient
       inkscape:collect="always"
       xlink:href="#linearGradient4424"
       id="linearGradient4274-2-0-6"
       x1="-17.373749"
       y1="3.8708215"
       x2="-17.585938"
       y2="41.713272"
       gradientUnits="userSpaceOnUse"
       gradientTransform="matrix(0.36682744,0,0,0.35714376,14.378903,0.0448834)" />
  </defs>
  <metadata
     id="metadata4036">
    <rdf:RDF>
      <cc:Work
         rdf:about="">
        <dc:format>image/svg+xml</dc:format>
        <dc:type
           rdf:resource="http://purl.org/dc/dcmitype/StillImage" />
        <dc:title />
      </cc:Work>
    </rdf:RDF>
  </metadata>
  <g
     id="g4227"
     transform="translate(0.17729855,0)">
    <rect
       transform="matrix(0,-1,1,0,0,0)"
       style="fill:url(#linearGradient4248);fill-opacity:1;stroke-width:2.79999995;stroke-opacity:0.55"
       id="rect4"
       rx="6.3651247"
       y="1.2861868"
       x="-14.877248"
       height="13.07303"
       width="12.730249" />
    <rect
       transform="matrix(0,-1,1,0,0,0)"
       style="opacity:0.7;fill:none;fill-opacity:1;stroke:#0d52bf;stroke-width:1;stroke-miterlimit:4;stroke-dasharray:none;stroke-opacity:1"
       id="rect4-5"
       rx="6.3609023"
       y="1.2905231"
       x="-14.873026"
       height="13.064357"
       width="12.721805" />
    <ellipse
       ry="5.4176483"
       rx="5.5647354"
       cy="8.5121231"
       cx="7.8227019"
       style="opacity:0.5;fill:none;fill-opacity:1;stroke:url(#linearGradient3814);stroke-width:1;stroke-miterlimit:4;stroke-dasharray:none;stroke-opacity:1"
       id="path3804" />
  </g>
  <path
     inkscape:connector-curvature="0"
     style="fill:url(#linearGradient4274-2-0);fill-opacity:1"
     d="m 10.577858,0.4997853 -0.08741,0.1060268 c -0.01504,0.0181803 -0.02977,0.0366468 -0.04514,0.0558042 C 10.10585,1.0999958 9.9128827,1.5951851 9.7100267,2.1271612 9.6326957,2.3312618 9.5507158,2.6390664 9.5051191,2.8951598 c -0.045704,0.2567979 -0.049718,0.8273743 -0.00721,1.0519001 0.1124695,0.5947733 0.3697296,1.1552285 0.7472679,1.629469 0.437625,0.4639255 0.913361,0.9752841 1.090648,1.3483566 0.243757,0.5132976 0.346767,0.970231 0.346767,1.5380898 0,0.171168 -0.01003,0.347117 -0.02507,0.4520101 -0.369502,1.6821356 -1.592917,3.0043836 -3.3099428,3.0133986 -1.0869197,0.004 -2.5485479,-0.357143 -2.745573,-1.450225 0.523545,0.07763 0.9160452,0.04985 1.2899898,0.04727 0.3455595,-0.0024 0.6752734,-0.07465 1.0779094,-0.282643 C 8.5698108,9.9309191 8.8667844,9.873401 9.0309396,9.8919188 9.2728255,9.9192059 9.3033157,9.918652 9.3562127,9.8863798 9.4683884,9.8178538 9.5005581,9.7903473 9.435738,9.65998 9.3538925,9.4953467 9.0667714,9.2655012 8.8260226,9.1716542 8.6243769,9.0930431 8.5145444,9.0734426 8.2729155,9.0733005 8.0268479,9.0731647 7.8181548,9.084671 7.3745135,9.2156002 6.9316434,9.3463181 6.6861642,9.3659542 6.4130241,9.291633 5.2770306,9.026918 4.7002217,8.0447239 5.2531772,7.3269478 5.5857434,7.3120209 6.2612174,7.5298016 6.4717782,7.6698374 6.6732399,7.4770837 6.2359802,7.1805237 6.1658445,6.9095121 c 0,-0.3382805 0.7079615,-0.535203 0.9987468,-0.662669 C 7.3561481,6.1631436 7.5429224,6.077231 7.579421,6.0564133 7.6587269,6.0111488 7.8116362,5.8666458 7.8738863,5.7780925 7.9688589,5.6429063 8.031225,5.3925659 7.992819,5.3023655 7.9446167,5.1890045 7.6203793,5.1184552 6.8357364,5.0505512 6.5395958,5.0249101 6.3370137,4.893095 6.1808926,4.6250479 5.9073835,4.0093276 6.8760081,3.4236441 7.2226252,3.1134647 6.67132,2.8205064 5.6465856,3.3344205 5.3182743,3.6345313 c -0.1051691,0.101326 -0.073024,0.099772 -0.3919034,0.018135 -0.021279,-0.00547 -0.043321,-0.010273 -0.065917,-0.015345 -0.00805,-0.0018 -0.016294,-0.00387 -0.024362,-0.00558 -0.014674,-0.00319 -0.0301,-0.0061 -0.04514,-0.00907 -0.01064,-0.00213 -0.021237,-0.00424 -0.032243,-0.00628 -0.012469,-0.00213 -0.024707,-0.0048 -0.037249,-0.00698 -0.0132,-0.00213 -0.026129,-0.00414 -0.039402,-0.00628 -0.00951,-0.00143 -0.019126,-0.00264 -0.028658,-0.00419 -0.084449,-0.012971 -0.1726625,-0.024088 -0.2615084,-0.03209 -0.097168,-0.00872 -0.1946056,-0.014528 -0.2887337,-0.016739 -0.02824,-7.334e-4 -0.056386,-7.334e-4 -0.083821,-7.334e-4 -0.029714,-6.05e-5 -0.058298,-3.77e-5 -0.086695,7.334e-4 -0.00554,1.393e-4 -0.010974,3.402e-4 -0.016482,6.966e-4 -0.02385,6.968e-4 -0.047356,0.00172 -0.070213,0.00279 -0.00366,1.752e-4 -0.00638,3.398e-4 -0.0093,6.966e-4 -0.025313,0.00143 -0.049488,0.00338 -0.073077,0.00558 -0.00366,1.822e-4 -0.00387,3.403e-4 -0.00575,6.967e-4 -0.024216,0.00212 -0.046697,0.00537 -0.068781,0.00837 l -7.149e-4,0 c -0.00993,0.00143 -0.020558,0.00257 -0.03009,0.00419 C 3.5531371,3.5728024 3.4567587,3.6017951 3.374516,3.6387126 3.0985195,3.1849182 3.0315987,2.3827563 2.8171144,1.9283124 2.3154412,2.1842809 1.9717944,3.4422649 1.8864329,3.8709983 c -0.03265,0.1704899 -0.070025,0.5015559 -0.070213,0.6187241 -3.35e-5,0.016863 -0.00439,0.023438 -0.00502,0.035575 -0.72483,1.1075099 -1.14774502,2.4210111 -1.14774502,3.831602 0,3.9449006 3.28468442,7.1428746 7.33654842,7.1428746 4.0518637,0 7.3365467,-3.197974 7.3365467,-7.1428746 0,-2.5000057 -1.149902,-3.7844785 -2.288371,-5.5392164 0,-0.00105 8.5e-5,-0.0017 -0.0036,-0.00279 C 12.876766,2.570587 12.73156,2.3023883 12.61396,2.0364348 c -0.01834,-0.058629 -0.04011,-0.1067249 -0.048,-0.1067249 -0.0037,0 -0.0071,0.0023 -0.01147,0.00628 C 12.406592,2.1100908 12.335068,2.788098 12.255759,2.9997477 11.683144,2.2275332 10.973256,1.4599118 10.599316,0.60437355 Z"
     id="path10-3-6" />
  <path
     inkscape:connector-curvature="0"
     style="opacity:0.7;fill:none;fill-opacity:1;stroke:#f37329;stroke-width:1;stroke-linejoin:round;stroke-opacity:1"
     d="m 10.577865,0.49994384 -0.08741,0.10602722 c -0.01504,0.0181771 -0.02976,0.0366468 -0.04514,0.0558032 C 10.105859,1.1001544 9.912891,1.5953437 9.7100351,2.1273199 9.6327046,2.3314204 9.5507242,2.6392247 9.5051275,2.8953183 c -0.045704,0.2567978 -0.049718,0.8273743 -0.00721,1.0518993 0.1124694,0.5947737 0.3697285,1.1552289 0.7472665,1.629469 0.437626,0.4639264 0.913362,0.9752845 1.09065,1.348357 0.243758,0.5132975 0.346767,0.9702314 0.346767,1.5380897 0,0.1711684 -0.01003,0.3471171 -0.02507,0.4520101 -0.369501,1.6821356 -1.592917,3.0043846 -3.3099435,3.0134006 -1.0869196,0.004 -2.5485479,-0.357144 -2.745573,-1.450227 0.5235451,0.07763 0.9160453,0.04985 1.2899899,0.04727 0.3455549,-0.0024 0.6752689,-0.07465 1.0779049,-0.282643 0.5999098,-0.311865 0.8968835,-0.3693831 1.0610386,-0.3508653 0.241886,0.027287 0.2723761,0.026733 0.3252732,-0.00554 0.1121757,-0.068526 0.1443454,-0.096032 0.079525,-0.226401 C 9.3539008,9.4955047 9.0667798,9.2656589 8.826031,9.1718119 8.6243853,9.0932008 8.5145528,9.0736014 8.2729239,9.0734582 8.0268563,9.0733225 7.8181632,9.0848287 7.3745218,9.2157582 6.9316518,9.3464758 6.6861726,9.3661124 6.4130325,9.29179 5.277039,9.0270749 4.7002301,8.0448812 5.2531856,7.3271043 5.5857517,7.3121774 6.2612258,7.5299584 6.4717866,7.6699944 6.6732483,7.4772406 6.2359886,7.180681 6.1658529,6.909669 6.1658529,6.5713881 6.8738143,6.3744656 7.1645996,6.247 7.3561565,6.1632994 7.5429307,6.0773878 7.5794294,6.0565699 7.6587352,6.0113064 7.8116436,5.8668027 7.8738947,5.778249 7.9688673,5.6430632 8.0312334,5.3927225 7.9928263,5.3025224 7.944624,5.1891613 7.6203877,5.1186117 6.8357437,5.050708 6.5396041,5.025067 6.337022,4.8932515 6.1808999,4.6252048 5.9073919,4.0094845 6.8760164,3.4238009 7.2226325,3.1136223 6.6713273,2.8206638 5.6465929,3.3345781 5.3182826,3.6346889 c -0.1051701,0.1013249 -0.073025,0.099772 -0.3919034,0.018135 -0.021279,-0.00546 -0.043321,-0.010273 -0.065918,-0.015345 -0.00805,-0.0018 -0.016294,-0.00387 -0.024362,-0.00558 -0.014674,-0.00319 -0.0301,-0.0061 -0.04514,-0.00907 -0.01064,-0.00213 -0.021237,-0.00424 -0.032243,-0.00628 -0.012469,-0.00212 -0.024707,-0.0048 -0.037249,-0.00698 -0.0132,-0.00213 -0.026129,-0.00414 -0.039402,-0.00628 -0.00951,-0.00143 -0.019126,-0.00264 -0.028658,-0.00419 -0.084448,-0.012952 -0.1726627,-0.024069 -0.2615086,-0.032075 -0.097167,-0.00872 -0.1946056,-0.014528 -0.2887337,-0.016739 -0.02824,-6.967e-4 -0.056386,-6.967e-4 -0.083821,-6.967e-4 -0.029714,-6.08e-5 -0.058298,-3.77e-5 -0.086695,6.967e-4 -0.00554,1.397e-4 -0.010974,3.403e-4 -0.016482,7.333e-4 -0.02385,6.968e-4 -0.047356,0.00172 -0.070213,0.00279 -0.00366,1.752e-4 -0.00638,3.398e-4 -0.0093,6.966e-4 -0.025313,0.00143 -0.049488,0.00338 -0.073077,0.00558 -0.00366,1.822e-4 -0.00387,3.402e-4 -0.00575,7.333e-4 -0.024216,0.00213 -0.046697,0.00537 -0.068781,0.00837 l -7.148e-4,0 c -0.00993,0.00143 -0.020558,0.00257 -0.03009,0.00419 C 3.5531454,3.573029 3.456766,3.6020207 3.3745233,3.6389383 3.0985195,3.1851435 3.0315997,2.3829819 2.8171155,1.928538 2.3154422,2.1845065 1.9717944,3.4424905 1.886434,3.8712235 1.853784,4.0417131 1.816409,4.3727794 1.816221,4.4899473 1.8161876,4.5068103 1.811831,4.5133853 1.811201,4.5255223 1.0863678,5.6330326 0.66345168,6.9465342 0.66345168,8.3571254 0.66345168,12.302026 3.9481361,15.5 8.0000011,15.5 c 4.0518629,0 7.3365469,-3.197974 7.3365469,-7.1428746 0,-2.4310596 -1.087352,-3.7127066 -2.194177,-5.3950742 -0.03139,-0.047713 -0.0628,-0.095749 -0.09419,-0.1441422 -0.183841,-0.2468015 -0.307363,-0.5470297 -0.434229,-0.7812522 -0.01834,-0.058629 -0.04011,-0.1067253 -0.048,-0.1067253 -0.0037,0 -0.0071,0.0023 -0.01147,0.00628 -0.14788,0.1741038 -0.219405,0.8521108 -0.298713,1.0637609 -0.572614,-0.7722138 -1.2825,-1.5398352 -1.656441,-2.39537374 z"
     id="path10-3-5"
     sodipodi:nodetypes="ccccccccscccccsccccccccccccccccccccccccccccccccccccccccccssssccscccc" />
  <path
     style="opacity:0.5;fill:url(#linearGradient4274-2-0-6);fill-opacity:1"
     d="M 10.50965,1.5031829 C 10.36973,1.7691092 10.305516,1.9704543 10.178787,2.3027388 10.118987,2.460576 10.036733,2.760089 9.9971475,2.9824263 9.9729485,3.1184054 9.9766945,3.7867698 9.9893475,3.85352 10.08617,4.3655495 10.307414,4.8483439 10.631925,5.2578169 l 0.0039,0.00586 c 0.431979,0.4566196 0.907586,0.93025 1.152343,1.4453125 0.269668,0.5678567 0.394532,1.1255816 0.394532,1.7539063 0,0.1907008 -0.0075,0.3697457 -0.0293,0.5214843 -0.0021,0.012464 -0.0047,0.024842 -0.0078,0.037109 -0.40734,1.854397 -1.82246,3.395893 -3.7949217,3.40625 l -0.00195,0 c -0.599661,0.0022 -1.2875238,-0.08797 -1.9042968,-0.353516 -0.616772,-0.265545 -1.198887,-0.758307 -1.333984,-1.507812 -0.060999,-0.336449 0.2261245,-0.6335077 0.564453,-0.583984 0.470562,0.06977 0.818551,0.0457 1.214843,0.04297 0.277478,-0.0019 0.505155,-0.04893 0.8496098,-0.226563 0.318879,-0.165771 0.4597201,-0.138671 0.673828,-0.203125 -0.03815,-0.0031 -0.05978,-0.02339 -0.140625,-0.02344 -0.230326,-1.27e-4 -0.345418,0.0019 -0.7558589,0.123047 -0.473424,0.139736 -0.857841,0.174702 -1.222657,0.07813 -0.679279,-0.160173 -1.226083,-0.533119 -1.525397,-1.0410168 -0.300456,-0.5098343 -0.307171,-1.1981193 0.08789,-1.7109375 0.089973,-0.1173477 0.2272704,-0.1888566 0.375,-0.1953125 0.155853,-0.00699 0.294634,0.043515 0.439453,0.072266 0.0044,-0.253049 0.136053,-0.4557089 0.263672,-0.578125 C 6.0643874,6.1958779 6.1996194,6.118983 6.3311434,6.05274 6.5941924,5.9202543 6.8684954,5.8309101 6.9639554,5.7890682 l 0,-0.00195 c 0.0929,-0.040593 0.186083,-0.080331 0.257813,-0.1132812 0.07174,-0.032949 0.152845,-0.077529 0.109375,-0.052734 -0.0034,0.00197 0.00816,-0.00694 0.00586,-0.00586 C 7.3240554,5.613293 7.3028854,5.611313 7.2901284,5.609383 7.1546384,5.58892 7.0328384,5.569671 6.7920814,5.548836 6.3687464,5.512182 5.9640294,5.2459528 5.7491124,4.876961 5.7397591,4.8611634 5.731283,4.8448627 5.7237224,4.828133 5.5989234,4.5472635 5.6195014,4.2276806 5.7139524,3.9882893 c 0.0047,-0.012015 0.014531,-0.017564 0.019531,-0.029297 -0.01397,0.010637 -0.067572,0.03318 -0.076172,0.041016 l -0.00195,0.00195 c -0.01619,0.01667 -0.03001,0.037152 -0.09375,0.085937 -0.06999,0.053574 -0.224412,0.1179068 -0.335937,0.1230469 -0.223049,0.010281 -0.269039,-0.03459 -0.423828,-0.074219 -0.0093,-0.00238 -0.026352,-0.00624 -0.050782,-0.011719 -0.014079,-0.00315 -0.021978,-0.00484 -0.017578,-0.00391 l -0.00391,-0.00195 c -0.0052,-0.00114 -0.017246,-0.00232 -0.035156,-0.00586 l -0.00195,-0.00195 c -0.0071,-0.00142 -0.012278,-9.304e-4 -0.017578,-0.00195 -0.02781,-0.00473 -0.040563,-0.00807 -0.039063,-0.00781 -0.0083,-0.00132 -0.017254,-0.00229 -0.027344,-0.00391 -0.0014,-2.06e-4 -0.013646,-0.00236 -0.035156,-0.00586 -0.07409,-0.011292 -0.150752,-0.020512 -0.226562,-0.027344 -0.08722,-0.00783 -0.1741804,-0.013706 -0.2558604,-0.015625 -0.02005,-4.947e-4 -0.04484,0 -0.07226,0 -0.02646,-5.42e-5 -0.04743,-4.109e-4 -0.06641,0 -0.0059,4.186e-4 -0.0077,4.48e-5 -0.0059,0 l -0.01563,0.00195 c -0.01916,5.6e-4 -0.03883,9.392e-4 -0.06055,0.00195 l -0.0059,0 c -0.01514,8.56e-4 -0.03063,0.00245 -0.04687,0.00391 l -0.0078,0 -0.0078,0.00195 c -0.007,6.18e-4 -0.02011,0.00249 -0.04492,0.00586 -0.01187,0.0017 -0.02357,0.00364 -0.01367,0.00195 l -0.0039,0 c -0.027136,0.0042 -0.054572,0.00616 -0.08203,0.00586 -0.01213,-4.03e-5 -0.03979,0.00428 -0.07812,0.021484 C 3.3496632,4.1965136 3.0795609,4.1128907 2.948287,3.8984368 2.784148,3.6285674 2.717636,3.3431885 2.647506,3.0683587 2.516042,3.412263 2.412365,3.7929224 2.377975,3.964843 l 0,0.00391 c -0.02345,0.1252511 -0.06053,0.5091943 -0.06055,0.5214843 -2e-4,0.102931 -0.01072,0.1570605 -0.0059,0.058594 -0.00454,0.089162 -0.03286,0.1754835 -0.08203,0.25 -0.674438,1.0305082 -1.066406,2.2459877 -1.066406,3.5566406 0,3.6673541 3.049111,6.6445311 6.8378909,6.6445311 3.7887771,0 6.8359371,-2.977177 6.8359371,-6.6445311 0,-2.2871224 -1.00317,-3.4292605 -2.128906,-5.1425781 -0.161572,0.3412296 -0.628535,0.3871777 -0.853516,0.083984 C 11.450436,2.7518752 10.918247,2.1511075 10.50965,1.5031829 Z m 2.32734,1.7643996 c 8.5e-4,5.73e-4 0.0078,0.00587 0.0078,0.00586 -9.8e-5,-4.3e-5 0.0089,0.00283 0.01172,0.00391 -0.0066,-0.00311 -0.01309,-0.00637 -0.01952,-0.00977 z m -1.755859,0.6464844 c 0.299102,0.3813985 0.759558,0.5227049 1.210937,0.5117187 0.891324,1.3097078 1.544922,2.2384414 1.544922,3.9375 0,3.1134274 -2.571019,5.6445314 -5.8359367,5.6445314 -3.2649205,0 -5.8378909,-2.531458 -5.8378909,-5.6445314 0.113919,-1.291816 0.472888,-2.3389438 1.035156,-3.3046875 0.710649,-0.015001 0.501191,-0.018219 0.867188,-0.00391 l 0.002,0 c 0.4097004,0.042345 0.3853144,0.04347 0.7402344,0.095703 0.145181,0.225951 0.199167,0.3048744 0.384766,0.5625 -0.03273,0.034685 -0.034627,0.1131711 -0.066407,0.1523437 -0.414507,0.037951 -0.807468,0.2213766 -1.0625004,0.5527344 -0.662399,0.8598445 -0.653271,1.9866993 -0.15625,2.8300778 0.131193,0.222616 0.3393964,0.372624 0.5195324,0.550782 -0.173951,0.29338 -0.3660674,0.593038 -0.3007824,0.953125 C 4.3372058,11.91858 5.2288478,12.647332 6.0479758,13 c 0.788,0.339267 1.5988657,0.437793 2.3007808,0.435547 l 0.00195,0 0.00195,0 0.00195,0 c 2.4864734,-0.01304 4.2738404,-1.972811 4.7636714,-4.183593 0.0072,-0.03045 0.01426,-0.06095 0.01953,-0.0918 0.0021,-0.0091 0.004,-0.0182 0.0059,-0.02734 0.03295,-0.229386 0.03906,-0.4451906 0.03906,-0.6621098 0,-0.7608085 -0.164991,-1.4945947 -0.492187,-2.1835938 C 12.344529,5.5590472 11.820894,5.0654398 11.409256,4.63477 11.245201,4.4234613 11.161513,4.167076 11.081131,3.9140669 Z"
     id="path10-3-6-2"
     inkscape:connector-curvature="0"
     sodipodi:nodetypes="cccccccsccccsccccccscscccssccccccccccccccscccccccccccccccccccccccccccccccccssscccccccccssccccccccsccscccccccsccc" />
  <path
     id="path10-3-6-26"
     style="opacity:0.5;fill:#000000;fill-opacity:1"
     d="m 9.7285159,10.244141 c -0.050066,0.03778 -0.097547,0.05822 -0.1269531,0.07617 l 0,0.002 c -0.061803,0.03766 -0.232709,0.08805 -0.3359375,0.08985 -0.1032285,0.0018 -0.1829933,-0.0017 -0.3066406,-0.01563 0,0 -0.1798724,-0.0013 -0.7421875,0.291015 l -0.00195,0 C 7.75527,10.924954 7.3231955,11.03035 6.9101596,11.03325 c -0.049298,4e-4 -0.2322953,0.0068 -0.2851563,0.0078 0.066442,0.03736 0.1107675,0.07354 0.1894531,0.107418 0.4272151,0.226356 1.0283662,0.281096 1.5156251,0.279296 0.622907,-0.0033 1.1603692,-0.206632 1.6054688,-0.554687 0.013325,-0.08097 0.017694,-0.199915 0.00586,-0.259766 -0.018415,-0.09313 -0.047554,-0.1534 -0.074219,-0.207031 -0.041262,-0.083 -0.089839,-0.103261 -0.1386719,-0.162109 z M 5.539733,7.8579767 c -0.01072,0.104122 0.00594,0.233577 0.080074,0.359375 0.1337082,0.226886 0.4433851,0.474493 0.8964844,0.580079 0.00588,0.0012 0.011743,0.0025 0.017578,0.00391 0.121571,0.033074 0.2426554,0.027067 0.4140625,-0.00781 0.05334,-0.140265 0.072567,-0.295808 0.046875,-0.40625 -0.041816,-0.179783 -0.1161824,-0.27854 -0.1757768,-0.363288 -0.00382,-0.00543 -0.00287,-0.00368 -0.00586,-0.00781 -0.00225,0.00224 -0.00357,0.00563 -0.00586,0.00781 -0.1692485,0.161886 -0.4281832,0.184614 -0.6230456,0.054688 4.837e-4,3.2e-4 -0.222575,-0.104706 -0.4296875,-0.166016 C 5.701804,7.8970247 5.593086,7.8698967 5.539733,7.8579767 Z M 8.3327018,5.9588693 c -0.02007,0.036962 -0.033935,0.073449 -0.060547,0.111328 -0.136607,0.194325 -0.2181458,0.288611 -0.4550781,0.423828 a 0.50005,0.50005 0 0 0 -0.00195,0 c -0.079945,0.0456 -0.108831,0.055657 -0.1875,0.091797 -0.078672,0.036137 -0.1747816,0.079937 -0.2734406,0.123047 -0.1953308,0.085623 -0.4203558,0.157825 -0.5839844,0.240234 -0.00511,0.0026 -0.00484,0.00326 -0.00977,0.00586 0.028158,0.04333 0.019782,0.024888 0.058594,0.080078 0.059594,0.084748 0.1339603,0.183505 0.1757813,0.363281 0.031013,0.133313 0.00108,0.334263 -0.082031,0.492188 0.1422398,-0.05959 0.293758,-0.116919 0.4414063,-0.181641 0.098659,-0.04311 0.1947686,-0.08691 0.2734375,-0.123047 0.078669,-0.03614 0.1075553,-0.046197 0.1875,-0.091797 a 0.50005,0.50005 0 0 0 0.00195,0 c 0.2369392,-0.135217 0.318478,-0.229503 0.455085,-0.423828 0.1013473,-0.14426 0.1500968,-0.279903 0.1855469,-0.421875 0.03545,-0.141972 0.1071144,-0.248853 -0.015625,-0.537109 -0.028913,-0.067998 -0.06993,-0.107686 -0.109375,-0.152344 z m 0.678347,-1.99414 c -0.046708,0.348972 -0.057559,0.7451 0.00586,1.080078 0.1276784,0.675204 0.4194984,1.30983 0.8476562,1.847656 a 0.50005,0.50005 0 0 0 0.027344,0.03125 c 0.435896,0.462093 0.899428,0.998893 1.003907,1.21875 0.133349,0.280804 0.20306,0.534168 0.246093,0.796875 0.0098,-0.039247 0.02433,-0.075404 0.0332,-0.115235 0.0082,-0.067103 0.01758,-0.215133 0.01758,-0.357421 0,-0.507392 -0.07903,-0.86548 -0.296875,-1.324219 -0.104477,-0.219857 -0.568009,-0.756657 -1.0039058,-1.21875 a 0.50005,0.50005 0 0 1 -0.027344,-0.03125 c -0.4281576,-0.537826 -0.7199776,-1.172452 -0.847656,-1.847656 -0.00469,-0.02479 -0.00188,-0.054581 -0.00586,-0.080078 z m -1.6490501,-0.31836 c -0.1892634,0.152574 -0.3943873,0.30398 -0.5429688,0.458984 -0.099482,0.103784 -0.1645128,0.20257 -0.1855469,0.25586 -0.0115,0.02916 -0.00411,0.028656 -0.00391,0.035156 0.071435,0.119586 0.087035,0.147066 0.2382812,0.160156 0.2271408,0.019655 0.3551458,0.045987 0.5195313,0.06836 0.054878,-0.044611 0.108166,-0.089985 0.1582069,-0.134766 A 0.50005,0.50005 0 0 0 7.445983,3.6756663 C 7.418084,3.6608413 7.389977,3.6588343 7.361999,3.6463693 Z" />
</svg>
