<?xml version="1.0" encoding="UTF-8" standalone="no"?>
<svg
   xmlns:dc="http://purl.org/dc/elements/1.1/"
   xmlns:cc="http://creativecommons.org/ns#"
   xmlns:rdf="http://www.w3.org/1999/02/22-rdf-syntax-ns#"
   xmlns:svg="http://www.w3.org/2000/svg"
   xmlns="http://www.w3.org/2000/svg"
   xmlns:xlink="http://www.w3.org/1999/xlink"
   xmlns:sodipodi="http://sodipodi.sourceforge.net/DTD/sodipodi-0.dtd"
   xmlns:inkscape="http://www.inkscape.org/namespaces/inkscape"
   height="16"
   width="16"
   version="1.1"
   id="svg2"
   inkscape:version="0.91 r13725"
   sodipodi:docname="intellij_16.svg">
  <metadata
     id="metadata75">
    <rdf:RDF>
      <cc:Work
         rdf:about="">
        <dc:format>image/svg+xml</dc:format>
        <dc:type
           rdf:resource="http://purl.org/dc/dcmitype/StillImage" />
      </cc:Work>
    </rdf:RDF>
  </metadata>
  <sodipodi:namedview
     pagecolor="#ffffff"
     bordercolor="#666666"
     borderopacity="1"
     objecttolerance="10"
     gridtolerance="10"
     guidetolerance="10"
     inkscape:pageopacity="0"
     inkscape:pageshadow="2"
     inkscape:window-width="1366"
     inkscape:window-height="705"
     id="namedview73"
     showgrid="false"
     inkscape:zoom="13.906433"
     inkscape:cx="-6.8615316"
     inkscape:cy="8.4595699"
     inkscape:window-x="0"
     inkscape:window-y="30"
     inkscape:window-maximized="1"
     inkscape:current-layer="svg2" />
  <defs
     id="defs4">
    <linearGradient
       id="linearGradient4630">
      <stop
         offset="0"
         style="stop-color:#ffffff;stop-opacity:1"
         id="stop4632" />
      <stop
         offset="0.39178118"
         style="stop-color:#ffffff;stop-opacity:0.23529412"
         id="stop4634" />
      <stop
         offset="0.83518285"
         style="stop-color:#ffffff;stop-opacity:0.15686275"
         id="stop4636" />
      <stop
         offset="1"
         style="stop-color:#ffffff;stop-opacity:0.39215687"
         id="stop4638" />
    </linearGradient>
    <linearGradient
       id="f"
       y2="43"
       gradientUnits="userSpaceOnUse"
       x2="24"
       gradientTransform="matrix(0.38461954,0,0,0.38461774,0.49523629,5.2335147)"
       y1="5"
       x1="24">
      <stop
         stop-color="#fff"
         offset="0"
         id="stop7" />
      <stop
         stop-color="#fff"
         stop-opacity=".23529"
         offset=".063165"
         id="stop9" />
      <stop
         stop-color="#fff"
         stop-opacity=".15686"
         offset=".95056"
         id="stop11" />
      <stop
         stop-color="#fff"
         stop-opacity=".39216"
         offset="1"
         id="stop13" />
    </linearGradient>
    <radialGradient
       id="a"
       gradientUnits="userSpaceOnUse"
       cy="8.4498"
       cx="7.4957"
       gradientTransform="matrix(1.893e-8 2.2771 -2.4089 -4.1952e-8 44.354 -10.501)"
       r="20">
      <stop
         stop-color="#73baff"
         offset="0"
         id="stop16" />
      <stop
         stop-color="#5aa7f3"
         offset=".26238"
         id="stop18" />
      <stop
         stop-color="#1977d4"
         offset=".70495"
         id="stop20" />
      <stop
         stop-color="#0065c8"
         offset="1"
         id="stop22" />
    </radialGradient>
    <radialGradient
       id="c"
       gradientUnits="userSpaceOnUse"
       cy="43.5"
       cx="4.993"
       gradientTransform="matrix(2.0038,0,0,1.4,27.988,-17.4)"
       r="2.5">
      <stop
         stop-color="#181818"
         offset="0"
         id="stop25" />
      <stop
         stop-color="#181818"
         stop-opacity="0"
         offset="1"
         id="stop27" />
    </radialGradient>
    <radialGradient
       id="b"
       gradientUnits="userSpaceOnUse"
       cy="43.5"
       cx="4.993"
       gradientTransform="matrix(2.0038,0,0,1.4,-20.012,-104.4)"
       r="2.5">
      <stop
         stop-color="#181818"
         offset="0"
         id="stop30" />
      <stop
         stop-color="#181818"
         stop-opacity="0"
         offset="1"
         id="stop32" />
    </radialGradient>
    <linearGradient
       id="d"
       y2="39.999"
       gradientUnits="userSpaceOnUse"
       x2="25.058"
       y1="47.028"
       x1="25.058">
      <stop
         stop-color="#181818"
         stop-opacity="0"
         offset="0"
         id="stop35" />
      <stop
         stop-color="#181818"
         offset=".5"
         id="stop37" />
      <stop
         stop-color="#181818"
         stop-opacity="0"
         offset="1"
         id="stop39" />
    </linearGradient>
    <linearGradient
       id="e"
       y2="44.858"
       gradientUnits="userSpaceOnUse"
       x2=".85715"
       gradientTransform="translate(41.286)"
       y1="5.7143"
       x1=".85715">
      <stop
         stop-color="#0065c8"
         offset="0"
         id="stop42" />
      <stop
         stop-color="#00478b"
         offset="1"
         id="stop44" />
    </linearGradient>
    <linearGradient
       id="g"
       y2="37"
       gradientUnits="userSpaceOnUse"
       x2="25"
       gradientTransform="translate(49.016949,1.8135593)"
       y1="12"
       x1="25">
      <stop
         stop-color="#fff"
         offset="0"
         id="stop47" />
      <stop
         stop-color="#c4e0fa"
         offset="1"
         id="stop49" />
    </linearGradient>
    <radialGradient
       r="27.5"
       fy="4.3419166"
       fx="31.999998"
       cy="4.3419166"
       cx="31.999998"
       gradientTransform="matrix(0,0.64175241,-0.64172699,0,10.786512,-20.086551)"
       gradientUnits="userSpaceOnUse"
       id="radialGradient3857"
       xlink:href="#linearGradient947" />
    <linearGradient
       id="linearGradient4632-92-3-0-8-1-6">
      <stop
         offset="0"
         style="stop-color:#fafafa;stop-opacity:1"
         id="stop4634-68-8-0-2-9-1" />
      <stop
         offset="1"
         style="stop-color:#e1e1e1;stop-opacity:1"
         id="stop4636-8-21-7-1-4-9" />
    </linearGradient>
    <radialGradient
       r="27.5"
       fy="4.3419166"
       fx="31.999998"
       cy="4.3419166"
       cx="31.999998"
       gradientTransform="matrix(0,1.5830081,-1.5829378,0,-17.867556,-45.786883)"
       gradientUnits="userSpaceOnUse"
       id="radialGradient3857-3"
       xlink:href="#linearGradient4632-92-3-0-8-1-6" />
    <radialGradient
       r="27.5"
       fy="4.3419166"
       fx="31.999998"
       cy="4.3419166"
       cx="31.999998"
       gradientTransform="matrix(0,1.6685761,-1.668502,0,-17.496036,-35.573696)"
       gradientUnits="userSpaceOnUse"
       id="radialGradient3857-3-3"
       xlink:href="#linearGradient4632-92-3-0-8-1-6" />
    <linearGradient
       y2="5.1757793"
       x2="-95.837799"
       y1="54.199703"
       x1="-95.837799"
       gradientTransform="matrix(0.80749834,0,0,0.83374395,160.10715,8.8359582)"
       gradientUnits="userSpaceOnUse"
       id="linearGradient3847"
       xlink:href="#linearGradient3104-8-8-97-4-6-2-0-1-4-0-5-8" />
    <linearGradient
       id="linearGradient3104-8-8-97-4-6-2-0-1-4-0-5-8">
      <stop
         offset="0"
         style="stop-color:#000000;stop-opacity:0.32173914"
         id="stop3106-5-4-3-5-0-1-61-9-2-7-3-3" />
      <stop
         offset="1"
         style="stop-color:#000000;stop-opacity:0.27826086"
         id="stop3108-4-3-7-8-2-4-01-9-9-0-6-4" />
    </linearGradient>
    <radialGradient
       cx="6.7304144"
       cy="9.9571075"
       r="12.671875"
       fx="6.2001843"
       fy="9.9571075"
       id="radialGradient3031"
       xlink:href="#linearGradient2867-449-88-871-390-598-476-591-434-148-57-177-8-3-3-6-4-8-8-8"
       gradientUnits="userSpaceOnUse"
       gradientTransform="matrix(0,9.4975523,-11.65996,0,210.24124,-67.93683)" />
    <linearGradient
       id="linearGradient2867-449-88-871-390-598-476-591-434-148-57-177-8-3-3-6-4-8-8-8">
      <stop
         id="stop3750-1-0-7-6-6-1-3-9"
         style="stop-color:#ffcd7d;stop-opacity:1"
         offset="0" />
      <stop
         id="stop3752-3-7-4-0-32-8-923-0"
         style="stop-color:#fc8f36;stop-opacity:1"
         offset="0.26238" />
      <stop
         id="stop3754-1-8-5-2-7-6-7-1"
         style="stop-color:#e23a0e;stop-opacity:1"
         offset="0.704952" />
      <stop
         id="stop3756-1-6-2-6-6-1-96-6"
         style="stop-color:#ac441f;stop-opacity:1"
         offset="1" />
    </linearGradient>
    <linearGradient
       inkscape:collect="always"
       xlink:href="#linearGradient2867-449-88-871-390-598-476-591-434-148-57-177-8-3-3-6-4-8-8-8"
       id="linearGradient4325"
       x1="1.2620682"
       y1="24.999819"
       x2="19.248034"
       y2="24.999819"
       gradientUnits="userSpaceOnUse"
       gradientTransform="matrix(0,0.40540308,-0.40540484,0,12.852595,3.6893422)" />
    <linearGradient
       x1="2035.1652"
       y1="3208.0737"
       x2="2035.1652"
       y2="3241.9966"
       id="linearGradient11527-6-5"
       xlink:href="#linearGradient947"
       gradientUnits="userSpaceOnUse"
       gradientTransform="matrix(1.5712555,0,0,1.1746645,-3114.7696,-3761.6363)" />
    <linearGradient
       id="linearGradient947">
      <stop
         offset="0"
         style="stop-color:#64baff;stop-opacity:1"
         id="stop943" />
      <stop
         offset="1"
         style="stop-color:#3689e6;stop-opacity:1"
         id="stop945" />
    </linearGradient>
    <radialGradient
       r="27.5"
       fy="4.3419166"
       fx="31.999998"
       cy="4.3419166"
       cx="31.999998"
       gradientTransform="matrix(0,1.5829984,-1.5829287,0,98.485323,-50.456866)"
       gradientUnits="userSpaceOnUse"
       id="radialGradient3857-1"
       xlink:href="#linearGradient947" />
    <radialGradient
       r="27.5"
       fy="4.3419166"
       fx="31.999998"
       cy="4.3419166"
       cx="31.999998"
       gradientTransform="matrix(0,1.4974408,-1.4973749,0,80.430943,-30.469126)"
       gradientUnits="userSpaceOnUse"
       id="radialGradient3857-37"
       xlink:href="#linearGradient947" />
    <radialGradient
       r="27.5"
       fy="4.3419166"
       fx="31.999998"
       cy="4.3419166"
       cx="31.999998"
       gradientTransform="matrix(0,1.5829984,-1.5829287,0,87.69884,-33.918102)"
       gradientUnits="userSpaceOnUse"
       id="radialGradient3857-8"
       xlink:href="#linearGradient947" />
    <linearGradient
       gradientTransform="matrix(1.054054,0,0,1.054054,-35.136425,68.66193)"
       gradientUnits="userSpaceOnUse"
       xlink:href="#linearGradient4011"
       id="linearGradient3019"
       y2="44.340794"
       x2="71.204407"
       y1="6.2375584"
       x1="71.204407" />
    <linearGradient
       id="linearGradient4011">
      <stop
         offset="0"
         style="stop-color:#ffffff;stop-opacity:1"
         id="stop4013" />
      <stop
         offset="0.507761"
         style="stop-color:#ffffff;stop-opacity:0.23529412"
         id="stop4015" />
      <stop
         offset="0.83456558"
         style="stop-color:#ffffff;stop-opacity:0.15686275"
         id="stop4017" />
      <stop
         offset="1"
         style="stop-color:#ffffff;stop-opacity:0.39215687"
         id="stop4019" />
    </linearGradient>
    <linearGradient
       xlink:href="#linearGradient3924-1"
       id="linearGradient3901"
       gradientUnits="userSpaceOnUse"
       gradientTransform="translate(0.16147073,19.038279)"
       x1="23.99999"
       y1="4.999989"
       x2="23.99999"
       y2="43" />
    <linearGradient
       id="linearGradient3924-1">
      <stop
         id="stop3926-3"
         style="stop-color:#ffffff;stop-opacity:1"
         offset="0" />
      <stop
         id="stop3928-91"
         style="stop-color:#ffffff;stop-opacity:0.23529412"
         offset="0.06316455" />
      <stop
         id="stop3930-6"
         style="stop-color:#ffffff;stop-opacity:0.15686275"
         offset="0.95056331" />
      <stop
         id="stop3932-6"
         style="stop-color:#ffffff;stop-opacity:0.39215687"
         offset="1" />
    </linearGradient>
    <linearGradient
       inkscape:collect="always"
       xlink:href="#linearGradient4630"
       id="linearGradient4620"
       x1="35.878304"
       y1="46.774006"
       x2="35.822205"
       y2="56.122196"
       gradientUnits="userSpaceOnUse"
       gradientTransform="matrix(0.23511759,0,0,0.23492297,-5.685871,-4.2697033)" />
    <radialGradient
       gradientTransform="matrix(0.27083381,0,0,0.08762273,-43.736428,37.585534)"
       gradientUnits="userSpaceOnUse"
       xlink:href="#linearGradient3820-7-2-1"
       id="radialGradient3018"
       fy="186.17059"
       fx="99.157013"
       r="62.769119"
       cy="186.17059"
       cx="99.157013" />
    <linearGradient
       id="linearGradient3820-7-2-1">
      <stop
         offset="0"
         style="stop-color:#3d3d3d;stop-opacity:1"
         id="stop3822-2-6-3" />
      <stop
         offset="0.5"
         style="stop-color:#686868;stop-opacity:0.49803922"
         id="stop3864-8-7-7" />
      <stop
         offset="1"
         style="stop-color:#686868;stop-opacity:0"
         id="stop3824-1-2-5" />
    </linearGradient>
    <radialGradient
       cx="4.9929786"
       cy="43.5"
       r="2.5"
       fx="4.9929786"
       fy="43.5"
       id="radialGradient3013"
       xlink:href="#linearGradient3688-166-749"
       gradientUnits="userSpaceOnUse"
       gradientTransform="matrix(2.003784,0,0,1.4,27.98813,-17.4)" />
    <linearGradient
       id="linearGradient3688-166-749">
      <stop
         id="stop2883"
         style="stop-color:#181818;stop-opacity:1"
         offset="0" />
      <stop
         id="stop2885"
         style="stop-color:#181818;stop-opacity:0"
         offset="1" />
    </linearGradient>
    <radialGradient
       cx="4.9929786"
       cy="43.5"
       r="2.5"
       fx="4.9929786"
       fy="43.5"
       id="radialGradient3015"
       xlink:href="#linearGradient3688-166-749"
       gradientUnits="userSpaceOnUse"
       gradientTransform="matrix(2.003784,0,0,1.4,-20.01187,-104.4)" />
    <linearGradient
       x1="25.058096"
       y1="47.027729"
       x2="25.058096"
       y2="39.999443"
       id="linearGradient6647"
       xlink:href="#linearGradient3702-501-757"
       gradientUnits="userSpaceOnUse" />
    <linearGradient
       id="linearGradient3702-501-757">
      <stop
         id="stop2895"
         style="stop-color:#181818;stop-opacity:0"
         offset="0" />
      <stop
         id="stop2897"
         style="stop-color:#181818;stop-opacity:1"
         offset="0.5" />
      <stop
         id="stop2899"
         style="stop-color:#181818;stop-opacity:0"
         offset="1" />
    </linearGradient>
    <radialGradient
       cx="32"
       cy="41.5"
       r="21"
       fx="32"
       fy="41.5"
       id="radialGradient3831"
       xlink:href="#linearGradient3104-8-8-97-4-6-2-0-1-4-0-5-8"
       gradientUnits="userSpaceOnUse"
       gradientTransform="matrix(0.85714286,0,0,0.28571429,-2.0048422,50.278449)" />
    <radialGradient
       r="27.5"
       fy="4.3419166"
       fx="31.999998"
       cy="4.3419166"
       cx="31.999998"
       gradientTransform="matrix(0,2.3531109,-2.3530034,0,11.335121,-0.82195042)"
       gradientUnits="userSpaceOnUse"
       id="radialGradient3857-36"
       xlink:href="#linearGradient947" />
    <radialGradient
       gradientTransform="matrix(2.003784,0,0,1.4,27.98813,-17.4)"
       gradientUnits="userSpaceOnUse"
       xlink:href="#linearGradient3688-166-749"
       id="radialGradient2873-966-168-714"
       fy="43.5"
       fx="4.9929786"
       r="2.5"
       cy="43.5"
       cx="4.9929786" />
    <radialGradient
       gradientTransform="matrix(2.003784,0,0,1.4,-20.01187,-104.4)"
       gradientUnits="userSpaceOnUse"
       xlink:href="#linearGradient3688-166-749"
       id="radialGradient2875-742-326-419"
       fy="43.5"
       fx="4.9929786"
       r="2.5"
       cy="43.5"
       cx="4.9929786" />
    <radialGradient
       r="27.5"
       fy="4.3419166"
       fx="31.999998"
       cy="4.3419166"
       cx="31.999998"
       gradientTransform="matrix(0,0.64175241,-0.64172699,0,-7.4640899,-19.873657)"
       gradientUnits="userSpaceOnUse"
       id="radialGradient3857-367"
       xlink:href="#linearGradient947" />
    <linearGradient
       id="f-5"
       y2="43"
       gradientUnits="userSpaceOnUse"
       x2="24"
       gradientTransform="matrix(0.38461954,0,0,0.38461774,-19.552706,-0.75964548)"
       y1="5"
       x1="24">
      <stop
         stop-color="#fff"
         offset="0"
         id="stop7-6" />
      <stop
         stop-color="#fff"
         stop-opacity=".23529"
         offset=".063165"
         id="stop9-2" />
      <stop
         stop-color="#fff"
         stop-opacity=".15686"
         offset=".95056"
         id="stop11-9" />
      <stop
         stop-color="#fff"
         stop-opacity=".39216"
         offset="1"
         id="stop13-1" />
    </linearGradient>
    <radialGradient
       r="27.5"
       fy="4.3419166"
       fx="31.999998"
       cy="4.3419166"
       cx="31.999998"
       gradientTransform="matrix(0,0.64175241,-0.64172699,0,26.156903,-3.5971813)"
       gradientUnits="userSpaceOnUse"
       id="radialGradient3857-6"
       xlink:href="#linearGradient947" />
    <linearGradient
       inkscape:collect="always"
       xlink:href="#linearGradient4011"
       id="linearGradient4367"
       x1="23.306875"
       y1="17.473976"
       x2="23.291529"
       y2="31.496262"
       gradientUnits="userSpaceOnUse"
       gradientTransform="translate(-15.370965,-16.496)" />
  </defs>
  <path
     inkscape:connector-curvature="0"
     style="color:#000000;display:inline;overflow:visible;visibility:visible;fill:url(#radialGradient3857);fill-opacity:1;fill-rule:nonzero;stroke:none;stroke-width:1;stroke-miterlimit:4;stroke-dasharray:none;stroke-opacity:1;marker:none;enable-background:accumulate"
     d="M 2.2675591,0.49260181 C 1.0715762,0.49287453 0.471334,1.119661 0.52756848,2.1987391 0.47372799,3.6192194 1.0718439,4.2440994 2.2683299,4.2440994 c 0.1052946,0.014381 0.5072903,0 1.7947267,0 l 2.3929689,0 c 0,1.2524145 0.028119,4.1132326 0,4.3744334 0,1.2498923 -1.2290949,2.1970402 -2.3251276,2.7538732 -0.2052026,0.104992 -0.4711723,0.204924 -0.6907531,0.263669 -0.2829739,0.07312 -0.4473144,0.09356 -0.9312844,0.107935 -0.4092055,0.01499 -0.507553,0.02114 -0.6313922,0.05551 -0.6616696,0.178109 -1.15934204,0.683197 -1.32985561,1.356892 -0.0347034,0.146241 -0.0446409,0.219462 -0.0470269,0.439448 -0.00237,0.158739 0.007819,0.313716 0.0215871,0.389335 0.14298333,0.736831 0.6939464,1.317666 1.4046358,1.476391 l 0.00308,-0.0023 c 0.1543488,0.03435 0.2127562,0.0368 0.7200498,0.0293 0.5605681,-0.005 0.782653,-0.02711 1.1918585,-0.100225 2.9493886,-0.544319 6.2036793,-2.397187 6.2036793,-6.1468636 l 0,-8.74886786 -3.8878034,0.005397 -3.8893454,-0.005397 -7.909e-4,0 z m 11.1661599,0 c -1.325521,0 -2.002878,0.62499699 -2.002878,1.87497759 -0.02913,0.2831214 -0.02913,10.9812336 0,11.2498656 0,1.249961 0.677738,1.874978 2.061469,1.874978 1.325517,0 2.002879,-0.627492 2.002879,-1.874978 0.01019,-0.168747 0.0028,-2.035307 -0.0054,-5.7914603 -0.0082,-5.8105117 0.0054,-4.9771164 0.0054,-5.4584053 0,-1.2499601 -0.67774,-1.87497759 -2.06147,-1.87497759 z"
     id="rect5505-21" />
  <path
     inkscape:connector-curvature="0"
     style="fill:url(#linearGradient4325);fill-opacity:1"
     id="path55"
     d="M 0.63907033,7.4906599 C 0.68350797,7.2001515 0.81263269,6.8784327 0.98379339,6.6299245 1.1735735,6.3484209 1.5327144,6.0483049 1.8474038,5.9030747 2.6191424,5.553746 3.53443,5.7038005 4.16738,6.2878151 c 0.2348197,0.2178798 0.4552284,0.5744142 0.56093,0.9027501 0.077475,0.2412883 0.098496,0.417154 0.087083,0.7172561 -0.00961,0.2977141 -0.056454,0.5041872 -0.166357,0.7550692 C 4.4592555,9.0920539 4.0839041,9.488194 3.6682745,9.6970758 3.0322711,10.015797 2.2605754,9.9875844 1.6533941,9.6292504 0.91232662,9.1910892 0.50870632,8.337587 0.64203264,7.4792322 m -0.00243,0.012003" />
  <path
     inkscape:connector-curvature="0"
     style="color:#000000;display:inline;overflow:visible;visibility:visible;opacity:0.5;fill:none;fill-opacity:1;fill-rule:nonzero;stroke:#002e99;stroke-width:1;stroke-miterlimit:4;stroke-dasharray:none;stroke-opacity:1;marker:none;enable-background:accumulate"
     d="M 2.2675935,0.49274035 C 1.0716106,0.49301308 0.47136817,1.1197996 0.52760268,2.1988777 c -0.0538402,1.4204805 0.54427552,2.04536 1.74076152,2.04536 0.1052946,0.014381 0.5072906,0 1.7947267,0 l 2.392969,0 c 0,1.2524147 0.02812,4.1132328 0,4.3744337 0,1.249892 -1.2290947,2.1970396 -2.3251274,2.7538726 -0.2052026,0.104992 -0.4711723,0.204925 -0.6907536,0.263669 -0.2829739,0.07312 -0.4473144,0.09356 -0.9312847,0.107935 -0.4092047,0.01499 -0.5075521,0.02114 -0.6313918,0.05551 -0.6616695,0.178109 -1.15934204,0.683197 -1.32985531,1.356892 -0.0347027,0.146242 -0.0446411,0.219462 -0.047027,0.439448 -0.002351,0.158739 0.00782,0.313716 0.021588,0.389336 0.14298303,0.73683 0.69394611,1.317666 1.40463591,1.47639 l 0.00308,-0.0023 c 0.1543487,0.03435 0.2127561,0.0368 0.72005,0.0293 0.5605675,-0.005 0.782653,-0.02711 1.1918582,-0.100225 C 6.7912199,14.84417 10.04551,12.991301 10.04551,9.2416248 l 0,-8.74886763 -3.8878024,0.005395 -3.8893457,-0.005395 -8.182e-4,0 z m 11.1661595,0 c -1.325524,0 -2.002879,0.62499695 -2.002879,1.87497735 -0.02911,0.2831214 -0.02911,10.9812343 0,11.2498663 0,1.24996 0.677736,1.874978 2.061468,1.874978 1.325516,0 2.002878,-0.627493 2.002878,-1.874978 0.01018,-0.168748 0.0028,-2.035308 -0.0054,-5.7914608 -0.0082,-5.8105119 0.0054,-4.9771166 0.0054,-5.4584055 0,-1.2499597 -0.677739,-1.87497735 -2.061467,-1.87497735 z"
     id="rect5505-21-2" />
  <path
     inkscape:connector-curvature="0"
     style="opacity:0.4;fill:none;fill-opacity:1;stroke:#640000;stroke-width:1;stroke-opacity:1"
     id="path55-9"
     d="M 0.63906065,7.4902303 C 0.68349829,7.1997217 0.81262301,6.8780031 0.9837837,6.6294947 1.1735639,6.3479914 1.5327047,6.0478754 1.8473941,5.9026452 2.6191323,5.5533162 3.5344202,5.7033709 4.1673702,6.2873856 4.4021901,6.5052654 4.6225986,6.8617994 4.7283001,7.1901354 4.8057753,7.4314243 4.8267965,7.6072894 4.8153826,7.9073917 4.8057744,8.2051058 4.758929,8.4115789 4.6490258,8.6624609 4.4592456,9.0916244 4.0838943,9.4877644 3.6682644,9.6966462 3.0322615,10.015368 2.2605659,9.9871549 1.6533844,9.6288206 0.91231691,9.1906596 0.50869666,8.3371574 0.64202296,7.4788026 m -0.00243,0.012003" />
  <path
     inkscape:connector-curvature="0"
     style="opacity:0.5;fill:none;fill-opacity:1;stroke:url(#linearGradient4620);stroke-width:1"
     id="path55-0"
     d="m 1.6286395,7.6454476 c 0.023286,-0.152105 0.090949,-0.320553 0.1806404,-0.450668 0.099448,-0.14739 0.2876435,-0.304527 0.4525458,-0.380567 0.4044032,-0.182903 0.8840284,-0.104337 1.2157044,0.201444 0.1230492,0.114079 0.2385471,0.300754 0.2939365,0.472666 0.040598,0.126335 0.051613,0.218415 0.045632,0.375545 -0.00503,0.155878 -0.029583,0.263984 -0.087174,0.395343 -0.099447,0.224703 -0.2961374,0.432115 -0.513934,0.541482 C 2.8827147,8.9675706 2.4783337,8.9527996 2.1601611,8.7651846 1.7718299,8.5357696 1.5603265,8.0888896 1.6301915,7.6394676 m -0.00127,0.0063" />
  <path
     style="color:#000000;display:inline;overflow:visible;visibility:visible;fill:none;fill-opacity:1;fill-rule:nonzero;stroke:url(#linearGradient4367);stroke-width:1;stroke-miterlimit:4;stroke-dasharray:none;stroke-opacity:1;marker:none;enable-background:accumulate;opacity:0.5"
     d="m 2.2677073,1.4864233 c -0.423338,9.7e-5 -0.577716,0.09938 -0.634766,0.15625 -0.057052,0.05687 -0.125392,0.153223 -0.107422,0.498047 l 0.00195,0.044922 -0.00195,0.044921 c -0.021401,0.564641 0.094147,0.788742 0.154297,0.857422 0.060154,0.068681 0.163735,0.150391 0.587891,0.150391 l 0.068359,0 0.066407,0.00781 c 0.3474096,-0.012665 1.2647494,-0.00695 1.660156,-0.00782 l 3.392578,0 0,0.9999995 c 0,0.618723 0.00822,1.648045 0.011719,2.554687 0.0018,0.453322 0.0013,0.875256 0,1.205079 -0.00117,0.287815 0.00153,0.418536 -0.015625,0.628906 -0.00562,0.9451206 -0.470129,1.7362562 -1.025391,2.3144522 -0.557947,0.580992 -1.222906,1.000823 -1.839844,1.314453 l -0.00195,0.002 c -0.287373,0.146813 -0.58916,0.258281 -0.886719,0.337891 l -0.00391,0 -0.00391,0.002 c -0.330069,0.08529 -0.646969,0.123662 -1.152344,0.138672 -0.380878,0.01393 -0.371008,0.01353 -0.392578,0.01953 l -0.00391,0.002 -0.00391,0 c -0.322972,0.08694 -0.530077,0.29628 -0.617187,0.632813 -0.02303,0.09366 -0.017531,0.02522 -0.019531,0.208984 l 0,0.002 c 0.00133,0.06318 0.00391,0.126333 0.00586,0.1895 0.070769,0.358432 0.327985,0.612864 0.636719,0.683594 l 0.00391,0.002 c 0.111975,0.02496 -0.01466,0.01326 0.488281,0.0059 l 0.00195,0 0.00391,0 c 0.536632,-0.0048 0.643494,-0.0177 1.02539,-0.08594 1.338294,-0.247869 2.734394,-0.802934 3.736329,-1.65039 1.003419,-0.848714 1.642578,-1.926177 1.642578,-3.5117182 l 0,-7.7460935 -2.888672,0.00391 -3.888672,-0.00586 z m 11.1660157,0 c -0.505593,0 -0.723217,0.112299 -0.816407,0.199219 -0.09319,0.086919 -0.1875,0.231421 -0.1875,0.675781 l 0,0.050781 -0.0039,0.050781 c -0.0031,0.5817538 -0.0099,1.2492931 -0.0118,1.7402345 -0.0037,1.045081 -0.0059,2.418198 -0.0059,3.789062 0,1.370865 0.0023,2.7399392 0.0059,3.7832022 0.0019,0.521632 0.0032,0.961695 0.0059,1.277344 0.0035,0.150357 0.0026,0.300785 0.0039,0.451177 l 0.0059,0.05273 0,0.05469 c 0,0.444244 0.08959,0.580389 0.185547,0.667969 0.09596,0.08758 0.335651,0.207031 0.876953,0.207031 0.50496,0 0.722756,-0.113732 0.816407,-0.201172 0.09365,-0.08744 0.185546,-0.23108 0.185546,-0.673828 l 0,-0.03125 c 0.0039,-0.13796 0.0041,-0.290212 0.0059,-0.419925 6e-4,-0.254574 -0.0012,-0.619569 -0.002,-1.097656 -0.0016,-0.956174 -0.0057,-2.3618646 -0.0098,-4.2402342 l 0,-0.002 c -0.0082,-5.8119365 0.0059,-4.9965325 0.0059,-5.4589835 0,-0.444244 -0.08959,-0.580389 -0.185546,-0.667969 -0.09596,-0.087577 -0.333701,-0.207031 -0.875,-0.207031 z"
     id="rect5505-21-1"
     inkscape:connector-curvature="0"
     sodipodi:nodetypes="ccccccsccccscccscccccccccccccccccccsscccccsscccsccccscsssccsccsccc" />
</svg>
