<?xml version="1.0" encoding="UTF-8" standalone="no"?>
<!-- Created with Inkscape (http://www.inkscape.org/) -->

<svg
   xmlns:dc="http://purl.org/dc/elements/1.1/"
   xmlns:cc="http://creativecommons.org/ns#"
   xmlns:rdf="http://www.w3.org/1999/02/22-rdf-syntax-ns#"
   xmlns:svg="http://www.w3.org/2000/svg"
   xmlns="http://www.w3.org/2000/svg"
   xmlns:xlink="http://www.w3.org/1999/xlink"
   xmlns:sodipodi="http://sodipodi.sourceforge.net/DTD/sodipodi-0.dtd"
   xmlns:inkscape="http://www.inkscape.org/namespaces/inkscape"
   id="svg3143"
   height="16"
   width="16"
   version="1.1"
   inkscape:version="0.91 r13725"
   sodipodi:docname="vmware-player_16.svg">
  <sodipodi:namedview
     pagecolor="#ffffff"
     bordercolor="#666666"
     borderopacity="1"
     objecttolerance="10"
     gridtolerance="10"
     guidetolerance="10"
     inkscape:pageopacity="0"
     inkscape:pageshadow="2"
     inkscape:window-width="1366"
     inkscape:window-height="705"
     id="namedview50"
     showgrid="false"
     inkscape:zoom="33.25"
     inkscape:cx="8"
     inkscape:cy="8"
     inkscape:window-x="0"
     inkscape:window-y="30"
     inkscape:window-maximized="1"
     inkscape:current-layer="svg3143" />
  <defs
     id="defs3145">
    <linearGradient
       inkscape:collect="always"
       id="linearGradient4208">
      <stop
         style="stop-color:#fad229;stop-opacity:1"
         offset="0"
         id="stop4210" />
      <stop
         style="stop-color:#f3b500;stop-opacity:1"
         offset="1"
         id="stop4212" />
    </linearGradient>
    <radialGradient
       id="radialGradient3030"
       gradientUnits="userSpaceOnUse"
       cy="43.5"
       cx="4.993"
       gradientTransform="matrix(2.0038 0 0 1.4 27.988 -17.4)"
       r="2.5">
      <stop
         id="stop2883"
         stop-color="#181818"
         offset="0" />
      <stop
         id="stop2885"
         stop-color="#181818"
         stop-opacity="0"
         offset="1" />
    </radialGradient>
    <radialGradient
       id="radialGradient3032"
       gradientUnits="userSpaceOnUse"
       cy="43.5"
       cx="4.993"
       gradientTransform="matrix(2.0038 0 0 1.4 -20.012 -104.4)"
       r="2.5">
      <stop
         id="stop2889"
         stop-color="#181818"
         offset="0" />
      <stop
         id="stop2891"
         stop-color="#181818"
         stop-opacity="0"
         offset="1" />
    </radialGradient>
    <linearGradient
       id="linearGradient3034"
       y2="39.999"
       gradientUnits="userSpaceOnUse"
       x2="25.058"
       y1="47.028"
       x1="25.058">
      <stop
         id="stop2895"
         stop-color="#181818"
         stop-opacity="0"
         offset="0" />
      <stop
         id="stop2897"
         stop-color="#181818"
         offset=".5" />
      <stop
         id="stop2899"
         stop-color="#181818"
         stop-opacity="0"
         offset="1" />
    </linearGradient>
    <linearGradient
       id="linearGradient3044"
       y2="43"
       gradientUnits="userSpaceOnUse"
       x2="24"
       gradientTransform="translate(48.997719,0.36200872)"
       y1="5"
       x1="24">
      <stop
         id="stop3926-7"
         stop-color="#fff"
         offset="0" />
      <stop
         id="stop3928-3"
         stop-color="#fff"
         stop-opacity=".23529"
         offset=".063165" />
      <stop
         id="stop3930-7"
         stop-color="#fff"
         stop-opacity=".15686"
         offset=".95056" />
      <stop
         id="stop3932-1"
         stop-color="#fff"
         stop-opacity=".39216"
         offset="1" />
    </linearGradient>
    <radialGradient
       id="radialGradient3053"
       gradientUnits="userSpaceOnUse"
       cy="9.9941"
       cx="8.2761"
       gradientTransform="matrix(0,6.6678,-8.1859,0,154.87772,-60.100992)"
       r="12.672">
      <stop
         id="stop3244"
         stop-color="#7ec1f8"
         offset="0" />
      <stop
         id="stop3246"
         stop-color="#4f97e3"
         offset=".26238" />
      <stop
         id="stop3248"
         stop-color="#2674c6"
         offset=".66094" />
      <stop
         id="stop3250"
         stop-color="#0b4169"
         offset="1" />
    </radialGradient>
    <clipPath
       id="clipPath-929888831">
      <g
         id="g17"
         transform="translate(0 -1004.4)">
        <path
           id="path19"
           d="m-24 13c0 1.105-0.672 2-1.5 2s-1.5-0.895-1.5-2 0.672-2 1.5-2 1.5 0.895 1.5 2z"
           transform="matrix(15.333 0 0 11.5 415 878.86)"
           fill="#1890d0" />
      </g>
    </clipPath>
    <radialGradient
       gradientTransform="matrix(2.003784,0,0,1.4,27.98813,-17.4)"
       gradientUnits="userSpaceOnUse"
       xlink:href="#linearGradient3688-166-749-2-324"
       id="radialGradient3013-896"
       fy="43.5"
       fx="4.9929786"
       r="2.5"
       cy="43.5"
       cx="4.9929786" />
    <linearGradient
       id="linearGradient3688-166-749-2-324">
      <stop
         offset="0"
         style="stop-color:#181818;stop-opacity:1"
         id="stop3216" />
      <stop
         offset="1"
         style="stop-color:#181818;stop-opacity:0"
         id="stop3218" />
    </linearGradient>
    <radialGradient
       gradientTransform="matrix(2.003784,0,0,1.4,-20.01187,-104.4)"
       gradientUnits="userSpaceOnUse"
       xlink:href="#linearGradient3688-166-749-2-324"
       id="radialGradient3015-826"
       fy="43.5"
       fx="4.9929786"
       r="2.5"
       cy="43.5"
       cx="4.9929786" />
    <linearGradient
       gradientUnits="userSpaceOnUse"
       xlink:href="#linearGradient3702-501-757-6-946"
       id="linearGradient4395"
       y2="39.999443"
       x2="25.058096"
       y1="47.027729"
       x1="25.058096" />
    <linearGradient
       id="linearGradient3702-501-757-6-946">
      <stop
         offset="0"
         style="stop-color:#181818;stop-opacity:0"
         id="stop3228" />
      <stop
         offset="0.5"
         style="stop-color:#181818;stop-opacity:1"
         id="stop3230" />
      <stop
         offset="1"
         style="stop-color:#181818;stop-opacity:0"
         id="stop3232" />
    </linearGradient>
    <radialGradient
       gradientTransform="matrix(0,9.4975523,-11.65996,0,140.93055,-79.160972)"
       gradientUnits="userSpaceOnUse"
       xlink:href="#linearGradient2867-449-88-871-390-598-476-591-434-148-57-177-8-3-3-6-4-8-8-8-5"
       id="radialGradient4144"
       fy="9.9571075"
       fx="6.2001843"
       r="12.671875"
       cy="9.9571075"
       cx="6.7304144" />
    <linearGradient
       id="linearGradient2867-449-88-871-390-598-476-591-434-148-57-177-8-3-3-6-4-8-8-8-5">
      <stop
         offset="0"
         style="stop-color:#919caf;stop-opacity:1"
         id="stop3750-1-0-7-6-6-1-3-9-3" />
      <stop
         offset="0.26238"
         style="stop-color:#68758e;stop-opacity:1"
         id="stop3752-3-7-4-0-32-8-923-0-7" />
      <stop
         offset="0.704952"
         style="stop-color:#485a6c;stop-opacity:1"
         id="stop3754-1-8-5-2-7-6-7-1-9" />
      <stop
         offset="1"
         style="stop-color:#444c5c;stop-opacity:1"
         id="stop3756-1-6-2-6-6-1-96-6-0" />
    </linearGradient>
    <linearGradient
       gradientTransform="matrix(0.35,0,0,0.35,18.039393,0.12481644)"
       gradientUnits="userSpaceOnUse"
       xlink:href="#linearGradient4187"
       id="linearGradient3153"
       y2="41.890972"
       x2="23.99999"
       y1="6.1111298"
       x1="23.99999" />
    <linearGradient
       id="linearGradient4187">
      <stop
         offset="0"
         style="stop-color:#ffffff;stop-opacity:1"
         id="stop4189" />
      <stop
         offset="0.02099473"
         style="stop-color:#ffffff;stop-opacity:0.23529412"
         id="stop4191" />
      <stop
         offset="0.97696"
         style="stop-color:#ffffff;stop-opacity:0.15686275"
         id="stop4193" />
      <stop
         offset="1"
         style="stop-color:#ffffff;stop-opacity:0.39215687"
         id="stop4195" />
    </linearGradient>
    <linearGradient
       gradientTransform="matrix(1.0521608,0,0,-1.0532519,-1.2521612,51.339874)"
       gradientUnits="userSpaceOnUse"
       xlink:href="#linearGradient4311"
       id="linearGradient3143"
       y2="25.361452"
       x2="30.212982"
       y1="21.416878"
       x1="30.212982" />
    <linearGradient
       id="linearGradient4311">
      <stop
         offset="0"
         style="stop-color:#000000;stop-opacity:1"
         id="stop4313" />
      <stop
         offset="1"
         style="stop-color:#000000;stop-opacity:0"
         id="stop4315" />
    </linearGradient>
    <radialGradient
       gradientTransform="matrix(2.003784,0,0,1.4,27.98813,-17.4)"
       gradientUnits="userSpaceOnUse"
       xlink:href="#linearGradient3688-166-749-2-324"
       id="radialGradient3013-896-3"
       fy="43.5"
       fx="4.9929786"
       r="2.5"
       cy="43.5"
       cx="4.9929786" />
    <radialGradient
       gradientTransform="matrix(2.003784,0,0,1.4,-20.01187,-104.4)"
       gradientUnits="userSpaceOnUse"
       xlink:href="#linearGradient3688-166-749-2-324"
       id="radialGradient3015-826-5"
       fy="43.5"
       fx="4.9929786"
       r="2.5"
       cy="43.5"
       cx="4.9929786" />
    <radialGradient
       gradientTransform="matrix(0,3.3241433,-4.080986,0,67.365082,-27.931527)"
       gradientUnits="userSpaceOnUse"
       xlink:href="#radialGradient3053"
       id="radialGradient4144-2"
       fy="9.9571075"
       fx="6.2001843"
       r="12.671875"
       cy="9.9571075"
       cx="6.7304144" />
    <radialGradient
       cx="6.7304144"
       cy="9.9571075"
       r="12.671875"
       fx="6.2001843"
       fy="9.9571075"
       id="radialGradient4370"
       xlink:href="#radialGradient3053"
       gradientUnits="userSpaceOnUse"
       gradientTransform="matrix(0,3.1658508,-3.8866533,0,46.976839,-26.720326)" />
    <linearGradient
       x1="23.99999"
       y1="4.999989"
       x2="23.99999"
       y2="43"
       id="linearGradient3304"
       xlink:href="#linearGradient3924-4-8"
       gradientUnits="userSpaceOnUse"
       gradientTransform="matrix(0.2972973,0,0,0.2972973,0.86486906,0.8648672)" />
    <linearGradient
       id="linearGradient3924-4-8">
      <stop
         id="stop3926-0-4"
         style="stop-color:#ffffff;stop-opacity:1"
         offset="0" />
      <stop
         id="stop3928-6-8"
         style="stop-color:#ffffff;stop-opacity:0.23529412"
         offset="0.06316455" />
      <stop
         id="stop3930-2-1"
         style="stop-color:#ffffff;stop-opacity:0.15686275"
         offset="0.95056331" />
      <stop
         id="stop3932-9-0"
         style="stop-color:#ffffff;stop-opacity:0.39215687"
         offset="1" />
    </linearGradient>
    <linearGradient
       inkscape:collect="always"
       xlink:href="#linearGradient4208"
       id="linearGradient4212"
       x1="23.939856"
       y1="10.879699"
       x2="24.015045"
       y2="39.030075"
       gradientUnits="userSpaceOnUse"
       gradientTransform="matrix(0.46428569,0,0,0.46428569,-3.14286,-3.6071432)" />
    <radialGradient
       gradientTransform="matrix(2.003784,0,0,1.4,27.98813,-17.4)"
       gradientUnits="userSpaceOnUse"
       xlink:href="#linearGradient3688-166-749-2-324"
       id="radialGradient3013-896-3-3"
       fy="43.5"
       fx="4.9929786"
       r="2.5"
       cy="43.5"
       cx="4.9929786" />
    <radialGradient
       gradientTransform="matrix(2.003784,0,0,1.4,-20.01187,-104.4)"
       gradientUnits="userSpaceOnUse"
       xlink:href="#linearGradient3688-166-749-2-324"
       id="radialGradient3015-826-5-2"
       fy="43.5"
       fx="4.9929786"
       r="2.5"
       cy="43.5"
       cx="4.9929786" />
    <linearGradient
       gradientUnits="userSpaceOnUse"
       xlink:href="#linearGradient3702-501-757-6-946"
       id="linearGradient4395-6"
       y2="39.999443"
       x2="25.058096"
       y1="47.027729"
       x1="25.058096" />
    <radialGradient
       gradientTransform="matrix(2.003784,0,0,1.4,27.98813,-17.4)"
       gradientUnits="userSpaceOnUse"
       xlink:href="#linearGradient3688-166-749-2-324"
       id="radialGradient3013-896-3-0"
       fy="43.5"
       fx="4.9929786"
       r="2.5"
       cy="43.5"
       cx="4.9929786" />
    <radialGradient
       gradientTransform="matrix(2.003784,0,0,1.4,-20.01187,-104.4)"
       gradientUnits="userSpaceOnUse"
       xlink:href="#linearGradient3688-166-749-2-324"
       id="radialGradient3015-826-5-7"
       fy="43.5"
       fx="4.9929786"
       r="2.5"
       cy="43.5"
       cx="4.9929786" />
    <linearGradient
       inkscape:collect="always"
       xlink:href="#linearGradient4187"
       id="linearGradient4416"
       x1="7.9548869"
       y1="1.7142857"
       x2="8.0451126"
       y2="14.165414"
       gradientUnits="userSpaceOnUse" />
  </defs>
  <metadata
     id="metadata3148">
    <rdf:RDF>
      <cc:Work
         rdf:about="">
        <dc:format>image/svg+xml</dc:format>
        <dc:type
           rdf:resource="http://purl.org/dc/dcmitype/StillImage" />
        <dc:title />
      </cc:Work>
    </rdf:RDF>
  </metadata>
  <g
     id="g4224"
     fill="#ffc239"
     transform="matrix(1.0826 0 0 -1.0785 -1.975 50.826)">
    <g
       id="g4226"
       fill="#ffc239"
       clip-path="url(#clipPath-929888831)">
      <!-- color: #dfdfdf -->
    </g>
  </g>
  <g
     id="g4232"
     fill="#ffc239"
     transform="matrix(-1.0826 0 0 -1.0785 49.975 50.826)">
    <g
       id="g4234"
       fill="#ffc239"
       clip-path="url(#clipPath-929888831)">
      <!-- color: #dfdfdf -->
    </g>
  </g>
  <g
     id="g4294"
     stroke-linejoin="round"
     opacity=".15"
     transform="matrix(.99936 0 0 .99553 .022037 .46841)"
     stroke="#fff"
     stroke-linecap="round"
     stroke-width="1.8509"
     fill="none">
    <g
       id="g4296"
       transform="matrix(1.0833 0 0 1.0833 -2 -1.3)">
      <g
         id="g4298"
         stroke-linejoin="round"
         clip-path="url(#clipPath-929888831)"
         stroke="#fff"
         stroke-linecap="round"
         stroke-width="1.8509"
         fill="none">
        <!-- color: #dfdfdf -->
      </g>
    </g>
    <g
       id="g4304"
       transform="matrix(1.0833 0 0 -1.0833 -1.9983 50.583)">
      <g
         id="g4306"
         stroke-linejoin="round"
         clip-path="url(#clipPath-929888831)"
         stroke="#fff"
         stroke-linecap="round"
         stroke-width="1.8509"
         fill="none">
        <!-- color: #dfdfdf -->
      </g>
    </g>
    <g
       id="g4310"
       transform="matrix(-1.0833 0 0 -1.0833 49.985 50.583)">
      <g
         id="g4312"
         stroke-linejoin="round"
         clip-path="url(#clipPath-929888831)"
         stroke="#fff"
         stroke-linecap="round"
         stroke-width="1.8509"
         fill="none">
        <!-- color: #dfdfdf -->
      </g>
    </g>
  </g>
  <path
     inkscape:connector-curvature="0"
     id="rect3863-9"
     style="color:#000000;fill:url(#linearGradient4212);fill-opacity:1;enable-background:new"
     d="M 2.428571,1.4999998 C 1.914143,1.4999998 1.5,1.9141428 1.5,2.4285708 l 0,4.178571 c 0,0.514429 0.414143,0.928572 0.928571,0.928572 0.514429,0 0.928572,-0.414143 0.928572,-0.928572 l 0,-1.944196 1.392857,1.392857 0,1.479911 1.857143,0 0,-0.464286 c 0,-0.257214 0.207072,-0.464286 0.464286,-0.464286 l 0.464286,0 0,-1.857142 -1.479911,0 -1.392857,-1.392857 1.944428,0 c 0.514429,0 0.928572,-0.414143 0.928572,-0.928572 0,-0.514428 -0.414143,-0.928571 -0.928572,-0.928571 l -4.178571,0 z m 6.9642858,0 c -0.5144278,0 -0.9285708,0.414143 -0.9285708,0.928571 0,0.514429 0.414143,0.928572 0.9285708,0.928572 l 1.9441962,0 -1.3928572,1.392857 -1.4799098,0 0,1.857142 0.464285,0 c 0.2572148,0 0.4642858,0.207072 0.4642858,0.464286 l 0,0.464286 1.8571432,0 0,-1.479911 1.392857,-1.392857 0,1.944429 c 0,0.514428 0.414143,0.928571 0.928571,0.928571 0.514429,0 0.928572,-0.414143 0.928572,-0.928571 l 0,-4.178572 c 0,-0.514428 -0.414143,-0.928571 -0.928572,-0.928571 l -4.1785712,0 z M 4.75,8.4642848 l 0,1.8571422 c 0,0.514429 0.414143,0.928572 0.928572,0.928572 l 1.857143,0 0,-1.8571425 -0.464286,0 c -0.257214,0 -0.464286,-0.207072 -0.464286,-0.464286 l 0,-0.4642857 z m 4.6428568,0 0,0.4642857 c 0,0.257214 -0.207071,0.464286 -0.4642858,0.464286 l -0.464285,0 0,1.8571425 1.4799098,0 1.3928572,1.392857 -1.9444282,0 c -0.5144288,0 -0.9286248,0.414143 -0.9286248,0.928571 0,0.514429 0.414196,0.928572 0.9286248,0.928572 l 4.1785712,0 c 0.514429,0 0.928458,-0.414143 0.928471,-0.928572 l 1.01e-4,-4.1785705 c 1.2e-5,-0.514429 -0.414143,-0.9285717 -0.928572,-0.9285717 -0.514428,0 -0.928571,0.4141427 -0.928571,0.9285717 l 0,1.9441955 -1.392857,-1.3928565 0,-1.4801427 c -0.618725,1.3e-5 -1.239177,-1.25e-4 -1.8569112,2.32e-4 z"
     sodipodi:nodetypes="sssssccccssccccssscscssccccssccccssssscccssccsscccssccccsssssssscccc" />
  <path
     inkscape:connector-curvature="0"
     id="rect3863-5"
     style="color:#000000;opacity:0.3;fill:none;fill-opacity:1;stroke:#ad5f00;stroke-width:1;stroke-opacity:1;enable-background:new"
     d="M 2.428571,1.4999993 C 1.914143,1.4999993 1.5,1.9141423 1.5,2.4285713 l 0,4.178571 c 0,0.514428 0.414143,0.928571 0.928571,0.928571 0.514429,0 0.928572,-0.414143 0.928572,-0.928571 l 0,-1.944196 1.392857,1.392857 0,1.47991 1.857143,0 0,-0.464285 c 0,-0.257215 0.207071,-0.464286 0.464286,-0.464286 l 0.464285,0 0,-1.857143 -1.47991,0 -1.392858,-1.392857 1.944429,0 c 0.514429,0 0.928571,-0.414143 0.928571,-0.928571 0,-0.514429 -0.414142,-0.928572 -0.928571,-0.928572 l -4.178572,0 z m 6.9642858,0 c -0.5144288,0 -0.9285708,0.414143 -0.9285708,0.928572 0,0.514428 0.414142,0.928571 0.9285708,0.928571 l 1.9441962,0 -1.3928572,1.392857 -1.4799098,0 0,1.857143 0.464285,0 c 0.2572138,0 0.4642858,0.207071 0.4642858,0.464286 l 0,0.464285 1.8571432,0 0,-1.47991 1.392857,-1.392857 0,1.944428 c 0,0.514429 0.414143,0.928571 0.928571,0.928571 0.514429,0 0.928572,-0.414142 0.928572,-0.928571 l 0,-4.178571 c 0,-0.514429 -0.414143,-0.928572 -0.928572,-0.928572 l -4.1785712,0 z M 4.75,8.4642853 l 0,1.8571427 c 0,0.514428 0.414143,0.928571 0.928571,0.928571 l 1.857143,0 0,-1.857143 -0.464285,0 c -0.257215,0 -0.464286,-0.207071 -0.464286,-0.464285 l 0,-0.4642857 z m 4.6428568,0 0,0.4642857 c 0,0.257214 -0.207072,0.464285 -0.4642858,0.464285 l -0.464285,0 0,1.857143 1.4799098,0 1.3928572,1.392857 -1.9444282,0 c -0.5144288,0 -0.9285708,0.414144 -0.9285708,0.928572 0,0.514428 0.414142,0.928572 0.9285708,0.928572 l 4.1785712,0 c 0.514429,0 0.928572,-0.414144 0.928572,-0.928572 l 0,-4.178572 c 0,-0.514428 -0.414143,-0.9285707 -0.928572,-0.9285707 -0.514429,0 -0.928571,0.4141427 -0.928571,0.9285707 l 0,1.944197 -1.392858,-1.392857 0,-1.4801427 c -0.618724,1.2e-5 -1.239177,-1.26e-4 -1.8569102,2.32e-4 z"
     sodipodi:nodetypes="sssssccccssccccssscscssccccssccccssssscccssccsscccssccccsssssssscccc" />
  <path
     style="color:#000000;fill:url(#linearGradient4416);fill-opacity:1;enable-background:new;stroke:none"
     d="m 2.4277342,1.9999996 c -0.246077,0 -0.4277344,0.181659 -0.4277344,0.427735 l 0,4.1796866 c 0,0.246077 0.1816574,0.427734 0.4277344,0.427734 0.246078,1e-6 0.4277343,-0.181656 0.4277343,-0.427734 l 0,-3.1523436 2.3945313,2.3925776 0,1.1875 0.8710938,0 c 0.022438,-0.492759 0.4210804,-0.890669 0.9140625,-0.912109 l 0,-0.8730466 -1.1875,0 -2.3925782,-2.392578 3.1523438,0 c 0.246078,0 0.4277344,-0.183609 0.4277344,-0.429687 -1e-7,-0.246076 -0.1816564,-0.427735 -0.4277344,-0.427735 l -4.1796875,0 z m 6.9648437,0 c -0.246077,0 -0.4296875,0.181659 -0.4296875,0.427735 0,0.246078 0.1836105,0.429687 0.4296875,0.429687 l 3.1503911,0 -2.392579,2.392578 -1.1874996,0 0,0.8730466 c 0.492982,0.02144 0.8916226,0.419352 0.9140626,0.912109 l 0.873047,0 0,-1.1875 2.392578,-2.3925776 0,3.1523436 c 0,0.246076 0.181658,0.427734 0.427734,0.427734 C 13.81639,7.0351562 14,6.8534972 14,6.6074212 l 0,-4.1777336 c 0,-0.246076 -0.18361,-0.429688 -0.429688,-0.429688 l -4.1777341,0 z m -4.1425781,6.9648436 0,1.3574228 c 0,0.246078 0.1816564,0.427734 0.4277344,0.427734 l 1.3574219,0 0,-0.8730478 c -0.492982,-0.02144 -0.8916225,-0.41935 -0.9140625,-0.912109 l -0.8710938,0 z m 4.6269532,0 c -0.02244,0.492757 -0.4210806,0.890669 -0.9140626,0.912109 l 0,0.8730478 1.1874996,0 2.392579,2.392578 -3.1503911,0 c -0.246078,0 -0.4296875,0.183646 -0.4296875,0.429688 C 8.9628904,13.81831 9.1464999,14 9.3925779,14 l 4.1777341,0 c 0.246078,0 0.427729,-0.181575 0.427735,-0.427734 l 0,-4.1796888 c 6e-6,-0.246064 -0.181657,-0.4277339 -0.427735,-0.4277339 -0.246076,-10e-7 -0.427734,0.181656 -0.427734,0.4277339 l 0,3.1523448 -2.394531,-2.394531 0,-1.1855478 c -0.290754,-1.1e-5 -0.580643,-6.7e-5 -0.871094,0 z"
     id="rect3863-9-7"
     inkscape:connector-curvature="0" />
</svg>
